<svg width="213" height="15" viewBox="0 0 213 15" fill="none" xmlns="http://www.w3.org/2000/svg">
<g id="Group">
<path id="Vector" d="M181.434 8.556L181.659 8.70584L182.034 8.556L182.409 8.70584L182.409 10.1299L182.783 10.2797L183.158 10.1299L183.533 10.2797L183.533 11.7036L183.908 11.8534L184.282 11.7036L184.657 11.8534L184.657 13.2774L185.032 13.4273L185.407 13.2774L185.781 13.4273L185.781 14.8511L186.156 15.0011L186.531 14.8511L186.905 15.0011L187.28 14.8511L187.28 13.4273L187.655 13.2774L188.03 13.4273L188.03 14.8511L188.404 15.0011L188.779 14.8511L189.154 15.0011L189.529 14.8511L189.529 13.4273L189.903 13.2774L190.278 13.4273L190.653 13.2774L190.653 11.8534L191.028 11.7036L191.402 11.8534L191.777 11.7036L191.777 10.2797L192.152 10.1299L192.527 10.2797L192.901 10.1299L192.901 8.70584L193.276 8.556L193.651 8.70584L194.026 8.556L194.026 7.13216L193.651 6.98213L193.276 7.13216L192.901 6.98213L192.901 5.55829L192.527 5.40844L192.152 5.55829L191.777 5.40844L191.777 3.98442L191.402 3.83457L191.028 3.98442L190.653 3.83457L190.653 2.41073L190.278 2.26088L189.903 2.41073L189.529 2.26088L189.529 0.83686L189.154 0.687012L188.779 0.83686L188.404 0.687011L188.03 0.83686L188.03 2.26088L187.655 2.41073L187.28 2.26088L187.28 0.83686L186.905 0.687011L186.531 0.83686L186.156 0.687011L185.781 0.83686L185.781 2.26088L185.407 2.41073L185.032 2.26088L184.657 2.41073L184.657 3.83457L184.282 3.98442L183.908 3.83457L183.533 3.98442L183.533 5.40844L183.158 5.55829L182.783 5.40844L182.409 5.55829L182.409 6.98213L182.034 7.13216L181.659 6.98213L181.284 7.13216L181.284 8.556L181.434 8.556ZM191.252 7.73155L191.252 7.05714L191.627 6.90729L192.002 7.05714L192.002 8.48098L191.627 8.63101L191.252 8.48098L191.252 7.73155ZM190.203 5.48327L190.578 5.33342L190.953 5.48327L190.953 6.90729L190.578 7.05714L190.203 6.90729L190.203 5.48327ZM190.203 8.63101L190.578 8.48098L190.953 8.63101L190.953 10.0549L190.578 10.2047L190.203 10.0549L190.203 8.63101ZM189.079 3.90958L189.454 3.75974L189.828 3.90958L189.828 5.33342L189.454 5.48327L189.079 5.33342L189.079 3.90958ZM189.079 7.05714L189.454 6.90729L189.828 7.05714L189.828 8.48098L189.454 8.63101L189.079 8.48098L189.079 7.05714ZM189.079 10.2047L189.454 10.0549L189.828 10.2047L189.828 11.6287L189.454 11.7786L189.079 11.6287L189.079 10.2047ZM188.779 13.2024L188.404 13.3523L188.03 13.2024L188.03 11.7786L188.404 11.6287L188.779 11.7786L188.779 13.2024ZM188.03 2.33571L188.404 2.18587L188.779 2.33571L188.779 3.75974L188.404 3.90958L188.03 3.75974L188.03 2.33571ZM188.03 5.48327L188.404 5.33342L188.779 5.48327L188.779 6.90729L188.404 7.05714L188.03 6.90729L188.03 5.48327ZM188.03 8.63101L188.404 8.48098L188.779 8.63101L188.779 10.0549L188.404 10.2047L188.03 10.0549L188.03 8.63101ZM186.98 3.90958L187.355 3.75974L187.73 3.90958L187.73 5.33342L187.355 5.48327L186.98 5.33342L186.98 3.90958ZM186.98 8.48098L186.98 7.05714L187.355 6.90729L187.73 7.05714L187.73 8.48098L187.355 8.63101L186.98 8.48098ZM186.98 10.2047L187.355 10.0549L187.73 10.2047L187.73 11.6287L187.355 11.7786L186.98 11.6287L186.98 10.2047ZM186.606 13.2024L186.231 13.3523L185.856 13.2024L185.856 11.7786L186.231 11.6287L186.606 11.7786L186.606 13.2024ZM185.931 2.33571L186.306 2.18587L186.681 2.33571L186.681 3.75974L186.306 3.90958L185.931 3.75974L185.931 2.33571ZM185.931 5.48327L186.306 5.33342L186.681 5.48327L186.681 6.90729L186.306 7.05714L185.931 6.90729L185.931 5.48327ZM185.931 8.63101L186.306 8.48098L186.681 8.63101L186.681 10.0549L186.306 10.2047L185.931 10.0549L185.931 8.63101ZM184.882 3.90958L185.257 3.75974L185.631 3.90958L185.631 5.33342L185.257 5.48327L184.882 5.33342L184.882 3.90958ZM184.882 7.05714L185.257 6.90729L185.631 7.05714L185.631 8.48098L185.257 8.63101L184.882 8.48098L184.882 7.05714ZM184.882 10.2047L185.257 10.0549L185.631 10.2047L185.631 11.6287L185.257 11.7786L184.882 11.6287L184.882 10.2047ZM183.758 5.48327L184.132 5.33342L184.507 5.48327L184.507 6.90729L184.132 7.05714L183.758 6.90729L183.758 5.48327ZM183.758 8.63101L184.132 8.48098L184.507 8.63101L184.507 10.0549L184.132 10.2047L183.758 10.0549L183.758 8.63101ZM182.708 8.48098L182.708 7.05714L183.083 6.90729L183.458 7.05714L183.458 8.48098L183.083 8.63101L182.708 8.48098Z" fill="#F2E9E4"/>
<g id="Group_2">
<path id="Vector_2" d="M158.276 8.62996L158.276 10.0538L158.651 10.2036L159.026 10.0538L159.026 8.62996L159.4 8.47993L159.775 8.62996L160.15 8.47993L160.525 8.62996L160.899 8.47993L161.274 8.62996L161.274 10.0538L160.899 10.2036L160.525 10.0538L160.15 10.2036L160.15 11.6277L159.775 11.7775L159.4 11.6277L159.026 11.7775L159.026 13.2014L159.4 13.3512L159.775 13.2014L160.15 13.3512L160.525 13.2014L160.525 11.7775L160.899 11.6277L161.274 11.7775L161.649 11.6277L161.649 10.2036L162.024 10.0538L162.398 10.2036L162.773 10.0538L162.773 8.62996L163.148 8.47993L163.523 8.62996L163.897 8.47993L164.272 8.62996L164.647 8.47993L165.022 8.62996L165.396 8.47993L165.771 8.62996L166.146 8.47993L166.521 8.62996L166.895 8.47993L167.27 8.62996L167.645 8.47993L168.019 8.62996L168.394 8.47993L168.769 8.62996L169.144 8.47993L169.518 8.62996L169.893 8.47993L170.268 8.62996L170.643 8.47993L171.017 8.62996L171.392 8.47993L171.767 8.62996L172.142 8.47993L172.516 8.62996L172.891 8.47993L173.266 8.62996L173.641 8.47993L174.015 8.62996L174.39 8.47993L174.765 8.62996L175.14 8.47993L175.514 8.62996L175.889 8.47993L176.264 8.62996L176.639 8.47993L177.013 8.62996L177.013 10.0538L177.388 10.2036L177.763 10.0538L178.137 10.2036L178.137 11.6277L178.512 11.7775L178.887 11.6277L179.262 11.7775L179.262 13.2014L179.636 13.3512L180.011 13.2014L180.386 13.3512L180.761 13.2014L180.761 11.7775L180.386 11.6277L180.011 11.7775L179.636 11.6277L179.636 10.2036L179.262 10.0538L178.887 10.2036L178.512 10.0538L178.512 8.62996L178.887 8.47993L179.262 8.62996L179.636 8.47993L180.011 8.62996L180.386 8.47993L180.761 8.62996L180.761 10.0538L181.135 10.2036L181.51 10.0538L181.51 8.62996L181.135 8.47993L181.135 7.05609L181.51 6.90624L181.51 5.48222L181.135 5.33237L180.761 5.48222L180.761 6.90624L180.386 7.05609L180.011 6.90624L179.636 7.05609L179.262 6.90624L178.887 7.05609L178.512 6.90624L178.512 5.48222L178.887 5.33237L179.262 5.48222L179.636 5.33237L179.636 3.90853L180.011 3.75868L180.386 3.90853L180.761 3.75868L180.761 2.33466L180.386 2.18481L180.011 2.33466L179.636 2.18481L179.262 2.33466L179.262 3.75868L178.887 3.90853L178.512 3.75868L178.137 3.90853L178.137 5.33237L177.763 5.48222L177.388 5.33237L177.013 5.48222L177.013 6.90624L176.639 7.05609L176.264 6.90624L175.889 7.05609L175.514 6.90624L175.14 7.05609L174.765 6.90624L174.39 7.05609L174.015 6.90624L173.641 7.05609L173.266 6.90624L172.891 7.05609L172.516 6.90624L172.142 7.05609L171.767 6.90624L171.392 7.05609L171.017 6.90624L170.643 7.05609L170.268 6.90624L169.893 7.05609L169.518 6.90624L169.144 7.05609L168.769 6.90624L168.394 7.05609L168.019 6.90624L167.645 7.05609L167.27 6.90624L166.895 7.05609L166.521 6.90624L166.146 7.05609L165.771 6.90624L165.396 7.05609L165.022 6.90624L164.647 7.05609L164.272 6.90624L163.897 7.05609L163.523 6.90624L163.148 7.05609L162.773 6.90624L162.773 5.48222L162.398 5.33237L162.024 5.48222L161.649 5.33237L161.649 3.90853L161.274 3.75868L160.899 3.90853L160.525 3.75868L160.525 2.33466L160.15 2.18481L159.775 2.33466L159.4 2.18481L159.026 2.33466L159.026 3.75868L159.4 3.90853L159.775 3.75868L160.15 3.90853L160.15 5.33237L160.525 5.48222L160.899 5.33237L161.274 5.48222L161.274 6.90624L160.899 7.05609L160.525 6.90624L160.15 7.05609L159.775 6.90624L159.4 7.05609L159.026 6.90624L159.026 5.48222L158.651 5.33237L158.276 5.48222L158.276 6.90624L158.651 7.05609L158.651 8.47993L158.276 8.62996ZM176.339 7.05609L176.713 6.90624L177.088 7.05609L177.088 8.47993L176.713 8.62996L176.339 8.47993L176.339 7.05609ZM161.499 7.05609L161.874 6.90624L162.249 7.05609L162.249 8.47993L161.874 8.62996L161.499 8.47993L161.499 7.05609Z" fill="#F2E9E4"/>
<g id="Group_3">
<path id="Vector_3" d="M165.021 13.2013L165.395 13.4261L165.695 13.2013L166.07 13.4261L166.445 13.2013L166.445 11.8523L166.819 11.6276L166.819 10.2036L166.445 10.0537L166.07 10.2036L165.695 10.0537L165.395 10.2036L165.021 10.0537L164.646 10.2036L164.646 11.6276L165.021 11.8523L165.021 13.2013Z" fill="#F2E9E4"/>
<path id="Vector_4" d="M168.544 13.2013L168.919 13.4261L169.294 13.2013L169.594 13.4261L169.968 13.2013L169.968 11.8523L170.343 11.6276L170.343 10.2036L169.968 10.0537L169.594 10.2036L169.294 10.0537L168.919 10.2036L168.544 10.0537L168.245 10.2036L168.245 11.6276L168.544 11.8523L168.544 13.2013Z" fill="#F2E9E4"/>
<path id="Vector_5" d="M172.141 11.8523L172.141 13.2013L172.441 13.4261L172.816 13.2013L173.19 13.4261L173.49 13.2013L173.49 11.8523L173.865 11.6276L173.865 10.2036L173.49 10.0537L173.19 10.2036L172.816 10.0537L172.441 10.2036L172.141 10.0537L171.766 10.2036L171.766 11.6276L172.141 11.8523Z" fill="#F2E9E4"/>
</g>
<g id="Group_4">
<path id="Vector_6" d="M173.491 2.33583L173.191 2.11096L172.817 2.33583L172.442 2.11096L172.142 2.33583L172.142 3.68483L171.767 3.9097L171.767 5.2587L172.142 5.48338L172.442 5.2587L172.817 5.48338L173.191 5.2587L173.491 5.48338L173.866 5.2587L173.866 3.9097L173.491 3.68483L173.491 2.33583Z" fill="#F2E9E4"/>
<path id="Vector_7" d="M169.97 2.33583L169.596 2.11096L169.296 2.33583L168.921 2.11096L168.546 2.33583L168.546 3.68483L168.247 3.9097L168.247 5.2587L168.546 5.48338L168.921 5.2587L169.296 5.48338L169.596 5.2587L169.97 5.48338L170.345 5.2587L170.345 3.9097L169.97 3.68483L169.97 2.33583Z" fill="#F2E9E4"/>
<path id="Vector_8" d="M166.445 3.68483L166.445 2.33583L166.07 2.11096L165.695 2.33583L165.395 2.11096L165.021 2.33583L165.021 3.68483L164.646 3.9097L164.646 5.2587L165.021 5.48338L165.395 5.2587L165.695 5.48338L166.07 5.2587L166.445 5.48338L166.819 5.2587L166.819 3.9097L166.445 3.68483Z" fill="#F2E9E4"/>
</g>
</g>
<path id="Vector_9" d="M145.309 8.556L145.533 8.70584L145.908 8.556L146.283 8.70584L146.283 10.1299L146.658 10.2797L147.032 10.1299L147.407 10.2797L147.407 11.7036L147.782 11.8534L148.157 11.7036L148.531 11.8534L148.531 13.2774L148.906 13.4273L149.281 13.2774L149.656 13.4273L149.656 14.8511L150.03 15.0011L150.405 14.8511L150.78 15.0011L151.154 14.8511L151.154 13.4273L151.529 13.2774L151.904 13.4273L151.904 14.8511L152.279 15.0011L152.653 14.8511L153.028 15.0011L153.403 14.8511L153.403 13.4273L153.778 13.2774L154.152 13.4273L154.527 13.2774L154.527 11.8534L154.902 11.7036L155.277 11.8534L155.651 11.7036L155.651 10.2797L156.026 10.1299L156.401 10.2797L156.776 10.1299L156.776 8.70584L157.15 8.556L157.525 8.70584L157.9 8.556L157.9 7.13216L157.525 6.98213L157.15 7.13216L156.776 6.98213L156.776 5.55829L156.401 5.40844L156.026 5.55829L155.651 5.40844L155.651 3.98442L155.277 3.83457L154.902 3.98442L154.527 3.83457L154.527 2.41073L154.152 2.26088L153.778 2.41073L153.403 2.26088L153.403 0.83686L153.028 0.687012L152.653 0.83686L152.279 0.687011L151.904 0.83686L151.904 2.26088L151.529 2.41073L151.154 2.26088L151.154 0.83686L150.78 0.687011L150.405 0.83686L150.03 0.687011L149.656 0.83686L149.656 2.26088L149.281 2.41073L148.906 2.26088L148.531 2.41073L148.531 3.83457L148.157 3.98442L147.782 3.83457L147.407 3.98442L147.407 5.40844L147.032 5.55829L146.658 5.40844L146.283 5.55829L146.283 6.98213L145.908 7.13216L145.533 6.98213L145.159 7.13216L145.159 8.556L145.309 8.556ZM155.127 7.73155L155.127 7.05714L155.501 6.90729L155.876 7.05714L155.876 8.48098L155.501 8.63101L155.127 8.48098L155.127 7.73155ZM154.002 5.48327L154.377 5.33342L154.752 5.48327L154.752 6.90729L154.377 7.05714L154.002 6.90729L154.002 5.48327ZM154.002 8.63101L154.377 8.48098L154.752 8.63101L154.752 10.0549L154.377 10.2047L154.002 10.0549L154.002 8.63101ZM152.953 3.90958L153.328 3.75974L153.703 3.90958L153.703 5.33342L153.328 5.48327L152.953 5.33342L152.953 3.90958ZM152.953 7.05714L153.328 6.90729L153.703 7.05714L153.703 8.48098L153.328 8.63101L152.953 8.48098L152.953 7.05714ZM152.953 10.2047L153.328 10.0549L153.703 10.2047L153.703 11.6287L153.328 11.7786L152.953 11.6287L152.953 10.2047ZM152.578 13.2024L152.204 13.3523L151.829 13.2024L151.829 11.7786L152.204 11.6287L152.578 11.7786L152.578 13.2024ZM151.904 2.33571L152.279 2.18587L152.653 2.33571L152.653 3.75974L152.279 3.90958L151.904 3.75974L151.904 2.33571ZM151.904 5.48327L152.279 5.33342L152.653 5.48327L152.653 6.90729L152.279 7.05714L151.904 6.90729L151.904 5.48327ZM151.904 8.63101L152.279 8.48098L152.653 8.63101L152.653 10.0549L152.279 10.2047L151.904 10.0549L151.904 8.63101ZM150.855 3.90958L151.229 3.75974L151.604 3.90958L151.604 5.33342L151.229 5.48327L150.855 5.33342L150.855 3.90958ZM150.855 8.48098L150.855 7.05714L151.229 6.90729L151.604 7.05714L151.604 8.48098L151.229 8.63101L150.855 8.48098ZM150.855 10.2047L151.229 10.0549L151.604 10.2047L151.604 11.6287L151.229 11.7786L150.855 11.6287L150.855 10.2047ZM150.48 13.2024L150.105 13.3523L149.73 13.2024L149.73 11.7786L150.105 11.6287L150.48 11.7786L150.48 13.2024ZM149.805 2.33571L150.18 2.18587L150.555 2.33571L150.555 3.75974L150.18 3.90958L149.805 3.75974L149.805 2.33571ZM149.805 5.48327L150.18 5.33342L150.555 5.48327L150.555 6.90729L150.18 7.05714L149.805 6.90729L149.805 5.48327ZM149.805 8.63101L150.18 8.48098L150.555 8.63101L150.555 10.0549L150.18 10.2047L149.805 10.0549L149.805 8.63101ZM148.681 3.90958L149.056 3.75974L149.431 3.90958L149.431 5.33342L149.056 5.48327L148.681 5.33342L148.681 3.90958ZM148.681 7.05714L149.056 6.90729L149.431 7.05714L149.431 8.48098L149.056 8.63101L148.681 8.48098L148.681 7.05714ZM148.681 10.2047L149.056 10.0549L149.431 10.2047L149.431 11.6287L149.056 11.7786L148.681 11.6287L148.681 10.2047ZM147.632 5.48327L148.007 5.33342L148.381 5.48327L148.381 6.90729L148.007 7.05714L147.632 6.90729L147.632 5.48327ZM147.632 8.63101L148.007 8.48098L148.381 8.63101L148.381 10.0549L148.007 10.2047L147.632 10.0549L147.632 8.63101ZM146.583 8.48098L146.583 7.05714L146.957 6.90729L147.332 7.05714L147.332 8.48098L146.957 8.63101L146.583 8.48098Z" fill="#F2E9E4"/>
<g id="Group_5">
<path id="Vector_10" d="M122.15 8.62984L122.15 10.0537L122.525 10.2035L122.899 10.0537L122.899 8.62984L123.274 8.47981L123.649 8.62984L124.024 8.47981L124.398 8.62984L124.773 8.47981L125.148 8.62984L125.148 10.0537L124.773 10.2035L124.398 10.0537L124.024 10.2035L124.024 11.6275L123.649 11.7774L123.274 11.6275L122.899 11.7774L122.899 13.2012L123.274 13.3511L123.649 13.2012L124.024 13.3511L124.398 13.2012L124.398 11.7774L124.773 11.6275L125.148 11.7774L125.523 11.6275L125.523 10.2035L125.897 10.0537L126.272 10.2035L126.647 10.0537L126.647 8.62984L127.022 8.47981L127.396 8.62984L127.771 8.47981L128.146 8.62984L128.52 8.47981L128.895 8.62984L129.27 8.47981L129.645 8.62984L130.019 8.47981L130.394 8.62984L130.769 8.47981L131.144 8.62984L131.518 8.47981L131.893 8.62984L132.268 8.47981L132.643 8.62984L133.017 8.47981L133.392 8.62984L133.767 8.47981L134.142 8.62984L134.516 8.47981L134.891 8.62984L135.266 8.47981L135.641 8.62984L136.015 8.47981L136.39 8.62984L136.765 8.47981L137.14 8.62984L137.514 8.47981L137.889 8.62984L138.264 8.47981L138.638 8.62984L139.013 8.47981L139.388 8.62984L139.763 8.47981L140.137 8.62984L140.512 8.47981L140.887 8.62984L140.887 10.0537L141.262 10.2035L141.636 10.0537L142.011 10.2035L142.011 11.6275L142.386 11.7774L142.761 11.6275L143.135 11.7774L143.135 13.2012L143.51 13.3511L143.885 13.2012L144.26 13.3511L144.634 13.2012L144.634 11.7774L144.26 11.6275L143.885 11.7774L143.51 11.6275L143.51 10.2035L143.135 10.0537L142.761 10.2035L142.386 10.0537L142.386 8.62984L142.761 8.47981L143.135 8.62984L143.51 8.47981L143.885 8.62984L144.26 8.47981L144.634 8.62984L144.634 10.0537L145.009 10.2035L145.384 10.0537L145.384 8.62984L145.009 8.47981L145.009 7.05597L145.384 6.90612L145.384 5.4821L145.009 5.33225L144.634 5.4821L144.634 6.90612L144.26 7.05597L143.885 6.90612L143.51 7.05597L143.135 6.90612L142.761 7.05597L142.386 6.90612L142.386 5.4821L142.761 5.33225L143.135 5.4821L143.51 5.33225L143.51 3.90841L143.885 3.75856L144.26 3.90841L144.634 3.75856L144.634 2.33454L144.26 2.18469L143.885 2.33454L143.51 2.18469L143.135 2.33454L143.135 3.75856L142.761 3.90841L142.386 3.75856L142.011 3.90841L142.011 5.33225L141.636 5.4821L141.262 5.33225L140.887 5.4821L140.887 6.90612L140.512 7.05597L140.137 6.90612L139.763 7.05597L139.388 6.90612L139.013 7.05597L138.638 6.90612L138.264 7.05597L137.889 6.90612L137.514 7.05597L137.14 6.90612L136.765 7.05597L136.39 6.90612L136.015 7.05597L135.641 6.90612L135.266 7.05597L134.891 6.90612L134.516 7.05597L134.142 6.90612L133.767 7.05597L133.392 6.90612L133.017 7.05597L132.643 6.90612L132.268 7.05597L131.893 6.90612L131.518 7.05597L131.144 6.90612L130.769 7.05597L130.394 6.90612L130.019 7.05597L129.645 6.90612L129.27 7.05597L128.895 6.90612L128.52 7.05597L128.146 6.90612L127.771 7.05597L127.396 6.90612L127.022 7.05597L126.647 6.90612L126.647 5.4821L126.272 5.33225L125.897 5.4821L125.523 5.33225L125.523 3.90841L125.148 3.75856L124.773 3.90841L124.398 3.75856L124.398 2.33454L124.024 2.18469L123.649 2.33454L123.274 2.18469L122.899 2.33454L122.899 3.75856L123.274 3.90841L123.649 3.75856L124.024 3.90841L124.024 5.33225L124.398 5.4821L124.773 5.33225L125.148 5.4821L125.148 6.90612L124.773 7.05597L124.398 6.90612L124.024 7.05597L123.649 6.90612L123.274 7.05597L122.899 6.90612L122.899 5.4821L122.525 5.33225L122.15 5.4821L122.15 6.90612L122.525 7.05597L122.525 8.47981L122.15 8.62984ZM140.212 7.05597L140.587 6.90612L140.962 7.05597L140.962 8.47981L140.587 8.62984L140.212 8.47981L140.212 7.05597ZM125.298 7.05597L125.672 6.90612L126.047 7.05597L126.047 8.47981L125.672 8.62984L125.298 8.47981L125.298 7.05597Z" fill="#F2E9E4"/>
<g id="Group_6">
<path id="Vector_11" d="M128.896 13.2013L129.196 13.4261L129.57 13.2013L129.945 13.4261L130.32 13.2013L130.32 11.8523L130.62 11.6276L130.62 10.2036L130.32 10.0537L129.945 10.2036L129.57 10.0537L129.196 10.2036L128.896 10.0537L128.521 10.2036L128.521 11.6276L128.896 11.8523L128.896 13.2013Z" fill="#F2E9E4"/>
<path id="Vector_12" d="M132.419 13.2013L132.794 13.4261L133.094 13.2013L133.469 13.4261L133.843 13.2013L133.843 11.8523L134.218 11.6276L134.218 10.2036L133.843 10.0537L133.469 10.2036L133.094 10.0537L132.794 10.2036L132.419 10.0537L132.045 10.2036L132.045 11.6276L132.419 11.8523L132.419 13.2013Z" fill="#F2E9E4"/>
<path id="Vector_13" d="M135.941 11.8523L135.941 13.2013L136.316 13.4261L136.691 13.2013L136.99 13.4261L137.365 13.2013L137.365 11.8523L137.74 11.6276L137.74 10.2036L137.365 10.0537L136.99 10.2036L136.691 10.0537L136.316 10.2036L135.941 10.0537L135.641 10.2036L135.641 11.6276L135.941 11.8523Z" fill="#F2E9E4"/>
</g>
<g id="Group_7">
<path id="Vector_14" d="M137.365 2.33595L136.99 2.11108L136.691 2.33595L136.316 2.11108L135.941 2.33595L135.941 3.68495L135.641 3.90982L135.641 5.25882L135.941 5.48351L136.316 5.25882L136.691 5.48351L136.99 5.25882L137.365 5.48351L137.74 5.25882L137.74 3.90982L137.365 3.68495L137.365 2.33595Z" fill="#F2E9E4"/>
<path id="Vector_15" d="M133.843 2.33595L133.469 2.11108L133.094 2.33595L132.794 2.11108L132.419 2.33595L132.419 3.68495L132.045 3.90982L132.045 5.25882L132.419 5.48351L132.794 5.25882L133.094 5.48351L133.469 5.25882L133.843 5.48351L134.218 5.25882L134.218 3.90982L133.843 3.68495L133.843 2.33595Z" fill="#F2E9E4"/>
<path id="Vector_16" d="M130.32 3.68495L130.32 2.33595L129.945 2.11108L129.57 2.33595L129.196 2.11108L128.896 2.33595L128.896 3.68495L128.521 3.90982L128.521 5.25882L128.896 5.48351L129.196 5.25882L129.57 5.48351L129.945 5.25882L130.32 5.48351L130.62 5.25882L130.62 3.90982L130.32 3.68495Z" fill="#F2E9E4"/>
</g>
</g>
<g id="Group_8">
<path id="Vector_17" d="M194.477 8.63094L194.477 10.0548L194.851 10.2046L195.226 10.0548L195.226 8.63094L195.601 8.4809L195.976 8.63094L196.35 8.4809L196.725 8.63094L197.1 8.4809L197.474 8.63094L197.474 10.0548L197.1 10.2046L196.725 10.0548L196.35 10.2046L196.35 11.6286L195.976 11.7785L195.601 11.6286L195.226 11.7785L195.226 13.2023L195.601 13.3522L195.976 13.2023L196.35 13.3522L196.725 13.2023L196.725 11.7785L197.1 11.6286L197.474 11.7785L197.849 11.6286L197.849 10.2046L198.224 10.0548L198.599 10.2046L198.973 10.0548L198.973 8.63094L199.348 8.4809L199.723 8.63094L200.098 8.4809L200.472 8.63094L200.847 8.4809L201.222 8.63094L201.597 8.4809L201.971 8.63094L202.346 8.4809L202.721 8.63094L203.096 8.4809L203.47 8.63094L203.845 8.4809L204.22 8.63094L204.595 8.4809L204.969 8.63094L205.344 8.4809L205.719 8.63094L206.094 8.48091L206.468 8.63094L206.843 8.48091L207.218 8.63094L207.592 8.48091L207.967 8.63094L208.342 8.48091L208.717 8.63094L209.091 8.48091L209.466 8.63094L209.841 8.48091L210.216 8.63094L210.59 8.48091L210.965 8.63094L211.34 8.48091L211.715 8.63094L212.089 8.48091L212.464 8.63094L212.839 8.48091L213.214 8.63094L213.214 10.0548L213.588 10.2046L213.963 10.0548L214.338 10.2046L214.338 11.6286L214.713 11.7785L215.087 11.6286L215.462 11.7785L215.462 13.2023L215.837 13.3522L216.211 13.2023L216.586 13.3522L216.961 13.2023L216.961 11.7785L216.586 11.6286L216.211 11.7785L215.837 11.6286L215.837 10.2046L215.462 10.0548L215.087 10.2046L214.713 10.0548L214.713 8.63094L215.087 8.48091L215.462 8.63094L215.837 8.48091L216.211 8.63094L216.586 8.48091L216.961 8.63094L216.961 10.0548L217.336 10.2046L217.71 10.0548L217.71 8.63094L217.336 8.48091L217.336 7.05707L217.71 6.90722L217.71 5.4832L217.336 5.33335L216.961 5.4832L216.961 6.90722L216.586 7.05707L216.211 6.90722L215.837 7.05707L215.462 6.90722L215.087 7.05707L214.713 6.90722L214.713 5.4832L215.087 5.33335L215.462 5.4832L215.837 5.33335L215.837 3.90951L216.211 3.75966L216.586 3.90951L216.961 3.75966L216.961 2.33564L216.586 2.18579L216.211 2.33564L215.837 2.18579L215.462 2.33564L215.462 3.75966L215.087 3.90951L214.713 3.75966L214.338 3.90951L214.338 5.33335L213.963 5.4832L213.588 5.33335L213.214 5.4832L213.214 6.90722L212.839 7.05707L212.464 6.90722L212.089 7.05707L211.715 6.90722L211.34 7.05707L210.965 6.90722L210.59 7.05707L210.216 6.90722L209.841 7.05707L209.466 6.90722L209.091 7.05707L208.717 6.90722L208.342 7.05707L207.967 6.90722L207.592 7.05707L207.218 6.90722L206.843 7.05707L206.468 6.90722L206.094 7.05707L205.719 6.90722L205.344 7.05707L204.969 6.90722L204.595 7.05707L204.22 6.90722L203.845 7.05707L203.47 6.90722L203.096 7.05707L202.721 6.90722L202.346 7.05707L201.971 6.90722L201.597 7.05707L201.222 6.90722L200.847 7.05707L200.472 6.90722L200.098 7.05707L199.723 6.90722L199.348 7.05707L198.973 6.90722L198.973 5.4832L198.599 5.33335L198.224 5.4832L197.849 5.33335L197.849 3.90951L197.474 3.75966L197.1 3.90951L196.725 3.75966L196.725 2.33564L196.35 2.18579L195.976 2.33564L195.601 2.18579L195.226 2.33564L195.226 3.75966L195.601 3.90951L195.976 3.75966L196.35 3.90951L196.35 5.33335L196.725 5.4832L197.1 5.33335L197.474 5.4832L197.474 6.90722L197.1 7.05707L196.725 6.90722L196.35 7.05707L195.976 6.90722L195.601 7.05707L195.226 6.90722L195.226 5.4832L194.851 5.33335L194.477 5.4832L194.477 6.90722L194.851 7.05707L194.851 8.4809L194.477 8.63094ZM212.539 7.05707L212.914 6.90722L213.289 7.05707L213.289 8.48091L212.914 8.63094L212.539 8.48091L212.539 7.05707ZM197.624 7.05707L197.999 6.90722L198.374 7.05707L198.374 8.4809L197.999 8.63094L197.624 8.4809L197.624 7.05707Z" fill="#F2E9E4"/>
<g id="Group_9">
<path id="Vector_18" d="M201.221 13.2013L201.521 13.4261L201.896 13.2013L202.271 13.4261L202.645 13.2013L202.645 11.8523L202.945 11.6276L202.945 10.2036L202.645 10.0537L202.271 10.2036L201.896 10.0537L201.521 10.2036L201.221 10.0537L200.847 10.2036L200.847 11.6276L201.221 11.8523L201.221 13.2013Z" fill="#F2E9E4"/>
<path id="Vector_19" d="M204.744 13.2013L205.119 13.4261L205.418 13.2013L205.793 13.4261L206.168 13.2013L206.168 11.8523L206.543 11.6276L206.543 10.2036L206.168 10.0537L205.793 10.2036L205.418 10.0537L205.119 10.2036L204.744 10.0537L204.369 10.2036L204.369 11.6276L204.744 11.8523L204.744 13.2013Z" fill="#F2E9E4"/>
<path id="Vector_20" d="M208.266 11.8523L208.266 13.2013L208.64 13.4261L209.015 13.2013L209.315 13.4261L209.69 13.2013L209.69 11.8523L210.064 11.6276L210.064 10.2036L209.69 10.0537L209.315 10.2036L209.015 10.0537L208.64 10.2036L208.266 10.0537L207.966 10.2036L207.966 11.6276L208.266 11.8523Z" fill="#F2E9E4"/>
</g>
<g id="Group_10">
<path id="Vector_21" d="M209.69 2.33693L209.315 2.11206L209.015 2.33693L208.641 2.11206L208.266 2.33693L208.266 3.68593L207.966 3.9108L207.966 5.2598L208.266 5.48448L208.641 5.2598L209.015 5.48448L209.315 5.2598L209.69 5.48448L210.065 5.2598L210.065 3.9108L209.69 3.68593L209.69 2.33693Z" fill="#F2E9E4"/>
<path id="Vector_22" d="M206.168 2.33693L205.793 2.11206L205.418 2.33693L205.119 2.11206L204.744 2.33693L204.744 3.68593L204.369 3.9108L204.369 5.2598L204.744 5.48448L205.119 5.2598L205.418 5.48448L205.793 5.2598L206.168 5.48448L206.543 5.2598L206.543 3.9108L206.168 3.68593L206.168 2.33693Z" fill="#F2E9E4"/>
<path id="Vector_23" d="M202.645 3.68593L202.645 2.33693L202.271 2.11206L201.896 2.33693L201.521 2.11206L201.221 2.33693L201.221 3.68593L200.847 3.9108L200.847 5.2598L201.221 5.48448L201.521 5.2598L201.896 5.48448L202.271 5.2598L202.645 5.48448L202.945 5.2598L202.945 3.9108L202.645 3.68593Z" fill="#F2E9E4"/>
</g>
</g>
<g id="Group_11">
<path id="Vector_24" d="M109.111 8.55575L109.336 8.7056L109.711 8.55575L110.085 8.7056L110.085 10.1296L110.46 10.2795L110.835 10.1296L111.21 10.2795L111.21 11.7033L111.584 11.8532L111.959 11.7033L112.334 11.8532L112.334 13.2772L112.709 13.427L113.083 13.2772L113.458 13.427L113.458 14.8509L113.833 15.0009L114.208 14.8509L114.582 15.0009L114.957 14.8509L114.957 13.427L115.332 13.2772L115.707 13.427L115.707 14.8509L116.081 15.0009L116.456 14.8509L116.831 15.0009L117.206 14.8509L117.206 13.427L117.58 13.2772L117.955 13.427L118.33 13.2772L118.33 11.8532L118.704 11.7033L119.079 11.8532L119.454 11.7033L119.454 10.2795L119.829 10.1296L120.203 10.2795L120.578 10.1296L120.578 8.7056L120.953 8.55575L121.328 8.7056L121.702 8.55575L121.702 7.13191L121.328 6.98188L120.953 7.13191L120.578 6.98188L120.578 5.55804L120.203 5.40819L119.829 5.55804L119.454 5.40819L119.454 3.98417L119.079 3.83432L118.704 3.98417L118.33 3.83432L118.33 2.41049L117.955 2.26064L117.58 2.41049L117.206 2.26064L117.206 0.836616L116.831 0.686767L116.456 0.836616L116.081 0.686767L115.707 0.836616L115.707 2.26064L115.332 2.41049L114.957 2.26064L114.957 0.836616L114.582 0.686767L114.208 0.836616L113.833 0.686767L113.458 0.836616L113.458 2.26064L113.083 2.41049L112.709 2.26064L112.334 2.41049L112.334 3.83432L111.959 3.98417L111.584 3.83432L111.21 3.98417L111.21 5.40819L110.835 5.55804L110.46 5.40819L110.085 5.55804L110.085 6.98188L109.711 7.13191L109.336 6.98188L108.961 7.13191L108.961 8.55575L109.111 8.55575ZM118.929 7.73131L118.929 7.0569L119.304 6.90705L119.679 7.0569L119.679 8.48074L119.304 8.63077L118.929 8.48074L118.929 7.73131ZM117.88 5.48303L118.255 5.33318L118.63 5.48303L118.63 6.90705L118.255 7.0569L117.88 6.90705L117.88 5.48303ZM117.88 8.63077L118.255 8.48074L118.63 8.63077L118.63 10.0546L118.255 10.2045L117.88 10.0546L117.88 8.63077ZM116.831 3.90934L117.206 3.75949L117.58 3.90934L117.58 5.33318L117.206 5.48303L116.831 5.33318L116.831 3.90934ZM116.831 7.0569L117.206 6.90705L117.58 7.0569L117.58 8.48074L117.206 8.63077L116.831 8.48074L116.831 7.0569ZM116.831 10.2045L117.206 10.0546L117.58 10.2045L117.58 11.6285L117.206 11.7783L116.831 11.6285L116.831 10.2045ZM116.456 13.2022L116.081 13.352L115.707 13.2022L115.707 11.7783L116.081 11.6285L116.456 11.7783L116.456 13.2022ZM115.707 2.33547L116.081 2.18562L116.456 2.33547L116.456 3.75949L116.081 3.90934L115.707 3.75949L115.707 2.33547ZM115.707 5.48303L116.081 5.33318L116.456 5.48303L116.456 6.90705L116.081 7.0569L115.707 6.90705L115.707 5.48303ZM115.707 8.63077L116.081 8.48074L116.456 8.63077L116.456 10.0546L116.081 10.2045L115.707 10.0546L115.707 8.63077ZM114.657 3.90934L115.032 3.75949L115.407 3.90934L115.407 5.33318L115.032 5.48303L114.657 5.33318L114.657 3.90934ZM114.657 8.48074L114.657 7.0569L115.032 6.90705L115.407 7.0569L115.407 8.48074L115.032 8.63077L114.657 8.48074ZM114.657 10.2045L115.032 10.0546L115.407 10.2045L115.407 11.6285L115.032 11.7783L114.657 11.6285L114.657 10.2045ZM114.357 13.2022L113.983 13.352L113.608 13.2022L113.608 11.7783L113.983 11.6285L114.357 11.7783L114.357 13.2022ZM113.608 2.33547L113.983 2.18562L114.357 2.33547L114.357 3.75949L113.983 3.90934L113.608 3.75949L113.608 2.33547ZM113.608 5.48303L113.983 5.33318L114.357 5.48303L114.357 6.90705L113.983 7.0569L113.608 6.90705L113.608 5.48303ZM113.608 8.63077L113.983 8.48074L114.357 8.63077L114.357 10.0546L113.983 10.2045L113.608 10.0546L113.608 8.63077ZM112.559 3.90934L112.933 3.75949L113.308 3.90934L113.308 5.33318L112.933 5.48303L112.559 5.33318L112.559 3.90934ZM112.559 7.0569L112.933 6.90705L113.308 7.0569L113.308 8.48074L112.933 8.63077L112.559 8.48074L112.559 7.0569ZM112.559 10.2045L112.933 10.0546L113.308 10.2045L113.308 11.6285L112.933 11.7783L112.559 11.6285L112.559 10.2045ZM111.509 5.48303L111.884 5.33318L112.259 5.48303L112.259 6.90705L111.884 7.0569L111.509 6.90705L111.509 5.48303ZM111.509 8.63077L111.884 8.48074L112.259 8.63077L112.259 10.0546L111.884 10.2045L111.509 10.0546L111.509 8.63077ZM110.46 8.48074L110.46 7.0569L110.835 6.90705L111.21 7.0569L111.21 8.48074L110.835 8.63077L110.46 8.48074Z" fill="#F2E9E4"/>
<g id="Group_12">
<path id="Vector_25" d="M85.9525 8.63045L85.9525 10.0543L86.3273 10.2041L86.702 10.0543L86.702 8.63045L87.0767 8.48042L87.4515 8.63045L87.8262 8.48042L88.201 8.63045L88.5757 8.48042L88.9504 8.63045L88.9504 10.0543L88.5757 10.2041L88.201 10.0543L87.8262 10.2041L87.8262 11.6282L87.4515 11.778L87.0767 11.6282L86.702 11.778L86.702 13.2018L87.0767 13.3517L87.4515 13.2018L87.8262 13.3517L88.201 13.2018L88.201 11.778L88.5757 11.6282L88.9504 11.778L89.3252 11.6282L89.3252 10.2041L89.6999 10.0543L90.0747 10.2041L90.4494 10.0543L90.4494 8.63045L90.8241 8.48042L91.1989 8.63045L91.5736 8.48042L91.9484 8.63045L92.3231 8.48042L92.6978 8.63045L93.0726 8.48042L93.4473 8.63045L93.8221 8.48042L94.1968 8.63045L94.5715 8.48042L94.9463 8.63045L95.321 8.48042L95.6958 8.63045L96.0705 8.48042L96.4452 8.63045L96.82 8.48042L97.1947 8.63045L97.5695 8.48042L97.9442 8.63045L98.3189 8.48042L98.6937 8.63045L99.0684 8.48042L99.4432 8.63045L99.8179 8.48042L100.193 8.63045L100.567 8.48042L100.942 8.63045L101.317 8.48042L101.692 8.63045L102.066 8.48042L102.441 8.63045L102.816 8.48042L103.191 8.63045L103.565 8.48042L103.94 8.63045L104.315 8.48042L104.69 8.63045L104.69 10.0543L105.064 10.2041L105.439 10.0543L105.814 10.2041L105.814 11.6282L106.188 11.778L106.563 11.6282L106.938 11.778L106.938 13.2018L107.313 13.3517L107.687 13.2018L108.062 13.3517L108.437 13.2018L108.437 11.778L108.062 11.6282L107.687 11.778L107.313 11.6282L107.313 10.2041L106.938 10.0543L106.563 10.2041L106.188 10.0543L106.188 8.63045L106.563 8.48042L106.938 8.63045L107.313 8.48042L107.687 8.63045L108.062 8.48042L108.437 8.63045L108.437 10.0543L108.812 10.2041L109.186 10.0543L109.186 8.63045L108.812 8.48042L108.812 7.05658L109.186 6.90673L109.186 5.48271L108.812 5.33286L108.437 5.48271L108.437 6.90673L108.062 7.05658L107.687 6.90673L107.313 7.05658L106.938 6.90673L106.563 7.05658L106.188 6.90673L106.188 5.48271L106.563 5.33286L106.938 5.48271L107.313 5.33286L107.313 3.90902L107.687 3.75917L108.062 3.90902L108.437 3.75917L108.437 2.33515L108.062 2.1853L107.687 2.33515L107.313 2.1853L106.938 2.33515L106.938 3.75917L106.563 3.90902L106.188 3.75917L105.814 3.90902L105.814 5.33286L105.439 5.48271L105.064 5.33286L104.69 5.48271L104.69 6.90673L104.315 7.05658L103.94 6.90673L103.565 7.05658L103.191 6.90673L102.816 7.05658L102.441 6.90673L102.066 7.05658L101.692 6.90673L101.317 7.05658L100.942 6.90673L100.567 7.05658L100.193 6.90673L99.8179 7.05658L99.4432 6.90673L99.0684 7.05658L98.6937 6.90673L98.3189 7.05658L97.9442 6.90673L97.5695 7.05658L97.1947 6.90673L96.82 7.05658L96.4452 6.90673L96.0705 7.05658L95.6958 6.90673L95.321 7.05658L94.9463 6.90673L94.5715 7.05658L94.1968 6.90673L93.8221 7.05658L93.4473 6.90673L93.0726 7.05658L92.6978 6.90673L92.3231 7.05658L91.9484 6.90673L91.5736 7.05658L91.1989 6.90673L90.8241 7.05658L90.4494 6.90673L90.4494 5.48271L90.0747 5.33286L89.6999 5.48271L89.3252 5.33286L89.3252 3.90902L88.9504 3.75917L88.5757 3.90902L88.201 3.75917L88.201 2.33515L87.8262 2.1853L87.4515 2.33515L87.0767 2.1853L86.702 2.33515L86.702 3.75917L87.0767 3.90902L87.4515 3.75917L87.8262 3.90902L87.8262 5.33286L88.201 5.48271L88.5757 5.33286L88.9504 5.48271L88.9504 6.90673L88.5757 7.05658L88.201 6.90673L87.8262 7.05658L87.4515 6.90673L87.0767 7.05658L86.702 6.90673L86.702 5.48271L86.3273 5.33286L85.9525 5.48271L85.9525 6.90673L86.3273 7.05658L86.3273 8.48042L85.9525 8.63045ZM104.09 7.05658L104.465 6.90673L104.839 7.05658L104.839 8.48042L104.465 8.63045L104.09 8.48042L104.09 7.05658ZM89.1753 7.05658L89.55 6.90673L89.9248 7.05658L89.9248 8.48042L89.55 8.63045L89.1753 8.48042L89.1753 7.05658Z" fill="#F2E9E4"/>
<g id="Group_13">
<path id="Vector_26" d="M92.697 13.198L93.0717 13.4228L93.4464 13.198L93.7462 13.4228L94.121 13.198L94.121 11.849L94.4957 11.6243L94.4957 10.2003L94.121 10.0504L93.7462 10.2003L93.4464 10.0504L93.0717 10.2003L92.697 10.0504L92.3222 10.2003L92.3222 11.6243L92.697 11.849L92.697 13.198Z" fill="#F2E9E4"/>
<path id="Vector_27" d="M96.2218 13.198L96.5965 13.4228L96.9712 13.198L97.346 13.4228L97.6458 13.198L97.6458 11.849L98.0205 11.6243L98.0205 10.2003L97.6458 10.0504L97.346 10.2003L96.9712 10.0504L96.5965 10.2003L96.2218 10.0504L95.922 10.2003L95.922 11.6243L96.2218 11.849L96.2218 13.198Z" fill="#F2E9E4"/>
<path id="Vector_28" d="M99.8176 11.849L99.8176 13.198L100.117 13.4228L100.492 13.198L100.867 13.4228L101.242 13.198L101.242 11.849L101.541 11.6243L101.541 10.2003L101.242 10.0504L100.867 10.2003L100.492 10.0504L100.117 10.2003L99.8176 10.0504L99.4428 10.2003L99.4428 11.6243L99.8176 11.849Z" fill="#F2E9E4"/>
</g>
<g id="Group_14">
<path id="Vector_29" d="M101.243 2.33558L100.868 2.11072L100.493 2.33558L100.118 2.11072L99.8187 2.33558L99.8187 3.68459L99.4439 3.90945L99.4439 5.25846L99.8187 5.48314L100.118 5.25846L100.493 5.48314L100.868 5.25846L101.243 5.48314L101.542 5.25846L101.542 3.90945L101.243 3.68459L101.243 2.33558Z" fill="#F2E9E4"/>
<path id="Vector_30" d="M97.6448 2.33558L97.345 2.11072L96.9703 2.33558L96.5955 2.11072L96.2208 2.33558L96.2208 3.68459L95.921 3.90945L95.921 5.25846L96.2208 5.48314L96.5955 5.25846L96.9703 5.48314L97.345 5.25846L97.6448 5.48314L98.0195 5.25846L98.0195 3.90945L97.6448 3.68459L97.6448 2.33558Z" fill="#F2E9E4"/>
<path id="Vector_31" d="M94.122 3.68459L94.122 2.33558L93.7472 2.11072L93.4474 2.33558L93.0727 2.11072L92.6979 2.33558L92.6979 3.68459L92.3232 3.90945L92.3232 5.25846L92.6979 5.48314L93.0727 5.25846L93.4474 5.48314L93.7472 5.25846L94.122 5.48314L94.4967 5.25846L94.4967 3.90945L94.122 3.68459Z" fill="#F2E9E4"/>
</g>
</g>
</g>
<g id="Group_15">
<path id="Vector_32" d="M72.9837 8.55477L73.2085 8.70462L73.5833 8.55477L73.958 8.70462L73.958 10.1286L74.3328 10.2785L74.7075 10.1286L75.0822 10.2785L75.0822 11.7023L75.457 11.8522L75.8317 11.7023L76.2065 11.8522L76.2065 13.2762L76.5812 13.4261L76.9559 13.2762L77.3307 13.4261L77.3307 14.8499L77.7054 14.9999L78.0802 14.8499L78.4549 14.9999L78.8296 14.8499L78.8296 13.4261L79.2044 13.2762L79.5791 13.4261L79.5791 14.8499L79.9539 14.9999L80.3286 14.8499L80.7033 14.9999L81.0781 14.8499L81.0781 13.4261L81.4528 13.2762L81.8276 13.4261L82.2023 13.2762L82.2023 11.8522L82.577 11.7023L82.9518 11.8522L83.3265 11.7023L83.3265 10.2785L83.7013 10.1286L84.076 10.2785L84.4507 10.1286L84.4507 8.70462L84.8255 8.55478L85.2002 8.70462L85.575 8.55478L85.575 7.13094L85.2002 6.98091L84.8255 7.13094L84.4507 6.98091L84.4507 5.55707L84.076 5.40722L83.7013 5.55707L83.3265 5.40722L83.3265 3.9832L82.9518 3.83335L82.577 3.9832L82.2023 3.83335L82.2023 2.40951L81.8276 2.25966L81.4528 2.40951L81.0781 2.25966L81.0781 0.83564L80.7033 0.685791L80.3286 0.83564L79.9539 0.685791L79.5791 0.83564L79.5791 2.25966L79.2044 2.40951L78.8296 2.25966L78.8296 0.83564L78.4549 0.685791L78.0802 0.83564L77.7054 0.685791L77.3307 0.835639L77.3307 2.25966L76.9559 2.40951L76.5812 2.25966L76.2065 2.40951L76.2065 3.83335L75.8317 3.9832L75.457 3.83335L75.0822 3.9832L75.0822 5.40722L74.7075 5.55707L74.3328 5.40722L73.958 5.55707L73.958 6.98091L73.5833 7.13094L73.2085 6.9809L72.8338 7.13094L72.8338 8.55477L72.9837 8.55477ZM82.8019 7.73033L82.8019 7.05592L83.1766 6.90607L83.5514 7.05592L83.5514 8.47976L83.1766 8.62979L82.8019 8.47976L82.8019 7.73033ZM81.6777 5.48205L82.0524 5.3322L82.4271 5.48205L82.4271 6.90607L82.0524 7.05592L81.6777 6.90607L81.6777 5.48205ZM81.6777 8.62979L82.0524 8.47976L82.4271 8.62979L82.4271 10.0536L82.0524 10.2035L81.6777 10.0536L81.6777 8.62979ZM80.6284 3.90836L81.0031 3.75851L81.3779 3.90836L81.3779 5.3322L81.0031 5.48205L80.6284 5.3322L80.6284 3.90836ZM80.6284 7.05592L81.0031 6.90607L81.3779 7.05592L81.3779 8.47976L81.0031 8.62979L80.6284 8.47976L80.6284 7.05592ZM80.6284 10.2035L81.0031 10.0536L81.3779 10.2035L81.3779 11.6275L81.0031 11.7773L80.6284 11.6275L80.6284 10.2035ZM80.2536 13.2012L79.8789 13.351L79.5042 13.2012L79.5042 11.7773L79.8789 11.6275L80.2536 11.7773L80.2536 13.2012ZM79.5791 2.33449L79.9539 2.18464L80.3286 2.33449L80.3286 3.75851L79.9539 3.90836L79.5791 3.75851L79.5791 2.33449ZM79.5791 5.48205L79.9539 5.3322L80.3286 5.48205L80.3286 6.90607L79.9539 7.05592L79.5791 6.90607L79.5791 5.48205ZM79.5791 8.62979L79.9539 8.47976L80.3286 8.62979L80.3286 10.0536L79.9539 10.2035L79.5791 10.0536L79.5791 8.62979ZM78.5298 3.90836L78.9046 3.75851L79.2793 3.90836L79.2793 5.3322L78.9046 5.48205L78.5298 5.3322L78.5298 3.90836ZM78.5298 8.47976L78.5298 7.05592L78.9046 6.90607L79.2793 7.05592L79.2793 8.47976L78.9046 8.62979L78.5298 8.47976ZM78.5298 10.2035L78.9046 10.0536L79.2793 10.2035L79.2793 11.6275L78.9046 11.7773L78.5298 11.6275L78.5298 10.2035ZM78.1551 13.2012L77.7804 13.351L77.4056 13.2012L77.4056 11.7773L77.7804 11.6275L78.1551 11.7773L78.1551 13.2012ZM77.4806 2.33449L77.8553 2.18464L78.2301 2.33449L78.2301 3.75851L77.8553 3.90836L77.4806 3.75851L77.4806 2.33449ZM77.4806 5.48205L77.8553 5.3322L78.2301 5.48205L78.2301 6.90607L77.8553 7.05592L77.4806 6.90607L77.4806 5.48205ZM77.4806 8.62979L77.8553 8.47976L78.2301 8.62979L78.2301 10.0536L77.8553 10.2035L77.4806 10.0536L77.4806 8.62979ZM76.3564 3.90836L76.7311 3.75851L77.1058 3.90836L77.1058 5.3322L76.7311 5.48205L76.3564 5.3322L76.3564 3.90836ZM76.3564 7.05592L76.7311 6.90607L77.1058 7.05592L77.1058 8.47976L76.7311 8.62979L76.3564 8.47976L76.3564 7.05592ZM76.3564 10.2035L76.7311 10.0536L77.1058 10.2035L77.1058 11.6275L76.7311 11.7773L76.3564 11.6275L76.3564 10.2035ZM75.3071 5.48205L75.6818 5.3322L76.0566 5.48205L76.0566 6.90607L75.6818 7.05592L75.3071 6.90607L75.3071 5.48205ZM75.3071 8.62979L75.6818 8.47976L76.0566 8.62979L76.0566 10.0536L75.6818 10.2035L75.3071 10.0536L75.3071 8.62979ZM74.2578 8.47976L74.2578 7.05592L74.6325 6.90607L75.0073 7.05592L75.0073 8.47976L74.6325 8.62979L74.2578 8.47976Z" fill="#F2E9E4"/>
<g id="Group_16">
<path id="Vector_33" d="M49.8253 8.62947L49.8253 10.0533L50.2001 10.2032L50.5748 10.0533L50.5748 8.62947L50.9496 8.47944L51.3243 8.62947L51.699 8.47944L52.0738 8.62947L52.4485 8.47944L52.8233 8.62947L52.8233 10.0533L52.4485 10.2032L52.0738 10.0533L51.699 10.2032L51.699 11.6272L51.3243 11.777L50.9496 11.6272L50.5748 11.777L50.5748 13.2009L50.9496 13.3507L51.3243 13.2009L51.699 13.3507L52.0738 13.2009L52.0738 11.777L52.4485 11.6272L52.8233 11.777L53.198 11.6272L53.198 10.2032L53.5727 10.0533L53.9475 10.2032L54.3222 10.0533L54.3222 8.62947L54.697 8.47944L55.0717 8.62947L55.4464 8.47944L55.8212 8.62947L56.1959 8.47944L56.5706 8.62947L56.9454 8.47944L57.3201 8.62947L57.6949 8.47944L58.0696 8.62947L58.4443 8.47944L58.8191 8.62947L59.1938 8.47944L59.5686 8.62947L59.9433 8.47944L60.318 8.62947L60.6928 8.47944L61.0675 8.62947L61.4423 8.47944L61.817 8.62947L62.1917 8.47944L62.5665 8.62947L62.9412 8.47944L63.316 8.62947L63.6907 8.47944L64.0654 8.62947L64.4402 8.47944L64.8149 8.62947L65.1897 8.47944L65.5644 8.62947L65.9391 8.47944L66.3139 8.62947L66.6886 8.47944L67.0634 8.62947L67.4381 8.47944L67.8128 8.62947L68.1876 8.47944L68.5623 8.62947L68.5623 10.0533L68.9371 10.2032L69.3118 10.0533L69.6865 10.2032L69.6865 11.6272L70.0613 11.777L70.436 11.6272L70.8108 11.777L70.8108 13.2009L71.1855 13.3507L71.5602 13.2009L71.935 13.3507L72.3097 13.2009L72.3097 11.777L71.935 11.6272L71.5602 11.777L71.1855 11.6272L71.1855 10.2032L70.8108 10.0533L70.436 10.2032L70.0613 10.0533L70.0613 8.62947L70.436 8.47944L70.8108 8.62947L71.1855 8.47944L71.5602 8.62947L71.935 8.47944L72.3097 8.62947L72.3097 10.0533L72.6845 10.2032L73.0592 10.0533L73.0592 8.62947L72.6845 8.47944L72.6845 7.0556L73.0592 6.90575L73.0592 5.48173L72.6845 5.33188L72.3097 5.48173L72.3097 6.90575L71.935 7.0556L71.5602 6.90575L71.1855 7.0556L70.8108 6.90575L70.436 7.0556L70.0613 6.90575L70.0613 5.48173L70.436 5.33188L70.8108 5.48173L71.1855 5.33188L71.1855 3.90804L71.5602 3.7582L71.935 3.90805L72.3097 3.7582L72.3097 2.33417L71.935 2.18433L71.5602 2.33417L71.1855 2.18433L70.8108 2.33417L70.8108 3.7582L70.436 3.90804L70.0613 3.7582L69.6865 3.90804L69.6865 5.33188L69.3118 5.48173L68.9371 5.33188L68.5623 5.48173L68.5623 6.90575L68.1876 7.0556L67.8128 6.90575L67.4381 7.0556L67.0634 6.90575L66.6886 7.0556L66.3139 6.90575L65.9391 7.0556L65.5644 6.90575L65.1897 7.0556L64.8149 6.90575L64.4402 7.0556L64.0654 6.90575L63.6907 7.0556L63.316 6.90575L62.9412 7.0556L62.5665 6.90575L62.1917 7.0556L61.817 6.90575L61.4423 7.0556L61.0675 6.90575L60.6928 7.0556L60.318 6.90575L59.9433 7.0556L59.5686 6.90575L59.1938 7.0556L58.8191 6.90575L58.4443 7.0556L58.0696 6.90575L57.6949 7.0556L57.3201 6.90575L56.9454 7.0556L56.5706 6.90575L56.1959 7.0556L55.8212 6.90575L55.4464 7.0556L55.0717 6.90575L54.697 7.0556L54.3222 6.90575L54.3222 5.48173L53.9475 5.33188L53.5727 5.48173L53.198 5.33188L53.198 3.90804L52.8233 3.7582L52.4485 3.90804L52.0738 3.7582L52.0738 2.33417L51.699 2.18433L51.3243 2.33417L50.9496 2.18433L50.5748 2.33417L50.5748 3.7582L50.9496 3.90804L51.3243 3.7582L51.699 3.90804L51.699 5.33188L52.0738 5.48173L52.4485 5.33188L52.8233 5.48173L52.8233 6.90575L52.4485 7.0556L52.0738 6.90575L51.699 7.0556L51.3243 6.90575L50.9496 7.0556L50.5748 6.90575L50.5748 5.48173L50.2001 5.33188L49.8253 5.48173L49.8253 6.90575L50.2001 7.0556L50.2001 8.47944L49.8253 8.62947ZM67.8878 7.0556L68.2625 6.90575L68.6373 7.0556L68.6373 8.47944L68.2625 8.62947L67.8878 8.47944L67.8878 7.0556ZM52.9731 7.0556L53.3479 6.90575L53.7226 7.0556L53.7226 8.47944L53.3479 8.62947L52.9731 8.47944L52.9731 7.0556Z" fill="#F2E9E4"/>
<g id="Group_17">
<path id="Vector_34" d="M56.5704 13.1989L56.8702 13.4238L57.2449 13.1989L57.6197 13.4238L57.9944 13.1989L57.9944 11.8499L58.2942 11.6253L58.2942 10.2012L57.9944 10.0514L57.6197 10.2012L57.2449 10.0514L56.8702 10.2012L56.5704 10.0514L56.1957 10.2012L56.1957 11.6253L56.5704 11.8499L56.5704 13.1989Z" fill="#F2E9E4"/>
<path id="Vector_35" d="M60.0929 13.1989L60.4676 13.4238L60.7674 13.1989L61.1421 13.4238L61.5169 13.1989L61.5169 11.8499L61.8916 11.6253L61.8916 10.2012L61.5169 10.0514L61.1421 10.2012L60.7674 10.0514L60.4676 10.2012L60.0929 10.0514L59.7181 10.2012L59.7181 11.6253L60.0929 11.8499L60.0929 13.1989Z" fill="#F2E9E4"/>
<path id="Vector_36" d="M63.6157 11.8499L63.6157 13.1989L63.9904 13.4238L64.3652 13.1989L64.6649 13.4238L65.0397 13.1989L65.0397 11.8499L65.4144 11.6253L65.4144 10.2012L65.0397 10.0514L64.6649 10.2012L64.3652 10.0514L63.9904 10.2012L63.6157 10.0514L63.3159 10.2012L63.3159 11.6253L63.6157 11.8499Z" fill="#F2E9E4"/>
</g>
<g id="Group_18">
<path id="Vector_37" d="M65.0405 2.33461L64.6658 2.10974L64.366 2.33461L63.9913 2.10974L63.6165 2.33461L63.6165 3.68361L63.3167 3.90848L63.3167 5.25748L63.6165 5.48216L63.9913 5.25748L64.366 5.48216L64.6658 5.25748L65.0405 5.48216L65.4153 5.25748L65.4153 3.90848L65.0405 3.68361L65.0405 2.33461Z" fill="#F2E9E4"/>
<path id="Vector_38" d="M61.5188 2.33448L61.1441 2.10962L60.7693 2.33448L60.4695 2.10962L60.0948 2.33448L60.0948 3.68349L59.7201 3.90835L59.7201 5.25736L60.0948 5.48204L60.4695 5.25736L60.7693 5.48204L61.1441 5.25736L61.5188 5.48204L61.8936 5.25736L61.8936 3.90835L61.5188 3.68349L61.5188 2.33448Z" fill="#F2E9E4"/>
<path id="Vector_39" d="M57.9965 3.68349L57.9965 2.33448L57.6217 2.10962L57.247 2.33448L56.8723 2.10962L56.5725 2.33448L56.5725 3.68349L56.1977 3.90835L56.1977 5.25736L56.5725 5.48204L56.8723 5.25736L57.247 5.48204L57.6217 5.25736L57.9965 5.48204L58.2963 5.25736L58.2963 3.90835L57.9965 3.68349Z" fill="#F2E9E4"/>
</g>
</g>
</g>
<g id="Group_19">
<path id="Vector_40" d="M36.7824 8.55477L37.0072 8.70462L37.382 8.55477L37.7567 8.70462L37.7567 10.1286L38.1315 10.2785L38.5062 10.1286L38.8809 10.2785L38.8809 11.7023L39.2557 11.8522L39.6304 11.7023L40.0052 11.8522L40.0052 13.2762L40.3799 13.4261L40.7546 13.2762L41.1294 13.4261L41.1294 14.8499L41.5041 14.9999L41.8789 14.8499L42.2536 14.9999L42.6283 14.8499L42.6283 13.4261L43.0031 13.2762L43.3778 13.4261L43.3778 14.8499L43.7526 14.9999L44.1273 14.8499L44.502 14.9999L44.8768 14.8499L44.8768 13.4261L45.2515 13.2762L45.6263 13.4261L46.001 13.2762L46.001 11.8522L46.3757 11.7023L46.7505 11.8522L47.1252 11.7023L47.1252 10.2785L47.5 10.1286L47.8747 10.2785L48.2494 10.1286L48.2494 8.70462L48.6242 8.55478L48.9989 8.70462L49.3737 8.55478L49.3737 7.13094L48.9989 6.98091L48.6242 7.13094L48.2494 6.98091L48.2494 5.55707L47.8747 5.40722L47.5 5.55707L47.1252 5.40722L47.1252 3.9832L46.7505 3.83335L46.3757 3.9832L46.001 3.83335L46.001 2.40951L45.6263 2.25966L45.2515 2.40951L44.8768 2.25966L44.8768 0.83564L44.502 0.685791L44.1273 0.83564L43.7526 0.685791L43.3778 0.83564L43.3778 2.25966L43.0031 2.40951L42.6283 2.25966L42.6283 0.83564L42.2536 0.685791L41.8789 0.83564L41.5041 0.685791L41.1294 0.835639L41.1294 2.25966L40.7546 2.40951L40.3799 2.25966L40.0052 2.40951L40.0052 3.83335L39.6304 3.9832L39.2557 3.83335L38.8809 3.9832L38.8809 5.40722L38.5062 5.55707L38.1315 5.40722L37.7567 5.55707L37.7567 6.98091L37.382 7.13094L37.0072 6.9809L36.6325 7.13094L36.6325 8.55477L36.7824 8.55477ZM46.6006 7.73033L46.6006 7.05592L46.9753 6.90607L47.3501 7.05592L47.3501 8.47976L46.9753 8.62979L46.6006 8.47976L46.6006 7.73033ZM45.5513 5.48205L45.926 5.3322L46.3008 5.48205L46.3008 6.90607L45.926 7.05592L45.5513 6.90607L45.5513 5.48205ZM45.5513 8.62979L45.926 8.47976L46.3008 8.62979L46.3008 10.0536L45.926 10.2035L45.5513 10.0536L45.5513 8.62979ZM44.502 3.90836L44.8768 3.75851L45.2515 3.90836L45.2515 5.3322L44.8768 5.48205L44.502 5.3322L44.502 3.90836ZM44.502 7.05592L44.8768 6.90607L45.2515 7.05592L45.2515 8.47976L44.8768 8.62979L44.502 8.47976L44.502 7.05592ZM44.502 10.2035L44.8768 10.0536L45.2515 10.2035L45.2515 11.6275L44.8768 11.7773L44.502 11.6275L44.502 10.2035ZM44.1273 13.2012L43.7526 13.351L43.3778 13.2012L43.3778 11.7773L43.7526 11.6275L44.1273 11.7773L44.1273 13.2012ZM43.3778 2.33449L43.7526 2.18464L44.1273 2.33449L44.1273 3.75851L43.7526 3.90836L43.3778 3.75851L43.3778 2.33449ZM43.3778 5.48205L43.7526 5.3322L44.1273 5.48205L44.1273 6.90607L43.7526 7.05592L43.3778 6.90607L43.3778 5.48205ZM43.3778 8.62979L43.7526 8.47976L44.1273 8.62979L44.1273 10.0536L43.7526 10.2035L43.3778 10.0536L43.3778 8.62979ZM42.3286 3.90836L42.7033 3.75851L43.078 3.90836L43.078 5.3322L42.7033 5.48205L42.3286 5.3322L42.3286 3.90836ZM42.3286 8.47976L42.3286 7.05592L42.7033 6.90607L43.078 7.05592L43.078 8.47976L42.7033 8.62979L42.3286 8.47976ZM42.3286 10.2035L42.7033 10.0536L43.078 10.2035L43.078 11.6275L42.7033 11.7773L42.3286 11.6275L42.3286 10.2035ZM42.0287 13.2012L41.654 13.351L41.2793 13.2012L41.2793 11.7773L41.654 11.6275L42.0287 11.7773L42.0287 13.2012ZM41.2793 2.33449L41.654 2.18464L42.0287 2.33449L42.0287 3.75851L41.654 3.90836L41.2793 3.75851L41.2793 2.33449ZM41.2793 5.48205L41.654 5.3322L42.0287 5.48205L42.0287 6.90607L41.654 7.05592L41.2793 6.90607L41.2793 5.48205ZM41.2793 8.62979L41.654 8.47976L42.0287 8.62979L42.0287 10.0536L41.654 10.2035L41.2793 10.0536L41.2793 8.62979ZM40.23 3.90836L40.6047 3.75851L40.9795 3.90836L40.9795 5.3322L40.6047 5.48205L40.23 5.3322L40.23 3.90836ZM40.23 7.05592L40.6047 6.90607L40.9795 7.05592L40.9795 8.47976L40.6047 8.62979L40.23 8.47976L40.23 7.05592ZM40.23 10.2035L40.6047 10.0536L40.9795 10.2035L40.9795 11.6275L40.6047 11.7773L40.23 11.6275L40.23 10.2035ZM39.1807 5.48205L39.5555 5.3322L39.9302 5.48205L39.9302 6.90607L39.5555 7.05592L39.1807 6.90607L39.1807 5.48205ZM39.1807 8.62979L39.5555 8.47976L39.9302 8.62979L39.9302 10.0536L39.5555 10.2035L39.1807 10.0536L39.1807 8.62979ZM38.1315 8.47976L38.1315 7.05592L38.5062 6.90607L38.8809 7.05592L38.8809 8.47976L38.5062 8.62979L38.1315 8.47976Z" fill="#F2E9E4"/>
<g id="Group_20">
<path id="Vector_41" d="M13.624 8.62947L13.624 10.0533L13.9988 10.2032L14.3735 10.0533L14.3735 8.62947L14.7483 8.47944L15.123 8.62947L15.4977 8.47944L15.8725 8.62947L16.2472 8.47944L16.622 8.62947L16.622 10.0533L16.2472 10.2032L15.8725 10.0533L15.4977 10.2032L15.4977 11.6272L15.123 11.777L14.7483 11.6272L14.3735 11.777L14.3735 13.2009L14.7483 13.3507L15.123 13.2009L15.4977 13.3507L15.8725 13.2009L15.8725 11.777L16.2472 11.6272L16.622 11.777L16.9967 11.6272L16.9967 10.2032L17.3714 10.0533L17.7462 10.2032L18.1209 10.0533L18.1209 8.62947L18.4957 8.47944L18.8704 8.62947L19.2451 8.47944L19.6199 8.62947L19.9946 8.47944L20.3694 8.62947L20.7441 8.47944L21.1188 8.62947L21.4936 8.47944L21.8683 8.62947L22.2431 8.47944L22.6178 8.62947L22.9925 8.47944L23.3673 8.62947L23.742 8.47944L24.1168 8.62947L24.4915 8.47944L24.8662 8.62947L25.241 8.47944L25.6157 8.62947L25.9905 8.47944L26.3652 8.62947L26.7399 8.47944L27.1147 8.62947L27.4894 8.47944L27.8642 8.62947L28.2389 8.47944L28.6136 8.62947L28.9884 8.47944L29.3631 8.62947L29.7379 8.47944L30.1126 8.62947L30.4873 8.47944L30.8621 8.62947L31.2368 8.47944L31.6116 8.62947L31.9863 8.47944L32.361 8.62947L32.361 10.0533L32.7358 10.2032L33.1105 10.0533L33.4853 10.2032L33.4853 11.6272L33.86 11.777L34.2347 11.6272L34.6095 11.777L34.6095 13.2009L34.9842 13.3507L35.359 13.2009L35.7337 13.3507L36.1084 13.2009L36.1084 11.777L35.7337 11.6272L35.359 11.777L34.9842 11.6272L34.9842 10.2032L34.6095 10.0533L34.2347 10.2032L33.86 10.0533L33.86 8.62947L34.2347 8.47944L34.6095 8.62947L34.9842 8.47944L35.359 8.62947L35.7337 8.47944L36.1084 8.62947L36.1084 10.0533L36.4832 10.2032L36.8579 10.0533L36.8579 8.62947L36.4832 8.47944L36.4832 7.0556L36.8579 6.90575L36.8579 5.48173L36.4832 5.33188L36.1084 5.48173L36.1084 6.90575L35.7337 7.0556L35.359 6.90575L34.9842 7.0556L34.6095 6.90575L34.2347 7.0556L33.86 6.90575L33.86 5.48173L34.2347 5.33188L34.6095 5.48173L34.9842 5.33188L34.9842 3.90804L35.359 3.7582L35.7337 3.90805L36.1084 3.7582L36.1084 2.33417L35.7337 2.18433L35.359 2.33417L34.9842 2.18433L34.6095 2.33417L34.6095 3.7582L34.2347 3.90804L33.86 3.7582L33.4853 3.90804L33.4853 5.33188L33.1105 5.48173L32.7358 5.33188L32.361 5.48173L32.361 6.90575L31.9863 7.0556L31.6116 6.90575L31.2368 7.0556L30.8621 6.90575L30.4873 7.0556L30.1126 6.90575L29.7379 7.0556L29.3631 6.90575L28.9884 7.0556L28.6136 6.90575L28.2389 7.0556L27.8642 6.90575L27.4894 7.0556L27.1147 6.90575L26.7399 7.0556L26.3652 6.90575L25.9905 7.0556L25.6157 6.90575L25.241 7.0556L24.8662 6.90575L24.4915 7.0556L24.1168 6.90575L23.742 7.0556L23.3673 6.90575L22.9925 7.0556L22.6178 6.90575L22.2431 7.0556L21.8683 6.90575L21.4936 7.0556L21.1188 6.90575L20.7441 7.0556L20.3694 6.90575L19.9946 7.0556L19.6199 6.90575L19.2451 7.0556L18.8704 6.90575L18.4957 7.0556L18.1209 6.90575L18.1209 5.48173L17.7462 5.33188L17.3714 5.48173L16.9967 5.33188L16.9967 3.90804L16.622 3.7582L16.2472 3.90804L15.8725 3.7582L15.8725 2.33417L15.4977 2.18433L15.123 2.33417L14.7483 2.18433L14.3735 2.33417L14.3735 3.7582L14.7483 3.90804L15.123 3.7582L15.4977 3.90804L15.4977 5.33188L15.8725 5.48173L16.2472 5.33188L16.622 5.48173L16.622 6.90575L16.2472 7.0556L15.8725 6.90575L15.4977 7.0556L15.123 6.90575L14.7483 7.0556L14.3735 6.90575L14.3735 5.48173L13.9988 5.33188L13.624 5.48173L13.624 6.90575L13.9988 7.0556L13.9988 8.47944L13.624 8.62947ZM31.7615 7.0556L32.1362 6.90575L32.5109 7.0556L32.5109 8.47944L32.1362 8.62947L31.7615 8.47944L31.7615 7.0556ZM16.8468 7.0556L17.2216 6.90575L17.5963 7.0556L17.5963 8.47944L17.2216 8.62947L16.8468 8.47944L16.8468 7.0556Z" fill="#F2E9E4"/>
<g id="Group_21">
<path id="Vector_42" d="M20.3707 13.1989L20.7454 13.4238L21.1202 13.1989L21.42 13.4238L21.7947 13.1989L21.7947 11.8499L22.1694 11.6253L22.1694 10.2012L21.7947 10.0514L21.42 10.2012L21.1202 10.0514L20.7454 10.2012L20.3707 10.0514L19.9959 10.2012L19.9959 11.6253L20.3707 11.8499L20.3707 13.1989Z" fill="#F2E9E4"/>
<path id="Vector_43" d="M23.8935 13.1989L24.2683 13.4238L24.643 13.1989L25.0177 13.4238L25.3175 13.1989L25.3175 11.8499L25.6923 11.6253L25.6923 10.2012L25.3175 10.0514L25.0177 10.2012L24.643 10.0514L24.2683 10.2012L23.8935 10.0514L23.5937 10.2012L23.5937 11.6253L23.8935 11.8499L23.8935 13.1989Z" fill="#F2E9E4"/>
<path id="Vector_44" d="M27.4913 11.8499L27.4913 13.1989L27.7911 13.4238L28.1658 13.1989L28.5405 13.4238L28.9153 13.1989L28.9153 11.8499L29.2151 11.6253L29.2151 10.2012L28.9153 10.0514L28.5405 10.2012L28.1658 10.0514L27.7911 10.2012L27.4913 10.0514L27.1165 10.2012L27.1165 11.6253L27.4913 11.8499Z" fill="#F2E9E4"/>
</g>
<g id="Group_22">
<path id="Vector_45" d="M28.9152 2.33558L28.5404 2.11072L28.1657 2.33558L27.8659 2.11072L27.4911 2.33558L27.4911 3.68459L27.1164 3.90945L27.1164 5.25846L27.4911 5.48314L27.8659 5.25846L28.1657 5.48314L28.5404 5.25846L28.9152 5.48314L29.215 5.25846L29.215 3.90945L28.9152 3.68459L28.9152 2.33558Z" fill="#F2E9E4"/>
<path id="Vector_46" d="M25.3175 2.33558L25.0177 2.11072L24.643 2.33558L24.2683 2.11072L23.8935 2.33558L23.8935 3.68459L23.5937 3.90945L23.5937 5.25846L23.8935 5.48314L24.2683 5.25846L24.643 5.48314L25.0177 5.25846L25.3175 5.48314L25.6923 5.25846L25.6923 3.90945L25.3175 3.68459L25.3175 2.33558Z" fill="#F2E9E4"/>
<path id="Vector_47" d="M21.7947 3.68459L21.7947 2.33558L21.42 2.11072L21.1202 2.33558L20.7454 2.11072L20.3707 2.33558L20.3707 3.68459L19.9959 3.90945L19.9959 5.25846L20.3707 5.48314L20.7454 5.25846L21.1202 5.48314L21.42 5.25846L21.7947 5.48314L22.1694 5.25846L22.1694 3.90945L21.7947 3.68459Z" fill="#F2E9E4"/>
</g>
</g>
</g>
<g id="Group_23">
<path id="Vector_48" d="M0.659847 8.55477L0.884682 8.70462L1.25942 8.55477L1.63416 8.70462L1.63416 10.1286L2.0089 10.2785L2.38364 10.1286L2.75838 10.2785L2.75838 11.7023L3.13312 11.8522L3.50786 11.7023L3.8826 11.8522L3.8826 13.2762L4.25734 13.4261L4.63208 13.2762L5.00682 13.4261L5.00682 14.8499L5.38156 14.9999L5.7563 14.8499L6.13104 14.9999L6.50578 14.8499L6.50578 13.4261L6.88052 13.2762L7.25526 13.4261L7.25526 14.8499L7.63 14.9999L8.00474 14.8499L8.37948 14.9999L8.75422 14.8499L8.75422 13.4261L9.12896 13.2762L9.5037 13.4261L9.87844 13.2762L9.87844 11.8522L10.2532 11.7023L10.6279 11.8522L11.0027 11.7023L11.0027 10.2785L11.3774 10.1286L11.7521 10.2785L12.1269 10.1286L12.1269 8.70462L12.5016 8.55478L12.8764 8.70462L13.2511 8.55478L13.2511 7.13094L12.8764 6.98091L12.5016 7.13094L12.1269 6.98091L12.1269 5.55707L11.7521 5.40722L11.3774 5.55707L11.0027 5.40722L11.0027 3.9832L10.6279 3.83335L10.2532 3.9832L9.87844 3.83335L9.87844 2.40951L9.5037 2.25966L9.12896 2.40951L8.75422 2.25966L8.75422 0.83564L8.37948 0.685791L8.00474 0.83564L7.63 0.685791L7.25526 0.83564L7.25526 2.25966L6.88052 2.40951L6.50578 2.25966L6.50578 0.83564L6.13104 0.685791L5.7563 0.83564L5.38156 0.685791L5.00682 0.835639L5.00682 2.25966L4.63208 2.40951L4.25734 2.25966L3.8826 2.40951L3.8826 3.83335L3.50786 3.9832L3.13312 3.83335L2.75838 3.9832L2.75838 5.40722L2.38364 5.55707L2.0089 5.40722L1.63416 5.55707L1.63416 6.98091L1.25942 7.13094L0.884682 6.9809L0.509943 7.13094L0.509943 8.55477L0.659847 8.55477ZM10.478 7.73033L10.478 7.05592L10.8528 6.90607L11.2275 7.05592L11.2275 8.47976L10.8528 8.62979L10.478 8.47976L10.478 7.73033ZM9.35382 5.48205L9.72856 5.3322L10.1033 5.48205L10.1033 6.90607L9.72856 7.05592L9.35382 6.90607L9.35382 5.48205ZM9.35382 8.62979L9.72856 8.47976L10.1033 8.62979L10.1033 10.0536L9.72856 10.2035L9.35382 10.0536L9.35382 8.62979ZM8.30453 3.90836L8.67927 3.75851L9.05401 3.90836L9.05401 5.3322L8.67927 5.48205L8.30453 5.3322L8.30453 3.90836ZM8.30453 7.05592L8.67927 6.90607L9.05401 7.05592L9.05401 8.47976L8.67927 8.62979L8.30453 8.47976L8.30453 7.05592ZM8.30453 10.2035L8.67927 10.0536L9.05401 10.2035L9.05401 11.6275L8.67927 11.7773L8.30453 11.6275L8.30453 10.2035ZM7.92979 13.2012L7.55505 13.351L7.18031 13.2012L7.18031 11.7773L7.55505 11.6275L7.92979 11.7773L7.92979 13.2012ZM7.25526 2.33449L7.63 2.18464L8.00474 2.33449L8.00474 3.75851L7.63 3.90836L7.25526 3.75851L7.25526 2.33449ZM7.25526 5.48205L7.63 5.3322L8.00474 5.48205L8.00474 6.90607L7.63 7.05592L7.25526 6.90607L7.25526 5.48205ZM7.25526 8.62979L7.63 8.47976L8.00474 8.62979L8.00474 10.0536L7.63 10.2035L7.25526 10.0536L7.25526 8.62979ZM6.20599 3.90836L6.58073 3.75851L6.95547 3.90836L6.95547 5.3322L6.58073 5.48205L6.20599 5.3322L6.20599 3.90836ZM6.20599 8.47976L6.20599 7.05592L6.58073 6.90607L6.95547 7.05592L6.95547 8.47976L6.58073 8.62979L6.20599 8.47976ZM6.20599 10.2035L6.58073 10.0536L6.95547 10.2035L6.95547 11.6275L6.58073 11.7773L6.20599 11.6275L6.20599 10.2035ZM5.83125 13.2012L5.45651 13.351L5.08177 13.2012L5.08177 11.7773L5.45651 11.6275L5.83125 11.7773L5.83125 13.2012ZM5.15673 2.33449L5.53147 2.18464L5.90621 2.33449L5.90621 3.75851L5.53147 3.90836L5.15673 3.75851L5.15673 2.33449ZM5.15673 5.48205L5.53147 5.3322L5.90621 5.48205L5.90621 6.90607L5.53147 7.05592L5.15673 6.90607L5.15673 5.48205ZM5.15673 8.62979L5.53147 8.47976L5.90621 8.62979L5.90621 10.0536L5.53147 10.2035L5.15673 10.0536L5.15673 8.62979ZM4.03251 3.90836L4.40725 3.75851L4.78199 3.90836L4.78199 5.3322L4.40725 5.48205L4.03251 5.3322L4.03251 3.90836ZM4.03251 7.05592L4.40725 6.90607L4.78199 7.05592L4.78199 8.47976L4.40725 8.62979L4.03251 8.47976L4.03251 7.05592ZM4.03251 10.2035L4.40725 10.0536L4.78199 10.2035L4.78199 11.6275L4.40725 11.7773L4.03251 11.6275L4.03251 10.2035ZM2.98324 5.48205L3.35798 5.3322L3.73272 5.48205L3.73272 6.90607L3.35798 7.05592L2.98324 6.90607L2.98324 5.48205ZM2.98324 8.62979L3.35798 8.47976L3.73272 8.62979L3.73272 10.0536L3.35798 10.2035L2.98324 10.0536L2.98324 8.62979ZM1.93395 8.47976L1.93395 7.05592L2.30869 6.90607L2.68343 7.05592L2.68343 8.47976L2.30869 8.62979L1.93395 8.47976Z" fill="#F2E9E4"/>
</g>
</g>
</svg>
