<svg width="15" height="253" viewBox="0 0 15 253" fill="none" xmlns="http://www.w3.org/2000/svg">
<path d="M8.33373 49.4247L8.48291 49.2008L8.33373 48.8278L8.48291 48.4548H9.90055L10.0497 48.0817L9.90055 47.7087L10.0497 47.3356H11.4672L11.6164 46.9626L11.4672 46.5896L11.6164 46.2165H13.034L13.1832 45.8435L13.034 45.4705L13.1832 45.0974H14.6006L14.75 44.7244L14.6006 44.3514L14.75 43.9783L14.6006 43.6053H13.1832L13.034 43.2322L13.1832 42.8592H14.6006L14.75 42.4862L14.6006 42.1131L14.75 41.7401L14.6006 41.3671H13.1832L13.034 40.994L13.1832 40.621L13.034 40.248H11.6164L11.4672 39.8749L11.6164 39.5019L11.4672 39.1288H10.0497L9.90055 38.7558L10.0497 38.3828L9.90055 38.0097H8.48291L8.33373 37.6367L8.48291 37.2637L8.33373 36.8906H6.91627L6.76691 37.2637L6.91627 37.6367L6.76691 38.0097H5.34945L5.20027 38.3828L5.34945 38.7558L5.20027 39.1288H3.78263L3.63346 39.5019L3.78263 39.8749L3.63346 40.248H2.216L2.06682 40.621L2.216 40.994L2.06682 41.3671H0.649177L0.5 41.7401L0.649177 42.1131L0.5 42.4862L0.649177 42.8592H2.06682L2.216 43.2322L2.06682 43.6053H0.649177L0.5 43.9783L0.649177 44.3514L0.5 44.7244L0.649177 45.0974H2.06682L2.216 45.4705L2.06682 45.8435L2.216 46.2165H3.63346L3.78263 46.5896L3.63346 46.9626L3.78263 47.3356H5.20027L5.34945 47.7087L5.20027 48.0817L5.34945 48.4548H6.76691L6.91627 48.8278L6.76691 49.2008L6.91627 49.5739H8.33373V49.4247ZM7.51298 39.6511H6.84159L6.69241 39.2781L6.84159 38.905H8.25905L8.40841 39.2781L8.25905 39.6511H7.51298ZM5.27477 40.6956L5.12559 40.3226L5.27477 39.9495H6.69241L6.84159 40.3226L6.69241 40.6956H5.27477ZM8.40841 40.6956L8.25905 40.3226L8.40841 39.9495H9.82587L9.97505 40.3226L9.82587 40.6956H8.40841ZM3.70814 41.8147L3.55896 41.4417L3.70814 41.0686H5.12559L5.27477 41.4417L5.12559 41.8147H3.70814ZM6.84159 41.8147L6.69241 41.4417L6.84159 41.0686H8.25905L8.40841 41.4417L8.25905 41.8147H6.84159ZM9.97505 41.8147L9.82587 41.4417L9.97505 41.0686H11.3927L11.5419 41.4417L11.3927 41.8147H9.97505ZM12.9593 42.1131L13.1085 42.4862L12.9593 42.8592H11.5419L11.3927 42.4862L11.5419 42.1131H12.9593ZM2.14132 42.8592L1.99214 42.4862L2.14132 42.1131H3.55896L3.70814 42.4862L3.55896 42.8592H2.14132ZM5.27477 42.8592L5.12559 42.4862L5.27477 42.1131H6.69241L6.84159 42.4862L6.69241 42.8592H5.27477ZM8.40841 42.8592L8.25905 42.4862L8.40841 42.1131H9.82587L9.97505 42.4862L9.82587 42.8592H8.40841ZM3.70814 43.9037L3.55896 43.5307L3.70814 43.1576H5.12559L5.27477 43.5307L5.12559 43.9037H3.70814ZM8.25905 43.9037H6.84159L6.69241 43.5307L6.84159 43.1576H8.25905L8.40841 43.5307L8.25905 43.9037ZM9.97505 43.9037L9.82587 43.5307L9.97505 43.1576H11.3927L11.5419 43.5307L11.3927 43.9037H9.97505ZM12.9593 44.2768L13.1085 44.6498L12.9593 45.0228H11.5419L11.3927 44.6498L11.5419 44.2768H12.9593ZM2.14132 44.9482L1.99214 44.5752L2.14132 44.2021H3.55896L3.70814 44.5752L3.55896 44.9482H2.14132ZM5.27477 44.9482L5.12559 44.5752L5.27477 44.2021H6.69241L6.84159 44.5752L6.69241 44.9482H5.27477ZM8.40841 44.9482L8.25905 44.5752L8.40841 44.2021H9.82587L9.97505 44.5752L9.82587 44.9482H8.40841ZM3.70814 45.9927L3.55896 45.6197L3.70814 45.2466H5.12559L5.27477 45.6197L5.12559 45.9927H3.70814ZM6.84159 45.9927L6.69241 45.6197L6.84159 45.2466H8.25905L8.40841 45.6197L8.25905 45.9927H6.84159ZM9.97505 45.9927L9.82587 45.6197L9.97505 45.2466H11.3927L11.5419 45.6197L11.3927 45.9927H9.97505ZM5.27477 47.1118L5.12559 46.7388L5.27477 46.3658H6.69241L6.84159 46.7388L6.69241 47.1118H5.27477ZM8.40841 47.1118L8.25905 46.7388L8.40841 46.3658H9.82587L9.97505 46.7388L9.82587 47.1118H8.40841ZM8.25905 48.1563H6.84159L6.69241 47.7833L6.84159 47.4103H8.25905L8.40841 47.7833L8.25905 48.1563Z" fill="#F2D0AC"/>
<path d="M8.40846 72.4798H9.82592L9.97509 72.1068L9.82592 71.7338H8.40846L8.2591 71.3607L8.40846 70.9877L8.2591 70.6147L8.40846 70.2416L8.2591 69.8686L8.40846 69.4955H9.82592L9.97509 69.8686L9.82592 70.2416L9.97509 70.6147H11.3927L11.5419 70.9877L11.3927 71.3607L11.5419 71.7338H12.9594L13.1086 71.3607L12.9594 70.9877L13.1086 70.6147L12.9594 70.2416H11.5419L11.3927 69.8686L11.5419 69.4955L11.3927 69.1225H9.97509L9.82592 68.7495L9.97509 68.3764L9.82592 68.0034H8.40846L8.2591 67.6304L8.40846 67.2573L8.2591 66.8843L8.40846 66.5112L8.2591 66.1382L8.40846 65.7652L8.2591 65.3921L8.40846 65.0191L8.2591 64.6461L8.40846 64.273L8.2591 63.9L8.40846 63.527L8.2591 63.1539L8.40846 62.7809L8.2591 62.4078L8.40846 62.0348L8.2591 61.6618L8.40846 61.2887L8.2591 60.9157L8.40846 60.5427L8.2591 60.1696L8.40846 59.7966L8.2591 59.4236L8.40846 59.0505L8.2591 58.6775L8.40846 58.3044L8.2591 57.9314L8.40846 57.5584L8.2591 57.1853L8.40846 56.8123L8.2591 56.4393L8.40846 56.0662L8.2591 55.6932L8.40846 55.3201L8.2591 54.9471L8.40846 54.5741L8.2591 54.201L8.40846 53.828H9.82592L9.97509 53.455L9.82592 53.0819L9.97509 52.7089H11.3927L11.5419 52.3359L11.3927 51.9628L11.5419 51.5898H12.9594L13.1086 51.2167L12.9594 50.8437L13.1086 50.4707L12.9594 50.0976H11.5419L11.3927 50.4707L11.5419 50.8437L11.3927 51.2167H9.97509L9.82592 51.5898L9.97509 51.9628L9.82592 52.3359H8.40846L8.2591 51.9628L8.40846 51.5898L8.2591 51.2167L8.40846 50.8437L8.2591 50.4707L8.40846 50.0976H9.82592L9.97509 49.7246L9.82592 49.3516H8.40846L8.2591 49.7246H6.84164L6.69246 49.3516H5.27482L5.12564 49.7246L5.27482 50.0976H6.69246L6.84164 50.4707L6.69246 50.8437L6.84164 51.2167L6.69246 51.5898L6.84164 51.9628L6.69246 52.3359H5.27482L5.12564 51.9628L5.27482 51.5898L5.12564 51.2167H3.70818L3.55901 50.8437L3.70818 50.4707L3.55901 50.0976H2.14136L1.99219 50.4707L2.14136 50.8437L1.99219 51.2167L2.14136 51.5898H3.55901L3.70818 51.9628L3.55901 52.3359L3.70818 52.7089H5.12564L5.27482 53.0819L5.12564 53.455L5.27482 53.828H6.69246L6.84164 54.201L6.69246 54.5741L6.84164 54.9471L6.69246 55.3201L6.84164 55.6932L6.69246 56.0662L6.84164 56.4393L6.69246 56.8123L6.84164 57.1853L6.69246 57.5584L6.84164 57.9314L6.69246 58.3044L6.84164 58.6775L6.69246 59.0505L6.84164 59.4236L6.69246 59.7966L6.84164 60.1696L6.69246 60.5427L6.84164 60.9157L6.69246 61.2887L6.84164 61.6618L6.69246 62.0348L6.84164 62.4078L6.69246 62.7809L6.84164 63.1539L6.69246 63.527L6.84164 63.9L6.69246 64.273L6.84164 64.6461L6.69246 65.0191L6.84164 65.3921L6.69246 65.7652L6.84164 66.1382L6.69246 66.5112L6.84164 66.8843L6.69246 67.2573L6.84164 67.6304L6.69246 68.0034H5.27482L5.12564 68.3764L5.27482 68.7495L5.12564 69.1225H3.70818L3.55901 69.4955L3.70818 69.8686L3.55901 70.2416H2.14136L1.99219 70.6147L2.14136 70.9877L1.99219 71.3607L2.14136 71.7338H3.55901L3.70818 71.3607L3.55901 70.9877L3.70818 70.6147H5.12564L5.27482 70.2416L5.12564 69.8686L5.27482 69.4955H6.69246L6.84164 69.8686L6.69246 70.2416L6.84164 70.6147L6.69246 70.9877L6.84164 71.3607L6.69246 71.7338H5.27482L5.12564 72.1068L5.27482 72.4798H6.69246L6.84164 72.1068H8.2591L8.40846 72.4798ZM6.84164 54.4995L6.69246 54.1264L6.84164 53.7534H8.2591L8.40846 54.1264L8.2591 54.4995H6.84164ZM6.84164 69.2717L6.69246 68.8987L6.84164 68.5256H8.2591L8.40846 68.8987L8.2591 69.2717H6.84164Z" fill="#F2D0AC"/>
<path d="M12.9596 65.7652L13.1835 65.3922L12.9596 65.0937L13.1835 64.7207L12.9596 64.3476H11.6167L11.393 63.9746H9.97535L9.82617 64.3476L9.97535 64.7207L9.82617 65.0937L9.97535 65.3922L9.82617 65.7652L9.97535 66.1382H11.393L11.6167 65.7652H12.9596Z" fill="#F2D0AC"/>
<path d="M12.9596 62.2583L13.1835 61.8853L12.9596 61.5123L13.1835 61.2138L12.9596 60.8408H11.6167L11.393 60.4678H9.97535L9.82617 60.8408L9.97535 61.2138L9.82617 61.5123L9.97535 61.8853L9.82617 62.2583L9.97535 62.5568H11.393L11.6167 62.2583H12.9596Z" fill="#F2D0AC"/>
<path d="M11.6167 58.6769H12.9596L13.1835 58.3785L12.9596 58.0054L13.1835 57.6324L12.9596 57.334H11.6167L11.393 56.9609H9.97535L9.82617 57.334L9.97535 57.6324L9.82617 58.0054L9.97535 58.3785L9.82617 58.6769L9.97535 59.0499H11.393L11.6167 58.6769Z" fill="#F2D0AC"/>
<path d="M2.14183 57.334L1.91797 57.6324L2.14183 58.0054L1.91797 58.3785L2.14183 58.6769H3.48479L3.70864 59.0499H5.05161L5.27528 58.6769L5.05161 58.3785L5.27528 58.0054L5.05161 57.6324L5.27528 57.334L5.05161 56.9609H3.70864L3.48479 57.334H2.14183Z" fill="#F2D0AC"/>
<path d="M2.14183 60.8398L1.91797 61.2129L2.14183 61.5113L1.91797 61.8843L2.14183 62.2574H3.48479L3.70864 62.5558H5.05161L5.27528 62.2574L5.05161 61.8843L5.27528 61.5113L5.05161 61.2129L5.27528 60.8398L5.05161 60.4668H3.70864L3.48479 60.8398H2.14183Z" fill="#F2D0AC"/>
<path d="M3.48479 64.3476H2.14183L1.91797 64.7207L2.14183 65.0937L1.91797 65.3922L2.14183 65.7652H3.48479L3.70864 66.1382H5.05161L5.27528 65.7652L5.05161 65.3922L5.27528 65.0937L5.05161 64.7207L5.27528 64.3476L5.05161 63.9746H3.70864L3.48479 64.3476Z" fill="#F2D0AC"/>
<path d="M8.33373 85.3875L8.48291 85.1637L8.33373 84.7907L8.48291 84.4177H9.90055L10.0497 84.0446L9.90055 83.6716L10.0497 83.2985H11.4672L11.6164 82.9255L11.4672 82.5525L11.6164 82.1794H13.034L13.1832 81.8064L13.034 81.4334L13.1832 81.0603H14.6006L14.75 80.6873L14.6006 80.3142L14.75 79.9412L14.6006 79.5682H13.1832L13.034 79.1951L13.1832 78.8221H14.6006L14.75 78.4491L14.6006 78.076L14.75 77.703L14.6006 77.33H13.1832L13.034 76.9569L13.1832 76.5839L13.034 76.2108H11.6164L11.4672 75.8378L11.6164 75.4648L11.4672 75.0917H10.0497L9.90055 74.7187L10.0497 74.3457L9.90055 73.9726H8.48291L8.33373 73.5996L8.48291 73.2266L8.33373 72.8535H6.91627L6.76691 73.2266L6.91627 73.5996L6.76691 73.9726H5.34945L5.20027 74.3457L5.34945 74.7187L5.20027 75.0917H3.78263L3.63346 75.4648L3.78263 75.8378L3.63346 76.2108H2.216L2.06682 76.5839L2.216 76.9569L2.06682 77.33H0.649177L0.5 77.703L0.649177 78.076L0.5 78.4491L0.649177 78.8221H2.06682L2.216 79.1951L2.06682 79.5682H0.649177L0.5 79.9412L0.649177 80.3142L0.5 80.6873L0.649177 81.0603H2.06682L2.216 81.4334L2.06682 81.8064L2.216 82.1794H3.63346L3.78263 82.5525L3.63346 82.9255L3.78263 83.2985H5.20027L5.34945 83.6716L5.20027 84.0446L5.34945 84.4177H6.76691L6.91627 84.7907L6.76691 85.1637L6.91627 85.5368H8.33373V85.3875ZM7.51298 75.614H6.84159L6.69241 75.2409L6.84159 74.8679H8.25905L8.40841 75.2409L8.25905 75.614H7.51298ZM5.27477 76.7331L5.12559 76.3601L5.27477 75.987H6.69241L6.84159 76.3601L6.69241 76.7331H5.27477ZM8.40841 76.7331L8.25905 76.3601L8.40841 75.987H9.82587L9.97505 76.3601L9.82587 76.7331H8.40841ZM3.70814 77.7776L3.55896 77.4046L3.70814 77.0315H5.12559L5.27477 77.4046L5.12559 77.7776H3.70814ZM6.84159 77.7776L6.69241 77.4046L6.84159 77.0315H8.25905L8.40841 77.4046L8.25905 77.7776H6.84159ZM9.97505 77.7776L9.82587 77.4046L9.97505 77.0315H11.3927L11.5419 77.4046L11.3927 77.7776H9.97505ZM12.9593 78.1506L13.1085 78.5237L12.9593 78.8967H11.5419L11.3927 78.5237L11.5419 78.1506H12.9593ZM2.14132 78.8221L1.99214 78.4491L2.14132 78.076H3.55896L3.70814 78.4491L3.55896 78.8221H2.14132ZM5.27477 78.8221L5.12559 78.4491L5.27477 78.076H6.69241L6.84159 78.4491L6.69241 78.8221H5.27477ZM8.40841 78.8221L8.25905 78.4491L8.40841 78.076H9.82587L9.97505 78.4491L9.82587 78.8221H8.40841ZM3.70814 79.8666L3.55896 79.4936L3.70814 79.1205H5.12559L5.27477 79.4936L5.12559 79.8666H3.70814ZM8.25905 79.8666H6.84159L6.69241 79.4936L6.84159 79.1205H8.25905L8.40841 79.4936L8.25905 79.8666ZM9.97505 79.8666L9.82587 79.4936L9.97505 79.1205H11.3927L11.5419 79.4936L11.3927 79.8666H9.97505ZM12.9593 80.2396L13.1085 80.6127L12.9593 80.9857H11.5419L11.3927 80.6127L11.5419 80.2396H12.9593ZM2.14132 80.9111L1.99214 80.5381L2.14132 80.165H3.55896L3.70814 80.5381L3.55896 80.9111H2.14132ZM5.27477 80.9111L5.12559 80.5381L5.27477 80.165H6.69241L6.84159 80.5381L6.69241 80.9111H5.27477ZM8.40841 80.9111L8.25905 80.5381L8.40841 80.165H9.82587L9.97505 80.5381L9.82587 80.9111H8.40841ZM3.70814 82.0302L3.55896 81.6572L3.70814 81.2841H5.12559L5.27477 81.6572L5.12559 82.0302H3.70814ZM6.84159 82.0302L6.69241 81.6572L6.84159 81.2841H8.25905L8.40841 81.6572L8.25905 82.0302H6.84159ZM9.97505 82.0302L9.82587 81.6572L9.97505 81.2841H11.3927L11.5419 81.6572L11.3927 82.0302H9.97505ZM5.27477 83.0747L5.12559 82.7017L5.27477 82.3286H6.69241L6.84159 82.7017L6.69241 83.0747H5.27477ZM8.40841 83.0747L8.25905 82.7017L8.40841 82.3286H9.82587L9.97505 82.7017L9.82587 83.0747H8.40841ZM8.25905 84.1192H6.84159L6.69241 83.7462L6.84159 83.3731H8.25905L8.40841 83.7462L8.25905 84.1192Z" fill="#F2D0AC"/>
<path d="M8.40846 108.442H9.82592L9.97509 108.069L9.82592 107.696H8.40846L8.2591 107.323L8.40846 106.95L8.2591 106.577L8.40846 106.204L8.2591 105.831L8.40846 105.458H9.82592L9.97509 105.831L9.82592 106.204L9.97509 106.577H11.3927L11.5419 106.95L11.3927 107.323L11.5419 107.696H12.9594L13.1086 107.323L12.9594 106.95L13.1086 106.577L12.9594 106.204H11.5419L11.3927 105.831L11.5419 105.458L11.3927 105.085H9.97509L9.82592 104.712L9.97509 104.339L9.82592 103.966H8.40846L8.2591 103.593L8.40846 103.22L8.2591 102.847L8.40846 102.474L8.2591 102.101L8.40846 101.728L8.2591 101.355L8.40846 100.982L8.2591 100.608L8.40846 100.235L8.2591 99.8624L8.40846 99.4894L8.2591 99.1163L8.40846 98.7433L8.2591 98.3702L8.40846 97.9972L8.2591 97.6242L8.40846 97.2511L8.2591 96.8781L8.40846 96.5051L8.2591 96.132L8.40846 95.759L8.2591 95.386L8.40846 95.0129L8.2591 94.6399L8.40846 94.2668L8.2591 93.8938L8.40846 93.5208L8.2591 93.1477L8.40846 92.7747L8.2591 92.4017L8.40846 92.0286L8.2591 91.6556L8.40846 91.2826L8.2591 90.9095L8.40846 90.5365L8.2591 90.1634L8.40846 89.7904H9.82592L9.97509 89.4174L9.82592 89.0443L9.97509 88.6713H11.3927L11.5419 88.2983L11.3927 87.9252L11.5419 87.5522H12.9594L13.1086 87.1791L12.9594 86.8061L13.1086 86.4331L12.9594 86.06H11.5419L11.3927 86.4331L11.5419 86.8061L11.3927 87.1791H9.97509L9.82592 87.5522L9.97509 87.9252L9.82592 88.2983H8.40846L8.2591 87.9252L8.40846 87.5522L8.2591 87.1791L8.40846 86.8061L8.2591 86.4331L8.40846 86.06H9.82592L9.97509 85.687L9.82592 85.314H8.40846L8.2591 85.687H6.84164L6.69246 85.314H5.27482L5.12564 85.687L5.27482 86.06H6.69246L6.84164 86.4331L6.69246 86.8061L6.84164 87.1791L6.69246 87.5522L6.84164 87.9252L6.69246 88.2983H5.27482L5.12564 87.9252L5.27482 87.5522L5.12564 87.1791H3.70818L3.55901 86.8061L3.70818 86.4331L3.55901 86.06H2.14136L1.99219 86.4331L2.14136 86.8061L1.99219 87.1791L2.14136 87.5522H3.55901L3.70818 87.9252L3.55901 88.2983L3.70818 88.6713H5.12564L5.27482 89.0443L5.12564 89.4174L5.27482 89.7904H6.69246L6.84164 90.1634L6.69246 90.5365L6.84164 90.9095L6.69246 91.2826L6.84164 91.6556L6.69246 92.0286L6.84164 92.4017L6.69246 92.7747L6.84164 93.1477L6.69246 93.5208L6.84164 93.8938L6.69246 94.2668L6.84164 94.6399L6.69246 95.0129L6.84164 95.386L6.69246 95.759L6.84164 96.132L6.69246 96.5051L6.84164 96.8781L6.69246 97.2511L6.84164 97.6242L6.69246 97.9972L6.84164 98.3702L6.69246 98.7433L6.84164 99.1163L6.69246 99.4894L6.84164 99.8624L6.69246 100.235L6.84164 100.608L6.69246 100.982L6.84164 101.355L6.69246 101.728L6.84164 102.101L6.69246 102.474L6.84164 102.847L6.69246 103.22L6.84164 103.593L6.69246 103.966H5.27482L5.12564 104.339L5.27482 104.712L5.12564 105.085H3.70818L3.55901 105.458L3.70818 105.831L3.55901 106.204H2.14136L1.99219 106.577L2.14136 106.95L1.99219 107.323L2.14136 107.696H3.55901L3.70818 107.323L3.55901 106.95L3.70818 106.577H5.12564L5.27482 106.204L5.12564 105.831L5.27482 105.458H6.69246L6.84164 105.831L6.69246 106.204L6.84164 106.577L6.69246 106.95L6.84164 107.323L6.69246 107.696H5.27482L5.12564 108.069L5.27482 108.442H6.69246L6.84164 108.069H8.2591L8.40846 108.442ZM6.84164 90.4619L6.69246 90.0888L6.84164 89.7158H8.2591L8.40846 90.0888L8.2591 90.4619H6.84164ZM6.84164 105.309L6.69246 104.936L6.84164 104.563H8.2591L8.40846 104.936L8.2591 105.309H6.84164Z" fill="#F2D0AC"/>
<path d="M12.9596 101.727L13.1835 101.429L12.9596 101.056L13.1835 100.683L12.9596 100.31H11.6167L11.393 100.011H9.97535L9.82617 100.31L9.97535 100.683L9.82617 101.056L9.97535 101.429L9.82617 101.727L9.97535 102.1H11.393L11.6167 101.727H12.9596Z" fill="#F2D0AC"/>
<path d="M12.9596 98.2203L13.1835 97.8472L12.9596 97.5488L13.1835 97.1758L12.9596 96.8027H11.6167L11.393 96.4297H9.97535L9.82617 96.8027L9.97535 97.1758L9.82617 97.5488L9.97535 97.8472L9.82617 98.2203L9.97535 98.5933H11.393L11.6167 98.2203H12.9596Z" fill="#F2D0AC"/>
<path d="M11.6167 94.7144H12.9596L13.1835 94.3414L12.9596 93.9683L13.1835 93.6699L12.9596 93.2969H11.6167L11.393 92.9238H9.97535L9.82617 93.2969L9.97535 93.6699L9.82617 93.9683L9.97535 94.3414L9.82617 94.7144L9.97535 95.0128H11.393L11.6167 94.7144Z" fill="#F2D0AC"/>
<path d="M2.14183 93.2969L1.91797 93.6699L2.14183 93.9683L1.91797 94.3414L2.14183 94.7144H3.48479L3.70864 95.0128H5.05161L5.27528 94.7144L5.05161 94.3414L5.27528 93.9683L5.05161 93.6699L5.27528 93.2969L5.05161 92.9238H3.70864L3.48479 93.2969H2.14183Z" fill="#F2D0AC"/>
<path d="M2.14183 96.8017L1.91797 97.1748L2.14183 97.5478L1.91797 97.8463L2.14183 98.2193H3.48479L3.70864 98.5923H5.05161L5.27528 98.2193L5.05161 97.8463L5.27528 97.5478L5.05161 97.1748L5.27528 96.8017L5.05161 96.4287H3.70864L3.48479 96.8017H2.14183Z" fill="#F2D0AC"/>
<path d="M3.48479 100.309H2.14183L1.91797 100.682L2.14183 101.055L1.91797 101.428L2.14183 101.727H3.48479L3.70864 102.1H5.05161L5.27528 101.727L5.05161 101.428L5.27528 101.055L5.05161 100.682L5.27528 100.309L5.05161 100.011H3.70864L3.48479 100.309Z" fill="#F2D0AC"/>
<path d="M8.33373 13.3915L8.48291 13.1676L8.33373 12.7946L8.48291 12.4216H9.90055L10.0497 12.0485L9.90055 11.6755L10.0497 11.3024H11.4672L11.6164 10.9294L11.4672 10.5564L11.6164 10.1833H13.034L13.1832 9.8103L13.034 9.43727L13.1832 9.06423H14.6006L14.75 8.69119L14.6006 8.31816L14.75 7.94512L14.6006 7.57208H13.1832L13.034 7.19905L13.1832 6.82601H14.6006L14.75 6.45297L14.6006 6.07994L14.75 5.7069L14.6006 5.33386H13.1832L13.034 4.96083L13.1832 4.58779L13.034 4.21475H11.6164L11.4672 3.84172L11.6164 3.46868L11.4672 3.09564H10.0497L9.90055 2.72261L10.0497 2.34957L9.90055 1.97653H8.48291L8.33373 1.6035L8.48291 1.23046L8.33373 0.857422H6.91627L6.76691 1.23046L6.91627 1.6035L6.76691 1.97653H5.34945L5.20027 2.34957L5.34945 2.72261L5.20027 3.09564H3.78263L3.63346 3.46868L3.78263 3.84172L3.63346 4.21475H2.216L2.06682 4.58779L2.216 4.96083L2.06682 5.33386H0.649177L0.5 5.7069L0.649177 6.07994L0.5 6.45297L0.649177 6.82601H2.06682L2.216 7.19905L2.06682 7.57208H0.649177L0.5 7.94512L0.649177 8.31816L0.5 8.69119L0.649177 9.06423H2.06682L2.216 9.43727L2.06682 9.8103L2.216 10.1833H3.63346L3.78263 10.5564L3.63346 10.9294L3.78263 11.3024H5.20027L5.34945 11.6755L5.20027 12.0485L5.34945 12.4216H6.76691L6.91627 12.7946L6.76691 13.1676L6.91627 13.5407H8.33373V13.3915ZM7.51298 3.6179H6.84159L6.69241 3.24486L6.84159 2.87182H8.25905L8.40841 3.24486L8.25905 3.6179H7.51298ZM5.27477 4.73701L5.12559 4.36397L5.27477 3.99093H6.69241L6.84159 4.36397L6.69241 4.73701H5.27477ZM8.40841 4.73701L8.25905 4.36397L8.40841 3.99093H9.82587L9.97505 4.36397L9.82587 4.73701H8.40841ZM3.70814 5.78151L3.55896 5.40847L3.70814 5.03543H5.12559L5.27477 5.40847L5.12559 5.78151H3.70814ZM6.84159 5.78151L6.69241 5.40847L6.84159 5.03543H8.25905L8.40841 5.40847L8.25905 5.78151H6.84159ZM9.97505 5.78151L9.82587 5.40847L9.97505 5.03543H11.3927L11.5419 5.40847L11.3927 5.78151H9.97505ZM12.9593 6.15454L13.1085 6.52758L12.9593 6.90062H11.5419L11.3927 6.52758L11.5419 6.15454H12.9593ZM2.14132 6.82601L1.99214 6.45297L2.14132 6.07994H3.55896L3.70814 6.45297L3.55896 6.82601H2.14132ZM5.27477 6.82601L5.12559 6.45297L5.27477 6.07994H6.69241L6.84159 6.45297L6.69241 6.82601H5.27477ZM8.40841 6.82601L8.25905 6.45297L8.40841 6.07994H9.82587L9.97505 6.45297L9.82587 6.82601H8.40841ZM3.70814 7.87051L3.55896 7.49748L3.70814 7.12444H5.12559L5.27477 7.49748L5.12559 7.87051H3.70814ZM8.25905 7.87051H6.84159L6.69241 7.49748L6.84159 7.12444H8.25905L8.40841 7.49748L8.25905 7.87051ZM9.97505 7.87051L9.82587 7.49748L9.97505 7.12444H11.3927L11.5419 7.49748L11.3927 7.87051H9.97505ZM12.9593 8.24355L13.1085 8.61659L12.9593 8.98962H11.5419L11.3927 8.61659L11.5419 8.24355H12.9593ZM2.14132 8.91502L1.99214 8.54198L2.14132 8.16894H3.55896L3.70814 8.54198L3.55896 8.91502H2.14132ZM5.27477 8.91502L5.12559 8.54198L5.27477 8.16894H6.69241L6.84159 8.54198L6.69241 8.91502H5.27477ZM8.40841 8.91502L8.25905 8.54198L8.40841 8.16894H9.82587L9.97505 8.54198L9.82587 8.91502H8.40841ZM3.70814 10.0341L3.55896 9.66109L3.70814 9.28805H5.12559L5.27477 9.66109L5.12559 10.0341H3.70814ZM6.84159 10.0341L6.69241 9.66109L6.84159 9.28805H8.25905L8.40841 9.66109L8.25905 10.0341H6.84159ZM9.97505 10.0341L9.82587 9.66109L9.97505 9.28805H11.3927L11.5419 9.66109L11.3927 10.0341H9.97505ZM5.27477 11.0786L5.12559 10.7056L5.27477 10.3326H6.69241L6.84159 10.7056L6.69241 11.0786H5.27477ZM8.40841 11.0786L8.25905 10.7056L8.40841 10.3326H9.82587L9.97505 10.7056L9.82587 11.0786H8.40841ZM8.25905 12.1231H6.84159L6.69241 11.7501L6.84159 11.3771H8.25905L8.40841 11.7501L8.25905 12.1231Z" fill="#F2D0AC"/>
<path d="M8.40846 36.4452H9.82592L9.97509 36.0721L9.82592 35.6991H8.40846L8.2591 35.3261L8.40846 34.953L8.2591 34.58L8.40846 34.2069L8.2591 33.8339L8.40846 33.4609H9.82592L9.97509 33.8339L9.82592 34.2069L9.97509 34.58H11.3927L11.5419 34.953L11.3927 35.3261L11.5419 35.6991H12.9594L13.1086 35.3261L12.9594 34.953L13.1086 34.58L12.9594 34.2069H11.5419L11.3927 33.8339L11.5419 33.4609L11.3927 33.0878H9.97509L9.82592 32.7148L9.97509 32.3418L9.82592 31.9687H8.40846L8.2591 31.5957L8.40846 31.2227L8.2591 30.8496L8.40846 30.4766L8.2591 30.1035L8.40846 29.7305L8.2591 29.3575L8.40846 28.9844L8.2591 28.6114L8.40846 28.2384L8.2591 27.8653L8.40846 27.4923L8.2591 27.1193L8.40846 26.7462L8.2591 26.3732L8.40846 26.0001L8.2591 25.6271L8.40846 25.2541L8.2591 24.881L8.40846 24.508L8.2591 24.135L8.40846 23.7619L8.2591 23.3889L8.40846 23.0158L8.2591 22.6428L8.40846 22.2698L8.2591 21.8967L8.40846 21.5237L8.2591 21.1507L8.40846 20.7776L8.2591 20.4046L8.40846 20.0316L8.2591 19.6585L8.40846 19.2855L8.2591 18.9124L8.40846 18.5394L8.2591 18.1664L8.40846 17.7933H9.82592L9.97509 17.4203L9.82592 17.0473L9.97509 16.6742H11.3927L11.5419 16.3012L11.3927 15.9282L11.5419 15.5551H12.9594L13.1086 15.1821L12.9594 14.809L13.1086 14.436L12.9594 14.063H11.5419L11.3927 14.436L11.5419 14.809L11.3927 15.1821H9.97509L9.82592 15.5551L9.97509 15.9282L9.82592 16.3012H8.40846L8.2591 15.9282L8.40846 15.5551L8.2591 15.1821L8.40846 14.809L8.2591 14.436L8.40846 14.063H9.82592L9.97509 13.6899L9.82592 13.3169H8.40846L8.2591 13.6899H6.84164L6.69246 13.3169H5.27482L5.12564 13.6899L5.27482 14.063H6.69246L6.84164 14.436L6.69246 14.809L6.84164 15.1821L6.69246 15.5551L6.84164 15.9282L6.69246 16.3012H5.27482L5.12564 15.9282L5.27482 15.5551L5.12564 15.1821H3.70818L3.55901 14.809L3.70818 14.436L3.55901 14.063H2.14136L1.99219 14.436L2.14136 14.809L1.99219 15.1821L2.14136 15.5551H3.55901L3.70818 15.9282L3.55901 16.3012L3.70818 16.6742H5.12564L5.27482 17.0473L5.12564 17.4203L5.27482 17.7933H6.69246L6.84164 18.1664L6.69246 18.5394L6.84164 18.9124L6.69246 19.2855L6.84164 19.6585L6.69246 20.0316L6.84164 20.4046L6.69246 20.7776L6.84164 21.1507L6.69246 21.5237L6.84164 21.8967L6.69246 22.2698L6.84164 22.6428L6.69246 23.0158L6.84164 23.3889L6.69246 23.7619L6.84164 24.135L6.69246 24.508L6.84164 24.881L6.69246 25.2541L6.84164 25.6271L6.69246 26.0001L6.84164 26.3732L6.69246 26.7462L6.84164 27.1193L6.69246 27.4923L6.84164 27.8653L6.69246 28.2384L6.84164 28.6114L6.69246 28.9844L6.84164 29.3575L6.69246 29.7305L6.84164 30.1035L6.69246 30.4766L6.84164 30.8496L6.69246 31.2227L6.84164 31.5957L6.69246 31.9687H5.27482L5.12564 32.3418L5.27482 32.7148L5.12564 33.0878H3.70818L3.55901 33.4609L3.70818 33.8339L3.55901 34.2069H2.14136L1.99219 34.58L2.14136 34.953L1.99219 35.3261L2.14136 35.6991H3.55901L3.70818 35.3261L3.55901 34.953L3.70818 34.58H5.12564L5.27482 34.2069L5.12564 33.8339L5.27482 33.4609H6.69246L6.84164 33.8339L6.69246 34.2069L6.84164 34.58L6.69246 34.953L6.84164 35.3261L6.69246 35.6991H5.27482L5.12564 36.0721L5.27482 36.4452H6.69246L6.84164 36.0721H8.2591L8.40846 36.4452ZM6.84164 18.4648L6.69246 18.0918L6.84164 17.7187H8.2591L8.40846 18.0918L8.2591 18.4648H6.84164ZM6.84164 33.3117L6.69246 32.9386L6.84164 32.5656H8.2591L8.40846 32.9386L8.2591 33.3117H6.84164Z" fill="#F2D0AC"/>
<path d="M12.9596 29.7301L13.1835 29.4317L12.9596 29.0587L13.1835 28.6856L12.9596 28.3126H11.6167L11.393 28.0142H9.97535L9.82617 28.3126L9.97535 28.6856L9.82617 29.0587L9.97535 29.4317L9.82617 29.7301L9.97535 30.1032H11.393L11.6167 29.7301H12.9596Z" fill="#F2D0AC"/>
<path d="M12.9596 26.2242L13.1835 25.8511L12.9596 25.5527L13.1835 25.1797L12.9596 24.8066H11.6167L11.393 24.4336H9.97535L9.82617 24.8066L9.97535 25.1797L9.82617 25.5527L9.97535 25.8511L9.82617 26.2242L9.97535 26.5972H11.393L11.6167 26.2242H12.9596Z" fill="#F2D0AC"/>
<path d="M11.6167 22.7173H12.9596L13.1835 22.3443L12.9596 21.9713L13.1835 21.6728L12.9596 21.2998H11.6167L11.393 20.9268H9.97535L9.82617 21.2998L9.97535 21.6728L9.82617 21.9713L9.97535 22.3443L9.82617 22.7173L9.97535 23.0158H11.393L11.6167 22.7173Z" fill="#F2D0AC"/>
<path d="M2.14183 21.2998L1.91797 21.6728L2.14183 21.9713L1.91797 22.3443L2.14183 22.7173H3.48479L3.70864 23.0158H5.05161L5.27528 22.7173L5.05161 22.3443L5.27528 21.9713L5.05161 21.6728L5.27528 21.2998L5.05161 20.9268H3.70864L3.48479 21.2998H2.14183Z" fill="#F2D0AC"/>
<path d="M2.14183 24.8057L1.91797 25.1787L2.14183 25.5517L1.91797 25.8502L2.14183 26.2232H3.48479L3.70864 26.5962H5.05161L5.27528 26.2232L5.05161 25.8502L5.27528 25.5517L5.05161 25.1787L5.27528 24.8057L5.05161 24.4326H3.70864L3.48479 24.8057H2.14183Z" fill="#F2D0AC"/>
<path d="M3.48479 28.3126H2.14183L1.91797 28.6856L2.14183 29.0587L1.91797 29.4317L2.14183 29.7301H3.48479L3.70864 30.1032H5.05161L5.27528 29.7301L5.05161 29.4317L5.27528 29.0587L5.05161 28.6856L5.27528 28.3126L5.05161 28.0142H3.70864L3.48479 28.3126Z" fill="#F2D0AC"/>
<path d="M8.33373 121.422L8.48291 121.198L8.33373 120.825L8.48291 120.452H9.90055L10.0497 120.079L9.90055 119.706L10.0497 119.333H11.4672L11.6164 118.96L11.4672 118.587L11.6164 118.214H13.034L13.1832 117.841L13.034 117.468L13.1832 117.095H14.6006L14.75 116.722L14.6006 116.349L14.75 115.976L14.6006 115.603H13.1832L13.034 115.23L13.1832 114.857H14.6006L14.75 114.484L14.6006 114.111L14.75 113.738L14.6006 113.365H13.1832L13.034 112.992L13.1832 112.619L13.034 112.246H11.6164L11.4672 111.872L11.6164 111.499L11.4672 111.126H10.0497L9.90055 110.753L10.0497 110.38L9.90055 110.007H8.48291L8.33373 109.634L8.48291 109.261L8.33373 108.888H6.91627L6.76691 109.261L6.91627 109.634L6.76691 110.007H5.34945L5.20027 110.38L5.34945 110.753L5.20027 111.126H3.78263L3.63346 111.499L3.78263 111.872L3.63346 112.246H2.216L2.06682 112.619L2.216 112.992L2.06682 113.365H0.649177L0.5 113.738L0.649177 114.111L0.5 114.484L0.649177 114.857H2.06682L2.216 115.23L2.06682 115.603H0.649177L0.5 115.976L0.649177 116.349L0.5 116.722L0.649177 117.095H2.06682L2.216 117.468L2.06682 117.841L2.216 118.214H3.63346L3.78263 118.587L3.63346 118.96L3.78263 119.333H5.20027L5.34945 119.706L5.20027 120.079L5.34945 120.452H6.76691L6.91627 120.825L6.76691 121.198L6.91627 121.571H8.33373V121.422ZM7.51298 111.649H6.84159L6.69241 111.276L6.84159 110.903H8.25905L8.40841 111.276L8.25905 111.649H7.51298ZM5.27477 112.693L5.12559 112.32L5.27477 111.947H6.69241L6.84159 112.32L6.69241 112.693H5.27477ZM8.40841 112.693L8.25905 112.32L8.40841 111.947H9.82587L9.97505 112.32L9.82587 112.693H8.40841ZM3.70814 113.738L3.55896 113.365L3.70814 112.992H5.12559L5.27477 113.365L5.12559 113.738H3.70814ZM6.84159 113.738L6.69241 113.365L6.84159 112.992H8.25905L8.40841 113.365L8.25905 113.738H6.84159ZM9.97505 113.738L9.82587 113.365L9.97505 112.992H11.3927L11.5419 113.365L11.3927 113.738H9.97505ZM12.9593 114.111L13.1085 114.484L12.9593 114.857H11.5419L11.3927 114.484L11.5419 114.111H12.9593ZM2.14132 114.857L1.99214 114.484L2.14132 114.111H3.55896L3.70814 114.484L3.55896 114.857H2.14132ZM5.27477 114.857L5.12559 114.484L5.27477 114.111H6.69241L6.84159 114.484L6.69241 114.857H5.27477ZM8.40841 114.857L8.25905 114.484L8.40841 114.111H9.82587L9.97505 114.484L9.82587 114.857H8.40841ZM3.70814 115.901L3.55896 115.528L3.70814 115.155H5.12559L5.27477 115.528L5.12559 115.901H3.70814ZM8.25905 115.901H6.84159L6.69241 115.528L6.84159 115.155H8.25905L8.40841 115.528L8.25905 115.901ZM9.97505 115.901L9.82587 115.528L9.97505 115.155H11.3927L11.5419 115.528L11.3927 115.901H9.97505ZM12.9593 116.2L13.1085 116.573L12.9593 116.946H11.5419L11.3927 116.573L11.5419 116.2H12.9593ZM2.14132 116.946L1.99214 116.573L2.14132 116.2H3.55896L3.70814 116.573L3.55896 116.946H2.14132ZM5.27477 116.946L5.12559 116.573L5.27477 116.2H6.69241L6.84159 116.573L6.69241 116.946H5.27477ZM8.40841 116.946L8.25905 116.573L8.40841 116.2H9.82587L9.97505 116.573L9.82587 116.946H8.40841ZM3.70814 117.99L3.55896 117.617L3.70814 117.244H5.12559L5.27477 117.617L5.12559 117.99H3.70814ZM6.84159 117.99L6.69241 117.617L6.84159 117.244H8.25905L8.40841 117.617L8.25905 117.99H6.84159ZM9.97505 117.99L9.82587 117.617L9.97505 117.244H11.3927L11.5419 117.617L11.3927 117.99H9.97505ZM5.27477 119.035L5.12559 118.662L5.27477 118.289H6.69241L6.84159 118.662L6.69241 119.035H5.27477ZM8.40841 119.035L8.25905 118.662L8.40841 118.289H9.82587L9.97505 118.662L9.82587 119.035H8.40841ZM8.25905 120.079H6.84159L6.69241 119.706L6.84159 119.333H8.25905L8.40841 119.706L8.25905 120.079Z" fill="#F2D0AC"/>
<path d="M8.40846 144.476H9.82592L9.97509 144.103L9.82592 143.73H8.40846L8.2591 143.357L8.40846 142.984L8.2591 142.611L8.40846 142.238L8.2591 141.865L8.40846 141.492H9.82592L9.97509 141.865L9.82592 142.238L9.97509 142.611H11.3927L11.5419 142.984L11.3927 143.357L11.5419 143.73H12.9594L13.1086 143.357L12.9594 142.984L13.1086 142.611L12.9594 142.238H11.5419L11.3927 141.865L11.5419 141.492L11.3927 141.119H9.97509L9.82592 140.746L9.97509 140.373L9.82592 140H8.40846L8.2591 139.627L8.40846 139.254L8.2591 138.881L8.40846 138.508L8.2591 138.135L8.40846 137.762L8.2591 137.389L8.40846 137.016L8.2591 136.643L8.40846 136.27L8.2591 135.897L8.40846 135.524L8.2591 135.151L8.40846 134.777L8.2591 134.404L8.40846 134.031L8.2591 133.658L8.40846 133.285L8.2591 132.912L8.40846 132.539L8.2591 132.166L8.40846 131.793L8.2591 131.42L8.40846 131.047L8.2591 130.674L8.40846 130.301L8.2591 129.928L8.40846 129.555L8.2591 129.182L8.40846 128.809L8.2591 128.436L8.40846 128.063L8.2591 127.69L8.40846 127.317L8.2591 126.944L8.40846 126.571L8.2591 126.198L8.40846 125.825H9.82592L9.97509 125.452L9.82592 125.079L9.97509 124.705H11.3927L11.5419 124.332L11.3927 123.959L11.5419 123.586H12.9594L13.1086 123.213L12.9594 122.84L13.1086 122.467L12.9594 122.094H11.5419L11.3927 122.467L11.5419 122.84L11.3927 123.213H9.97509L9.82592 123.586L9.97509 123.959L9.82592 124.332H8.40846L8.2591 123.959L8.40846 123.586L8.2591 123.213L8.40846 122.84L8.2591 122.467L8.40846 122.094H9.82592L9.97509 121.721L9.82592 121.348H8.40846L8.2591 121.721H6.84164L6.69246 121.348H5.27482L5.12564 121.721L5.27482 122.094H6.69246L6.84164 122.467L6.69246 122.84L6.84164 123.213L6.69246 123.586L6.84164 123.959L6.69246 124.332H5.27482L5.12564 123.959L5.27482 123.586L5.12564 123.213H3.70818L3.55901 122.84L3.70818 122.467L3.55901 122.094H2.14136L1.99219 122.467L2.14136 122.84L1.99219 123.213L2.14136 123.586H3.55901L3.70818 123.959L3.55901 124.332L3.70818 124.705H5.12564L5.27482 125.079L5.12564 125.452L5.27482 125.825H6.69246L6.84164 126.198L6.69246 126.571L6.84164 126.944L6.69246 127.317L6.84164 127.69L6.69246 128.063L6.84164 128.436L6.69246 128.809L6.84164 129.182L6.69246 129.555L6.84164 129.928L6.69246 130.301L6.84164 130.674L6.69246 131.047L6.84164 131.42L6.69246 131.793L6.84164 132.166L6.69246 132.539L6.84164 132.912L6.69246 133.285L6.84164 133.658L6.69246 134.031L6.84164 134.404L6.69246 134.777L6.84164 135.151L6.69246 135.524L6.84164 135.897L6.69246 136.27L6.84164 136.643L6.69246 137.016L6.84164 137.389L6.69246 137.762L6.84164 138.135L6.69246 138.508L6.84164 138.881L6.69246 139.254L6.84164 139.627L6.69246 140H5.27482L5.12564 140.373L5.27482 140.746L5.12564 141.119H3.70818L3.55901 141.492L3.70818 141.865L3.55901 142.238H2.14136L1.99219 142.611L2.14136 142.984L1.99219 143.357L2.14136 143.73H3.55901L3.70818 143.357L3.55901 142.984L3.70818 142.611H5.12564L5.27482 142.238L5.12564 141.865L5.27482 141.492H6.69246L6.84164 141.865L6.69246 142.238L6.84164 142.611L6.69246 142.984L6.84164 143.357L6.69246 143.73H5.27482L5.12564 144.103L5.27482 144.476H6.69246L6.84164 144.103H8.2591L8.40846 144.476ZM6.84164 126.421L6.69246 126.048L6.84164 125.675H8.2591L8.40846 126.048L8.2591 126.421H6.84164ZM6.84164 141.268L6.69246 140.895L6.84164 140.522H8.2591L8.40846 140.895L8.2591 141.268H6.84164Z" fill="#F2D0AC"/>
<path d="M12.9596 137.762L13.1835 137.389L12.9596 137.016L13.1835 136.718L12.9596 136.345H11.6167L11.393 135.972H9.97535L9.82617 136.345L9.97535 136.718L9.82617 137.016L9.97535 137.389L9.82617 137.762L9.97535 138.135H11.393L11.6167 137.762H12.9596Z" fill="#F2D0AC"/>
<path d="M12.9596 134.254L13.1835 133.881L12.9596 133.508L13.1835 133.135L12.9596 132.837H11.6167L11.393 132.464H9.97535L9.82617 132.837L9.97535 133.135L9.82617 133.508L9.97535 133.881L9.82617 134.254L9.97535 134.553H11.393L11.6167 134.254H12.9596Z" fill="#F2D0AC"/>
<path d="M11.6167 130.674H12.9596L13.1835 130.376L12.9596 130.003L13.1835 129.629L12.9596 129.256H11.6167L11.393 128.958H9.97535L9.82617 129.256L9.97535 129.629L9.82617 130.003L9.97535 130.376L9.82617 130.674L9.97535 131.047H11.393L11.6167 130.674Z" fill="#F2D0AC"/>
<path d="M2.14183 129.256L1.91797 129.629L2.14183 130.002L1.91797 130.375L2.14183 130.673H3.48479L3.70864 131.047H5.05161L5.27528 130.673L5.05161 130.375L5.27528 130.002L5.05161 129.629L5.27528 129.256L5.05161 128.958H3.70864L3.48479 129.256H2.14183Z" fill="#F2D0AC"/>
<path d="M2.14183 132.836L1.91797 133.135L2.14183 133.508L1.91797 133.881L2.14183 134.254H3.48479L3.70864 134.552H5.05161L5.27528 134.254L5.05161 133.881L5.27528 133.508L5.05161 133.135L5.27528 132.836L5.05161 132.463H3.70864L3.48479 132.836H2.14183Z" fill="#F2D0AC"/>
<path d="M3.48479 136.344H2.14183L1.91797 136.717L2.14183 137.016L1.91797 137.389L2.14183 137.762H3.48479L3.70864 138.135H5.05161L5.27528 137.762L5.05161 137.389L5.27528 137.016L5.05161 136.717L5.27528 136.344L5.05161 135.971H3.70864L3.48479 136.344Z" fill="#F2D0AC"/>
<path d="M8.33373 157.386L8.48291 157.162L8.33373 156.789L8.48291 156.416H9.90055L10.0497 156.043L9.90055 155.67L10.0497 155.297H11.4672L11.6164 154.924L11.4672 154.551L11.6164 154.177H13.034L13.1832 153.804L13.034 153.431L13.1832 153.058H14.6006L14.75 152.685L14.6006 152.312L14.75 151.939L14.6006 151.566H13.1832L13.034 151.193L13.1832 150.82H14.6006L14.75 150.447L14.6006 150.074L14.75 149.701L14.6006 149.328H13.1832L13.034 148.955L13.1832 148.582L13.034 148.209H11.6164L11.4672 147.836L11.6164 147.463L11.4672 147.09H10.0497L9.90055 146.717L10.0497 146.344L9.90055 145.971H8.48291L8.33373 145.598L8.48291 145.225L8.33373 144.852H6.91627L6.76691 145.225L6.91627 145.598L6.76691 145.971H5.34945L5.20027 146.344L5.34945 146.717L5.20027 147.09H3.78263L3.63346 147.463L3.78263 147.836L3.63346 148.209H2.216L2.06682 148.582L2.216 148.955L2.06682 149.328H0.649177L0.5 149.701L0.649177 150.074L0.5 150.447L0.649177 150.82H2.06682L2.216 151.193L2.06682 151.566H0.649177L0.5 151.939L0.649177 152.312L0.5 152.685L0.649177 153.058H2.06682L2.216 153.431L2.06682 153.804L2.216 154.177H3.63346L3.78263 154.551L3.63346 154.924L3.78263 155.297H5.20027L5.34945 155.67L5.20027 156.043L5.34945 156.416H6.76691L6.91627 156.789L6.76691 157.162L6.91627 157.535H8.33373V157.386ZM7.51298 147.612H6.84159L6.69241 147.239L6.84159 146.866H8.25905L8.40841 147.239L8.25905 147.612H7.51298ZM5.27477 148.731L5.12559 148.358L5.27477 147.985H6.69241L6.84159 148.358L6.69241 148.731H5.27477ZM8.40841 148.731L8.25905 148.358L8.40841 147.985H9.82587L9.97505 148.358L9.82587 148.731H8.40841ZM3.70814 149.776L3.55896 149.403L3.70814 149.03H5.12559L5.27477 149.403L5.12559 149.776H3.70814ZM6.84159 149.776L6.69241 149.403L6.84159 149.03H8.25905L8.40841 149.403L8.25905 149.776H6.84159ZM9.97505 149.776L9.82587 149.403L9.97505 149.03H11.3927L11.5419 149.403L11.3927 149.776H9.97505ZM12.9593 150.149L13.1085 150.522L12.9593 150.895H11.5419L11.3927 150.522L11.5419 150.149H12.9593ZM2.14132 150.82L1.99214 150.447L2.14132 150.074H3.55896L3.70814 150.447L3.55896 150.82H2.14132ZM5.27477 150.82L5.12559 150.447L5.27477 150.074H6.69241L6.84159 150.447L6.69241 150.82H5.27477ZM8.40841 150.82L8.25905 150.447L8.40841 150.074H9.82587L9.97505 150.447L9.82587 150.82H8.40841ZM3.70814 151.865L3.55896 151.492L3.70814 151.119H5.12559L5.27477 151.492L5.12559 151.865H3.70814ZM8.25905 151.865H6.84159L6.69241 151.492L6.84159 151.119H8.25905L8.40841 151.492L8.25905 151.865ZM9.97505 151.865L9.82587 151.492L9.97505 151.119H11.3927L11.5419 151.492L11.3927 151.865H9.97505ZM12.9593 152.238L13.1085 152.611L12.9593 152.984H11.5419L11.3927 152.611L11.5419 152.238H12.9593ZM2.14132 152.909L1.99214 152.536L2.14132 152.163H3.55896L3.70814 152.536L3.55896 152.909H2.14132ZM5.27477 152.909L5.12559 152.536L5.27477 152.163H6.69241L6.84159 152.536L6.69241 152.909H5.27477ZM8.40841 152.909L8.25905 152.536L8.40841 152.163H9.82587L9.97505 152.536L9.82587 152.909H8.40841ZM3.70814 154.028L3.55896 153.655L3.70814 153.282H5.12559L5.27477 153.655L5.12559 154.028H3.70814ZM6.84159 154.028L6.69241 153.655L6.84159 153.282H8.25905L8.40841 153.655L8.25905 154.028H6.84159ZM9.97505 154.028L9.82587 153.655L9.97505 153.282H11.3927L11.5419 153.655L11.3927 154.028H9.97505ZM5.27477 155.073L5.12559 154.7L5.27477 154.327H6.69241L6.84159 154.7L6.69241 155.073H5.27477ZM8.40841 155.073L8.25905 154.7L8.40841 154.327H9.82587L9.97505 154.7L9.82587 155.073H8.40841ZM8.25905 156.117H6.84159L6.69241 155.744L6.84159 155.371H8.25905L8.40841 155.744L8.25905 156.117Z" fill="#F2D0AC"/>
<path d="M8.40846 180.44H9.82592L9.97509 180.067L9.82592 179.694H8.40846L8.2591 179.321L8.40846 178.948L8.2591 178.575L8.40846 178.202L8.2591 177.829L8.40846 177.456H9.82592L9.97509 177.829L9.82592 178.202L9.97509 178.575H11.3927L11.5419 178.948L11.3927 179.321L11.5419 179.694H12.9594L13.1086 179.321L12.9594 178.948L13.1086 178.575L12.9594 178.202H11.5419L11.3927 177.829L11.5419 177.456L11.3927 177.082H9.97509L9.82592 176.709L9.97509 176.336L9.82592 175.963H8.40846L8.2591 175.59L8.40846 175.217L8.2591 174.844L8.40846 174.471L8.2591 174.098L8.40846 173.725L8.2591 173.352L8.40846 172.979L8.2591 172.606L8.40846 172.233L8.2591 171.86L8.40846 171.487L8.2591 171.114L8.40846 170.741L8.2591 170.368L8.40846 169.995L8.2591 169.622L8.40846 169.249L8.2591 168.876L8.40846 168.503L8.2591 168.13L8.40846 167.757L8.2591 167.384L8.40846 167.01L8.2591 166.637L8.40846 166.264L8.2591 165.891L8.40846 165.518L8.2591 165.145L8.40846 164.772L8.2591 164.399L8.40846 164.026L8.2591 163.653L8.40846 163.28L8.2591 162.907L8.40846 162.534L8.2591 162.161L8.40846 161.788H9.82592L9.97509 161.415L9.82592 161.042L9.97509 160.669H11.3927L11.5419 160.296L11.3927 159.923L11.5419 159.55H12.9594L13.1086 159.177L12.9594 158.804L13.1086 158.431L12.9594 158.058H11.5419L11.3927 158.431L11.5419 158.804L11.3927 159.177H9.97509L9.82592 159.55L9.97509 159.923L9.82592 160.296H8.40846L8.2591 159.923L8.40846 159.55L8.2591 159.177L8.40846 158.804L8.2591 158.431L8.40846 158.058H9.82592L9.97509 157.685L9.82592 157.312H8.40846L8.2591 157.685H6.84164L6.69246 157.312H5.27482L5.12564 157.685L5.27482 158.058H6.69246L6.84164 158.431L6.69246 158.804L6.84164 159.177L6.69246 159.55L6.84164 159.923L6.69246 160.296H5.27482L5.12564 159.923L5.27482 159.55L5.12564 159.177H3.70818L3.55901 158.804L3.70818 158.431L3.55901 158.058H2.14136L1.99219 158.431L2.14136 158.804L1.99219 159.177L2.14136 159.55H3.55901L3.70818 159.923L3.55901 160.296L3.70818 160.669H5.12564L5.27482 161.042L5.12564 161.415L5.27482 161.788H6.69246L6.84164 162.161L6.69246 162.534L6.84164 162.907L6.69246 163.28L6.84164 163.653L6.69246 164.026L6.84164 164.399L6.69246 164.772L6.84164 165.145L6.69246 165.518L6.84164 165.891L6.69246 166.264L6.84164 166.637L6.69246 167.01L6.84164 167.384L6.69246 167.757L6.84164 168.13L6.69246 168.503L6.84164 168.876L6.69246 169.249L6.84164 169.622L6.69246 169.995L6.84164 170.368L6.69246 170.741L6.84164 171.114L6.69246 171.487L6.84164 171.86L6.69246 172.233L6.84164 172.606L6.69246 172.979L6.84164 173.352L6.69246 173.725L6.84164 174.098L6.69246 174.471L6.84164 174.844L6.69246 175.217L6.84164 175.59L6.69246 175.963H5.27482L5.12564 176.336L5.27482 176.709L5.12564 177.082H3.70818L3.55901 177.456L3.70818 177.829L3.55901 178.202H2.14136L1.99219 178.575L2.14136 178.948L1.99219 179.321L2.14136 179.694H3.55901L3.70818 179.321L3.55901 178.948L3.70818 178.575H5.12564L5.27482 178.202L5.12564 177.829L5.27482 177.456H6.69246L6.84164 177.829L6.69246 178.202L6.84164 178.575L6.69246 178.948L6.84164 179.321L6.69246 179.694H5.27482L5.12564 180.067L5.27482 180.44H6.69246L6.84164 180.067H8.2591L8.40846 180.44ZM6.84164 162.459L6.69246 162.086L6.84164 161.713H8.2591L8.40846 162.086L8.2591 162.459H6.84164ZM6.84164 177.306L6.69246 176.933L6.84164 176.56H8.2591L8.40846 176.933L8.2591 177.306H6.84164Z" fill="#F2D0AC"/>
<path d="M12.9596 173.725L13.1835 173.426L12.9596 173.053L13.1835 172.68L12.9596 172.307H11.6167L11.393 172.009H9.97535L9.82617 172.307L9.97535 172.68L9.82617 173.053L9.97535 173.426L9.82617 173.725L9.97535 174.098H11.393L11.6167 173.725H12.9596Z" fill="#F2D0AC"/>
<path d="M12.9596 170.218L13.1835 169.845L12.9596 169.546L13.1835 169.173L12.9596 168.8H11.6167L11.393 168.427H9.97535L9.82617 168.8L9.97535 169.173L9.82617 169.546L9.97535 169.845L9.82617 170.218L9.97535 170.591H11.393L11.6167 170.218H12.9596Z" fill="#F2D0AC"/>
<path d="M11.6167 166.712H12.9596L13.1835 166.339L12.9596 165.966L13.1835 165.667L12.9596 165.294H11.6167L11.393 164.921H9.97535L9.82617 165.294L9.97535 165.667L9.82617 165.966L9.97535 166.339L9.82617 166.712L9.97535 167.01H11.393L11.6167 166.712Z" fill="#F2D0AC"/>
<path d="M2.14183 165.294L1.91797 165.667L2.14183 165.966L1.91797 166.339L2.14183 166.712H3.48479L3.70864 167.01H5.05161L5.27528 166.712L5.05161 166.339L5.27528 165.966L5.05161 165.667L5.27528 165.294L5.05161 164.921H3.70864L3.48479 165.294H2.14183Z" fill="#F2D0AC"/>
<path d="M2.14183 168.801L1.91797 169.174L2.14183 169.547L1.91797 169.846L2.14183 170.219H3.48479L3.70864 170.592H5.05161L5.27528 170.219L5.05161 169.846L5.27528 169.547L5.05161 169.174L5.27528 168.801L5.05161 168.428H3.70864L3.48479 168.801H2.14183Z" fill="#F2D0AC"/>
<path d="M3.48479 172.307H2.14183L1.91797 172.68L2.14183 173.053L1.91797 173.426L2.14183 173.725H3.48479L3.70864 174.098H5.05161L5.27528 173.725L5.05161 173.426L5.27528 173.053L5.05161 172.68L5.27528 172.307L5.05161 172.009H3.70864L3.48479 172.307Z" fill="#F2D0AC"/>
<path d="M8.33373 193.419L8.48291 193.195L8.33373 192.822L8.48291 192.449H9.90055L10.0497 192.076L9.90055 191.703L10.0497 191.33H11.4672L11.6164 190.957L11.4672 190.584L11.6164 190.211H13.034L13.1832 189.838L13.034 189.465L13.1832 189.092H14.6006L14.75 188.719L14.6006 188.346L14.75 187.973L14.6006 187.6H13.1832L13.034 187.227L13.1832 186.854H14.6006L14.75 186.481L14.6006 186.108L14.75 185.735L14.6006 185.362H13.1832L13.034 184.989L13.1832 184.616L13.034 184.243H11.6164L11.4672 183.87L11.6164 183.497L11.4672 183.123H10.0497L9.90055 182.75L10.0497 182.377L9.90055 182.004H8.48291L8.33373 181.631L8.48291 181.258L8.33373 180.885H6.91627L6.76691 181.258L6.91627 181.631L6.76691 182.004H5.34945L5.20027 182.377L5.34945 182.75L5.20027 183.123H3.78263L3.63346 183.497L3.78263 183.87L3.63346 184.243H2.216L2.06682 184.616L2.216 184.989L2.06682 185.362H0.649177L0.5 185.735L0.649177 186.108L0.5 186.481L0.649177 186.854H2.06682L2.216 187.227L2.06682 187.6H0.649177L0.5 187.973L0.649177 188.346L0.5 188.719L0.649177 189.092H2.06682L2.216 189.465L2.06682 189.838L2.216 190.211H3.63346L3.78263 190.584L3.63346 190.957L3.78263 191.33H5.20027L5.34945 191.703L5.20027 192.076L5.34945 192.449H6.76691L6.91627 192.822L6.76691 193.195L6.91627 193.569H8.33373V193.419ZM7.51298 183.646H6.84159L6.69241 183.273L6.84159 182.9H8.25905L8.40841 183.273L8.25905 183.646H7.51298ZM5.27477 184.69L5.12559 184.317L5.27477 183.944H6.69241L6.84159 184.317L6.69241 184.69H5.27477ZM8.40841 184.69L8.25905 184.317L8.40841 183.944H9.82587L9.97505 184.317L9.82587 184.69H8.40841ZM3.70814 185.735L3.55896 185.362L3.70814 184.989H5.12559L5.27477 185.362L5.12559 185.735H3.70814ZM6.84159 185.735L6.69241 185.362L6.84159 184.989H8.25905L8.40841 185.362L8.25905 185.735H6.84159ZM9.97505 185.735L9.82587 185.362L9.97505 184.989H11.3927L11.5419 185.362L11.3927 185.735H9.97505ZM12.9593 186.108L13.1085 186.481L12.9593 186.854H11.5419L11.3927 186.481L11.5419 186.108H12.9593ZM2.14132 186.854L1.99214 186.481L2.14132 186.108H3.55896L3.70814 186.481L3.55896 186.854H2.14132ZM5.27477 186.854L5.12559 186.481L5.27477 186.108H6.69241L6.84159 186.481L6.69241 186.854H5.27477ZM8.40841 186.854L8.25905 186.481L8.40841 186.108H9.82587L9.97505 186.481L9.82587 186.854H8.40841ZM3.70814 187.898L3.55896 187.525L3.70814 187.152H5.12559L5.27477 187.525L5.12559 187.898H3.70814ZM8.25905 187.898H6.84159L6.69241 187.525L6.84159 187.152H8.25905L8.40841 187.525L8.25905 187.898ZM9.97505 187.898L9.82587 187.525L9.97505 187.152H11.3927L11.5419 187.525L11.3927 187.898H9.97505ZM12.9593 188.197L13.1085 188.57L12.9593 188.943H11.5419L11.3927 188.57L11.5419 188.197H12.9593ZM2.14132 188.943L1.99214 188.57L2.14132 188.197H3.55896L3.70814 188.57L3.55896 188.943H2.14132ZM5.27477 188.943L5.12559 188.57L5.27477 188.197H6.69241L6.84159 188.57L6.69241 188.943H5.27477ZM8.40841 188.943L8.25905 188.57L8.40841 188.197H9.82587L9.97505 188.57L9.82587 188.943H8.40841ZM3.70814 189.987L3.55896 189.614L3.70814 189.241H5.12559L5.27477 189.614L5.12559 189.987H3.70814ZM6.84159 189.987L6.69241 189.614L6.84159 189.241H8.25905L8.40841 189.614L8.25905 189.987H6.84159ZM9.97505 189.987L9.82587 189.614L9.97505 189.241H11.3927L11.5419 189.614L11.3927 189.987H9.97505ZM5.27477 191.032L5.12559 190.659L5.27477 190.286H6.69241L6.84159 190.659L6.69241 191.032H5.27477ZM8.40841 191.032L8.25905 190.659L8.40841 190.286H9.82587L9.97505 190.659L9.82587 191.032H8.40841ZM8.25905 192.076H6.84159L6.69241 191.703L6.84159 191.33H8.25905L8.40841 191.703L8.25905 192.076Z" fill="#F2D0AC"/>
<path d="M8.40846 216.473H9.82592L9.97509 216.1L9.82592 215.727H8.40846L8.2591 215.354L8.40846 214.981L8.2591 214.608L8.40846 214.235L8.2591 213.862L8.40846 213.489H9.82592L9.97509 213.862L9.82592 214.235L9.97509 214.608H11.3927L11.5419 214.981L11.3927 215.354L11.5419 215.727H12.9594L13.1086 215.354L12.9594 214.981L13.1086 214.608L12.9594 214.235H11.5419L11.3927 213.862L11.5419 213.489L11.3927 213.116H9.97509L9.82592 212.743L9.97509 212.37L9.82592 211.997H8.40846L8.2591 211.624L8.40846 211.25L8.2591 210.877L8.40846 210.504L8.2591 210.131L8.40846 209.758L8.2591 209.385L8.40846 209.012L8.2591 208.639L8.40846 208.266L8.2591 207.893L8.40846 207.52L8.2591 207.147L8.40846 206.774L8.2591 206.401L8.40846 206.028L8.2591 205.655L8.40846 205.282L8.2591 204.909L8.40846 204.536L8.2591 204.163L8.40846 203.79L8.2591 203.417L8.40846 203.044L8.2591 202.671L8.40846 202.298L8.2591 201.925L8.40846 201.552L8.2591 201.178L8.40846 200.805L8.2591 200.432L8.40846 200.059L8.2591 199.686L8.40846 199.313L8.2591 198.94L8.40846 198.567L8.2591 198.194L8.40846 197.821H9.82592L9.97509 197.448L9.82592 197.075L9.97509 196.702H11.3927L11.5419 196.329L11.3927 195.956L11.5419 195.583H12.9594L13.1086 195.21L12.9594 194.837L13.1086 194.464L12.9594 194.091H11.5419L11.3927 194.464L11.5419 194.837L11.3927 195.21H9.97509L9.82592 195.583L9.97509 195.956L9.82592 196.329H8.40846L8.2591 195.956L8.40846 195.583L8.2591 195.21L8.40846 194.837L8.2591 194.464L8.40846 194.091H9.82592L9.97509 193.718L9.82592 193.345H8.40846L8.2591 193.718H6.84164L6.69246 193.345H5.27482L5.12564 193.718L5.27482 194.091H6.69246L6.84164 194.464L6.69246 194.837L6.84164 195.21L6.69246 195.583L6.84164 195.956L6.69246 196.329H5.27482L5.12564 195.956L5.27482 195.583L5.12564 195.21H3.70818L3.55901 194.837L3.70818 194.464L3.55901 194.091H2.14136L1.99219 194.464L2.14136 194.837L1.99219 195.21L2.14136 195.583H3.55901L3.70818 195.956L3.55901 196.329L3.70818 196.702H5.12564L5.27482 197.075L5.12564 197.448L5.27482 197.821H6.69246L6.84164 198.194L6.69246 198.567L6.84164 198.94L6.69246 199.313L6.84164 199.686L6.69246 200.059L6.84164 200.432L6.69246 200.805L6.84164 201.178L6.69246 201.552L6.84164 201.925L6.69246 202.298L6.84164 202.671L6.69246 203.044L6.84164 203.417L6.69246 203.79L6.84164 204.163L6.69246 204.536L6.84164 204.909L6.69246 205.282L6.84164 205.655L6.69246 206.028L6.84164 206.401L6.69246 206.774L6.84164 207.147L6.69246 207.52L6.84164 207.893L6.69246 208.266L6.84164 208.639L6.69246 209.012L6.84164 209.385L6.69246 209.758L6.84164 210.131L6.69246 210.504L6.84164 210.877L6.69246 211.25L6.84164 211.624L6.69246 211.997H5.27482L5.12564 212.37L5.27482 212.743L5.12564 213.116H3.70818L3.55901 213.489L3.70818 213.862L3.55901 214.235H2.14136L1.99219 214.608L2.14136 214.981L1.99219 215.354L2.14136 215.727H3.55901L3.70818 215.354L3.55901 214.981L3.70818 214.608H5.12564L5.27482 214.235L5.12564 213.862L5.27482 213.489H6.69246L6.84164 213.862L6.69246 214.235L6.84164 214.608L6.69246 214.981L6.84164 215.354L6.69246 215.727H5.27482L5.12564 216.1L5.27482 216.473H6.69246L6.84164 216.1H8.2591L8.40846 216.473ZM6.84164 198.418L6.69246 198.045L6.84164 197.672H8.2591L8.40846 198.045L8.2591 198.418H6.84164ZM6.84164 213.265L6.69246 212.892L6.84164 212.519H8.2591L8.40846 212.892L8.2591 213.265H6.84164Z" fill="#F2D0AC"/>
<path d="M12.9596 209.759L13.1835 209.386L12.9596 209.013L13.1835 208.715L12.9596 208.342H11.6167L11.393 207.969H9.97535L9.82617 208.342L9.97535 208.715L9.82617 209.013L9.97535 209.386L9.82617 209.759L9.97535 210.132H11.393L11.6167 209.759H12.9596Z" fill="#F2D0AC"/>
<path d="M12.9596 206.252L13.1835 205.879L12.9596 205.506L13.1835 205.133L12.9596 204.835H11.6167L11.393 204.462H9.97535L9.82617 204.835L9.97535 205.133L9.82617 205.506L9.97535 205.879L9.82617 206.252L9.97535 206.551H11.393L11.6167 206.252H12.9596Z" fill="#F2D0AC"/>
<path d="M11.6167 202.671H12.9596L13.1835 202.373L12.9596 202L13.1835 201.627L12.9596 201.254H11.6167L11.393 200.955H9.97535L9.82617 201.254L9.97535 201.627L9.82617 202L9.97535 202.373L9.82617 202.671L9.97535 203.044H11.393L11.6167 202.671Z" fill="#F2D0AC"/>
<path d="M2.14183 201.254L1.91797 201.627L2.14183 202L1.91797 202.298L2.14183 202.671H3.48479L3.70864 203.044H5.05161L5.27528 202.671L5.05161 202.298L5.27528 202L5.05161 201.627L5.27528 201.254L5.05161 200.955H3.70864L3.48479 201.254H2.14183Z" fill="#F2D0AC"/>
<path d="M2.14183 204.834L1.91797 205.133L2.14183 205.506L1.91797 205.879L2.14183 206.252H3.48479L3.70864 206.55H5.05161L5.27528 206.252L5.05161 205.879L5.27528 205.506L5.05161 205.133L5.27528 204.834L5.05161 204.461H3.70864L3.48479 204.834H2.14183Z" fill="#F2D0AC"/>
<path d="M3.48479 208.342H2.14183L1.91797 208.715L2.14183 209.013L1.91797 209.386L2.14183 209.759H3.48479L3.70864 210.132H5.05161L5.27528 209.759L5.05161 209.386L5.27528 209.013L5.05161 208.715L5.27528 208.342L5.05161 207.969H3.70864L3.48479 208.342Z" fill="#F2D0AC"/>
<path d="M8.33373 229.38L8.48291 229.156L8.33373 228.783L8.48291 228.41H9.90055L10.0497 228.037L9.90055 227.664L10.0497 227.291H11.4672L11.6164 226.918L11.4672 226.545L11.6164 226.172H13.034L13.1832 225.799L13.034 225.426L13.1832 225.053H14.6006L14.75 224.679L14.6006 224.306L14.75 223.933L14.6006 223.56H13.1832L13.034 223.187L13.1832 222.814H14.6006L14.75 222.441L14.6006 222.068L14.75 221.695L14.6006 221.322H13.1832L13.034 220.949L13.1832 220.576L13.034 220.203H11.6164L11.4672 219.83L11.6164 219.457L11.4672 219.084H10.0497L9.90055 218.711L10.0497 218.338L9.90055 217.965H8.48291L8.33373 217.592L8.48291 217.219L8.33373 216.846H6.91627L6.76691 217.219L6.91627 217.592L6.76691 217.965H5.34945L5.20027 218.338L5.34945 218.711L5.20027 219.084H3.78263L3.63346 219.457L3.78263 219.83L3.63346 220.203H2.216L2.06682 220.576L2.216 220.949L2.06682 221.322H0.649177L0.5 221.695L0.649177 222.068L0.5 222.441L0.649177 222.814H2.06682L2.216 223.187L2.06682 223.56H0.649177L0.5 223.933L0.649177 224.306L0.5 224.679L0.649177 225.053H2.06682L2.216 225.426L2.06682 225.799L2.216 226.172H3.63346L3.78263 226.545L3.63346 226.918L3.78263 227.291H5.20027L5.34945 227.664L5.20027 228.037L5.34945 228.41H6.76691L6.91627 228.783L6.76691 229.156L6.91627 229.529H8.33373V229.38ZM7.51298 219.606H6.84159L6.69241 219.233L6.84159 218.86H8.25905L8.40841 219.233L8.25905 219.606H7.51298ZM5.27477 220.725L5.12559 220.352L5.27477 219.979H6.69241L6.84159 220.352L6.69241 220.725H5.27477ZM8.40841 220.725L8.25905 220.352L8.40841 219.979H9.82587L9.97505 220.352L9.82587 220.725H8.40841ZM3.70814 221.77L3.55896 221.397L3.70814 221.024H5.12559L5.27477 221.397L5.12559 221.77H3.70814ZM6.84159 221.77L6.69241 221.397L6.84159 221.024H8.25905L8.40841 221.397L8.25905 221.77H6.84159ZM9.97505 221.77L9.82587 221.397L9.97505 221.024H11.3927L11.5419 221.397L11.3927 221.77H9.97505ZM12.9593 222.143L13.1085 222.516L12.9593 222.889H11.5419L11.3927 222.516L11.5419 222.143H12.9593ZM2.14132 222.814L1.99214 222.441L2.14132 222.068H3.55896L3.70814 222.441L3.55896 222.814H2.14132ZM5.27477 222.814L5.12559 222.441L5.27477 222.068H6.69241L6.84159 222.441L6.69241 222.814H5.27477ZM8.40841 222.814L8.25905 222.441L8.40841 222.068H9.82587L9.97505 222.441L9.82587 222.814H8.40841ZM3.70814 223.859L3.55896 223.486L3.70814 223.113H5.12559L5.27477 223.486L5.12559 223.859H3.70814ZM8.25905 223.859H6.84159L6.69241 223.486L6.84159 223.113H8.25905L8.40841 223.486L8.25905 223.859ZM9.97505 223.859L9.82587 223.486L9.97505 223.113H11.3927L11.5419 223.486L11.3927 223.859H9.97505ZM12.9593 224.232L13.1085 224.605L12.9593 224.978H11.5419L11.3927 224.605L11.5419 224.232H12.9593ZM2.14132 224.903L1.99214 224.53L2.14132 224.157H3.55896L3.70814 224.53L3.55896 224.903H2.14132ZM5.27477 224.903L5.12559 224.53L5.27477 224.157H6.69241L6.84159 224.53L6.69241 224.903H5.27477ZM8.40841 224.903L8.25905 224.53L8.40841 224.157H9.82587L9.97505 224.53L9.82587 224.903H8.40841ZM3.70814 226.022L3.55896 225.649L3.70814 225.276H5.12559L5.27477 225.649L5.12559 226.022H3.70814ZM6.84159 226.022L6.69241 225.649L6.84159 225.276H8.25905L8.40841 225.649L8.25905 226.022H6.84159ZM9.97505 226.022L9.82587 225.649L9.97505 225.276H11.3927L11.5419 225.649L11.3927 226.022H9.97505ZM5.27477 227.067L5.12559 226.694L5.27477 226.321H6.69241L6.84159 226.694L6.69241 227.067H5.27477ZM8.40841 227.067L8.25905 226.694L8.40841 226.321H9.82587L9.97505 226.694L9.82587 227.067H8.40841ZM8.25905 228.111H6.84159L6.69241 227.738L6.84159 227.365H8.25905L8.40841 227.738L8.25905 228.111Z" fill="#F2D0AC"/>
<path d="M8.40846 252.435H9.82592L9.97509 252.062L9.82592 251.689H8.40846L8.2591 251.316L8.40846 250.943L8.2591 250.57L8.40846 250.197L8.2591 249.824L8.40846 249.451H9.82592L9.97509 249.824L9.82592 250.197L9.97509 250.57H11.3927L11.5419 250.943L11.3927 251.316L11.5419 251.689H12.9594L13.1086 251.316L12.9594 250.943L13.1086 250.57L12.9594 250.197H11.5419L11.3927 249.824L11.5419 249.451L11.3927 249.078H9.97509L9.82592 248.705L9.97509 248.332L9.82592 247.958H8.40846L8.2591 247.585L8.40846 247.212L8.2591 246.839L8.40846 246.466L8.2591 246.093L8.40846 245.72L8.2591 245.347L8.40846 244.974L8.2591 244.601L8.40846 244.228L8.2591 243.855L8.40846 243.482L8.2591 243.109L8.40846 242.736L8.2591 242.363L8.40846 241.99L8.2591 241.617L8.40846 241.244L8.2591 240.871L8.40846 240.498L8.2591 240.125L8.40846 239.752L8.2591 239.379L8.40846 239.006L8.2591 238.633L8.40846 238.26L8.2591 237.886L8.40846 237.513L8.2591 237.14L8.40846 236.767L8.2591 236.394L8.40846 236.021L8.2591 235.648L8.40846 235.275L8.2591 234.902L8.40846 234.529L8.2591 234.156L8.40846 233.783H9.82592L9.97509 233.41L9.82592 233.037L9.97509 232.664H11.3927L11.5419 232.291L11.3927 231.918L11.5419 231.545H12.9594L13.1086 231.172L12.9594 230.799L13.1086 230.426L12.9594 230.053H11.5419L11.3927 230.426L11.5419 230.799L11.3927 231.172H9.97509L9.82592 231.545L9.97509 231.918L9.82592 232.291H8.40846L8.2591 231.918L8.40846 231.545L8.2591 231.172L8.40846 230.799L8.2591 230.426L8.40846 230.053H9.82592L9.97509 229.68L9.82592 229.307H8.40846L8.2591 229.68H6.84164L6.69246 229.307H5.27482L5.12564 229.68L5.27482 230.053H6.69246L6.84164 230.426L6.69246 230.799L6.84164 231.172L6.69246 231.545L6.84164 231.918L6.69246 232.291H5.27482L5.12564 231.918L5.27482 231.545L5.12564 231.172H3.70818L3.55901 230.799L3.70818 230.426L3.55901 230.053H2.14136L1.99219 230.426L2.14136 230.799L1.99219 231.172L2.14136 231.545H3.55901L3.70818 231.918L3.55901 232.291L3.70818 232.664H5.12564L5.27482 233.037L5.12564 233.41L5.27482 233.783H6.69246L6.84164 234.156L6.69246 234.529L6.84164 234.902L6.69246 235.275L6.84164 235.648L6.69246 236.021L6.84164 236.394L6.69246 236.767L6.84164 237.14L6.69246 237.513L6.84164 237.886L6.69246 238.26L6.84164 238.633L6.69246 239.006L6.84164 239.379L6.69246 239.752L6.84164 240.125L6.69246 240.498L6.84164 240.871L6.69246 241.244L6.84164 241.617L6.69246 241.99L6.84164 242.363L6.69246 242.736L6.84164 243.109L6.69246 243.482L6.84164 243.855L6.69246 244.228L6.84164 244.601L6.69246 244.974L6.84164 245.347L6.69246 245.72L6.84164 246.093L6.69246 246.466L6.84164 246.839L6.69246 247.212L6.84164 247.585L6.69246 247.958H5.27482L5.12564 248.332L5.27482 248.705L5.12564 249.078H3.70818L3.55901 249.451L3.70818 249.824L3.55901 250.197H2.14136L1.99219 250.57L2.14136 250.943L1.99219 251.316L2.14136 251.689H3.55901L3.70818 251.316L3.55901 250.943L3.70818 250.57H5.12564L5.27482 250.197L5.12564 249.824L5.27482 249.451H6.69246L6.84164 249.824L6.69246 250.197L6.84164 250.57L6.69246 250.943L6.84164 251.316L6.69246 251.689H5.27482L5.12564 252.062L5.27482 252.435H6.69246L6.84164 252.062H8.2591L8.40846 252.435ZM6.84164 234.455L6.69246 234.082L6.84164 233.708H8.2591L8.40846 234.082L8.2591 234.455H6.84164ZM6.84164 249.301L6.69246 248.928L6.84164 248.555H8.2591L8.40846 248.928L8.2591 249.301H6.84164Z" fill="#F2D0AC"/>
<path d="M12.9596 245.72L13.1835 245.421L12.9596 245.048L13.1835 244.675L12.9596 244.302H11.6167L11.393 244.004H9.97535L9.82617 244.302L9.97535 244.675L9.82617 245.048L9.97535 245.421L9.82617 245.72L9.97535 246.093H11.393L11.6167 245.72H12.9596Z" fill="#F2D0AC"/>
<path d="M12.9596 242.213L13.1835 241.84L12.9596 241.541L13.1835 241.168L12.9596 240.795H11.6167L11.393 240.422H9.97535L9.82617 240.795L9.97535 241.168L9.82617 241.541L9.97535 241.84L9.82617 242.213L9.97535 242.586H11.393L11.6167 242.213H12.9596Z" fill="#F2D0AC"/>
<path d="M11.6167 238.707H12.9596L13.1835 238.334L12.9596 237.961L13.1835 237.663L12.9596 237.29H11.6167L11.393 236.917H9.97535L9.82617 237.29L9.97535 237.663L9.82617 237.961L9.97535 238.334L9.82617 238.707L9.97535 239.006H11.393L11.6167 238.707Z" fill="#F2D0AC"/>
<path d="M2.14183 237.29L1.91797 237.663L2.14183 237.961L1.91797 238.334L2.14183 238.707H3.48479L3.70864 239.006H5.05161L5.27528 238.707L5.05161 238.334L5.27528 237.961L5.05161 237.663L5.27528 237.29L5.05161 236.917H3.70864L3.48479 237.29H2.14183Z" fill="#F2D0AC"/>
<path d="M2.14183 240.795L1.91797 241.168L2.14183 241.541L1.91797 241.84L2.14183 242.213H3.48479L3.70864 242.586H5.05161L5.27528 242.213L5.05161 241.84L5.27528 241.541L5.05161 241.168L5.27528 240.795L5.05161 240.422H3.70864L3.48479 240.795H2.14183Z" fill="#F2D0AC"/>
<path d="M3.48479 244.302H2.14183L1.91797 244.675L2.14183 245.048L1.91797 245.421L2.14183 245.72H3.48479L3.70864 246.093H5.05161L5.27528 245.72L5.05161 245.421L5.27528 245.048L5.05161 244.675L5.27528 244.302L5.05161 244.004H3.70864L3.48479 244.302Z" fill="#F2D0AC"/>
</svg>
