<svg width="14" height="144" viewBox="0 0 14 144" fill="none" xmlns="http://www.w3.org/2000/svg">
<g id="Group">
<path id="Vector" d="M8.15274 49.1729L8.29847 48.9504L8.15274 48.5795L8.29847 48.2085H9.68336L9.82909 47.8376L9.68336 47.4667L9.82909 47.0958H11.2138L11.3595 46.7248L11.2138 46.3539L11.3595 45.983H12.7444L12.8902 45.6121L12.7444 45.2411L12.8902 44.8702H14.2749L14.4208 44.4993L14.2749 44.1283L14.4208 43.7574L14.2749 43.3865H12.8902L12.7444 43.0156L12.8902 42.6447H14.2749L14.4208 42.2737L14.2749 41.9028L14.4208 41.5319L14.2749 41.1609H12.8902L12.7444 40.79L12.8902 40.4191L12.7444 40.0482H11.3595L11.2138 39.6772L11.3595 39.3063L11.2138 38.9354H9.82909L9.68336 38.5645L9.82909 38.1935L9.68336 37.8226H8.29847L8.15274 37.4517L8.29847 37.0808L8.15274 36.7098H6.76803L6.62212 37.0808L6.76803 37.4517L6.62212 37.8226H5.23741L5.09168 38.1935L5.23741 38.5645L5.09168 38.9354H3.70679L3.56106 39.3063L3.70679 39.6772L3.56106 40.0482H2.17635L2.03062 40.4191L2.17635 40.79L2.03062 41.1609H0.645731L0.5 41.5319L0.645731 41.9028L0.5 42.2737L0.645731 42.6447H2.03062L2.17635 43.0156L2.03062 43.3865H0.645731L0.5 43.7574L0.645731 44.1283L0.5 44.4993L0.645731 44.8702H2.03062L2.17635 45.2411L2.03062 45.6121L2.17635 45.983H3.56106L3.70679 46.3539L3.56106 46.7248L3.70679 47.0958H5.09168L5.23741 47.4667L5.09168 47.8376L5.23741 48.2085H6.62212L6.76803 48.5795L6.62212 48.9504L6.76803 49.3213H8.15274V49.1729ZM7.35096 39.4547H6.69508L6.54935 39.0838L6.69508 38.7128H8.07979L8.2257 39.0838L8.07979 39.4547H7.35096ZM5.16446 40.4933L5.01873 40.1224L5.16446 39.7514H6.54935L6.69508 40.1224L6.54935 40.4933H5.16446ZM8.2257 40.4933L8.07979 40.1224L8.2257 39.7514H9.61041L9.75614 40.1224L9.61041 40.4933H8.2257ZM3.63402 41.6061L3.48829 41.2351L3.63402 40.8642H5.01873L5.16446 41.2351L5.01873 41.6061H3.63402ZM6.69508 41.6061L6.54935 41.2351L6.69508 40.8642H8.07979L8.2257 41.2351L8.07979 41.6061H6.69508ZM9.75614 41.6061L9.61041 41.2351L9.75614 40.8642H11.141L11.2868 41.2351L11.141 41.6061H9.75614ZM12.6715 41.9028L12.8172 42.2737L12.6715 42.6447H11.2868L11.141 42.2737L11.2868 41.9028H12.6715ZM2.1034 42.6447L1.95767 42.2737L2.1034 41.9028H3.48829L3.63402 42.2737L3.48829 42.6447H2.1034ZM5.16446 42.6447L5.01873 42.2737L5.16446 41.9028H6.54935L6.69508 42.2737L6.54935 42.6447H5.16446ZM8.2257 42.6447L8.07979 42.2737L8.2257 41.9028H9.61041L9.75614 42.2737L9.61041 42.6447H8.2257ZM3.63402 43.6832L3.48829 43.3123L3.63402 42.9414H5.01873L5.16446 43.3123L5.01873 43.6832H3.63402ZM8.07979 43.6832H6.69508L6.54935 43.3123L6.69508 42.9414H8.07979L8.2257 43.3123L8.07979 43.6832ZM9.75614 43.6832L9.61041 43.3123L9.75614 42.9414H11.141L11.2868 43.3123L11.141 43.6832H9.75614ZM12.6715 44.0542L12.8172 44.4251L12.6715 44.796H11.2868L11.141 44.4251L11.2868 44.0542H12.6715ZM2.1034 44.7218L1.95767 44.3509L2.1034 43.98H3.48829L3.63402 44.3509L3.48829 44.7218H2.1034ZM5.16446 44.7218L5.01873 44.3509L5.16446 43.98H6.54935L6.69508 44.3509L6.54935 44.7218H5.16446ZM8.2257 44.7218L8.07979 44.3509L8.2257 43.98H9.61041L9.75614 44.3509L9.61041 44.7218H8.2257ZM3.63402 45.7604L3.48829 45.3895L3.63402 45.0186H5.01873L5.16446 45.3895L5.01873 45.7604H3.63402ZM6.69508 45.7604L6.54935 45.3895L6.69508 45.0186H8.07979L8.2257 45.3895L8.07979 45.7604H6.69508ZM9.75614 45.7604L9.61041 45.3895L9.75614 45.0186H11.141L11.2868 45.3895L11.141 45.7604H9.75614ZM5.16446 46.8732L5.01873 46.5023L5.16446 46.1314H6.54935L6.69508 46.5023L6.54935 46.8732H5.16446ZM8.2257 46.8732L8.07979 46.5023L8.2257 46.1314H9.61041L9.75614 46.5023L9.61041 46.8732H8.2257ZM8.07979 47.9118H6.69508L6.54935 47.5409L6.69508 47.1699H8.07979L8.2257 47.5409L8.07979 47.9118Z" fill="#F2E9E4"/>
<g id="Group_2">
<path id="Vector_2" d="M8.22458 72.0968H9.60929L9.75502 71.7258L9.60929 71.3549H8.22458L8.07867 70.984L8.22458 70.6131L8.07867 70.2421L8.22458 69.8712L8.07867 69.5003L8.22458 69.1294H9.60929L9.75502 69.5003L9.60929 69.8712L9.75502 70.2421H11.1399L11.2856 70.6131L11.1399 70.984L11.2856 71.3549H12.6703L12.8161 70.984L12.6703 70.6131L12.8161 70.2421L12.6703 69.8712H11.2856L11.1399 69.5003L11.2856 69.1294L11.1399 68.7584H9.75502L9.60929 68.3875L9.75502 68.0166L9.60929 67.6457H8.22458L8.07867 67.2747L8.22458 66.9038L8.07867 66.5329L8.22458 66.1619L8.07867 65.791L8.22458 65.4201L8.07867 65.0492L8.22458 64.6782L8.07867 64.3073L8.22458 63.9364L8.07867 63.5655L8.22458 63.1945L8.07867 62.8236L8.22458 62.4527L8.07867 62.0818L8.22458 61.7108L8.07867 61.3399L8.22458 60.969L8.07867 60.5981L8.22458 60.2271L8.07867 59.8562L8.22458 59.4853L8.07867 59.1144L8.22458 58.7434L8.07867 58.3725L8.22458 58.0016L8.07867 57.6307L8.22458 57.2597L8.07867 56.8888L8.22458 56.5179L8.07867 56.147L8.22458 55.776L8.07867 55.4051L8.22458 55.0342L8.07867 54.6633L8.22458 54.2923L8.07867 53.9214L8.22458 53.5505H9.60929L9.75502 53.1795L9.60929 52.8086L9.75502 52.4377H11.1399L11.2856 52.0668L11.1399 51.6958L11.2856 51.3249H12.6703L12.8161 50.954L12.6703 50.5831L12.8161 50.2121L12.6703 49.8412H11.2856L11.1399 50.2121L11.2856 50.5831L11.1399 50.954H9.75502L9.60929 51.3249L9.75502 51.6958L9.60929 52.0668H8.22458L8.07867 51.6958L8.22458 51.3249L8.07867 50.954L8.22458 50.5831L8.07867 50.2121L8.22458 49.8412H9.60929L9.75502 49.4703L9.60929 49.0994H8.22458L8.07867 49.4703H6.69396L6.54822 49.0994H5.16334L5.0176 49.4703L5.16334 49.8412H6.54822L6.69396 50.2121L6.54822 50.5831L6.69396 50.954L6.54822 51.3249L6.69396 51.6958L6.54822 52.0668H5.16334L5.0176 51.6958L5.16334 51.3249L5.0176 50.954H3.63289L3.48716 50.5831L3.63289 50.2121L3.48716 49.8412H2.10227L1.95654 50.2121L2.10227 50.5831L1.95654 50.954L2.10227 51.3249H3.48716L3.63289 51.6958L3.48716 52.0668L3.63289 52.4377H5.0176L5.16334 52.8086L5.0176 53.1795L5.16334 53.5505H6.54822L6.69396 53.9214L6.54822 54.2923L6.69396 54.6633L6.54822 55.0342L6.69396 55.4051L6.54822 55.776L6.69396 56.147L6.54822 56.5179L6.69396 56.8888L6.54822 57.2597L6.69396 57.6307L6.54822 58.0016L6.69396 58.3725L6.54822 58.7434L6.69396 59.1144L6.54822 59.4853L6.69396 59.8562L6.54822 60.2271L6.69396 60.5981L6.54822 60.969L6.69396 61.3399L6.54822 61.7108L6.69396 62.0818L6.54822 62.4527L6.69396 62.8236L6.54822 63.1945L6.69396 63.5655L6.54822 63.9364L6.69396 64.3073L6.54822 64.6782L6.69396 65.0492L6.54822 65.4201L6.69396 65.791L6.54822 66.1619L6.69396 66.5329L6.54822 66.9038L6.69396 67.2747L6.54822 67.6457H5.16334L5.0176 68.0166L5.16334 68.3875L5.0176 68.7584H3.63289L3.48716 69.1294L3.63289 69.5003L3.48716 69.8712H2.10227L1.95654 70.2421L2.10227 70.6131L1.95654 70.984L2.10227 71.3549H3.48716L3.63289 70.984L3.48716 70.6131L3.63289 70.2421H5.0176L5.16334 69.8712L5.0176 69.5003L5.16334 69.1294H6.54822L6.69396 69.5003L6.54822 69.8712L6.69396 70.2421L6.54822 70.6131L6.69396 70.984L6.54822 71.3549H5.16334L5.0176 71.7258L5.16334 72.0968H6.54822L6.69396 71.7258H8.07867L8.22458 72.0968ZM6.69396 54.2181L6.54822 53.8472L6.69396 53.4763H8.07867L8.22458 53.8472L8.07867 54.2181H6.69396ZM6.69396 68.9068L6.54822 68.5359L6.69396 68.1649H8.07867L8.22458 68.5359L8.07867 68.9068H6.69396Z" fill="#F2E9E4"/>
<g id="Group_3">
<path id="Vector_3" d="M12.673 65.4191L12.8917 65.0482L12.673 64.7514L12.8917 64.3805L12.673 64.0096H11.3611L11.1426 63.6387H9.75767L9.61194 64.0096L9.75767 64.3805L9.61194 64.7514L9.75767 65.0482L9.61194 65.4191L9.75767 65.79H11.1426L11.3611 65.4191H12.673Z" fill="#F2E9E4"/>
<path id="Vector_4" d="M12.673 61.9325L12.8917 61.5616L12.673 61.1907L12.8917 60.894L12.673 60.523H11.3611L11.1426 60.1521H9.75767L9.61194 60.523L9.75767 60.894L9.61194 61.1907L9.75767 61.5616L9.61194 61.9325L9.75767 62.2293H11.1426L11.3611 61.9325H12.673Z" fill="#F2E9E4"/>
<path id="Vector_5" d="M11.3613 58.3711H12.6732L12.8919 58.0743L12.6732 57.7034L12.8919 57.3325L12.6732 57.0357H11.3613L11.1428 56.6648H9.75791L9.61218 57.0357L9.75791 57.3325L9.61218 57.7034L9.75791 58.0743L9.61218 58.3711L9.75791 58.742H11.1428L11.3613 58.3711Z" fill="#F2E9E4"/>
</g>
<g id="Group_4">
<path id="Vector_6" d="M2.10357 57.0357L1.88489 57.3325L2.10357 57.7034L1.88489 58.0743L2.10357 58.3711H3.41551L3.63419 58.742H4.94613L5.16463 58.3711L4.94613 58.0743L5.16463 57.7034L4.94613 57.3325L5.16463 57.0357L4.94613 56.6648H3.63419L3.41551 57.0357H2.10357Z" fill="#F2E9E4"/>
<path id="Vector_7" d="M2.10357 60.522L1.88489 60.893L2.10357 61.1897L1.88489 61.5606L2.10357 61.9316H3.41551L3.63419 62.2283H4.94613L5.16463 61.9316L4.94613 61.5606L5.16463 61.1897L4.94613 60.893L5.16463 60.522L4.94613 60.1511H3.63419L3.41551 60.522H2.10357Z" fill="#F2E9E4"/>
<path id="Vector_8" d="M3.41551 64.0096H2.10357L1.88489 64.3805L2.10357 64.7514L1.88489 65.0482L2.10357 65.4191H3.41551L3.63419 65.79H4.94613L5.16463 65.4191L4.94613 65.0482L5.16463 64.7514L4.94613 64.3805L5.16463 64.0096L4.94613 63.6387H3.63419L3.41551 64.0096Z" fill="#F2E9E4"/>
</g>
</g>
<path id="Vector_9" d="M8.15274 84.9309L8.29847 84.7083L8.15274 84.3374L8.29847 83.9665H9.68336L9.82909 83.5955L9.68336 83.2246L9.82909 82.8537H11.2138L11.3595 82.4828L11.2138 82.1118L11.3595 81.7409H12.7444L12.8902 81.37L12.7444 80.9991L12.8902 80.6281H14.2749L14.4208 80.2572L14.2749 79.8863L14.4208 79.5154L14.2749 79.1444H12.8902L12.7444 78.7735L12.8902 78.4026H14.2749L14.4208 78.0317L14.2749 77.6607L14.4208 77.2898L14.2749 76.9189H12.8902L12.7444 76.548L12.8902 76.177L12.7444 75.8061H11.3595L11.2138 75.4352L11.3595 75.0643L11.2138 74.6933H9.82909L9.68336 74.3224L9.82909 73.9515L9.68336 73.5806H8.29847L8.15274 73.2096L8.29847 72.8387L8.15274 72.4678H6.76803L6.62212 72.8387L6.76803 73.2096L6.62212 73.5806H5.23741L5.09168 73.9515L5.23741 74.3224L5.09168 74.6933H3.70679L3.56106 75.0643L3.70679 75.4352L3.56106 75.8061H2.17635L2.03062 76.177L2.17635 76.548L2.03062 76.9189H0.645731L0.5 77.2898L0.645731 77.6607L0.5 78.0317L0.645731 78.4026H2.03062L2.17635 78.7735L2.03062 79.1444H0.645731L0.5 79.5154L0.645731 79.8863L0.5 80.2572L0.645731 80.6281H2.03062L2.17635 80.9991L2.03062 81.37L2.17635 81.7409H3.56106L3.70679 82.1118L3.56106 82.4828L3.70679 82.8537H5.09168L5.23741 83.2246L5.09168 83.5955L5.23741 83.9665H6.62212L6.76803 84.3374L6.62212 84.7083L6.76803 85.0793H8.15274V84.9309ZM7.35096 75.2126H6.69508L6.54935 74.8417L6.69508 74.4708H8.07979L8.2257 74.8417L8.07979 75.2126H7.35096ZM5.16446 76.3254L5.01873 75.9545L5.16446 75.5835H6.54935L6.69508 75.9545L6.54935 76.3254H5.16446ZM8.2257 76.3254L8.07979 75.9545L8.2257 75.5835H9.61041L9.75614 75.9545L9.61041 76.3254H8.2257ZM3.63402 77.364L3.48829 76.9931L3.63402 76.6221H5.01873L5.16446 76.9931L5.01873 77.364H3.63402ZM6.69508 77.364L6.54935 76.9931L6.69508 76.6221H8.07979L8.2257 76.9931L8.07979 77.364H6.69508ZM9.75614 77.364L9.61041 76.9931L9.75614 76.6221H11.141L11.2868 76.9931L11.141 77.364H9.75614ZM12.6715 77.7349L12.8172 78.1058L12.6715 78.4768H11.2868L11.141 78.1058L11.2868 77.7349H12.6715ZM2.1034 78.4026L1.95767 78.0317L2.1034 77.6607H3.48829L3.63402 78.0317L3.48829 78.4026H2.1034ZM5.16446 78.4026L5.01873 78.0317L5.16446 77.6607H6.54935L6.69508 78.0317L6.54935 78.4026H5.16446ZM8.2257 78.4026L8.07979 78.0317L8.2257 77.6607H9.61041L9.75614 78.0317L9.61041 78.4026H8.2257ZM3.63402 79.4412L3.48829 79.0702L3.63402 78.6993H5.01873L5.16446 79.0702L5.01873 79.4412H3.63402ZM8.07979 79.4412H6.69508L6.54935 79.0702L6.69508 78.6993H8.07979L8.2257 79.0702L8.07979 79.4412ZM9.75614 79.4412L9.61041 79.0702L9.75614 78.6993H11.141L11.2868 79.0702L11.141 79.4412H9.75614ZM12.6715 79.8121L12.8172 80.183L12.6715 80.554H11.2868L11.141 80.183L11.2868 79.8121H12.6715ZM2.1034 80.4798L1.95767 80.1088L2.1034 79.7379H3.48829L3.63402 80.1088L3.48829 80.4798H2.1034ZM5.16446 80.4798L5.01873 80.1088L5.16446 79.7379H6.54935L6.69508 80.1088L6.54935 80.4798H5.16446ZM8.2257 80.4798L8.07979 80.1088L8.2257 79.7379H9.61041L9.75614 80.1088L9.61041 80.4798H8.2257ZM3.63402 81.5925L3.48829 81.2216L3.63402 80.8507H5.01873L5.16446 81.2216L5.01873 81.5925H3.63402ZM6.69508 81.5925L6.54935 81.2216L6.69508 80.8507H8.07979L8.2257 81.2216L8.07979 81.5925H6.69508ZM9.75614 81.5925L9.61041 81.2216L9.75614 80.8507H11.141L11.2868 81.2216L11.141 81.5925H9.75614ZM5.16446 82.6311L5.01873 82.2602L5.16446 81.8893H6.54935L6.69508 82.2602L6.54935 82.6311H5.16446ZM8.2257 82.6311L8.07979 82.2602L8.2257 81.8893H9.61041L9.75614 82.2602L9.61041 82.6311H8.2257ZM8.07979 83.6697H6.69508L6.54935 83.2988L6.69508 82.9279H8.07979L8.2257 83.2988L8.07979 83.6697Z" fill="#F2E9E4"/>
<g id="Group_5">
<path id="Vector_10" d="M8.22445 107.855H9.60916L9.75489 107.484L9.60916 107.113H8.22445L8.07854 106.742L8.22445 106.371L8.07854 106L8.22445 105.629L8.07854 105.258L8.22445 104.887H9.60916L9.75489 105.258L9.60916 105.629L9.75489 106H11.1398L11.2855 106.371L11.1398 106.742L11.2855 107.113H12.6702L12.816 106.742L12.6702 106.371L12.816 106L12.6702 105.629H11.2855L11.1398 105.258L11.2855 104.887L11.1398 104.516H9.75489L9.60916 104.146L9.75489 103.775L9.60916 103.404H8.22445L8.07854 103.033L8.22445 102.662L8.07854 102.291L8.22445 101.92L8.07854 101.549L8.22445 101.178L8.07854 100.807L8.22445 100.436L8.07854 100.065L8.22445 99.6945L8.07854 99.3235L8.22445 98.9526L8.07854 98.5817L8.22445 98.2107L8.07854 97.8398L8.22445 97.4689L8.07854 97.098L8.22445 96.727L8.07854 96.3561L8.22445 95.9852L8.07854 95.6143L8.22445 95.2433L8.07854 94.8724L8.22445 94.5015L8.07854 94.1306L8.22445 93.7596L8.07854 93.3887L8.22445 93.0178L8.07854 92.6469L8.22445 92.2759L8.07854 91.905L8.22445 91.5341L8.07854 91.1632L8.22445 90.7922L8.07854 90.4213L8.22445 90.0504L8.07854 89.6795L8.22445 89.3085H9.60916L9.75489 88.9376L9.60916 88.5667L9.75489 88.1958H11.1398L11.2855 87.8248L11.1398 87.4539L11.2855 87.083H12.6702L12.816 86.7121L12.6702 86.3411L12.816 85.9702L12.6702 85.5993H11.2855L11.1398 85.9702L11.2855 86.3411L11.1398 86.7121H9.75489L9.60916 87.083L9.75489 87.4539L9.60916 87.8248H8.22445L8.07854 87.4539L8.22445 87.083L8.07854 86.7121L8.22445 86.3411L8.07854 85.9702L8.22445 85.5993H9.60916L9.75489 85.2283L9.60916 84.8574H8.22445L8.07854 85.2283H6.69383L6.5481 84.8574H5.16321L5.01748 85.2283L5.16321 85.5993H6.5481L6.69383 85.9702L6.5481 86.3411L6.69383 86.7121L6.5481 87.083L6.69383 87.4539L6.5481 87.8248H5.16321L5.01748 87.4539L5.16321 87.083L5.01748 86.7121H3.63277L3.48704 86.3411L3.63277 85.9702L3.48704 85.5993H2.10215L1.95642 85.9702L2.10215 86.3411L1.95642 86.7121L2.10215 87.083H3.48704L3.63277 87.4539L3.48704 87.8248L3.63277 88.1958H5.01748L5.16321 88.5667L5.01748 88.9376L5.16321 89.3085H6.5481L6.69383 89.6795L6.5481 90.0504L6.69383 90.4213L6.5481 90.7922L6.69383 91.1632L6.5481 91.5341L6.69383 91.905L6.5481 92.2759L6.69383 92.6469L6.5481 93.0178L6.69383 93.3887L6.5481 93.7596L6.69383 94.1306L6.5481 94.5015L6.69383 94.8724L6.5481 95.2433L6.69383 95.6143L6.5481 95.9852L6.69383 96.3561L6.5481 96.727L6.69383 97.098L6.5481 97.4689L6.69383 97.8398L6.5481 98.2107L6.69383 98.5817L6.5481 98.9526L6.69383 99.3235L6.5481 99.6945L6.69383 100.065L6.5481 100.436L6.69383 100.807L6.5481 101.178L6.69383 101.549L6.5481 101.92L6.69383 102.291L6.5481 102.662L6.69383 103.033L6.5481 103.404H5.16321L5.01748 103.775L5.16321 104.146L5.01748 104.516H3.63277L3.48704 104.887L3.63277 105.258L3.48704 105.629H2.10215L1.95642 106L2.10215 106.371L1.95642 106.742L2.10215 107.113H3.48704L3.63277 106.742L3.48704 106.371L3.63277 106H5.01748L5.16321 105.629L5.01748 105.258L5.16321 104.887H6.5481L6.69383 105.258L6.5481 105.629L6.69383 106L6.5481 106.371L6.69383 106.742L6.5481 107.113H5.16321L5.01748 107.484L5.16321 107.855H6.5481L6.69383 107.484H8.07854L8.22445 107.855ZM6.69383 89.9762L6.5481 89.6053L6.69383 89.2343H8.07854L8.22445 89.6053L8.07854 89.9762H6.69383ZM6.69383 104.739L6.5481 104.368L6.69383 103.997H8.07854L8.22445 104.368L8.07854 104.739H6.69383Z" fill="#F2E9E4"/>
<g id="Group_6">
<path id="Vector_11" d="M12.6729 101.177L12.8916 100.88L12.6729 100.509L12.8916 100.138L12.6729 99.7671H11.3609L11.1424 99.4703H9.75755L9.61182 99.7671L9.75755 100.138L9.61182 100.509L9.75755 100.88L9.61182 101.177L9.75755 101.548H11.1424L11.3609 101.177H12.6729Z" fill="#F2E9E4"/>
<path id="Vector_12" d="M12.6729 97.6907L12.8916 97.3198L12.6729 97.0231L12.8916 96.6521L12.6729 96.2812H11.3609L11.1424 95.9103H9.75755L9.61182 96.2812L9.75755 96.6521L9.61182 97.0231L9.75755 97.3198L9.61182 97.6907L9.75755 98.0617H11.1424L11.3609 97.6907H12.6729Z" fill="#F2E9E4"/>
<path id="Vector_13" d="M11.3612 94.2043H12.6731L12.8918 93.8333L12.6731 93.4624L12.8918 93.1657L12.6731 92.7948H11.3612L11.1427 92.4238H9.75779L9.61206 92.7948L9.75779 93.1657L9.61206 93.4624L9.75779 93.8333L9.61206 94.2043L9.75779 94.501H11.1427L11.3612 94.2043Z" fill="#F2E9E4"/>
</g>
<g id="Group_7">
<path id="Vector_14" d="M2.10345 92.7948L1.88477 93.1657L2.10345 93.4624L1.88477 93.8333L2.10345 94.2043H3.41539L3.63407 94.501H4.94601L5.16451 94.2043L4.94601 93.8333L5.16451 93.4624L4.94601 93.1657L5.16451 92.7948L4.94601 92.4238H3.63407L3.41539 92.7948H2.10345Z" fill="#F2E9E4"/>
<path id="Vector_15" d="M2.10345 96.2812L1.88477 96.6521L2.10345 97.0231L1.88477 97.3198L2.10345 97.6907H3.41539L3.63407 98.0617H4.94601L5.16451 97.6907L4.94601 97.3198L5.16451 97.0231L4.94601 96.6521L5.16451 96.2812L4.94601 95.9103H3.63407L3.41539 96.2812H2.10345Z" fill="#F2E9E4"/>
<path id="Vector_16" d="M3.41539 99.768H2.10345L1.88477 100.139L2.10345 100.51L1.88477 100.881L2.10345 101.178H3.41539L3.63407 101.549H4.94601L5.16451 101.178L4.94601 100.881L5.16451 100.51L4.94601 100.139L5.16451 99.768L4.94601 99.4713H3.63407L3.41539 99.768Z" fill="#F2E9E4"/>
</g>
</g>
<path id="Vector_17" d="M8.15274 13.3432L8.29847 13.1207L8.15274 12.7498L8.29847 12.3788H9.68336L9.82909 12.0079L9.68336 11.637L9.82909 11.266H11.2138L11.3595 10.8951L11.2138 10.5242L11.3595 10.1533H12.7444L12.8902 9.78235L12.7444 9.41142L12.8902 9.04049H14.2749L14.4208 8.66957L14.2749 8.29864L14.4208 7.92772L14.2749 7.55679H12.8902L12.7444 7.18587L12.8902 6.81494H14.2749L14.4208 6.44401L14.2749 6.07309L14.4208 5.70216L14.2749 5.33124H12.8902L12.7444 4.96031L12.8902 4.58938L12.7444 4.21846H11.3595L11.2138 3.84753L11.3595 3.47661L11.2138 3.10568H9.82909L9.68336 2.73476L9.82909 2.36383L9.68336 1.9929H8.29847L8.15274 1.62198L8.29847 1.25105L8.15274 0.880127H6.76803L6.62212 1.25105L6.76803 1.62198L6.62212 1.9929H5.23741L5.09168 2.36383L5.23741 2.73476L5.09168 3.10568H3.70679L3.56106 3.47661L3.70679 3.84753L3.56106 4.21846H2.17635L2.03062 4.58938L2.17635 4.96031L2.03062 5.33124H0.645731L0.5 5.70216L0.645731 6.07309L0.5 6.44401L0.645731 6.81494H2.03062L2.17635 7.18587L2.03062 7.55679H0.645731L0.5 7.92772L0.645731 8.29864L0.5 8.66957L0.645731 9.04049H2.03062L2.17635 9.41142L2.03062 9.78235L2.17635 10.1533H3.56106L3.70679 10.5242L3.56106 10.8951L3.70679 11.266H5.09168L5.23741 11.637L5.09168 12.0079L5.23741 12.3788H6.62212L6.76803 12.7498L6.62212 13.1207L6.76803 13.4916H8.15274V13.3432ZM7.35096 3.62498H6.69508L6.54935 3.25406L6.69508 2.88313H8.07979L8.2257 3.25406L8.07979 3.62498H7.35096ZM5.16446 4.73776L5.01873 4.36683L5.16446 3.99591H6.54935L6.69508 4.36683L6.54935 4.73776H5.16446ZM8.2257 4.73776L8.07979 4.36683L8.2257 3.99591H9.61041L9.75614 4.36683L9.61041 4.73776H8.2257ZM3.63402 5.77635L3.48829 5.40542L3.63402 5.03449H5.01873L5.16446 5.40542L5.01873 5.77635H3.63402ZM6.69508 5.77635L6.54935 5.40542L6.69508 5.03449H8.07979L8.2257 5.40542L8.07979 5.77635H6.69508ZM9.75614 5.77635L9.61041 5.40542L9.75614 5.03449H11.141L11.2868 5.40542L11.141 5.77635H9.75614ZM12.6715 6.14727L12.8172 6.5182L12.6715 6.88912H11.2868L11.141 6.5182L11.2868 6.14727H12.6715ZM2.1034 6.81494L1.95767 6.44401L2.1034 6.07309H3.48829L3.63402 6.44401L3.48829 6.81494H2.1034ZM5.16446 6.81494L5.01873 6.44401L5.16446 6.07309H6.54935L6.69508 6.44401L6.54935 6.81494H5.16446ZM8.2257 6.81494L8.07979 6.44401L8.2257 6.07309H9.61041L9.75614 6.44401L9.61041 6.81494H8.2257ZM3.63402 7.85353L3.48829 7.48261L3.63402 7.11168H5.01873L5.16446 7.48261L5.01873 7.85353H3.63402ZM8.07979 7.85353H6.69508L6.54935 7.48261L6.69508 7.11168H8.07979L8.2257 7.48261L8.07979 7.85353ZM9.75614 7.85353L9.61041 7.48261L9.75614 7.11168H11.141L11.2868 7.48261L11.141 7.85353H9.75614ZM12.6715 8.22446L12.8172 8.59538L12.6715 8.96631H11.2868L11.141 8.59538L11.2868 8.22446H12.6715ZM2.1034 8.89213L1.95767 8.5212L2.1034 8.15027H3.48829L3.63402 8.5212L3.48829 8.89213H2.1034ZM5.16446 8.89213L5.01873 8.5212L5.16446 8.15027H6.54935L6.69508 8.5212L6.54935 8.89213H5.16446ZM8.2257 8.89213L8.07979 8.5212L8.2257 8.15027H9.61041L9.75614 8.5212L9.61041 8.89213H8.2257ZM3.63402 10.0049L3.48829 9.63398L3.63402 9.26305H5.01873L5.16446 9.63398L5.01873 10.0049H3.63402ZM6.69508 10.0049L6.54935 9.63398L6.69508 9.26305H8.07979L8.2257 9.63398L8.07979 10.0049H6.69508ZM9.75614 10.0049L9.61041 9.63398L9.75614 9.26305H11.141L11.2868 9.63398L11.141 10.0049H9.75614ZM5.16446 11.0435L5.01873 10.6726L5.16446 10.3016H6.54935L6.69508 10.6726L6.54935 11.0435H5.16446ZM8.2257 11.0435L8.07979 10.6726L8.2257 10.3016H9.61041L9.75614 10.6726L9.61041 11.0435H8.2257ZM8.07979 12.0821H6.69508L6.54935 11.7112L6.69508 11.3402H8.07979L8.2257 11.7112L8.07979 12.0821Z" fill="#F2E9E4"/>
<g id="Group_8">
<path id="Vector_18" d="M8.22458 36.2657H9.60929L9.75502 35.8948L9.60929 35.5239H8.22458L8.07867 35.1529L8.22458 34.782L8.07867 34.4111L8.22458 34.0402L8.07867 33.6692L8.22458 33.2983H9.60929L9.75502 33.6692L9.60929 34.0402L9.75502 34.4111H11.1399L11.2856 34.782L11.1399 35.1529L11.2856 35.5239H12.6703L12.8161 35.1529L12.6703 34.782L12.8161 34.4111L12.6703 34.0402H11.2856L11.1399 33.6692L11.2856 33.2983L11.1399 32.9274H9.75502L9.60929 32.5564L9.75502 32.1855L9.60929 31.8146H8.22458L8.07867 31.4437L8.22458 31.0727L8.07867 30.7018L8.22458 30.3309L8.07867 29.96L8.22458 29.589L8.07867 29.2181L8.22458 28.8472L8.07867 28.4763L8.22458 28.1053L8.07867 27.7344L8.22458 27.3635L8.07867 26.9926L8.22458 26.6216L8.07867 26.2507L8.22458 25.8798L8.07867 25.5089L8.22458 25.1379L8.07867 24.767L8.22458 24.3961L8.07867 24.0252L8.22458 23.6542L8.07867 23.2833L8.22458 22.9124L8.07867 22.5415L8.22458 22.1705L8.07867 21.7996L8.22458 21.4287L8.07867 21.0578L8.22458 20.6868L8.07867 20.3159L8.22458 19.945L8.07867 19.574L8.22458 19.2031L8.07867 18.8322L8.22458 18.4613L8.07867 18.0903L8.22458 17.7194H9.60929L9.75502 17.3485L9.60929 16.9776L9.75502 16.6066H11.1399L11.2856 16.2357L11.1399 15.8648L11.2856 15.4939H12.6703L12.8161 15.1229L12.6703 14.752L12.8161 14.3811L12.6703 14.0102H11.2856L11.1399 14.3811L11.2856 14.752L11.1399 15.1229H9.75502L9.60929 15.4939L9.75502 15.8648L9.60929 16.2357H8.22458L8.07867 15.8648L8.22458 15.4939L8.07867 15.1229L8.22458 14.752L8.07867 14.3811L8.22458 14.0102H9.60929L9.75502 13.6392L9.60929 13.2683H8.22458L8.07867 13.6392H6.69396L6.54822 13.2683H5.16334L5.0176 13.6392L5.16334 14.0102H6.54822L6.69396 14.3811L6.54822 14.752L6.69396 15.1229L6.54822 15.4939L6.69396 15.8648L6.54822 16.2357H5.16334L5.0176 15.8648L5.16334 15.4939L5.0176 15.1229H3.63289L3.48716 14.752L3.63289 14.3811L3.48716 14.0102H2.10227L1.95654 14.3811L2.10227 14.752L1.95654 15.1229L2.10227 15.4939H3.48716L3.63289 15.8648L3.48716 16.2357L3.63289 16.6066H5.0176L5.16334 16.9776L5.0176 17.3485L5.16334 17.7194H6.54822L6.69396 18.0903L6.54822 18.4613L6.69396 18.8322L6.54822 19.2031L6.69396 19.574L6.54822 19.945L6.69396 20.3159L6.54822 20.6868L6.69396 21.0578L6.54822 21.4287L6.69396 21.7996L6.54822 22.1705L6.69396 22.5415L6.54822 22.9124L6.69396 23.2833L6.54822 23.6542L6.69396 24.0252L6.54822 24.3961L6.69396 24.767L6.54822 25.1379L6.69396 25.5089L6.54822 25.8798L6.69396 26.2507L6.54822 26.6216L6.69396 26.9926L6.54822 27.3635L6.69396 27.7344L6.54822 28.1053L6.69396 28.4763L6.54822 28.8472L6.69396 29.2181L6.54822 29.589L6.69396 29.96L6.54822 30.3309L6.69396 30.7018L6.54822 31.0727L6.69396 31.4437L6.54822 31.8146H5.16334L5.0176 32.1855L5.16334 32.5564L5.0176 32.9274H3.63289L3.48716 33.2983L3.63289 33.6692L3.48716 34.0402H2.10227L1.95654 34.4111L2.10227 34.782L1.95654 35.1529L2.10227 35.5239H3.48716L3.63289 35.1529L3.48716 34.782L3.63289 34.4111H5.0176L5.16334 34.0402L5.0176 33.6692L5.16334 33.2983H6.54822L6.69396 33.6692L6.54822 34.0402L6.69396 34.4111L6.54822 34.782L6.69396 35.1529L6.54822 35.5239H5.16334L5.0176 35.8948L5.16334 36.2657H6.54822L6.69396 35.8948H8.07867L8.22458 36.2657ZM6.69396 18.3871L6.54822 18.0162L6.69396 17.6452H8.07867L8.22458 18.0162L8.07867 18.3871H6.69396ZM6.69396 33.1499L6.54822 32.779L6.69396 32.4081H8.07867L8.22458 32.779L8.07867 33.1499H6.69396Z" fill="#F2E9E4"/>
<g id="Group_9">
<path id="Vector_19" d="M12.672 29.5899L12.8907 29.2932L12.672 28.9223L12.8907 28.5513L12.672 28.1804H11.3601L11.1416 27.8837H9.75669L9.61096 28.1804L9.75669 28.5513L9.61096 28.9223L9.75669 29.2932L9.61096 29.5899L9.75669 29.9609H11.1416L11.3601 29.5899H12.672Z" fill="#F2E9E4"/>
<path id="Vector_20" d="M12.672 26.1041L12.8907 25.7331L12.672 25.4364L12.8907 25.0655L12.672 24.6945H11.3601L11.1416 24.3236H9.75669L9.61096 24.6945L9.75669 25.0655L9.61096 25.4364L9.75669 25.7331L9.61096 26.1041L9.75669 26.475H11.1416L11.3601 26.1041H12.672Z" fill="#F2E9E4"/>
<path id="Vector_21" d="M11.3601 22.6175H12.672L12.8907 22.2466L12.672 21.8756L12.8907 21.5789L12.672 21.208H11.3601L11.1416 20.837H9.75669L9.61096 21.208L9.75669 21.5789L9.61096 21.8756L9.75669 22.2466L9.61096 22.6175L9.75669 22.9142H11.1416L11.3601 22.6175Z" fill="#F2E9E4"/>
</g>
<g id="Group_10">
<path id="Vector_22" d="M2.1026 21.2081L1.88391 21.579L2.1026 21.8758L1.88391 22.2467L2.1026 22.6176H3.41453L3.63322 22.9143H4.94515L5.16366 22.6176L4.94515 22.2467L5.16366 21.8758L4.94515 21.579L5.16366 21.2081L4.94515 20.8372H3.63322L3.41453 21.2081H2.1026Z" fill="#F2E9E4"/>
<path id="Vector_23" d="M2.1026 24.6947L1.88391 25.0656L2.1026 25.4365L1.88391 25.7332L2.1026 26.1042H3.41453L3.63322 26.4751H4.94515L5.16366 26.1042L4.94515 25.7332L5.16366 25.4365L4.94515 25.0656L5.16366 24.6947L4.94515 24.3237H3.63322L3.41453 24.6947H2.1026Z" fill="#F2E9E4"/>
<path id="Vector_24" d="M3.41453 28.1805H2.1026L1.88391 28.5515L2.1026 28.9224L1.88391 29.2933L2.1026 29.59H3.41453L3.63322 29.961H4.94515L5.16366 29.59L4.94515 29.2933L5.16366 28.9224L4.94515 28.5515L5.16366 28.1805L4.94515 27.8838H3.63322L3.41453 28.1805Z" fill="#F2E9E4"/>
</g>
</g>
<g id="Group_11">
<path id="Vector_25" d="M8.15274 120.762L8.29847 120.54L8.15274 120.169L8.29847 119.798H9.68336L9.82909 119.427L9.68336 119.056L9.82909 118.685H11.2138L11.3595 118.314L11.2138 117.943L11.3595 117.572H12.7444L12.8902 117.202L12.7444 116.831L12.8902 116.46H14.2749L14.4208 116.089L14.2749 115.718L14.4208 115.347L14.2749 114.976H12.8902L12.7444 114.605L12.8902 114.234H14.2749L14.4208 113.863L14.2749 113.492L14.4208 113.121L14.2749 112.75H12.8902L12.7444 112.379L12.8902 112.009L12.7444 111.638H11.3595L11.2138 111.267L11.3595 110.896L11.2138 110.525H9.82909L9.68336 110.154L9.82909 109.783L9.68336 109.412H8.29847L8.15274 109.041L8.29847 108.67L8.15274 108.299H6.76803L6.62212 108.67L6.76803 109.041L6.62212 109.412H5.23741L5.09168 109.783L5.23741 110.154L5.09168 110.525H3.70679L3.56106 110.896L3.70679 111.267L3.56106 111.638H2.17635L2.03062 112.009L2.17635 112.379L2.03062 112.75H0.645731L0.5 113.121L0.645731 113.492L0.5 113.863L0.645731 114.234H2.03062L2.17635 114.605L2.03062 114.976H0.645731L0.5 115.347L0.645731 115.718L0.5 116.089L0.645731 116.46H2.03062L2.17635 116.831L2.03062 117.202L2.17635 117.572H3.56106L3.70679 117.943L3.56106 118.314L3.70679 118.685H5.09168L5.23741 119.056L5.09168 119.427L5.23741 119.798H6.62212L6.76803 120.169L6.62212 120.54L6.76803 120.911H8.15274V120.762ZM7.35096 111.044H6.69508L6.54935 110.673L6.69508 110.302H8.07979L8.2257 110.673L8.07979 111.044H7.35096ZM5.16446 112.083L5.01873 111.712L5.16446 111.341H6.54935L6.69508 111.712L6.54935 112.083H5.16446ZM8.2257 112.083L8.07979 111.712L8.2257 111.341H9.61041L9.75614 111.712L9.61041 112.083H8.2257ZM3.63402 113.121L3.48829 112.75L3.63402 112.379H5.01873L5.16446 112.75L5.01873 113.121H3.63402ZM6.69508 113.121L6.54935 112.75L6.69508 112.379H8.07979L8.2257 112.75L8.07979 113.121H6.69508ZM9.75614 113.121L9.61041 112.75L9.75614 112.379H11.141L11.2868 112.75L11.141 113.121H9.75614ZM12.6715 113.492L12.8172 113.863L12.6715 114.234H11.2868L11.141 113.863L11.2868 113.492H12.6715ZM2.1034 114.234L1.95767 113.863L2.1034 113.492H3.48829L3.63402 113.863L3.48829 114.234H2.1034ZM5.16446 114.234L5.01873 113.863L5.16446 113.492H6.54935L6.69508 113.863L6.54935 114.234H5.16446ZM8.2257 114.234L8.07979 113.863L8.2257 113.492H9.61041L9.75614 113.863L9.61041 114.234H8.2257ZM3.63402 115.273L3.48829 114.902L3.63402 114.531H5.01873L5.16446 114.902L5.01873 115.273H3.63402ZM8.07979 115.273H6.69508L6.54935 114.902L6.69508 114.531H8.07979L8.2257 114.902L8.07979 115.273ZM9.75614 115.273L9.61041 114.902L9.75614 114.531H11.141L11.2868 114.902L11.141 115.273H9.75614ZM12.6715 115.569L12.8172 115.94L12.6715 116.311H11.2868L11.141 115.94L11.2868 115.569H12.6715ZM2.1034 116.311L1.95767 115.94L2.1034 115.569H3.48829L3.63402 115.94L3.48829 116.311H2.1034ZM5.16446 116.311L5.01873 115.94L5.16446 115.569H6.54935L6.69508 115.94L6.54935 116.311H5.16446ZM8.2257 116.311L8.07979 115.94L8.2257 115.569H9.61041L9.75614 115.94L9.61041 116.311H8.2257ZM3.63402 117.35L3.48829 116.979L3.63402 116.608H5.01873L5.16446 116.979L5.01873 117.35H3.63402ZM6.69508 117.35L6.54935 116.979L6.69508 116.608H8.07979L8.2257 116.979L8.07979 117.35H6.69508ZM9.75614 117.35L9.61041 116.979L9.75614 116.608H11.141L11.2868 116.979L11.141 117.35H9.75614ZM5.16446 118.389L5.01873 118.018L5.16446 117.647H6.54935L6.69508 118.018L6.54935 118.389H5.16446ZM8.2257 118.389L8.07979 118.018L8.2257 117.647H9.61041L9.75614 118.018L9.61041 118.389H8.2257ZM8.07979 119.427H6.69508L6.54935 119.056L6.69508 118.685H8.07979L8.2257 119.056L8.07979 119.427Z" fill="#F2E9E4"/>
<g id="Group_12">
<path id="Vector_26" d="M8.22458 143.686H9.60929L9.75502 143.315L9.60929 142.944H8.22458L8.07867 142.573L8.22458 142.202L8.07867 141.831L8.22458 141.46L8.07867 141.09L8.22458 140.719H9.60929L9.75502 141.09L9.60929 141.46L9.75502 141.831H11.1399L11.2856 142.202L11.1399 142.573L11.2856 142.944H12.6703L12.8161 142.573L12.6703 142.202L12.8161 141.831L12.6703 141.46H11.2856L11.1399 141.09L11.2856 140.719L11.1399 140.348H9.75502L9.60929 139.977L9.75502 139.606L9.60929 139.235H8.22458L8.07867 138.864L8.22458 138.493L8.07867 138.122L8.22458 137.751L8.07867 137.38L8.22458 137.009L8.07867 136.638L8.22458 136.267L8.07867 135.897L8.22458 135.526L8.07867 135.155L8.22458 134.784L8.07867 134.413L8.22458 134.042L8.07867 133.671L8.22458 133.3L8.07867 132.929L8.22458 132.558L8.07867 132.187L8.22458 131.816L8.07867 131.445L8.22458 131.075L8.07867 130.704L8.22458 130.333L8.07867 129.962L8.22458 129.591L8.07867 129.22L8.22458 128.849L8.07867 128.478L8.22458 128.107L8.07867 127.736L8.22458 127.365L8.07867 126.994L8.22458 126.623L8.07867 126.252L8.22458 125.882L8.07867 125.511L8.22458 125.14H9.60929L9.75502 124.769L9.60929 124.398L9.75502 124.027H11.1399L11.2856 123.656L11.1399 123.285L11.2856 122.914H12.6703L12.8161 122.543L12.6703 122.172L12.8161 121.801L12.6703 121.43H11.2856L11.1399 121.801L11.2856 122.172L11.1399 122.543H9.75502L9.60929 122.914L9.75502 123.285L9.60929 123.656H8.22458L8.07867 123.285L8.22458 122.914L8.07867 122.543L8.22458 122.172L8.07867 121.801L8.22458 121.43H9.60929L9.75502 121.06L9.60929 120.689H8.22458L8.07867 121.06H6.69396L6.54822 120.689H5.16334L5.0176 121.06L5.16334 121.43H6.54822L6.69396 121.801L6.54822 122.172L6.69396 122.543L6.54822 122.914L6.69396 123.285L6.54822 123.656H5.16334L5.0176 123.285L5.16334 122.914L5.0176 122.543H3.63289L3.48716 122.172L3.63289 121.801L3.48716 121.43H2.10227L1.95654 121.801L2.10227 122.172L1.95654 122.543L2.10227 122.914H3.48716L3.63289 123.285L3.48716 123.656L3.63289 124.027H5.0176L5.16334 124.398L5.0176 124.769L5.16334 125.14H6.54822L6.69396 125.511L6.54822 125.882L6.69396 126.252L6.54822 126.623L6.69396 126.994L6.54822 127.365L6.69396 127.736L6.54822 128.107L6.69396 128.478L6.54822 128.849L6.69396 129.22L6.54822 129.591L6.69396 129.962L6.54822 130.333L6.69396 130.704L6.54822 131.075L6.69396 131.445L6.54822 131.816L6.69396 132.187L6.54822 132.558L6.69396 132.929L6.54822 133.3L6.69396 133.671L6.54822 134.042L6.69396 134.413L6.54822 134.784L6.69396 135.155L6.54822 135.526L6.69396 135.897L6.54822 136.267L6.69396 136.638L6.54822 137.009L6.69396 137.38L6.54822 137.751L6.69396 138.122L6.54822 138.493L6.69396 138.864L6.54822 139.235H5.16334L5.0176 139.606L5.16334 139.977L5.0176 140.348H3.63289L3.48716 140.719L3.63289 141.09L3.48716 141.46H2.10227L1.95654 141.831L2.10227 142.202L1.95654 142.573L2.10227 142.944H3.48716L3.63289 142.573L3.48716 142.202L3.63289 141.831H5.0176L5.16334 141.46L5.0176 141.09L5.16334 140.719H6.54822L6.69396 141.09L6.54822 141.46L6.69396 141.831L6.54822 142.202L6.69396 142.573L6.54822 142.944H5.16334L5.0176 143.315L5.16334 143.686H6.54822L6.69396 143.315H8.07867L8.22458 143.686ZM6.69396 125.733L6.54822 125.362L6.69396 124.991H8.07867L8.22458 125.362L8.07867 125.733H6.69396ZM6.69396 140.496L6.54822 140.125L6.69396 139.754H8.07867L8.22458 140.125L8.07867 140.496H6.69396Z" fill="#F2E9E4"/>
<g id="Group_13">
<path id="Vector_27" d="M12.673 137.01L12.8917 136.639L12.673 136.268L12.8917 135.971L12.673 135.6H11.3611L11.1426 135.229H9.75767L9.61194 135.6L9.75767 135.971L9.61194 136.268L9.75767 136.639L9.61194 137.01L9.75767 137.381H11.1426L11.3611 137.01H12.673Z" fill="#F2E9E4"/>
<path id="Vector_28" d="M12.673 133.522L12.8917 133.151L12.673 132.781L12.8917 132.41L12.673 132.113H11.3611L11.1426 131.742H9.75767L9.61194 132.113L9.75767 132.41L9.61194 132.781L9.75767 133.151L9.61194 133.522L9.75767 133.819H11.1426L11.3611 133.522H12.673Z" fill="#F2E9E4"/>
<path id="Vector_29" d="M11.3611 129.962H12.673L12.8917 129.665L12.673 129.294L12.8917 128.923L12.673 128.552H11.3611L11.1426 128.255H9.75767L9.61194 128.552L9.75767 128.923L9.61194 129.294L9.75767 129.665L9.61194 129.962L9.75767 130.333H11.1426L11.3611 129.962Z" fill="#F2E9E4"/>
</g>
<g id="Group_14">
<path id="Vector_30" d="M2.10357 128.552L1.88489 128.923L2.10357 129.294L1.88489 129.665L2.10357 129.962H3.41551L3.63419 130.333H4.94613L5.16463 129.962L4.94613 129.665L5.16463 129.294L4.94613 128.923L5.16463 128.552L4.94613 128.255H3.63419L3.41551 128.552H2.10357Z" fill="#F2E9E4"/>
<path id="Vector_31" d="M2.10357 132.113L1.88489 132.41L2.10357 132.781L1.88489 133.152L2.10357 133.523H3.41551L3.63419 133.819H4.94613L5.16463 133.523L4.94613 133.152L5.16463 132.781L4.94613 132.41L5.16463 132.113L4.94613 131.742H3.63419L3.41551 132.113H2.10357Z" fill="#F2E9E4"/>
<path id="Vector_32" d="M3.41551 135.601H2.10357L1.88489 135.971L2.10357 136.268L1.88489 136.639L2.10357 137.01H3.41551L3.63419 137.381H4.94613L5.16463 137.01L4.94613 136.639L5.16463 136.268L4.94613 135.971L5.16463 135.601L4.94613 135.23H3.63419L3.41551 135.601Z" fill="#F2E9E4"/>
</g>
</g>
</g>
</g>
</svg>
