<svg width="604" height="301" viewBox="0 0 604 301" fill="none" xmlns="http://www.w3.org/2000/svg">
<path d="M177.741 165.588C178.948 164.731 180.959 164.303 184.578 162.589L185.382 160.017C184.98 157.875 184.578 156.161 183.773 154.447C181.763 150.161 178.144 148.019 174.524 150.161C172.916 151.018 171.307 152.732 170.503 155.304L171.307 157.875C172.514 155.304 173.72 154.018 175.329 153.161C178.144 151.875 180.154 152.732 181.763 156.161C182.165 157.446 182.567 158.732 182.969 160.017C179.35 161.303 177.741 161.731 176.133 162.589C172.916 164.303 172.514 166.445 174.122 170.302C174.927 172.016 177.339 176.301 180.556 181.444L182.567 179.301C179.35 174.587 176.535 170.73 176.133 169.016C175.731 167.302 176.133 166.445 177.741 165.588Z" fill="#B44406"/>
<path d="M197.045 153.159L178.949 127.447L176.938 129.59L195.034 155.301L197.045 153.159Z" fill="#B44406"/>
<path d="M19.7046 127.021L21.7152 130.021L24.5301 127.878L22.5194 124.45L19.7046 127.021Z" fill="#B44406"/>
<path d="M23.324 118.02L20.509 120.163L22.5197 123.162L25.3346 121.02L23.324 118.02Z" fill="#B44406"/>
<path d="M22.9215 181.014C22.1172 178.443 19.3023 176.729 14.4767 176.3H11.6619C9.65122 176.3 8.44483 175.443 7.64057 173.729C6.43418 170.729 5.62992 163.016 5.62992 163.016C6.03205 163.016 6.43413 163.016 6.83626 163.016L15.281 163.444L14.4767 160.445L7.64057 160.016C6.03205 160.016 5.22774 158.302 4.82561 155.731C4.82561 154.445 4.82564 152.731 5.22777 151.446C5.6299 151.446 6.03198 151.446 6.43411 151.446L13.2704 151.874L12.4661 148.875L6.83626 148.446C5.22774 148.446 4.42343 146.732 4.0213 144.161C4.0213 142.018 4.02133 140.304 4.42346 139.019C4.82559 139.019 5.22779 139.019 5.62992 139.019L11.2597 139.447L10.4554 136.447L6.03195 136.019C4.82556 136.019 5.22774 133.876 4.82561 130.877C4.42348 124.877 6.83626 120.592 6.83626 120.592C7.23839 120.592 7.64057 121.021 7.64057 121.021L15.6832 123.592V120.592L9.24907 118.449C8.04268 118.021 7.23844 116.735 7.64057 113.307C8.84696 107.308 20.5087 43.8864 75.1984 16.8895C132.703 -11.8215 189.001 7.03348 209.51 52.0284C230.019 97.0233 215.14 125.734 213.531 129.591C211.923 131.734 210.314 132.162 207.097 130.877L197.044 126.591L196.642 129.591L206.293 133.448C207.499 133.876 208.706 134.305 209.912 134.305C209.108 136.019 208.303 137.733 207.097 139.447C205.891 141.161 204.684 142.875 202.272 144.589L204.282 146.303C205.891 145.018 207.499 143.304 209.108 141.59C210.716 139.447 211.923 136.876 212.727 134.305C213.933 133.876 215.14 133.019 215.944 131.734C215.944 131.734 234.442 100.023 212.727 51.5999C191.012 3.17678 143.561 0.177111 129.888 0.605634C119.031 0.605634 66.3515 3.6053 32.9747 49.0287C32.9747 49.0287 14.8789 70.4549 5.22777 111.593C4.42351 116.307 4.82556 119.306 6.03195 120.592L4.0213 121.449C2.01065 123.592 2.01065 131.734 2.01065 131.734C2.01065 134.733 1.60859 137.733 3.21712 139.019L1.60862 140.304C1.20649 141.59 0.402155 142.875 0.402155 145.018C0.402155 145.446 0 150.589 2.01065 151.446L0.402155 152.731C2.45381e-05 154.017 0 155.302 0 156.588C0.40213 159.588 0 161.302 2.01065 162.587L0.402155 163.873C0.402155 163.873 -0.402032 171.586 1.60862 179.3C1.60862 182.728 0.402228 187.442 1.60862 191.298L4.0213 192.584C5.22769 192.155 6.43418 192.155 7.64057 191.727C8.44483 191.727 17.6938 189.156 18.498 189.156C22.1172 188.299 24.1279 184.87 22.9215 181.014ZM12.4661 188.727C11.2597 185.728 10.8576 182.299 10.8576 178.871H11.2597L14.4767 179.3C17.6938 179.3 19.7044 180.585 20.1065 182.299C20.9108 184.87 19.3024 186.585 15.6832 188.299C14.8789 187.87 13.6725 188.299 12.4661 188.727Z" fill="#B44406"/>
<path d="M54.2876 220.439V216.582H50.6685V220.439H54.2876Z" fill="#B44406"/>
<path d="M37.3984 233.295C36.9963 230.295 37.8006 227.724 39.4091 226.01C41.8219 223.867 44.6367 223.867 46.6474 226.438C47.4516 227.295 48.256 228.581 49.4623 230.723L51.0708 229.009C50.2666 226.867 49.0601 225.153 48.2559 224.296C45.0388 220.867 40.6155 220.439 37.3984 223.867C35.7899 225.581 34.9856 228.152 34.9856 230.723C31.7686 227.724 31.3665 226.438 31.3665 226.438C30.1601 223.867 30.5622 222.581 32.5728 220.01L39.8112 211.44L37.3984 210.154L30.5622 218.296C29.7579 219.153 28.9537 220.439 28.5515 221.296C27.3451 220.01 26.1388 218.296 25.3345 216.582C24.1281 214.868 23.3238 212.725 22.5196 210.154L8.84715 220.867C8.84715 220.867 8.44497 229.866 16.0855 234.152C14.8791 235.437 17.2919 238.437 17.2919 238.437C18.4983 240.151 24.5302 248.293 28.5515 251.721L43.8325 239.294C41.4198 237.151 39.4091 235.437 37.3984 233.295Z" fill="#B44406"/>
<path d="M267.014 221.724L263.797 220.438L262.591 223.866L265.808 225.152L267.014 221.724Z" fill="#B44406"/>
<path d="M274.655 238.436C273.851 236.293 271.84 232.865 269.025 228.58L266.613 230.722C269.428 235.007 271.438 238.436 272.242 239.721C273.047 241.435 272.242 242.721 270.232 243.578L267.015 244.863C264.2 246.149 261.787 246.149 259.374 245.292C259.776 244.863 260.179 244.435 260.581 244.006L260.179 241.007C252.538 240.578 248.115 237.15 244.495 238.864C243.289 239.293 242.083 240.15 240.876 241.864L241.278 244.435C242.887 243.149 243.691 242.292 244.898 241.864C248.115 240.578 250.527 242.721 257.364 243.578C253.342 247.863 250.929 250.863 247.31 252.577L246.506 253.005C235.649 257.291 173.72 274.86 134.714 275.289C133.105 275.289 131.899 275.289 130.29 275.289L125.465 274.86L120.237 274.432H119.835C119.835 274.432 119.835 274.432 119.433 274.432L114.205 274.003C114.205 274.003 114.205 274.003 113.803 274.003C113.803 274.003 113.803 274.003 113.401 274.003L108.173 273.146C108.173 273.146 108.173 273.146 107.771 273.146L102.543 272.289H102.141L96.9136 271.003C96.5114 271.003 96.1094 271.003 96.1094 270.575L91.6859 269.289C91.2838 269.289 90.4796 268.861 90.0774 268.861L85.2518 267.147C84.8497 267.147 84.8496 267.147 84.4475 266.718L79.2199 264.576C72.7858 262.004 69.1666 259.862 69.1666 259.862L69.5687 259.433C73.1879 253.005 73.1879 247.435 69.5687 244.863C66.7538 243.149 61.5261 244.863 59.5155 248.72C59.1134 249.149 49.4622 265.861 49.4622 266.29C48.2558 270.146 51.0708 274.003 55.4942 277.431C53.0814 279.574 49.4622 280.859 42.2238 277.431L41.8218 280.859C49.8644 284.716 54.6899 282.145 57.5048 278.717C93.2944 302.714 137.127 300.143 137.127 300.143C195.033 300.143 248.919 274.432 252.538 272.717L257.766 270.575C261.787 268.861 263.798 265.433 264.602 263.718C267.819 265.433 271.036 264.147 274.655 262.861L277.068 261.576C281.089 259.862 282.296 257.291 281.089 253.434C280.687 253.005 274.655 238.436 274.655 238.436ZM60.7218 250.006C61.9282 247.435 65.1453 246.149 66.7538 247.435C69.1666 248.72 68.7645 253.434 65.9496 258.148V258.576C61.124 255.148 59.5154 252.148 60.7218 250.006Z" fill="#B44406"/>
<path d="M293.153 205.012L289.936 203.726L288.729 207.154L292.349 208.44L293.153 205.012Z" fill="#B44406"/>
<path d="M284.306 206.726L283.1 210.154L286.317 211.439L287.523 208.011L284.306 206.726Z" fill="#B44406"/>
<path d="M594.349 162.588C588.719 157.446 587.512 151.875 583.491 150.161C581.883 149.732 580.676 149.732 579.068 150.161L577.861 152.303C579.872 152.303 581.078 152.303 582.285 152.732C585.502 154.017 586.306 157.017 590.729 162.588C585.1 163.445 581.48 163.873 577.459 162.588L572.634 160.874C571.829 160.445 569.819 160.017 566.199 158.731C552.929 154.875 522.367 147.59 491.001 149.304C461.243 151.018 431.084 159.16 396.5 175.444C361.515 191.727 316.477 221.724 316.477 221.724L315.672 222.153C313.259 223.438 312.053 223.01 310.847 220.438L300.391 197.298L297.978 199.012L308.032 221.296C308.434 222.153 308.836 223.01 309.64 223.867C307.63 226.009 304.815 227.295 304.815 227.295C302.402 228.58 301.196 228.152 299.989 225.581L293.957 212.297L291.544 214.011L292.349 215.725C287.523 220.867 285.513 225.581 287.121 229.437C287.523 229.866 293.957 244.436 294.359 244.436C296.37 247.007 300.391 247.435 304.815 245.293L305.619 243.579C305.619 243.579 314.466 244.007 316.879 235.865C316.879 235.865 317.683 236.294 318.889 235.865C320.096 235.437 322.509 235.008 325.323 232.866C331.355 229.009 383.632 195.584 390.871 191.299C398.511 187.014 439.528 157.446 481.35 152.303C510.705 148.875 532.421 152.303 564.591 160.874C567.004 161.731 569.417 162.159 572.231 163.016L575.851 164.302C581.078 166.016 585.1 164.731 592.338 163.873L594.349 162.588ZM289.534 228.58C288.327 226.009 289.936 222.581 293.555 218.724L297.174 226.866C297.576 227.723 297.979 228.152 298.381 228.58C293.153 231.152 290.338 231.152 289.534 228.58Z" fill="#B44406"/>
<path d="M604 160.016L601.185 160.873C601.587 168.587 600.783 171.586 600.381 173.3C598.772 177.586 593.947 179.3 588.317 178.014L588.719 181.442C595.153 183.156 600.783 180.157 603.196 174.586C603.196 172.015 604 168.587 604 160.016Z" fill="#B44406"/>
</svg>
