<svg width="115" height="66" viewBox="0 0 115 66" fill="none" xmlns="http://www.w3.org/2000/svg">
<g id="Oryx">
<path id="Vector" d="M91.8442 49.1136C92.6164 48.0486 93.3431 47.163 94.5128 46.7482C95.0238 46.5576 95.5689 46.4119 96.0231 46.1204C96.3865 45.885 97.0678 45.7616 97.0337 45.3356C96.977 44.7639 96.2502 44.6742 95.796 44.4052C95.5461 44.2594 95.2055 44.237 95.2622 44.6742C95.4099 45.9074 94.4219 45.9859 93.6384 46.2213C92.5142 46.5576 91.3445 46.7706 90.2317 47.1406C89.539 47.376 88.7327 47.5441 88.551 48.5195C88.4715 48.9342 87.9719 49.4051 87.5063 49.136C86.9953 48.8446 87.5404 48.4858 87.6653 48.1271C88.1195 46.8491 89.3005 46.6024 90.3566 46.3222C90.9811 46.154 91.583 45.9859 92.1167 45.6383C92.4801 45.4029 93.3431 45.5823 93.1274 44.8312C92.9343 44.1361 92.446 43.5644 91.5944 43.4859C91.072 43.4411 90.6291 43.6204 90.1749 43.8558C89.1642 44.3603 88.1876 44.9769 87.0407 45.1226C86.5978 45.1787 86.4275 45.4814 86.2231 45.7616C85.1103 47.2639 83.7703 48.5419 82.3054 49.7078C80.6361 51.0306 79.739 52.9813 78.3877 54.5732C77.8994 55.1449 77.5474 55.2234 76.7752 55.1113C79.0804 52.5553 80.9768 49.8423 83.0889 47.163C82.3962 46.9051 81.9647 47.4657 81.4878 47.645C78.4104 48.7885 75.3898 50.0553 73.3003 52.7683C72.9597 53.2055 72.619 53.2279 71.3926 53.1494C74.1407 51.4791 75.8099 48.867 78.6262 47.6114C79.6027 47.1742 80.5226 46.524 81.3288 45.8177C82.3735 44.8984 81.6241 43.7325 81.272 42.8469C80.7156 41.4568 80.1478 40.1003 80.1365 38.6093C80.1365 37.9254 79.8753 37.7573 79.2394 37.7909C78.4672 37.8358 77.6836 37.7685 76.9001 37.7909C76.3437 37.8133 76.2301 37.3873 76.0484 37.051C75.8781 36.7147 76.0484 36.4793 76.3891 36.2887C78.2741 35.1788 79.1372 33.3627 79.8299 31.4345C80.0797 30.7282 80.4544 30.1453 81.113 29.7417C81.6468 30.2013 81.5673 30.6834 81.238 31.1991C80.9995 31.5802 80.8064 31.995 80.5566 32.365C80.2954 32.7686 79.6936 33.2394 80.2727 33.6094C80.7951 33.9457 81.0563 33.3403 81.2947 32.8582C81.5559 32.3426 81.9988 31.9166 82.3962 31.4906C82.6006 31.2663 83.0208 30.9973 83.0889 31.513C83.2366 32.7461 83.8725 31.939 84.3948 31.8605C84.3381 32.8807 83.6794 33.486 82.8959 33.9233C82.4871 34.1475 82.0669 34.2932 82.4757 34.7865C83.2025 35.6385 83.1571 36.7035 83.3955 37.69C83.5545 38.3514 83.7476 38.7102 84.5992 38.4523C86.2799 37.9479 88.04 37.69 89.7207 37.1968C93.275 36.143 96.3751 36.6586 99.2367 39.1474C100.406 40.1563 101.655 41.1429 103.177 42.0622C101.133 42.3648 100.429 40.5823 98.9642 40.0106C98.5895 40.9299 98.3056 41.9164 97.4766 42.6115C96.852 43.1272 97.329 43.5083 97.7946 43.9007C99.691 45.4814 99.6455 45.515 97.3517 46.4343C95.8187 47.0509 94.0472 47.3311 93.082 48.9342C92.8208 49.3715 92.3779 49.2145 91.8215 49.136L91.8442 49.1136Z" fill="#F2D0AC"/>
<path id="Vector_2" d="M31.819 52.8801C30.479 52.7793 29.5024 51.9609 28.4577 51.2995C27.924 50.9519 27.5833 50.5708 27.4357 51.5685C27.3903 51.9048 27.1177 52.2075 26.9133 52.5102C25.8459 54.1021 25.8346 54.3936 27.3903 55.3913C28.4918 56.1088 28.0943 56.49 27.2199 56.8039C25.8118 57.3195 24.3924 57.8016 23.0638 58.5303C22.5641 58.7993 22.019 58.8778 21.8601 59.6177C21.7692 60.0437 21.2241 60.2455 20.6677 59.9652C21.7124 57.6895 23.9382 57.1626 26.1071 56.4227C25.6642 55.1783 24.0858 55.2568 23.6543 54.0909C23.166 54.5842 23.5634 54.8981 23.7565 55.1111C24.6081 56.1088 24.0517 56.5684 23.1092 56.8375C21.8033 57.2074 20.4747 57.4765 19.1574 57.8689C17.9196 58.2388 17.0339 58.9002 16.4775 60.324C16.2503 58.6872 16.7841 57.8352 18.09 57.4092C19.1233 57.0729 20.2362 56.9832 21.1787 56.4339C21.5307 56.2209 22.337 56.0303 21.7579 55.3801C21.2923 54.8532 21.1901 53.5864 20.0545 54.1245C18.7032 54.7635 17.3632 55.4137 15.921 55.8397C15.251 56.0415 15.0807 56.759 14.6265 57.2074C13.0935 58.6984 11.5718 60.2007 10.0615 61.7141C8.91457 62.8688 8.10832 64.3038 6.85919 65.3688C6.56394 65.6266 6.39361 66.0414 5.49651 65.9965C7.83578 63.2836 10.0047 60.7164 11.9465 57.6559C9.73218 58.62 7.65409 59.3711 5.73498 60.4025C3.83857 61.4226 2.63487 63.463 0.5 64.2141C1.3971 62.4764 3.27079 61.8262 4.48585 60.4809C5.95073 58.8666 8.0856 58.2724 9.74354 56.972C10.5271 56.3554 10.8677 55.8285 10.493 54.8084C9.80031 52.925 8.91457 51.0865 9.02813 48.9789C9.07355 48.1829 8.32407 48.4744 7.8812 48.4407C6.96139 48.3735 5.97344 48.7995 5.17855 47.9587C4.83788 47.5887 4.63347 47.3645 5.21261 47.0618C6.80241 46.2323 7.58595 44.7861 8.25594 43.239C8.61932 42.3982 8.6761 41.2548 10.1183 41.3893C10.2659 42.3198 9.471 42.9251 9.10762 43.7099C8.9827 43.9677 8.64203 44.2816 9.05084 44.5395C9.471 44.7973 9.70947 44.517 9.8798 44.1359C10.2773 43.2727 10.7428 42.4543 11.7648 41.9386C11.6286 43.239 12.3894 43.0148 13.2184 42.7009C13.1957 43.7099 12.503 44.035 11.9465 44.4386C11.3674 44.8534 11.1403 45.2457 11.4582 46.0305C11.7876 46.8376 12.1737 47.6896 12.0942 48.6201C12.026 49.3376 12.537 49.2255 13.0026 49.2703C14.7968 49.4385 16.2844 48.3959 17.9537 48.0596C20.5542 47.5327 23.1773 46.9385 25.6529 48.2726C27.1632 49.0798 28.5486 50.1448 29.8885 51.2098C30.5472 51.7367 31.1717 52.3196 31.819 52.925V52.8801Z" fill="#F2D0AC"/>
<path id="Vector_3" d="M47.5135 44.4948C49.5348 41.9163 51.5221 39.3827 53.5888 36.7482C49.9777 37.959 46.5937 39.3043 44.0841 42.1742C43.8456 42.4432 43.5618 43.1943 43.0848 42.6674C42.6647 42.2078 43.3573 41.9388 43.664 41.6473C45.7875 39.6742 48.0359 37.8805 50.625 36.5016C51.6924 35.9299 52.6917 35.0891 51.9763 33.6317C51.1814 32.0286 50.7499 30.347 50.6477 28.5757C50.625 28.1721 50.466 28.0712 50.0231 28.1385C49.3532 28.2394 48.6491 28.2058 47.9678 28.2506C47.3432 28.2955 47.0252 27.9031 46.8663 27.421C46.6732 26.8493 47.2183 26.7708 47.5703 26.6363C48.4333 26.3112 48.5923 25.4031 49.1374 24.8314C49.9096 24.0242 49.4781 22.3314 51.1474 22.1745C50.8975 21.5915 51.0224 21.1543 51.6356 20.8853C52.2829 22.3314 50.4319 23.0041 50.5455 24.3718C51.2609 24.4951 51.5562 24.0018 51.7151 23.5197C51.9309 22.9032 52.3851 22.5668 52.9075 22.2754C53.0438 22.1969 53.3504 21.8718 53.3731 22.3314C53.4299 23.531 54.2475 22.5556 54.6449 22.7686C54.5768 23.2058 54.3837 23.531 54.1225 23.8561C53.7478 24.3045 52.8507 24.4502 52.9416 25.0668C53.1005 26.2103 53.4639 27.3313 53.8614 28.4188C54.0771 29.0129 54.7017 28.8336 55.19 28.7103C56.6322 28.3403 58.0857 27.9928 59.5279 27.578C62.9346 26.6139 65.9779 27.0735 68.6578 29.5174C69.7139 30.4815 70.9403 31.2551 72.0305 32.208C70.4975 31.995 69.3846 31.0084 68.249 30.1004C67.8175 30.5712 68.0446 31.0981 67.7267 31.5465C66.4321 33.3739 66.4662 33.3963 68.3172 34.8424C68.4534 34.9545 68.5897 35.0779 68.8055 35.2684C66.4775 36.5465 63.7295 36.8716 61.8785 38.9343C62.3668 37.6563 63.1049 36.6474 64.3654 36.4568C65.1603 36.3335 65.5918 35.7057 66.2958 35.5375C66.6819 35.4478 66.6252 35.1339 66.3753 34.9321C65.694 34.3828 65.0013 33.8559 64.3086 33.3178C64.2178 33.4411 64.161 33.486 64.1723 33.5196C64.7969 35.5823 64.7401 35.672 62.4803 36.2774C61.9126 36.4344 61.2993 36.468 60.7656 36.681C59.789 37.0509 58.5853 37.1406 58.2447 38.4523C58.1538 38.7886 57.8018 38.9792 57.4725 38.7886C57.1204 38.5868 57.4157 38.3402 57.5406 38.1159C58.0175 37.2191 58.5286 36.4344 59.7323 36.3335C60.3341 36.2774 60.936 35.9299 61.5037 35.6496C62.0375 35.3918 63.1049 35.5151 62.7074 34.4501C62.2759 33.3066 61.5037 33.0936 60.4022 33.6541C60.1184 33.7999 59.8458 34.0017 59.5506 34.0689C57.1886 34.5398 55.9167 36.4344 54.2475 37.8581C52.1239 39.6742 50.4774 41.8491 48.8081 44.0351C48.5015 44.4387 48.1608 44.6517 47.5476 44.4723L47.5135 44.4948Z" fill="#F2D0AC"/>
<path id="Vector_4" d="M92.7191 24.7524C94.5473 22.3309 96.228 20.1113 98.0676 17.6786C96.1598 18.5081 94.4338 19.1471 92.8213 19.9767C91.1974 20.8063 90.1868 22.4655 88.5061 23.3399C88.4834 23.1717 88.4039 22.9812 88.4493 22.9475C90.5501 21.4005 91.981 19.0238 94.6268 18.127C95.3649 17.8691 96.0122 17.2525 96.6141 16.7032C97.3635 16.0082 96.7163 15.1786 96.4892 14.5732C95.9668 13.2616 95.365 12.0284 95.5353 10.571C95.5921 10.0441 95.399 9.86476 94.8085 9.99929C94.2407 10.1226 93.6162 10.0441 93.0257 10.1114C92.526 10.1674 92.3216 10.0217 92.1626 9.51723C92.0264 9.06881 92.1059 8.83339 92.4692 8.65402C93.7979 7.98138 94.4451 6.80427 94.8312 5.48142C95.1038 4.55094 95.7738 3.9792 96.5346 3.26172C96.6027 4.64062 95.6488 5.53747 95.2287 6.75943C96.1371 6.61369 96.262 5.94105 96.58 5.47021C97.1591 4.6182 98.5673 4.42762 99.0215 5.18994C99.3167 5.69442 98.8398 6.098 98.4991 6.311C97.3636 7.00606 97.2046 7.82443 97.9881 8.86702C98.3969 9.40513 97.9881 10.5038 98.5673 10.6271C99.2827 10.784 100.134 10.3468 100.929 10.1674C102.61 9.78629 104.268 9.24818 105.971 9.0576C107.777 8.85581 109.491 9.28181 110.786 10.7392C111.24 11.2437 111.808 11.636 112.444 11.9275C113.239 12.2863 113.932 12.7795 114.499 13.5194C113.307 13.9118 112.875 12.7795 112.046 12.4993C111.456 12.2975 111.286 12.2975 110.888 12.8132C109.968 14.0015 109.628 15.0328 111.059 16.0418C111.683 16.479 111.342 16.8041 110.888 17.0171C110.354 17.2638 109.775 17.3983 109.23 17.6113C107.902 18.1382 106.459 18.4969 105.619 19.8758C105.733 18.6539 106.459 17.9364 107.47 17.5328C108.242 17.2189 109.48 17.2525 109.662 16.5351C109.798 15.997 108.401 15.784 107.947 14.7077C108.049 16.9387 107.97 16.9499 105.846 17.4543C104.484 17.7794 102.905 17.8355 102.178 19.3826C102.099 19.5507 101.872 19.6404 101.724 19.4835C101.622 19.3714 101.565 19.1247 101.611 18.9902C101.872 18.3512 102.212 17.8019 102.985 17.6113C103.859 17.3983 104.733 17.1292 105.585 16.8265C105.914 16.7032 106.584 16.6135 106.244 16.053C105.937 15.5485 105.778 14.4275 104.926 14.8423C103.371 15.6046 101.542 15.8961 100.259 17.2077C98.1698 19.3601 95.9554 21.4005 94.1158 23.7883C93.8319 24.1583 93.6162 24.6628 92.7077 24.7749L92.7191 24.7524Z" fill="#F2D0AC"/>
<path id="Vector_5" d="M25.619 24.854C26.7319 22.3316 29.0371 20.594 30.2635 18.1164C26.6751 18.7442 24.0747 21.0648 21.1562 23.4303C21.2357 22.354 21.8149 21.928 22.2918 21.7038C23.2911 21.2442 24.0406 20.5155 24.6879 19.7195C25.6985 18.4976 27.2315 18.1837 28.4807 17.3765C29.6162 16.6366 29.6844 15.7174 29.2529 14.7196C28.6851 13.3856 28.1968 12.0515 28.0719 10.6053C28.0264 10.0784 27.7198 10.0448 27.3337 10.056C26.7319 10.056 26.1414 10.0336 25.5509 10.0784C24.8809 10.1345 25.1535 9.48427 24.8582 9.24885C24.6197 9.06948 24.7219 8.85647 24.9718 8.73316C26.9249 7.73541 27.1975 5.53814 28.4012 4.0135C28.5942 3.76686 28.6964 3.45297 29.0939 3.36328C29.6844 4.64129 28.0946 5.34756 28.1854 6.58072C29.1507 6.26682 29.2074 5.23545 29.9228 4.85429C30.0932 4.76461 30.4111 4.17044 30.5133 4.74218C30.6269 5.35877 32.7504 5.02245 31.2515 6.16593C30.0705 7.06278 29.9342 7.91478 30.7177 9.06948C30.854 9.27127 30.8427 9.59637 30.8199 9.85422C30.7177 10.9192 31.172 10.852 32.0237 10.6053C34.2721 9.9439 36.5432 9.32732 38.8825 9.02463C39.5071 8.94616 40.1316 9.02463 40.7562 9.23763C43.2885 10.0672 45.0713 11.9506 47.3993 13.5425C45.7186 13.8228 45.1963 12.4102 44.0039 12.1188C43.561 12.9932 43.2658 14.0694 41.9826 14.686C43.1863 14.9775 43.4475 16.02 44.4354 16.5357C42.346 17.825 39.6093 17.6344 38.2693 19.955C38.4623 18.8339 39.3481 17.8922 40.336 17.4998C41.0514 17.2196 41.9599 17.1635 42.3233 16.4573C42.539 16.0313 41.7555 16.0313 41.4489 15.8183C41.165 15.6165 41.0287 15.1905 40.4723 15.2353C41.3353 17.1523 39.825 17.1187 38.6667 17.4438C37.2359 17.8586 35.5098 17.7577 34.8058 19.5178C34.7717 19.5962 34.5673 19.6523 34.4538 19.6299C34.2039 19.585 34.2607 19.4169 34.3061 19.2263C34.5105 18.3631 35.0556 17.7801 35.8732 17.4886C36.5886 17.2308 37.3608 17.0963 38.0876 16.8833C38.5305 16.7487 39.2799 16.7039 39.0074 16.02C38.7803 15.4371 38.5759 14.4506 37.5198 14.8654C35.9414 15.4931 34.3061 16.0537 33.0002 17.1972C30.3203 19.529 28.1286 22.3092 25.6531 24.8876L25.619 24.854Z" fill="#F2D0AC"/>
<path id="Vector_6" d="M64.8523 3.02686C65.6359 1.5919 66.2491 0.179369 68.0546 1.67038C65.6472 2.61207 66.7601 4.28245 67.1462 5.86314C67.2711 6.36762 67.3619 6.58062 67.9297 6.40125C69.0539 6.05372 70.2009 5.78467 71.3137 5.43714C73.4826 4.74208 75.6516 4.29366 77.6615 5.75104C79.0356 6.74878 80.614 7.49989 81.8632 8.9909C80.7957 8.96848 80.3188 8.26221 79.6601 7.92589C79.2286 7.70168 79.081 7.67926 78.6608 8.21737C77.5139 9.68596 77.9 10.6725 79.4671 11.6254C77.5934 12.7577 75.3563 12.7465 73.9937 14.4056C74.4933 12.7352 76.1058 12.5559 77.2982 11.7823C77.3663 11.3563 76.9461 11.2218 76.719 10.9752C76.4919 10.7285 76.367 10.1568 75.9355 10.381C75.4018 10.6501 76.015 10.9752 76.0604 11.2891C76.1285 11.6814 76.0377 11.8832 75.6516 11.9841C75.0838 12.1523 74.5387 12.3877 73.9596 12.511C72.5856 12.8137 71.1774 12.9931 70.428 14.4953C70.2349 13.6097 70.3825 13.0043 71.2229 12.7352C71.961 12.4998 72.6764 12.2083 73.4145 12.0066C73.9369 11.8608 74.6182 11.872 74.4025 11.0985C74.1867 10.3362 73.6076 9.67475 72.79 10.1792C71.5181 10.964 69.9851 11.2554 68.8949 12.3204C66.8055 14.3384 64.7842 16.4123 63.0922 18.7778C62.9105 19.0356 62.672 19.4504 62.3881 19.215C61.9907 18.8899 62.4222 18.6881 62.6607 18.4078C64.1369 16.7038 65.4542 14.8765 66.7374 12.937C63.5237 13.789 60.8778 15.4594 58.584 17.724C58.7543 16.8271 58.7657 16.8383 60.8892 15.1119C62.0588 14.159 63.2285 13.2173 64.6025 12.5895C65.8403 12.029 66.056 11.1882 65.5564 9.97743C65.1022 8.86758 64.4662 7.78015 64.6706 6.49094C64.7501 6.02009 64.4095 5.84072 63.9893 5.85193C63.5805 5.86314 63.1717 5.93041 62.7629 5.96404C62.1042 6.00888 61.7295 5.53804 61.5138 5.06719C61.2639 4.51787 61.9112 4.41698 62.2064 4.26003C63.1263 3.75555 63.501 2.92597 63.8871 2.04033C64.2278 1.27801 64.4776 0.426003 65.3406 0C65.9992 1.08743 64.4776 1.64796 64.8523 3.01565V3.02686Z" fill="#F2D0AC"/>
</g>
</svg>
