<?xml version="1.0" encoding="utf-8"?>
<!-- Generator: Adobe Illustrator 26.5.0, SVG Export Plug-In . SVG Version: 6.00 Build 0)  -->
<svg version="1.1" id="Layer_1" xmlns="http://www.w3.org/2000/svg" xmlns:xlink="http://www.w3.org/1999/xlink" x="0px" y="0px"
	 viewBox="0 0 369.9 310.4" style="enable-background:new 0 0 369.9 310.4;" xml:space="preserve">
<style type="text/css">
	.st0{fill:#FFFFFF;}
</style>
<path class="st0" d="M105.9,173.8c-0.4-1-3.5-0.7-6.8-1.7c-3.2-1-4.6,1.3-4.6,1.3s-1.5,0-0.7,1.7c-1.3,3.5,2.1,7.3,0,9.1
	c-2.1,2-4.1-2.1-5.7-3.1c-1.5-1-6.5-2.8-9.8-3.2c-1.1-1.7-2.8-1.7-4.9-1.5c-2,0.2-4.8,2.9-7.8,4.5c-3.2,1.6-3.8,4.1-3.8,4.1
	s-2.7,2.2-3.3,3.9c-1.1,3.3,0.5,10,1,12.6c0.5,2.6-1.7,5.5-2,12.3c2.1,7.7,1.3,14.9,1.3,14.9c-0.1,2.3,4.6,1.8,4.6,1.8
	s-0.7-1.5-2.7-2.8c-0.4-6.7-0.2-10.2,1.6-12.1c1.1,2.3,4,12.8,4.5,13.3c0.4,0.5,3.2,1.3,3.4,0.2c0.1-1.3-1.6-1.6-3-7.1
	c-1.5-5.5-0.1-16.6,0.7-19.3c0.9-2.7,2.9-3.1,3.2-6.2c1.2,0.5,6,0,6,0l5.1,1.3c0,0,0.5,10.1,0,13.5c1.3,2.8,0,6.7,0,12.2
	c0,5.6,2.3,4.6,2.3,4.6s-0.6,1.5,1.8,1.5c2.4,0,4.6-0.5,2.4-1.1c-2.1-0.6-2.6-5.4-2.2-11.6c1.7-4.8,0.7-10.4,0.7-12.7
	c0-2.3,2-8.3,2-8.3s0,0,0.7-2.9c4.3,0.4,6.6-0.4,8.8-3c2.2-2.7,1.7-7.9,1.7-9.6c0-1.7,3.4-2.9,5.2-3.5
	C107.6,176.4,107.1,174.4,105.9,173.8z M61.7,214.4c-0.6-1.6-0.1-8.7,1.7-10.6C63.4,210,61.7,214.4,61.7,214.4z"/>
<path class="st0" d="M226.4,120.2c-0.4-1-3.5-0.7-6.8-1.7c-3.2-1-4.6,1.3-4.6,1.3s-1.5,0-0.7,1.7c-1.3,3.5,2.1,7.3,0,9.1
	c-2.1,2-4.1-2.1-5.7-3c-1.6-1-6.5-2.8-9.8-3.2c-1.1-1.7-2.8-1.7-4.9-1.5c-2.1,0.2-4.8,2.9-7.8,4.5c-3.2,1.6-3.8,4.1-3.8,4.1
	s-2.7,2.2-3.3,3.9c-1.1,3.3,0.5,10,1,12.6c0.5,2.6-1.7,5.5-2,12.3c2.1,7.7,1.3,14.9,1.3,14.9c-0.1,2.3,4.6,1.8,4.6,1.8
	s-0.7-1.5-2.7-2.8c-0.4-6.7-0.2-10.2,1.6-12.1c1.1,2.3,4,12.8,4.5,13.3c0.4,0.5,3.2,1.3,3.4,0.2c0.1-1.3-1.6-1.6-3.1-7.1
	c-1.5-5.5-0.1-16.6,0.7-19.3c0.9-2.7,2.9-3,3.2-6.2c1.2,0.5,6,0,6,0l5.1,1.3c0,0,0.5,10.1,0,13.5c1.3,2.8,0,6.7,0,12.2
	c0,5.6,2.3,4.6,2.3,4.6s-0.6,1.5,1.8,1.5c2.4,0,4.6-0.5,2.4-1.1c-2.1-0.6-2.6-5.4-2.2-11.6c1.7-4.8,0.7-10.4,0.7-12.7
	c0-2.3,2-8.3,2-8.3s0,0,0.7-2.9c4.3,0.4,6.6-0.4,8.8-3c2.2-2.6,1.7-7.9,1.7-9.6s3.4-2.9,5.2-3.5
	C228.1,122.9,227.6,120.8,226.4,120.2z M182.2,160.8c-0.6-1.6-0.1-8.7,1.7-10.6C183.8,156.4,182.2,160.8,182.2,160.8z"/>
<path class="st0" d="M133.9,107.6c-0.4-1-3.5-0.7-6.8-1.7c-3.2-1-4.6,1.3-4.6,1.3s-1.5,0-0.7,1.7c-1.3,3.5,2.1,7.3,0,9.1
	c-2.1,1.8-4.1-2.1-5.7-3c-1.5-1-6.5-2.8-9.8-3.2c-1.1-1.7-2.8-1.7-4.9-1.5c-2,0.2-4.8,2.9-7.8,4.5c-3.2,1.6-3.8,4.1-3.8,4.1
	s-2.7,2.2-3.3,3.9c-1.1,3.3,0.5,10,1,12.6c0.5,2.6-1.7,5.5-2,12.3c2.1,7.7,1.3,14.9,1.3,14.9c-0.1,2.3,4.6,1.8,4.6,1.8
	s-0.7-1.5-2.7-2.8c-0.4-6.7-0.2-10.2,1.6-12.1c1.1,2.3,4,12.8,4.5,13.3c0.4,0.5,3.2,1.3,3.4,0.2c0.1-1.3-1.6-1.6-3-7.1
	c-1.5-5.5-0.1-16.6,0.7-19.3c0.9-2.7,2.9-3,3.2-6.2c1.2,0.5,6,0,6,0l5.1,1.3c0,0,0.5,10.1,0,13.5c1.3,2.8,0,6.7,0,12.2
	c0,5.6,2.3,4.6,2.3,4.6s-0.6,1.5,1.8,1.5c2.4,0,4.6-0.5,2.4-1.1c-2.1-0.6-2.6-5.4-2.2-11.6c1.7-4.8,0.7-10.4,0.7-12.7
	c0-2.3,2-8.3,2-8.3s0,0,0.7-2.9c4.3,0.4,6.6-0.4,8.8-3c2.2-2.7,1.7-7.9,1.7-9.6c0-1.7,3.4-2.9,5.2-3.5
	C135.6,110.3,135.2,108.3,133.9,107.6z M89.9,148.3c-0.6-1.6-0.1-8.7,1.7-10.6C91.5,143.9,89.9,148.3,89.9,148.3z"/>
<path class="st0" d="M67.2,144.2c-0.4-1-3.5-0.7-6.8-1.7c-3.2-1-4.6,1.3-4.6,1.3s-1.5,0-0.7,1.7c-1.3,3.5,2.1,7.3,0,9.1
	c-2.1,2-4.1-2.1-5.7-3c-1.6-1-6.5-2.8-9.8-3.2c-1.1-1.7-2.8-1.7-4.9-1.5c-2.1,0.2-4.8,2.9-7.8,4.5c-3.2,1.6-3.8,4.1-3.8,4.1
	s-2.7,2.2-3.3,3.9c-1.1,3.3,0.5,10,1,12.6c0.5,2.6-1.7,5.5-2,12.3c2.1,7.7,1.3,14.9,1.3,14.9c-0.1,2.3,4.6,1.8,4.6,1.8
	s-0.7-1.5-2.7-2.8c-0.4-6.7-0.2-10.2,1.6-12.1c1.1,2.3,4,12.8,4.5,13.3c0.4,0.5,3.2,1.3,3.4,0.2c0.1-1.3-1.6-1.6-3-7.1
	c-1.5-5.5-0.1-16.6,0.7-19.3c0.9-2.7,2.9-3,3.2-6.2c1.2,0.5,6,0,6,0l5.1,1.3c0,0,0.5,10.1,0,13.5c1.3,2.8,0,6.7,0,12.2
	c0,5.6,2.3,4.6,2.3,4.6s-0.6,1.5,1.8,1.5c2.4,0,4.6-0.5,2.4-1.1c-2.1-0.6-2.6-5.4-2.2-11.6c1.7-4.8,0.7-10.4,0.7-12.7
	c0-2.3,2-8.3,2-8.3s0,0,0.7-2.9c4.3,0.4,6.6-0.4,8.8-3.1c2.2-2.6,1.7-7.9,1.7-9.6c0-1.7,3.4-2.9,5.2-3.5
	C68.9,146.9,68.4,144.8,67.2,144.2z M23.2,184.9c-0.6-1.6-0.1-8.7,1.7-10.6C24.8,180.5,23.2,184.9,23.2,184.9z"/>
<path class="st0" d="M48.4,212.9c-0.4-1-3.5-0.7-6.8-1.7c-3.2-1-4.6,1.3-4.6,1.3s-1.5,0-0.7,1.7c-1.3,3.5,2.1,7.3,0,9.1
	c-2.1,2-4.1-2.1-5.7-3c-1.6-1-6.5-2.8-9.8-3.2c-1.1-1.7-2.8-1.7-4.9-1.5c-2,0.2-4.8,2.9-7.8,4.5c-3.2,1.6-3.8,4.1-3.8,4.1
	s-2.7,2.2-3.3,3.9c-1.1,3.3,0.5,10,1,12.6c0.5,2.6-1.7,5.5-2,12.3c2.1,7.7,1.3,14.9,1.3,14.9c-0.1,2.3,4.6,1.8,4.6,1.8
	s-0.7-1.5-2.7-2.8C2.9,260.4,3,256.8,4.9,255c1.1,2.3,4,12.8,4.5,13.3c0.4,0.5,3.2,1.3,3.4,0.2c0.1-1.3-1.6-1.6-3-7.1
	c-1.5-5.5-0.1-16.6,0.7-19.3c0.9-2.7,2.9-3.1,3.2-6.2c1.2,0.5,6,0,6,0l5.1,1.3c0,0,0.5,10.1,0,13.5c1.3,2.8,0,6.7,0,12.2
	c0,5.6,2.3,4.6,2.3,4.6s-0.6,1.5,1.8,1.5c2.4,0,4.6-0.5,2.4-1.1c-2.1-0.6-2.6-5.4-2.2-11.6c1.7-4.8,0.7-10.4,0.7-12.7
	c0-2.3,2-8.3,2-8.3s0,0,0.7-2.9c4.3,0.4,6.6-0.4,8.8-3c2.2-2.7,1.7-7.9,1.7-9.6c0-1.7,3.4-2.9,5.2-3.5S49.6,213.5,48.4,212.9z
	 M4.3,253.5c-0.6-1.6-0.1-8.7,1.7-10.6C5.9,249.1,4.3,253.5,4.3,253.5z"/>
<path class="st0" d="M87,239.9c-0.4-1-3.5-0.7-6.8-1.7c-3.2-1-4.6,1.3-4.6,1.3s-1.5,0-0.7,1.7c-1.3,3.5,2.1,7.3,0,9.1
	c-2.1,2-4.1-2.1-5.7-3.1c-1.5-1-6.5-2.8-9.8-3.2c-1.1-1.7-2.8-1.7-4.9-1.5c-2.1,0.2-4.8,2.9-7.8,4.5c-3.2,1.6-3.8,4.1-3.8,4.1
	s-2.7,2.2-3.3,3.9c-1.1,3.3,0.5,10,1,12.6c0.5,2.6-1.7,5.5-2,12.3c2.1,7.7,1.3,14.9,1.3,14.9c-0.1,2.3,4.6,1.8,4.6,1.8
	s-0.7-1.5-2.7-2.8c-0.4-6.7-0.2-10.2,1.6-12.1c1.1,2.3,4,12.8,4.5,13.3c0.4,0.5,3.2,1.3,3.4,0.2c0.1-1.3-1.6-1.6-3-7.1
	c-1.5-5.5-0.1-16.6,0.7-19.3c0.9-2.7,2.9-3,3.2-6.2c1.2,0.5,6,0,6,0l5.1,1.3c0,0,0.5,10.1,0,13.5c1.3,2.8,0,6.7,0,12.2
	c0,5.6,2.3,4.6,2.3,4.6s-0.6,1.5,1.8,1.5s4.6-0.5,2.4-1.1c-2.1-0.6-2.6-5.4-2.2-11.6c1.7-4.8,0.7-10.4,0.7-12.7c0-2.3,2-8.3,2-8.3
	s0,0,0.7-2.9c4.3,0.4,6.6-0.4,8.8-3c2.2-2.6,1.7-7.9,1.7-9.6c0-1.7,3.4-2.9,5.2-3.5C88.8,242.6,88.3,240.5,87,239.9z M42.9,280.5
	c-0.6-1.6-0.1-8.7,1.7-10.6C44.5,276.1,42.9,280.5,42.9,280.5z"/>
<path class="st0" d="M237.5,203.3c-0.4-1-3.5-0.7-6.8-1.7c-3.2-1-4.6,1.3-4.6,1.3s-1.5,0-0.7,1.7c-1.3,3.5,2.1,7.3,0,9.1
	c-2.1,1.8-4.1-2.1-5.7-3c-1.6-1-6.5-2.8-9.8-3.2c-1.1-1.7-2.8-1.7-4.9-1.5c-2.1,0.2-4.8,2.9-7.8,4.5c-3.2,1.6-3.8,4.1-3.8,4.1
	s-2.7,2.2-3.3,3.9c-1.1,3.3,0.5,10,1,12.6c0.5,2.6-1.7,5.5-2,12.3c2.1,7.7,1.3,14.9,1.3,14.9c-0.1,2.3,4.6,1.8,4.6,1.8
	s-0.7-1.5-2.7-2.8c-0.4-6.7-0.2-10.2,1.6-12.1c1.1,2.3,4,12.8,4.5,13.3c0.4,0.5,3.2,1.3,3.4,0.2c0.1-1.3-1.6-1.6-3-7.1
	c-1.5-5.5-0.1-16.6,0.7-19.3c0.9-2.7,2.9-3,3.2-6.2c1.2,0.5,6,0,6,0l5.1,1.3c0,0,0.5,10.1,0,13.5c1.3,2.8,0,6.7,0,12.2
	c0,5.6,2.3,4.6,2.3,4.6s-0.6,1.5,1.8,1.5c2.4,0,4.6-0.5,2.4-1.1c-2.1-0.6-2.6-5.4-2.2-11.6c1.7-4.8,0.7-10.4,0.7-12.7
	c0-2.3,2-8.3,2-8.3s0,0,0.7-2.9c4.3,0.4,6.6-0.4,8.8-3.1c2.2-2.7,1.7-7.9,1.7-9.6c0-1.7,3.4-2.9,5.2-3.5
	C239.2,206,238.7,203.9,237.5,203.3z M193.3,243.9c-0.6-1.6-0.1-8.7,1.7-10.6C195,239.5,193.3,243.9,193.3,243.9z"/>
<path class="st0" d="M286.8,129.4c-0.4-1-3.5-0.7-6.8-1.7c-3.2-1-4.6,1.3-4.6,1.3s-1.5,0-0.7,1.7c-1.3,3.5,2.1,7.3,0,9.1
	c-2.1,1.8-4.1-2.1-5.7-3c-1.5-1-6.5-2.8-9.8-3.2c-1.1-1.7-2.8-1.7-4.9-1.5c-2.1,0.2-4.8,2.9-7.8,4.5c-3.2,1.6-3.8,4.1-3.8,4.1
	s-2.7,2.2-3.3,3.9c-1.1,3.3,0.5,10,1,12.6c0.5,2.6-1.7,5.5-2,12.3c2.1,7.7,1.3,14.9,1.3,14.9c-0.1,2.3,4.6,1.8,4.6,1.8
	s-0.7-1.5-2.7-2.8c-0.4-6.7-0.2-10.2,1.6-12.1c1.1,2.3,4,12.8,4.5,13.3c0.4,0.5,3.2,1.3,3.4,0.2c0.1-1.3-1.6-1.6-3.1-7.1
	s-0.1-16.6,0.7-19.3c0.9-2.7,2.9-3,3.2-6.2c1.2,0.5,6,0,6,0l5.1,1.3c0,0,0.5,10.1,0,13.5c1.3,2.8,0,6.7,0,12.2
	c0,5.6,2.3,4.6,2.3,4.6s-0.6,1.5,1.8,1.5c2.4,0,4.6-0.5,2.4-1.1c-2.1-0.6-2.6-5.4-2.2-11.6c1.7-4.8,0.7-10.4,0.7-12.7
	c0-2.3,2-8.3,2-8.3s0,0,0.7-2.9c4.3,0.4,6.6-0.4,8.8-3c2.2-2.7,1.7-7.9,1.7-9.6c0-1.7,3.4-2.9,5.2-3.5
	C288.5,132,288,130,286.8,129.4z M242.7,170c-0.6-1.6-0.1-8.7,1.7-10.6C244.3,165.6,242.7,170,242.7,170z"/>
<path class="st0" d="M279.6,51.5c-0.4-1-3.5-0.7-6.8-1.7c-3.2-1-4.6,1.3-4.6,1.3s-1.5,0-0.7,1.7c-1.3,3.5,2.1,7.3,0,9.1
	c-2.1,1.8-4.1-2.1-5.7-3c-1.5-1-6.5-2.8-9.8-3.2c-1.1-1.7-2.8-1.7-4.9-1.5c-2.1,0.2-4.8,2.9-7.8,4.5c-3.2,1.6-3.8,4.1-3.8,4.1
	s-2.7,2.2-3.3,3.9c-1.1,3.3,0.5,10,1,12.6c0.5,2.6-1.7,5.5-2,12.3c2.1,7.7,1.3,14.9,1.3,14.9c-0.1,2.3,4.6,1.8,4.6,1.8
	s-0.7-1.5-2.7-2.8c-0.4-6.7-0.2-10.2,1.6-12.1c1.1,2.3,4,12.8,4.5,13.3c0.4,0.5,3.2,1.3,3.4,0.2c0.1-1.3-1.6-1.6-3-7.1
	c-1.5-5.5-0.1-16.6,0.7-19.3c0.9-2.7,2.9-3,3.2-6.2c1.2,0.5,6,0,6,0l5.1,1.3c0,0,0.5,10.1,0,13.5c1.3,2.8,0,6.7,0,12.2
	c0,5.6,2.3,4.6,2.3,4.6s-0.6,1.5,1.8,1.5c2.4,0,4.6-0.5,2.4-1.1c-2.1-0.6-2.6-5.4-2.2-11.6c1.7-4.8,0.7-10.4,0.7-12.7
	c0-2.3,2-8.3,2-8.3s0,0,0.7-2.9c4.3,0.4,6.6-0.4,8.8-3c2.2-2.7,1.7-7.9,1.7-9.6c0-1.7,3.4-2.9,5.2-3.5
	C281.3,54.3,280.8,52.3,279.6,51.5z M235.5,92.3c-0.6-1.6-0.1-8.7,1.7-10.6C237.1,87.9,235.5,92.3,235.5,92.3z"/>
<path class="st0" d="M64.5,64.1c-0.4-1-3.5-0.7-6.8-1.7c-3.2-1-4.6,1.3-4.6,1.3s-1.5,0-0.7,1.7c-1.3,3.5,2.1,7.3,0,9.1
	c-2.1,2-4.1-2.1-5.7-3c-1.5-1-6.5-2.8-9.8-3.2c-1.1-1.7-2.8-1.7-4.9-1.5c-2,0.2-4.8,2.9-7.8,4.5c-3.2,1.6-3.8,4.1-3.8,4.1
	s-2.7,2.2-3.3,3.9c-1.1,3.3,0.5,10,1,12.6c0.5,2.6-1.7,5.5-2,12.3c2.1,7.7,1.3,14.9,1.3,14.9c-0.1,2.3,4.6,1.8,4.6,1.8
	s-0.7-1.5-2.7-2.8c-0.4-6.7-0.2-10.2,1.6-12.1c1.1,2.3,4,12.8,4.5,13.3c0.4,0.5,3.2,1.3,3.4,0.2c0.1-1.3-1.6-1.6-3-7.1
	c-1.5-5.5-0.1-16.6,0.7-19.3c0.9-2.7,2.9-3,3.2-6.2c1.2,0.5,6,0,6,0l5.1,1.3c0,0,0.5,10.1,0,13.5c1.3,2.8,0,6.7,0,12.2
	c0,5.6,2.3,4.6,2.3,4.6s-0.6,1.5,1.8,1.5c2.4,0,4.6-0.5,2.4-1.1c-2.1-0.6-2.6-5.4-2.2-11.6C47,102.9,46,97.3,46,95
	c0-2.3,2-8.3,2-8.3s0,0,0.7-2.9c4.3,0.4,6.6-0.4,8.8-3c2.2-2.6,1.7-7.9,1.7-9.6c0-1.7,3.4-2.9,5.2-3.5
	C66.2,66.9,65.7,64.7,64.5,64.1z M20.4,104.7c-0.6-1.6-0.1-8.7,1.7-10.6C22,100.3,20.4,104.7,20.4,104.7z"/>
<path class="st0" d="M155.8,252.9c-0.4-1-3.5-0.7-6.8-1.7c-3.2-1-4.6,1.3-4.6,1.3s-1.5,0-0.7,1.7c-1.3,3.5,2.1,7.3,0,9.1
	c-2.1,2-4.1-2.1-5.7-3.1c-1.5-1-6.5-2.8-9.8-3.2c-1.1-1.7-2.8-1.7-4.9-1.5c-2,0.2-4.8,2.9-7.8,4.5c-3.2,1.6-3.8,4.1-3.8,4.1
	s-2.7,2.2-3.3,3.9c-1.1,3.3,0.5,10,1,12.6c0.5,2.6-1.7,5.5-2,12.3c2.1,7.7,1.3,14.9,1.3,14.9c-0.1,2.3,4.6,1.8,4.6,1.8
	s-0.7-1.5-2.7-2.8c-0.4-6.7-0.2-10.2,1.6-12.1c1.1,2.3,4,12.8,4.5,13.3c0.4,0.5,3.2,1.3,3.4,0.2c0.1-1.3-1.6-1.6-3.1-7.1
	c-1.5-5.5-0.1-16.6,0.7-19.3c0.9-2.7,2.9-3,3.2-6.2c1.2,0.5,6,0,6,0l5.1,1.3c0,0,0.5,10.1,0,13.5c1.3,2.8,0,6.7,0,12.2
	c0,5.6,2.3,4.6,2.3,4.6s-0.6,1.5,1.8,1.5c2.4,0,4.6-0.5,2.4-1.1c-2.1-0.6-2.6-5.4-2.2-11.6c1.7-4.8,0.7-10.4,0.7-12.7
	c0-2.3,2-8.3,2-8.3s0,0,0.7-2.9c4.3,0.4,6.6-0.4,8.8-3c2.2-2.6,1.7-7.9,1.7-9.6c0-1.7,3.4-2.9,5.2-3.5
	C157.6,255.6,157.1,253.5,155.8,252.9z M111.7,293.5c-0.6-1.6-0.1-8.7,1.7-10.6C113.3,289.1,111.7,293.5,111.7,293.5z"/>
<path class="st0" d="M297.6,226c-0.4-1-3.5-0.7-6.8-1.7c-3.2-1-4.6,1.3-4.6,1.3s-1.5,0-0.7,1.7c-1.3,3.5,2.1,7.3,0,9.1
	c-2.1,2-4.1-2.1-5.7-3.1c-1.6-1-6.5-2.8-9.8-3.2c-1.1-1.7-2.8-1.7-4.9-1.5c-2,0.2-4.8,2.9-7.8,4.5c-3.2,1.6-3.8,4.1-3.8,4.1
	s-2.7,2.2-3.3,3.9c-1.1,3.3,0.5,10,1,12.6c0.5,2.6-1.7,5.5-2,12.3c2.1,7.7,1.3,14.9,1.3,14.9c-0.1,2.3,4.6,1.8,4.6,1.8
	s-0.7-1.5-2.7-2.8c-0.4-6.7-0.2-10.2,1.6-12.1c1.1,2.3,4,12.8,4.5,13.3c0.4,0.5,3.2,1.3,3.4,0.2c0.1-1.3-1.6-1.6-3-7.1
	c-1.5-5.5-0.1-16.6,0.7-19.3c0.9-2.7,2.9-3,3.2-6.2c1.2,0.5,6,0,6,0l5.1,1.3c0,0,0.5,10.1,0,13.5c1.3,2.8,0,6.7,0,12.2
	c0,5.6,2.3,4.6,2.3,4.6s-0.6,1.5,1.8,1.5c2.4,0,4.6-0.5,2.4-1.1c-2.1-0.6-2.6-5.4-2.2-11.6c1.7-4.8,0.7-10.4,0.7-12.7
	c0-2.3,2-8.3,2-8.3s0,0,0.7-2.9c4.3,0.4,6.6-0.4,8.8-3c2.2-2.7,1.7-7.9,1.7-9.6c0-1.7,3.4-2.9,5.2-3.5
	C299.5,228.8,299,226.7,297.6,226z M253.6,266.7c-0.6-1.6-0.1-8.7,1.7-10.6C255.2,262.3,253.6,266.7,253.6,266.7z"/>
<path class="st0" d="M148.6,183.4c-0.4-1-3.5-0.7-6.8-1.7c-3.2-1-4.6,1.3-4.6,1.3s-1.5,0-0.7,1.7c-1.3,3.5,2.1,7.3,0,9.1
	c-2.1,2-4.1-2.1-5.7-3c-1.5-1-6.5-2.8-9.8-3.2c-1.1-1.7-2.8-1.7-4.9-1.5c-2.1,0.2-4.8,2.9-7.8,4.5c-3.2,1.6-3.8,4.1-3.8,4.1
	s-2.7,2.2-3.3,3.9c-1.1,3.3,0.5,10,1,12.6c0.5,2.6-1.7,5.5-2,12.3c2.1,7.7,1.3,14.9,1.3,14.9c-0.1,2.3,4.6,1.8,4.6,1.8
	s-0.7-1.5-2.7-2.8c-0.4-6.7-0.2-10.2,1.6-12.1c1.1,2.3,4,12.8,4.5,13.3c0.4,0.5,3.2,1.3,3.4,0.2c0.1-1.3-1.6-1.6-3-7.1
	c-1.5-5.5-0.1-16.6,0.7-19.3c0.9-2.7,2.9-3,3.2-6.2c1.2,0.5,6,0,6,0l5.1,1.3c0,0,0.5,10.1,0,13.5c1.3,2.8,0,6.7,0,12.2
	c0,5.6,2.3,4.6,2.3,4.6s-0.6,1.5,1.8,1.5s4.6-0.5,2.4-1.1c-2.1-0.6-2.6-5.4-2.2-11.6c1.7-4.8,0.7-10.4,0.7-12.7c0-2.3,2-8.3,2-8.3
	s0,0,0.7-2.9c4.3,0.4,6.6-0.4,8.8-3c2.2-2.6,1.7-7.9,1.7-9.6c0-1.7,3.4-2.9,5.2-3.5C150.3,186.2,149.8,184,148.6,183.4z M104.5,224
	c-0.6-1.6-0.1-8.7,1.7-10.6C106.1,219.6,104.5,224,104.5,224z"/>
<path class="st0" d="M175.7,119.1c-0.4-1-3.5-0.7-6.8-1.7c-3.2-1-4.6,1.3-4.6,1.3s-1.5,0-0.7,1.7c-1.3,3.5,2.1,7.3,0,9.1
	c-2.1,1.8-4.1-2.1-5.7-3c-1.5-1-6.5-2.8-9.8-3.2c-1.1-1.7-2.8-1.7-4.9-1.5c-2,0.2-4.8,2.9-7.8,4.5c-3.2,1.6-3.8,4.1-3.8,4.1
	s-2.7,2.2-3.3,3.9c-1.1,3.3,0.5,10,1,12.6c0.5,2.6-1.7,5.5-2,12.3c2.1,7.7,1.3,14.9,1.3,14.9c-0.1,2.3,4.6,1.8,4.6,1.8
	s-0.7-1.5-2.7-2.8c-0.4-6.7-0.2-10.2,1.6-12.1c1.1,2.3,4,12.8,4.5,13.3c0.4,0.5,3.2,1.3,3.4,0.2c0.1-1.3-1.6-1.6-3.1-7.1
	s-0.1-16.6,0.7-19.3c0.9-2.7,2.9-3,3.2-6.2c1.2,0.5,6,0,6,0l5.1,1.3c0,0,0.5,10.1,0,13.5c1.3,2.8,0,6.7,0,12.2s2.3,4.6,2.3,4.6
	s-0.6,1.5,1.8,1.5s4.6-0.5,2.4-1.1c-2.2-0.6-2.6-5.4-2.2-11.6c1.7-4.8,0.7-10.4,0.7-12.7c0-2.3,2-8.3,2-8.3s0,0,0.7-2.9
	c4.3,0.4,6.6-0.4,8.8-3c2.2-2.6,1.7-7.9,1.7-9.6s3.4-2.9,5.2-3.5C177.4,121.8,176.9,119.7,175.7,119.1z M131.6,159.7
	c-0.6-1.6-0.1-8.7,1.7-10.6C133.2,155.3,131.6,159.7,131.6,159.7z"/>
<path class="st0" d="M198.1,183.4c-0.4-1-3.5-0.7-6.8-1.7c-3.2-1-4.6,1.3-4.6,1.3s-1.5,0-0.7,1.7c-1.3,3.5,2.1,7.3,0,9.1
	c-2.1,2-4.1-2.1-5.7-3c-1.5-1-6.5-2.8-9.8-3.2c-1.1-1.7-2.8-1.7-4.9-1.5c-2,0.2-4.8,2.9-7.8,4.5c-3.2,1.6-3.8,4.1-3.8,4.1
	s-2.7,2.2-3.3,3.9c-1.1,3.3,0.5,10,1,12.6c0.5,2.6-1.7,5.5-2,12.3c2.1,7.7,1.3,14.9,1.3,14.9c-0.1,2.3,4.6,1.8,4.6,1.8
	s-0.7-1.5-2.7-2.8c-0.4-6.7-0.2-10.2,1.6-12.1c1.1,2.3,4,12.8,4.5,13.3c0.4,0.5,3.2,1.3,3.4,0.2c0.1-1.3-1.6-1.6-3.1-7.1
	c-1.5-5.5-0.1-16.6,0.7-19.3c0.9-2.7,2.9-3,3.2-6.2c1.2,0.5,6,0,6,0l5.1,1.3c0,0,0.5,10.1,0,13.5c1.3,2.8,0,6.7,0,12.2
	c0,5.6,2.3,4.6,2.3,4.6s-0.6,1.5,1.8,1.5c2.4,0,4.6-0.5,2.4-1.1c-2.1-0.6-2.6-5.4-2.2-11.6c1.7-4.8,0.7-10.4,0.7-12.7
	c0-2.3,2-8.3,2-8.3s0,0,0.7-2.9c4.3,0.4,6.6-0.4,8.8-3c2.2-2.6,1.7-7.9,1.7-9.6c0-1.7,3.4-2.9,5.2-3.5
	C199.8,186.2,199.3,184,198.1,183.4z M154.1,224c-0.6-1.6-0.1-8.7,1.7-10.6C155.6,219.6,154.1,224,154.1,224z"/>
<path class="st0" d="M365.9,4c-0.4-1-3.6-0.7-6.9-1.7c-3.2-1-4.7,1.3-4.7,1.3s-1.5,0-0.7,1.7c-1.4,3.5,2.1,7.3,0,9.2
	c-2.1,1.8-4.2-2.1-5.8-3.1c-1.5-1-6.5-2.8-9.9-3.2c-1.1-1.7-2.8-1.7-4.9-1.5c-2.1,0.2-4.8,2.9-7.9,4.5c-3.2,1.6-3.8,4.2-3.8,4.2
	s-2.7,2.2-3.3,3.9c-1.1,3.3,0.5,10,1,12.6c0.5,2.6-1.7,5.5-2,12.3c2.1,7.7,1.4,14.9,1.4,14.9c-0.1,2.3,4.7,1.8,4.7,1.8
	s-0.7-1.5-2.7-2.8c-0.4-6.7-0.2-10.3,1.6-12.1c1.1,2.3,4.1,12.8,4.6,13.3c0.4,0.5,3.2,1.3,3.4,0.2c0.1-1.3-1.6-1.6-3.1-7.1
	c-1.5-5.5-0.1-16.6,0.7-19.3c0.9-2.7,3-3.1,3.2-6.2c1.2,0.5,6,0,6,0l5.2,1.3c0,0,0.5,10.1,0,13.6c1.4,2.8,0,6.7,0,12.2
	c0,5.6,2.3,4.6,2.3,4.6s-0.6,1.5,1.8,1.5s4.7-0.5,2.5-1.1c-2.1-0.6-2.6-5.4-2.2-11.6c1.7-4.8,0.7-10.4,0.7-12.7c0-2.3,2-8.3,2-8.3
	s0,0,0.7-2.9c4.3,0.4,6.7-0.4,8.9-3.1c2.2-2.7,1.7-7.9,1.7-9.6c0-1.7,3.4-2.9,5.3-3.5C367.6,6.8,367.1,4.7,365.9,4z M321.4,44.7
	c-0.6-1.6-0.1-8.7,1.7-10.6C323,40.3,321.4,44.7,321.4,44.7z"/>
</svg>
