<svg width="179" height="413" viewBox="0 0 179 413" fill="none" xmlns="http://www.w3.org/2000/svg">
<g clip-path="url(#clip0_1206_394614)">
<path d="M178.661 104.61V94.835L176.169 93.5959L173.678 94.835L171.186 93.5959V83.821L173.678 82.5819V72.807L171.186 71.5679V61.793L173.678 60.5539V50.779L171.186 49.54V39.765L173.678 38.526V28.7511L171.186 27.512V17.7371L173.678 16.498V6.7231L171.186 5.48402V-4.4974L173.678 -5.73647V-15.5114L171.186 -16.7505V-26.5254L173.678 -27.7644V-37.5394L171.186 -38.7784V-48.5533L173.678 -49.7924V-59.6362L171.186 -60.8752V-70.6501L173.678 -71.8892V-81.6641L171.186 -82.9032V-92.6781L173.678 -93.9172V-103.761L171.186 -105L168.694 -103.761V-93.986L166.203 -92.7469V-82.972L168.694 -81.733V-71.958L166.203 -70.719V-60.9441L168.694 -59.705V-49.9301L166.203 -48.691V-38.9161L168.694 -37.677V-27.9021L166.203 -26.663V-16.8881L168.694 -15.6491V-5.87415L166.203 -4.63507V5.13984L168.694 6.37891V16.1538L166.203 17.3929V27.1678L168.694 28.4069V38.1818L166.203 39.4209V49.1958L168.694 50.4348V60.2098L166.203 61.4488V71.2237L168.694 72.4628V82.2377L166.203 83.4768L163.711 82.2377L161.22 83.4768L158.728 82.2377V72.4628L161.22 71.2237V61.4488L158.728 60.2098V50.4348L161.22 49.1958V39.4209L158.728 38.1818V28.4069L161.22 27.1678V17.3929L158.728 16.1538V6.37891L161.22 5.13984V-4.4974L158.728 -5.73647V-15.5114L161.22 -16.7505V-26.5254L158.728 -27.7644V-37.5394L161.22 -38.7784V-48.5533L158.728 -49.7924V-59.6362L161.22 -60.8752V-70.6501L158.728 -71.8892V-81.6641L161.22 -82.9032V-92.6781L158.798 -93.986V-103.761L156.306 -105L153.814 -103.761V-93.986L156.306 -92.7469V-82.972L153.814 -81.733V-71.958L156.306 -70.719V-60.9441L153.814 -59.705V-49.9301L156.306 -48.691V-38.9161L153.814 -37.677V-27.9021L156.306 -26.663V-16.8881L153.814 -15.6491V-5.87415L156.306 -4.63507V5.13984L153.814 6.37891V16.1538L156.306 17.3929V27.1678L153.814 28.4069V38.1818L156.306 39.4209V49.1958L153.814 50.4348V60.2098L156.306 61.4488V71.2237L153.814 72.4628V82.2377L151.323 83.4768L148.831 82.2377V72.4628L146.34 71.2237V61.4488L148.831 60.2098V50.4348L146.34 49.1958V39.4209L148.831 38.1818V28.4069L146.34 27.1678V17.3929L143.848 16.1538L141.357 17.3929V27.1678L143.848 28.4069V38.1818L141.357 39.4209V49.1958L143.848 50.4348V60.2098L141.357 61.4488V71.2237L143.848 72.4628V82.2377L141.357 83.4768L138.865 82.2377L136.374 83.4768L133.882 82.2377V72.4628L136.374 71.2237V61.4488L133.882 60.2098V50.4348L136.374 49.1958V39.4209L133.882 38.1818V28.4069L136.374 27.1678V17.3929L133.882 16.1538V6.37891L136.374 5.13984V-4.4974L133.882 -5.73647V-15.5114L136.374 -16.7505V-26.5254L133.882 -27.7644V-37.5394L136.374 -38.7784V-48.5533L133.882 -49.7924V-59.6362L136.374 -60.8752V-70.6501L133.882 -71.8892V-81.6641L136.374 -82.9032V-92.6781L133.882 -93.9172V-103.761L131.529 -105L129.038 -103.761V-93.986L131.529 -92.7469V-82.972L129.038 -81.733V-71.958L131.529 -70.719V-60.9441L129.038 -59.705V-49.9301L131.529 -48.691V-38.9161L129.038 -37.5394V-27.7644L131.529 -26.5254V-16.7505L129.038 -15.5114V-5.73647L131.529 -4.4974V5.27751L129.038 6.51659V16.2915L131.529 17.5306V27.3055L129.038 28.5446V38.3195L131.529 39.5585V49.3335L129.038 50.5725V60.3474L131.529 61.5865V71.3614L129.038 72.6005V82.3754L126.546 83.6145L124.054 82.3754V72.6005L121.563 71.3614V61.5865L124.054 60.3474V50.5725L121.563 49.3335V39.5585L124.054 38.3195V28.5446L121.563 27.3055V17.5306L124.054 16.2915V6.51659L121.563 5.27751V-4.4974L124.054 -5.73647V-15.5114L121.563 -16.7505V-26.5254L124.054 -27.7644V-37.5394L121.563 -38.7784V-48.5533L124.054 -49.7924V-59.6362L121.563 -60.8752V-70.6501L124.054 -71.8892V-81.6641L121.563 -82.9032V-92.6781L124.054 -93.9172V-103.761L121.563 -105L119.071 -103.761V-93.986L116.58 -92.7469V-82.972L119.071 -81.733V-71.958L116.58 -70.719V-60.9441L119.071 -59.705V-49.9301L116.58 -48.691V-38.9161L119.071 -37.677V-27.9021L116.58 -26.663V-16.8881L119.071 -15.6491V-5.87415L116.58 -4.63507V5.13984L119.071 6.37891V16.1538L116.58 17.3929V27.1678L119.071 28.4069V38.1818L116.58 39.4209V49.1958L119.071 50.4348V60.2098L116.58 61.4488V71.2237L119.071 72.4628V82.2377L116.58 83.4768V93.2517L114.088 94.4908L111.597 93.2517V83.4768L109.105 82.2377V72.4628L111.597 71.2237V61.4488L109.105 60.2098V50.4348L111.597 49.1958V39.4209L109.105 38.1818V28.4069L111.597 27.1678V17.3929L109.105 16.1538V6.37891L111.597 5.13984V-4.4974L109.105 -5.73647V-15.5114L111.597 -16.7505V-26.5254L109.105 -27.7644V-37.5394L111.597 -38.7784V-48.5533L109.105 -49.7924V-59.6362L111.597 -60.8752V-70.6501L109.105 -71.8892V-81.6641L111.597 -82.9032V-92.6781L109.105 -93.9172V-103.761L106.683 -105L104.191 -103.761V-93.986L106.683 -92.7469V-82.972L104.191 -81.733V-71.958L106.683 -70.719V-60.9441L104.191 -59.705V-49.9301L106.683 -48.691V-38.9161L104.191 -37.677V-27.9021L106.683 -26.663V-16.8881L104.191 -15.6491V-5.87415L106.683 -4.63507V5.13984L104.191 6.37891V16.1538L106.683 17.3929V27.1678L104.191 28.4069V38.1818L106.683 39.4209V49.1958L104.191 50.4348V60.2098L106.683 61.4488V71.2237L104.191 72.4628V82.2377L106.683 83.4768V93.2517L104.191 94.4908V104.266L106.683 105.505V115.28L104.191 116.519V126.294L106.683 127.533V137.308L104.191 138.547V148.322L106.683 149.561L109.174 148.322L111.666 149.561L114.158 148.322L116.649 149.561L119.141 148.322L121.632 149.561L124.124 148.322V138.547L121.632 137.308V127.533L124.124 126.294V116.519L126.615 115.28L129.107 116.519L131.598 115.28L134.09 116.519L136.581 115.28L139.073 116.519L141.564 115.28L144.056 116.519L146.548 115.28L149.039 116.519L151.531 115.28L154.022 116.519L156.514 115.28L159.005 116.519V126.294L161.497 127.533V137.308L159.005 138.547V148.322L161.497 149.561V159.336L159.005 160.575V170.35L161.497 171.589L163.988 170.35L166.48 171.589V181.364L163.988 182.603L161.497 181.364L159.005 182.603V192.378L156.514 193.617L154.022 192.378L151.531 193.617V203.392L149.039 204.631L146.548 203.392L144.056 204.631V214.406L141.564 215.645L139.073 214.406L136.581 215.645V225.42L134.09 226.659L131.598 225.42L129.107 226.659V236.434L131.598 237.673L134.09 236.434L136.581 237.673L139.073 236.434L141.564 237.673L144.056 236.434V226.659L146.548 225.42V215.645L149.039 214.406L151.531 215.645L154.022 214.406L156.514 215.645L159.005 214.406V204.631L161.497 203.392V193.617L163.988 192.378L166.48 193.617L168.971 192.378L171.463 193.617V203.392L173.954 204.631L176.446 203.392V193.617L173.954 192.378V182.603L176.446 181.364V171.589L178.937 170.35V160.575L176.446 159.336V149.561L178.937 148.322V138.547L176.446 137.308V127.533L178.937 126.294V116.519L176.446 115.28V105.505L178.661 104.61Z" fill="#F2E9E4" fill-opacity="0.5"/>
<path d="M171.184 216.126V225.901L173.675 227.14L176.167 225.901V216.126L173.675 214.887L171.184 216.126Z" fill="#F2E9E4" fill-opacity="0.5"/>
<path d="M163.779 227.141V227.21V236.985L166.202 238.224L168.693 236.985V227.21V227.141L166.202 225.902L163.779 227.141Z" fill="#F2E9E4" fill-opacity="0.5"/>
<path d="M168.693 205.114L166.202 203.875L163.779 205.114V214.889L166.202 216.128L168.693 214.889V205.114Z" fill="#F2E9E4" fill-opacity="0.5"/>
<path d="M156.307 238.223V247.998L158.798 249.237L161.29 247.998V238.223L158.798 236.984L156.307 238.223Z" fill="#F2E9E4" fill-opacity="0.5"/>
<path d="M156.305 181.777V172.002L153.814 170.763L151.322 172.002V181.777L153.814 183.085L156.305 181.777Z" fill="#F2E9E4" fill-opacity="0.5"/>
<path d="M148.9 249.237V259.012L151.323 260.251L153.814 259.012V249.237L151.323 247.998L148.9 249.237Z" fill="#F2E9E4" fill-opacity="0.5"/>
<path d="M153.814 227.21V227.141L151.323 225.902L148.9 227.141V227.21V236.985L151.323 238.224L153.814 236.985V227.21Z" fill="#F2E9E4" fill-opacity="0.5"/>
<path d="M146.407 -92.6781L148.898 -93.986V-103.761L146.407 -105L143.915 -103.761V-93.986L141.424 -92.6781V-82.9032L143.915 -81.6641V-71.8892L141.424 -70.6501V-60.8752L143.915 -59.6362V-49.8612L141.424 -48.5533V-38.8473L143.915 -37.5394V-27.7645L141.424 -26.5254V-16.7505L143.915 -15.5114V-5.73648L141.424 -4.49741V5.2775L143.915 6.58542V16.3603L146.407 17.5994L148.898 16.3603V6.58542L146.407 5.2775V-4.49741L148.898 -5.73648V-15.5114L146.407 -16.7505V-26.5254L148.898 -27.7645V-37.5394L146.407 -38.8473V-48.5533L148.898 -49.8612V-59.6362L146.407 -60.8752V-70.6501L148.898 -71.8892V-81.6641L146.407 -82.9032V-92.6781Z" fill="#F2E9E4" fill-opacity="0.5"/>
<path d="M136.443 436.751L133.951 435.511V425.737L136.443 424.497V414.723L133.951 413.415V403.64L136.443 402.401V392.626L133.951 391.387V381.612L136.443 380.373V370.598L133.951 369.29V359.515L136.443 358.276V348.501L133.951 347.262V337.487L136.443 336.248L138.934 337.487L141.426 336.248L143.918 337.487V347.262L141.426 348.501V358.276L143.918 359.515V369.29L141.426 370.598V380.373L143.918 381.612V391.387L141.426 392.626V402.401L143.918 403.64V413.415L141.426 414.723V424.497L143.918 425.737V435.511L141.426 436.751V446.525L143.918 447.765V457.539L141.426 458.847V468.622L143.918 469.861V479.636L141.426 480.875V490.65L143.918 491.889V501.664L141.426 502.972V512.747L143.918 513.986V523.761L146.409 525L148.901 523.761V513.986L146.409 512.747V502.972L148.901 501.664V491.889L146.409 490.65V480.875L148.901 479.636V469.861L146.409 468.622V458.847L148.901 457.539V447.765L146.409 446.525V436.751L148.901 435.511V425.737L146.409 424.497V414.723L148.901 413.415V403.64L146.409 402.401V392.626L148.901 391.387V381.612L146.409 380.373V370.598L148.901 369.29V359.515L146.409 358.276V348.501L148.901 347.262V337.487L151.323 336.248L153.814 337.487V347.262L156.306 348.501V358.276L153.814 359.515V369.29L156.306 370.598V380.373L153.814 381.612V391.387L156.306 392.626V402.401L153.814 403.64V413.415L156.306 414.723V424.497L153.814 425.737V435.511L156.306 436.751V446.525L153.814 447.765V457.539L156.306 458.847V468.622L153.814 469.861V479.636L156.306 480.875V490.65L153.814 491.889V501.664L156.306 502.972V512.747L153.814 513.986V523.761L156.306 525L158.798 523.761V513.986L161.289 512.747V502.972L158.798 501.664V491.889L161.289 490.65V480.875L158.798 479.636V469.861L161.289 468.622V458.847L158.798 457.539V447.765L161.289 446.525V436.751L158.798 435.511V425.737L161.289 424.497V414.723L158.798 413.415V403.64L161.289 402.401V392.626L158.798 391.387V381.612L161.289 380.373V370.598L158.798 369.29V359.515L161.289 358.276V348.501L158.798 347.262V337.487L161.289 336.248L163.781 337.487L166.203 336.248L168.694 337.487V347.262L166.203 348.501V358.276L168.694 359.515V369.29L166.203 370.598V380.373L168.694 381.612V391.387L166.203 392.626V402.401L168.694 403.64V413.415L166.203 414.723V424.497L168.694 425.737V435.511L166.203 436.751V446.525L168.694 447.765V457.539L166.203 458.847V468.622L168.694 469.861V479.636L166.203 480.875V490.65L168.694 491.889V501.664L166.203 502.972V512.747L168.694 513.986V523.761L171.186 525L173.678 523.761V513.986L171.186 512.747V502.972L173.678 501.664V491.889L171.186 490.65V480.875L173.678 479.636V469.861L171.186 468.622V458.847L173.678 457.539V447.765L171.186 446.525V436.751L173.678 435.511V425.737L171.186 424.497V414.723L173.678 413.415V403.64L171.186 402.401V392.626L173.678 391.387V381.612L171.186 380.373V370.598L173.678 369.29V359.515L171.186 358.276V348.501L173.678 347.262V337.487L176.169 336.248V326.473L178.661 325.165V315.39L176.169 314.151V304.376L173.678 303.137L171.186 304.376L168.694 303.137L166.203 304.376L163.781 303.137L161.289 304.376L158.798 303.137L156.306 304.376L153.814 303.137L151.323 304.376L148.901 303.137L146.409 304.376L143.918 303.137L141.426 304.376L138.934 303.137V293.362L136.443 292.123L133.951 293.362V303.137L131.529 304.376L129.038 303.137V293.362L126.546 292.123L124.054 293.362L121.563 292.123L119.141 293.362L116.649 292.123V282.348L119.141 281.04L121.563 282.348L124.054 281.04L126.546 282.348L129.038 281.04V271.334L126.546 270.026L124.054 271.334L121.563 270.026L119.141 271.334L116.649 270.026V260.251L119.141 259.012L121.563 260.251L124.054 259.012L126.546 260.251L129.038 259.012V249.237L131.529 247.998V238.223L129.038 236.984L126.546 238.223L124.054 236.984L121.563 238.223V247.998L119.141 249.237L116.649 247.998L114.158 249.237V259.012L111.666 260.251L109.174 259.012L106.683 260.251V270.026L109.174 271.334L111.666 270.026L114.158 271.334V281.04L111.666 282.348L109.174 281.04L106.683 282.348V292.123L109.174 293.362V303.137L106.683 304.376V314.151L104.191 315.39V325.165L106.683 326.473V336.248L104.191 337.487V347.262L106.683 348.501V358.276L104.191 359.515V369.29L106.683 370.598V380.373L104.191 381.612V391.387L106.683 392.626V402.401L104.191 403.64V413.415L106.683 414.723V424.497L104.191 425.737V435.511L106.683 436.751V446.525L104.191 447.765V457.539L106.683 458.847V468.622L104.191 469.861V479.636L106.683 480.875V490.65L104.191 491.889V501.664L106.683 502.972V512.747L104.191 513.986V523.761L106.683 525L109.174 523.761V513.986L111.666 512.747V502.972L109.174 501.664V491.889L111.666 490.65V480.875L109.174 479.636V469.861L111.666 468.622V458.847L109.174 457.539V447.765L111.666 446.525V436.751L109.174 435.511V425.737L111.666 424.497V414.723L109.174 413.415V403.64L111.666 402.401V392.626L109.174 391.387V381.612L111.666 380.373V370.598L109.174 369.29V359.515L111.666 358.276V348.501L109.174 347.262V337.487L111.666 336.248L114.158 337.487L116.649 336.248L119.141 337.487V347.262L116.649 348.501V358.276L119.141 359.515V369.29L116.649 370.598V380.373L119.141 381.612V391.387L116.649 392.626V402.401L119.141 403.64V413.415L116.649 414.723V424.497L119.141 425.737V435.511L116.649 436.751V446.525L119.141 447.765V457.539L116.649 458.847V468.622L119.141 469.861V479.636L116.649 480.875V490.65L119.141 491.889V501.664L116.649 502.972V512.747L119.141 513.986V523.761L121.563 525L124.054 523.761V513.986L121.563 512.747V502.972L124.054 501.664V491.889L121.563 490.65V480.875L124.054 479.636V469.861L121.563 468.622V458.847L124.054 457.539V447.765L121.563 446.525V436.751L124.054 435.511V425.737L121.563 424.497V414.723L124.054 413.415V403.64L121.563 402.401V392.626L124.054 391.387V381.612L121.563 380.373V370.598L124.054 369.29V359.515L121.563 358.276V348.501L124.054 347.262V337.487L126.546 336.248L129.038 337.487V347.262L131.529 348.501V358.276L129.038 359.515V369.29L131.529 370.598V380.373L129.038 381.612V391.387L131.529 392.626V402.401L129.038 403.64V413.415L131.529 414.723V424.497L129.038 425.737V435.511L131.529 436.751V446.525L129.038 447.765V457.539L131.529 458.847V468.622L129.038 469.861V479.636L131.529 480.875V490.65L129.038 491.889V501.664L131.529 502.972V512.747L129.038 513.986V523.761L131.529 525L133.951 523.761V513.986L136.443 512.747V502.972L133.951 501.664V491.889L136.443 490.65V480.875L133.951 479.636V469.861L136.443 468.622V458.847L133.951 457.539V447.765L136.443 446.525V436.751Z" fill="#F2E9E4" fill-opacity="0.5"/>
<path d="M141.424 260.251V270.026L143.915 271.334L146.407 270.026V260.251L143.915 259.012L141.424 260.251Z" fill="#F2E9E4" fill-opacity="0.5"/>
<path d="M143.915 170.763L141.424 172.002V181.777L143.915 183.085V192.86L146.407 194.099L148.898 192.86V183.085L146.407 181.777V172.002L143.915 170.763Z" fill="#F2E9E4" fill-opacity="0.5"/>
<path d="M141.428 203.874V194.099L138.937 192.86L136.445 194.099V203.874L138.937 205.113L141.428 203.874Z" fill="#F2E9E4" fill-opacity="0.5"/>
<path d="M133.949 271.334V281.04L136.441 282.348L138.932 281.04V271.334L136.441 270.026L133.949 271.334Z" fill="#F2E9E4" fill-opacity="0.5"/>
<path d="M138.932 249.237L136.441 247.998L133.949 249.237V259.012L136.441 260.251L138.932 259.012V249.237Z" fill="#F2E9E4" fill-opacity="0.5"/>
<path d="M129.038 192.859L126.547 194.098V203.873L129.038 205.112V214.887L131.53 216.126L133.952 214.887V205.112L131.53 203.873V194.098L129.038 192.859Z" fill="#F2E9E4" fill-opacity="0.5"/>
<path d="M126.546 225.901V216.126L124.054 214.887L121.562 216.126V225.901L124.054 227.14L126.546 225.901Z" fill="#F2E9E4" fill-opacity="0.5"/>
<path d="M116.649 216.126L114.158 214.887L111.666 216.126V225.901L114.158 227.14V227.209V236.984L116.649 238.223L119.141 236.984V227.209V227.14L116.649 225.901V216.126Z" fill="#F2E9E4" fill-opacity="0.5"/>
<path d="M111.667 247.998V238.223L109.175 236.984L106.684 238.223V247.998L109.175 249.237L111.667 247.998Z" fill="#F2E9E4" fill-opacity="0.5"/>
<path d="M54.6367 281.04L57.1282 282.348L59.5506 281.04V271.334L57.1282 270.026L54.6367 271.334V281.04Z" fill="#F2E9E4" fill-opacity="0.5"/>
<path d="M54.6367 259.013L57.1282 260.252L59.5506 259.013V249.238L57.1282 247.999H57.059L54.6367 249.238V259.013Z" fill="#F2E9E4" fill-opacity="0.5"/>
<path d="M54.6367 227.21V236.985L57.059 238.224L59.5506 236.985V227.21V227.141L57.1282 225.902H57.059L54.6367 227.141V227.21Z" fill="#F2E9E4" fill-opacity="0.5"/>
<path d="M59.5506 214.888V205.113L57.1282 203.874H57.059L54.6367 205.113V214.888L57.1282 216.127L59.5506 214.888Z" fill="#F2E9E4" fill-opacity="0.5"/>
<path d="M52.1439 -82.9032L49.6523 -81.6641V-71.8892L52.1439 -70.6501V-60.8752L49.6523 -59.6362V-49.8612L52.1439 -48.5533V-38.8473L49.6523 -37.5394V-27.7645L52.1439 -26.5254V-16.7505L49.6523 -15.5114V-5.73648L52.1439 -4.49741V5.2775L49.6523 6.58542V16.3603L52.1439 17.5994L54.6354 16.3603V6.58542L57.1269 5.2775V-4.49741L54.6354 -5.73648V-15.5114L57.0577 -16.7505H57.1269V-26.5254L54.6354 -27.7645V-37.5394L57.0577 -38.8473H57.1269V-48.5533L54.6354 -49.8612V-59.6362L57.0577 -60.8752H57.1269V-70.6501L54.6354 -71.8892V-81.6641L57.0577 -82.9032H57.1269V-92.6781L56.2272 -93.16L54.6354 -93.986V-103.761L52.1439 -105L49.6523 -103.761V-93.986L52.1439 -92.6781V-82.9032Z" fill="#F2E9E4" fill-opacity="0.5"/>
<path d="M47.1621 292.123L49.6536 293.362L52.1452 292.123V282.348L49.6536 281.04L47.1621 282.348V292.123Z" fill="#F2E9E4" fill-opacity="0.5"/>
<path d="M47.1621 270.027L49.6536 271.335L52.1452 270.027V260.252L49.6536 259.013L47.1621 260.252V270.027Z" fill="#F2E9E4" fill-opacity="0.5"/>
<path d="M47.1621 247.998L49.6536 249.237L52.1452 247.998V238.223L49.6536 236.984L47.1621 238.223V247.998Z" fill="#F2E9E4" fill-opacity="0.5"/>
<path d="M47.1621 225.901L49.6536 227.14L52.1452 225.901V216.126L49.6536 214.887L47.1621 216.126V225.901Z" fill="#F2E9E4" fill-opacity="0.5"/>
<path d="M52.1452 203.874V194.099L49.6536 192.86L47.1621 194.099V203.874L49.6536 205.113L52.1452 203.874Z" fill="#F2E9E4" fill-opacity="0.5"/>
<path d="M7.50589 436.75V446.525L5.01433 447.764V457.539L7.50589 458.847V468.622L5.01433 469.861V479.636L7.50589 480.875V490.65L5.01433 491.889V501.664L7.50589 502.972V512.747L5.01433 513.986V523.761L2.52281 525L0.03125 523.761V513.986L2.52281 512.747V502.972L0.03125 501.664V491.889L2.52281 490.65V480.875L0.03125 479.636V469.861L2.52281 468.622V458.847L0.03125 457.539V447.764L2.52281 446.525V436.75L0.03125 435.511V425.736L2.52281 424.497V414.722L0.03125 413.414V403.64L2.52281 402.4V392.626L0.03125 391.386V381.612L2.52281 380.372V370.598L0.03125 369.29V359.515L2.52281 358.276V348.501L0.03125 347.262V337.487L2.52281 336.248V326.473L5.01433 325.165V315.39L2.52281 314.151V304.376L0.03125 303.137V293.362L2.52281 292.123V282.348L5.01433 281.04L7.50589 282.348L9.99741 281.04L12.4197 282.348L14.9113 281.04L17.4028 282.348L19.8943 281.04L22.3859 282.348V292.123L19.8943 293.362V303.137L22.3859 304.376L24.8774 303.137L27.2997 304.376L29.7913 303.137L32.2828 304.376L34.7743 303.137L37.2659 304.376L39.7574 303.137L42.2489 304.376L44.6713 303.137L47.1628 304.376L49.6543 303.137L52.1459 304.376L54.6374 303.137V293.362L57.1289 292.123L59.5513 293.362L62.0428 292.123V282.348L64.5343 281.04L67.0259 282.348L69.5174 281.04V271.334L67.0259 270.026L64.5343 271.334L62.0428 270.026V260.251L64.5343 259.012L67.0259 260.251L69.5174 259.012V249.237L67.0259 247.998L64.5343 249.237L62.0428 247.998V238.223L64.5343 236.984L67.0259 238.223L69.5174 236.984V227.209V227.14L67.0259 225.901L64.5343 227.14L62.0428 225.901V216.126L64.5343 214.887L67.0259 216.126L69.5174 214.887V205.112L67.0259 203.873L64.5343 205.112L62.0428 203.873V194.099L64.5343 192.859L67.0259 194.099L69.5174 192.859V183.085L67.0259 181.777L64.5343 183.085L62.0428 181.777L59.5513 183.085V192.859L57.1289 194.099L54.6374 192.859V183.085L57.0597 181.777H57.1289V172.002L54.6374 170.763L52.1459 172.002V181.777L49.6543 183.085L47.1628 181.777V172.002L44.6713 170.763L42.2489 172.002L39.7574 170.763L37.2659 172.002L34.7743 170.763L32.2828 172.002L29.7913 170.763L27.2997 172.002L24.8774 170.763L22.3859 172.002V181.777L19.8943 183.085L17.4028 181.777L14.9113 183.085L12.4197 181.777L9.99741 183.085L7.50589 181.777L5.01433 183.085L2.52281 181.777V172.002L0.03125 170.763V160.988L2.52281 159.749V149.974L0.03125 148.735V138.96L2.52281 137.652V127.877L0.03125 126.638V116.863L2.52281 115.624V105.849L0.03125 104.61V94.835L2.52281 93.5271V83.7522L0.03125 82.5131V72.7382L2.52281 71.4991V61.7242L0.03125 60.4851V50.7102L2.52281 49.4023V39.6274L0.03125 38.3883V28.6134L2.52281 27.3743V17.5994L0.03125 16.3603V6.58543L2.52281 5.27752V-4.49739L0.03125 -5.73647V-15.5114L2.52281 -16.7505V-26.5254L0.03125 -27.7644V-37.5394L2.52281 -38.8473V-48.5533L0.03125 -49.8612V-59.6362L2.52281 -60.8752V-70.6501L0.03125 -71.8892V-81.6641L2.52281 -82.9032V-92.6781L0.03125 -93.986V-103.761L2.52281 -105L5.01433 -103.761V-93.986L7.50589 -92.6781V-82.9032L5.01433 -81.6641V-71.8892L7.50589 -70.6501V-60.8752L5.01433 -59.6362V-49.8612L7.50589 -48.5533V-38.8473L5.01433 -37.5394V-27.7644L7.50589 -26.5254V-16.7505L5.01433 -15.5114V-5.73647L7.50589 -4.49739V5.27752L5.01433 6.58543V16.3603L7.50589 17.5994V27.3743L5.01433 28.6134V38.3883L7.50589 39.6274V49.4023L5.01433 50.7102V60.4851L7.50589 61.7242V71.4991L5.01433 72.7382V82.5131L7.50589 83.7522V93.5271L9.99741 94.835L12.4197 93.5271V83.7522L14.9113 82.5131V72.7382L12.4197 71.4991V61.7242L14.9113 60.4851V50.7102L12.4197 49.4023V39.6274L14.9113 38.3883V28.6134L12.4197 27.3743V17.5994L14.9113 16.3603V6.58543L12.4197 5.27752V-4.49739L14.9113 -5.73647V-15.5114L12.4197 -16.7505V-26.5254L14.9113 -27.7644V-37.5394L12.4197 -38.8473V-48.5533L14.9113 -49.8612V-59.6362L12.4197 -60.8752V-70.6501L14.9113 -71.8892V-81.6641L12.4197 -82.9032V-92.6781L14.9113 -93.986V-103.761L17.4028 -105L19.8943 -103.761V-93.986L17.4028 -92.6781V-82.9032L19.8943 -81.6641V-71.8892L17.4028 -70.6501V-60.8752L19.8943 -59.6362V-49.8612L17.4028 -48.5533V-38.8473L19.8943 -37.5394V-27.7644L17.4028 -26.5254V-16.7505L19.8943 -15.5114V-5.73647L17.4028 -4.49739V5.27752L19.8943 6.58543V16.3603L17.4028 17.5994V27.3743L19.8943 28.6134V38.3883L17.4028 39.6274V49.4023L19.8943 50.7102V60.4851L17.4028 61.7242V71.4991L19.8943 72.7382V82.5131L22.3859 83.7522L24.8774 82.5131V72.7382L27.2997 71.4991V61.7242L24.8774 60.4851V50.7102L27.2997 49.4023V39.6274L24.8774 38.3883V28.6134L27.2997 27.3743V17.5994L24.8774 16.3603V6.58543L27.2997 5.27752V-4.49739L24.8774 -5.73647V-15.5114L27.2997 -16.7505V-26.5254L24.8774 -27.7644V-37.5394L27.2997 -38.8473V-48.5533L24.8774 -49.8612V-59.6362L27.2997 -60.8752V-70.6501L24.8774 -71.8892V-81.6641L27.2997 -82.9032V-92.6781L24.8774 -93.986V-103.761L27.2997 -105L29.7913 -103.761V-93.986L32.2828 -92.6781V-82.9032L29.7913 -81.6641V-71.8892L32.2828 -70.6501V-60.8752L29.7913 -59.6362V-49.8612L32.2828 -48.5533V-38.8473L29.7913 -37.5394V-27.7644L32.2828 -26.5254V-16.7505L29.7913 -15.5114V-5.73647L32.2828 -4.49739V5.27752L29.7913 6.58543V16.3603L32.2828 17.5994V27.3743L29.7913 28.6134V38.3883L32.2828 39.6274V49.4023L29.7913 50.7102V60.4851L32.2828 61.7242V71.4991L29.7913 72.7382V82.5131L32.2828 83.7522L34.7743 82.5131L37.2659 83.7522L39.7574 82.5131V72.7382L37.2659 71.4991V61.7242L39.7574 60.4851V50.7102L37.2659 49.4023V39.6274L39.7574 38.3883V28.6134L37.2659 27.3743V17.5994L39.7574 16.3603V6.58543L37.2659 5.27752V-4.49739L39.7574 -5.73647V-15.5114L37.2659 -16.7505V-26.5254L39.7574 -27.7644V-37.5394L37.2659 -38.8473V-48.5533L39.7574 -49.8612V-59.6362L37.2659 -60.8752V-70.6501L39.7574 -71.8892V-81.6641L37.2659 -82.9032V-92.6781L39.7574 -93.986V-103.761L42.2489 -105L44.6713 -103.761V-93.986L42.2489 -92.6781V-82.9032L44.6713 -81.6641V-71.8892L42.2489 -70.6501V-60.8752L44.6713 -59.6362V-49.8612L42.2489 -48.5533V-38.8473L44.6713 -37.5394V-27.7644L42.2489 -26.5254V-16.7505L44.6713 -15.5114V-5.73647L42.2489 -4.49739V5.27752L44.6713 6.58543V16.3603L42.2489 17.5994V27.3743L44.6713 28.6134V38.3883L42.2489 39.6274V49.4023L44.6713 50.7102V60.4851L42.2489 61.7242V71.4991L44.6713 72.7382V82.5131L47.1628 83.7522L49.6543 82.5131V72.7382L52.1459 71.4991V61.7242L49.6543 60.4851V50.7102L52.1459 49.4023V39.6274L49.6543 38.3883V28.6134L52.1459 27.3743V17.5994L54.6374 16.3603L56.2292 17.1864L57.1289 17.5994V27.3743H57.0597L54.6374 28.6134V38.3883L57.1289 39.6274V49.4023H57.0597L54.6374 50.7102V60.4851L57.1289 61.7242V71.4991H57.0597L54.6374 72.7382V82.5131L57.1289 83.7522L59.5513 82.5131L62.0428 83.7522L64.5343 82.5131V72.7382L62.0428 71.4991V61.7242L64.5343 60.4851V50.7102L62.0428 49.4023V39.6274L64.5343 38.3883V28.6134L62.0428 27.3743V17.5994L64.5343 16.3603V6.58543L62.0428 5.27752V-4.49739L64.5343 -5.73647V-15.5114L62.0428 -16.7505V-26.5254L64.5343 -27.7644V-37.5394L62.0428 -38.8473V-48.5533L64.5343 -49.8612V-59.6362L62.0428 -60.8752V-70.6501L64.5343 -71.8892V-81.6641L62.0428 -82.9032V-92.6781L64.5343 -93.986V-103.761L67.0259 -105L69.5174 -103.761V-93.986L67.0259 -92.6781V-82.9032L69.5174 -81.6641V-71.8892L67.0259 -70.6501V-60.8752L69.5174 -59.6362V-49.8612L67.0259 -48.5533V-38.8473L69.5174 -37.5394V-27.7644L67.0259 -26.5254V-16.7505L69.5174 -15.5114V-5.73647L67.0259 -4.49739V5.27752L69.5174 6.58543V16.3603L67.0259 17.5994V27.3743L69.5174 28.6134V38.3883L67.0259 39.6274V49.4023L69.5174 50.7102V60.4851L67.0259 61.7242V71.4991L69.5174 72.7382V82.5131L67.0259 83.7522V93.5271L69.5174 94.835L72.0089 93.5271L74.4313 94.835V104.61L72.0089 105.849V115.624L69.5174 116.863L67.0259 115.624L64.5343 116.863L62.0428 115.624L59.5513 116.863L57.1289 115.624L54.6374 116.863L52.1459 115.624L49.6543 116.863L47.1628 115.624L44.6713 116.863L42.2489 115.624L39.7574 116.863L37.2659 115.624L34.7743 116.863L32.2828 115.624L29.7913 116.863L27.2997 115.624L24.8774 116.863L22.3859 115.624L19.8943 116.863V126.638L17.4028 127.877V137.652L19.8943 138.96V148.735L22.3859 149.974L24.8774 148.735L27.2997 149.974L29.7913 148.735L32.2828 149.974L34.7743 148.735L37.2659 149.974L39.7574 148.735L42.2489 149.974L44.6713 148.735L47.1628 149.974L49.6543 148.735L52.1459 149.974L54.6374 148.735L57.1289 149.974L59.5513 148.735L62.0428 149.974L64.5343 148.735L67.0259 149.974V159.749L69.5174 160.988L72.0089 159.749L74.4313 160.988V170.763L76.9228 172.002V181.777L79.4143 183.085V192.859L76.9228 194.099V203.873L79.4143 205.112V214.887L76.9228 216.126V225.901L79.4143 227.14V227.209V236.984L76.9228 238.223V247.998L79.4143 249.237V259.012L76.9228 260.251V270.026L79.4143 271.334V281.04L76.9228 282.348V292.123L74.4313 293.362V303.137L76.9228 304.376V314.151L79.4143 315.39V325.165L76.9228 326.473V336.248L79.4143 337.487V347.262L81.9059 348.501V358.276L79.4143 359.515V369.29L81.9059 370.598V380.372L79.4143 381.612V391.386L81.9059 392.626V402.4L79.4143 403.64V413.414L81.9059 414.722V424.497L79.4143 425.736V435.511L81.9059 436.75V446.525L79.4143 447.764V457.539L81.9059 458.847V468.622L79.4143 469.861V479.636L81.9059 480.875V490.65L79.4143 491.889V501.664L81.9059 502.972V512.747L79.4143 513.986V523.761L76.9228 525L74.4313 523.761V513.986L76.9228 512.747V502.972L74.4313 501.664V491.889L76.9228 490.65V480.875L74.4313 479.636V469.861L76.9228 468.622V458.847L74.4313 457.539V447.764L76.9228 446.525V436.75L74.4313 435.511V425.736L76.9228 424.497V414.722L74.4313 413.414V403.64L76.9228 402.4V392.626L74.4313 391.386V381.612L76.9228 380.372V370.598L74.4313 369.29V359.515L76.9228 358.276V348.501L74.4313 347.262V337.487L72.0089 336.248V326.473L74.4313 325.165V315.39L72.0089 314.151L69.5174 315.39V325.165L67.0259 326.473V336.248L69.5174 337.487V347.262L67.0259 348.501V358.276L69.5174 359.515V369.29L67.0259 370.598V380.372L69.5174 381.612V391.386L67.0259 392.626V402.4L69.5174 403.64V413.414L67.0259 414.722V424.497L69.5174 425.736V435.511L67.0259 436.75V446.525L69.5174 447.764V457.539L67.0259 458.847V468.622L69.5174 469.861V479.636L67.0259 480.875V490.65L69.5174 491.889V501.664L67.0259 502.972V512.747L69.5174 513.986V523.761L67.0259 525L64.5343 523.761V513.986L62.0428 512.747V502.972L64.5343 501.664V491.889L62.0428 490.65V480.875L64.5343 479.636V469.861L62.0428 468.622V458.847L64.5343 457.539V447.764L62.0428 446.525V436.75L64.5343 435.511V425.736L62.0428 424.497V414.722L64.5343 413.414V403.64L62.0428 402.4V392.626L64.5343 391.386V381.612L62.0428 380.372V370.598L64.5343 369.29V359.515L62.0428 358.276V348.501L64.5343 347.262V337.487L62.0428 336.248L59.5513 337.487L57.1289 336.248L54.6374 337.487V347.262L57.1289 348.501V358.276H57.0597L54.6374 359.515V369.29L57.1289 370.598V380.372H57.0597L54.6374 381.612V391.386L57.1289 392.626V402.4L54.6374 403.64V413.414L57.1289 414.722V424.497L54.6374 425.736V435.511L57.1289 436.75V446.525L54.6374 447.764V457.539L57.1289 458.847V468.622L54.6374 469.861V479.636L57.1289 480.875V490.65H57.0597L54.6374 491.889V501.664L57.1289 502.972V512.747L54.6374 513.986V523.761L52.1459 525L49.6543 523.761V513.986L52.1459 512.747V502.972L49.6543 501.664V491.889L52.1459 490.65V480.875L49.6543 479.636V469.861L52.1459 468.622V458.847L49.6543 457.539V447.764L52.1459 446.525V436.75L49.6543 435.511V425.736L52.1459 424.497V414.722L49.6543 413.414V403.64L52.1459 402.4V392.626L49.6543 391.386V381.612L52.1459 380.372V370.598L49.6543 369.29V359.515L52.1459 358.276V348.501L49.6543 347.262V337.487L47.1628 336.248L44.6713 337.487V347.262L42.2489 348.501V358.276L44.6713 359.515V369.29L42.2489 370.598V380.372L44.6713 381.612V391.386L42.2489 392.626V402.4L44.6713 403.64V413.414L42.2489 414.722V424.497L44.6713 425.736V435.511L42.2489 436.75V446.525L44.6713 447.764V457.539L42.2489 458.847V468.622L44.6713 469.861V479.636L42.2489 480.875V490.65L44.6713 491.889V501.664L42.2489 502.972V512.747L44.6713 513.986V523.761L42.2489 525L39.7574 523.761V513.986L37.2659 512.747V502.972L39.7574 501.664V491.889L37.2659 490.65V480.875L39.7574 479.636V469.861L37.2659 468.622V458.847L39.7574 457.539V447.764L37.2659 446.525V436.75L39.7574 435.511V425.736L37.2659 424.497V414.722L39.7574 413.414V403.64L37.2659 402.4V392.626L39.7574 391.386V381.612L37.2659 380.372V370.598L39.7574 369.29V359.515L37.2659 358.276V348.501L39.7574 347.262V337.487L37.2659 336.248L34.7743 337.487L32.2828 336.248L29.7913 337.487V347.262L32.2828 348.501V358.276L29.7913 359.515V369.29L32.2828 370.598V380.372L29.7913 381.612V391.386L32.2828 392.626V402.4L29.7913 403.64V413.414L32.2828 414.722V424.497L29.7913 425.736V435.511L32.2828 436.75V446.525L29.7913 447.764V457.539L32.2828 458.847V468.622L29.7913 469.861V479.636L32.2828 480.875V490.65L29.7913 491.889V501.664L32.2828 502.972V512.747L29.7913 513.986V523.761L27.2997 525L24.8774 523.761V513.986L27.2997 512.747V502.972L24.8774 501.664V491.889L27.2997 490.65V480.875L24.8774 479.636V469.861L27.2997 468.622V458.847L24.8774 457.539V447.764L27.2997 446.525V436.75L24.8774 435.511V425.736L27.2997 424.497V414.722L24.8774 413.414V403.64L27.2997 402.4V392.626L24.8774 391.386V381.612L27.2997 380.372V370.598L24.8774 369.29V359.515L27.2997 358.276V348.501L24.8774 347.262V337.487L22.3859 336.248L19.8943 337.487V347.262L17.4028 348.501V358.276L19.8943 359.515V369.29L17.4028 370.598V380.372L19.8943 381.612V391.386L17.4028 392.626V402.4L19.8943 403.64V413.414L17.4028 414.722V424.497L19.8943 425.736V435.511L17.4028 436.75V446.525L19.8943 447.764V457.539L17.4028 458.847V468.622L19.8943 469.861V479.636L17.4028 480.875V490.65L19.8943 491.889V501.664L17.4028 502.972V512.747L19.8943 513.986V523.761L17.4028 525L14.9113 523.761V513.986L12.4197 512.747V502.972L14.9113 501.664V491.889L12.4197 490.65V480.875L14.9113 479.636V469.861L12.4197 468.622V458.847L14.9113 457.539V447.764L12.4197 446.525V436.75L14.9113 435.511V425.736L12.4197 424.497V414.722L14.9113 413.414V403.64L12.4197 402.4V392.626L14.9113 391.386V381.612L12.4197 380.372V370.598L14.9113 369.29V359.515L12.4197 358.276V348.501L14.9113 347.262V337.487L12.4197 336.248V326.473L9.99741 325.165L7.50589 326.473V336.248L5.01433 337.487V347.262L7.50589 348.501V358.276L5.01433 359.515V369.29L7.50589 370.598V380.372L5.01433 381.612V391.386L7.50589 392.626V402.4L5.01433 403.64V413.414L7.50589 414.722V424.497L5.01433 425.736V435.511L7.50589 436.75Z" fill="#F2E9E4" fill-opacity="0.5"/>
<path d="M34.7754 281.04L37.267 282.348L39.7585 281.04V271.334L37.267 270.026L34.7754 271.334V281.04Z" fill="#F2E9E4" fill-opacity="0.5"/>
<path d="M34.7754 259.012L37.267 260.251L39.7585 259.012V249.237L37.267 247.998L34.7754 249.237V259.012Z" fill="#F2E9E4" fill-opacity="0.5"/>
<path d="M34.7754 227.21V236.985L37.267 238.224L39.7585 236.985V227.21V227.141L37.267 225.902L34.7754 227.141V227.21Z" fill="#F2E9E4" fill-opacity="0.5"/>
<path d="M34.7754 214.889L37.267 216.128L39.7585 214.889V205.114L37.267 203.875L34.7754 205.114V214.889Z" fill="#F2E9E4" fill-opacity="0.5"/>
<path d="M39.7585 192.859V183.084L37.267 181.776L34.7754 183.084V192.859L37.267 194.098L39.7585 192.859Z" fill="#F2E9E4" fill-opacity="0.5"/>
</g>
<defs>
<clipPath id="clip0_1206_394614">
<rect width="179" height="413" fill="white"/>
</clipPath>
</defs>
</svg>
