<svg width="147" height="48" viewBox="0 0 147 48" fill="none" xmlns="http://www.w3.org/2000/svg">
<g clip-path="url(#clip0_1504_13840)">
<path d="M1.278 17.792H6.228C9.234 17.792 12.042 19.7 12.042 24.254C12.042 28.322 9.828 30.5 6.084 30.5H1.278V17.792ZM3.654 19.934V28.358H5.13C7.884 28.358 9.522 27.836 9.522 24.254C9.522 21.122 7.974 19.934 5.616 19.934H3.654ZM22.6261 25.964C22.6261 28.376 21.1141 30.77 18.0541 30.77C14.7781 30.77 13.3741 28.16 13.3741 25.964C13.3741 23.804 14.7961 21.23 17.9821 21.23C19.9441 21.23 22.6081 22.544 22.6261 25.964ZM15.6241 25.91C15.6241 27.494 16.5061 28.79 18.0541 28.79C19.6381 28.79 20.3761 27.44 20.3761 26.072C20.3761 24.632 19.6021 23.174 17.9461 23.174C16.6861 23.174 15.6241 24.092 15.6241 25.91ZM36.4683 21.5L33.7683 30.5H31.6263L30.0063 24.758L28.2963 30.5H26.1543L23.5443 21.5H25.7943L27.3603 27.656L29.0343 21.5H30.9603L32.6163 27.656L34.2183 21.5H36.4683ZM37.8723 21.5H40.0503V22.562C40.8603 21.338 42.4623 21.23 42.8223 21.23C44.7303 21.23 45.7383 22.472 45.7383 24.236V30.5H43.6143V25.442C43.6143 24.452 43.3623 23.336 42.0303 23.336C41.7963 23.336 41.3463 23.372 40.8963 23.75C40.2483 24.29 40.0503 25.046 40.0503 26.594V30.5H37.8723V21.5ZM50.2117 30.5H48.0157V17.792H50.2117V30.5ZM61.2277 25.964C61.2277 28.376 59.7157 30.77 56.6557 30.77C53.3797 30.77 51.9757 28.16 51.9757 25.964C51.9757 23.804 53.3977 21.23 56.5837 21.23C58.5457 21.23 61.2097 22.544 61.2277 25.964ZM54.2257 25.91C54.2257 27.494 55.1077 28.79 56.6557 28.79C58.2397 28.79 58.9777 27.44 58.9777 26.072C58.9777 24.632 58.2037 23.174 56.5477 23.174C55.2877 23.174 54.2257 24.092 54.2257 25.91ZM70.8398 30.5H68.2838L68.2298 29.798C67.6358 30.266 66.6818 30.716 65.5838 30.716C63.5318 30.716 62.3078 29.474 62.3078 27.962C62.3078 26 63.8018 25.226 65.5118 24.92C66.8618 24.668 67.7078 24.452 68.2838 24.254C68.2838 23.57 68.0858 22.904 66.7358 22.904C65.0978 22.904 64.9178 23.786 64.9178 24.254L62.7218 24.128C62.7578 23.534 62.8838 21.23 66.6638 21.23C69.3098 21.23 70.4438 22.202 70.4438 23.786V29.042C70.4438 29.726 70.4798 29.924 70.8398 30.5ZM68.2838 27.224V26.018C67.9238 26.198 67.4018 26.396 66.5738 26.522C65.5838 26.666 64.5938 26.864 64.5938 27.764C64.5938 28.358 64.9898 28.862 66.0698 28.862C67.0598 28.862 68.2838 28.358 68.2838 27.224ZM80.8837 30.5H78.7417V29.636C78.5617 29.852 77.8417 30.77 76.2397 30.77C74.3497 30.77 72.2437 29.456 72.2437 26.18C72.2437 22.958 74.2057 21.23 76.3297 21.23C77.0677 21.23 78.1477 21.5 78.7417 22.238V17.792H80.8837V30.5ZM74.4937 25.946C74.4937 27.278 75.0517 28.808 76.6357 28.808C77.8057 28.808 78.7237 27.836 78.7237 26.162C78.7237 24.794 78.3277 23.228 76.6537 23.228C75.3037 23.228 74.4937 24.434 74.4937 25.946Z" fill="white"/>
<path fill-rule="evenodd" clip-rule="evenodd" d="M122.154 13V26.9492L116.335 21.1063L115.16 22.3724L123 30.2453L130.84 22.3724L129.665 21.1063L123.846 26.9492V13H122.154ZM132.308 33.24V30.4786H134V35H112V30.4786H113.692V33.24H132.308Z" fill="white"/>
<rect x="99.5" y="0.5" width="47" height="47" rx="9.5" stroke="white"/>
</g>
<defs>
<clipPath id="clip0_1504_13840">
<rect width="147" height="48" rx="10" fill="white"/>
</clipPath>
</defs>
</svg>
