<svg id="Layer_1" data-name="Layer 1" xmlns="http://www.w3.org/2000/svg" viewBox="0 0 358.79 280.2"><defs><style>.cls-1{fill:#e28c50;}</style></defs><path class="cls-1" d="M504.5,595.8H482.4v-1.1a14.35,14.35,0,0,0-.8-4.6c1.5-.6,6.7-2.5,8.2-3.1,1.8-.6,1.3-1.4,1.3-1.5,0-.3-.1-.6-1.1-.1s-8.8,3.3-8.8,3.3a10.53,10.53,0,0,0-2-3.4c2-1.8,14.4-12.9,15.2-13.4s1.1-1,.9-1.6a.84.84,0,0,0-1.3-.3l-16.1,13.9a15.58,15.58,0,0,0-2-1.6c.8-1.6,4.8-10.4,5-10.8s.6-1.4,0-1.6c-1.1-.5-1.4.3-1.4.3l-5.6,11a13.42,13.42,0,0,0-5.1-1.4c0-2.5.3-16.1.3-16.8,0-.9-.4-.9-.9-.9s-1,.1-1.1.6-.8,16.9-.8,16.9a15.47,15.47,0,0,0-3.1.6c-.8-1.9-3.6-8.7-4.1-9.8-.6-1.4-1.6-.6-1.6-.6-.3.3.1.9.6,2s3.6,9.2,3.6,9.2a13.5,13.5,0,0,0-2.6,1.5c-1.9-2.5-11.3-14.9-12.2-15.9a2.75,2.75,0,0,0-2.3-.9c-.4.4-.4.6.4,1.5s12.4,16.6,12.4,16.6a15.89,15.89,0,0,0-2.4,2.9s-7.8-4.6-8.9-5.3a1.68,1.68,0,0,0-1.9.1.85.85,0,0,0,.3.8c.4.3,9.8,5.6,9.8,5.6a15.16,15.16,0,0,0-1.8,7v.9H437.8a2,2,0,0,0-1.6.4c-.5.4-.4,1,.6,1h15.8a12.91,12.91,0,0,0,.5,2.1s-8.5,3.5-9.7,3.8-1.5,1.1-1.3,1.4.5.4,1.3.3,10.2-3.8,10.2-3.8c.5,1,1,2,1.6,3,0,0-13.8,12.8-14.3,13.2s-.9.8-.5,1c.4.4,1,.4,1.8-.3.6-.6,14.2-12.6,14.2-12.6a16.2,16.2,0,0,0,4.5,3.4s-4.3,8.8-4.6,9.7c-.5.9,0,1.4.4,1.5a1.68,1.68,0,0,0,1.8-1.3c.5-1.1,4.4-9.3,4.4-9.3a12.66,12.66,0,0,0,2.8.6s-.5,19-.5,19.6c0,.8.8.8,1.1.8s1.1,0,1.1-.6.5-19.7.5-19.7a13.93,13.93,0,0,0,5-1c.8,1.6,2.8,6.5,3.3,7.7.5,1.4,2.8.6,2.4-.1s-3.5-8.7-3.5-8.7c.3-.1.5-.4.8-.5,2,2.5,13.1,16.9,13.8,17.7.9.9,2.1-.1,1.9-.5-.4-.4-14.2-18.3-14.2-18.3a21.23,21.23,0,0,0,3-3.6c1.5.9,7.3,4.3,8.5,5,1.4.9,2.9-.4,2.4-.8s-10-5.9-10-5.9a11.37,11.37,0,0,0,1-3.6H504c.9,0,1.1-.5,1.1-.8C505.2,596.1,505,595.8,504.5,595.8Z" transform="translate(-359.31 -484.2)"/><path class="cls-1" d="M568.8,581.1H546.7V580a14.35,14.35,0,0,0-.8-4.6c1.5-.6,6.7-2.5,8.2-3.1,1.8-.6,1.3-1.4,1.3-1.5,0-.3-.1-.6-1.1-.1s-8.8,3.3-8.8,3.3a10.53,10.53,0,0,0-2-3.4c2-1.8,14.4-12.9,15.2-13.4s1.1-1,.9-1.6a.84.84,0,0,0-1.3-.3l-16.1,13.9a15.58,15.58,0,0,0-2-1.6c.8-1.6,4.8-10.4,5-10.8s.6-1.4,0-1.6c-1.1-.5-1.4.3-1.4.3l-5.6,11a13.42,13.42,0,0,0-5.1-1.4c0-2.5.3-16.1.3-16.8,0-.9-.4-.9-.9-.9s-1,.1-1.1.6-.8,16.9-.8,16.9a15.47,15.47,0,0,0-3.1.6c-.8-1.9-3.6-8.7-4.1-9.8-.6-1.4-1.6-.6-1.6-.6-.3.3.1.9.6,2s3.6,9.2,3.6,9.2a13.5,13.5,0,0,0-2.6,1.5c-1.9-2.5-11.3-14.9-12.2-15.9a2.75,2.75,0,0,0-2.3-.9c-.4.4-.4.6.4,1.5s12.4,16.6,12.4,16.6a15.89,15.89,0,0,0-2.4,2.9s-7.8-4.6-8.9-5.3a1.68,1.68,0,0,0-1.9.1.85.85,0,0,0,.3.8c.4.3,9.8,5.6,9.8,5.6a15.16,15.16,0,0,0-1.8,7v.9H502.1a2,2,0,0,0-1.6.4c-.5.4-.4,1,.6,1h15.8a12.91,12.91,0,0,0,.5,2.1s-8.5,3.5-9.7,3.8-1.5,1.1-1.3,1.4.5.4,1.3.3,10.2-3.8,10.2-3.8c.5,1,1,2,1.6,3,0,0-13.8,12.8-14.3,13.2s-.9.8-.5,1c.4.4,1,.4,1.8-.3s14.2-12.6,14.2-12.6a16.2,16.2,0,0,0,4.5,3.4s-4.3,8.8-4.6,9.7,0,1.4.4,1.5a1.68,1.68,0,0,0,1.8-1.3c.4-1.1,4.4-9.3,4.4-9.3a12.66,12.66,0,0,0,2.8.6s-.5,19-.5,19.6.8.8,1.1.8,1.1,0,1.1-.6.5-19.7.5-19.7a13.93,13.93,0,0,0,5-1c.8,1.6,2.8,6.5,3.3,7.7.5,1.4,2.8.6,2.4-.1s-3.5-8.7-3.5-8.7c.3-.1.5-.4.8-.5,2,2.5,13.1,16.9,13.8,17.7.9.9,2.1-.1,1.9-.5-.4-.4-14.2-18.3-14.2-18.3a21.23,21.23,0,0,0,3-3.6c1.5.9,7.3,4.3,8.5,5,1.4.9,2.9-.4,2.4-.8s-10-5.9-10-5.9a11.37,11.37,0,0,0,1-3.6h21.7c.9,0,1.1-.5,1.1-.8C569.1,581.5,569.3,581.1,568.8,581.1Z" transform="translate(-359.31 -484.2)"/><path class="cls-1" d="M617.8,615.4H595.7v-1.1a14.35,14.35,0,0,0-.8-4.6c1.5-.6,6.7-2.5,8.2-3.1,1.8-.6,1.3-1.4,1.3-1.5,0-.3-.1-.6-1.1-.1s-8.8,3.3-8.8,3.3a10.53,10.53,0,0,0-2-3.4c2-1.8,14.4-12.9,15.2-13.4s1.1-1,.9-1.6a.84.84,0,0,0-1.3-.3l-16.1,13.9a15.58,15.58,0,0,0-2-1.6c.8-1.6,4.8-10.4,5-10.8s.6-1.4,0-1.6c-1.1-.5-1.4.3-1.4.3l-5.6,11a13.42,13.42,0,0,0-5.1-1.4c0-2.5.3-16.1.3-16.8,0-.9-.4-.9-.9-.9s-1,.1-1.1.6-.8,16.9-.8,16.9a15.47,15.47,0,0,0-3.1.6c-.8-1.9-3.6-8.7-4.1-9.8-.6-1.4-1.6-.6-1.6-.6-.3.3.1.9.6,2s3.6,9.2,3.6,9.2a13.5,13.5,0,0,0-2.6,1.5c-1.9-2.5-11.3-14.9-12.2-15.9a2.75,2.75,0,0,0-2.3-.9c-.4.4-.4.6.4,1.5s12.4,16.6,12.4,16.6a15.89,15.89,0,0,0-2.4,2.9s-7.8-4.6-8.9-5.3a1.68,1.68,0,0,0-1.9.1.85.85,0,0,0,.3.8c.4.3,9.8,5.6,9.8,5.6a15.16,15.16,0,0,0-1.8,7v.9H551.1a2,2,0,0,0-1.6.4c-.5.5-.4,1,.6,1h15.8a12.91,12.91,0,0,0,.5,2.1s-8.5,3.5-9.7,3.8-1.5,1.1-1.3,1.4.5.4,1.3.3,10.2-3.8,10.2-3.8c.5,1,1,2,1.6,3,0,0-13.8,12.8-14.3,13.2s-.9.8-.5,1c.4.4,1,.4,1.8-.3s14.2-12.6,14.2-12.6a16.2,16.2,0,0,0,4.5,3.4s-4.3,8.8-4.6,9.7,0,1.4.4,1.5a1.68,1.68,0,0,0,1.8-1.3c.5-1.1,4.4-9.3,4.4-9.3a12.66,12.66,0,0,0,2.8.6s-.5,19-.5,19.6.8.8,1.1.8,1.1,0,1.1-.6.5-19.7.5-19.7a13.93,13.93,0,0,0,5-1c.8,1.6,2.8,6.5,3.3,7.7.5,1.4,2.8.6,2.4-.1s-3.5-8.7-3.5-8.7c.3-.1.5-.4.8-.5,2,2.5,13.1,16.9,13.8,17.7.9.9,2.1-.1,1.9-.5-.4-.4-14.2-18.3-14.2-18.3a21.23,21.23,0,0,0,3-3.6c1.5.9,7.3,4.3,8.5,5,1.4.9,2.9-.4,2.4-.8s-10-5.9-10-5.9a11.37,11.37,0,0,0,1-3.6h21.7c.9,0,1.1-.5,1.1-.8C618.5,615.6,618.3,615.4,617.8,615.4Z" transform="translate(-359.31 -484.2)"/><path class="cls-1" d="M636.7,553.9H614.6v-1.1a14.35,14.35,0,0,0-.8-4.6c1.5-.6,6.7-2.5,8.2-3.1,1.8-.6,1.3-1.4,1.3-1.5,0-.3-.1-.6-1.1-.1s-8.8,3.3-8.8,3.3a10.53,10.53,0,0,0-2-3.4c2-1.8,14.4-12.9,15.2-13.4s1.1-1,.9-1.6a.84.84,0,0,0-1.3-.3L610,541.8a15.58,15.58,0,0,0-2-1.6c.8-1.6,4.8-10.4,5-10.8s.6-1.4,0-1.6c-1.1-.5-1.4.3-1.4.3l-5.6,11a13.42,13.42,0,0,0-5.1-1.4c0-2.5.3-16.1.3-16.8,0-.9-.4-.9-.9-.9s-1,.1-1.1.6-.8,16.9-.8,16.9a15.47,15.47,0,0,0-3.1.6c-.8-1.9-3.6-8.7-4.1-9.8-.6-1.4-1.6-.6-1.6-.6-.3.3.1.9.6,2s3.6,9.2,3.6,9.2a13.5,13.5,0,0,0-2.6,1.5c-1.9-2.5-11.3-14.9-12.2-15.9a2.75,2.75,0,0,0-2.3-.9c-.4.4-.4.6.4,1.5s12.4,16.6,12.4,16.6a15.89,15.89,0,0,0-2.4,2.9s-7.8-4.6-8.9-5.3a1.68,1.68,0,0,0-1.9.1.85.85,0,0,0,.3.8c.4.3,9.8,5.6,9.8,5.6a15.16,15.16,0,0,0-1.8,7v.9H569.9a2,2,0,0,0-1.6.4c-.5.5-.4,1,.6,1h15.8a12.91,12.91,0,0,0,.5,2.1s-8.5,3.5-9.7,3.8-1.5,1.1-1.3,1.4.5.4,1.3.3l10.2-3.8c.5,1,1,2,1.6,3,0,0-13.8,12.8-14.3,13.2s-.9.8-.5,1c.4.4,1,.4,1.8-.3s14.2-12.6,14.2-12.6a16.2,16.2,0,0,0,4.5,3.4s-4.3,8.8-4.6,9.7,0,1.4.4,1.5a1.68,1.68,0,0,0,1.8-1.3c.4-1.1,4.4-9.3,4.4-9.3a12.66,12.66,0,0,0,2.8.6s-.5,19-.5,19.6.8.8,1.1.8,1.1,0,1.1-.6.5-19.7.5-19.7a13.93,13.93,0,0,0,5-1c.8,1.6,2.8,6.5,3.3,7.7.5,1.4,2.8.6,2.4-.1s-3.5-8.7-3.5-8.7c.3-.1.5-.4.8-.5,2,2.5,13.1,16.9,13.8,17.7.9.9,2.1-.1,1.9-.5-.4-.4-14.2-18.3-14.2-18.3a21.23,21.23,0,0,0,3-3.6c1.5.9,7.3,4.3,8.5,5,1.4.9,2.9-.4,2.4-.8s-10-5.9-10-5.9a11.37,11.37,0,0,0,1-3.6h21.7c.9,0,1.1-.5,1.1-.8S637.2,553.9,636.7,553.9Z" transform="translate(-359.31 -484.2)"/><path class="cls-1" d="M676.1,622.2H654v-1.1a14.35,14.35,0,0,0-.8-4.6c1.5-.6,6.7-2.5,8.2-3.1,1.8-.6,1.3-1.4,1.3-1.5,0-.3-.1-.6-1.1-.1s-8.8,3.3-8.8,3.3a10.53,10.53,0,0,0-2-3.4c2-1.8,14.4-12.9,15.2-13.4s1.1-1,.9-1.6a.84.84,0,0,0-1.3-.3l-16.1,13.9a15.58,15.58,0,0,0-2-1.6c.8-1.6,4.8-10.4,5-10.8s.6-1.4,0-1.6c-1.1-.5-1.4.3-1.4.3l-5.6,11a13.42,13.42,0,0,0-5.1-1.4c0-2.5.3-16.1.3-16.8,0-.9-.4-.9-.9-.9s-1,.1-1.1.6-.8,16.9-.8,16.9a15.47,15.47,0,0,0-3.1.6c-.8-1.9-3.6-8.7-4.1-9.8-.6-1.4-1.6-.6-1.6-.6-.3.3.1.9.6,2s3.6,9.2,3.6,9.2a13.5,13.5,0,0,0-2.6,1.5c-1.9-2.5-11.3-14.9-12.2-15.9a2.75,2.75,0,0,0-2.3-.9c-.4.4-.4.6.4,1.5S629,610.2,629,610.2a15.89,15.89,0,0,0-2.4,2.9s-7.8-4.6-8.9-5.3a1.68,1.68,0,0,0-1.9.1.85.85,0,0,0,.3.8c.4.3,9.8,5.6,9.8,5.6a15.16,15.16,0,0,0-1.8,7v.9H609.4a2,2,0,0,0-1.6.4c-.5.4-.4,1,.6,1h15.8a12.91,12.91,0,0,0,.5,2.1s-8.5,3.5-9.7,3.8-1.5,1.1-1.3,1.4.5.4,1.3.3,10.2-3.8,10.2-3.8c.5,1,1,2,1.6,3,0,0-13.8,12.8-14.3,13.2s-.9.8-.5,1c.4.4,1,.4,1.8-.3.6-.6,14.2-12.6,14.2-12.6a16.2,16.2,0,0,0,4.5,3.4s-4.3,8.8-4.6,9.7c-.5.9,0,1.4.4,1.5a1.68,1.68,0,0,0,1.8-1.3c.5-1.1,4.4-9.3,4.4-9.3a12.66,12.66,0,0,0,2.8.6s-.5,19-.5,19.6.8.8,1.1.8,1.1,0,1.1-.6.5-19.7.5-19.7a13.93,13.93,0,0,0,5-1c.8,1.6,2.8,6.5,3.3,7.7.5,1.4,2.8.6,2.4-.1s-3.5-8.7-3.5-8.7c.3-.1.5-.4.8-.5,2,2.5,13.1,16.9,13.8,17.7.9.9,2.1-.1,1.9-.5-.4-.4-14.2-18.3-14.2-18.3a21.23,21.23,0,0,0,3-3.6c1.5.9,7.3,4.3,8.5,5,1.4.9,2.9-.4,2.4-.8s-10-5.9-10-5.9a11.37,11.37,0,0,0,1-3.6h21.7c.9,0,1.1-.5,1.1-.8C676.4,622.5,676.6,622.2,676.1,622.2Z" transform="translate(-359.31 -484.2)"/><path class="cls-1" d="M555.1,649.5H533v-1.1a14.35,14.35,0,0,0-.8-4.6c1.5-.6,6.7-2.5,8.2-3.1,1.8-.6,1.3-1.4,1.3-1.5,0-.3-.1-.6-1.1-.1s-8.8,3.3-8.8,3.3a10.53,10.53,0,0,0-2-3.4c2-1.8,14.4-12.9,15.2-13.4s1.1-1,.9-1.6a.84.84,0,0,0-1.3-.3l-16.1,13.9a15.58,15.58,0,0,0-2-1.6c.8-1.6,4.8-10.4,5-10.8s.6-1.4,0-1.6c-1.1-.5-1.4.3-1.4.3l-5.6,11a13.42,13.42,0,0,0-5.1-1.4c0-2.5.3-16.1.3-16.8,0-.9-.4-.9-.9-.9s-1,.1-1.1.6-.8,16.9-.8,16.9a15.47,15.47,0,0,0-3.1.6c-.8-1.9-3.6-8.7-4.1-9.8-.6-1.4-1.6-.6-1.6-.6-.3.3.1.9.6,2s3.6,9.2,3.6,9.2a13.5,13.5,0,0,0-2.6,1.5c-1.9-2.5-11.3-14.9-12.2-15.9a2.75,2.75,0,0,0-2.3-.9c-.4.4-.4.6.4,1.5S508,637.5,508,637.5a15.89,15.89,0,0,0-2.4,2.9s-7.8-4.6-8.9-5.3a1.68,1.68,0,0,0-1.9.1.85.85,0,0,0,.3.8c.4.3,9.8,5.6,9.8,5.6a15.16,15.16,0,0,0-1.8,7v.9H488.4a2,2,0,0,0-1.6.4c-.5.4-.4,1,.6,1h15.8a12.91,12.91,0,0,0,.5,2.1s-8.5,3.5-9.7,3.8-1.5,1.1-1.3,1.4.5.4,1.3.2,10.2-3.8,10.2-3.8c.5,1,1,2,1.6,3,0,0-13.8,12.8-14.3,13.2s-.9.8-.5,1c.4.4,1,.4,1.8-.3.6-.6,14.2-12.6,14.2-12.6a16.2,16.2,0,0,0,4.5,3.4s-4.3,8.8-4.6,9.7,0,1.4.4,1.5a1.68,1.68,0,0,0,1.8-1.3c.4-1.1,4.4-9.3,4.4-9.3a12.66,12.66,0,0,0,2.8.6s-.5,19-.5,19.6.8.8,1.1.8,1.1,0,1.1-.6.5-19.7.5-19.7a13.93,13.93,0,0,0,5-1c.8,1.6,2.8,6.5,3.3,7.7.5,1.4,2.8.6,2.4-.1s-3.5-8.7-3.5-8.7c.3-.1.5-.4.8-.5,2,2.5,13.1,16.9,13.8,17.7.9.9,2.1-.1,1.9-.5-.4-.4-14.2-18.3-14.2-18.3a21.23,21.23,0,0,0,3-3.6c1.5.9,7.3,4.3,8.5,5,1.4.9,2.9-.4,2.4-.8s-10-5.9-10-5.9a11.37,11.37,0,0,0,1-3.6h21.7c.9,0,1.1-.5,1.1-.8S555.6,649.5,555.1,649.5Z" transform="translate(-359.31 -484.2)"/><path class="cls-1" d="M624.2,679.3H602.1v-1.1a14.35,14.35,0,0,0-.8-4.6c1.5-.6,6.7-2.5,8.2-3.1,1.8-.6,1.3-1.4,1.3-1.5,0-.3-.1-.6-1.1-.1s-8.8,3.3-8.8,3.3a10.53,10.53,0,0,0-2-3.4c2-1.8,14.4-12.9,15.2-13.4s1.1-1,.9-1.6a.84.84,0,0,0-1.3-.3l-16.1,13.9a15.58,15.58,0,0,0-2-1.6c.8-1.6,4.8-10.4,5-10.8s.6-1.4,0-1.6c-1.1-.5-1.4.3-1.4.3l-5.6,11a13.42,13.42,0,0,0-5.1-1.4c0-2.5.3-16.1.3-16.8,0-.9-.4-.9-.9-.9s-1,.1-1.1.6-.8,16.9-.8,16.9a15.47,15.47,0,0,0-3.1.6c-.8-1.9-3.6-8.7-4.1-9.8-.6-1.4-1.6-.6-1.6-.6-.3.3.1.9.6,2s3.6,9.2,3.6,9.2a13.5,13.5,0,0,0-2.6,1.5c-1.9-2.5-11.3-14.9-12.2-15.9a2.75,2.75,0,0,0-2.3-.9c-.4.4-.4.6.4,1.5s12.4,16.6,12.4,16.6a15.89,15.89,0,0,0-2.4,2.9s-7.8-4.6-8.9-5.3a1.68,1.68,0,0,0-1.9.1.85.85,0,0,0,.3.8c.4.3,9.8,5.6,9.8,5.6a15.16,15.16,0,0,0-1.8,7v.9H557.5a2,2,0,0,0-1.6.4c-.5.4-.4,1,.6,1h15.8a12.91,12.91,0,0,0,.5,2.1s-8.5,3.5-9.7,3.8-1.5,1.1-1.3,1.4.5.4,1.3.3l10.2-3.8c.5,1,1,2,1.6,3,0,0-13.8,12.8-14.3,13.2s-.9.8-.5,1c.4.4,1,.4,1.8-.3s14.2-12.6,14.2-12.6a16.2,16.2,0,0,0,4.5,3.4s-4.3,8.8-4.6,9.7,0,1.4.4,1.5a1.68,1.68,0,0,0,1.8-1.3c.4-1.1,4.4-9.3,4.4-9.3a12.66,12.66,0,0,0,2.8.6s-.5,19-.5,19.6.8.8,1.1.8,1.1,0,1.1-.6.5-19.7.5-19.7a13.93,13.93,0,0,0,5-1c.8,1.6,2.8,6.5,3.3,7.7.5,1.4,2.8.6,2.4-.1s-3.5-8.7-3.5-8.7c.3-.1.5-.4.8-.5,2,2.5,13.1,16.9,13.8,17.7.9.9,2.1-.1,1.9-.5-.4-.4-14.2-18.3-14.2-18.3a21.23,21.23,0,0,0,3-3.6c1.5.9,7.3,4.3,8.5,5,1.4.9,2.9-.4,2.4-.8s-10-5.9-10-5.9a11.37,11.37,0,0,0,1-3.6h21.7c.9,0,1.1-.5,1.1-.8C624.6,679.7,624.7,679.3,624.2,679.3Z" transform="translate(-359.31 -484.2)"/><path class="cls-1" d="M717.5,553.9H695.4v-1.1a14.35,14.35,0,0,0-.8-4.6c1.5-.6,6.7-2.5,8.2-3.1,1.8-.6,1.3-1.4,1.3-1.5,0-.3-.1-.6-1.1-.1s-8.8,3.3-8.8,3.3a10.53,10.53,0,0,0-2-3.4c2-1.8,14.4-12.9,15.2-13.4s1.1-1,.9-1.6a.84.84,0,0,0-1.3-.3L690.9,542a15.58,15.58,0,0,0-2-1.6c.8-1.6,4.8-10.4,5-10.8s.6-1.4,0-1.6c-1.1-.5-1.4.3-1.4.3l-5.6,11a13.42,13.42,0,0,0-5.1-1.4c0-2.5.3-16.1.3-16.8,0-.9-.4-.9-.9-.9s-1,.1-1.1.6-.8,16.9-.8,16.9a15.47,15.47,0,0,0-3.1.6c-.8-1.9-3.6-8.7-4.1-9.8-.6-1.4-1.6-.6-1.6-.6-.3.3.1.9.6,2s3.6,9.2,3.6,9.2a13.5,13.5,0,0,0-2.6,1.5c-1.9-2.5-11.3-14.9-12.2-15.9a2.75,2.75,0,0,0-2.3-.9c-.4.4-.4.6.4,1.5s12.4,16.6,12.4,16.6a15.89,15.89,0,0,0-2.4,2.9s-7.8-4.6-8.9-5.3a1.68,1.68,0,0,0-1.9.1.85.85,0,0,0,.3.8c.4.3,9.8,5.6,9.8,5.6a15.16,15.16,0,0,0-1.8,7v.9H650.8a2,2,0,0,0-1.6.4c-.5.5-.4,1,.6,1h15.8a12.91,12.91,0,0,0,.5,2.1s-8.5,3.5-9.7,3.8-1.5,1.1-1.3,1.4.5.4,1.3.3l10.2-3.8c.5,1,1,2,1.6,3,0,0-13.8,12.8-14.3,13.2s-.9.8-.5,1c.4.4,1,.4,1.8-.3s14.2-12.6,14.2-12.6a16.2,16.2,0,0,0,4.5,3.4s-4.3,8.8-4.6,9.7,0,1.4.4,1.5a1.68,1.68,0,0,0,1.8-1.3c.4-1.1,4.4-9.3,4.4-9.3a12.66,12.66,0,0,0,2.8.6s-.5,19-.5,19.6.8.8,1.1.8,1.1,0,1.1-.6.5-19.7.5-19.7a13.93,13.93,0,0,0,5-1c.8,1.6,2.8,6.5,3.3,7.7.5,1.4,2.8.6,2.4-.1s-3.5-8.7-3.5-8.7c.3-.1.5-.4.8-.5,2,2.5,13.1,16.9,13.8,17.7.9.9,2.1-.1,1.9-.5-.4-.4-14.2-18.3-14.2-18.3a21.23,21.23,0,0,0,3-3.6c1.5.9,7.3,4.3,8.5,5,1.4.9,2.9-.4,2.4-.8s-10-5.9-10-5.9a11.37,11.37,0,0,0,1-3.6H717c.9,0,1.1-.5,1.1-.8S718,553.9,717.5,553.9Z" transform="translate(-359.31 -484.2)"/><path class="cls-1" d="M710.6,683.7H688.5v-1.1a14.35,14.35,0,0,0-.8-4.6c1.5-.6,6.7-2.5,8.2-3.1,1.8-.6,1.3-1.4,1.3-1.5,0-.3-.1-.6-1.1-.1s-8.8,3.3-8.8,3.3a10.53,10.53,0,0,0-2-3.4c2-1.8,14.4-12.9,15.2-13.4s1.1-1,.9-1.6a.84.84,0,0,0-1.3-.3L684,671.6a15.58,15.58,0,0,0-2-1.6c.8-1.6,4.8-10.4,5-10.8s.6-1.4,0-1.6c-1.1-.5-1.4.3-1.4.3l-5.6,11a13.42,13.42,0,0,0-5.1-1.4c0-2.5.3-16.1.3-16.8,0-.9-.4-.9-.9-.9s-1,.1-1.1.6-.8,16.9-.8,16.9a15.47,15.47,0,0,0-3.1.6c-.8-1.9-3.6-8.7-4.1-9.8-.6-1.4-1.6-.6-1.6-.6-.3.3.1.9.6,2s3.6,9.2,3.6,9.2a13.5,13.5,0,0,0-2.6,1.5c-1.9-2.5-11.3-14.9-12.2-15.9a2.75,2.75,0,0,0-2.3-.9c-.4.4-.4.6.4,1.5s12.4,16.6,12.4,16.6a15.89,15.89,0,0,0-2.4,2.9s-7.8-4.6-8.9-5.3a1.68,1.68,0,0,0-1.9.1.85.85,0,0,0,.3.8c.4.3,9.8,5.6,9.8,5.6a15.16,15.16,0,0,0-1.8,7v.9H643.9a2,2,0,0,0-1.6.4c-.5.4-.4,1,.6,1h15.8a12.91,12.91,0,0,0,.5,2.1s-8.5,3.5-9.7,3.8-1.5,1.1-1.3,1.4.5.4,1.3.3l10.2-3.8c.5,1,1,2,1.6,3,0,0-13.8,12.8-14.3,13.2s-.9.8-.5,1c.4.4,1,.4,1.8-.3S662.5,693,662.5,693a16.2,16.2,0,0,0,4.5,3.4s-4.3,8.8-4.6,9.7,0,1.4.4,1.5a1.68,1.68,0,0,0,1.8-1.3c.4-1.1,4.4-9.3,4.4-9.3a12.66,12.66,0,0,0,2.8.6s-.5,19-.5,19.6.8.8,1.1.8,1.1,0,1.1-.6.5-19.7.5-19.7a13.93,13.93,0,0,0,5-1c.8,1.6,2.8,6.5,3.3,7.7.5,1.4,2.8.6,2.4-.1s-3.5-8.7-3.5-8.7c.3-.1.5-.4.8-.5,2,2.5,13.1,16.9,13.8,17.7.9.9,2.1-.1,1.9-.5-.4-.4-14.2-18.3-14.2-18.3a21.23,21.23,0,0,0,3-3.6c1.5.9,7.3,4.3,8.5,5,1.4.9,2.9-.4,2.4-.8s-10-5.9-10-5.9a11.37,11.37,0,0,0,1-3.6h21.7c.9,0,1.1-.5,1.1-.8C711,684,711.2,683.7,710.6,683.7Z" transform="translate(-359.31 -484.2)"/><path class="cls-1" d="M492.1,664.2H470v-1.1a14.35,14.35,0,0,0-.8-4.6c1.5-.6,6.7-2.5,8.2-3.1,1.8-.6,1.3-1.4,1.3-1.5,0-.3-.1-.6-1.1-.1s-8.8,3.3-8.8,3.3a10.53,10.53,0,0,0-2-3.4c2-1.8,14.4-12.9,15.2-13.4s1.1-1,.9-1.6a.84.84,0,0,0-1.3-.3l-16.1,13.9a15.58,15.58,0,0,0-2-1.6c.8-1.6,4.8-10.4,5-10.8s.6-1.4,0-1.6c-1.1-.5-1.4.3-1.4.3l-5.6,11a13.42,13.42,0,0,0-5.1-1.4c0-2.5.3-16.1.3-16.8,0-.9-.4-.9-.9-.9s-1,.1-1.1.6-.8,16.9-.8,16.9a15.47,15.47,0,0,0-3.1.6c-.8-1.9-3.6-8.7-4.1-9.8-.6-1.4-1.6-.6-1.6-.6-.3.3.1.9.6,2s3.6,9.2,3.6,9.2a13.5,13.5,0,0,0-2.6,1.5c-1.9-2.5-11.3-14.9-12.2-15.9a2.75,2.75,0,0,0-2.3-.9c-.4.4-.4.6.4,1.5S445,652.2,445,652.2a15.89,15.89,0,0,0-2.4,2.9s-7.8-4.6-8.9-5.3a1.68,1.68,0,0,0-1.9.1.85.85,0,0,0,.3.8c.4.3,9.8,5.6,9.8,5.6a15.16,15.16,0,0,0-1.8,7v.9H425.4a2,2,0,0,0-1.6.4c-.5.4-.4,1,.6,1h15.8a12.91,12.91,0,0,0,.5,2.1s-8.5,3.5-9.7,3.8-1.5,1.1-1.3,1.4.5.4,1.3.3l10.2-3.8c.5,1,1,2,1.6,3,0,0-13.8,12.8-14.3,13.2s-.9.8-.5,1c.4.4,1,.4,1.8-.3.6-.6,14.2-12.6,14.2-12.6a16.2,16.2,0,0,0,4.5,3.4s-4.3,8.8-4.6,9.7c-.5.9,0,1.4.4,1.5a1.68,1.68,0,0,0,1.8-1.3c.4-1.1,4.4-9.3,4.4-9.3a12.66,12.66,0,0,0,2.8.6s-.5,19-.5,19.6.8.8,1.1.8,1.1,0,1.1-.6.5-19.7.5-19.7a13.93,13.93,0,0,0,5-1c.8,1.6,2.8,6.5,3.3,7.7.5,1.4,2.8.6,2.4-.1s-3.5-8.7-3.5-8.7c.3-.1.5-.4.8-.5,2,2.5,13.1,16.9,13.8,17.7.9.9,2.1-.1,1.9-.5-.4-.4-14.2-18.3-14.2-18.3a21.23,21.23,0,0,0,3-3.6c1.5.9,7.3,4.3,8.5,5,1.4.9,2.9-.4,2.4-.8s-10-5.9-10-5.9a11.37,11.37,0,0,0,1-3.6h21.7c.9,0,1.1-.5,1.1-.8S492.6,664.2,492.1,664.2Z" transform="translate(-359.31 -484.2)"/><path class="cls-1" d="M552.8,729.9H530.7v-1.1a14.35,14.35,0,0,0-.8-4.6c1.5-.6,6.7-2.5,8.2-3.1,1.8-.6,1.3-1.4,1.3-1.5,0-.3-.1-.6-1.1-.1s-8.8,3.3-8.8,3.3a10.53,10.53,0,0,0-2-3.4c2-1.8,14.4-12.9,15.2-13.4s1.1-1,.9-1.6a.84.84,0,0,0-1.3-.3L526.2,718a15.58,15.58,0,0,0-2-1.6c.8-1.6,4.8-10.4,5-10.8s.6-1.4,0-1.6c-1.1-.5-1.4.3-1.4.3l-5.6,11a13.42,13.42,0,0,0-5.1-1.4c0-2.5.3-16.1.3-16.8,0-.9-.4-.9-.9-.9s-1,.1-1.1.6-.8,16.9-.8,16.9a15.47,15.47,0,0,0-3.1.6c-.8-1.9-3.6-8.7-4.1-9.8-.6-1.4-1.6-.6-1.6-.6-.3.3.1.9.6,2s3.6,9.2,3.6,9.2a13.5,13.5,0,0,0-2.6,1.5c-1.9-2.5-11.3-14.9-12.2-15.9a2.75,2.75,0,0,0-2.3-.9c-.4.4-.4.6.4,1.5s12.4,16.6,12.4,16.6a15.89,15.89,0,0,0-2.4,2.9s-7.8-4.6-8.9-5.3a1.68,1.68,0,0,0-1.9.1.85.85,0,0,0,.3.8c.4.3,9.8,5.6,9.8,5.6a15.16,15.16,0,0,0-1.8,7v.9H486.1a2,2,0,0,0-1.6.4c-.5.4-.4,1,.6,1h15.8a12.91,12.91,0,0,0,.5,2.1s-8.5,3.5-9.7,3.8-1.5,1.1-1.3,1.4.5.4,1.3.3l10.2-3.8c.5,1,1,2,1.6,3,0,0-13.8,12.8-14.3,13.2s-.9.8-.5,1c.4.4,1,.4,1.8-.3.6-.6,14.2-12.6,14.2-12.6a16.2,16.2,0,0,0,4.5,3.4s-4.3,8.8-4.6,9.7c-.5.9,0,1.4.4,1.5a1.68,1.68,0,0,0,1.8-1.3c.4-1.1,4.4-9.3,4.4-9.3a12.66,12.66,0,0,0,2.8.6s-.5,19-.5,19.6.8.8,1.1.8,1.1,0,1.1-.6.5-19.7.5-19.7a13.93,13.93,0,0,0,5-1c.8,1.6,2.8,6.5,3.3,7.7.5,1.4,2.8.6,2.4-.1s-3.5-8.7-3.5-8.7c.3-.1.5-.4.8-.5,2,2.5,13.1,16.9,13.8,17.7.9.9,2.1-.1,1.9-.5-.4-.4-14.2-18.3-14.2-18.3a21.23,21.23,0,0,0,3-3.6c1.5.9,7.3,4.3,8.5,5,1.4.9,2.9-.4,2.4-.8s-10-5.9-10-5.9a11.37,11.37,0,0,0,1-3.6h21.7c.9,0,1.1-.5,1.1-.8C553.2,730.2,553.3,729.9,552.8,729.9Z" transform="translate(-359.31 -484.2)"/><path class="cls-1" d="M435.3,527.5H413.2v-1.1a14.35,14.35,0,0,0-.8-4.6c1.5-.6,6.7-2.5,8.2-3.1,1.8-.6,1.3-1.4,1.3-1.5,0-.3-.1-.6-1.1-.1s-8.8,3.3-8.8,3.3a10.53,10.53,0,0,0-2-3.4c2-1.8,14.4-12.9,15.2-13.4s1.1-1,.9-1.6a.84.84,0,0,0-1.3-.3l-16.1,13.9a15.58,15.58,0,0,0-2-1.6c.8-1.6,4.8-10.4,5-10.8s.6-1.4,0-1.6c-1.1-.5-1.4.3-1.4.3l-5.6,11a13.42,13.42,0,0,0-5.1-1.4c0-2.5.3-16.1.3-16.8,0-.9-.4-.9-.9-.9s-1,.1-1.1.6-.8,16.9-.8,16.9a15.47,15.47,0,0,0-3.1.6c-.8-1.9-3.6-8.7-4.1-9.8-.6-1.4-1.6-.6-1.6-.6-.3.3.1.9.6,2s3.6,9.2,3.6,9.2a13.5,13.5,0,0,0-2.6,1.5c-1.9-2.5-11.3-14.9-12.2-15.9a2.75,2.75,0,0,0-2.3-.9c-.4.4-.4.6.4,1.5s12.4,16.6,12.4,16.6a15.89,15.89,0,0,0-2.4,2.9s-7.8-4.6-8.9-5.3a1.68,1.68,0,0,0-1.9.1.85.85,0,0,0,.3.8c.4.3,9.8,5.6,9.8,5.6a15.16,15.16,0,0,0-1.8,7v.9H368.6a2,2,0,0,0-1.6.4c-.5.4-.4,1,.6,1h15.8a12.91,12.91,0,0,0,.5,2.1s-8.5,3.5-9.7,3.8-1.5,1.1-1.3,1.4.5.4,1.3.3l10.2-3.8c.5,1,1,2,1.6,3,0,0-13.8,12.8-14.3,13.2s-.9.8-.5,1c.4.4,1,.4,1.8-.3.6-.6,14.2-12.6,14.2-12.6a16.2,16.2,0,0,0,4.5,3.4s-4.3,8.8-4.6,9.7c-.5.9,0,1.4.4,1.5a1.68,1.68,0,0,0,1.8-1.3c.5-1.1,4.4-9.3,4.4-9.3a12.66,12.66,0,0,0,2.8.6s-.5,19-.5,19.6.8.8,1.1.8,1.1,0,1.1-.6.5-19.7.5-19.7a13.93,13.93,0,0,0,5-1c.8,1.6,2.8,6.5,3.3,7.7.5,1.4,2.8.6,2.4-.1s-3.5-8.7-3.5-8.7c.3-.1.5-.4.8-.5,2,2.5,13.1,16.9,13.8,17.7.9.9,2.1-.1,1.9-.5-.4-.4-14.2-18.3-14.2-18.3a21.23,21.23,0,0,0,3-3.6c1.5.9,7.3,4.3,8.5,5,1.4.9,2.9-.4,2.4-.8s-10-5.9-10-5.9a11.37,11.37,0,0,0,1-3.6h21.7c.9,0,1.1-.5,1.1-.8C436.1,527.7,435.8,527.5,435.3,527.5Z" transform="translate(-359.31 -484.2)"/><path class="cls-1" d="M427.9,702.2H405.8v-1.1a14.35,14.35,0,0,0-.8-4.6c1.5-.6,6.7-2.5,8.2-3.1,1.8-.6,1.3-1.4,1.3-1.5,0-.3-.1-.6-1.1-.1s-8.8,3.3-8.8,3.3a10.53,10.53,0,0,0-2-3.4c2-1.8,14.4-12.9,15.2-13.4s1.1-1,.9-1.6a.84.84,0,0,0-1.3-.3l-16.1,13.9a15.58,15.58,0,0,0-2-1.6c.8-1.6,4.8-10.4,5-10.8s.6-1.4,0-1.6c-1.1-.5-1.4.3-1.4.3l-5.6,11a13.42,13.42,0,0,0-5.1-1.4c0-2.5.3-16.1.3-16.8,0-.9-.4-.9-.9-.9s-1,.1-1.1.6-.8,16.9-.8,16.9a15.47,15.47,0,0,0-3.1.6c-.8-1.9-3.6-8.7-4.1-9.8-.6-1.4-1.6-.6-1.6-.6-.3.3.1.9.6,2s3.6,9.2,3.6,9.2a13.5,13.5,0,0,0-2.6,1.5c-1.9-2.5-11.3-14.9-12.2-15.9a2.75,2.75,0,0,0-2.3-.9c-.4.4-.4.6.4,1.5s12.4,16.6,12.4,16.6a15.89,15.89,0,0,0-2.4,2.9s-7.8-4.6-8.9-5.3a1.68,1.68,0,0,0-1.9.1.85.85,0,0,0,.3.8c.4.3,9.8,5.6,9.8,5.6a15.16,15.16,0,0,0-1.8,7v.9H361.2a2,2,0,0,0-1.6.4c-.5.4-.4,1,.6,1H376a12.91,12.91,0,0,0,.5,2.1s-8.5,3.5-9.7,3.8-1.5,1.1-1.3,1.4.5.4,1.3.3l10.2-3.8c.5,1,1,2,1.6,3,0,0-13.8,12.8-14.3,13.2s-.9.8-.5,1c.4.4,1,.4,1.8-.3.6-.6,14.2-12.6,14.2-12.6a16.2,16.2,0,0,0,4.5,3.4s-4.3,8.8-4.6,9.7c-.5.9,0,1.4.4,1.5a1.68,1.68,0,0,0,1.8-1.3c.5-1.1,4.4-9.3,4.4-9.3a12.66,12.66,0,0,0,2.8.6s-.5,19-.5,19.6.8.8,1.1.8,1.1,0,1.1-.6.5-19.7.5-19.7a13.93,13.93,0,0,0,5-1c.8,1.6,2.8,6.5,3.3,7.7.5,1.4,2.8.6,2.4-.1s-3.5-8.7-3.5-8.7c.3-.1.5-.4.8-.5,2,2.5,13.1,16.9,13.8,17.7.9.9,2.1-.1,1.9-.5-.4-.4-14.2-18.3-14.2-18.3a21.23,21.23,0,0,0,3-3.6c1.5.9,7.3,4.3,8.5,5,1.4.9,2.9-.4,2.4-.8s-10-5.9-10-5.9a11.37,11.37,0,0,0,1-3.6h21.7c.9,0,1.1-.5,1.1-.8C428.3,702.6,428.4,702.2,427.9,702.2Z" transform="translate(-359.31 -484.2)"/><path class="cls-1" d="M534.1,517.9H512v-1.1a14.35,14.35,0,0,0-.8-4.6c1.5-.6,6.7-2.5,8.2-3.1,1.8-.6,1.3-1.4,1.3-1.5,0-.3-.1-.6-1.1-.1s-8.8,3.3-8.8,3.3a10.53,10.53,0,0,0-2-3.4c2-1.8,14.4-12.9,15.2-13.4s1.1-1,.9-1.6a.84.84,0,0,0-1.3-.3L507.5,506a15.58,15.58,0,0,0-2-1.6c.8-1.6,4.8-10.4,5-10.8s.6-1.4,0-1.6c-1.1-.5-1.4.3-1.4.3l-5.6,11a13.42,13.42,0,0,0-5.1-1.4c0-2.5.3-16.1.3-16.8,0-.9-.4-.9-.9-.9s-1,.1-1.1.6-.8,16.9-.8,16.9a15.47,15.47,0,0,0-3.1.6c-.8-1.9-3.6-8.7-4.1-9.8-.6-1.4-1.6-.6-1.6-.6-.3.3.1.9.6,2s3.6,9.2,3.6,9.2a13.5,13.5,0,0,0-2.6,1.5c-1.9-2.5-11.3-14.9-12.2-15.9a2.75,2.75,0,0,0-2.3-.9c-.4.4-.4.6.4,1.5S487,505.9,487,505.9a15.89,15.89,0,0,0-2.4,2.9s-7.8-4.6-8.9-5.3a1.68,1.68,0,0,0-1.9.1.85.85,0,0,0,.3.8c.4.3,9.8,5.6,9.8,5.6a15.16,15.16,0,0,0-1.8,7v.9H467.4a2,2,0,0,0-1.6.4c-.5.4-.4,1,.6,1h15.8a12.91,12.91,0,0,0,.5,2.1s-8.5,3.5-9.7,3.8-1.5,1.1-1.3,1.4.5.4,1.3.3l10.2-3.8c.5,1,1,2,1.6,3,0,0-13.8,12.8-14.3,13.2s-.9.8-.5,1c.4.4,1,.4,1.8-.3.6-.6,14.2-12.6,14.2-12.6a16.2,16.2,0,0,0,4.5,3.4s-4.3,8.8-4.6,9.7c-.5.9,0,1.4.4,1.5a1.68,1.68,0,0,0,1.8-1.3c.4-1.1,4.4-9.3,4.4-9.3a12.66,12.66,0,0,0,2.8.6s-.5,19-.5,19.6.8.8,1.1.8,1.1,0,1.1-.6.5-19.7.5-19.7a13.93,13.93,0,0,0,5-1c.8,1.6,2.8,6.5,3.3,7.7.5,1.4,2.8.6,2.4-.1s-3.5-8.7-3.5-8.7c.3-.1.5-.4.8-.5,2,2.5,13.1,16.9,13.8,17.7.9.9,2.1-.1,1.9-.5-.4-.4-14.2-18.3-14.2-18.3a21.23,21.23,0,0,0,3-3.6c1.5.9,7.3,4.3,8.5,5,1.4.9,2.9-.4,2.4-.8s-10-5.9-10-5.9a11.37,11.37,0,0,0,1-3.6h21.7c.9,0,1.1-.5,1.1-.8C534.9,518.1,534.6,517.9,534.1,517.9Z" transform="translate(-359.31 -484.2)"/></svg>