<?xml version="1.0" encoding="utf-8"?>
<!-- Generator: Adobe Illustrator 26.5.0, SVG Export Plug-In . SVG Version: 6.00 Build 0)  -->
<svg version="1.1" id="Layer_1" xmlns="http://www.w3.org/2000/svg" xmlns:xlink="http://www.w3.org/1999/xlink" x="0px" y="0px"
	 viewBox="0 0 717.9 863.8" style="enable-background:new 0 0 717.9 863.8;" xml:space="preserve">
<style type="text/css">
	.st0{fill:#E28C50;}
</style>
<path class="st0" d="M3.7,0L0,1.9v14.4l3.7,1.9v14.4L0,34.4v14.4l3.7,1.9V65L0,66.9v14.4l3.7,1.9v14.4L0,99.4v14.4l3.7,1.9v14.4
	L0,132v14.5l3.7,1.8v14.5L0,164.5V179l3.7,1.8v14.5L0,197v14.5l3.7,1.8v14.5L0,229.5V244l3.7,1.9v14.4L0,262.1v14.4l3.7,1.9v14.4
	L0,294.7V309l3.7,1.9v14.4L0,327.2v14.4l3.7,1.9v14.4L0,359.7V374l3.7,1.9v14.4L0,392.2v14.4l3.7,1.9v14.4L0,424.7v14.4l3.7,1.9
	v14.4L0,457.2v14.4l3.7,1.9v14.4L0,489.7v14.5l3.7,1.8v14.5L0,522.2v14.5l3.7,1.8V553L0,554.8v14.5l3.7,1.8v14.5L0,587.3v14.5
	l3.7,1.9V618L0,619.9v14.4l3.7,1.9v14.4L0,652.4v14.4l3.7,1.9v14.4L0,685v14.4l3.7,1.9v14.4L0,717.5v14.4l3.7,1.9v14.4L0,750v14.4
	l3.7,1.9v14.4L0,782.5v14.4l3.7,1.9v14.4L0,815v14.4v0.1l3.7,1.8v14.5L0,847.5V862l3.7,1.8h14.6l3.7-1.8v-14.5l-3.7-1.8v-14.5
	l3.7-1.9V815l-3.7-1.9v-14.4l3.7-1.9v-14.4l-3.7-1.9v-14.4l3.7-1.9V750l-3.7-1.9v-14.4l3.7-1.9v-14.4l-3.7-1.9v-14.4l3.7-1.9V685
	l-3.7-1.9v-14.4l3.7-1.9v-14.4l-3.7-1.9v-14.4l3.7-1.9v-14.4l-3.7-1.9v-14.4l3.7-1.9v-14.5l-3.7-1.8V571l3.7-1.8v-14.5l-3.7-1.8
	v-14.5l3.7-1.8v-14.5l-3.7-1.8V506l3.7-1.8v-14.5l-3.7-1.9v-14.4l3.7-1.9v-14.4l-3.7-1.9V441l3.7-1.9v-14.4l-3.7-1.9v-14.4l3.7-1.9
	v-14.4l-3.7-1.9v-14.4l3.7-1.9v-14.4l-3.7-1.9v-14.4l3.7-1.9v-14.4l-3.7-1.9v-14.4l3.7-1.9v-14.4l-3.7-1.9v-14.4l3.7-1.9v-14.4
	l-3.7-1.9v-14.4l3.7-1.9v-14.5l-3.7-1.8v-14.5l3.7-1.8V197l-3.7-1.8v-14.5l3.7-1.8v-14.5l-3.7-1.8v-14.5l3.7-1.8V132l-3.7-1.9v-14.4
	l3.7-1.9V99.4l-3.7-1.9V83.2l3.7-1.9V66.9L18.3,65V50.7l3.7-1.9V34.4l-3.7-1.9V18.2l3.7-1.9V1.9L18.3,0H3.7z"/>
<path class="st0" d="M221.9,0l-3.7,1.9v14.4l3.7,1.9v14.4l-3.7,1.9v14.4l3.7,1.9V65l-3.7,1.9v14.4l3.7,1.9v14.4l-3.7,1.9v14.4
	l3.7,1.9v14.4l-3.7,1.9v14.5l3.7,1.8v14.5l-3.7,1.8V179l3.7,1.8v14.5l-3.7,1.8v14.5l3.7,1.8v14.5l-3.7,1.8V244l3.7,1.9v14.4
	l-3.7,1.9v14.4l3.7,1.9v14.4l-3.7,1.9V309l3.7,1.9v14.4l-3.7,1.9v14.4l3.7,1.9v14.4l-3.7,1.9V374l3.7,1.9v14.4l-3.7,1.9v14.4
	l3.7,1.9v14.4l-3.7,1.9v14.4l3.7,1.9v14.4l-3.7,1.9v14.4l3.7,1.9v14.4l-3.7,1.9v14.5l3.7,1.8v14.5l-3.7,1.8v14.5l3.7,1.8V553
	l-3.7,1.8v14.5l3.7,1.8v14.5l-3.7,1.8v14.5l3.7,1.9V618l-3.7,1.9v14.4l3.7,1.9v14.4l-3.7,1.9v14.4l3.7,1.9v14.4l-3.7,1.9v14.4
	l3.7,1.9v14.4l-3.7,1.9v14.4l3.7,1.9v14.4l-3.7,1.9v14.4l3.7,1.9v14.4l-3.7,1.9v14.4l3.7,1.9v14.4l-3.7,1.9v14.4l3.7,1.9v14.5
	l-3.7,1.8V862l3.7,1.8h14.5l3.7-1.8v-14.5l-3.7-1.8v-14.5l3.7-1.8v-0.1V815l-3.7-1.9v-14.4l3.7-1.9v-14.4l-3.7-1.9v-14.4l3.7-1.9
	V750l-3.7-1.9v-14.4l3.7-1.9v-14.4l-3.7-1.9v-14.4l3.7-1.9V685l-3.7-1.9v-14.4l3.7-1.9v-14.4l-3.7-1.9v-14.4l3.7-1.9v-14.4l-3.7-1.9
	v-14.4l3.7-1.9v-14.5l-3.7-1.8V571l3.7-1.8v-14.5l-3.7-1.8v-14.5l3.7-1.8v-14.5l-3.7-1.8V506l3.7-1.8v-14.5l-3.7-1.9v-14.4l3.7-1.9
	v-14.4l-3.7-1.9V441l3.7-1.9v-14.4l-3.7-1.9v-14.4l3.7-1.9v-14.4l-3.7-1.9v-14.4l3.7-1.9v-14.4l-3.7-1.9v-14.4l3.7-1.9v-14.4
	l-3.7-1.9v-14.4l3.7-1.9v-14.4l-3.7-1.9v-14.4l3.7-1.9v-14.4l-3.7-1.9v-14.4l3.7-1.9v-14.5l-3.7-1.8v-14.5l3.7-1.8V197l-3.7-1.8
	v-14.5l3.7-1.8v-14.5l-3.7-1.8v-14.5l3.7-1.8V132l-3.7-1.9v-14.4l3.7-1.9V99.4l-3.7-1.9V83.2l3.7-1.9V66.9l-3.7-1.9V50.7l3.7-1.9
	V34.4l-3.7-1.9V18.2l3.7-1.9V1.9L236.3,0H221.9z"/>
<path class="st0" d="M43.7,66.9v14.4l-3.7,1.9l-3.7-1.9V66.9L32.8,65l-3.7,1.9v14.4l3.7,1.9v14.4l3.7,1.9v14.4l3.7,1.9l3.7-1.9V99.4
	l3.5-1.9V83.2l3.7-1.9V66.9L47.3,65L43.7,66.9z"/>
<path class="st0" d="M47.3,18.2l-3.5-1.9V1.9L40.1,0l-3.7,1.9v14.4l-3.7,1.9v14.4l-3.7,1.9v14.4l3.7,1.9l3.7-1.9V34.4l3.7-1.9
	l3.7,1.9v14.4l3.5,1.9l3.7-1.9V34.4l-3.7-1.9V18.2z"/>
<path class="st0" d="M43.7,685v14.4l-3.7,1.9l-3.7-1.9V685l-3.7-1.9l-3.7,1.9v14.4l3.7,1.9v14.4l3.7,1.9v14.4l3.7,1.9l3.7-1.9v-14.4
	l3.5-1.9v-14.4l3.7-1.9V685l-3.7-1.9L43.7,685z"/>
<path class="st0" d="M43.7,554.8v14.5l-3.7,1.8l-3.7-1.8v-14.5l-3.7-1.8l-3.7,1.8v14.5l3.7,1.8v14.5l3.7,1.8v14.5l3.7,1.9l3.7-1.9
	v-14.5l3.5-1.8V571l3.7-1.8v-14.5l-3.7-1.8L43.7,554.8z"/>
<path class="st0" d="M43.7,327.2v14.4l-3.7,1.9l-3.7-1.9v-14.4l-3.7-1.9l-3.7,1.9v14.4l3.7,1.9v14.4l3.7,1.9V374l3.7,1.9l3.7-1.9
	v-14.4l3.5-1.9v-14.4l3.7-1.9v-14.4l-3.7-1.9L43.7,327.2z"/>
<path class="st0" d="M47.3,636.2l-3.5-1.9v-14.4l-3.7-1.9l-3.7,1.9v14.4l-3.7,1.9v14.4l-3.7,1.9v14.4l3.7,1.9l3.7-1.9v-14.4l3.7-1.9
	l3.7,1.9v14.4l3.5,1.9l3.7-1.9v-14.4l-3.7-1.9V636.2z"/>
<path class="st0" d="M47.3,506l-3.5-1.8v-14.5l-3.7-1.9l-3.7,1.9v14.5l-3.7,1.8v14.5l-3.7,1.8v14.5l3.7,1.8l3.7-1.8v-14.5l3.7-1.8
	l3.7,1.8v14.5l3.5,1.8l3.7-1.8v-14.5l-3.7-1.8V506z"/>
<path class="st0" d="M47.3,408.5l-3.7-1.9v-14.4l-3.7-1.9l-3.7,1.9v14.4l-3.7,1.9v14.4l-3.7,1.9v14.4l3.7,1.9v14.4l3.7,1.9v14.4
	l3.7,1.9l3.7-1.9v-14.4l3.7-1.9V441l3.7-1.9v-14.4l-3.7-1.9V408.5z M43.7,439.1l-3.7,1.9l-3.7-1.9v-14.4l3.7-1.9l3.7,1.9V439.1z"/>
<path class="st0" d="M47.3,278.4l-3.5-1.9v-14.4l-3.7-1.9l-3.7,1.9v14.4l-3.7,1.9v14.4l-3.7,1.9V309l3.7,1.9l3.7-1.9v-14.4l3.7-1.9
	l3.7,1.9V309l3.5,1.9l3.7-1.9v-14.4l-3.7-1.9V278.4z"/>
<path class="st0" d="M32.8,180.7l3.7-1.8v-14.5l3.7-1.8l3.7,1.8V179l3.5,1.8l3.7-1.8v-14.5l-3.7-1.8v-14.5l-3.5-1.9V132l-3.7-1.9
	l-3.7,1.9v14.4l-3.7,1.9v14.5l-3.7,1.8V179L32.8,180.7z"/>
<path class="st0" d="M43.7,197v14.5l-3.7,1.8l-3.7-1.8V197l-3.7-1.8l-3.7,1.8v14.5l3.7,1.8v14.5l3.7,1.8V244l3.7,1.8l3.7-1.8v-14.5
	l3.7-1.8v-14.5l3.5-1.8V197l-3.5-1.8L43.7,197z"/>
<path class="st0" d="M32.8,798.7l3.7-1.9v-14.4l3.7-1.9l3.7,1.9v14.4l3.5,1.9l3.7-1.9v-14.4l-3.7-1.9v-14.4l-3.5-1.9V750l-3.7-1.9
	l-3.7,1.9v14.4l-3.7,1.9v14.4l-3.7,1.9v14.4L32.8,798.7z"/>
<path class="st0" d="M43.7,815v14.4l-3.7,1.9l-3.7-1.9V815l-3.7-1.9l-3.7,1.9v14.4l3.7,1.9v14.4l3.7,1.9V862l3.7,1.8l3.7-1.8v-14.5
	l3.7-1.9v-14.4l3.5-1.9V815l-3.5-1.9L43.7,815z"/>
<path class="st0" d="M203.7,66.9v14.4l-3.7,1.9l-3.7-1.9V66.9l-3.7-1.9l-3.7,1.9v14.4l3.7,1.9v14.4l3.7,1.9v14.4l3.7,1.9l3.7-1.9
	V99.4l3.7-1.9V83.2l3.5-1.9V66.9l-3.5-1.9L203.7,66.9z"/>
<path class="st0" d="M207.4,18.2l-3.7-1.9V1.9L200,0l-3.7,1.9v14.4l-3.7,1.9v14.4l-3.7,1.9v14.4l3.7,1.9l3.7-1.9V34.4l3.7-1.9
	l3.7,1.9v14.4l3.7,1.9l3.5-1.9V34.4l-3.5-1.9V18.2z"/>
<path class="st0" d="M203.7,685v14.4l-3.7,1.9l-3.7-1.9V685l-3.7-1.9l-3.7,1.9v14.4l3.7,1.9v14.4l3.7,1.9v14.4l3.7,1.9l3.7-1.9
	v-14.4l3.7-1.9v-14.4l3.5-1.9V685l-3.5-1.9L203.7,685z"/>
<path class="st0" d="M203.7,554.8v14.5L200,571l-3.7-1.8v-14.5l-3.7-1.8l-3.7,1.8v14.5l3.7,1.8v14.5l3.7,1.8v14.5l3.7,1.9l3.7-1.9
	v-14.5l3.7-1.8V571l3.5-1.8v-14.5l-3.5-1.8L203.7,554.8z"/>
<path class="st0" d="M203.7,327.2v14.4l-3.7,1.9l-3.7-1.9v-14.4l-3.7-1.9l-3.7,1.9v14.4l3.7,1.9v14.4l3.7,1.9V374l3.7,1.9l3.7-1.9
	v-14.4l3.7-1.9v-14.4l3.5-1.9v-14.4l-3.5-1.9L203.7,327.2z"/>
<path class="st0" d="M207.4,636.2l-3.7-1.9v-14.4L200,618l-3.7,1.9v14.4l-3.7,1.9v14.4l-3.7,1.9v14.4l3.7,1.9l3.7-1.9v-14.4l3.7-1.9
	l3.7,1.9v14.4l3.7,1.9l3.5-1.9v-14.4l-3.5-1.9V636.2z"/>
<path class="st0" d="M207.4,506l-3.7-1.8v-14.5l-3.7-1.9l-3.7,1.9v14.5l-3.7,1.8v14.5l-3.7,1.8v14.5l3.7,1.8l3.7-1.8v-14.5l3.7-1.8
	l3.7,1.8v14.5l3.7,1.8l3.5-1.8v-14.5l-3.5-1.8V506z"/>
<path class="st0" d="M207.4,408.5l-3.7-1.9v-14.4l-3.7-1.9l-3.7,1.9v14.4l-3.7,1.9v14.4l-3.7,1.9v14.4l3.7,1.9v14.4l3.7,1.9v14.4
	l3.7,1.9l3.7-1.9v-14.4l3.7-1.9V441l3.7-1.9v-14.4l-3.7-1.9V408.5z M203.7,439.1L200,441l-3.7-1.9v-14.4l3.7-1.9l3.7,1.9V439.1z"/>
<path class="st0" d="M207.4,278.4l-3.7-1.9v-14.4l-3.7-1.9l-3.7,1.9v14.4l-3.7,1.9v14.4l-3.7,1.9V309l3.7,1.9l3.7-1.9v-14.4l3.7-1.9
	l3.7,1.9V309l3.7,1.9l3.5-1.9v-14.4l-3.5-1.9V278.4z"/>
<path class="st0" d="M192.7,180.7l3.7-1.8v-14.5l3.7-1.8l3.7,1.8V179l3.7,1.8l3.5-1.8v-14.5l-3.5-1.8v-14.5l-3.7-1.9V132l-3.7-1.9
	l-3.7,1.9v14.4l-3.7,1.9v14.5l-3.7,1.8V179L192.7,180.7z"/>
<path class="st0" d="M203.7,197v14.5l-3.7,1.8l-3.7-1.8V197l-3.7-1.8l-3.7,1.8v14.5l3.7,1.8v14.5l3.7,1.8V244l3.7,1.8l3.7-1.8v-14.5
	l3.7-1.8v-14.5l3.5-1.8V197l-3.5-1.8L203.7,197z"/>
<path class="st0" d="M192.7,798.7l3.7-1.9v-14.4l3.7-1.9l3.7,1.9v14.4l3.7,1.9l3.5-1.9v-14.4l-3.5-1.9v-14.4l-3.7-1.9V750l-3.7-1.9
	l-3.7,1.9v14.4l-3.7,1.9v14.4l-3.7,1.9v14.4L192.7,798.7z"/>
<path class="st0" d="M203.7,815v14.4l-3.7,1.9l-3.7-1.9V815l-3.7-1.9l-3.7,1.9v14.4l3.7,1.9v14.4l3.7,1.9V862l3.7,1.8l3.7-1.8v-14.5
	l3.7-1.9v-14.4l3.5-1.9V815l-3.5-1.9L203.7,815z"/>
<path class="st0" d="M149.1,554.8l-3.7-1.9v-14.4l-3.7-1.9l-3.7,1.9l-3.7-1.9l-3.7,1.9l-3.7-1.9l-3.7,1.9l-3.7-1.9l-3.7,1.9
	l-3.7-1.9l-3.7,1.9l-3.7-1.9l-3.7,1.9l-3.7-1.9l-3.7,1.9v14.4l-3.7,1.9v14.4L87,571v14.4l3.7,1.9v14.4l-3.7,1.9v14.4l3.7,1.9v14.4
	l3.7,1.9l3.7-1.9l3.7,1.9v14.4l3.7,1.9l3.7-1.9l3.7,1.9l3.7-1.9l3.7,1.9l3.7-1.9l3.7,1.9l3.7-1.9l3.7,1.9l3.7-1.9V636l3.7-1.9
	l3.7,1.9l3.7-1.9v-14.4l3.7-1.9v-14.4l-3.7-1.9v-14.4l3.7-1.9V571l-3.7-1.9V554.8z M123.7,635.9L120,634l-3.7,1.9l-3.7-1.9v-14.4
	l-3.7-1.9v-14.2l-3.7-1.9v-14.4l3.7-1.9V571l-3.7-1.9v-14.4l3.7-1.9l3.7,1.9l3.7-1.9l3.7,1.9l3.7-1.9l3.7,1.9l3.7-1.9l3.7,1.9v14.4
	L131,571v14.4l3.7,1.9v14.4l-3.7,1.9v14.4l-3.7,1.9v14.4L123.7,635.9z"/>
<path class="st0" d="M145.5,701.2l-3.7-1.9l-3.7,1.9l-3.7-1.9l-3.7,1.9v14.4l3.7,1.9v14.4l-3.7,1.9v14.4l3.7,1.9v14.4l-3.7,1.9
	l-3.7-1.9v-14.5l-3.7-1.9v-14.4l-3.7-1.9v-14.4l-3.7-1.9l-3.7,1.9l-3.7-1.9v-14.4l-3.7-1.9l-3.7,1.9l-3.7-1.9l-3.7,1.9l-3.7-1.9
	l-3.7,1.9v14.4l3.7,1.9v14.4l-3.7,1.9v14.4l3.7,1.9v14.4l-3.7,1.9v14.4l3.7,1.9v14.4l-3.7,1.9V813l3.7,1.9l3.7-1.9l3.7,1.9l3.7-1.9
	l3.7,1.9l3.7-1.9v-14.4l-3.7-1.9v-14.4l3.7-1.9v-14.4l-3.7-1.9v-14.4l-3.7-1.9v-14.4l3.7-1.9l3.7,1.9v14.4l3.7,1.9v14.4l3.7,1.9
	v14.4l3.7,1.9l3.7-1.9l3.7,1.9v14.4l3.7,1.9V813l3.7,1.9l3.7-1.9l3.7,1.9l3.7-1.9l3.7,1.9l3.7-1.9v-14.4l-3.7-1.9v-14.4l3.7-1.9
	v-14.4l-3.7-1.9v-14.4l3.7-1.9v-14.4l-3.7-1.9v-14.4l3.7-1.9v-14.4l-3.7-1.9L145.5,701.2z"/>
<path class="st0" d="M123.7,375.9l-3.7-1.8l-3.5,1.8l-3.7-1.8l-3.7,1.8v14.5l3.7,1.8v14.4l-3.7,1.9v14.4l3.7,1.9v14.4l-3.7,1.8v14.5
	l3.7,1.8v14.4l-3.7,1.9v14.4l3.7,1.9l3.7-1.9l3.5,1.9l3.7-1.9l3.7,1.9l3.7-1.9v-14.4l-3.7-1.9v-14.4l3.7-1.8v-14.5l-3.7-1.8v-14.4
	l3.7-1.9v-14.4l-3.7-1.9v-14.4l3.7-1.8v-14.5l-3.7-1.8L123.7,375.9z"/>
<path class="st0" d="M145.5,213.2l-3.7-1.9l-3.7,1.9l-3.7-1.9l-3.7,1.9v14.4l3.7,1.9v14.4l-3.7,1.9v14.4l3.7,1.9v14.4l-3.7,1.9
	l-3.7-1.9V262l-3.7-1.9v-14.4l-3.7-1.9v-14.4l-3.7-1.9l-3.7,1.9l-3.7-1.9v-14.4l-3.7-1.9l-3.7,1.9l-3.7-1.9l-3.7,1.9l-3.7-1.9
	l-3.7,1.9v14.4l3.7,1.9v14.4l-3.7,1.9v14.4l3.7,1.9v14.4l-3.7,1.9v14.4l3.7,1.9v14.4l-3.7,1.9v14.4l3.7,1.9l3.7-1.9l3.7,1.9l3.7-1.9
	l3.7,1.9l3.7-1.9v-14.4l-3.7-1.9v-14.4l3.7-1.9v-14.4l-3.7-1.9V262l-3.7-1.9v-14.4l3.7-1.9l3.7,1.9v14.4l3.7,1.9v14.4l3.7,1.9v14.4
	l3.7,1.9l3.7-1.9l3.7,1.9v14.4l3.7,1.9v14.4l3.7,1.9l3.7-1.9l3.7,1.9l3.7-1.9l3.7,1.9l3.7-1.9v-14.4l-3.7-1.9v-14.4l3.7-1.9v-14.4
	l-3.7-1.9V262l3.7-1.9v-14.4l-3.7-1.9v-14.4l3.7-1.9v-14.4l-3.7-1.9L145.5,213.2z"/>
<path class="st0" d="M145.5,50.7l-1.2-0.5l-2.4-1.2l-3.7,1.8l-3.7-1.8l-3.5,1.8V65l3.5,1.9v14.4l-3.5,1.9v14.4l3.5,1.8v14.5
	l-3.5,1.8v14.4l-3.7,1.9v14.4l-3.7,1.9l-3.7-1.9l-3.5,1.9l-3.7-1.9v-14.4l-3.7-1.9v-14.4l-3.7-1.8V99.3l3.7-1.8V83.2l-3.7-1.9V66.9
	l3.7-1.9V50.7l-3.7-1.8l-3.7,1.8l-3.5-1.8l-3.7,1.8L91,48.9l-3.7,1.8V65l3.7,1.9v14.4l-3.7,1.9v14.4l3.7,1.8v14.5l3.7,1.8v14.4
	l-3.7,1.9v14.4l3.7,1.9l3.7-1.9l3.5,1.9v14.4l3.7,1.8l3.7-1.8l3.7,1.8l3.7-1.8l3.5,1.8l3.7-1.8l3.7,1.8l3.7-1.8l3.5,1.8l3.7-1.8
	v-14.4l3.7-1.9l3.7,1.9l3.7-1.9v-14.4l-3.7-1.9v-14.4l3.7-1.8V99.3l3.5-1.8V83.2l-3.5-1.9V66.9l3.5-1.9V50.7l-3.5-1.8L145.5,50.7z"
	/>
<path class="st0" d="M504.5,595.8c-0.5,0-22.1,0-22.1,0c0-0.4,0-0.8,0-1.1c0-1.6-0.3-3.1-0.8-4.6c1.5-0.6,6.7-2.5,8.2-3.1
	c1.8-0.6,1.3-1.4,1.3-1.5c0-0.3-0.1-0.6-1.1-0.1s-8.8,3.3-8.8,3.3c-0.5-1.3-1.1-2.4-2-3.4c2-1.8,14.4-12.9,15.2-13.4
	c0.9-0.6,1.1-1,0.9-1.6c-0.6-0.9-1.3-0.3-1.3-0.3l-16.1,13.9c-0.6-0.6-1.3-1.1-2-1.6c0.8-1.6,4.8-10.4,5-10.8c0.3-0.5,0.6-1.4,0-1.6
	c-1.1-0.5-1.4,0.3-1.4,0.3l-5.6,11c-1.6-0.8-3.4-1.3-5.1-1.4c0-2.5,0.3-16.1,0.3-16.8c0-0.9-0.4-0.9-0.9-0.9c-0.6,0-1,0.1-1.1,0.6
	c-0.1,0.6-0.8,16.9-0.8,16.9c-1.1,0.1-2.1,0.3-3.1,0.6c-0.8-1.9-3.6-8.7-4.1-9.8c-0.6-1.4-1.6-0.6-1.6-0.6c-0.3,0.3,0.1,0.9,0.6,2
	c0.5,1.1,3.6,9.2,3.6,9.2c-0.9,0.4-1.8,0.9-2.6,1.5c-1.9-2.5-11.3-14.9-12.2-15.9c-1-1.1-2.3-0.9-2.3-0.9c-0.4,0.4-0.4,0.6,0.4,1.5
	c0.8,1,12.4,16.6,12.4,16.6s-1.5,1.4-2.4,2.9c0,0-7.8-4.6-8.9-5.3c-1.1-0.6-1.9,0.1-1.9,0.1s-0.1,0.5,0.3,0.8
	c0.4,0.3,9.8,5.6,9.8,5.6c-1.1,2.1-1.8,4.5-1.8,7c0,0.3,0,0.6,0,0.9c0,0-14.3,0-14.7,0c-0.5,0-1.1-0.1-1.6,0.4c-0.5,0.4-0.4,1,0.6,1
	c1,0,15.8,0,15.8,0c0.1,0.8,0.3,1.4,0.5,2.1c0,0-8.5,3.5-9.7,3.8c-1.1,0.4-1.5,1.1-1.3,1.4c0.3,0.3,0.5,0.4,1.3,0.3
	c0.8-0.1,10.2-3.8,10.2-3.8c0.5,1,1,2,1.6,3c0,0-13.8,12.8-14.3,13.2c-0.5,0.4-0.9,0.8-0.5,1c0.4,0.4,1,0.4,1.8-0.3
	c0.6-0.6,14.2-12.6,14.2-12.6c1.3,1.4,2.9,2.6,4.5,3.4c0,0-4.3,8.8-4.6,9.7c-0.5,0.9,0,1.4,0.4,1.5c0.4,0.1,1.4-0.1,1.8-1.3
	c0.5-1.1,4.4-9.3,4.4-9.3c0.9,0.3,1.8,0.5,2.8,0.6c0,0-0.5,19-0.5,19.6c0,0.8,0.8,0.8,1.1,0.8c0.4,0,1.1,0,1.1-0.6
	c0-0.6,0.5-19.7,0.5-19.7c1.8,0,3.4-0.4,5-1c0.8,1.6,2.8,6.5,3.3,7.7c0.5,1.4,2.8,0.6,2.4-0.1c-0.3-0.8-3.5-8.7-3.5-8.7
	c0.3-0.1,0.5-0.4,0.8-0.5c2,2.5,13.1,16.9,13.8,17.7c0.9,0.9,2.1-0.1,1.9-0.5c-0.4-0.4-14.2-18.3-14.2-18.3c1.1-1,2.1-2.3,3-3.6
	c1.5,0.9,7.3,4.3,8.5,5c1.4,0.9,2.9-0.4,2.4-0.8c-0.6-0.4-10-5.9-10-5.9c0.5-1.1,0.9-2.4,1-3.6c0,0,20.8,0,21.7,0
	c0.9,0,1.1-0.5,1.1-0.8C505.2,596.1,505,595.8,504.5,595.8z"/>
<path class="st0" d="M568.8,581.1c-0.5,0-22.1,0-22.1,0c0-0.4,0-0.8,0-1.1c0-1.6-0.3-3.1-0.8-4.6c1.5-0.6,6.7-2.5,8.2-3.1
	c1.8-0.6,1.3-1.4,1.3-1.5c0-0.3-0.1-0.6-1.1-0.1c-1,0.5-8.8,3.3-8.8,3.3c-0.5-1.3-1.1-2.4-2-3.4c2-1.8,14.4-12.9,15.2-13.4
	c0.9-0.6,1.1-1,0.9-1.6c-0.6-0.9-1.3-0.3-1.3-0.3l-16.1,13.9c-0.6-0.6-1.3-1.1-2-1.6c0.8-1.6,4.8-10.4,5-10.8c0.3-0.5,0.6-1.4,0-1.6
	c-1.1-0.5-1.4,0.3-1.4,0.3l-5.6,11c-1.6-0.8-3.4-1.3-5.1-1.4c0-2.5,0.3-16.1,0.3-16.8c0-0.9-0.4-0.9-0.9-0.9c-0.6,0-1,0.1-1.1,0.6
	c-0.1,0.6-0.8,16.9-0.8,16.9c-1.1,0.1-2.1,0.3-3.1,0.6c-0.8-1.9-3.6-8.7-4.1-9.8c-0.6-1.4-1.6-0.6-1.6-0.6c-0.3,0.3,0.1,0.9,0.6,2
	c0.5,1.1,3.6,9.2,3.6,9.2c-0.9,0.4-1.8,0.9-2.6,1.5c-1.9-2.5-11.3-14.9-12.2-15.9c-1-1.1-2.3-0.9-2.3-0.9c-0.4,0.4-0.4,0.6,0.4,1.5
	c0.8,1,12.4,16.6,12.4,16.6s-1.5,1.4-2.4,2.9c0,0-7.8-4.6-8.9-5.3c-1.1-0.6-1.9,0.1-1.9,0.1s-0.1,0.5,0.3,0.8
	c0.4,0.3,9.8,5.6,9.8,5.6c-1.1,2.1-1.8,4.5-1.8,7c0,0.3,0,0.6,0,0.9c0,0-14.3,0-14.7,0c-0.4,0-1.1-0.1-1.6,0.4c-0.5,0.4-0.4,1,0.6,1
	s15.8,0,15.8,0c0.1,0.8,0.3,1.4,0.5,2.1c0,0-8.5,3.5-9.7,3.8c-1.1,0.4-1.5,1.1-1.3,1.4c0.3,0.3,0.5,0.4,1.3,0.3
	c0.8-0.1,10.2-3.8,10.2-3.8c0.5,1,1,2,1.6,3c0,0-13.8,12.8-14.3,13.2c-0.5,0.4-0.9,0.8-0.5,1c0.4,0.4,1,0.4,1.8-0.3
	c0.8-0.6,14.2-12.6,14.2-12.6c1.3,1.4,2.9,2.6,4.5,3.4c0,0-4.3,8.8-4.6,9.7c-0.4,0.9,0,1.4,0.4,1.5c0.4,0.1,1.4-0.1,1.8-1.3
	c0.4-1.1,4.4-9.3,4.4-9.3c0.9,0.3,1.8,0.5,2.8,0.6c0,0-0.5,19-0.5,19.6c0,0.6,0.8,0.8,1.1,0.8c0.4,0,1.1,0,1.1-0.6
	c0-0.6,0.5-19.7,0.5-19.7c1.8,0,3.4-0.4,5-1c0.8,1.6,2.8,6.5,3.3,7.7c0.5,1.4,2.8,0.6,2.4-0.1c-0.3-0.8-3.5-8.7-3.5-8.7
	c0.3-0.1,0.5-0.4,0.8-0.5c2,2.5,13.1,16.9,13.8,17.7c0.9,0.9,2.1-0.1,1.9-0.5c-0.4-0.4-14.2-18.3-14.2-18.3c1.1-1,2.1-2.3,3-3.6
	c1.5,0.9,7.3,4.3,8.5,5c1.4,0.9,2.9-0.4,2.4-0.8c-0.5-0.4-10-5.9-10-5.9c0.5-1.1,0.9-2.4,1-3.6c0,0,20.8,0,21.7,0
	c0.9,0,1.1-0.5,1.1-0.8C569.1,581.5,569.3,581.1,568.8,581.1z"/>
<path class="st0" d="M617.8,615.4c-0.5,0-22.1,0-22.1,0c0-0.4,0-0.8,0-1.1c0-1.6-0.3-3.1-0.8-4.6c1.5-0.6,6.7-2.5,8.2-3.1
	c1.8-0.6,1.3-1.4,1.3-1.5c0-0.3-0.1-0.6-1.1-0.1c-1,0.5-8.8,3.3-8.8,3.3c-0.5-1.3-1.1-2.4-2-3.4c2-1.8,14.4-12.9,15.2-13.4
	c0.9-0.6,1.1-1,0.9-1.6c-0.6-0.9-1.3-0.3-1.3-0.3l-16.1,13.9c-0.6-0.6-1.3-1.1-2-1.6c0.8-1.6,4.8-10.4,5-10.8c0.3-0.5,0.6-1.4,0-1.6
	c-1.1-0.5-1.4,0.3-1.4,0.3l-5.6,11c-1.6-0.8-3.4-1.3-5.1-1.4c0-2.5,0.3-16.1,0.3-16.8c0-0.9-0.4-0.9-0.9-0.9c-0.6,0-1,0.1-1.1,0.6
	c-0.1,0.5-0.8,16.9-0.8,16.9c-1.1,0.1-2.1,0.3-3.1,0.6c-0.8-1.9-3.6-8.7-4.1-9.8c-0.6-1.4-1.6-0.6-1.6-0.6c-0.3,0.3,0.1,0.9,0.6,2
	c0.5,1.1,3.6,9.2,3.6,9.2c-0.9,0.4-1.8,0.9-2.6,1.5c-1.9-2.5-11.3-14.9-12.2-15.9c-1-1.1-2.3-0.9-2.3-0.9c-0.4,0.4-0.4,0.6,0.4,1.5
	c0.8,1,12.4,16.6,12.4,16.6s-1.5,1.4-2.4,2.9c0,0-7.8-4.6-8.9-5.3c-1.1-0.6-1.9,0.1-1.9,0.1s-0.1,0.5,0.3,0.8
	c0.4,0.3,9.8,5.6,9.8,5.6c-1.1,2.1-1.8,4.5-1.8,7c0,0.3,0,0.6,0,0.9c0,0-14.3,0-14.7,0c-0.4,0-1.1-0.1-1.6,0.4s-0.4,1,0.6,1
	c1,0,15.8,0,15.8,0c0.1,0.8,0.3,1.4,0.5,2.1c0,0-8.5,3.5-9.7,3.8c-1.1,0.4-1.5,1.1-1.3,1.4c0.3,0.3,0.5,0.4,1.3,0.3
	c0.8-0.1,10.2-3.8,10.2-3.8c0.5,1,1,2,1.6,3c0,0-13.8,12.8-14.3,13.2c-0.5,0.4-0.9,0.8-0.5,1c0.4,0.4,1,0.4,1.8-0.3
	c0.8-0.6,14.2-12.6,14.2-12.6c1.3,1.4,2.9,2.6,4.5,3.4c0,0-4.3,8.8-4.6,9.7c-0.4,0.9,0,1.4,0.4,1.5c0.4,0.1,1.4-0.1,1.8-1.3
	c0.5-1.1,4.4-9.3,4.4-9.3c0.9,0.3,1.8,0.5,2.8,0.6c0,0-0.5,19-0.5,19.6c0,0.6,0.8,0.8,1.1,0.8c0.4,0,1.1,0,1.1-0.6
	c0-0.6,0.5-19.7,0.5-19.7c1.8,0,3.4-0.4,5-1c0.8,1.6,2.8,6.5,3.3,7.7c0.5,1.4,2.8,0.6,2.4-0.1c-0.3-0.8-3.5-8.7-3.5-8.7
	c0.3-0.1,0.5-0.4,0.8-0.5c2,2.5,13.1,16.9,13.8,17.7c0.9,0.9,2.1-0.1,1.9-0.5c-0.4-0.4-14.2-18.3-14.2-18.3c1.1-1,2.1-2.3,3-3.6
	c1.5,0.9,7.3,4.3,8.5,5c1.4,0.9,2.9-0.4,2.4-0.8c-0.5-0.4-10-5.9-10-5.9c0.5-1.1,0.9-2.4,1-3.6c0,0,20.8,0,21.7,0
	c0.9,0,1.1-0.5,1.1-0.8C618.5,615.6,618.3,615.4,617.8,615.4z"/>
<path class="st0" d="M636.7,553.9c-0.5,0-22.1,0-22.1,0c0-0.4,0-0.8,0-1.1c0-1.6-0.3-3.1-0.8-4.6c1.5-0.6,6.7-2.5,8.2-3.1
	c1.8-0.6,1.3-1.4,1.3-1.5c0-0.3-0.1-0.6-1.1-0.1c-1,0.5-8.8,3.3-8.8,3.3c-0.5-1.3-1.1-2.4-2-3.4c2-1.8,14.4-12.9,15.2-13.4
	c0.9-0.6,1.1-1,0.9-1.6c-0.6-0.9-1.3-0.3-1.3-0.3L610,541.8c-0.6-0.6-1.3-1.1-2-1.6c0.8-1.6,4.8-10.4,5-10.8c0.3-0.5,0.6-1.4,0-1.6
	c-1.1-0.5-1.4,0.3-1.4,0.3l-5.6,11c-1.6-0.8-3.4-1.3-5.1-1.4c0-2.5,0.3-16.1,0.3-16.8c0-0.9-0.4-0.9-0.9-0.9c-0.6,0-1,0.1-1.1,0.6
	c-0.1,0.6-0.8,16.9-0.8,16.9c-1.1,0.1-2.1,0.3-3.1,0.6c-0.8-1.9-3.6-8.7-4.1-9.8c-0.6-1.4-1.6-0.6-1.6-0.6c-0.3,0.3,0.1,0.9,0.6,2
	c0.5,1.1,3.6,9.2,3.6,9.2c-0.9,0.4-1.8,0.9-2.6,1.5c-1.9-2.5-11.3-14.9-12.2-15.9c-1-1.1-2.3-0.9-2.3-0.9c-0.4,0.4-0.4,0.6,0.4,1.5
	c0.8,1,12.4,16.6,12.4,16.6s-1.5,1.4-2.4,2.9c0,0-7.8-4.6-8.9-5.3c-1.1-0.6-1.9,0.1-1.9,0.1s-0.1,0.5,0.3,0.8
	c0.4,0.3,9.8,5.6,9.8,5.6c-1.1,2.1-1.8,4.5-1.8,7c0,0.3,0,0.6,0,0.9c0,0-14.3,0-14.7,0c-0.4,0-1.1-0.1-1.6,0.4c-0.5,0.5-0.4,1,0.6,1
	c1,0,15.8,0,15.8,0c0.1,0.8,0.3,1.4,0.5,2.1c0,0-8.5,3.5-9.7,3.8c-1.1,0.4-1.5,1.1-1.3,1.4c0.3,0.3,0.5,0.4,1.3,0.3
	c0.8-0.3,10.2-3.8,10.2-3.8c0.5,1,1,2,1.6,3c0,0-13.8,12.8-14.3,13.2c-0.5,0.4-0.9,0.8-0.5,1c0.4,0.4,1,0.4,1.8-0.3
	c0.8-0.6,14.2-12.6,14.2-12.6c1.3,1.4,2.9,2.6,4.5,3.4c0,0-4.3,8.8-4.6,9.7c-0.4,0.9,0,1.4,0.4,1.5c0.4,0.1,1.4-0.1,1.8-1.3
	c0.4-1.1,4.4-9.3,4.4-9.3c0.9,0.3,1.8,0.5,2.8,0.6c0,0-0.5,19-0.5,19.6c0,0.6,0.8,0.8,1.1,0.8c0.4,0,1.1,0,1.1-0.6
	c0-0.6,0.5-19.7,0.5-19.7c1.8,0,3.4-0.4,5-1c0.8,1.6,2.8,6.5,3.3,7.7c0.5,1.4,2.8,0.6,2.4-0.1c-0.3-0.8-3.5-8.7-3.5-8.7
	c0.3-0.1,0.5-0.4,0.8-0.5c2,2.5,13.1,16.9,13.8,17.7c0.9,0.9,2.1-0.1,1.9-0.5c-0.4-0.4-14.2-18.3-14.2-18.3c1.1-1,2.1-2.3,3-3.6
	c1.5,0.9,7.3,4.3,8.5,5c1.4,0.9,2.9-0.4,2.4-0.8c-0.5-0.4-10-5.9-10-5.9c0.5-1.1,0.9-2.4,1-3.6c0,0,20.8,0,21.7,0
	c0.9,0,1.1-0.5,1.1-0.8S637.2,553.9,636.7,553.9z"/>
<path class="st0" d="M676.1,622.2c-0.5,0-22.1,0-22.1,0c0-0.4,0-0.8,0-1.1c0-1.6-0.3-3.1-0.8-4.6c1.5-0.6,6.7-2.5,8.2-3.1
	c1.8-0.6,1.3-1.4,1.3-1.5c0-0.3-0.1-0.6-1.1-0.1c-1,0.5-8.8,3.3-8.8,3.3c-0.5-1.3-1.1-2.4-2-3.4c2-1.8,14.4-12.9,15.2-13.4
	c0.9-0.6,1.1-1,0.9-1.6c-0.6-0.9-1.3-0.3-1.3-0.3l-16.1,13.9c-0.6-0.6-1.3-1.1-2-1.6c0.8-1.6,4.8-10.4,5-10.8c0.3-0.5,0.6-1.4,0-1.6
	c-1.1-0.5-1.4,0.3-1.4,0.3l-5.6,11c-1.6-0.8-3.4-1.3-5.1-1.4c0-2.5,0.3-16.1,0.3-16.8c0-0.9-0.4-0.9-0.9-0.9c-0.6,0-1,0.1-1.1,0.6
	c-0.1,0.6-0.8,16.9-0.8,16.9c-1.1,0.1-2.1,0.3-3.1,0.6c-0.8-1.9-3.6-8.7-4.1-9.8c-0.6-1.4-1.6-0.6-1.6-0.6c-0.3,0.3,0.1,0.9,0.6,2
	c0.5,1.1,3.6,9.2,3.6,9.2c-0.9,0.4-1.8,0.9-2.6,1.5c-1.9-2.5-11.3-14.9-12.2-15.9c-1-1.1-2.3-0.9-2.3-0.9c-0.4,0.4-0.4,0.6,0.4,1.5
	c0.8,1,12.4,16.6,12.4,16.6s-1.5,1.4-2.4,2.9c0,0-7.8-4.6-8.9-5.3c-1.1-0.6-1.9,0.1-1.9,0.1s-0.1,0.5,0.3,0.8
	c0.4,0.3,9.8,5.6,9.8,5.6c-1.1,2.1-1.8,4.5-1.8,7c0,0.3,0,0.6,0,0.9c0,0-14.3,0-14.7,0c-0.4,0-1.1-0.1-1.6,0.4c-0.5,0.4-0.4,1,0.6,1
	c1,0,15.8,0,15.8,0c0.1,0.8,0.3,1.4,0.5,2.1c0,0-8.5,3.5-9.7,3.8c-1.1,0.3-1.5,1.1-1.3,1.4c0.3,0.3,0.5,0.4,1.3,0.3
	c0.8-0.1,10.2-3.8,10.2-3.8c0.5,1,1,2,1.6,3c0,0-13.8,12.8-14.3,13.2c-0.5,0.5-0.9,0.8-0.5,1c0.4,0.4,1,0.4,1.8-0.3
	c0.6-0.6,14.2-12.6,14.2-12.6c1.3,1.4,2.9,2.6,4.5,3.4c0,0-4.3,8.8-4.6,9.7c-0.5,0.9,0,1.4,0.4,1.5c0.4,0.1,1.4-0.1,1.8-1.3
	c0.5-1.1,4.4-9.3,4.4-9.3c0.9,0.3,1.8,0.5,2.8,0.6c0,0-0.5,19-0.5,19.6s0.8,0.8,1.1,0.8c0.4,0,1.1,0,1.1-0.6
	c0-0.6,0.5-19.7,0.5-19.7c1.8,0,3.4-0.4,5-1c0.8,1.6,2.8,6.5,3.3,7.7c0.5,1.4,2.8,0.6,2.4-0.1c-0.3-0.8-3.5-8.7-3.5-8.7
	c0.3-0.1,0.5-0.4,0.8-0.5c2,2.5,13.1,16.9,13.8,17.7c0.9,0.9,2.1-0.1,1.9-0.5c-0.4-0.4-14.2-18.3-14.2-18.3c1.1-1,2.1-2.3,3-3.6
	c1.5,0.9,7.3,4.3,8.5,5c1.4,0.9,2.9-0.4,2.4-0.8c-0.5-0.4-10-5.9-10-5.9c0.5-1.1,0.9-2.4,1-3.6c0,0,20.8,0,21.7,0
	c0.9,0,1.1-0.5,1.1-0.8C676.4,622.5,676.6,622.2,676.1,622.2z"/>
<path class="st0" d="M555.1,649.5c-0.5,0-22.1,0-22.1,0c0-0.4,0-0.8,0-1.1c0-1.6-0.3-3.1-0.8-4.6c1.5-0.6,6.7-2.5,8.2-3.1
	c1.8-0.6,1.3-1.4,1.3-1.5c0-0.3-0.1-0.6-1.1-0.1c-1,0.5-8.8,3.3-8.8,3.3c-0.5-1.3-1.1-2.4-2-3.4c2-1.8,14.4-12.9,15.2-13.4
	c0.9-0.6,1.1-1,0.9-1.6c-0.6-0.9-1.3-0.3-1.3-0.3l-16.1,13.9c-0.6-0.6-1.3-1.1-2-1.6c0.8-1.6,4.8-10.4,5-10.8c0.3-0.5,0.6-1.4,0-1.6
	c-1.1-0.5-1.4,0.3-1.4,0.3l-5.6,11c-1.6-0.8-3.4-1.3-5.1-1.4c0-2.5,0.3-16.1,0.3-16.8c0-0.9-0.4-0.9-0.9-0.9c-0.6,0-1,0.1-1.1,0.6
	c-0.1,0.6-0.8,16.9-0.8,16.9c-1.1,0.1-2.1,0.3-3.1,0.6c-0.8-1.9-3.6-8.7-4.1-9.8c-0.6-1.4-1.6-0.6-1.6-0.6c-0.3,0.3,0.1,0.9,0.6,2
	c0.5,1.1,3.6,9.2,3.6,9.2c-0.9,0.4-1.8,0.9-2.6,1.5c-1.9-2.5-11.3-14.9-12.2-15.9c-1-1.1-2.3-0.9-2.3-0.9c-0.4,0.4-0.4,0.6,0.4,1.5
	c0.8,1,12.4,16.6,12.4,16.6s-1.5,1.4-2.4,2.9c0,0-7.8-4.6-8.9-5.3c-1.1-0.6-1.9,0.1-1.9,0.1s-0.1,0.5,0.3,0.8
	c0.4,0.3,9.8,5.6,9.8,5.6c-1.1,2.1-1.8,4.5-1.8,7c0,0.3,0,0.6,0,0.9c0,0-14.3,0-14.7,0c-0.5,0-1.1-0.1-1.6,0.4c-0.5,0.4-0.4,1,0.6,1
	c1,0,15.8,0,15.8,0c0.1,0.8,0.3,1.4,0.5,2.1c0,0-8.5,3.5-9.7,3.8c-1.1,0.4-1.5,1.1-1.3,1.4c0.3,0.3,0.5,0.4,1.3,0.2
	c0.8-0.1,10.2-3.8,10.2-3.8c0.5,1,1,2,1.6,3c0,0-13.8,12.8-14.3,13.2c-0.5,0.5-0.9,0.8-0.5,1c0.4,0.4,1,0.4,1.8-0.3
	c0.6-0.6,14.2-12.6,14.2-12.6c1.3,1.4,2.9,2.6,4.5,3.4c0,0-4.3,8.8-4.6,9.7c-0.4,0.9,0,1.4,0.4,1.5c0.4,0.1,1.4-0.1,1.8-1.3
	c0.4-1.1,4.4-9.3,4.4-9.3c0.9,0.3,1.8,0.5,2.8,0.6c0,0-0.5,19-0.5,19.6c0,0.6,0.8,0.8,1.1,0.8c0.4,0,1.1,0,1.1-0.6
	s0.5-19.7,0.5-19.7c1.8,0,3.4-0.4,5-1c0.8,1.6,2.8,6.5,3.3,7.7c0.5,1.4,2.8,0.6,2.4-0.1c-0.3-0.8-3.5-8.7-3.5-8.7
	c0.3-0.1,0.5-0.4,0.8-0.5c2,2.5,13.1,16.9,13.8,17.7c0.9,0.9,2.1-0.1,1.9-0.5c-0.4-0.4-14.2-18.3-14.2-18.3c1.1-1,2.1-2.3,3-3.6
	c1.5,0.9,7.3,4.3,8.5,5c1.4,0.9,2.9-0.4,2.4-0.8c-0.6-0.4-10-5.9-10-5.9c0.5-1.1,0.9-2.4,1-3.6c0,0,20.8,0,21.7,0
	c0.9,0,1.1-0.5,1.1-0.8C555.7,649.8,555.6,649.5,555.1,649.5z"/>
<path class="st0" d="M624.2,679.3c-0.5,0-22.1,0-22.1,0c0-0.4,0-0.8,0-1.1c0-1.6-0.3-3.1-0.8-4.6c1.5-0.6,6.7-2.5,8.2-3.1
	c1.8-0.6,1.3-1.4,1.3-1.5c0-0.3-0.1-0.6-1.1-0.1c-1,0.5-8.8,3.3-8.8,3.3c-0.5-1.3-1.1-2.4-2-3.4c2-1.8,14.4-12.9,15.2-13.4
	c0.9-0.6,1.1-1,0.9-1.6c-0.6-0.9-1.3-0.3-1.3-0.3l-16.1,13.9c-0.6-0.6-1.3-1.1-2-1.6c0.8-1.6,4.8-10.4,5-10.8c0.3-0.5,0.6-1.4,0-1.6
	c-1.1-0.5-1.4,0.3-1.4,0.3l-5.6,11c-1.6-0.8-3.4-1.3-5.1-1.4c0-2.5,0.3-16.1,0.3-16.8c0-0.9-0.4-0.9-0.9-0.9c-0.6,0-1,0.1-1.1,0.6
	c-0.1,0.5-0.8,16.9-0.8,16.9c-1.1,0.1-2.1,0.3-3.1,0.6c-0.8-1.9-3.6-8.7-4.1-9.8c-0.6-1.4-1.6-0.6-1.6-0.6c-0.3,0.3,0.1,0.9,0.6,2
	s3.6,9.2,3.6,9.2c-0.9,0.4-1.8,0.9-2.6,1.5c-1.9-2.5-11.3-14.9-12.2-15.9c-1-1.1-2.3-0.9-2.3-0.9c-0.4,0.4-0.4,0.6,0.4,1.5
	c0.8,1,12.4,16.6,12.4,16.6s-1.5,1.4-2.4,2.9c0,0-7.8-4.6-8.9-5.3c-1.1-0.6-1.9,0.1-1.9,0.1s-0.1,0.5,0.3,0.8
	c0.4,0.3,9.8,5.6,9.8,5.6c-1.1,2.1-1.8,4.5-1.8,7c0,0.3,0,0.6,0,0.9c0,0-14.3,0-14.7,0c-0.4,0-1.1-0.1-1.6,0.4c-0.5,0.4-0.4,1,0.6,1
	s15.8,0,15.8,0c0.1,0.8,0.3,1.4,0.5,2.1c0,0-8.5,3.5-9.7,3.8c-1.1,0.4-1.5,1.1-1.3,1.4c0.3,0.3,0.5,0.4,1.3,0.3
	c0.8-0.3,10.2-3.8,10.2-3.8c0.5,1,1,2,1.6,3c0,0-13.8,12.8-14.3,13.2c-0.5,0.4-0.9,0.8-0.5,1c0.4,0.4,1,0.4,1.8-0.3
	c0.8-0.6,14.2-12.6,14.2-12.6c1.3,1.4,2.9,2.6,4.5,3.4c0,0-4.3,8.8-4.6,9.7c-0.4,0.9,0,1.4,0.4,1.5c0.4,0.1,1.4-0.1,1.8-1.3
	c0.4-1.1,4.4-9.3,4.4-9.3c0.9,0.3,1.8,0.5,2.8,0.6c0,0-0.5,19-0.5,19.6c0,0.6,0.8,0.8,1.1,0.8c0.4,0,1.1,0,1.1-0.6
	c0-0.6,0.5-19.7,0.5-19.7c1.8,0,3.4-0.4,5-1c0.8,1.6,2.8,6.5,3.3,7.7c0.5,1.4,2.8,0.6,2.4-0.1c-0.3-0.8-3.5-8.7-3.5-8.7
	c0.3-0.1,0.5-0.4,0.8-0.5c2,2.5,13.1,16.9,13.8,17.7c0.9,0.9,2.1-0.1,1.9-0.5c-0.4-0.4-14.2-18.3-14.2-18.3c1.1-1,2.1-2.3,3-3.6
	c1.5,0.9,7.3,4.3,8.5,5c1.4,0.9,2.9-0.4,2.4-0.8c-0.5-0.4-10-5.9-10-5.9c0.5-1.1,0.9-2.4,1-3.6c0,0,20.8,0,21.7,0
	c0.9,0,1.1-0.5,1.1-0.8C624.6,679.7,624.7,679.3,624.2,679.3z"/>
<path class="st0" d="M717.5,553.9c-0.5,0-22.1,0-22.1,0c0-0.4,0-0.8,0-1.1c0-1.6-0.3-3.1-0.8-4.6c1.5-0.6,6.7-2.5,8.2-3.1
	c1.8-0.6,1.3-1.4,1.3-1.5c0-0.3-0.1-0.6-1.1-0.1c-1,0.5-8.8,3.3-8.8,3.3c-0.5-1.3-1.1-2.4-2-3.4c2-1.8,14.4-12.9,15.2-13.4
	c0.9-0.6,1.1-1,0.9-1.6c-0.6-0.9-1.3-0.3-1.3-0.3l-16.1,13.9c-0.6-0.6-1.3-1.1-2-1.6c0.8-1.6,4.8-10.4,5-10.8c0.3-0.5,0.6-1.4,0-1.6
	c-1.1-0.5-1.4,0.3-1.4,0.3l-5.6,11c-1.6-0.8-3.4-1.3-5.1-1.4c0-2.5,0.3-16.1,0.3-16.8c0-0.9-0.4-0.9-0.9-0.9c-0.6,0-1,0.1-1.1,0.6
	c-0.1,0.6-0.8,16.9-0.8,16.9c-1.1,0.1-2.1,0.3-3.1,0.6c-0.8-1.9-3.6-8.7-4.1-9.8c-0.6-1.4-1.6-0.6-1.6-0.6c-0.3,0.3,0.1,0.9,0.6,2
	c0.5,1.1,3.6,9.2,3.6,9.2c-0.9,0.4-1.8,0.9-2.6,1.5c-1.9-2.5-11.3-14.9-12.2-15.9c-1-1.1-2.3-0.9-2.3-0.9c-0.4,0.4-0.4,0.6,0.4,1.5
	c0.8,1,12.4,16.6,12.4,16.6s-1.5,1.4-2.4,2.9c0,0-7.8-4.6-8.9-5.3c-1.1-0.6-1.9,0.1-1.9,0.1s-0.1,0.5,0.3,0.8
	c0.4,0.3,9.8,5.6,9.8,5.6c-1.1,2.1-1.8,4.5-1.8,7c0,0.3,0,0.6,0,0.9c0,0-14.3,0-14.7,0c-0.4,0-1.1-0.1-1.6,0.4c-0.5,0.5-0.4,1,0.6,1
	c1,0,15.8,0,15.8,0c0.1,0.8,0.3,1.4,0.5,2.1c0,0-8.5,3.5-9.7,3.8c-1.1,0.4-1.5,1.1-1.3,1.4c0.3,0.3,0.5,0.4,1.3,0.3
	c0.8-0.3,10.2-3.8,10.2-3.8c0.5,1,1,2,1.6,3c0,0-13.8,12.8-14.3,13.2c-0.5,0.4-0.9,0.8-0.5,1c0.4,0.4,1,0.4,1.8-0.3
	c0.8-0.6,14.2-12.6,14.2-12.6c1.3,1.4,2.9,2.6,4.5,3.4c0,0-4.3,8.8-4.6,9.7c-0.4,0.9,0,1.4,0.4,1.5c0.4,0.1,1.4-0.1,1.8-1.3
	c0.4-1.1,4.4-9.3,4.4-9.3c0.9,0.3,1.8,0.5,2.8,0.6c0,0-0.5,19-0.5,19.6c0,0.6,0.8,0.8,1.1,0.8c0.4,0,1.1,0,1.1-0.6
	c0-0.6,0.5-19.7,0.5-19.7c1.8,0,3.4-0.4,5-1c0.8,1.6,2.8,6.5,3.3,7.7c0.5,1.4,2.8,0.6,2.4-0.1c-0.3-0.8-3.5-8.7-3.5-8.7
	c0.3-0.1,0.5-0.4,0.8-0.5c2,2.5,13.1,16.9,13.8,17.7c0.9,0.9,2.1-0.1,1.9-0.5c-0.4-0.4-14.2-18.3-14.2-18.3c1.1-1,2.1-2.3,3-3.6
	c1.5,0.9,7.3,4.3,8.5,5c1.4,0.9,2.9-0.4,2.4-0.8c-0.5-0.4-10-5.9-10-5.9c0.5-1.1,0.9-2.4,1-3.6c0,0,20.8,0,21.7,0
	c0.9,0,1.1-0.5,1.1-0.8S718,553.9,717.5,553.9z"/>
<path class="st0" d="M710.6,683.7c-0.5,0-22.1,0-22.1,0c0-0.4,0-0.8,0-1.1c0-1.6-0.3-3.1-0.8-4.6c1.5-0.6,6.7-2.5,8.2-3.1
	c1.8-0.6,1.3-1.4,1.3-1.5c0-0.3-0.1-0.6-1.1-0.1c-1,0.5-8.8,3.3-8.8,3.3c-0.5-1.3-1.1-2.4-2-3.4c2-1.8,14.4-12.9,15.2-13.4
	c0.9-0.6,1.1-1,0.9-1.6c-0.6-0.9-1.3-0.3-1.3-0.3L684,671.6c-0.6-0.6-1.3-1.1-2-1.6c0.8-1.6,4.8-10.4,5-10.8c0.3-0.5,0.6-1.4,0-1.6
	c-1.1-0.5-1.4,0.3-1.4,0.3l-5.6,11c-1.6-0.8-3.4-1.3-5.1-1.4c0-2.5,0.3-16.1,0.3-16.8c0-0.9-0.4-0.9-0.9-0.9c-0.6,0-1,0.1-1.1,0.6
	c-0.1,0.5-0.8,16.9-0.8,16.9c-1.1,0.1-2.1,0.3-3.1,0.6c-0.8-1.9-3.6-8.7-4.1-9.8c-0.6-1.4-1.6-0.6-1.6-0.6c-0.3,0.3,0.1,0.9,0.6,2
	c0.5,1.1,3.6,9.2,3.6,9.2c-0.9,0.4-1.8,0.9-2.6,1.5c-1.9-2.5-11.3-14.9-12.2-15.9c-1-1.1-2.3-0.9-2.3-0.9c-0.4,0.4-0.4,0.6,0.4,1.5
	c0.8,1,12.4,16.6,12.4,16.6s-1.5,1.4-2.4,2.9c0,0-7.8-4.6-8.9-5.3c-1.1-0.6-1.9,0.1-1.9,0.1s-0.1,0.5,0.3,0.8
	c0.4,0.3,9.8,5.6,9.8,5.6c-1.1,2.1-1.8,4.5-1.8,7c0,0.3,0,0.6,0,0.9c0,0-14.3,0-14.7,0c-0.5,0-1.1-0.1-1.6,0.4c-0.5,0.4-0.4,1,0.6,1
	c1,0,15.8,0,15.8,0c0.1,0.8,0.3,1.4,0.5,2.1c0,0-8.5,3.5-9.7,3.8c-1.1,0.4-1.5,1.1-1.3,1.4c0.3,0.3,0.5,0.4,1.3,0.3
	c0.8-0.3,10.2-3.8,10.2-3.8c0.5,1,1,2,1.6,3c0,0-13.8,12.8-14.3,13.2c-0.5,0.4-0.9,0.8-0.5,1c0.4,0.4,1,0.4,1.8-0.3
	c0.8-0.6,14.2-12.6,14.2-12.6c1.3,1.4,2.9,2.6,4.5,3.4c0,0-4.3,8.8-4.6,9.7c-0.4,0.9,0,1.4,0.4,1.5c0.4,0.1,1.4-0.1,1.8-1.3
	c0.4-1.1,4.4-9.3,4.4-9.3c0.9,0.3,1.8,0.5,2.8,0.6c0,0-0.5,19-0.5,19.6s0.8,0.8,1.1,0.8c0.4,0,1.1,0,1.1-0.6
	c0-0.6,0.5-19.7,0.5-19.7c1.8,0,3.4-0.4,5-1c0.8,1.6,2.8,6.5,3.3,7.7c0.5,1.4,2.8,0.6,2.4-0.1c-0.3-0.8-3.5-8.7-3.5-8.7
	c0.3-0.1,0.5-0.4,0.8-0.5c2,2.5,13.1,16.9,13.8,17.7c0.9,0.9,2.1-0.1,1.9-0.5c-0.4-0.4-14.2-18.3-14.2-18.3c1.1-1,2.1-2.3,3-3.6
	c1.5,0.9,7.3,4.3,8.5,5c1.4,0.9,2.9-0.4,2.4-0.8c-0.5-0.4-10-5.9-10-5.9c0.5-1.1,0.9-2.4,1-3.6c0,0,20.8,0,21.7,0
	c0.9,0,1.1-0.5,1.1-0.8C711,684,711.2,683.7,710.6,683.7z"/>
<path class="st0" d="M492.1,664.2c-0.5,0-22.1,0-22.1,0c0-0.4,0-0.8,0-1.1c0-1.6-0.3-3.1-0.8-4.6c1.5-0.6,6.7-2.5,8.2-3.1
	c1.8-0.6,1.3-1.4,1.3-1.5c0-0.3-0.1-0.6-1.1-0.1c-1,0.5-8.8,3.3-8.8,3.3c-0.5-1.3-1.1-2.4-2-3.4c2-1.8,14.4-12.9,15.2-13.4
	c0.9-0.6,1.1-1,0.9-1.6c-0.6-0.9-1.3-0.3-1.3-0.3l-16.1,13.9c-0.6-0.6-1.3-1.1-2-1.6c0.8-1.6,4.8-10.4,5-10.8c0.3-0.5,0.6-1.4,0-1.6
	c-1.1-0.5-1.4,0.3-1.4,0.3l-5.6,11c-1.6-0.8-3.4-1.3-5.1-1.4c0-2.5,0.3-16.1,0.3-16.8c0-0.9-0.4-0.9-0.9-0.9c-0.6,0-1,0.1-1.1,0.6
	s-0.8,16.9-0.8,16.9c-1.1,0.1-2.1,0.3-3.1,0.6c-0.8-1.9-3.6-8.7-4.1-9.8c-0.6-1.4-1.6-0.6-1.6-0.6c-0.3,0.3,0.1,0.9,0.6,2
	c0.5,1.1,3.6,9.2,3.6,9.2c-0.9,0.4-1.8,0.9-2.6,1.5c-1.9-2.5-11.3-14.9-12.2-15.9c-1-1.1-2.3-0.9-2.3-0.9c-0.4,0.4-0.4,0.6,0.4,1.5
	c0.8,1,12.4,16.6,12.4,16.6s-1.5,1.4-2.4,2.9c0,0-7.8-4.6-8.9-5.3c-1.1-0.6-1.9,0.1-1.9,0.1s-0.1,0.5,0.3,0.8
	c0.4,0.3,9.8,5.6,9.8,5.6c-1.1,2.1-1.8,4.5-1.8,7c0,0.3,0,0.6,0,0.9c0,0-14.3,0-14.7,0c-0.4,0-1.1-0.1-1.6,0.4c-0.5,0.4-0.4,1,0.6,1
	c1,0,15.8,0,15.8,0c0.1,0.8,0.3,1.4,0.5,2.1c0,0-8.5,3.5-9.7,3.8c-1.1,0.4-1.5,1.1-1.3,1.4c0.3,0.3,0.5,0.4,1.3,0.3
	c0.8-0.3,10.2-3.8,10.2-3.8c0.5,1,1,2,1.6,3c0,0-13.8,12.8-14.3,13.2c-0.5,0.4-0.9,0.8-0.5,1c0.4,0.4,1,0.4,1.8-0.3
	c0.6-0.6,14.2-12.6,14.2-12.6c1.3,1.4,2.9,2.6,4.5,3.4c0,0-4.3,8.8-4.6,9.7c-0.5,0.9,0,1.4,0.4,1.5c0.4,0.1,1.4-0.1,1.8-1.3
	c0.4-1.1,4.4-9.3,4.4-9.3c0.9,0.3,1.8,0.5,2.8,0.6c0,0-0.5,19-0.5,19.6c0,0.6,0.8,0.8,1.1,0.8c0.4,0,1.1,0,1.1-0.6
	c0-0.6,0.5-19.7,0.5-19.7c1.8,0,3.4-0.4,5-1c0.8,1.6,2.8,6.5,3.3,7.7c0.5,1.4,2.8,0.6,2.4-0.1c-0.3-0.8-3.5-8.7-3.5-8.7
	c0.3-0.1,0.5-0.4,0.8-0.5c2,2.5,13.1,16.9,13.8,17.7c0.9,0.9,2.1-0.1,1.9-0.5c-0.4-0.4-14.2-18.3-14.2-18.3c1.1-1,2.1-2.3,3-3.6
	c1.5,0.9,7.3,4.3,8.5,5c1.4,0.9,2.9-0.4,2.4-0.8c-0.6-0.4-10-5.9-10-5.9c0.5-1.1,0.9-2.4,1-3.6c0,0,20.8,0,21.7,0
	c0.9,0,1.1-0.5,1.1-0.8S492.6,664.2,492.1,664.2z"/>
<path class="st0" d="M552.8,729.9c-0.5,0-22.1,0-22.1,0c0-0.4,0-0.8,0-1.1c0-1.6-0.3-3.1-0.8-4.6c1.5-0.6,6.7-2.5,8.2-3.1
	c1.8-0.6,1.3-1.4,1.3-1.5c0-0.3-0.1-0.6-1.1-0.1c-1,0.5-8.8,3.3-8.8,3.3c-0.5-1.3-1.1-2.4-2-3.4c2-1.8,14.4-12.9,15.2-13.4
	c0.9-0.6,1.1-1,0.9-1.6c-0.6-0.9-1.3-0.3-1.3-0.3l-16.1,13.9c-0.6-0.6-1.3-1.1-2-1.6c0.8-1.6,4.8-10.4,5-10.8c0.3-0.5,0.6-1.4,0-1.6
	c-1.1-0.5-1.4,0.3-1.4,0.3l-5.6,11c-1.6-0.8-3.4-1.3-5.1-1.4c0-2.5,0.3-16.1,0.3-16.8c0-0.9-0.4-0.9-0.9-0.9c-0.6,0-1,0.1-1.1,0.6
	c-0.1,0.5-0.8,16.9-0.8,16.9c-1.1,0.1-2.1,0.3-3.1,0.6c-0.8-1.9-3.6-8.7-4.1-9.8c-0.6-1.4-1.6-0.6-1.6-0.6c-0.3,0.3,0.1,0.9,0.6,2
	c0.5,1.1,3.6,9.2,3.6,9.2c-0.9,0.4-1.8,0.9-2.6,1.5c-1.9-2.5-11.3-14.9-12.2-15.9c-1-1.1-2.3-0.9-2.3-0.9c-0.4,0.4-0.4,0.6,0.4,1.5
	c0.8,1,12.4,16.6,12.4,16.6s-1.5,1.4-2.4,2.9c0,0-7.8-4.6-8.9-5.3c-1.1-0.6-1.9,0.1-1.9,0.1s-0.1,0.5,0.3,0.8
	c0.4,0.3,9.8,5.6,9.8,5.6c-1.1,2.1-1.8,4.5-1.8,7c0,0.3,0,0.6,0,0.9c0,0-14.3,0-14.7,0c-0.4,0-1.1-0.1-1.6,0.4c-0.5,0.4-0.4,1,0.6,1
	s15.8,0,15.8,0c0.1,0.8,0.3,1.4,0.5,2.1c0,0-8.5,3.5-9.7,3.8c-1.1,0.4-1.5,1.1-1.3,1.4c0.3,0.3,0.5,0.4,1.3,0.3
	c0.8-0.3,10.2-3.8,10.2-3.8c0.5,1,1,2,1.6,3c0,0-13.8,12.8-14.3,13.2c-0.5,0.4-0.9,0.8-0.5,1c0.4,0.4,1,0.4,1.8-0.3
	c0.6-0.6,14.2-12.6,14.2-12.6c1.3,1.4,2.9,2.6,4.5,3.4c0,0-4.3,8.8-4.6,9.7c-0.5,0.9,0,1.4,0.4,1.5c0.4,0.1,1.4-0.1,1.8-1.3
	c0.4-1.1,4.4-9.3,4.4-9.3c0.9,0.3,1.8,0.5,2.8,0.6c0,0-0.5,19-0.5,19.6c0,0.6,0.8,0.8,1.1,0.8c0.4,0,1.1,0,1.1-0.6
	c0-0.6,0.5-19.7,0.5-19.7c1.8,0,3.4-0.4,5-1c0.8,1.6,2.8,6.5,3.3,7.7c0.5,1.4,2.8,0.6,2.4-0.1c-0.3-0.8-3.5-8.7-3.5-8.7
	c0.3-0.1,0.5-0.4,0.8-0.5c2,2.5,13.1,16.9,13.8,17.7c0.9,0.9,2.1-0.1,1.9-0.5c-0.4-0.4-14.2-18.3-14.2-18.3c1.1-1,2.1-2.3,3-3.6
	c1.5,0.9,7.3,4.3,8.5,5c1.4,0.9,2.9-0.4,2.4-0.8c-0.6-0.4-10-5.9-10-5.9c0.5-1.1,0.9-2.4,1-3.6c0,0,20.8,0,21.7,0
	c0.9,0,1.1-0.5,1.1-0.8C553.2,730.2,553.3,729.9,552.8,729.9z"/>
<path class="st0" d="M435.3,527.5c-0.5,0-22.1,0-22.1,0c0-0.4,0-0.8,0-1.1c0-1.6-0.3-3.1-0.8-4.6c1.5-0.6,6.7-2.5,8.2-3.1
	c1.8-0.6,1.3-1.4,1.3-1.5c0-0.3-0.1-0.6-1.1-0.1c-1,0.5-8.8,3.3-8.8,3.3c-0.5-1.3-1.1-2.4-2-3.4c2-1.8,14.4-12.9,15.2-13.4
	c0.9-0.6,1.1-1,0.9-1.6c-0.6-0.9-1.3-0.3-1.3-0.3l-16.1,13.9c-0.6-0.6-1.3-1.1-2-1.6c0.8-1.6,4.8-10.4,5-10.8c0.3-0.5,0.6-1.4,0-1.6
	c-1.1-0.5-1.4,0.3-1.4,0.3l-5.6,11c-1.6-0.8-3.4-1.3-5.1-1.4c0-2.5,0.3-16.1,0.3-16.8c0-0.9-0.4-0.9-0.9-0.9c-0.6,0-1,0.1-1.1,0.6
	c-0.1,0.5-0.8,16.9-0.8,16.9c-1.1,0.1-2.1,0.3-3.1,0.6c-0.8-1.9-3.6-8.7-4.1-9.8c-0.6-1.4-1.6-0.6-1.6-0.6c-0.3,0.3,0.1,0.9,0.6,2
	c0.5,1.1,3.6,9.2,3.6,9.2c-0.9,0.4-1.8,0.9-2.6,1.5c-1.9-2.5-11.3-14.9-12.2-15.9c-1-1.1-2.3-0.9-2.3-0.9c-0.4,0.4-0.4,0.6,0.4,1.5
	c0.8,1,12.4,16.6,12.4,16.6s-1.5,1.4-2.4,2.9c0,0-7.8-4.6-8.9-5.3c-1.1-0.6-1.9,0.1-1.9,0.1s-0.1,0.5,0.3,0.8
	c0.4,0.3,9.8,5.6,9.8,5.6c-1.1,2.1-1.8,4.5-1.8,7c0,0.3,0,0.6,0,0.9c0,0-14.3,0-14.7,0s-1.1-0.1-1.6,0.4c-0.5,0.4-0.4,1,0.6,1
	c1,0,15.8,0,15.8,0c0.1,0.8,0.3,1.4,0.5,2.1c0,0-8.5,3.5-9.7,3.8c-1.1,0.3-1.5,1.1-1.3,1.4c0.3,0.3,0.5,0.4,1.3,0.3
	c0.8-0.3,10.2-3.8,10.2-3.8c0.5,1,1,2,1.6,3c0,0-13.8,12.8-14.3,13.2c-0.5,0.5-0.9,0.8-0.5,1c0.4,0.4,1,0.4,1.8-0.3
	c0.6-0.6,14.2-12.6,14.2-12.6c1.3,1.4,2.9,2.6,4.5,3.4c0,0-4.3,8.8-4.6,9.7c-0.5,0.9,0,1.4,0.4,1.5c0.4,0.1,1.4-0.1,1.8-1.3
	c0.5-1.1,4.4-9.3,4.4-9.3c0.9,0.3,1.8,0.5,2.8,0.6c0,0-0.5,19-0.5,19.6c0,0.6,0.8,0.8,1.1,0.8c0.4,0,1.1,0,1.1-0.6
	c0-0.6,0.5-19.7,0.5-19.7c1.8,0,3.4-0.4,5-1c0.8,1.6,2.8,6.5,3.3,7.7c0.5,1.4,2.8,0.6,2.4-0.1c-0.3-0.8-3.5-8.7-3.5-8.7
	c0.3-0.1,0.5-0.4,0.8-0.5c2,2.5,13.1,16.9,13.8,17.7c0.9,0.9,2.1-0.1,1.9-0.5c-0.4-0.4-14.2-18.3-14.2-18.3c1.1-1,2.1-2.3,3-3.6
	c1.5,0.9,7.3,4.3,8.5,5c1.4,0.9,2.9-0.4,2.4-0.8c-0.6-0.4-10-5.9-10-5.9c0.5-1.1,0.9-2.4,1-3.6c0,0,20.8,0,21.7,0s1.1-0.5,1.1-0.8
	C436.1,527.7,435.8,527.5,435.3,527.5z"/>
<path class="st0" d="M427.9,702.2c-0.5,0-22.1,0-22.1,0c0-0.4,0-0.8,0-1.1c0-1.6-0.3-3.1-0.8-4.6c1.5-0.6,6.7-2.5,8.2-3.1
	c1.8-0.6,1.3-1.4,1.3-1.5c0-0.3-0.1-0.6-1.1-0.1c-1,0.5-8.8,3.3-8.8,3.3c-0.5-1.3-1.1-2.4-2-3.4c2-1.8,14.4-12.9,15.2-13.4
	c0.9-0.6,1.1-1,0.9-1.6c-0.6-0.9-1.3-0.3-1.3-0.3l-16.1,13.9c-0.6-0.6-1.3-1.1-2-1.6c0.8-1.6,4.8-10.4,5-10.8c0.3-0.5,0.6-1.4,0-1.6
	c-1.1-0.5-1.4,0.3-1.4,0.3l-5.6,11c-1.6-0.8-3.4-1.3-5.1-1.4c0-2.5,0.3-16.1,0.3-16.8c0-0.9-0.4-0.9-0.9-0.9c-0.6,0-1,0.1-1.1,0.6
	c-0.1,0.5-0.8,16.9-0.8,16.9c-1.1,0.1-2.1,0.3-3.1,0.6c-0.8-1.9-3.6-8.7-4.1-9.8c-0.6-1.4-1.6-0.6-1.6-0.6c-0.3,0.3,0.1,0.9,0.6,2
	c0.5,1.1,3.6,9.2,3.6,9.2c-0.9,0.4-1.8,0.9-2.6,1.5c-1.9-2.5-11.3-14.9-12.2-15.9c-1-1.1-2.3-0.9-2.3-0.9c-0.4,0.4-0.4,0.6,0.4,1.5
	c0.8,1,12.4,16.6,12.4,16.6s-1.5,1.4-2.4,2.9c0,0-7.8-4.6-8.9-5.3c-1.1-0.6-1.9,0.1-1.9,0.1s-0.1,0.5,0.3,0.8
	c0.4,0.3,9.8,5.6,9.8,5.6c-1.1,2.1-1.8,4.5-1.8,7c0,0.3,0,0.6,0,0.9c0,0-14.3,0-14.7,0s-1.1-0.1-1.6,0.4c-0.5,0.4-0.4,1,0.6,1
	c1,0,15.8,0,15.8,0c0.1,0.8,0.3,1.4,0.5,2.1c0,0-8.5,3.5-9.7,3.8c-1.1,0.4-1.5,1.1-1.3,1.4c0.3,0.3,0.5,0.4,1.3,0.3
	c0.8-0.3,10.2-3.8,10.2-3.8c0.5,1,1,2,1.6,3c0,0-13.8,12.8-14.3,13.2c-0.5,0.4-0.9,0.8-0.5,1c0.4,0.4,1,0.4,1.8-0.3
	c0.6-0.6,14.2-12.6,14.2-12.6c1.3,1.4,2.9,2.6,4.5,3.4c0,0-4.3,8.8-4.6,9.7c-0.5,0.9,0,1.4,0.4,1.5c0.4,0.1,1.4-0.1,1.8-1.3
	c0.5-1.1,4.4-9.3,4.4-9.3c0.9,0.3,1.8,0.5,2.8,0.6c0,0-0.5,19-0.5,19.6c0,0.6,0.8,0.8,1.1,0.8c0.4,0,1.1,0,1.1-0.6
	c0-0.6,0.5-19.7,0.5-19.7c1.8,0,3.4-0.4,5-1c0.8,1.6,2.8,6.5,3.3,7.7c0.5,1.4,2.8,0.6,2.4-0.1c-0.3-0.8-3.5-8.7-3.5-8.7
	c0.3-0.1,0.5-0.4,0.8-0.5c2,2.5,13.1,16.9,13.8,17.7c0.9,0.9,2.1-0.1,1.9-0.5c-0.4-0.4-14.2-18.3-14.2-18.3c1.1-1,2.1-2.3,3-3.6
	c1.5,0.9,7.3,4.3,8.5,5c1.4,0.9,2.9-0.4,2.4-0.8c-0.6-0.4-10-5.9-10-5.9c0.5-1.1,0.9-2.4,1-3.6c0,0,20.8,0,21.7,0
	c0.9,0,1.1-0.5,1.1-0.8C428.3,702.6,428.4,702.2,427.9,702.2z"/>
<path class="st0" d="M534.1,517.9c-0.5,0-22.1,0-22.1,0c0-0.4,0-0.8,0-1.1c0-1.6-0.3-3.1-0.8-4.6c1.5-0.6,6.7-2.5,8.2-3.1
	c1.8-0.6,1.3-1.4,1.3-1.5c0-0.3-0.1-0.6-1.1-0.1c-1,0.5-8.8,3.3-8.8,3.3c-0.5-1.3-1.1-2.4-2-3.4c2-1.8,14.4-12.9,15.2-13.4
	c0.9-0.6,1.1-1,0.9-1.6c-0.6-0.9-1.3-0.3-1.3-0.3l-16.1,13.9c-0.6-0.6-1.3-1.1-2-1.6c0.8-1.6,4.8-10.4,5-10.8c0.3-0.5,0.6-1.4,0-1.6
	c-1.1-0.5-1.4,0.3-1.4,0.3l-5.6,11c-1.6-0.8-3.4-1.3-5.1-1.4c0-2.5,0.3-16.1,0.3-16.8c0-0.9-0.4-0.9-0.9-0.9c-0.6,0-1,0.1-1.1,0.6
	c-0.1,0.5-0.8,16.9-0.8,16.9c-1.1,0.1-2.1,0.3-3.1,0.6c-0.8-1.9-3.6-8.7-4.1-9.8c-0.6-1.4-1.6-0.6-1.6-0.6c-0.3,0.3,0.1,0.9,0.6,2
	c0.5,1.1,3.6,9.2,3.6,9.2c-0.9,0.4-1.8,0.9-2.6,1.5c-1.9-2.5-11.3-14.9-12.2-15.9c-1-1.1-2.3-0.9-2.3-0.9c-0.4,0.4-0.4,0.6,0.4,1.5
	c0.8,1,12.4,16.6,12.4,16.6s-1.5,1.4-2.4,2.9c0,0-7.8-4.6-8.9-5.3c-1.1-0.6-1.9,0.1-1.9,0.1s-0.1,0.5,0.3,0.8
	c0.4,0.3,9.8,5.6,9.8,5.6c-1.1,2.1-1.8,4.5-1.8,7c0,0.3,0,0.6,0,0.9c0,0-14.3,0-14.7,0c-0.4,0-1.1-0.1-1.6,0.4c-0.5,0.4-0.4,1,0.6,1
	s15.8,0,15.8,0c0.1,0.8,0.3,1.4,0.5,2.1c0,0-8.5,3.5-9.7,3.8c-1.1,0.3-1.5,1.1-1.3,1.4c0.3,0.3,0.5,0.4,1.3,0.3
	c0.8-0.3,10.2-3.8,10.2-3.8c0.5,1,1,2,1.6,3c0,0-13.8,12.8-14.3,13.2c-0.5,0.4-0.9,0.8-0.5,1c0.4,0.4,1,0.4,1.8-0.3
	c0.6-0.6,14.2-12.6,14.2-12.6c1.3,1.4,2.9,2.6,4.5,3.4c0,0-4.3,8.8-4.6,9.7c-0.5,0.9,0,1.4,0.4,1.5c0.4,0.1,1.4-0.1,1.8-1.3
	c0.4-1.1,4.4-9.3,4.4-9.3c0.9,0.3,1.8,0.5,2.8,0.6c0,0-0.5,19-0.5,19.6s0.8,0.8,1.1,0.8c0.4,0,1.1,0,1.1-0.6
	c0-0.6,0.5-19.7,0.5-19.7c1.8,0,3.4-0.4,5-1c0.8,1.6,2.8,6.5,3.3,7.7c0.5,1.4,2.8,0.6,2.4-0.1c-0.3-0.8-3.5-8.7-3.5-8.7
	c0.3-0.1,0.5-0.4,0.8-0.5c2,2.5,13.1,16.9,13.8,17.7c0.9,0.9,2.1-0.1,1.9-0.5c-0.4-0.4-14.2-18.3-14.2-18.3c1.1-1,2.1-2.3,3-3.6
	c1.5,0.9,7.3,4.3,8.5,5c1.4,0.9,2.9-0.4,2.4-0.8c-0.6-0.4-10-5.9-10-5.9c0.5-1.1,0.9-2.4,1-3.6c0,0,20.8,0,21.7,0
	c0.9,0,1.1-0.5,1.1-0.8C534.9,518.1,534.6,517.9,534.1,517.9z"/>
</svg>
