<svg id="Layer_1" data-name="Layer 1" xmlns="http://www.w3.org/2000/svg" viewBox="0 0 556 596"><defs><style>.cls-1{fill:#e28c50;}</style></defs><path class="cls-1" d="M333.15,417.1h-22.1V416a14.35,14.35,0,0,0-.8-4.6c1.5-.6,6.7-2.5,8.2-3.1,1.8-.6,1.3-1.4,1.3-1.5,0-.3-.1-.6-1.1-.1s-8.8,3.3-8.8,3.3a10.53,10.53,0,0,0-2-3.4c2-1.8,14.4-12.9,15.2-13.4s1.1-1,.9-1.6a.84.84,0,0,0-1.3-.3l-16.1,13.9a15.58,15.58,0,0,0-2-1.6c.8-1.6,4.8-10.4,5-10.8s.6-1.4,0-1.6c-1.1-.5-1.4.3-1.4.3l-5.6,11a13.42,13.42,0,0,0-5.1-1.4c0-2.5.3-16.1.3-16.8,0-.9-.4-.9-.9-.9s-1,.1-1.1.6-.8,16.9-.8,16.9a15.47,15.47,0,0,0-3.1.6c-.8-1.9-3.6-8.7-4.1-9.8-.6-1.4-1.6-.6-1.6-.6-.3.3.1.9.6,2s3.6,9.2,3.6,9.2a13.5,13.5,0,0,0-2.6,1.5c-1.9-2.5-11.3-14.9-12.2-15.9a2.75,2.75,0,0,0-2.3-.9c-.4.4-.4.6.4,1.5s12.4,16.6,12.4,16.6a15.89,15.89,0,0,0-2.4,2.9s-7.8-4.6-8.9-5.3a1.68,1.68,0,0,0-1.9.1.85.85,0,0,0,.3.8c.4.3,9.8,5.6,9.8,5.6a15.16,15.16,0,0,0-1.8,7v.9h-14.7a2,2,0,0,0-1.6.4c-.5.4-.4,1,.6,1h15.8a12.91,12.91,0,0,0,.5,2.1s-8.5,3.5-9.7,3.8-1.5,1.1-1.3,1.4.5.4,1.3.3,10.2-3.8,10.2-3.8c.5,1,1,2,1.6,3,0,0-13.8,12.8-14.3,13.2s-.9.8-.5,1c.4.4,1,.4,1.8-.3.6-.6,14.2-12.6,14.2-12.6a16.2,16.2,0,0,0,4.5,3.4s-4.3,8.8-4.6,9.7c-.5.9,0,1.4.4,1.5a1.68,1.68,0,0,0,1.8-1.3c.5-1.1,4.4-9.3,4.4-9.3a12.66,12.66,0,0,0,2.8.6s-.5,19-.5,19.6c0,.8.8.8,1.1.8s1.1,0,1.1-.6.5-19.7.5-19.7a13.93,13.93,0,0,0,5-1c.8,1.6,2.8,6.5,3.3,7.7.5,1.4,2.8.6,2.4-.1s-3.5-8.7-3.5-8.7c.3-.1.5-.4.8-.5,2,2.5,13.1,16.9,13.8,17.7.9.9,2.1-.1,1.9-.5-.4-.4-14.2-18.3-14.2-18.3a21.23,21.23,0,0,0,3-3.6c1.5.9,7.3,4.3,8.5,5,1.4.9,2.9-.4,2.4-.8s-10-5.9-10-5.9a11.37,11.37,0,0,0,1-3.6h21.7c.9,0,1.1-.5,1.1-.8C333.85,417.4,333.65,417.1,333.15,417.1Z"/><path class="cls-1" d="M397.45,402.4h-22.1v-1.1a14.35,14.35,0,0,0-.8-4.6c1.5-.6,6.7-2.5,8.2-3.1,1.8-.6,1.3-1.4,1.3-1.5,0-.3-.1-.6-1.1-.1s-8.8,3.3-8.8,3.3a10.53,10.53,0,0,0-2-3.4c2-1.8,14.4-12.9,15.2-13.4s1.1-1,.9-1.6a.84.84,0,0,0-1.3-.3l-16.1,13.9a15.58,15.58,0,0,0-2-1.6c.8-1.6,4.8-10.4,5-10.8s.6-1.4,0-1.6c-1.1-.5-1.4.3-1.4.3l-5.6,11a13.42,13.42,0,0,0-5.1-1.4c0-2.5.3-16.1.3-16.8,0-.9-.4-.9-.9-.9s-1,.1-1.1.6-.8,16.9-.8,16.9a15.47,15.47,0,0,0-3.1.6c-.8-1.9-3.6-8.7-4.1-9.8-.6-1.4-1.6-.6-1.6-.6-.3.3.1.9.6,2s3.6,9.2,3.6,9.2a13.5,13.5,0,0,0-2.6,1.5c-1.9-2.5-11.3-14.9-12.2-15.9a2.75,2.75,0,0,0-2.3-.9c-.4.4-.4.6.4,1.5s12.4,16.6,12.4,16.6a15.89,15.89,0,0,0-2.4,2.9s-7.8-4.6-8.9-5.3a1.68,1.68,0,0,0-1.9.1.85.85,0,0,0,.3.8c.4.3,9.8,5.6,9.8,5.6a15.16,15.16,0,0,0-1.8,7v.9h-14.7a2,2,0,0,0-1.6.4c-.5.4-.4,1,.6,1h15.8a12.91,12.91,0,0,0,.5,2.1s-8.5,3.5-9.7,3.8-1.5,1.1-1.3,1.4.5.4,1.3.3,10.2-3.8,10.2-3.8c.5,1,1,2,1.6,3,0,0-13.8,12.8-14.3,13.2s-.9.8-.5,1c.4.4,1,.4,1.8-.3s14.2-12.6,14.2-12.6a16.2,16.2,0,0,0,4.5,3.4s-4.3,8.8-4.6,9.7,0,1.4.4,1.5a1.68,1.68,0,0,0,1.8-1.3c.4-1.1,4.4-9.3,4.4-9.3a12.66,12.66,0,0,0,2.8.6s-.5,19-.5,19.6.8.8,1.1.8,1.1,0,1.1-.6.5-19.7.5-19.7a13.93,13.93,0,0,0,5-1c.8,1.6,2.8,6.5,3.3,7.7.5,1.4,2.8.6,2.4-.1s-3.5-8.7-3.5-8.7c.3-.1.5-.4.8-.5,2,2.5,13.1,16.9,13.8,17.7.9.9,2.1-.1,1.9-.5-.4-.4-14.2-18.3-14.2-18.3a21.23,21.23,0,0,0,3-3.6c1.5.9,7.3,4.3,8.5,5,1.4.9,2.9-.4,2.4-.8s-10-5.9-10-5.9a11.37,11.37,0,0,0,1-3.6H397c.9,0,1.1-.5,1.1-.8C397.75,402.8,398,402.4,397.45,402.4Z"/><path class="cls-1" d="M446.45,436.7h-22.1v-1.1a14.35,14.35,0,0,0-.8-4.6c1.5-.6,6.7-2.5,8.2-3.1,1.8-.6,1.3-1.4,1.3-1.5,0-.3-.1-.6-1.1-.1s-8.8,3.3-8.8,3.3a10.53,10.53,0,0,0-2-3.4c2-1.8,14.4-12.9,15.2-13.4s1.1-1,.9-1.6a.84.84,0,0,0-1.3-.3l-16.1,13.9a15.58,15.58,0,0,0-2-1.6c.8-1.6,4.8-10.4,5-10.8s.6-1.4,0-1.6c-1.1-.5-1.4.3-1.4.3l-5.6,11a13.42,13.42,0,0,0-5.1-1.4c0-2.5.3-16.1.3-16.8,0-.9-.4-.9-.9-.9s-1,.1-1.1.6-.8,16.9-.8,16.9a15.47,15.47,0,0,0-3.1.6c-.8-1.9-3.6-8.7-4.1-9.8-.6-1.4-1.6-.6-1.6-.6-.3.3.1.9.6,2s3.6,9.2,3.6,9.2a13.5,13.5,0,0,0-2.6,1.5c-1.9-2.5-11.3-14.9-12.2-15.9a2.75,2.75,0,0,0-2.3-.9c-.4.4-.4.6.4,1.5s12.4,16.6,12.4,16.6a15.89,15.89,0,0,0-2.4,2.9s-7.8-4.6-8.9-5.3a1.68,1.68,0,0,0-1.9.1.85.85,0,0,0,.3.8c.4.3,9.8,5.6,9.8,5.6a15.16,15.16,0,0,0-1.8,7v.9h-14.7a2,2,0,0,0-1.6.4c-.5.5-.4,1,.6,1h15.8a12.91,12.91,0,0,0,.5,2.1s-8.5,3.5-9.7,3.8-1.5,1.1-1.3,1.4.5.4,1.3.3,10.2-3.8,10.2-3.8c.5,1,1,2,1.6,3,0,0-13.8,12.8-14.3,13.2s-.9.8-.5,1c.4.4,1,.4,1.8-.3s14.2-12.6,14.2-12.6a16.2,16.2,0,0,0,4.5,3.4s-4.3,8.8-4.6,9.7,0,1.4.4,1.5a1.68,1.68,0,0,0,1.8-1.3c.5-1.1,4.4-9.3,4.4-9.3a12.66,12.66,0,0,0,2.8.6s-.5,19-.5,19.6.8.8,1.1.8,1.1,0,1.1-.6.5-19.7.5-19.7a13.93,13.93,0,0,0,5-1c.8,1.6,2.8,6.5,3.3,7.7.5,1.4,2.8.6,2.4-.1s-3.5-8.7-3.5-8.7c.3-.1.5-.4.8-.5,2,2.5,13.1,16.9,13.8,17.7.9.9,2.1-.1,1.9-.5-.4-.4-14.2-18.3-14.2-18.3a21.23,21.23,0,0,0,3-3.6c1.5.9,7.3,4.3,8.5,5,1.4.9,2.9-.4,2.4-.8s-10-5.9-10-5.9a11.37,11.37,0,0,0,1-3.6H446c.9,0,1.1-.5,1.1-.8C447.15,436.9,447,436.7,446.45,436.7Z"/><path class="cls-1" d="M465.35,375.2h-22.1v-1.1a14.35,14.35,0,0,0-.8-4.6c1.5-.6,6.7-2.5,8.2-3.1,1.8-.6,1.3-1.4,1.3-1.5,0-.3-.1-.6-1.1-.1s-8.8,3.3-8.8,3.3a10.53,10.53,0,0,0-2-3.4c2-1.8,14.4-12.9,15.2-13.4s1.1-1,.9-1.6a.84.84,0,0,0-1.3-.3l-16.2,13.7a15.58,15.58,0,0,0-2-1.6c.8-1.6,4.8-10.4,5-10.8s.6-1.4,0-1.6c-1.1-.5-1.4.3-1.4.3l-5.6,11a13.42,13.42,0,0,0-5.1-1.4c0-2.5.3-16.1.3-16.8,0-.9-.4-.9-.9-.9s-1,.1-1.1.6-.8,16.9-.8,16.9a15.47,15.47,0,0,0-3.1.6c-.8-1.9-3.6-8.7-4.1-9.8-.6-1.4-1.6-.6-1.6-.6-.3.3.1.9.6,2s3.6,9.2,3.6,9.2a13.5,13.5,0,0,0-2.6,1.5c-1.9-2.5-11.3-14.9-12.2-15.9a2.75,2.75,0,0,0-2.3-.9c-.4.4-.4.6.4,1.5s12.4,16.6,12.4,16.6a15.89,15.89,0,0,0-2.4,2.9s-7.8-4.6-8.9-5.3a1.68,1.68,0,0,0-1.9.1.85.85,0,0,0,.3.8c.4.3,9.8,5.6,9.8,5.6a15.16,15.16,0,0,0-1.8,7v.9h-14.7a2,2,0,0,0-1.6.4c-.5.5-.4,1,.6,1h15.8a12.91,12.91,0,0,0,.5,2.1s-8.5,3.5-9.7,3.8-1.5,1.1-1.3,1.4.5.4,1.3.3l10.2-3.8c.5,1,1,2,1.6,3,0,0-13.8,12.8-14.3,13.2s-.9.8-.5,1c.4.4,1,.4,1.8-.3s14.2-12.6,14.2-12.6a16.2,16.2,0,0,0,4.5,3.4s-4.3,8.8-4.6,9.7,0,1.4.4,1.5a1.68,1.68,0,0,0,1.8-1.3c.4-1.1,4.4-9.3,4.4-9.3a12.66,12.66,0,0,0,2.8.6s-.5,19-.5,19.6.8.8,1.1.8,1.1,0,1.1-.6.5-19.7.5-19.7a13.93,13.93,0,0,0,5-1c.8,1.6,2.8,6.5,3.3,7.7.5,1.4,2.8.6,2.4-.1s-3.5-8.7-3.5-8.7c.3-.1.5-.4.8-.5,2,2.5,13.1,16.9,13.8,17.7.9.9,2.1-.1,1.9-.5-.4-.4-14.2-18.3-14.2-18.3a21.23,21.23,0,0,0,3-3.6c1.5.9,7.3,4.3,8.5,5,1.4.9,2.9-.4,2.4-.8s-10-5.9-10-5.9a11.37,11.37,0,0,0,1-3.6h21.7c.9,0,1.1-.5,1.1-.8S465.85,375.2,465.35,375.2Z"/><path class="cls-1" d="M504.75,443.5h-22.1v-1.1a14.35,14.35,0,0,0-.8-4.6c1.5-.6,6.7-2.5,8.2-3.1,1.8-.6,1.3-1.4,1.3-1.5,0-.3-.1-.6-1.1-.1s-8.8,3.3-8.8,3.3a10.53,10.53,0,0,0-2-3.4c2-1.8,14.4-12.9,15.2-13.4s1.1-1,.9-1.6a.84.84,0,0,0-1.3-.3l-16.1,13.9a15.58,15.58,0,0,0-2-1.6c.8-1.6,4.8-10.4,5-10.8s.6-1.4,0-1.6c-1.1-.5-1.4.3-1.4.3l-5.6,11a13.42,13.42,0,0,0-5.1-1.4c0-2.5.3-16.1.3-16.8,0-.9-.4-.9-.9-.9s-1,.1-1.1.6-.8,16.9-.8,16.9a15.47,15.47,0,0,0-3.1.6c-.8-1.9-3.6-8.7-4.1-9.8-.6-1.4-1.6-.6-1.6-.6-.3.3.1.9.6,2s3.6,9.2,3.6,9.2a13.5,13.5,0,0,0-2.6,1.5c-1.9-2.5-11.3-14.9-12.2-15.9a2.75,2.75,0,0,0-2.3-.9c-.4.4-.4.6.4,1.5s12.4,16.6,12.4,16.6a15.89,15.89,0,0,0-2.4,2.9s-7.8-4.6-8.9-5.3a1.68,1.68,0,0,0-1.9.1.85.85,0,0,0,.3.8c.4.3,9.8,5.6,9.8,5.6a15.16,15.16,0,0,0-1.8,7v.9h-14.7a2,2,0,0,0-1.6.4c-.5.4-.4,1,.6,1h15.8a12.91,12.91,0,0,0,.5,2.1s-8.5,3.5-9.7,3.8-1.5,1.1-1.3,1.4.5.4,1.3.3,10.2-3.8,10.2-3.8c.5,1,1,2,1.6,3,0,0-13.8,12.8-14.3,13.2s-.9.8-.5,1c.4.4,1,.4,1.8-.3.6-.6,14.2-12.6,14.2-12.6a16.2,16.2,0,0,0,4.5,3.4s-4.3,8.8-4.6,9.7c-.5.9,0,1.4.4,1.5a1.68,1.68,0,0,0,1.8-1.3c.5-1.1,4.4-9.3,4.4-9.3a12.66,12.66,0,0,0,2.8.6s-.5,19-.5,19.6.8.8,1.1.8,1.1,0,1.1-.6.5-19.7.5-19.7a13.93,13.93,0,0,0,5-1c.8,1.6,2.8,6.5,3.3,7.7.5,1.4,2.8.6,2.4-.1s-3.5-8.7-3.5-8.7c.3-.1.5-.4.8-.5,2,2.5,13.1,16.9,13.8,17.7.9.9,2.1-.1,1.9-.5-.4-.4-14.2-18.3-14.2-18.3a21.23,21.23,0,0,0,3-3.6c1.5.9,7.3,4.3,8.5,5,1.4.9,2.9-.4,2.4-.8s-10-5.9-10-5.9a11.37,11.37,0,0,0,1-3.6h21.7c.9,0,1.1-.5,1.1-.8C505.05,443.8,505.25,443.5,504.75,443.5Z"/><path class="cls-1" d="M383.75,470.8h-22.1v-1.1a14.35,14.35,0,0,0-.8-4.6c1.5-.6,6.7-2.5,8.2-3.1,1.8-.6,1.3-1.4,1.3-1.5,0-.3-.1-.6-1.1-.1s-8.8,3.3-8.8,3.3a10.53,10.53,0,0,0-2-3.4c2-1.8,14.4-12.9,15.2-13.4s1.1-1,.9-1.6a.84.84,0,0,0-1.3-.3l-16.1,13.9a15.58,15.58,0,0,0-2-1.6c.8-1.6,4.8-10.4,5-10.8s.6-1.4,0-1.6c-1.1-.5-1.4.3-1.4.3l-5.6,11a13.42,13.42,0,0,0-5.1-1.4c0-2.5.3-16.1.3-16.8,0-.9-.4-.9-.9-.9s-1,.1-1.1.6-.8,16.9-.8,16.9a15.47,15.47,0,0,0-3.1.6c-.8-1.9-3.6-8.7-4.1-9.8-.6-1.4-1.6-.6-1.6-.6-.3.3.1.9.6,2S341,456,341,456a13.5,13.5,0,0,0-2.6,1.5c-1.9-2.5-11.3-14.9-12.2-15.9a2.75,2.75,0,0,0-2.3-.9c-.4.4-.4.6.4,1.5s12.4,16.6,12.4,16.6a15.89,15.89,0,0,0-2.4,2.9s-7.8-4.6-8.9-5.3a1.68,1.68,0,0,0-1.9.1.85.85,0,0,0,.3.8c.4.3,9.8,5.6,9.8,5.6a15.16,15.16,0,0,0-1.8,7v.9h-14.7a2,2,0,0,0-1.6.4c-.5.4-.4,1,.6,1h15.8a12.91,12.91,0,0,0,.5,2.1s-8.5,3.5-9.7,3.8-1.5,1.1-1.3,1.4.5.4,1.3.2,10.2-3.8,10.2-3.8c.5,1,1,2,1.6,3,0,0-13.8,12.8-14.3,13.2s-.9.8-.5,1c.4.4,1,.4,1.8-.3.6-.6,14.2-12.6,14.2-12.6a16.2,16.2,0,0,0,4.5,3.4s-4.3,8.8-4.6,9.7,0,1.4.4,1.5a1.68,1.68,0,0,0,1.8-1.3c.4-1.1,4.4-9.3,4.4-9.3a12.66,12.66,0,0,0,2.8.6s-.5,19-.5,19.6.8.8,1.1.8,1.1,0,1.1-.6.5-19.7.5-19.7a13.93,13.93,0,0,0,5-1c.8,1.6,2.8,6.5,3.3,7.7.5,1.4,2.8.6,2.4-.1s-3.5-8.7-3.5-8.7c.3-.1.5-.4.8-.5,2,2.5,13.1,16.9,13.8,17.7.9.9,2.1-.1,1.9-.5-.4-.4-14.2-18.3-14.2-18.3a21.23,21.23,0,0,0,3-3.6c1.5.9,7.3,4.3,8.5,5,1.4.9,2.9-.4,2.4-.8s-10-5.9-10-5.9a11.37,11.37,0,0,0,1-3.6h21.7c.9,0,1.1-.5,1.1-.8S384.25,470.8,383.75,470.8Z"/><path class="cls-1" d="M452.85,500.6h-22.1v-1.1a14.35,14.35,0,0,0-.8-4.6c1.5-.6,6.7-2.5,8.2-3.1,1.8-.6,1.3-1.4,1.3-1.5,0-.3-.1-.6-1.1-.1s-8.8,3.3-8.8,3.3a10.53,10.53,0,0,0-2-3.4c2-1.8,14.4-12.9,15.2-13.4s1.1-1,.9-1.6a.84.84,0,0,0-1.3-.3l-16.1,13.9a15.58,15.58,0,0,0-2-1.6c.8-1.6,4.8-10.4,5-10.8s.6-1.4,0-1.6c-1.1-.5-1.4.3-1.4.3l-5.6,11a13.42,13.42,0,0,0-5.1-1.4c0-2.5.3-16.1.3-16.8,0-.9-.4-.9-.9-.9s-1,.1-1.1.6-.8,16.9-.8,16.9a15.47,15.47,0,0,0-3.1.6c-.8-1.9-3.6-8.7-4.1-9.8-.6-1.4-1.6-.6-1.6-.6-.3.3.1.9.6,2s3.6,9.2,3.6,9.2a13.5,13.5,0,0,0-2.6,1.5c-1.9-2.5-11.3-14.9-12.2-15.9a2.75,2.75,0,0,0-2.3-.9c-.4.4-.4.6.4,1.5s12.4,16.6,12.4,16.6a15.89,15.89,0,0,0-2.4,2.9s-7.8-4.6-8.9-5.3a1.68,1.68,0,0,0-1.9.1.85.85,0,0,0,.3.8c.4.3,9.8,5.6,9.8,5.6a15.16,15.16,0,0,0-1.8,7v.9h-14.7a2,2,0,0,0-1.6.4c-.5.4-.4,1,.6,1H401a12.91,12.91,0,0,0,.5,2.1s-8.5,3.5-9.7,3.8-1.5,1.1-1.3,1.4.5.4,1.3.3l10.2-3.8c.5,1,1,2,1.6,3,0,0-13.8,12.8-14.3,13.2s-.9.8-.5,1c.4.4,1,.4,1.8-.3s14.2-12.6,14.2-12.6a16.2,16.2,0,0,0,4.5,3.4s-4.3,8.8-4.6,9.7,0,1.4.4,1.5a1.68,1.68,0,0,0,1.8-1.3c.4-1.1,4.4-9.3,4.4-9.3a12.66,12.66,0,0,0,2.8.6s-.5,19-.5,19.6.8.8,1.1.8,1.1,0,1.1-.6.5-19.7.5-19.7a13.93,13.93,0,0,0,5-1c.8,1.6,2.8,6.5,3.3,7.7.5,1.4,2.8.6,2.4-.1s-3.5-8.7-3.5-8.7c.3-.1.5-.4.8-.5,2,2.5,13.1,16.9,13.8,17.7.9.9,2.1-.1,1.9-.5-.4-.4-14.2-18.3-14.2-18.3a21.23,21.23,0,0,0,3-3.6c1.5.9,7.3,4.3,8.5,5,1.4.9,2.9-.4,2.4-.8s-10-5.9-10-5.9a11.37,11.37,0,0,0,1-3.6h21.7c.9,0,1.1-.5,1.1-.8C453.25,501,453.35,500.6,452.85,500.6Z"/><path class="cls-1" d="M546.15,375.2h-22.1v-1.1a14.35,14.35,0,0,0-.8-4.6c1.5-.6,6.7-2.5,8.2-3.1,1.8-.6,1.3-1.4,1.3-1.5,0-.3-.1-.6-1.1-.1s-8.8,3.3-8.8,3.3a10.53,10.53,0,0,0-2-3.4c2-1.8,14.4-12.9,15.2-13.4s1.1-1,.9-1.6a.84.84,0,0,0-1.3-.3l-16.1,13.9a15.58,15.58,0,0,0-2-1.6c.8-1.6,4.8-10.4,5-10.8s.6-1.4,0-1.6c-1.1-.5-1.4.3-1.4.3l-5.6,11a13.42,13.42,0,0,0-5.1-1.4c0-2.5.3-16.1.3-16.8,0-.9-.4-.9-.9-.9s-1,.1-1.1.6S508,359,508,359a15.47,15.47,0,0,0-3.1.6c-.8-1.9-3.6-8.7-4.1-9.8-.6-1.4-1.6-.6-1.6-.6-.3.3.1.9.6,2s3.6,9.2,3.6,9.2a13.5,13.5,0,0,0-2.6,1.5c-1.9-2.5-11.3-14.9-12.2-15.9a2.75,2.75,0,0,0-2.3-.9c-.4.4-.4.6.4,1.5s12.4,16.6,12.4,16.6a15.89,15.89,0,0,0-2.4,2.9s-7.8-4.6-8.9-5.3a1.68,1.68,0,0,0-1.9.1.85.85,0,0,0,.3.8c.4.3,9.8,5.6,9.8,5.6a15.16,15.16,0,0,0-1.8,7v.9h-14.7a2,2,0,0,0-1.6.4c-.5.5-.4,1,.6,1h15.8a12.91,12.91,0,0,0,.5,2.1s-8.5,3.5-9.7,3.8-1.5,1.1-1.3,1.4.5.4,1.3.3l10.2-3.8c.5,1,1,2,1.6,3,0,0-13.8,12.8-14.3,13.2s-.9.8-.5,1c.4.4,1,.4,1.8-.3s14.2-12.6,14.2-12.6a16.2,16.2,0,0,0,4.5,3.4s-4.3,8.8-4.6,9.7,0,1.4.4,1.5a1.68,1.68,0,0,0,1.8-1.3c.4-1.1,4.4-9.3,4.4-9.3a12.66,12.66,0,0,0,2.8.6s-.5,19-.5,19.6.8.8,1.1.8,1.1,0,1.1-.6.5-19.7.5-19.7a13.93,13.93,0,0,0,5-1c.8,1.6,2.8,6.5,3.3,7.7.5,1.4,2.8.6,2.4-.1s-3.5-8.7-3.5-8.7c.3-.1.5-.4.8-.5,2,2.5,13.1,16.9,13.8,17.7.9.9,2.1-.1,1.9-.5-.4-.4-14.2-18.3-14.2-18.3a21.23,21.23,0,0,0,3-3.6c1.5.9,7.3,4.3,8.5,5,1.4.9,2.9-.4,2.4-.8s-10-5.9-10-5.9a11.37,11.37,0,0,0,1-3.6h21.7c.9,0,1.1-.5,1.1-.8S546.65,375.2,546.15,375.2Z"/><path class="cls-1" d="M539.25,505h-22.1v-1.1a14.35,14.35,0,0,0-.8-4.6c1.5-.6,6.7-2.5,8.2-3.1,1.8-.6,1.3-1.4,1.3-1.5,0-.3-.1-.6-1.1-.1s-8.8,3.3-8.8,3.3a10.53,10.53,0,0,0-2-3.4c2-1.8,14.4-12.9,15.2-13.4s1.1-1,.9-1.6a.84.84,0,0,0-1.3-.3l-16.1,13.7a15.58,15.58,0,0,0-2-1.6c.8-1.6,4.8-10.4,5-10.8s.6-1.4,0-1.6c-1.1-.5-1.4.3-1.4.3l-5.6,11a13.42,13.42,0,0,0-5.1-1.4c0-2.5.3-16.1.3-16.8,0-.9-.4-.9-.9-.9s-1,.1-1.1.6-.8,16.9-.8,16.9a15.47,15.47,0,0,0-3.1.6c-.8-1.9-3.6-8.7-4.1-9.8-.6-1.4-1.6-.6-1.6-.6-.3.3.1.9.6,2s3.6,9.2,3.6,9.2a13.5,13.5,0,0,0-2.6,1.5c-1.9-2.5-11.3-14.9-12.2-15.9a2.75,2.75,0,0,0-2.3-.9c-.4.4-.4.6.4,1.5s12.4,16.6,12.4,16.6a15.89,15.89,0,0,0-2.4,2.9s-7.8-4.6-8.9-5.3a1.68,1.68,0,0,0-1.9.1.85.85,0,0,0,.3.8c.4.3,9.8,5.6,9.8,5.6a15.16,15.16,0,0,0-1.8,7v.9h-14.7a2,2,0,0,0-1.6.4c-.5.4-.4,1,.6,1h15.8a12.91,12.91,0,0,0,.5,2.1s-8.5,3.5-9.7,3.8-1.5,1.1-1.3,1.4.5.4,1.3.3l10.2-3.8c.5,1,1,2,1.6,3,0,0-13.8,12.8-14.3,13.2s-.9.8-.5,1c.4.4,1,.4,1.8-.3s14.2-12.6,14.2-12.6a16.2,16.2,0,0,0,4.5,3.4s-4.3,8.8-4.6,9.7,0,1.4.4,1.5a1.68,1.68,0,0,0,1.8-1.3c.4-1.1,4.4-9.3,4.4-9.3a12.66,12.66,0,0,0,2.8.6s-.5,19-.5,19.6.8.8,1.1.8,1.1,0,1.1-.6.5-19.7.5-19.7a13.93,13.93,0,0,0,5-1c.8,1.6,2.8,6.5,3.3,7.7.5,1.4,2.8.6,2.4-.1s-3.5-8.7-3.5-8.7c.3-.1.5-.4.8-.5,2,2.5,13.1,16.9,13.8,17.7.9.9,2.1-.1,1.9-.5-.4-.4-14.2-18.3-14.2-18.3a21.23,21.23,0,0,0,3-3.6c1.5.9,7.3,4.3,8.5,5,1.4.9,2.9-.4,2.4-.8s-10-5.9-10-5.9a11.37,11.37,0,0,0,1-3.6h21.7c.9,0,1.1-.5,1.1-.8C539.65,505.3,539.85,505,539.25,505Z"/><path class="cls-1" d="M320.75,485.5h-22.1v-1.1a14.35,14.35,0,0,0-.8-4.6c1.5-.6,6.7-2.5,8.2-3.1,1.8-.6,1.3-1.4,1.3-1.5,0-.3-.1-.6-1.1-.1s-8.8,3.3-8.8,3.3a10.53,10.53,0,0,0-2-3.4c2-1.8,14.4-12.9,15.2-13.4s1.1-1,.9-1.6a.84.84,0,0,0-1.3-.3l-16.1,13.9a15.58,15.58,0,0,0-2-1.6c.8-1.6,4.8-10.4,5-10.8s.6-1.4,0-1.6c-1.1-.5-1.4.3-1.4.3l-5.6,11a13.42,13.42,0,0,0-5.1-1.4c0-2.5.3-16.1.3-16.8,0-.9-.4-.9-.9-.9s-1,.1-1.1.6-.8,16.9-.8,16.9a15.47,15.47,0,0,0-3.1.6c-.8-1.9-3.6-8.7-4.1-9.8-.6-1.4-1.6-.6-1.6-.6-.3.3.1.9.6,2s3.6,9.2,3.6,9.2a13.5,13.5,0,0,0-2.6,1.5c-1.9-2.5-11.3-14.9-12.2-15.9a2.75,2.75,0,0,0-2.3-.9c-.4.4-.4.6.4,1.5s12.4,16.6,12.4,16.6a15.89,15.89,0,0,0-2.4,2.9s-7.8-4.6-8.9-5.3a1.68,1.68,0,0,0-1.9.1.85.85,0,0,0,.3.8c.4.3,9.8,5.6,9.8,5.6a15.16,15.16,0,0,0-1.8,7v.9h-14.7a2,2,0,0,0-1.6.4c-.5.4-.4,1,.6,1h15.8a12.91,12.91,0,0,0,.5,2.1s-8.5,3.5-9.7,3.8-1.5,1.1-1.3,1.4.5.4,1.3.3l10.2-3.8c.5,1,1,2,1.6,3,0,0-13.8,12.8-14.3,13.2s-.9.8-.5,1c.4.4,1,.4,1.8-.3.6-.6,14.2-12.6,14.2-12.6a16.2,16.2,0,0,0,4.5,3.4s-4.3,8.8-4.6,9.7c-.5.9,0,1.4.4,1.5a1.68,1.68,0,0,0,1.8-1.3c.4-1.1,4.4-9.3,4.4-9.3a12.66,12.66,0,0,0,2.8.6s-.5,19-.5,19.6.8.8,1.1.8,1.1,0,1.1-.6.5-19.7.5-19.7a13.93,13.93,0,0,0,5-1c.8,1.6,2.8,6.5,3.3,7.7.5,1.4,2.8.6,2.4-.1s-3.5-8.7-3.5-8.7c.3-.1.5-.4.8-.5,2,2.5,13.1,16.9,13.8,17.7.9.9,2.1-.1,1.9-.5-.4-.4-14.2-18.3-14.2-18.3a21.23,21.23,0,0,0,3-3.6c1.5.9,7.3,4.3,8.5,5,1.4.9,2.9-.4,2.4-.8s-10-5.9-10-5.9a11.37,11.37,0,0,0,1-3.6h21.7c.9,0,1.1-.5,1.1-.8S321.25,485.5,320.75,485.5Z"/><path class="cls-1" d="M381.45,551.2h-22.1v-1.1a14.35,14.35,0,0,0-.8-4.6c1.5-.6,6.7-2.5,8.2-3.1,1.8-.6,1.3-1.4,1.3-1.5,0-.3-.1-.6-1.1-.1s-8.8,3.3-8.8,3.3a10.53,10.53,0,0,0-2-3.4c2-1.8,14.4-12.9,15.2-13.4s1.1-1,.9-1.6a.84.84,0,0,0-1.3-.3l-16.1,13.9a15.58,15.58,0,0,0-2-1.6c.8-1.6,4.8-10.4,5-10.8s.6-1.4,0-1.6c-1.1-.5-1.4.3-1.4.3l-5.6,11a13.42,13.42,0,0,0-5.1-1.4c0-2.5.3-16.1.3-16.8,0-.9-.4-.9-.9-.9s-1,.1-1.1.6-.8,16.9-.8,16.9a15.47,15.47,0,0,0-3.1.6c-.8-1.9-3.6-8.7-4.1-9.8-.6-1.4-1.6-.6-1.6-.6-.3.3.1.9.6,2s3.6,9.2,3.6,9.2a13.5,13.5,0,0,0-2.6,1.5c-1.9-2.5-11.3-14.9-12.2-15.9a2.75,2.75,0,0,0-2.3-.9c-.4.4-.4.6.4,1.5s12.4,16.6,12.4,16.6a15.89,15.89,0,0,0-2.4,2.9s-7.8-4.6-8.9-5.3a1.68,1.68,0,0,0-1.9.1.85.85,0,0,0,.3.8c.4.3,9.8,5.6,9.8,5.6a15.16,15.16,0,0,0-1.8,7v.9h-14.7a2,2,0,0,0-1.6.4c-.5.4-.4,1,.6,1h15.8a12.91,12.91,0,0,0,.5,2.1s-8.5,3.5-9.7,3.8-1.5,1.1-1.3,1.4.5.4,1.3.3l10.2-3.8c.5,1,1,2,1.6,3,0,0-13.8,12.8-14.3,13.2s-.9.8-.5,1c.4.4,1,.4,1.8-.3.6-.6,14.2-12.6,14.2-12.6a16.2,16.2,0,0,0,4.5,3.4s-4.3,8.8-4.6,9.7c-.5.9,0,1.4.4,1.5a1.68,1.68,0,0,0,1.8-1.3c.4-1.1,4.4-9.3,4.4-9.3a12.66,12.66,0,0,0,2.8.6s-.5,19-.5,19.6.8.8,1.1.8,1.1,0,1.1-.6.5-19.7.5-19.7a13.93,13.93,0,0,0,5-1c.8,1.6,2.8,6.5,3.3,7.7.5,1.4,2.8.6,2.4-.1s-3.5-8.7-3.5-8.7c.3-.1.5-.4.8-.5,2,2.5,13.1,16.9,13.8,17.7.9.9,2.1-.1,1.9-.5-.4-.4-14.2-18.3-14.2-18.3a21.23,21.23,0,0,0,3-3.6c1.5.9,7.3,4.3,8.5,5,1.4.9,2.9-.4,2.4-.8s-10-5.9-10-5.9a11.37,11.37,0,0,0,1-3.6H381c.9,0,1.1-.5,1.1-.8C381.85,551.5,382,551.2,381.45,551.2Z"/><path class="cls-1" d="M264,348.8h-22.1v-1.1a14.35,14.35,0,0,0-.8-4.6c1.5-.6,6.7-2.5,8.2-3.1,1.8-.6,1.3-1.4,1.3-1.5,0-.3-.1-.6-1.1-.1s-8.8,3.3-8.8,3.3a10.53,10.53,0,0,0-2-3.4c2-1.8,14.4-12.9,15.2-13.4s1.1-1,.9-1.6a.84.84,0,0,0-1.3-.3l-16.1,13.9a15.58,15.58,0,0,0-2-1.6c.8-1.6,4.8-10.4,5-10.8s.6-1.4,0-1.6c-1.1-.5-1.4.3-1.4.3l-5.6,11a13.42,13.42,0,0,0-5.1-1.4c0-2.5.3-16.1.3-16.8,0-.9-.4-.9-.9-.9s-1,.1-1.1.6-.8,16.9-.8,16.9a15.47,15.47,0,0,0-3.1.6c-.8-1.9-3.6-8.7-4.1-9.8-.6-1.4-1.6-.6-1.6-.6-.3.3.1.9.6,2s3.6,9.2,3.6,9.2a13.5,13.5,0,0,0-2.6,1.5c-1.9-2.5-11.3-14.9-12.2-15.9a2.75,2.75,0,0,0-2.3-.9c-.4.4-.4.6.4,1.5s12.4,16.6,12.4,16.6a15.89,15.89,0,0,0-2.4,2.9s-7.8-4.6-8.9-5.3a1.68,1.68,0,0,0-1.9.1.85.85,0,0,0,.3.8c.4.3,9.8,5.6,9.8,5.6a15.16,15.16,0,0,0-1.8,7v.9h-14.7a2,2,0,0,0-1.6.4c-.5.4-.4,1,.6,1h15.8a12.91,12.91,0,0,0,.5,2.1s-8.5,3.5-9.7,3.8-1.5,1.1-1.3,1.4.5.4,1.3.3l10.2-3.8c.5,1,1,2,1.6,3,0,0-13.8,12.8-14.3,13.2s-.9.8-.5,1c.4.4,1,.4,1.8-.3.6-.6,14.2-12.6,14.2-12.6a16.2,16.2,0,0,0,4.5,3.4s-4.3,8.8-4.6,9.7c-.5.9,0,1.4.4,1.5a1.68,1.68,0,0,0,1.8-1.3c.5-1.1,4.4-9.3,4.4-9.3a12.66,12.66,0,0,0,2.8.6s-.5,19-.5,19.6.8.8,1.1.8,1.1,0,1.1-.6.5-19.7.5-19.7a13.93,13.93,0,0,0,5-1c.8,1.6,2.8,6.5,3.3,7.7.5,1.4,2.8.6,2.4-.1s-3.5-8.7-3.5-8.7c.3-.1.5-.4.8-.5,2,2.5,13.1,16.9,13.8,17.7.9.9,2.1-.1,1.9-.5-.4-.4-14.2-18.3-14.2-18.3a21.23,21.23,0,0,0,3-3.6c1.5.9,7.3,4.3,8.5,5,1.4.9,2.9-.4,2.4-.8s-10-5.9-10-5.9a11.37,11.37,0,0,0,1-3.6h21.7c.9,0,1.1-.5,1.1-.8C264.75,349,264.45,348.8,264,348.8Z"/><path class="cls-1" d="M256.55,523.5h-22.1v-1.1a14.35,14.35,0,0,0-.8-4.6c1.5-.6,6.7-2.5,8.2-3.1,1.8-.6,1.3-1.4,1.3-1.5,0-.3-.1-.6-1.1-.1s-8.8,3.3-8.8,3.3a10.53,10.53,0,0,0-2-3.4c2-1.8,14.4-12.9,15.2-13.4s1.1-1,.9-1.6a.84.84,0,0,0-1.3-.3L230,511.6a15.58,15.58,0,0,0-2-1.6c.8-1.6,4.8-10.4,5-10.8s.6-1.4,0-1.6c-1.1-.5-1.4.3-1.4.3l-5.6,11a13.42,13.42,0,0,0-5.1-1.4c0-2.5.3-16.1.3-16.8,0-.9-.4-.9-.9-.9s-1,.1-1.1.6-.8,16.9-.8,16.9a15.47,15.47,0,0,0-3.1.6c-.8-1.9-3.6-8.7-4.1-9.8-.6-1.4-1.6-.6-1.6-.6-.3.3.1.9.6,2s3.6,9.2,3.6,9.2a13.5,13.5,0,0,0-2.6,1.5c-1.9-2.5-11.3-14.9-12.2-15.9a2.75,2.75,0,0,0-2.3-.9c-.4.4-.4.6.4,1.5s12.4,16.6,12.4,16.6a15.89,15.89,0,0,0-2.4,2.9s-7.8-4.6-8.9-5.3a1.68,1.68,0,0,0-1.9.1.85.85,0,0,0,.3.8c.4.3,9.8,5.6,9.8,5.6a15.16,15.16,0,0,0-1.8,7v.9h-14.7a2,2,0,0,0-1.6.4c-.5.4-.4,1,.6,1h15.8a12.91,12.91,0,0,0,.5,2.1s-8.5,3.5-9.7,3.8-1.5,1.1-1.3,1.4.5.4,1.3.3l10.2-3.8c.5,1,1,2,1.6,3,0,0-13.8,12.8-14.3,13.2s-.9.8-.5,1c.4.4,1,.4,1.8-.3.6-.6,14.2-12.6,14.2-12.6a16.2,16.2,0,0,0,4.5,3.4s-4.3,8.8-4.6,9.7c-.5.9,0,1.4.4,1.5a1.68,1.68,0,0,0,1.8-1.3c.5-1.1,4.4-9.3,4.4-9.3a12.66,12.66,0,0,0,2.8.6s-.5,19-.5,19.6.8.8,1.1.8,1.1,0,1.1-.6.5-19.7.5-19.7a13.93,13.93,0,0,0,5-1c.8,1.6,2.8,6.5,3.3,7.7.5,1.4,2.8.6,2.4-.1s-3.5-8.7-3.5-8.7c.3-.1.5-.4.8-.5,2,2.5,13.1,16.9,13.8,17.7.9.9,2.1-.1,1.9-.5-.4-.4-14.2-18.3-14.2-18.3a21.23,21.23,0,0,0,3-3.6c1.5.9,7.3,4.3,8.5,5,1.4.9,2.9-.4,2.4-.8s-10-5.9-10-5.9a11.37,11.37,0,0,0,1-3.6h21.7c.9,0,1.1-.5,1.1-.8C257,523.9,257.05,523.5,256.55,523.5Z"/><path class="cls-1" d="M362.75,339.2h-22.1v-1.1a14.35,14.35,0,0,0-.8-4.6c1.5-.6,6.7-2.5,8.2-3.1,1.8-.6,1.3-1.4,1.3-1.5,0-.3-.1-.6-1.1-.1s-8.8,3.3-8.8,3.3a10.53,10.53,0,0,0-2-3.4c2-1.8,14.4-12.9,15.2-13.4s1.1-1,.9-1.6a.84.84,0,0,0-1.3-.3l-16.1,13.9a15.58,15.58,0,0,0-2-1.6c.8-1.6,4.8-10.4,5-10.8s.6-1.4,0-1.6c-1.1-.5-1.4.3-1.4.3l-5.6,11a13.42,13.42,0,0,0-5.1-1.4c0-2.5.3-16.1.3-16.8,0-.9-.4-.9-.9-.9s-1,.1-1.1.6-.8,16.9-.8,16.9a15.47,15.47,0,0,0-3.1.6c-.8-1.9-3.6-8.7-4.1-9.8-.6-1.4-1.6-.6-1.6-.6-.3.3.1.9.6,2s3.6,9.2,3.6,9.2a13.5,13.5,0,0,0-2.6,1.5c-1.9-2.5-11.3-14.9-12.2-15.9a2.75,2.75,0,0,0-2.3-.9c-.4.4-.4.6.4,1.5s12.4,16.6,12.4,16.6a15.89,15.89,0,0,0-2.4,2.9s-7.8-4.6-8.9-5.3a1.68,1.68,0,0,0-1.9.1.85.85,0,0,0,.3.8c.4.3,9.8,5.6,9.8,5.6a15.16,15.16,0,0,0-1.8,7v.9h-14.7a2,2,0,0,0-1.6.4c-.5.4-.4,1,.6,1h15.8a12.91,12.91,0,0,0,.5,2.1s-8.5,3.5-9.7,3.8-1.5,1.1-1.3,1.4.5.4,1.3.3l10.2-3.8c.5,1,1,2,1.6,3,0,0-13.8,12.8-14.3,13.2s-.9.8-.5,1c.4.4,1,.4,1.8-.3.6-.6,14.2-12.6,14.2-12.6a16.2,16.2,0,0,0,4.5,3.4s-4.3,8.8-4.6,9.7c-.5.9,0,1.4.4,1.5a1.68,1.68,0,0,0,1.8-1.3c.4-1.1,4.4-9.3,4.4-9.3a12.66,12.66,0,0,0,2.8.6s-.5,19-.5,19.6.8.8,1.1.8,1.1,0,1.1-.6.5-19.7.5-19.7a13.93,13.93,0,0,0,5-1c.8,1.6,2.8,6.5,3.3,7.7.5,1.4,2.8.6,2.4-.1s-3.5-8.7-3.5-8.7c.3-.1.5-.4.8-.5,2,2.5,13.1,16.9,13.8,17.7.9.9,2.1-.1,1.9-.5-.4-.4-14.2-18.3-14.2-18.3a21.23,21.23,0,0,0,3-3.6c1.5.9,7.3,4.3,8.5,5,1.4.9,2.9-.4,2.4-.8s-10-5.9-10-5.9a11.37,11.37,0,0,0,1-3.6h21.7c.9,0,1.1-.5,1.1-.8C363.55,339.4,363.25,339.2,362.75,339.2Z"/></svg>