<svg id="Layer_1" data-name="Layer 1" xmlns="http://www.w3.org/2000/svg" viewBox="0 0 717.9 863.8"><defs><style>.cls-1{fill:#e28c50;}</style></defs><path class="cls-1" d="M3.7,0,0,1.9V16.3l3.7,1.9V32.6L0,34.4V48.8l3.7,1.9V65L0,66.9V81.3l3.7,1.9V97.6L0,99.4v14.4l3.7,1.9v14.4L0,132v14.5l3.7,1.8v14.5L0,164.5V179l3.7,1.8v14.5L0,197v14.5l3.7,1.8v14.5L0,229.5V244l3.7,1.9v14.4L0,262.1v14.4l3.7,1.9v14.4L0,294.7V309l3.7,1.9v14.4L0,327.2v14.4l3.7,1.9v14.4L0,359.7V374l3.7,1.9v14.4L0,392.2v14.4l3.7,1.9v14.4L0,424.7v14.4L3.7,441v14.4L0,457.2v14.4l3.7,1.9v14.4L0,489.7v14.5L3.7,506v14.5L0,522.2v14.5l3.7,1.8V553L0,554.8v14.5l3.7,1.8v14.5L0,587.3v14.5l3.7,1.9V618L0,619.9v14.4l3.7,1.9v14.4L0,652.4v14.4l3.7,1.9v14.4L0,685v14.4l3.7,1.9v14.4L0,717.5v14.4l3.7,1.9v14.4L0,750v14.4l3.7,1.9v14.4L0,782.5v14.4l3.7,1.9v14.4L0,815v14.5l3.7,1.8v14.5L0,847.5V862l3.7,1.8H18.3L22,862V847.5l-3.7-1.8V831.2l3.7-1.9V815l-3.7-1.9V798.7l3.7-1.9V782.4l-3.7-1.9V766.1l3.7-1.9V750l-3.7-1.9V733.7l3.7-1.9V717.4l-3.7-1.9V701.1l3.7-1.9V685l-3.7-1.9V668.7l3.7-1.9V652.4l-3.7-1.9V636.1l3.7-1.9V619.8l-3.7-1.9V603.5l3.7-1.9V587.1l-3.7-1.8V571l3.7-1.8V554.7l-3.7-1.8V538.4l3.7-1.8V522.1l-3.7-1.8V506l3.7-1.8V489.7l-3.7-1.9V473.4l3.7-1.9V457.1l-3.7-1.9V441l3.7-1.9V424.7l-3.7-1.9V408.4l3.7-1.9V392.1l-3.7-1.9V375.8l3.7-1.9V359.5l-3.7-1.9V343.2l3.7-1.9V326.9L18.3,325V310.6l3.7-1.9V294.3l-3.7-1.9V278l3.7-1.9V261.7l-3.7-1.9V245.4l3.7-1.9V229l-3.7-1.8V212.7l3.7-1.8V197l-3.7-1.8V180.7l3.7-1.8V164.4l-3.7-1.8V148.1l3.7-1.8V132l-3.7-1.9V115.7l3.7-1.9V99.4l-3.7-1.9V83.2L22,81.3V66.9L18.3,65V50.7L22,48.8V34.4l-3.7-1.9V18.2L22,16.3V1.9L18.3,0Z"/><path class="cls-1" d="M221.9,0l-3.7,1.9V16.3l3.7,1.9V32.6l-3.7,1.9V48.9l3.7,1.9V65l-3.7,1.9V81.3l3.7,1.9V97.6l-3.7,1.9v14.4l3.7,1.9v14.4l-3.7,1.9v14.5l3.7,1.8v14.5l-3.7,1.8V179l3.7,1.8v14.5l-3.7,1.8v14.5l3.7,1.8v14.5l-3.7,1.8V244l3.7,1.9v14.4l-3.7,1.9v14.4l3.7,1.9v14.4l-3.7,1.9V309l3.7,1.9v14.4l-3.7,1.9v14.4l3.7,1.9v14.4l-3.7,1.9V374l3.7,1.9v14.4l-3.7,1.9v14.4l3.7,1.9v14.4l-3.7,1.9v14.4l3.7,1.9v14.4l-3.7,1.9v14.4l3.7,1.9v14.4l-3.7,1.9v14.5l3.7,1.8v14.5l-3.7,1.8v14.5l3.7,1.8V553l-3.7,1.8v14.5l3.7,1.8v14.5l-3.7,1.8v14.5l3.7,1.9V618l-3.7,1.9v14.4l3.7,1.9v14.4l-3.7,1.9v14.4l3.7,1.9v14.4l-3.7,1.9v14.4l3.7,1.9v14.4l-3.7,1.9v14.4l3.7,1.9v14.4l-3.7,1.9v14.4l3.7,1.9V781l-3.7,1.9v14.4l3.7,1.9v14.4l-3.7,1.9v14.4l3.7,1.9v14.5l-3.7,1.8V862l3.7,1.8h14.5l3.7-1.8V847.5l-3.7-1.8V831.2l3.7-1.8V815l-3.7-1.9V798.7l3.7-1.9V782.4l-3.7-1.9V766.1l3.7-1.9V750l-3.7-1.9V733.7l3.7-1.9V717.4l-3.7-1.9V701.1l3.7-1.9V685l-3.7-1.9V668.7l3.7-1.9V652.4l-3.7-1.9V636.1l3.7-1.9V619.8l-3.7-1.9V603.5l3.7-1.9V587.1l-3.7-1.8V571l3.7-1.8V554.7l-3.7-1.8V538.4l3.7-1.8V522.1l-3.7-1.8V506l3.7-1.8V489.7l-3.7-1.9V473.4l3.7-1.9V457.1l-3.7-1.9V441l3.7-1.9V424.7l-3.7-1.9V408.4l3.7-1.9V392.1l-3.7-1.9V375.8l3.7-1.9V359.5l-3.7-1.9V343.2l3.7-1.9V326.9l-3.7-1.9V310.6l3.7-1.9V294.3l-3.7-1.9V278l3.7-1.9V261.7l-3.7-1.9V245.4l3.7-1.9V229l-3.7-1.8V212.7l3.7-1.8V197l-3.7-1.8V180.7l3.7-1.8V164.4l-3.7-1.8V148.1l3.7-1.8V132l-3.7-1.9V115.7l3.7-1.9V99.4l-3.7-1.9V83.2l3.7-1.9V66.9L236.4,65V50.7l3.7-1.9V34.4l-3.7-1.9V18.2l3.7-1.9V1.9L236.3,0Z"/><path class="cls-1" d="M43.7,66.9V81.3L40,83.2l-3.7-1.9V66.9L32.8,65l-3.7,1.9V81.3l3.7,1.9V97.6l3.7,1.9v14.4l3.7,1.9,3.7-1.9V99.4l3.5-1.9V83.2l3.7-1.9V66.9L47.3,65Z"/><path class="cls-1" d="M47.3,18.2l-3.5-1.9V1.9L40.1,0,36.4,1.9V16.3l-3.7,1.9V32.6L29,34.5V48.9l3.7,1.9,3.7-1.9V34.4l3.7-1.9,3.7,1.9V48.8l3.5,1.9L51,48.8V34.4l-3.7-1.9Z"/><path class="cls-1" d="M43.7,685v14.4L40,701.3l-3.7-1.9V685l-3.7-1.9L28.9,685v14.4l3.7,1.9v14.4l3.7,1.9V732l3.7,1.9,3.7-1.9V717.6l3.5-1.9V701.3l3.7-1.9V685l-3.7-1.9Z"/><path class="cls-1" d="M43.7,554.8v14.5L40,571.1l-3.7-1.8V554.8L32.6,553l-3.7,1.8v14.5l3.7,1.8v14.5l3.7,1.8v14.5l3.7,1.9,3.7-1.9V587.4l3.5-1.8V571l3.7-1.8V554.7l-3.7-1.8Z"/><path class="cls-1" d="M43.7,327.2v14.4L40,343.5l-3.7-1.9V327.2l-3.7-1.9-3.7,1.9v14.4l3.7,1.9v14.4l3.7,1.9V374l3.7,1.9,3.7-1.9V359.6l3.5-1.9V343.3l3.7-1.9V327l-3.7-1.9Z"/><path class="cls-1" d="M47.3,636.2l-3.5-1.9V619.9L40.1,618l-3.7,1.9v14.4l-3.7,1.9v14.4L29,652.5v14.4l3.7,1.9,3.7-1.9V652.5l3.7-1.9,3.7,1.9v14.4l3.5,1.9,3.7-1.9V652.5l-3.7-1.9Z"/><path class="cls-1" d="M47.3,506l-3.5-1.8V489.7l-3.7-1.9-3.7,1.9v14.5L32.7,506v14.5L29,522.3v14.5l3.7,1.8,3.7-1.8V522.3l3.7-1.8,3.7,1.8v14.5l3.5,1.8,3.7-1.8V522.3l-3.7-1.8Z"/><path class="cls-1" d="M47.3,408.5l-3.7-1.9V392.2l-3.7-1.9-3.7,1.9v14.4l-3.7,1.9v14.4l-3.7,1.9v14.4l3.7,1.9v14.4l3.7,1.9v14.4l3.7,1.9,3.7-1.9V457.4l3.7-1.9V441l3.7-1.9V424.7l-3.7-1.9Zm-3.6,30.6L40,441l-3.7-1.9V424.7l3.7-1.9,3.7,1.9Z"/><path class="cls-1" d="M47.3,278.4l-3.5-1.9V262.1l-3.7-1.9-3.7,1.9v14.4l-3.7,1.9v14.4L29,294.7V309l3.7,1.9,3.7-1.9V294.6l3.7-1.9,3.7,1.9V309l3.5,1.9L51,309V294.6l-3.7-1.9Z"/><path class="cls-1" d="M32.8,180.7l3.7-1.8V164.4l3.7-1.8,3.7,1.8V179l3.5,1.8,3.7-1.8V164.5l-3.7-1.8V148.2l-3.5-1.9V132l-3.7-1.9L36.5,132v14.4l-3.7,1.9v14.5l-3.7,1.8V179Z"/><path class="cls-1" d="M43.7,197v14.5L40,213.3l-3.7-1.8V197l-3.7-1.8L28.9,197v14.5l3.7,1.8v14.5l3.7,1.8V244l3.7,1.8,3.7-1.8V229.5l3.7-1.8V213.2l3.5-1.8V197l-3.5-1.8Z"/><path class="cls-1" d="M32.8,798.7l3.7-1.9V782.4l3.7-1.9,3.7,1.9v14.4l3.5,1.9,3.7-1.9V782.4l-3.7-1.9V766.1l-3.5-1.9V750l-3.7-1.9L36.5,750v14.4l-3.7,1.9v14.4l-3.7,1.9V797Z"/><path class="cls-1" d="M43.7,815v14.4L40,831.3l-3.7-1.9V815l-3.7-1.9L28.9,815v14.4l3.7,1.9v14.4l3.7,1.9V862l3.7,1.8,3.7-1.8V847.5l3.7-1.9V831.2l3.5-1.9V815l-3.5-1.9Z"/><path class="cls-1" d="M203.7,66.9V81.3L200,83.2l-3.7-1.9V66.9L192.6,65l-3.7,1.9V81.3l3.7,1.9V97.6l3.7,1.9v14.4l3.7,1.9,3.7-1.9V99.4l3.7-1.9V83.2l3.5-1.9V66.9L207.4,65Z"/><path class="cls-1" d="M207.4,18.2l-3.7-1.9V1.9L200,0l-3.7,1.9V16.3l-3.7,1.9V32.6l-3.7,1.9V48.9l3.7,1.9,3.7-1.9V34.4l3.7-1.9,3.7,1.9V48.8l3.7,1.9,3.5-1.9V34.4l-3.5-1.9Z"/><path class="cls-1" d="M203.7,685v14.4l-3.7,1.9-3.7-1.9V685l-3.7-1.9-3.7,1.9v14.4l3.7,1.9v14.4l3.7,1.9V732l3.7,1.9,3.7-1.9V717.6l3.7-1.9V701.3l3.5-1.9V685l-3.5-1.9Z"/><path class="cls-1" d="M203.7,554.8v14.5L200,571l-3.7-1.8V554.7l-3.7-1.8-3.7,1.8v14.5l3.7,1.8v14.5l3.7,1.8v14.5l3.7,1.9,3.7-1.9V587.3l3.7-1.8V571l3.5-1.8V554.7l-3.5-1.8Z"/><path class="cls-1" d="M203.7,327.2v14.4l-3.7,1.9-3.7-1.9V327.2l-3.7-1.9-3.7,1.9v14.4l3.7,1.9v14.4l3.7,1.9V374l3.7,1.9,3.7-1.9V359.6l3.7-1.9V343.3l3.5-1.9V327l-3.5-1.9Z"/><path class="cls-1" d="M207.4,636.2l-3.7-1.9V619.9L200,618l-3.7,1.9v14.4l-3.7,1.9v14.4l-3.7,1.9v14.4l3.7,1.9,3.7-1.9V652.5l3.7-1.9,3.7,1.9v14.4l3.7,1.9,3.5-1.9V652.5l-3.5-1.9Z"/><path class="cls-1" d="M207.4,506l-3.7-1.8V489.7l-3.7-1.9-3.7,1.9v14.5l-3.7,1.8v14.5l-3.7,1.8v14.5l3.7,1.8,3.7-1.8V522.3l3.7-1.8,3.7,1.8v14.5l3.7,1.8,3.5-1.8V522.3l-3.5-1.8Z"/><path class="cls-1" d="M207.4,408.5l-3.7-1.9V392.2l-3.7-1.9-3.7,1.9v14.4l-3.7,1.9v14.4l-3.7,1.9v14.4l3.7,1.9v14.4l3.7,1.9v14.4l3.7,1.9,3.7-1.9V457.4l3.7-1.9V441l3.7-1.9V424.7l-3.7-1.9Zm-3.7,30.6L200,441l-3.7-1.9V424.7l3.7-1.9,3.7,1.9Z"/><path class="cls-1" d="M207.4,278.4l-3.7-1.9V262.1l-3.7-1.9-3.7,1.9v14.4l-3.7,1.9v14.4l-3.7,1.9V309l3.7,1.9,3.7-1.9V294.6l3.7-1.9,3.7,1.9V309l3.7,1.9,3.5-1.9V294.6l-3.5-1.9Z"/><path class="cls-1" d="M192.7,180.7l3.7-1.8V164.4l3.7-1.8,3.7,1.8V179l3.7,1.8L211,179V164.5l-3.5-1.8V148.2l-3.7-1.9V132l-3.7-1.9-3.7,1.9v14.4l-3.7,1.9v14.5l-3.7,1.8V179Z"/><path class="cls-1" d="M203.7,197v14.5l-3.7,1.8-3.7-1.8V197l-3.7-1.8-3.7,1.8v14.5l3.7,1.8v14.5l3.7,1.8V244l3.7,1.8,3.7-1.8V229.5l3.7-1.8V213.2l3.5-1.8V197l-3.5-1.8Z"/><path class="cls-1" d="M192.7,798.7l3.7-1.9V782.4l3.7-1.9,3.7,1.9v14.4l3.7,1.9,3.5-1.9V782.4l-3.5-1.9V766.1l-3.7-1.9V750l-3.7-1.9-3.7,1.9v14.4l-3.7,1.9v14.4l-3.7,1.9V797Z"/><path class="cls-1" d="M203.7,815v14.4l-3.7,1.9-3.7-1.9V815l-3.7-1.9-3.7,1.9v14.4l3.7,1.9v14.4l3.7,1.9V862l3.7,1.8,3.7-1.8V847.5l3.7-1.9V831.2l3.5-1.9V815l-3.5-1.9Z"/><path class="cls-1" d="M149.1,554.8l-3.7-1.9V538.5l-3.7-1.9-3.7,1.9-3.7-1.9-3.7,1.9-3.7-1.9-3.7,1.9-3.7-1.9-3.7,1.9-3.7-1.9-3.7,1.9-3.7-1.9-3.7,1.9-3.7-1.9-3.7,1.9v14.4l-3.7,1.9v14.4L87,571v14.4l3.7,1.9v14.4L87,603.6V618l3.7,1.9v14.4l3.7,1.9,3.7-1.9,3.7,1.9v14.4l3.7,1.9,3.7-1.9,3.7,1.9,3.7-1.9,3.7,1.9,3.7-1.9,3.7,1.9,3.7-1.9,3.7,1.9,3.7-1.9V636l3.7-1.9,3.7,1.9,3.7-1.9V619.7l3.7-1.9V603.4l-3.7-1.9V587.1l3.7-1.9V571l-3.7-1.9V554.8Zm-25.4,81.1L120,634l-3.7,1.9-3.7-1.9V619.6l-3.7-1.9V603.5l-3.7-1.9V587.2l3.7-1.9V571l-3.7-1.9V554.7l3.7-1.9,3.7,1.9,3.7-1.9,3.7,1.9,3.7-1.9,3.7,1.9,3.7-1.9,3.7,1.9v14.4L131,571v14.4l3.7,1.9v14.4l-3.7,1.9V618l-3.7,1.9v14.4Z"/><path class="cls-1" d="M145.5,701.2l-3.7-1.9-3.7,1.9-3.7-1.9-3.7,1.9v14.4l3.7,1.9v14.4l-3.7,1.9v14.4l3.7,1.9v14.4l-3.7,1.9-3.7-1.9V750l-3.7-1.9V733.7l-3.7-1.9V717.4l-3.7-1.9-3.7,1.9-3.7-1.9V701.1l-3.7-1.9-3.7,1.9-3.7-1.9-3.7,1.9L90,699.2l-3.7,1.9v14.4l3.7,1.9v14.4l-3.7,1.9v14.4L90,750v14.4l-3.7,1.9v14.4l3.7,1.9V797l-3.7,1.9V813l3.7,1.9,3.7-1.9,3.7,1.9,3.7-1.9,3.7,1.9,3.7-1.9V798.6l-3.7-1.9V782.3l3.7-1.9V766l-3.7-1.9V749.7l-3.7-1.9V733.4l3.7-1.9,3.7,1.9v14.4l3.7,1.9v14.4l3.7,1.9v14.4l3.7,1.9,3.7-1.9,3.7,1.9v14.4l3.7,1.9V813l3.7,1.9,3.7-1.9,3.7,1.9,3.7-1.9,3.7,1.9,3.7-1.9V798.6l-3.7-1.9V782.3l3.7-1.9V766l-3.7-1.9V749.7l3.7-1.9V733.4l-3.7-1.9V717.1l3.7-1.9V700.8l-3.7-1.9Z"/><path class="cls-1" d="M123.7,375.9l-3.7-1.8-3.5,1.8-3.7-1.8-3.7,1.8v14.5l3.7,1.8v14.4l-3.7,1.9v14.4l3.7,1.9v14.4l-3.7,1.8v14.5l3.7,1.8v14.4l-3.7,1.9V488l3.7,1.9,3.7-1.9,3.5,1.9,3.7-1.9,3.7,1.9,3.7-1.9V473.6l-3.7-1.9V457.3l3.7-1.8V441l-3.7-1.8V424.8l3.7-1.9V408.5l-3.7-1.9V392.2l3.7-1.8V375.9l-3.7-1.8Z"/><path class="cls-1" d="M145.5,213.2l-3.7-1.9-3.7,1.9-3.7-1.9-3.7,1.9v14.4l3.7,1.9v14.4l-3.7,1.9v14.4l3.7,1.9v14.4l-3.7,1.9-3.7-1.9V262l-3.7-1.9V245.7l-3.7-1.9V229.4l-3.7-1.9-3.7,1.9-3.7-1.9V213.1l-3.7-1.9-3.7,1.9-3.7-1.9-3.7,1.9L90,211.2l-3.7,1.9v14.4l3.7,1.9v14.4l-3.7,1.9v14.4L90,262v14.4l-3.7,1.9v14.4l3.7,1.9V309l-3.7,1.9v14.4l3.7,1.9,3.7-1.9,3.7,1.9,3.7-1.9,3.7,1.9,3.7-1.9V310.9l-3.7-1.9V294.6l3.7-1.9V278.3l-3.7-1.9V262l-3.7-1.9V245.7l3.7-1.9,3.7,1.9v14.4l3.7,1.9v14.4l3.7,1.9v14.4l3.7,1.9,3.7-1.9,3.7,1.9V309l3.7,1.9v14.4l3.7,1.9,3.7-1.9,3.7,1.9,3.7-1.9,3.7,1.9,3.7-1.9V310.9l-3.7-1.9V294.6l3.7-1.9V278.3l-3.7-1.9V262l3.7-1.9V245.7l-3.7-1.9V229.4l3.7-1.9V213.1l-3.7-1.9Z"/><path class="cls-1" d="M145.5,50.7l-1.2-.5L141.9,49l-3.7,1.8L134.5,49,131,50.8V65l3.5,1.9V81.3L131,83.2V97.6l3.5,1.8v14.5l-3.5,1.8v14.4l-3.7,1.9v14.4l-3.7,1.9-3.7-1.9-3.5,1.9-3.7-1.9V132l-3.7-1.9V115.7l-3.7-1.8V99.3l3.7-1.8V83.2l-3.7-1.9V66.9L109,65V50.7l-3.7-1.8-3.7,1.8-3.5-1.8-3.7,1.8L91,48.9l-3.7,1.8V65L91,66.9V81.3l-3.7,1.9V97.6L91,99.4v14.5l3.7,1.8v14.4L91,132v14.4l3.7,1.9,3.7-1.9,3.5,1.9v14.4l3.7,1.8,3.7-1.8,3.7,1.8,3.7-1.8,3.5,1.8,3.7-1.8,3.7,1.8,3.7-1.8,3.5,1.8,3.7-1.8V148.3l3.7-1.9,3.7,1.9,3.7-1.9V132l-3.7-1.9V115.7l3.7-1.8V99.3l3.5-1.8V83.2l-3.5-1.9V66.9l3.5-1.9V50.7l-3.5-1.8Z"/></svg>