<svg width="24" height="25" viewBox="0 0 24 25" fill="none" xmlns="http://www.w3.org/2000/svg">
<path fill-rule="evenodd" clip-rule="evenodd" d="M9.13162 12.2615V23.0075C9.13042 23.0431 9.13625 23.0786 9.14876 23.112C9.16128 23.1453 9.18024 23.1758 9.20457 23.2019C9.22889 23.2279 9.2581 23.2488 9.29053 23.2635C9.32295 23.2782 9.35797 23.2864 9.39356 23.2875H13.1326C13.2044 23.2849 13.2722 23.254 13.3213 23.2016C13.3703 23.1491 13.3967 23.0794 13.3945 23.0075V12.0885H16.1038C16.1715 12.0864 16.2358 12.0589 16.2842 12.0114C16.3325 11.964 16.3613 11.9002 16.3647 11.8325L16.6257 8.54155C16.6289 8.50331 16.6246 8.46481 16.6129 8.42826C16.6013 8.3917 16.5825 8.35781 16.5577 8.32855C16.5339 8.30052 16.5044 8.27797 16.4711 8.26244C16.4378 8.2469 16.4015 8.23875 16.3647 8.23855H13.3935V5.90055C13.3857 5.64631 13.4789 5.39935 13.6529 5.21378C13.8268 5.0282 14.0671 4.91916 14.3213 4.91055H16.4097C16.4817 4.9082 16.5498 4.8774 16.5991 4.82491C16.6484 4.77242 16.6748 4.70253 16.6727 4.63055V1.34055C16.6748 1.26857 16.6484 1.19867 16.5991 1.14618C16.5498 1.09369 16.4817 1.0629 16.4097 1.06055H12.8796C11.8526 1.09501 10.881 1.53542 10.1781 2.28524C9.47512 3.03506 9.09808 4.0331 9.12962 5.06055V8.23255H7.26011C7.18833 8.23515 7.1205 8.26606 7.07142 8.31852C7.02235 8.37098 6.99601 8.44073 6.99817 8.51255V11.8045C6.99601 11.8764 7.02235 11.9461 7.07142 11.9986C7.1205 12.051 7.18833 12.0819 7.26011 12.0845H9.12962L9.13162 12.2615Z" fill="white"/>
</svg>
