<?xml version="1.0" encoding="utf-8"?>
<!-- Generator: Adobe Illustrator 28.0.0, SVG Export Plug-In . SVG Version: 6.00 Build 0)  -->
<svg version="1.1" id="Layer_1" xmlns="http://www.w3.org/2000/svg" xmlns:xlink="http://www.w3.org/1999/xlink" x="0px" y="0px"
	 viewBox="0 0 100 100.6" style="enable-background:new 0 0 100 100.6;" xml:space="preserve">
<g id="Layer_2_00000182529967069439746390000004315158932303118252_">
</g>
<g>
	<path d="M5273.1,2400.1v-2c0-2.8-5-4-9.7-4s-9.7,1.3-9.7,4v2c0,1.8,0.7,3.6,2,4.9l5,4.9c0.3,0.3,0.4,0.6,0.4,1v6.4
		c0,0.4,0.2,0.7,0.6,0.8l2.9,0.9c0.5,0.1,1-0.2,1-0.8v-7.2c0-0.4,0.2-0.7,0.4-1l5.1-5C5272.4,2403.7,5273.1,2401.9,5273.1,2400.1z
		 M5263.4,2400c-4.8,0-7.4-1.3-7.5-1.8l0,0c0.1-0.5,2.7-1.8,7.5-1.8s7.3,1.3,7.5,1.8C5270.7,2398.7,5268.2,2400,5263.4,2400z"/>
	<path d="M5268.4,2410.3c-0.6,0-1,0.4-1,1s0.4,1,1,1h4.3c0.6,0,1-0.4,1-1s-0.4-1-1-1H5268.4z"/>
	<path d="M5272.7,2413.7h-4.3c-0.6,0-1,0.4-1,1s0.4,1,1,1h4.3c0.6,0,1-0.4,1-1C5273.7,2414.1,5273.3,2413.7,5272.7,2413.7z"/>
	<path d="M5272.7,2417h-4.3c-0.6,0-1,0.4-1,1s0.4,1,1,1h4.3c0.6,0,1-0.4,1-1C5273.7,2417.5,5273.3,2417,5272.7,2417z"/>
</g>
<g>
	<path d="M57.4,14.7c-3-1.5-6.5-1.3-9.3,0.6l-10,7L32,27l0,0l-4.1,3.2h-4.3h-8.1h-4.1c-4.9,0-8.9,4-8.9,8.9V59c0,4.9,4,8.9,8.9,8.9
		H27l21.2,14.9c1.5,1.1,3.4,1.6,5.2,1.6c1.4,0,2.8-0.4,4.1-1c2.6-1.3,4.3-3.8,4.7-6.6V57.1V46.3V22.7C62.2,19.3,60.4,16.3,57.4,14.7
		z M24.1,59.8H11.4c-0.4,0-0.8-0.4-0.8-0.8V39.2c0-0.4,0.4-0.8,0.8-0.8h12.7V59.8z M54.1,49v11.6v9.7v5.2c0,0.3-0.2,0.6-0.4,0.7
		c-0.3,0.2-0.6,0.2-0.9,0L32.3,61.8v-23v-1.5l4.5-3.5l7.2-5.6l8.8-6.2c0.2-0.1,0.3-0.2,0.5-0.2c0.1,0,0.2,0,0.4,0.1
		c0.3,0.1,0.4,0.4,0.4,0.7v15.6V49z"/>
	<path d="M76,34c-1.5-1.5-4.1-1.5-5.6,0s-1.5,4.1,0,5.6c2.6,2.6,3.9,6,3.9,9.5c0,3.4-1.3,6.9-3.9,9.5c-1.5,1.5-1.5,4.1,0,5.6
		s4.1,1.5,5.6,0c4.2-4.1,6.3-9.6,6.3-15.1C82.3,43.6,80.2,38.1,76,34z"/>
	<path d="M86.7,23.2c-1.5-1.5-4.1-1.5-5.6,0s-1.5,4.1,0,5.7c5.6,5.5,8.4,12.8,8.5,20.2c0,7.3-2.8,14.6-8.5,20.2
		c-1.5,1.6-1.5,4.2,0,5.7s4.1,1.5,5.6,0c7.2-7.1,10.8-16.5,10.8-25.9C97.5,39.7,93.9,30.3,86.7,23.2z"/>
</g>
</svg>
