<svg width="24" height="25" viewBox="0 0 24 25" fill="none" xmlns="http://www.w3.org/2000/svg">
<path d="M18.3057 4.47984C18.0268 4.47984 17.7541 4.56258 17.5221 4.71759C17.2902 4.87261 17.1094 5.09294 17.0026 5.35074C16.8958 5.60854 16.8678 5.89223 16.9221 6.16594C16.9765 6.43966 17.1107 6.69111 17.3079 6.88851C17.505 7.08592 17.7563 7.2204 18.0299 7.27498C18.3034 7.32955 18.587 7.30176 18.8448 7.19511C19.1026 7.08847 19.3229 6.90776 19.4781 6.67583C19.6332 6.44391 19.7161 6.17117 19.7163 5.89211C19.7163 5.70679 19.6798 5.52328 19.609 5.35207C19.5381 5.18086 19.4342 5.02529 19.3032 4.89425C19.1722 4.76321 19.0167 4.65926 18.8455 4.58834C18.6744 4.51742 18.491 4.47984 18.3057 4.47984ZM12.0362 6.28945C10.8645 6.28945 9.71909 6.63703 8.74486 7.28826C7.77063 7.93948 7.01132 8.86508 6.56293 9.94802C6.11454 11.031 5.99722 12.2226 6.22581 13.3722C6.45439 14.5219 7.01862 15.5779 7.84713 16.4067C8.67564 17.2356 9.73123 17.8 10.8804 18.0287C12.0296 18.2574 13.2207 18.14 14.3032 17.6915C15.3857 17.2429 16.311 16.4833 16.9619 15.5087C17.6129 14.534 17.9603 13.3882 17.9603 12.216C17.9603 10.6442 17.3362 9.13675 16.2252 8.0253C15.1142 6.91385 13.6073 6.28945 12.0362 6.28945ZM12.0362 16.0123C11.2857 16.0123 10.5521 15.7897 9.92813 15.3727C9.30413 14.9556 8.81775 14.3629 8.53047 13.6693C8.24319 12.9757 8.16791 12.2125 8.31416 11.4762C8.46041 10.7399 8.82161 10.0634 9.3521 9.5324C9.88259 9.0014 10.5585 8.63967 11.2945 8.49294C12.0305 8.34622 12.7934 8.42109 13.4869 8.70809C14.1803 8.99509 14.7731 9.48133 15.1903 10.1053C15.6076 10.7294 15.8305 11.4631 15.8309 12.2139C15.8311 12.7125 15.733 13.2064 15.5424 13.6671C15.3518 14.1279 15.0723 14.5466 14.7199 14.8993C14.3675 15.252 13.9492 15.5319 13.4887 15.7228C13.0282 15.9138 12.5346 16.0122 12.0362 16.0123ZM23.9903 7.28927C23.9889 5.37159 23.2264 3.53296 21.8704 2.17746C20.5145 0.82197 18.676 0.0605463 16.7591 0.0605469H7.23119C6.28149 0.0605469 5.34108 0.247699 4.46369 0.611315C3.58629 0.974931 2.78908 1.50789 2.11759 2.17975C1.44609 2.85162 0.913472 3.64923 0.550134 4.52704C0.186796 5.40485 -0.000141666 6.34566 8.05501e-08 7.29575V16.8372C0.00285973 18.754 0.765979 20.5912 2.12178 21.9455C3.47758 23.2999 5.31523 24.0605 7.23119 24.0605H16.7688C18.6866 24.0605 20.5259 23.2984 21.882 21.9417C23.2381 20.5851 24 18.745 24 16.8264L23.9903 7.28927ZM21.7238 16.8318C21.7238 17.4841 21.5954 18.1299 21.3459 18.7325C21.0964 19.3351 20.7307 19.8826 20.2697 20.3438C19.8087 20.805 19.2614 21.1709 18.659 21.4205C18.0567 21.6701 17.4111 21.7985 16.7591 21.7985H7.23119C5.91447 21.7985 4.65168 21.2753 3.72062 20.3438C2.78956 19.4124 2.26649 18.1491 2.26649 16.8318V7.29035C2.26792 5.97403 2.79162 4.71211 3.72253 3.78184C4.65343 2.85157 5.91541 2.32904 7.23119 2.32904H16.7688C18.0855 2.32904 19.3483 2.85231 20.2794 3.78375C21.2104 4.71519 21.7335 5.97849 21.7335 7.29575L21.7238 16.8318Z" fill="white"/>
</svg>
