<svg width="216" height="20" viewBox="0 0 216 20" fill="none" xmlns="http://www.w3.org/2000/svg">
<path d="M11.5118 7.391L11.1229 7.54656L10.734 7.391L10.345 7.54656L9.95613 7.391V5.91317L9.56722 5.75761L9.17831 5.91317L8.7894 5.75761L8.40049 5.91317L8.16711 5.75761L7.7782 5.91317L7.38929 5.75761L7.00038 5.91317L6.61147 5.75761L6.22256 5.91317L5.83365 5.75761L5.44474 5.91317L5.05583 5.75761L4.66692 5.91317L4.27801 5.75761L3.8891 5.91317L3.50019 5.75761L3.11128 5.91317L2.72237 5.75761V4.27977L3.11128 4.12421L3.50019 4.27977L3.8891 4.12421V2.64638L3.50019 2.49082V1.01298L3.11128 0.857422L2.72237 1.01298L2.33346 0.857422L1.94455 1.01298L1.55564 0.857422L1.16673 1.01298L0.77782 0.857422L0.38891 1.01298V2.49082L0 2.64638V4.12421L0.38891 4.27977L0.77782 4.12421V2.64638L1.16673 2.49082L1.55564 2.64638L1.94455 2.49082L2.33346 2.64638V4.12421L1.94455 4.27977L1.55564 4.12421L1.16673 4.27977V5.75761L0.77782 5.91317L0.38891 5.75761L0 5.91317V7.391L0.38891 7.54656L0.77782 7.391L1.16673 7.54656V9.0244L1.55564 9.17996L1.94455 9.0244L2.33346 9.17996L2.72237 9.0244L3.11128 9.17996V10.6578L3.50019 10.8134L3.8891 10.6578L4.27801 10.8134L4.66692 10.6578L5.05583 10.8134V12.2912L5.44474 12.4467V13.9246L5.83365 14.0801V15.558L5.44474 15.7135V17.4247L5.83365 17.5803V19.0581L6.22256 19.2137L6.61147 19.0581V17.5803L6.22256 17.4247V15.9469L6.61147 15.7913L7.00038 15.9469L7.38929 15.7913V14.3135L7.7782 14.1579L8.16711 14.3135L8.55602 14.1579V12.6801L8.94493 12.5245L9.33384 12.6801L9.72275 12.5245V11.0467L10.1117 10.8911L10.5006 11.0467L10.8895 10.8911V9.4133L11.2784 9.25774L11.6673 9.4133L12.0562 9.25774V7.7799L11.5118 7.391ZM2.17793 7.62434L1.78902 7.46878V5.99095L2.17793 5.83539L2.56684 5.99095V7.46878L2.17793 7.62434ZM7.7782 12.6023L7.38929 12.4467L7.00038 12.6023V14.0801L6.61147 14.2357L6.22256 14.0801V12.6023L6.61147 12.4467V10.9689L7.00038 10.8134L7.38929 10.9689L7.7782 10.8134L8.16711 10.9689V12.4467L7.7782 12.6023Z" fill="#4E7EA0"/>
<path d="M13.6895 7.62434V9.10218L14.0784 9.25774L14.4673 9.10218L14.8562 9.25774V10.7356L15.2451 10.8911L15.634 10.7356L16.0229 10.8911V12.369L16.4118 12.5245L16.8007 12.369L17.1896 12.5245V14.0024L17.5786 14.1579L17.9675 14.0024L18.3564 14.1579V15.6358L18.7453 15.7913L19.1342 15.6358L19.5231 15.7913V17.4247L19.1342 17.5803V19.0581L19.5231 19.2137L19.912 19.0581V17.5803L20.3009 17.4247V15.9469L19.912 15.7913V14.3135L20.3009 14.1579V12.6801L20.6898 12.5245V11.0467L21.0787 10.8911L21.4677 11.0467L21.8566 10.8911L22.2455 11.0467L22.6344 10.8911V9.4133L23.0233 9.25774L23.4122 9.4133L23.8011 9.25774L24.19 9.4133L24.5789 9.25774V7.7799L24.9678 7.62434L25.3568 7.7799L25.7457 7.62434V6.14651L25.3568 5.99095L24.9678 6.14651L24.5789 5.99095V4.51311L24.19 4.35755L23.8011 4.51311L23.4122 4.35755V2.64638L23.8011 2.49082L24.19 2.64638L24.5789 2.49082L24.9678 2.64638V4.12421L25.3568 4.27977L25.7457 4.12421V2.64638L25.3568 2.49082V1.01298L24.9678 0.857422L24.5789 1.01298L24.19 0.857422L23.8011 1.01298L23.4122 0.857422L23.0233 1.01298L22.6344 0.857422L22.2455 1.01298V2.49082L21.8566 2.64638V4.12421L22.2455 4.27977L22.6344 4.12421L23.0233 4.27977V5.75761L22.6344 5.91317L22.2455 5.75761L21.8566 5.91317L21.4677 5.75761L21.0787 5.91317L20.6898 5.75761L20.3009 5.91317L19.912 5.75761L19.5231 5.91317L19.1342 5.75761L18.7453 5.91317L18.3564 5.75761L17.9675 5.91317L17.5786 5.75761L17.1896 5.91317L16.723 5.75761L16.3341 5.91317L15.9452 5.75761L15.5562 5.91317V7.391L15.1673 7.54656L14.7784 7.391L14.3895 7.54656L14.0006 7.391L13.6895 7.62434ZM23.0233 7.391V5.91317L23.4122 5.75761L23.8011 5.91317V7.391L23.4122 7.54656L23.0233 7.391ZM17.423 12.4467V10.9689L17.8119 10.8134L18.2008 10.9689L18.5898 10.8134L18.9787 10.9689V12.4467L19.3676 12.6023V14.0801L18.9787 14.2357L18.5898 14.0801V12.6023L18.2008 12.4467L17.8119 12.6023L17.423 12.4467Z" fill="#4E7EA0"/>
<path d="M29.3237 14.0799V12.6021L29.0127 12.4465V10.9687L28.6238 10.7354L28.2349 10.9687V12.4465L27.8459 12.6021V14.0799L27.457 14.2355V15.7133L27.8459 15.9467L28.2349 15.7133V14.2355L28.6238 14.0799L29.0127 14.2355V15.7133L29.3237 15.9467L29.7126 15.7133V14.2355L29.3237 14.0799Z" fill="#4E7EA0"/>
<path d="M25.9805 14.2356V15.7135L26.3694 15.9468L26.7583 15.7135V14.2356L26.3694 14.0801L25.9805 14.2356Z" fill="#4E7EA0"/>
<path d="M25.9805 10.9687V12.4465L26.3694 12.6021L26.7583 12.4465V10.9687L26.3694 10.7354L25.9805 10.9687Z" fill="#4E7EA0"/>
<path d="M24.8902 12.6021L24.5013 12.4465V10.9687L24.1124 10.7354L23.8013 10.9687V12.4465L23.4123 12.6021V14.0799L23.0234 14.2355V15.7133L23.4123 15.9467L23.8013 15.7133V14.2355L24.1124 14.0799L24.5013 14.2355V15.7133L24.8902 15.9467L25.2791 15.7133V14.2355L24.8902 14.0799V12.6021Z" fill="#4E7EA0"/>
<path d="M13.5348 12.6021L13.1458 12.4465V10.9687L12.7569 10.7354L12.4458 10.9687V12.4465L12.0569 12.6021V14.0799L11.668 14.2355V15.7133L12.0569 15.9467L12.4458 15.7133V14.2355L12.7569 14.0799L13.1458 14.2355V15.7133L13.5348 15.9467L13.9237 15.7133V14.2355L13.5348 14.0799V12.6021Z" fill="#4E7EA0"/>
<path d="M38.6585 7.391L38.2696 7.54656L37.8807 7.391L37.4918 7.54656L37.1029 7.391V5.91317L36.714 5.75761L36.3251 5.91317L35.9362 5.75761L35.5472 5.91317L35.1583 5.75761L34.7694 5.91317L34.3805 5.75761L33.9916 5.91317L33.8361 5.75761L33.4472 5.91317L33.0583 5.75761L32.6693 5.91317L32.2804 5.75761L31.8915 5.91317L31.5026 5.75761L31.1137 5.91317L30.7248 5.75761L30.3359 5.91317L29.947 5.75761V4.27977L30.3359 4.12421L30.7248 4.27977L31.1137 4.12421V2.64638L30.7248 2.49082V1.01298L30.3359 0.857422L29.947 1.01298L29.5581 0.857422L29.1692 1.01298L28.7802 0.857422L28.3913 1.01298L28.0024 0.857422L27.6135 1.01298V2.49082L27.2246 2.64638V4.12421L27.6135 4.27977L28.0024 4.12421V2.64638L28.3913 2.49082L28.7802 2.64638L29.1692 2.49082L29.5581 2.64638V4.12421L29.1692 4.27977L28.7802 4.12421L28.3913 4.27977V5.75761L28.0024 5.91317L27.6135 5.75761L27.2246 5.91317V7.391L27.6135 7.54656L28.0024 7.391L28.3913 7.54656V9.0244L28.7802 9.17996L29.1692 9.0244L29.5581 9.17996L29.947 9.0244L30.3359 9.17996V10.6578L30.7248 10.8134L31.1137 10.6578L31.5026 10.8134L31.8915 10.6578L32.2804 10.8134V12.2912L32.6693 12.4467V13.9246L33.0583 14.0801V15.558L32.6693 15.7135V17.4247L33.0583 17.5803V19.0581L33.4472 19.2137L33.8361 19.0581V17.5803L33.4472 17.4247V15.9469L33.8361 15.7913L34.225 15.9469L34.6139 15.7913V14.3135L35.0028 14.1579L35.3917 14.3135L35.7806 14.1579V12.6801L36.1695 12.5245L36.5584 12.6801L36.9474 12.5245V11.0467L37.3363 10.8911L37.7252 11.0467L38.1141 10.8911V9.4133L38.503 9.25774L38.8919 9.4133L39.2808 9.25774V7.7799L38.6585 7.391ZM29.3247 7.62434L28.9358 7.46878V5.99095L29.3247 5.83539L29.7136 5.99095V7.46878L29.3247 7.62434ZM34.925 12.6023L34.5361 12.4467L34.1472 12.6023V14.0801L33.7583 14.2357L33.3694 14.0801V12.6023L33.7583 12.4467V10.9689L34.1472 10.8134L34.5361 10.9689L34.925 10.8134L35.314 10.9689V12.4467L34.925 12.6023Z" fill="#4E7EA0"/>
<path d="M40.9141 7.62434V9.10218L41.303 9.25774L41.6919 9.10218L42.0808 9.25774V10.7356L42.4697 10.8911L42.8586 10.7356L43.2475 10.8911V12.369L43.6364 12.5245L44.0253 12.369L44.4143 12.5245V14.0024L44.8032 14.1579L45.1921 14.0024L45.581 14.1579V15.6358L45.9699 15.7913L46.3588 15.6358L46.7477 15.7913V17.4247L46.3588 17.5803V19.0581L46.7477 19.2137L47.1366 19.0581V17.5803L47.5255 17.4247V15.9469L47.1366 15.7913V14.3135L47.5255 14.1579V12.6801L47.9144 12.5245V11.0467L48.3034 10.8911L48.6923 11.0467L49.0812 10.8911L49.4701 11.0467L49.859 10.8911V9.4133L50.2479 9.25774L50.6368 9.4133L51.0257 9.25774L51.4146 9.4133L51.8035 9.25774V7.7799L52.1925 7.62434L52.5814 7.7799L52.9703 7.62434V6.14651L52.5814 5.99095L52.1925 6.14651L51.8035 5.99095V4.51311L51.4146 4.35755L51.0257 4.51311L50.6368 4.35755V2.64638L51.0257 2.49082L51.4146 2.64638L51.8035 2.49082L52.1925 2.64638V4.12421L52.5814 4.27977L52.9703 4.12421V2.64638L52.5814 2.49082V1.01298L52.1925 0.857422L51.8035 1.01298L51.4146 0.857422L51.0257 1.01298L50.6368 0.857422L50.2479 1.01298L49.859 0.857422L49.4701 1.01298V2.49082L49.0812 2.64638V4.12421L49.4701 4.27977L49.859 4.12421L50.2479 4.27977V5.75761L49.859 5.91317L49.4701 5.75761L49.0812 5.91317L48.6923 5.75761L48.3034 5.91317L47.9144 5.75761L47.5255 5.91317L47.1366 5.75761L46.7477 5.91317L46.3588 5.75761L45.9699 5.91317L45.581 5.75761L45.1921 5.91317L44.8032 5.75761L44.4143 5.91317L44.0253 5.75761L43.6364 5.91317L43.2475 5.75761L42.8586 5.91317V7.391L42.4697 7.54656L42.0808 7.391L41.6919 7.54656L41.303 7.391L40.9141 7.62434ZM50.1701 7.391V5.91317L50.559 5.75761L50.948 5.91317V7.391L50.559 7.54656L50.1701 7.391ZM44.6476 12.4467V10.9689L45.0365 10.8134L45.4255 10.9689L45.8144 10.8134L46.2033 10.9689V12.4467L46.5922 12.6023V14.0801L46.2033 14.2357L45.8144 14.0801V12.6023L45.4255 12.4467L45.0365 12.6023L44.6476 12.4467Z" fill="#4E7EA0"/>
<path d="M56.5483 14.0804V12.6026L56.1594 12.447V10.9692L55.7705 10.7358L55.3816 10.9692V12.447L55.0706 12.6026V14.0804L54.6816 14.236V15.7138L55.0706 15.9471L55.3816 15.7138V14.236L55.7705 14.0804L56.1594 14.236V15.7138L56.5483 15.9471L56.9372 15.7138V14.236L56.5483 14.0804Z" fill="#4E7EA0"/>
<path d="M53.2051 14.2361V15.714L53.5162 15.9473L53.9051 15.714V14.2361L53.5162 14.0806L53.2051 14.2361Z" fill="#4E7EA0"/>
<path d="M53.2051 10.9692V12.447L53.5162 12.6026L53.9051 12.447V10.9692L53.5162 10.7358L53.2051 10.9692Z" fill="#4E7EA0"/>
<path d="M52.0367 12.6026L51.7256 12.447V10.9692L51.3367 10.7358L50.9477 10.9692V12.447L50.5588 12.6026V14.0804L50.1699 14.236V15.7138L50.5588 15.9471L50.9477 15.7138V14.236L51.3367 14.0804L51.7256 14.236V15.7138L52.0367 15.9471L52.4256 15.7138V14.236L52.0367 14.0804V12.6026Z" fill="#4E7EA0"/>
<path d="M40.6812 12.6026L40.3701 12.447V10.9692L39.9812 10.7358L39.5923 10.9692V12.447L39.2034 12.6026V14.0804L38.8145 14.236V15.7138L39.2034 15.9471L39.5923 15.7138V14.236L39.9812 14.0804L40.3701 14.236V15.7138L40.6812 15.9471L41.0702 15.7138V14.236L40.6812 14.0804V12.6026Z" fill="#4E7EA0"/>
<path d="M65.8034 7.391L65.4145 7.54656L65.0256 7.391L64.6367 7.54656L64.2478 7.391V5.91317L63.8589 5.75761L63.47 5.91317L63.081 5.75761L62.6921 5.91317L62.3032 5.75761L61.9143 5.91317L61.5254 5.75761L61.1365 5.91317L60.7476 5.75761L60.3587 5.91317L60.2809 5.75761L59.892 5.91317L59.5031 5.75761L59.1142 5.91317L58.7253 5.75761L58.3364 5.91317L57.9475 5.75761L57.5585 5.91317L57.1696 5.75761V4.27977L57.5585 4.12421L57.9475 4.27977L58.3364 4.12421V2.64638L57.9475 2.49082V1.01298L57.5585 0.857422L57.1696 1.01298L56.7807 0.857422L56.3918 1.01298L56.0029 0.857422L55.614 1.01298L55.2251 0.857422L54.8362 1.01298V2.49082L54.4473 2.64638V4.12421L54.8362 4.27977L55.2251 4.12421V2.64638L55.614 2.49082L56.0029 2.64638L56.3918 2.49082L56.7807 2.64638V4.12421L56.3918 4.27977L56.0029 4.12421L55.614 4.27977V5.75761L55.2251 5.91317L54.8362 5.75761L54.4473 5.91317V7.391L54.8362 7.54656L55.2251 7.391L55.614 7.54656V9.0244L56.0029 9.17996L56.3918 9.0244L56.7807 9.17996L57.1696 9.0244L57.5585 9.17996V10.6578L57.9475 10.8134L58.3364 10.6578L58.7253 10.8134L59.1142 10.6578L59.5031 10.8134V12.2912L59.892 12.4467V13.9246L60.2809 14.0801V15.558L59.892 15.7135V17.4247L60.2809 17.5803V19.0581L60.6698 19.2137L61.0587 19.0581V17.5803L60.6698 17.4247V15.9469L61.0587 15.7913L61.4476 15.9469L61.8366 15.7913V14.3135L62.2255 14.1579L62.6144 14.3135L63.0033 14.1579V12.6801L63.3922 12.5245L63.7811 12.6801L64.17 12.5245V11.0467L64.5589 10.8911L64.9478 11.0467L65.3367 10.8911V9.4133L65.7257 9.25774L66.1146 9.4133L66.5035 9.25774V7.7799L65.8034 7.391ZM56.5473 7.62434L56.1584 7.46878V5.99095L56.5473 5.83539L56.9363 5.99095V7.46878L56.5473 7.62434ZM62.1477 12.6023L61.7588 12.4467L61.3699 12.6023V14.0801L60.981 14.2357L60.5921 14.0801V12.6023L60.981 12.4467V10.9689L61.3699 10.8134L61.7588 10.9689L62.1477 10.8134L62.5366 10.9689V12.4467L62.1477 12.6023Z" fill="#4E7EA0"/>
<path d="M68.0586 7.62434V9.10218L68.4475 9.25774L68.8364 9.10218L69.2253 9.25774V10.7356L69.6142 10.8911L70.0031 10.7356L70.3921 10.8911V12.369L70.781 12.5245L71.1699 12.369L71.5588 12.5245V14.0024L71.9477 14.1579L72.3366 14.0024L72.7255 14.1579V15.6358L73.1144 15.7913L73.5033 15.6358L73.8922 15.7913V17.4247L73.5033 17.5803V19.0581L73.8922 19.2137L74.2812 19.0581V17.5803L74.6701 17.4247V15.9469L74.2812 15.7913V14.3135L74.6701 14.1579V12.6801L75.059 12.5245V11.0467L75.4479 10.8911L75.8368 11.0467L76.2257 10.8911L76.6146 11.0467L77.0035 10.8911V9.4133L77.3924 9.25774L77.7813 9.4133L78.1703 9.25774L78.5592 9.4133L78.9481 9.25774V7.7799L79.337 7.62434L79.7259 7.7799L80.1148 7.62434V6.14651L79.7259 5.99095L79.337 6.14651L78.9481 5.99095V4.51311L78.5592 4.35755L78.1703 4.51311L77.7813 4.35755V2.64638L78.1703 2.49082L78.5592 2.64638L78.9481 2.49082L79.337 2.64638V4.12421L79.7259 4.27977L80.1148 4.12421V2.64638L79.7259 2.49082V1.01298L79.337 0.857422L78.9481 1.01298L78.5592 0.857422L78.1703 1.01298L77.7813 0.857422L77.3924 1.01298L77.0035 0.857422L76.6146 1.01298V2.49082L76.2257 2.64638V4.12421L76.6146 4.27977L77.0035 4.12421L77.3924 4.27977V5.75761L77.0035 5.91317L76.6146 5.75761L76.2257 5.91317L75.8368 5.75761L75.4479 5.91317L75.059 5.75761L74.6701 5.91317L74.2812 5.75761L73.8922 5.91317L73.5033 5.75761L73.1144 5.91317L72.7255 5.75761L72.3366 5.91317L71.9477 5.75761L71.5588 5.91317L71.1699 5.75761L70.781 5.91317L70.3921 5.75761L70.0031 5.91317V7.391L69.6142 7.54656L69.2253 7.391L68.8364 7.54656L68.4475 7.391L68.0586 7.62434ZM77.3924 7.391V5.91317L77.7813 5.75761L78.1703 5.91317V7.391L77.7813 7.54656L77.3924 7.391ZM71.7922 12.4467V10.9689L72.1811 10.8134L72.57 10.9689L72.9589 10.8134L73.3478 10.9689V12.4467L73.7367 12.6023V14.0801L73.3478 14.2357L72.9589 14.0801V12.6023L72.57 12.4467L72.1811 12.6023L71.7922 12.4467Z" fill="#4E7EA0"/>
<path d="M83.693 14.0804V12.6026L83.304 12.447V10.9692L82.9929 10.7358L82.604 10.9692V12.447L82.2151 12.6026V14.0804L81.8262 14.236V15.7138L82.2151 15.9471L82.604 15.7138V14.236L82.9929 14.0804L83.304 14.236V15.7138L83.693 15.9471L84.0819 15.7138V14.236L83.693 14.0804Z" fill="#4E7EA0"/>
<path d="M80.3496 14.2356V15.7135L80.7385 15.9468L81.1274 15.7135V14.2356L80.7385 14.0801L80.3496 14.2356Z" fill="#4E7EA0"/>
<path d="M80.3496 10.9692V12.447L80.7385 12.6026L81.1274 12.447V10.9692L80.7385 10.7358L80.3496 10.9692Z" fill="#4E7EA0"/>
<path d="M79.2594 12.6026L78.8705 12.447V10.9692L78.4815 10.7358L78.0926 10.9692V12.447L77.7815 12.6026V14.0804L77.3926 14.236V15.7138L77.7815 15.9471L78.0926 15.7138V14.236L78.4815 14.0804L78.8705 14.236V15.7138L79.2594 15.9471L79.6483 15.7138V14.236L79.2594 14.0804V12.6026Z" fill="#4E7EA0"/>
<path d="M67.9039 12.6026L67.515 12.447V10.9692L67.1261 10.7358L66.7372 10.9692V12.447L66.426 12.6026V14.0804L66.0371 14.236V15.7138L66.426 15.9471L66.7372 15.7138V14.236L67.1261 14.0804L67.515 14.236V15.7138L67.9039 15.9471L68.2928 15.7138V14.236L67.9039 14.0804V12.6026Z" fill="#4E7EA0"/>
<path d="M93.028 7.391L92.6391 7.54656L92.2502 7.391L91.8613 7.54656L91.4724 7.391V5.91317L91.0835 5.75761L90.6946 5.91317L90.3057 5.75761L89.9167 5.91317L89.5278 5.75761L89.1389 5.91317L88.75 5.75761L88.3611 5.91317L87.9722 5.75761L87.5833 5.91317L87.1944 5.75761L86.8055 5.91317L86.4166 5.75761L86.0276 5.91317L85.9499 5.75761L85.561 5.91317L85.1721 5.75761L84.7832 5.91317L84.3942 5.75761V4.27977L84.7832 4.12421L85.1721 4.27977L85.561 4.12421V2.64638L85.1721 2.49082V1.01298L84.7832 0.857422L84.3942 1.01298L84.0053 0.857422L83.6164 1.01298L83.2275 0.857422L82.8386 1.01298L82.4497 0.857422L82.0608 1.01298V2.49082L81.6719 2.64638V4.12421L82.0608 4.27977L82.4497 4.12421V2.64638L82.8386 2.49082L83.2275 2.64638L83.6164 2.49082L84.0053 2.64638V4.12421L83.6164 4.27977L83.2275 4.12421L82.8386 4.27977V5.75761L82.4497 5.91317L82.0608 5.75761L81.6719 5.91317V7.391L82.0608 7.54656L82.4497 7.391L82.8386 7.54656V9.0244L83.2275 9.17996L83.6164 9.0244L84.0053 9.17996L84.3942 9.0244L84.7832 9.17996V10.6578L85.1721 10.8134L85.561 10.6578L85.9499 10.8134L86.3388 10.6578L86.7277 10.8134V12.2912L87.1166 12.4467V13.9246L87.5055 14.0801V15.558L87.1166 15.7135V17.4247L87.5055 17.5803V19.0581L87.8944 19.2137L88.2833 19.0581V17.5803L87.8944 17.4247V15.9469L88.2833 15.7913L88.6723 15.9469L89.0612 15.7913V14.3135L89.4501 14.1579L89.839 14.3135L90.2279 14.1579V12.6801L90.6168 12.5245L91.0057 12.6801L91.3946 12.5245V11.0467L91.7835 10.8911L92.1724 11.0467L92.5614 10.8911V9.4133L92.9503 9.25774L93.3392 9.4133L93.7281 9.25774V7.7799L93.028 7.391ZM83.6942 7.62434L83.3053 7.46878V5.99095L83.6942 5.83539L84.0831 5.99095V7.46878L83.6942 7.62434ZM89.2945 12.6023L88.9056 12.4467L88.5167 12.6023V14.0801L88.1278 14.2357L87.7389 14.0801V12.6023L88.1278 12.4467V10.9689L88.5167 10.8134L88.9056 10.9689L89.2945 10.8134L89.6835 10.9689V12.4467L89.2945 12.6023Z" fill="#4E7EA0"/>
<path d="M95.2832 7.62434V9.10218L95.6721 9.25774L96.061 9.10218L96.4499 9.25774V10.7356L96.8388 10.8911L97.2278 10.7356L97.6167 10.8911V12.369L98.0056 12.5245L98.3945 12.369L98.7834 12.5245V14.0024L99.1723 14.1579L99.5612 14.0024L99.9501 14.1579V15.6358L100.339 15.7913L100.728 15.6358L101.117 15.7913V17.4247L100.728 17.5803V19.0581L101.117 19.2137L101.506 19.0581V17.5803L101.895 17.4247V15.9469L101.506 15.7913V14.3135L101.895 14.1579V12.6801L102.284 12.5245V11.0467L102.672 10.8911L103.061 11.0467L103.45 10.8911L103.839 11.0467L104.228 10.8911V9.4133L104.617 9.25774L105.006 9.4133L105.395 9.25774L105.784 9.4133L106.173 9.25774V7.7799L106.562 7.62434L106.951 7.7799L107.339 7.62434V6.14651L106.951 5.99095L106.562 6.14651L106.173 5.99095V4.51311L105.784 4.35755L105.395 4.51311L105.006 4.35755V2.64638L105.395 2.49082L105.784 2.64638L106.173 2.49082L106.562 2.64638V4.12421L106.951 4.27977L107.339 4.12421V2.64638L106.951 2.49082V1.01298L106.562 0.857422L106.173 1.01298L105.784 0.857422L105.395 1.01298L105.006 0.857422L104.617 1.01298L104.228 0.857422L103.839 1.01298V2.49082L103.061 2.64638V4.12421L103.45 4.27977L103.839 4.12421L104.228 4.27977V5.75761L103.839 5.91317L103.45 5.75761L103.061 5.91317L102.672 5.75761L102.284 5.91317L101.895 5.75761L101.506 5.91317L101.117 5.75761L100.728 5.91317L100.339 5.75761L99.9501 5.91317L99.5612 5.75761L99.1723 5.91317L98.7834 5.75761L98.3945 5.91317L98.0056 5.75761L97.6167 5.91317L97.2278 5.75761L96.8388 5.91317V7.391L96.4499 7.54656L96.061 7.391L95.6721 7.54656L95.2832 7.391V7.62434ZM104.539 7.391V5.91317L104.928 5.75761L105.317 5.91317V7.391L104.928 7.54656L104.539 7.391ZM98.9389 12.4467V10.9689L99.3278 10.8134L99.7167 10.9689L100.106 10.8134L100.495 10.9689V12.4467L100.883 12.6023V14.0801L100.495 14.2357L100.106 14.0801V12.6023L99.7167 12.4467L99.3278 12.6023L98.9389 12.4467Z" fill="#4E7EA0"/>
<path d="M110.918 14.0799V12.6021L110.529 12.4465V10.9687L110.14 10.7354L109.751 10.9687V12.4465L109.362 12.6021V14.0799L109.051 14.2355V15.7133L109.362 15.9467L109.751 15.7133V14.2355L110.14 14.0799L110.529 14.2355V15.7133L110.918 15.9467L111.229 15.7133V14.2355L110.918 14.0799Z" fill="#4E7EA0"/>
<path d="M107.494 14.2356V15.7135L107.883 15.9468L108.272 15.7135V14.2356L107.883 14.0801L107.494 14.2356Z" fill="#4E7EA0"/>
<path d="M107.494 10.9687V12.4465L107.883 12.6021L108.272 12.4465V10.9687L107.883 10.7354L107.494 10.9687Z" fill="#4E7EA0"/>
<path d="M106.406 12.6021L106.017 12.4465V10.9687L105.706 10.7354L105.317 10.9687V12.4465L104.928 12.6021V14.0799L104.539 14.2355V15.7133L104.928 15.9467L105.317 15.7133V14.2355L105.706 14.0799L106.017 14.2355V15.7133L106.406 15.9467L106.795 15.7133V14.2355L106.406 14.0799V12.6021Z" fill="#4E7EA0"/>
<path d="M95.0503 12.6021L94.6614 12.4465V10.9687L94.3503 10.7354L93.9614 10.9687V12.4465L93.5725 12.6021V14.0799L93.1836 14.2355V15.7133L93.5725 15.9467L93.9614 15.7133V14.2355L94.3503 14.0799L94.6614 14.2355V15.7133L95.0503 15.9467L95.4392 15.7133V14.2355L95.0503 14.0799V12.6021Z" fill="#4E7EA0"/>
<path d="M120.173 7.391L119.784 7.54656L119.395 7.391L119.006 7.54656L118.617 7.391V5.91317L118.228 5.75761L117.839 5.91317L117.451 5.75761L117.062 5.91317L116.673 5.75761L116.284 5.91317L115.895 5.75761L115.506 5.91317L115.117 5.75761L114.728 5.91317L114.339 5.75761L113.95 5.91317L113.561 5.75761L113.173 5.91317L112.784 5.75761L112.395 5.91317V5.75761L112.006 5.91317L111.617 5.75761V4.27977L112.006 4.12421L112.395 4.27977L112.784 4.12421V2.64638L112.395 2.49082V1.01298L112.006 0.857422L111.617 1.01298L111.228 0.857422L110.839 1.01298L110.45 0.857422L110.061 1.01298L109.672 0.857422L109.283 1.01298V2.49082L108.895 2.64638V4.12421L109.283 4.27977L109.672 4.12421V2.64638L110.061 2.49082L110.45 2.64638L110.839 2.49082L111.228 2.64638V4.12421L110.839 4.27977L110.45 4.12421L110.061 4.27977V5.75761L109.672 5.91317L109.283 5.75761L108.895 5.91317V7.391L109.283 7.54656L109.672 7.391L110.061 7.54656V9.0244L110.45 9.17996L110.839 9.0244L111.228 9.17996L111.617 9.0244L112.006 9.17996V10.6578L112.395 10.8134L112.784 10.6578L113.173 10.8134L113.561 10.6578L113.95 10.8134V12.2912L114.339 12.4467V13.9246L114.728 14.0801V15.558L114.339 15.7135V17.4247L114.728 17.5803V19.0581L115.117 19.2137L115.506 19.0581V17.5803L115.117 17.4247V15.9469L115.506 15.7913L115.895 15.9469L116.284 15.7913V14.3135L116.673 14.1579L117.062 14.3135L117.451 14.1579V12.6801L117.839 12.5245L118.228 12.6801L118.617 12.5245V11.0467L119.006 10.8911L119.395 11.0467L119.784 10.8911V9.4133L120.173 9.25774L120.562 9.4133L120.951 9.25774V7.7799L120.173 7.391ZM110.917 7.62434L110.528 7.46878V5.99095L110.917 5.83539L111.306 5.99095V7.46878L110.917 7.62434ZM116.439 12.6023L116.05 12.4467L115.662 12.6023V14.0801L115.273 14.2357L114.884 14.0801V12.6023L115.273 12.4467V10.9689L115.662 10.8134L116.05 10.9689L116.439 10.8134L116.828 10.9689V12.4467L116.439 12.6023Z" fill="#4E7EA0"/>
<path d="M122.43 7.62434V9.10218L122.819 9.25774L123.208 9.10218L123.596 9.25774V10.7356L123.985 10.8911L124.374 10.7356L124.763 10.8911V12.369L125.152 12.5245L125.541 12.369L125.93 12.5245V14.0024L126.319 14.1579L126.708 14.0024L127.097 14.1579V15.6358L127.486 15.7913L127.874 15.6358L128.263 15.7913V17.4247L127.874 17.5803V19.0581L128.263 19.2137L128.652 19.0581V17.5803L129.041 17.4247V15.9469L128.652 15.7913V14.3135L129.041 14.1579V12.6801L129.43 12.5245V11.0467L129.819 10.8911L130.208 11.0467L130.597 10.8911L130.986 11.0467L131.375 10.8911V9.4133L131.764 9.25774L132.152 9.4133L132.541 9.25774L132.93 9.4133L133.319 9.25774V7.7799L133.708 7.62434L134.097 7.7799L134.486 7.62434V6.14651L134.097 5.99095L133.708 6.14651L133.319 5.99095V4.51311L132.93 4.35755L132.541 4.51311L132.152 4.35755V2.64638L132.541 2.49082L132.93 2.64638L133.319 2.49082L133.708 2.64638V4.12421L134.097 4.27977L134.486 4.12421V2.64638L134.097 2.49082V1.01298L133.708 0.857422L133.319 1.01298L132.93 0.857422L132.541 1.01298L132.152 0.857422L131.764 1.01298L131.375 0.857422L130.986 1.01298V2.49082L130.597 2.64638V4.12421L130.986 4.27977L131.375 4.12421L131.764 4.27977V5.75761L131.375 5.91317L130.986 5.75761L130.597 5.91317L130.208 5.75761L129.819 5.91317L129.43 5.75761L129.041 5.91317L128.652 5.75761L128.263 5.91317L127.874 5.75761L127.486 5.91317L127.097 5.75761L126.708 5.91317L126.319 5.75761L125.93 5.91317L125.541 5.75761L125.152 5.91317L124.763 5.75761L124.374 5.91317V7.391L123.985 7.54656L123.596 7.391L123.208 7.54656L122.819 7.391L122.43 7.62434ZM131.764 7.391V5.91317L132.152 5.75761L132.541 5.91317V7.391L132.152 7.54656L131.764 7.391ZM126.163 12.4467V10.9689L126.552 10.8134L126.941 10.9689L127.33 10.8134L127.719 10.9689V12.4467L128.108 12.6023V14.0801L127.719 14.2357L127.33 14.0801V12.6023L126.941 12.4467L126.552 12.6023L126.163 12.4467Z" fill="#4E7EA0"/>
<path d="M138.062 14.0799V12.6021L137.673 12.4465V10.9687L137.284 10.7354L136.973 10.9687V12.4465L136.584 12.6021V14.0799L136.195 14.2355V15.7133L136.584 15.9467L136.973 15.7133V14.2355L137.284 14.0799L137.673 14.2355V15.7133L138.062 15.9467L138.451 15.7133V14.2355L138.062 14.0799Z" fill="#4E7EA0"/>
<path d="M134.717 14.2356V15.7135L135.106 15.9468L135.417 15.7135V14.2356L135.106 14.0801L134.717 14.2356Z" fill="#4E7EA0"/>
<path d="M134.717 10.9687V12.4465L135.106 12.6021L135.417 12.4465V10.9687L135.106 10.7354L134.717 10.9687Z" fill="#4E7EA0"/>
<path d="M133.629 12.6021L133.24 12.4465V10.9687L132.851 10.7354L132.462 10.9687V12.4465L132.073 12.6021V14.0799L131.762 14.2355V15.7133L132.073 15.9467L132.462 15.7133V14.2355L132.851 14.0799L133.24 14.2355V15.7133L133.629 15.9467L133.94 15.7133V14.2355L133.629 14.0799V12.6021Z" fill="#4E7EA0"/>
<path d="M122.273 12.6021L121.884 12.4465V10.9687L121.495 10.7354L121.106 10.9687V12.4465L120.717 12.6021V14.0799L120.406 14.2355V15.7133L120.717 15.9467L121.106 15.7133V14.2355L121.495 14.0799L121.884 14.2355V15.7133L122.273 15.9467L122.584 15.7133V14.2355L122.273 14.0799V12.6021Z" fill="#4E7EA0"/>
<path d="M147.398 7.391L147.009 7.54656L146.62 7.391L146.231 7.54656L145.842 7.391V5.91317L145.453 5.75761L145.064 5.91317L144.675 5.75761L144.286 5.91317L143.897 5.75761L143.508 5.91317L143.12 5.75761L142.731 5.91317L142.342 5.75761L141.953 5.91317L141.564 5.75761L141.175 5.91317L140.786 5.75761L140.397 5.91317L140.008 5.75761L139.619 5.91317L139.23 5.75761L138.842 5.91317V5.75761V4.27977L139.23 4.12421L139.619 4.27977L140.008 4.12421V2.64638L139.619 2.49082V1.01298L139.23 0.857422L138.842 1.01298L138.453 0.857422L138.064 1.01298L137.675 0.857422L137.286 1.01298L136.897 0.857422L136.508 1.01298V2.49082L136.119 2.64638V4.12421L136.508 4.27977L136.897 4.12421V2.64638L137.286 2.49082L137.675 2.64638L138.064 2.49082L138.453 2.64638V4.12421L138.064 4.27977L137.675 4.12421L137.286 4.27977V5.75761L136.897 5.91317L136.508 5.75761L136.119 5.91317V7.391L136.508 7.54656L136.897 7.391L137.286 7.54656V9.0244L137.675 9.17996L138.064 9.0244L138.453 9.17996L138.842 9.0244L139.23 9.17996V10.6578L139.619 10.8134L140.008 10.6578L140.397 10.8134L140.786 10.6578L141.175 10.8134V12.2912L141.564 12.4467V13.9246L141.953 14.0801V15.558L141.564 15.7135V17.4247L141.953 17.5803V19.0581L142.342 19.2137L142.731 19.0581V17.5803L142.342 17.4247V15.9469L142.731 15.7913L143.12 15.9469L143.508 15.7913V14.3135L143.897 14.1579L144.286 14.3135L144.675 14.1579V12.6801L145.064 12.5245L145.453 12.6801L145.842 12.5245V11.0467L146.231 10.8911L146.62 11.0467L147.009 10.8911V9.4133L147.398 9.25774L147.786 9.4133L148.175 9.25774V7.7799L147.398 7.391ZM138.064 7.62434L137.675 7.46878V5.99095L138.064 5.83539L138.453 5.99095V7.46878L138.064 7.62434ZM143.664 12.6023L143.275 12.4467L142.886 12.6023V14.0801L142.497 14.2357L142.108 14.0801V12.6023L142.497 12.4467V10.9689L142.886 10.8134L143.275 10.9689L143.664 10.8134L144.053 10.9689V12.4467L143.664 12.6023Z" fill="#4E7EA0"/>
<path d="M149.576 7.62434V9.10218L149.965 9.25774L150.354 9.10218L150.743 9.25774V10.7356L151.132 10.8911L151.521 10.7356L151.91 10.8911V12.369L152.299 12.5245L152.687 12.369L153.076 12.5245V14.0024L153.465 14.1579L153.854 14.0024L154.243 14.1579V15.6358L154.632 15.7913L155.021 15.6358L155.41 15.7913V17.4247L155.021 17.5803V19.0581L155.41 19.2137L155.799 19.0581V17.5803L156.188 17.4247V15.9469L155.799 15.7913V14.3135L156.188 14.1579V12.6801L156.577 12.5245V11.0467L156.965 10.8911L157.354 11.0467L157.743 10.8911L158.132 11.0467L158.521 10.8911V9.4133L158.91 9.25774L159.299 9.4133L159.688 9.25774L160.077 9.4133L160.466 9.25774V7.7799L160.855 7.62434L161.243 7.7799L161.632 7.62434V6.14651L161.243 5.99095L160.855 6.14651L160.466 5.99095V4.51311L160.077 4.35755L159.688 4.51311L159.299 4.35755V2.64638L159.688 2.49082L160.077 2.64638L160.466 2.49082L160.855 2.64638V4.12421L161.243 4.27977L161.632 4.12421V2.64638L161.243 2.49082V1.01298L160.855 0.857422L160.466 1.01298L160.077 0.857422L159.688 1.01298L159.299 0.857422L158.91 1.01298L158.521 0.857422L158.132 1.01298V2.49082L157.743 2.64638V4.12421L158.132 4.27977L158.521 4.12421L158.91 4.27977V5.75761L158.521 5.91317L158.132 5.75761L157.743 5.91317L157.354 5.75761L156.965 5.91317L156.577 5.75761L156.188 5.91317L155.799 5.75761L155.41 5.91317L155.021 5.75761L154.632 5.91317L154.243 5.75761L153.854 5.91317L153.465 5.75761L153.076 5.91317L152.687 5.75761L152.299 5.91317L151.91 5.75761L151.521 5.91317V7.391L151.132 7.54656L150.743 7.391L150.354 7.54656L149.965 7.391L149.576 7.62434ZM158.91 7.391V5.91317L159.299 5.75761L159.688 5.91317V7.391L159.299 7.54656L158.91 7.391ZM153.31 12.4467V10.9689L153.699 10.8134L154.087 10.9689L154.476 10.8134L154.865 10.9689V12.4467L155.254 12.6023V14.0801L154.865 14.2357L154.476 14.0801V12.6023L154.087 12.4467L153.699 12.6023L153.31 12.4467Z" fill="#4E7EA0"/>
<path d="M165.209 14.0799V12.6021L164.897 12.4465V10.9687L164.509 10.7354L164.12 10.9687V12.4465L163.731 12.6021V14.0799L163.342 14.2355V15.7133L163.731 15.9467L164.12 15.7133V14.2355L164.509 14.0799L164.897 14.2355V15.7133L165.209 15.9467L165.597 15.7133V14.2355L165.209 14.0799Z" fill="#4E7EA0"/>
<path d="M161.865 14.2356V15.7135L162.254 15.9468L162.643 15.7135V14.2356L162.254 14.0801L161.865 14.2356Z" fill="#4E7EA0"/>
<path d="M161.865 10.9687V12.4465L162.254 12.6021L162.643 12.4465V10.9687L162.254 10.7354L161.865 10.9687Z" fill="#4E7EA0"/>
<path d="M160.777 12.6021L160.388 12.4465V10.9687L159.999 10.7354L159.688 10.9687V12.4465L159.299 12.6021V14.0799L158.91 14.2355V15.7133L159.299 15.9467L159.688 15.7133V14.2355L159.999 14.0799L160.388 14.2355V15.7133L160.777 15.9467L161.166 15.7133V14.2355L160.777 14.0799V12.6021Z" fill="#4E7EA0"/>
<path d="M149.42 12.6021L149.031 12.4465V10.9687L148.642 10.7354L148.331 10.9687V12.4465L147.942 12.6021V14.0799L147.553 14.2355V15.7133L147.942 15.9467L148.331 15.7133V14.2355L148.642 14.0799L149.031 14.2355V15.7133L149.42 15.9467L149.808 15.7133V14.2355L149.42 14.0799V12.6021Z" fill="#4E7EA0"/>
<path d="M174.542 7.391L174.153 7.54656L173.764 7.391L173.376 7.54656L172.987 7.391V5.91317L172.598 5.75761L172.209 5.91317L171.82 5.75761L171.431 5.91317L171.042 5.75761L170.653 5.91317L170.264 5.75761L169.875 5.91317L169.486 5.75761L169.098 5.91317L168.709 5.75761L168.32 5.91317L167.931 5.75761L167.542 5.91317L167.153 5.75761L166.764 5.91317L166.375 5.75761L165.986 5.91317L165.597 5.75761V4.27977L165.986 4.12421L166.375 4.27977L166.764 4.12421V2.64638L166.375 2.49082V1.01298L165.986 0.857422L165.597 1.01298L165.208 0.857422L164.82 1.01298L164.431 0.857422L164.042 1.01298L163.653 0.857422L163.264 1.01298V2.49082L162.875 2.64638V4.12421L163.264 4.27977L163.653 4.12421V2.64638L164.042 2.49082L164.431 2.64638L164.82 2.49082L165.208 2.64638V4.12421L164.82 4.27977L164.431 4.12421L164.042 4.27977V5.75761L163.653 5.91317L163.731 5.75761L163.342 5.91317V7.391L163.731 7.54656L164.119 7.391L164.508 7.54656V9.0244L164.897 9.17996L165.286 9.0244L165.675 9.17996L166.064 9.0244L166.453 9.17996V10.6578L166.842 10.8134L167.231 10.6578L167.62 10.8134L168.009 10.6578L168.398 10.8134V12.2912L168.786 12.4467V13.9246L169.175 14.0801V15.558L168.786 15.7135V17.4247L169.175 17.5803V19.0581L169.564 19.2137L169.953 19.0581V17.5803L169.564 17.4247V15.9469L169.953 15.7913L170.342 15.9469L170.731 15.7913V14.3135L171.12 14.1579L171.509 14.3135L171.898 14.1579V12.6801L172.287 12.5245L172.676 12.6801L173.064 12.5245V11.0467L173.453 10.8911L173.842 11.0467L174.231 10.8911V9.4133L174.62 9.25774L175.009 9.4133L175.398 9.25774V7.7799L174.542 7.391ZM165.208 7.62434L164.82 7.46878V5.99095L165.208 5.83539L165.597 5.99095V7.46878L165.208 7.62434ZM170.809 12.6023L170.42 12.4467L170.031 12.6023V14.0801L169.642 14.2357L169.253 14.0801V12.6023L169.642 12.4467V10.9689L170.031 10.8134L170.42 10.9689L170.809 10.8134L171.198 10.9689V12.4467L170.809 12.6023Z" fill="#4E7EA0"/>
<path d="M176.799 7.62434V9.10218L177.188 9.25774L177.577 9.10218L177.966 9.25774V10.7356L178.354 10.8911L178.743 10.7356L179.132 10.8911V12.369L179.521 12.5245L179.91 12.369L180.299 12.5245V14.0024L180.688 14.1579L181.077 14.0024L181.466 14.1579V15.6358L181.855 15.7913L182.244 15.6358L182.632 15.7913V17.4247L182.244 17.5803V19.0581L182.632 19.2137L183.021 19.0581V17.5803L183.41 17.4247V15.9469L183.021 15.7913V14.3135L183.41 14.1579V12.6801L183.799 12.5245V11.0467L184.188 10.8911L184.577 11.0467L184.966 10.8911L185.355 11.0467L185.744 10.8911V9.4133L186.133 9.25774L186.522 9.4133L186.91 9.25774L187.299 9.4133L187.688 9.25774V7.7799L188.077 7.62434L188.466 7.7799L188.855 7.62434V6.14651L188.466 5.99095L188.077 6.14651L187.688 5.99095V4.51311L187.299 4.35755L186.91 4.51311L186.522 4.35755V2.64638L186.91 2.49082L187.299 2.64638L187.688 2.49082L188.077 2.64638V4.12421L188.466 4.27977L188.855 4.12421V2.64638L188.466 2.49082V1.01298L188.077 0.857422L187.688 1.01298L187.299 0.857422L186.91 1.01298L186.522 0.857422L186.133 1.01298L185.744 0.857422L185.355 1.01298V2.49082L184.966 2.64638V4.12421L185.355 4.27977L185.744 4.12421L186.133 4.27977V5.75761L185.744 5.91317L185.355 5.75761L184.966 5.91317L184.577 5.75761L184.188 5.91317L183.799 5.75761L183.41 5.91317L183.021 5.75761L182.632 5.91317L182.244 5.75761L181.855 5.91317L181.466 5.75761L181.077 5.91317L180.688 5.75761L180.299 5.91317L179.91 5.75761L179.521 5.91317L179.132 5.75761L178.743 5.91317V7.391L178.354 7.54656L177.966 7.391L177.577 7.54656L177.188 7.391L176.799 7.62434ZM186.055 7.391V5.91317L186.444 5.75761L186.833 5.91317V7.391L186.444 7.54656L186.055 7.391ZM180.532 12.4467V10.9689L180.921 10.8134L181.31 10.9689L181.699 10.8134L182.088 10.9689V12.4467L182.477 12.6023V14.0801L182.088 14.2357L181.699 14.0801V12.6023L181.31 12.4467L180.921 12.6023L180.532 12.4467Z" fill="#4E7EA0"/>
<path d="M192.431 14.0804V12.6026L192.042 12.447V10.9692L191.653 10.7358L191.265 10.9692V12.447L190.953 12.6026V14.0804L190.564 14.236V15.7138L190.953 15.9471L191.265 15.7138V14.236L191.653 14.0804L192.042 14.236V15.7138L192.431 15.9471L192.82 15.7138V14.236L192.431 14.0804Z" fill="#4E7EA0"/>
<path d="M189.088 14.2361V15.714L189.477 15.9473L189.788 15.714V14.2361L189.477 14.0806L189.088 14.2361Z" fill="#4E7EA0"/>
<path d="M189.088 10.9692V12.447L189.477 12.6026L189.788 12.447V10.9692L189.477 10.7358L189.088 10.9692Z" fill="#4E7EA0"/>
<path d="M187.92 12.6026L187.608 12.447V10.9692L187.219 10.7358L186.831 10.9692V12.447L186.442 12.6026V14.0804L186.053 14.236V15.7138L186.442 15.9471L186.831 15.7138V14.236L187.219 14.0804L187.608 14.236V15.7138L187.92 15.9471L188.308 15.7138V14.236L187.92 14.0804V12.6026Z" fill="#4E7EA0"/>
<path d="M176.564 12.6026L176.253 12.447V10.9692L175.864 10.7358L175.475 10.9692V12.447L175.086 12.6026V14.0804L174.697 14.236V15.7138L175.086 15.9471L175.475 15.7138V14.236L175.864 14.0804L176.253 14.236V15.7138L176.564 15.9471L176.953 15.7138V14.236L176.564 14.0804V12.6026Z" fill="#4E7EA0"/>
<path d="M201.689 7.391L201.3 7.54656L200.911 7.391L200.522 7.54656L200.133 7.391V5.91317L199.744 5.75761L199.355 5.91317L198.966 5.75761L198.578 5.91317L198.189 5.75761L197.8 5.91317L197.411 5.75761L197.022 5.91317L196.633 5.75761L196.244 5.91317L195.855 5.75761L195.466 5.91317L195.077 5.75761L194.688 5.91317L194.299 5.75761L193.911 5.91317L193.522 5.75761L193.133 5.91317L192.744 5.75761V4.27977L193.133 4.12421L193.522 4.27977L193.911 4.12421V2.64638L193.522 2.49082V1.01298L193.133 0.857422L192.744 1.01298L192.355 0.857422L191.966 1.01298L191.577 0.857422L191.188 1.01298L190.799 0.857422L190.41 1.01298V2.49082L190.021 2.64638V4.12421L190.41 4.27977L190.799 4.12421V2.64638L191.188 2.49082L191.577 2.64638L191.966 2.49082L192.355 2.64638V4.12421L191.966 4.27977L191.577 4.12421L191.188 4.27977V5.75761L190.799 5.91317L190.955 5.75761L190.566 5.91317V7.391L190.955 7.54656L191.344 7.391L191.733 7.54656V9.0244L192.122 9.17996L192.51 9.0244L192.899 9.17996L193.288 9.0244L193.677 9.17996V10.6578L194.066 10.8134L194.455 10.6578L194.844 10.8134L195.233 10.6578L195.622 10.8134V12.2912L196.011 12.4467V13.9246L196.4 14.0801V15.558L196.011 15.7135V17.4247L196.4 17.5803V19.0581L196.788 19.2137L197.177 19.0581V17.5803L196.788 17.4247V15.9469L197.177 15.7913L197.566 15.9469L197.955 15.7913V14.3135L198.344 14.1579L198.733 14.3135L199.122 14.1579V12.6801L199.511 12.5245L199.9 12.6801L200.289 12.5245V11.0467L200.678 10.8911L201.066 11.0467L201.455 10.8911V9.4133L201.844 9.25774L202.233 9.4133L202.622 9.25774V7.7799L201.689 7.391ZM192.433 7.62434L192.044 7.46878V5.99095L192.433 5.83539L192.822 5.99095V7.46878L192.433 7.62434ZM198.033 12.6023L197.644 12.4467L197.255 12.6023V14.0801L196.866 14.2357L196.477 14.0801V12.6023L196.866 12.4467V10.9689L197.255 10.8134L197.644 10.9689L198.033 10.8134L198.422 10.9689V12.4467L198.033 12.6023Z" fill="#4E7EA0"/>
<path d="M203.943 7.62434V9.10218L204.332 9.25774L204.721 9.10218L205.11 9.25774V10.7356L205.499 10.8911L205.888 10.7356L206.277 10.8911V12.369L206.666 12.5245L207.055 12.369L207.444 12.5245V14.0024L207.832 14.1579L208.221 14.0024L208.61 14.1579V15.6358L208.999 15.7913L209.388 15.6358L209.777 15.7913V17.4247L209.388 17.5803V19.0581L209.777 19.2137L210.166 19.0581V17.5803L210.555 17.4247V15.9469L210.166 15.7913V14.3135L210.555 14.1579V12.6801L210.944 12.5245V11.0467L211.333 10.8911L211.722 11.0467L212.11 10.8911L212.499 11.0467L212.888 10.8911V9.4133L213.277 9.25774L213.666 9.4133L214.055 9.25774L214.444 9.4133L214.833 9.25774V7.7799L215.222 7.62434L215.611 7.7799L216 7.62434V6.14651L215.611 5.99095L215.222 6.14651L214.833 5.99095V4.51311L214.444 4.35755L214.055 4.51311L213.666 4.35755V2.64638L214.055 2.49082L214.444 2.64638L214.833 2.49082L215.222 2.64638V4.12421L215.611 4.27977L216 4.12421V2.64638L215.611 2.49082V1.01298L215.222 0.857422L214.833 1.01298L214.444 0.857422L214.055 1.01298L213.666 0.857422L213.277 1.01298L212.888 0.857422L212.499 1.01298V2.49082L212.11 2.64638V4.12421L212.499 4.27977L212.888 4.12421L213.277 4.27977V5.75761L212.888 5.91317L212.499 5.75761L212.11 5.91317L211.722 5.75761L211.333 5.91317L210.944 5.75761L210.555 5.91317L210.166 5.75761L209.777 5.91317L209.388 5.75761L208.999 5.91317L208.61 5.75761L208.221 5.91317L207.832 5.75761L207.444 5.91317L207.055 5.75761L206.666 5.91317L206.277 5.75761L205.888 5.91317V7.391L205.499 7.54656L205.11 7.391L204.721 7.54656L204.332 7.391L203.943 7.62434ZM213.277 7.391V5.91317L213.666 5.75761L214.055 5.91317V7.391L213.666 7.54656L213.277 7.391ZM207.677 12.4467V10.9689L208.066 10.8134L208.455 10.9689L208.844 10.8134L209.233 10.9689V12.4467L209.621 12.6023V14.0801L209.233 14.2357L208.844 14.0801V12.6023L208.455 12.4467L208.066 12.6023L207.677 12.4467Z" fill="#4E7EA0"/>
<path d="M203.789 12.6021L203.4 12.4465V10.9687L203.011 10.7354L202.622 10.9687V12.4465L202.311 12.6021V14.0799L201.922 14.2355V15.7133L202.311 15.9467L202.622 15.7133V14.2355L203.011 14.0799L203.4 14.2355V15.7133L203.789 15.9467L204.178 15.7133V14.2355L203.789 14.0799V12.6021Z" fill="#4E7EA0"/>
</svg>
