<svg width="24" height="25" viewBox="0 0 24 25" fill="none" xmlns="http://www.w3.org/2000/svg">
<g clip-path="url(#clip0_1291_59192)">
<path d="M12.8034 11.6509L18.2043 19.3761H15.9878L11.5806 13.0723V13.0719L10.9335 12.1465L5.78516 4.78223H8.00168L12.1564 10.7255L12.8034 11.6509Z" fill="white"/>
<path d="M21.4067 0.0605469H2.59325C1.16108 0.0605469 0 1.22162 0 2.6538V21.4673C0 22.8995 1.16108 24.0605 2.59325 24.0605H21.4067C22.8389 24.0605 24 22.8995 24 21.4673V2.6538C24 1.22162 22.8389 0.0605469 21.4067 0.0605469ZM15.308 20.413L10.8481 13.9223L5.26435 20.413H3.82122L10.2073 12.99L3.82122 3.69576H8.69203L12.9152 9.84206L18.2026 3.69576H19.6458L13.5562 10.7745H13.5558L20.1788 20.413H15.308Z" fill="white"/>
</g>
<defs>
<clipPath id="clip0_1291_59192">
<rect width="24" height="24" fill="white" transform="translate(0 0.0605469)"/>
</clipPath>
</defs>
</svg>
