<?xml version="1.0" encoding="utf-8"?>
<!-- Generator: Adobe Illustrator 26.5.0, SVG Export Plug-In . SVG Version: 6.00 Build 0)  -->
<svg version="1.1" id="Layer_1" xmlns="http://www.w3.org/2000/svg" xmlns:xlink="http://www.w3.org/1999/xlink" x="0px" y="0px"
	 viewBox="0 0 240 1080" style="enable-background:new 0 0 240 1080;" xml:space="preserve">
<style type="text/css">
	.st0{opacity:0.2;}
	.st1{fill:#A1BDE5;}
</style>
<g class="st0">
	<path class="st1" d="M76.4,188.2v-14.4l3.7-1.9v-14.4l3.7-1.9v-14.4l-3.7-1.9l-3.7,1.9v14.4l-3.7,1.9v14.4l-3.7,1.9v14.4l3.7,1.9
		L76.4,188.2z"/>
	<path class="st1" d="M3.7,0v9.4L0,11.1v14.5l3.7,1.8v14.5L0,43.6v14.5l3.7,1.8v14.5L0,76.2v14.5l3.7,1.8v14.5L0,108.7v0.1v14.4
		l3.7,1.9v14.4L0,141.3v14.4l3.7,1.9v14.4L0,173.8v14.4l3.7,1.9v14.4L0,206.4v14.4l3.7,1.9V237L0,238.9v14.4l3.7,1.9v14.4L0,271.4
		v14.4l3.7,1.9V302L0,303.9v14.4l3.7,1.9v14.4L0,336.4v14.5l3.7,1.8v14.5L0,368.9v14.5l3.7,1.8v14.5L0,401.4v14.5l3.7,1.8v14.5
		L0,433.9v14.5l3.7,1.9v14.4L0,466.6V481l3.7,1.9v14.4L0,499.1v14.4l3.7,1.9v14.4L0,531.6V546l3.7,1.9v14.4L0,564.1v14.4l3.7,1.9
		v14.4L0,596.7V611l3.7,1.9v14.4L0,629.2v14.4l3.7,1.9v14.4L0,661.7V676l3.7,1.9v14.4L0,694.2v14.5l3.7,1.8v14.5L0,726.7v14.5
		l3.7,1.8v14.5L0,759.2v14.5l3.7,1.8V790L0,791.7v14.5l3.7,1.9v14.4L0,824.4v14.4l3.7,1.9V855L0,856.9v14.4l3.7,1.9v14.4L0,889.4
		v14.4l3.7,1.9V920L0,921.9v14.4l3.7,1.9v14.4L0,954.4v14.4l3.7,1.9v14.4L0,987v14.4l3.7,1.9v14.4l-3.7,1.9v14.4v0.1l3.7,1.8v14.5
		L0,1052v14.5l3.7,1.8v11.8h14.6v-11.8l3.7-1.8V1052l-3.7-1.8v-14.5l3.7-1.9v-14.4l-3.7-1.9v-14.4l3.7-1.9V987l-3.7-1.9v-14.4
		l3.7-1.9v-14.4l-3.7-1.9v-14.4l3.7-1.9v-14.4l-3.7-1.9v-14.4l3.7-1.9v-14.4l-3.7-1.9v-14.4l3.7-1.9v-14.4l-3.7-1.9v-14.4l3.7-1.9
		v-14.4l-3.7-1.9v-14.4l3.7-1.9v-14.5l-3.7-1.8v-14.5l3.7-1.8v-14.5l-3.7-1.8V743l3.7-1.8v-14.5l-3.7-1.8v-14.5l3.7-1.8v-14.5
		l-3.7-1.9v-14.4l3.7-1.9v-14.4l-3.7-1.9v-14.4l3.7-1.9v-14.4l-3.7-1.9v-14.4l3.7-1.9v-14.4l-3.7-1.9v-14.4l3.7-1.9v-14.4l-3.7-1.9
		v-14.4l3.7-1.9v-14.4l-3.7-1.9v-14.4l3.7-1.9v-14.4l-3.7-1.9v-14.4l3.7-1.9v-14.4l-3.7-1.9v-14.4l3.7-1.9v-14.5l-3.7-1.8v-14.5
		l3.7-1.8v-14.5l-3.7-1.8v-14.5l3.7-1.8v-14.5l-3.7-1.8v-14.5l3.7-1.8v-14.5l-3.7-1.9v-14.4l3.7-1.9v-14.4l-3.7-1.9v-14.4l3.7-1.9
		v-14.4l-3.7-1.9v-14.4l3.7-1.9v-14.4l-3.7-1.9v-14.4l3.7-1.9v-14.4l-3.7-1.9v-14.4l3.7-1.9v-14.4l-3.7-1.9v-14.4l3.7-1.9v-14.4
		l-3.7-1.9v-14.4l3.7-1.9v-14.4v-0.1l-3.7-1.8V92.4l3.7-1.8V76.2l-3.7-1.8V59.9l3.7-1.8V43.6l-3.7-1.8V27.4l3.7-1.8V11.1l-3.7-1.8V0
		H3.7z"/>
	<path class="st1" d="M221.9,0v9.4l-3.7,1.8v14.5l3.7,1.8v14.5l-3.7,1.8v14.5l3.7,1.8v14.5l-3.7,1.8v14.5l3.7,1.8v14.5l-3.7,1.8v0.1
		v14.4l3.7,1.9v14.4l-3.7,1.9v14.4l3.7,1.9v14.4l-3.7,1.9v14.4l3.7,1.9v14.4l-3.7,1.9v14.4l3.7,1.9V237l-3.7,1.9v14.4l3.7,1.9v14.4
		l-3.7,1.9v14.4l3.7,1.9V302l-3.7,1.9v14.4l3.7,1.9v14.4l-3.7,1.9v14.5l3.7,1.8v14.5l-3.7,1.8v14.5l3.7,1.8v14.5l-3.7,1.8v14.5
		l3.7,1.8v14.5l-3.7,1.8v14.5l3.7,1.9v14.4l-3.7,1.9V481l3.7,1.9v14.4l-3.7,1.9v14.4l3.7,1.9v14.4l-3.7,1.9V546l3.7,1.9v14.4
		l-3.7,1.9v14.4l3.7,1.9v14.4l-3.7,1.9V611l3.7,1.9v14.4l-3.7,1.9v14.4l3.7,1.9v14.4l-3.7,1.9V676l3.7,1.9v14.4l-3.7,1.9v14.5
		l3.7,1.8v14.5l-3.7,1.8v14.5l3.7,1.8v14.5l-3.7,1.8v14.5l3.7,1.8V790l-3.7,1.8v14.5l3.7,1.9v14.4l-3.7,1.9v14.4l3.7,1.9V855
		l-3.7,1.9v14.4l3.7,1.9v14.4l-3.7,1.9v14.4l3.7,1.9V920l-3.7,1.9v14.4l3.7,1.9v14.4l-3.7,1.9v14.4l3.7,1.9v14.4l-3.7,1.9v14.4
		l3.7,1.9v14.4l-3.7,1.9v14.4l3.7,1.9v14.5l-3.7,1.8v14.5l3.7,1.8v11.8h14.5v-11.8l3.7-1.8V1052l-3.7-1.8v-14.5l3.7-1.8v-0.1v-14.4
		l-3.7-1.9v-14.4l3.7-1.9V987l-3.7-1.9v-14.4l3.7-1.9v-14.4l-3.7-1.9v-14.4l3.7-1.9v-14.4l-3.7-1.9v-14.4l3.7-1.9v-14.4l-3.7-1.9
		v-14.4l3.7-1.9v-14.4l-3.7-1.9v-14.4l3.7-1.9v-14.4l-3.7-1.9v-14.4l3.7-1.9v-14.5l-3.7-1.8v-14.5l3.7-1.8v-14.5l-3.7-1.8V743
		l3.7-1.8v-14.5l-3.7-1.8v-14.5l3.7-1.8v-14.5l-3.7-1.9v-14.4l3.7-1.9v-14.4l-3.7-1.9v-14.4l3.7-1.9v-14.4l-3.7-1.9v-14.4l3.7-1.9
		v-14.4l-3.7-1.9v-14.4l3.7-1.9v-14.4l-3.7-1.9v-14.4l3.7-1.9v-14.4l-3.7-1.9v-14.4l3.7-1.9v-14.4l-3.7-1.9v-14.4l3.7-1.9v-14.4
		l-3.7-1.9v-14.4l3.7-1.9v-14.5l-3.7-1.8v-14.5l3.7-1.8v-14.5l-3.7-1.8v-14.5l3.7-1.8v-14.5l-3.7-1.8v-14.5l3.7-1.8v-14.5l-3.7-1.9
		v-14.4l3.7-1.9v-14.4l-3.7-1.9v-14.4l3.7-1.9v-14.4l-3.7-1.9v-14.4l3.7-1.9v-14.4l-3.7-1.9v-14.4l3.7-1.9v-14.4l-3.7-1.9v-14.4
		l3.7-1.9v-14.4l-3.7-1.9v-14.4l3.7-1.9v-14.4l-3.7-1.9v-14.4l3.7-1.9v-14.4v-0.1l-3.7-1.8V92.4l3.7-1.8V76.2l-3.7-1.8V59.9l3.7-1.8
		V43.6l-3.7-1.8V27.4l3.7-1.8V11.1l-3.7-1.8V0H221.9z"/>
	<path class="st1" d="M123.7,157.6l-3.7-1.9l-3.7,1.9v14.4l-3.5,1.9v14.4l3.5,1.9l3.7-1.9l3.7,1.9l3.7-1.9v-14.4l-3.7-1.9V157.6z"/>
	<path class="st1" d="M152.8,157.6l-3.7-1.9v-14.4l-3.7-1.9v-14.5l-3.7-1.8v-14.5l-3.5-1.8V92.4l-3.7-1.8V76.2l-3.7-1.8V59.9
		l-3.7-1.8V43.6l-3.7-1.8V27.4l-3.7-1.8l-3.7,1.8v14.5l-3.5,1.8v14.5l-3.7,1.8v14.5l-3.7,1.8v14.5l-3.7,1.8v14.5l-3.7,1.8v14.5
		l-3.7,1.8v14.5l-3.5,1.9v14.4l-3.7,1.9v14.4l-3.7,1.9v14.4l3.7,1.9l3.7-1.9v-14.4l3.5-1.9v-14.4l3.7-1.9v-14.4l3.7-1.9v-14.5
		l3.7-1.8v-14.5l3.7-1.8V92.4l3.7-1.8V76.2l3.5-1.8V59.9l3.7-1.8l3.7,1.8v14.5l3.7,1.8v14.5l3.7,1.8v14.5l3.7,1.8v14.5l3.7,1.8v14.5
		l3.5,1.9v14.4l3.7,1.9v14.4l3.7,1.9v14.4l3.7,1.9l3.7-1.9v-14.4l-3.7-1.9V157.6z"/>
	<path class="st1" d="M167.3,157.6l-3.5-1.9v-14.4l-3.7-1.9v-14.5l-3.7-1.8v-14.5l-3.7-1.8V92.4l-3.7-1.8V76.2l-3.7-1.8V59.9
		l-3.7-1.8V43.6l-3.5-1.8V27.4l-3.7-1.8l-3.7,1.8v14.5l3.7,1.8v14.5l3.7,1.8v14.5l3.5,1.8v14.5l3.7,1.8v14.5l3.7,1.8v14.5l3.7,1.8
		v14.5l3.7,1.9v14.4l3.7,1.9v14.4l3.7,1.9v14.4l3.5,1.9l3.7-1.9v-14.4l-3.7-1.9V157.6z"/>
	<path class="st1" d="M101.8,190.1l3.7-1.9v-14.4l3.7-1.9v-14.4l3.7-1.9v-14.4l3.5-1.9v-14.5l3.7-1.8l3.7,1.8v14.5l3.7,1.8v0.1v14.4
		l3.7,1.9v14.4l3.7,1.9v14.4l3.7,1.9l3.5-1.9v-14.4l-3.5-1.9v-14.4l-3.7-1.9v-14.4l-3.7-1.9v-14.5l-3.7-1.8V123v-14.4l-3.7-1.8V92.4
		l-3.7-1.8l-3.7,1.8v14.5l-3.5,1.8v14.5l-3.7,1.8v14.5l-3.7,1.9v14.4l-3.7,1.9v14.4l-3.7,1.9v14.4L101.8,190.1z"/>
	<path class="st1" d="M72.7,190.1l3.7-1.9v-14.4l3.7-1.9v-14.4l3.7-1.9v-14.1v-0.3l3.7-1.9v-14.5l3.7-1.8v-14.5l3.5-1.8V92.4
		l3.7-1.8V76.2l3.7-1.8V59.9l3.7-1.8V43.6l3.7-1.8V27.4l-3.7-1.8l-3.7,1.8v14.5l-3.7,1.8v14.5l-3.7,1.8v14.5L91,76.2v14.5l-3.7,1.8
		v14.5l-3.7,1.8v14.5l-3.7,1.8v14.5l-3.7,1.9v14.4l-3.7,1.9v14.4l-3.7,1.9v14.4L72.7,190.1z"/>
	<path class="st1" d="M43.7,271.4v14.4l-3.7,1.9l-3.7-1.9v-14.4l-3.7-1.9l-3.7,1.9v14.4l3.7,1.9V302l3.7,1.9v14.4l3.7,1.9l3.7-1.9
		v-14.4l3.5-1.9v-14.4l3.7-1.9v-14.4l-3.7-1.9L43.7,271.4z"/>
	<path class="st1" d="M43.7,141.3v14.4l-3.7,1.9l-3.7-1.9v-14.4l-3.7-1.9l-3.7,1.9v14.4l3.7,1.9v14.4l3.7,1.9v14.4l3.7,1.9l3.7-1.9
		v-14.4l3.5-1.9v-14.4l3.7-1.9v-14.4l-3.7-1.9L43.7,141.3z"/>
	<path class="st1" d="M47.3,222.6l-3.5-1.9v-14.4l-3.7-1.9l-3.7,1.9v14.4l-3.7,1.9V237l-3.7,1.9v14.4l3.7,1.9l3.7-1.9v-14.4l3.7-1.9
		l3.7,1.9v14.4l3.5,1.9l3.7-1.9v-14.4l-3.7-1.9V222.6z"/>
	<path class="st1" d="M47.3,92.4l-3.5-1.8V76.2l-3.7-1.8l-3.7,1.8v14.5l-3.7,1.8v14.5l-3.7,1.8v0.1v14.4l3.7,1.9l3.7-1.9v-14.4v-0.1
		l3.7-1.8l3.7,1.8v0.1v14.4l3.5,1.9l3.7-1.9v-14.4v-0.1l-3.7-1.8V92.4z"/>
	<path class="st1" d="M32.6,0v9.2L29,11.1v14.4l3.7,1.9v14.4l3.7,1.9V58l3.7,1.9l3.7-1.9V43.7l3.7-1.9V27.4l3.7-1.9V11.1l-3.7-1.9V0
		H32.6z M43.7,25.6l-3.7,1.9l-3.7-1.9V11.3l3.7-1.9l3.7,1.9V25.6z"/>
	<path class="st1" d="M43.7,889.4v14.4l-3.7,1.9l-3.7-1.9v-14.4l-3.7-1.9l-3.7,1.9v14.4l3.7,1.9V920l3.7,1.9v14.4l3.7,1.9l3.7-1.9
		v-14.4l3.5-1.9v-14.4l3.7-1.9v-14.4l-3.7-1.9L43.7,889.4z"/>
	<path class="st1" d="M43.7,759.2v14.5l-3.7,1.8l-3.7-1.8v-14.5l-3.7-1.8l-3.7,1.8v14.5l3.7,1.8V790l3.7,1.8v14.5l3.7,1.9l3.7-1.9
		v-14.5l3.5-1.8v-14.5l3.7-1.8v-14.5l-3.7-1.8L43.7,759.2z"/>
	<path class="st1" d="M43.7,531.6V546l-3.7,1.9l-3.7-1.9v-14.4l-3.7-1.9l-3.7,1.9V546l3.7,1.9v14.4l3.7,1.9v14.4l3.7,1.9l3.7-1.9
		v-14.4l3.5-1.9v-14.4l3.7-1.9v-14.4l-3.7-1.9L43.7,531.6z"/>
	<path class="st1" d="M47.3,840.6l-3.5-1.9v-14.4l-3.7-1.9l-3.7,1.9v14.4l-3.7,1.9V855l-3.7,1.9v14.4l3.7,1.9l3.7-1.9v-14.4l3.7-1.9
		l3.7,1.9v14.4l3.5,1.9l3.7-1.9v-14.4l-3.7-1.9V840.6z"/>
	<path class="st1" d="M47.3,710.4l-3.5-1.8v-14.5l-3.7-1.9l-3.7,1.9v14.5l-3.7,1.8v14.5l-3.7,1.8v14.5l3.7,1.8l3.7-1.8v-14.5
		l3.7-1.8l3.7,1.8v14.5l3.5,1.8l3.7-1.8v-14.5l-3.7-1.8V710.4z"/>
	<path class="st1" d="M47.3,612.9l-3.7-1.9v-14.4l-3.7-1.9l-3.7,1.9V611l-3.7,1.9v14.4l-3.7,1.9v14.4l3.7,1.9v14.4l3.7,1.9V676
		l3.7,1.9l3.7-1.9v-14.4l3.7-1.9v-14.4l3.7-1.9v-14.4l-3.7-1.9V612.9z M43.7,643.5l-3.7,1.9l-3.7-1.9v-14.4l3.7-1.9l3.7,1.9V643.5z"
		/>
	<path class="st1" d="M47.3,482.9l-3.5-1.9v-14.4l-3.7-1.9l-3.7,1.9V481l-3.7,1.9v14.4l-3.7,1.9v14.4l3.7,1.9l3.7-1.9v-14.4l3.7-1.9
		l3.7,1.9v14.4l3.5,1.9l3.7-1.9v-14.4l-3.7-1.9V482.9z"/>
	<path class="st1" d="M32.8,385.2l3.7-1.8v-14.5l3.7-1.8l3.7,1.8v14.5l3.5,1.8l3.7-1.8v-14.5l-3.7-1.8v-14.5l-3.5-1.9v-14.4
		l-3.7-1.9l-3.7,1.9v14.4l-3.7,1.9v14.5l-3.7,1.8v14.5L32.8,385.2z"/>
	<path class="st1" d="M43.7,401.4v14.5l-3.7,1.8l-3.7-1.8v-14.5l-3.7-1.8l-3.7,1.8v14.5l3.7,1.8v14.5l3.7,1.8v14.5l3.7,1.8l3.7-1.8
		v-14.5l3.7-1.8v-14.5l3.5-1.8v-14.5l-3.5-1.8L43.7,401.4z"/>
	<path class="st1" d="M32.8,1003.2l3.7-1.9V987l3.7-1.9l3.7,1.9v14.4l3.5,1.9l3.7-1.9V987l-3.7-1.9v-14.4l-3.5-1.9v-14.4l-3.7-1.9
		l-3.7,1.9v14.4l-3.7,1.9v14.4l-3.7,1.9v14.4L32.8,1003.2z"/>
	<path class="st1" d="M43.7,1019.5v14.4l-3.7,1.9l-3.7-1.9v-14.4l-3.7-1.9l-3.7,1.9v14.4l3.7,1.9v14.4l3.7,1.9v14.5l3.7,1.8l3.7-1.8
		V1052l3.7-1.9v-14.4l3.5-1.9v-14.4l-3.5-1.9L43.7,1019.5z"/>
	<path class="st1" d="M203.7,271.4v14.4l-3.7,1.9l-3.7-1.9v-14.4l-3.7-1.9l-3.7,1.9v14.4l3.7,1.9V302l3.7,1.9v14.4l3.7,1.9l3.7-1.9
		v-14.4l3.7-1.9v-14.4l3.5-1.9v-14.4l-3.5-1.9L203.7,271.4z"/>
	<path class="st1" d="M203.7,141.3v14.4l-3.7,1.9l-3.7-1.9v-14.4l-3.7-1.9l-3.7,1.9v14.4l3.7,1.9v14.4l3.7,1.9v14.4l3.7,1.9l3.7-1.9
		v-14.4l3.7-1.9v-14.4l3.5-1.9v-14.4l-3.5-1.9L203.7,141.3z"/>
	<path class="st1" d="M207.4,222.6l-3.7-1.9v-14.4l-3.7-1.9l-3.7,1.9v14.4l-3.7,1.9V237l-3.7,1.9v14.4l3.7,1.9l3.7-1.9v-14.4
		l3.7-1.9l3.7,1.9v14.4l3.7,1.9l3.5-1.9v-14.4l-3.5-1.9V222.6z"/>
	<path class="st1" d="M207.4,92.4l-3.7-1.8V76.2l-3.7-1.8l-3.7,1.8v14.5l-3.7,1.8v14.5l-3.7,1.8v0.1v14.4l3.7,1.9l3.7-1.9v-14.4
		v-0.1l3.7-1.8l3.7,1.8v0.1v14.4l3.7,1.9l3.5-1.9v-14.4v-0.1l-3.5-1.8V92.4z"/>
	<path class="st1" d="M192.7,0v9.2l-3.7,1.9v14.4l3.7,1.9v14.4l3.7,1.9V58l3.7,1.9l3.7-1.9V43.7l3.7-1.9V27.4l3.7-1.9V11.1l-3.7-1.9
		V0H192.7z M203.7,25.6l-3.7,1.9l-3.7-1.9V11.3l3.7-1.9l3.7,1.9V25.6z"/>
	<path class="st1" d="M203.7,889.4v14.4l-3.7,1.9l-3.7-1.9v-14.4l-3.7-1.9l-3.7,1.9v14.4l3.7,1.9V920l3.7,1.9v14.4l3.7,1.9l3.7-1.9
		v-14.4l3.7-1.9v-14.4l3.5-1.9v-14.4l-3.5-1.9L203.7,889.4z"/>
	<path class="st1" d="M203.7,759.2v14.5l-3.7,1.8l-3.7-1.8v-14.5l-3.7-1.8l-3.7,1.8v14.5l3.7,1.8V790l3.7,1.8v14.5l3.7,1.9l3.7-1.9
		v-14.5l3.7-1.8v-14.5l3.5-1.8v-14.5l-3.5-1.8L203.7,759.2z"/>
	<path class="st1" d="M203.7,531.6V546l-3.7,1.9l-3.7-1.9v-14.4l-3.7-1.9l-3.7,1.9V546l3.7,1.9v14.4l3.7,1.9v14.4l3.7,1.9l3.7-1.9
		v-14.4l3.7-1.9v-14.4l3.5-1.9v-14.4l-3.5-1.9L203.7,531.6z"/>
	<path class="st1" d="M207.4,840.6l-3.7-1.9v-14.4l-3.7-1.9l-3.7,1.9v14.4l-3.7,1.9V855l-3.7,1.9v14.4l3.7,1.9l3.7-1.9v-14.4
		l3.7-1.9l3.7,1.9v14.4l3.7,1.9l3.5-1.9v-14.4l-3.5-1.9V840.6z"/>
	<path class="st1" d="M207.4,710.4l-3.7-1.8v-14.5l-3.7-1.9l-3.7,1.9v14.5l-3.7,1.8v14.5l-3.7,1.8v14.5l3.7,1.8l3.7-1.8v-14.5
		l3.7-1.8l3.7,1.8v14.5l3.7,1.8l3.5-1.8v-14.5l-3.5-1.8V710.4z"/>
	<path class="st1" d="M207.4,612.9l-3.7-1.9v-14.4l-3.7-1.9l-3.7,1.9V611l-3.7,1.9v14.4l-3.7,1.9v14.4l3.7,1.9v14.4l3.7,1.9V676
		l3.7,1.9l3.7-1.9v-14.4l3.7-1.9v-14.4l3.7-1.9v-14.4l-3.7-1.9V612.9z M203.7,643.5l-3.7,1.9l-3.7-1.9v-14.4l3.7-1.9l3.7,1.9V643.5z
		"/>
	<path class="st1" d="M207.4,482.9l-3.7-1.9v-14.4l-3.7-1.9l-3.7,1.9V481l-3.7,1.9v14.4l-3.7,1.9v14.4l3.7,1.9l3.7-1.9v-14.4
		l3.7-1.9l3.7,1.9v14.4l3.7,1.9l3.5-1.9v-14.4l-3.5-1.9V482.9z"/>
	<path class="st1" d="M192.7,385.2l3.7-1.8v-14.5l3.7-1.8l3.7,1.8v14.5l3.7,1.8l3.5-1.8v-14.5l-3.5-1.8v-14.5l-3.7-1.9v-14.4
		l-3.7-1.9l-3.7,1.9v14.4l-3.7,1.9v14.5l-3.7,1.8v14.5L192.7,385.2z"/>
	<path class="st1" d="M203.7,401.4v14.5l-3.7,1.8l-3.7-1.8v-14.5l-3.7-1.8l-3.7,1.8v14.5l3.7,1.8v14.5l3.7,1.8v14.5l3.7,1.8l3.7-1.8
		v-14.5l3.7-1.8v-14.5l3.5-1.8v-14.5l-3.5-1.8L203.7,401.4z"/>
	<path class="st1" d="M192.7,1003.2l3.7-1.9V987l3.7-1.9l3.7,1.9v14.4l3.7,1.9l3.5-1.9V987l-3.5-1.9v-14.4l-3.7-1.9v-14.4l-3.7-1.9
		l-3.7,1.9v14.4l-3.7,1.9v14.4l-3.7,1.9v14.4L192.7,1003.2z"/>
	<path class="st1" d="M203.7,1019.5v14.4l-3.7,1.9l-3.7-1.9v-14.4l-3.7-1.9l-3.7,1.9v14.4l3.7,1.9v14.4l3.7,1.9v14.5l3.7,1.8
		l3.7-1.8V1052l3.7-1.9v-14.4l3.5-1.9v-14.4l-3.5-1.9L203.7,1019.5z"/>
	<path class="st1" d="M149.1,759.2l-3.7-1.9V743l-3.7-1.9l-3.7,1.9l-3.7-1.9l-3.7,1.9l-3.7-1.9l-3.7,1.9l-3.7-1.9l-3.7,1.9l-3.7-1.9
		l-3.7,1.9l-3.7-1.9l-3.7,1.9l-3.7-1.9l-3.7,1.9v14.4l-3.7,1.9v14.4l-3.7,1.9v14.4l3.7,1.9v14.4L87,808v14.4l3.7,1.9v14.4l3.7,1.9
		l3.7-1.9l3.7,1.9v14.4l3.7,1.9l3.7-1.9l3.7,1.9l3.7-1.9l3.7,1.9l3.7-1.9l3.7,1.9l3.7-1.9l3.7,1.9l3.7-1.9v-14.4l3.7-1.9l3.7,1.9
		l3.7-1.9v-14.4l3.7-1.9V808l-3.7-1.9v-14.4l3.7-1.9v-14.4l-3.7-1.9V759.2z M123.7,840.4l-3.7-1.9l-3.7,1.9l-3.7-1.9v-14.4l-3.7-1.9
		V808l-3.7-1.9v-14.4l3.7-1.9v-14.4l-3.7-1.9v-14.4l3.7-1.9l3.7,1.9l3.7-1.9l3.7,1.9l3.7-1.9l3.7,1.9l3.7-1.9l3.7,1.9v14.4l-3.7,1.9
		v14.4l3.7,1.9v14.4L131,808v14.4l-3.7,1.9v14.4L123.7,840.4z"/>
	<path class="st1" d="M145.5,905.7l-3.7-1.9l-3.7,1.9l-3.7-1.9l-3.7,1.9V920l3.7,1.9v14.4l-3.7,1.9v14.4l3.7,1.9v14.4l-3.7,1.9
		l-3.7-1.9v-14.5l-3.7-1.9V938l-3.7-1.9v-14.4l-3.7-1.9l-3.7,1.9l-3.7-1.9v-14.4l-3.7-1.9l-3.7,1.9l-3.7-1.9l-3.7,1.9l-3.7-1.9
		l-3.7,1.9v14.4l3.7,1.9v14.4L87,938v14.4l3.7,1.9v14.4l-3.7,1.9v14.4l3.7,1.9v14.4l-3.7,1.9v14.4l3.7,1.9l3.7-1.9l3.7,1.9l3.7-1.9
		l3.7,1.9l3.7-1.9v-14.4l-3.7-1.9v-14.4l3.7-1.9v-14.4l-3.7-1.9v-14.4l-3.7-1.9V938l3.7-1.9l3.7,1.9v14.4l3.7,1.9v14.4l3.7,1.9v14.4
		l3.7,1.9l3.7-1.9l3.7,1.9v14.4l3.7,1.9v14.4l3.7,1.9l3.7-1.9l3.7,1.9l3.7-1.9l3.7,1.9l3.7-1.9v-14.4l-3.7-1.9v-14.4l3.7-1.9v-14.4
		l-3.7-1.9v-14.4l3.7-1.9V938l-3.7-1.9v-14.4l3.7-1.9v-14.4l-3.7-1.9L145.5,905.7z"/>
	<path class="st1" d="M123.7,580.4l-3.7-1.8l-3.5,1.8l-3.7-1.8l-3.7,1.8v14.5l3.7,1.8V611l-3.7,1.9v14.4l3.7,1.9v14.4l-3.7,1.8v14.5
		l3.7,1.8v14.4l-3.7,1.9v14.4l3.7,1.9l3.7-1.9l3.5,1.9l3.7-1.9l3.7,1.9l3.7-1.9v-14.4l-3.7-1.9v-14.4l3.7-1.8v-14.5l-3.7-1.8v-14.4
		l3.7-1.9v-14.4l-3.7-1.9v-14.4l3.7-1.8v-14.5l-3.7-1.8L123.7,580.4z"/>
	<path class="st1" d="M145.5,417.7l-3.7-1.9l-3.7,1.9l-3.7-1.9l-3.7,1.9v14.4l3.7,1.9v14.4l-3.7,1.9v14.4l3.7,1.9v14.4l-3.7,1.9
		l-3.7-1.9v-14.4l-3.7-1.9v-14.4l-3.7-1.9v-14.4l-3.7-1.9l-3.7,1.9l-3.7-1.9v-14.4l-3.7-1.9l-3.7,1.9l-3.7-1.9l-3.7,1.9l-3.7-1.9
		l-3.7,1.9v14.4l3.7,1.9v14.4l-3.7,1.9v14.4l3.7,1.9v14.4l-3.7,1.9v14.4l3.7,1.9v14.4l-3.7,1.9v14.4l3.7,1.9l3.7-1.9l3.7,1.9
		l3.7-1.9l3.7,1.9l3.7-1.9v-14.4l-3.7-1.9V499l3.7-1.9v-14.4l-3.7-1.9v-14.4l-3.7-1.9v-14.4l3.7-1.9l3.7,1.9v14.4l3.7,1.9v14.4
		l3.7,1.9v14.4l3.7,1.9l3.7-1.9l3.7,1.9v14.4l3.7,1.9v14.4l3.7,1.9l3.7-1.9l3.7,1.9l3.7-1.9l3.7,1.9l3.7-1.9v-14.4l-3.7-1.9V499
		l3.7-1.9v-14.4l-3.7-1.9v-14.4l3.7-1.9v-14.4l-3.7-1.9v-14.4l3.7-1.9v-14.4l-3.7-1.9L145.5,417.7z"/>
	<path class="st1" d="M145.5,255.1l-1.2-0.5l-2.4-1.2l-3.7,1.8l-3.7-1.8l-3.5,1.8v14.4l3.5,1.9v14.4l-3.5,1.9V302l3.5,1.8v14.5
		L131,320v14.4l-3.7,1.9v14.4l-3.7,1.9l-3.7-1.9l-3.5,1.9l-3.7-1.9v-14.4l-3.7-1.9V320l-3.7-1.8v-14.5l3.7-1.8v-14.4l-3.7-1.9v-14.4
		l3.7-1.9v-14.4l-3.7-1.8l-3.7,1.8l-3.5-1.8l-3.7,1.8l-3.7-1.8l-3.7,1.8v14.4l3.7,1.9v14.4l-3.7,1.9V302l3.7,1.8v14.5l3.7,1.8v14.4
		l-3.7,1.9v14.4l3.7,1.9l3.7-1.9l3.5,1.9v14.4l3.7,1.8l3.7-1.8l3.7,1.8l3.7-1.8l3.5,1.8l3.7-1.8l3.7,1.8l3.7-1.8l3.5,1.8l3.7-1.8
		v-14.4l3.7-1.9l3.7,1.9l3.7-1.9v-14.4l-3.7-1.9V320l3.7-1.8v-14.5l3.5-1.8v-14.4l-3.5-1.9v-14.4l3.5-1.9v-14.4l-3.5-1.8
		L145.5,255.1z"/>
</g>
</svg>
