<svg width="787" height="580" viewBox="0 0 787 580" fill="none" xmlns="http://www.w3.org/2000/svg">
<g opacity="0.2">
<path d="M35.3028 276.345C33.0963 275.793 32.5447 274.689 33.0963 271.928C33.6479 270.272 34.1995 267.512 36.406 262.543L34.7512 259.783C31.9931 258.127 29.7867 257.575 27.5803 256.471C21.5126 254.814 16.5482 257.023 14.8934 262.543C14.3418 265.303 14.8934 268.064 16.5482 271.376L19.8578 272.48C18.203 269.168 18.203 266.408 18.7546 264.199C19.8578 260.335 23.1674 258.679 27.5803 259.783C29.2351 260.335 30.8899 260.887 32.5447 261.991C30.8899 266.408 29.7867 268.616 29.2351 271.376C28.1319 275.793 29.7867 278.553 34.7512 279.657C37.5092 280.209 43.5768 281.313 51.2993 281.865V277.449C43.5768 277.449 37.5092 276.897 35.3028 276.345Z" fill="#E28C50"/>
<path d="M39.7156 248.191L0.551605 234.941L0 238.806L39.164 252.055L39.7156 248.191Z" fill="#E28C50"/>
<path d="M190.856 531.949L188.649 528.085L184.236 531.397L187.546 534.71L190.856 531.949Z" fill="#E28C50"/>
<path d="M193.062 532.501L195.82 535.813L199.681 533.053L196.923 529.188L193.062 532.501Z" fill="#E28C50"/>
<path d="M197.475 556.239C194.166 555.687 191.408 554.583 189.753 554.031C189.753 553.478 190.305 552.926 190.305 552.926L193.614 541.885H189.753L186.995 550.718C186.443 552.374 184.789 553.478 180.927 552.926C175.963 551.822 140.66 544.093 124.112 503.241C106.461 459.628 108.115 418.775 127.422 381.787C127.422 381.787 158.863 327.685 172.653 283.52C184.237 245.98 188.098 200.711 155.553 169.244C151.692 165.931 147.831 162.619 142.867 159.307C133.489 153.786 123.009 151.026 112.528 153.234C95.4285 156.546 72.2611 172.004 48.5421 218.377C46.8873 221.138 45.2325 222.794 40.8196 222.242L24.2715 221.138L24.8231 225.002L39.1648 226.658C40.8196 226.658 42.4744 226.658 44.1293 226.658C43.5777 229.418 43.0261 231.627 41.9228 233.835C40.8196 236.595 39.7164 238.803 37.51 242.116L40.8196 243.22C42.4744 241.012 44.1293 238.251 45.2325 235.491C46.3357 232.179 47.4389 228.866 47.4389 225.002C48.5421 224.45 49.0937 223.898 49.6453 222.794C49.6453 222.794 67.8483 181.389 94.8769 164.827C94.8769 164.827 121.906 143.297 152.244 173.108C182.582 202.919 179.824 243.772 168.24 281.864C156.657 319.956 129.076 369.09 125.767 375.715C121.906 382.339 95.4285 423.744 112.528 486.679C128.525 546.854 164.379 567.832 174.86 572.801C175.963 573.353 177.618 573.905 179.272 573.905C182.582 573.905 184.789 573.353 186.443 571.696L187.547 574.457C189.201 575.561 190.856 576.113 194.717 576.665C195.269 576.665 195.269 576.665 195.269 576.113L198.027 557.343C198.027 556.791 197.475 556.239 197.475 556.239Z" fill="#E28C50"/>
<path d="M362.404 34.5432C358.542 35.0953 355.233 34.5432 353.026 32.335C350.268 29.5747 350.268 25.1582 353.026 22.3979C354.13 21.2937 355.784 19.6376 358.542 18.5334L356.336 16.3252C353.578 17.9814 351.923 19.0855 350.268 20.1896C345.856 24.6061 345.856 30.6788 350.268 35.0953C352.475 37.3035 355.784 38.4076 359.094 38.4076C357.439 40.0638 356.888 41.168 355.233 42.8241C352.475 45.5844 350.82 46.1365 346.407 45.0324L332.065 41.168V45.0324L345.304 48.8968C346.959 49.4489 348.614 49.4489 350.268 49.4489C349.717 51.6571 348.614 53.8654 346.959 56.0736C345.304 58.2819 343.649 60.4901 341.443 63.2504L349.165 69.3231C351.372 67.6669 354.13 65.4586 356.336 63.2504C359.094 59.938 360.197 58.8339 360.749 54.9695C361.852 54.4174 366.265 51.6571 368.471 50.0009C373.436 46.1365 377.849 40.0638 378.952 37.3035L370.126 25.7102C367.368 29.0226 365.162 31.7829 362.404 34.5432Z" fill="#E28C50"/>
<path d="M345.304 16.8768L344.753 11.9082H340.34V16.8768H345.304Z" fill="#E28C50"/>
<path d="M401.568 14.1165V13.0124C398.81 3.62736 393.846 -1.3412 388.329 0.314988C383.917 1.41911 381.159 8.04385 382.262 13.5645C382.262 14.1165 387.778 30.6784 388.329 31.7825C391.087 36.199 397.155 36.751 404.326 35.0949C404.326 39.5113 401.568 44.4799 391.639 48.3443L394.397 51.6567C405.429 47.2402 407.636 40.0634 407.636 34.5428L410.394 33.4387C441.284 27.366 472.725 57.1773 490.376 111.279C501.96 147.715 507.476 200.713 501.408 241.014C501.408 242.118 500.857 243.774 500.857 244.878C496.444 271.377 494.238 285.179 489.273 307.261C487.067 317.75 483.205 334.312 477.689 369.644C460.59 476.744 496.444 515.388 499.754 518.701L503.063 522.565C503.063 522.565 509.683 533.606 516.853 534.71C517.405 539.679 519.611 543.543 524.024 546.856C524.576 546.856 524.576 546.856 525.127 546.856L532.298 538.575V538.023C528.989 535.262 527.334 533.054 526.231 529.742C526.782 529.742 527.885 530.294 528.437 530.294L531.747 528.086C526.782 519.253 527.334 511.524 522.369 508.211C520.715 507.107 519.06 506.555 516.853 506.003L514.095 508.211C516.853 509.316 517.957 509.868 519.611 510.972C523.473 513.732 522.921 518.149 526.782 526.429C519.06 524.773 514.095 524.221 509.683 520.909L503.615 516.492C487.618 499.378 476.586 464.047 477.689 420.986C478.241 381.789 489.273 339.281 503.063 287.387C530.092 182.495 514.095 122.873 514.095 122.873C478.793 -12.9345 401.568 14.1165 401.568 14.1165ZM385.02 13.0124C383.917 9.70003 385.571 5.28354 388.329 4.73148C392.191 3.62736 396.052 8.04385 397.707 15.2206V15.7727C390.536 16.8768 386.123 15.7727 385.02 13.0124Z" fill="#E28C50"/>
<path d="M548.296 539.679C547.192 541.888 546.089 542.44 543.331 541.336L538.918 539.679C538.367 539.679 538.367 539.679 538.367 540.232L533.402 553.481C533.402 554.033 533.402 554.033 533.954 554.033L537.264 555.137C542.78 557.345 546.089 555.689 548.296 551.273C548.296 551.273 552.157 540.232 552.709 539.679C553.812 536.919 554.363 531.399 555.467 525.878H551.605C549.951 532.503 548.847 538.023 548.296 539.679Z" fill="#E28C50"/>
<path d="M552.156 515.389L554.363 519.805L558.776 517.597L556.569 513.181L552.156 515.389Z" fill="#E28C50"/>
<path d="M589.666 519.253L586.908 515.94L583.047 518.701L586.357 522.565L589.666 519.253Z" fill="#E28C50"/>
<path d="M598.491 519.805L595.733 516.492L591.872 519.252L595.182 523.117L598.491 519.805Z" fill="#E28C50"/>
<path d="M741.356 83.6763C738.598 83.6763 737.495 82.5722 736.944 79.8119L731.979 47.2402L728.118 48.8964L733.082 80.916C733.082 82.5722 733.634 83.6763 734.186 84.7804C732.531 85.8845 730.324 86.4366 728.67 86.4366C728.118 86.4366 694.47 90.301 669.648 141.091C660.822 159.309 657.512 177.527 656.409 193.536C654.754 218.931 659.719 239.91 663.58 251.503C669.096 269.721 689.506 334.864 698.331 372.404C708.26 419.33 708.26 456.318 707.157 471.223C704.95 502.691 695.022 559.001 597.388 552.928H596.836C594.078 552.376 592.975 551.824 592.423 549.616C592.423 549.064 592.423 548.512 592.423 547.96L594.63 529.19L590.768 529.742V532.502C581.943 534.71 576.427 538.575 575.875 544.095C575.875 544.648 572.014 565.074 572.014 565.626C572.565 570.042 576.978 573.355 584.149 574.459L586.355 572.803C587.459 575.563 589.665 577.219 593.526 577.771H594.078C610.626 580.531 629.932 580.531 651.996 575.563C761.214 550.168 715.431 412.153 688.954 322.167C681.783 296.772 673.509 269.721 669.648 257.576C665.787 245.982 648.687 196.297 672.957 142.747C672.957 142.747 692.815 96.9258 729.773 90.301C731.979 89.749 734.737 88.6448 736.392 87.5407C738.047 88.6448 740.253 88.6448 743.011 88.6448L749.079 88.0928C756.25 88.6448 761.766 85.3325 771.143 82.5722L772.798 78.7077C763.972 73.7392 760.111 67.1144 754.595 66.5624C752.389 66.5624 750.734 66.5624 748.527 67.6665L747.424 70.9789C750.182 70.4268 751.285 69.8748 753.492 70.4268C757.905 70.9789 760.111 74.8433 767.833 79.8119C760.663 82.5722 755.698 84.2283 750.182 83.6763C746.872 83.1242 741.356 83.6763 741.356 83.6763ZM588.562 547.408C588.562 548.512 588.562 549.616 588.562 550.168C581.391 549.064 578.081 546.856 578.633 543.543C579.185 540.231 583.046 537.471 590.217 535.262L588.562 547.408Z" fill="#E28C50"/>
<path d="M785.486 73.7393L781.624 75.3954C782.728 85.3325 782.728 89.197 781.624 91.4052C779.97 96.9258 773.35 100.238 765.628 98.582L766.179 102.999C775.005 104.103 782.728 99.6861 784.934 92.5093C786.037 89.197 787.14 84.7805 785.486 73.7393Z" fill="#E28C50"/>
<path d="M322.69 237.149C309.451 175.87 330.412 112.935 333.17 104.654C333.17 104.102 333.17 104.102 333.17 104.102V103.55C333.722 101.894 333.17 100.238 332.619 98.5817C335.377 95.2693 338.686 89.7487 340.341 84.7802L339.238 81.4678C336.48 79.8116 330.412 77.0513 328.757 76.4993C322.69 74.291 317.725 75.9472 316.07 80.3637C314.967 83.676 316.622 88.0925 321.035 92.509L323.793 95.2693C325.999 97.4776 327.102 99.1338 325.448 102.446C308.9 166.485 314.967 209.546 314.967 209.546C316.622 236.597 321.586 253.711 327.654 279.106C327.654 279.106 327.654 279.106 327.654 279.658C332.067 301.188 339.238 332.104 341.444 357.498C349.718 465.15 301.177 515.94 301.177 515.94C282.422 538.575 262.565 547.408 254.842 550.168C252.084 551.272 250.429 551.272 248.775 551.272C247.12 551.272 245.465 551.272 243.81 551.272C243.81 550.72 243.81 550.168 243.81 549.616V538.023L239.949 539.679V549.616C239.949 551.824 238.294 553.48 234.984 554.032C233.33 554.584 231.123 554.032 229.468 554.032C229.468 553.48 229.468 552.928 229.468 552.376V542.991L226.159 544.095V551.824C226.159 554.032 224.504 555.688 220.643 556.241C217.885 556.793 215.678 556.793 214.023 556.241C214.023 555.688 214.023 555.136 214.023 554.584V546.855L210.162 548.512V554.584C210.162 556.793 208.507 558.449 204.095 559.001C203.543 559.001 203.543 559.553 203.543 559.553L206.301 577.219C206.301 577.771 206.853 577.771 206.853 577.771C211.265 577.219 214.575 575.563 215.678 573.354L217.885 577.219C219.54 577.771 221.194 577.771 223.952 577.219C227.814 576.667 230.572 575.563 231.675 572.802L234.433 576.115C236.088 576.667 237.742 576.667 239.397 576.115C243.259 575.563 245.465 571.146 246.568 568.938L248.775 572.802C250.429 573.354 252.636 573.354 254.842 572.802C328.757 546.303 352.476 483.368 355.786 409.944C358.544 352.53 337.031 289.595 333.17 279.106C328.206 261.992 322.69 237.149 322.69 237.149ZM323.241 89.7487C319.932 86.4364 318.828 84.2281 319.38 82.0199C320.483 78.7075 323.793 78.1554 328.757 79.8116C330.412 80.3637 331.515 80.9157 333.17 82.0199C331.515 85.8843 329.86 89.7487 327.102 93.0611L326.551 92.509L323.241 89.7487Z" fill="#E28C50"/>
</g>
</svg>
