<svg width="24" height="25" viewBox="0 0 24 25" fill="none" xmlns="http://www.w3.org/2000/svg">
<path d="M23.9954 8.28118C24.0404 6.68373 23.5157 5.13159 22.5363 3.96537C21.557 2.79914 20.2031 2.1141 18.7716 2.06055H5.22445C3.79302 2.1141 2.43909 2.79914 1.45976 3.96537C0.480436 5.13159 -0.0442928 6.68373 0.000721375 8.28118V15.8399C-0.0442928 17.4374 0.480436 18.9895 1.45976 20.1557C2.43909 21.3219 3.79302 22.007 5.22445 22.0605H18.7716C20.2031 22.007 21.557 21.3219 22.5363 20.1557C23.5157 18.9895 24.0404 17.4374 23.9954 15.8399V8.28118ZM15.4477 12.443L10.045 15.9722C9.81034 16.1234 9.59826 15.9209 9.59826 15.6032V8.35768C9.59826 8.03553 9.81598 7.83216 10.0514 7.99323L15.4929 11.7123C15.5456 11.7557 15.5875 11.8133 15.6149 11.8797C15.6423 11.9461 15.6542 12.0191 15.6496 12.092C15.6449 12.1649 15.6238 12.2353 15.5882 12.2966C15.5527 12.358 15.5038 12.4083 15.4461 12.443H15.4477Z" fill="white"/>
</svg>
