<svg width="898" height="533" viewBox="0 0 898 533" fill="none" xmlns="http://www.w3.org/2000/svg">
<g opacity="0.2">
<path d="M732.3 418.166C732.3 418.166 731.9 415.766 734 415.466C733 415.066 733 415.066 733 415.066C733 415.066 732.9 413.066 735.8 413.666C736.2 410.866 738.9 407.766 740.5 406.166C742.1 404.566 741.4 401.966 742.8 400.766C744.1 399.966 744.2 400.666 746.7 400.066C749.1 399.466 755.8 403.166 757.4 403.166C759 403.166 765.5 402.766 769.9 405.166C771.2 405.566 772.7 405.566 772 406.866C771.3 408.266 772.1 410.366 768.9 415.266C765.7 420.166 765.4 422.766 764.1 424.566C762.8 426.366 761.9 426.666 758.9 426.566C755.8 426.466 754.7 429.566 751 429.666C748.7 429.866 748.5 429.266 748.5 429.266C748.5 429.266 746.6 429.566 745.3 428.866C743.3 428.766 741.7 427.166 741.7 427.166C741.7 427.166 739.5 427.566 739.5 426.266C739.5 424.866 739.5 424.866 739.5 424.866C739.5 424.866 737.2 424.766 736.8 424.466C734.9 424.866 733.2 423.266 732.3 421.566C725.5 421.366 720 420.466 714.6 415.566C710.5 410.866 709.5 410.466 706.3 409.666C705.5 408.666 705.5 408.666 705.5 408.666L707.4 409.066C707.4 409.066 708 407.166 710.4 410.366C712 408.666 713.5 409.166 714.8 413.566C719.4 416.966 722.2 418.666 732.3 418.166Z" fill="#F2E9E4"/>
<path d="M701.499 447.767C701.499 447.767 701.099 445.367 703.199 445.067C702.199 444.667 702.199 444.667 702.199 444.667C702.199 444.667 702.099 442.667 704.999 443.267C705.399 440.467 708.099 437.367 709.699 435.767C711.299 434.167 710.599 431.567 711.999 430.367C713.299 429.567 713.399 430.267 715.899 429.667C718.299 429.067 724.999 432.767 726.599 432.767C728.199 432.767 734.699 432.367 739.099 434.767C740.399 435.167 741.899 435.167 741.199 436.467C740.499 437.867 741.299 439.967 738.099 444.867C734.899 449.767 734.599 452.367 733.299 454.167C731.999 455.967 731.099 456.267 728.099 456.167C724.999 456.067 723.899 459.167 720.199 459.267C717.899 459.467 717.699 458.867 717.699 458.867C717.699 458.867 715.799 459.167 714.499 458.467C712.499 458.367 710.899 456.767 710.899 456.767C710.899 456.767 708.699 457.167 708.699 455.867C708.699 454.467 708.699 454.467 708.699 454.467C708.699 454.467 706.399 454.367 705.999 454.067C704.099 454.467 702.399 452.867 701.499 451.167C694.699 450.967 689.199 450.067 683.799 445.167C679.699 440.467 678.699 440.067 675.499 439.267C674.699 438.267 674.699 438.267 674.699 438.267L676.599 438.667C676.599 438.667 677.199 436.767 679.599 439.967C681.199 438.267 682.699 438.767 683.999 443.167C688.599 446.467 691.399 448.167 701.499 447.767Z" fill="#F2E9E4"/>
<path d="M771.601 444.967C771.601 444.967 771.201 442.567 773.301 442.267C772.301 441.867 772.301 441.867 772.301 441.867C772.301 441.867 772.201 439.867 775.101 440.467C775.501 437.667 778.201 434.567 779.801 432.967C781.401 431.367 780.701 428.767 782.101 427.567C783.401 426.767 783.501 427.467 786.001 426.867C788.401 426.267 795.101 429.967 796.701 429.967C798.301 429.967 804.801 429.567 809.201 431.967C810.501 432.367 812.001 432.367 811.301 433.667C810.601 434.967 811.401 437.167 808.201 442.067C805.001 446.967 804.701 449.567 803.401 451.367C802.101 453.167 801.201 453.467 798.201 453.367C795.101 453.267 794.001 456.367 790.301 456.467C788.001 456.667 787.801 456.067 787.801 456.067C787.801 456.067 785.901 456.367 784.601 455.667C782.601 455.567 781.001 453.967 781.001 453.967C781.001 453.967 778.801 454.367 778.801 453.067C778.801 451.667 778.801 451.667 778.801 451.667C778.801 451.667 776.501 451.567 776.101 451.267C774.201 451.667 772.501 450.067 771.601 448.367C764.801 448.167 759.301 447.267 753.901 442.367C749.801 437.667 748.801 437.267 745.601 436.467C744.801 435.467 744.801 435.467 744.801 435.467L746.701 435.867C746.701 435.867 747.301 433.967 749.701 437.167C751.301 435.467 752.801 435.967 754.101 440.367C758.701 443.667 761.501 445.367 771.601 444.967Z" fill="#F2E9E4"/>
<path d="M788.499 400.666C788.499 400.666 788.099 398.266 790.199 397.966C789.199 397.566 789.199 397.566 789.199 397.566C789.199 397.566 789.099 395.566 791.999 396.166C792.399 393.366 795.099 390.266 796.699 388.666C798.299 387.066 797.599 384.466 798.999 383.266C800.299 382.466 800.399 383.166 802.899 382.566C805.399 381.966 811.999 385.666 813.599 385.666C815.199 385.666 821.699 385.266 826.099 387.666C827.399 388.066 828.899 388.066 828.199 389.366C827.499 390.766 828.299 392.866 825.099 397.766C821.899 402.666 821.599 405.266 820.299 407.066C818.999 408.866 818.099 409.166 815.099 409.066C811.999 408.966 810.899 412.066 807.199 412.166C804.899 412.366 804.699 411.766 804.699 411.766C804.699 411.766 802.799 412.066 801.499 411.366C799.499 411.266 797.899 409.666 797.899 409.666C797.899 409.666 795.699 410.066 795.699 408.766C795.699 407.366 795.699 407.366 795.699 407.366C795.699 407.366 793.399 407.266 792.999 406.966C791.099 407.366 789.399 405.766 788.499 404.066C781.699 403.866 776.199 402.966 770.799 398.066C766.699 393.366 765.699 392.966 762.499 392.166C761.699 391.166 761.699 391.166 761.699 391.166L763.599 391.566C763.599 391.566 764.199 389.666 766.599 392.866C768.199 391.166 769.699 391.666 770.999 396.066C775.599 399.466 778.399 401.166 788.499 400.666Z" fill="#F2E9E4"/>
<path d="M832.101 427.467C832.101 427.467 831.701 425.067 833.801 424.767C832.801 424.367 832.801 424.367 832.801 424.367C832.801 424.367 832.701 422.367 835.601 422.967C836.001 420.167 838.701 417.067 840.301 415.467C841.901 413.867 841.201 411.267 842.601 410.067C843.901 409.267 844.001 409.967 846.501 409.367C848.901 408.767 855.601 412.467 857.201 412.467C858.801 412.467 865.301 412.067 869.701 414.467C871.001 414.867 872.501 414.867 871.801 416.167C871.101 417.567 871.901 419.667 868.701 424.567C865.501 429.467 865.201 432.067 863.901 433.867C862.601 435.667 861.701 435.967 858.701 435.867C855.601 435.767 854.501 438.867 850.801 438.967C848.501 439.167 848.301 438.567 848.301 438.567C848.301 438.567 846.401 438.867 845.101 438.167C843.101 438.067 841.501 436.467 841.501 436.467C841.501 436.467 839.301 436.867 839.301 435.567C839.301 434.167 839.301 434.167 839.301 434.167C839.301 434.167 837.001 434.067 836.601 433.767C834.701 434.167 833.001 432.567 832.101 430.867C825.301 430.667 819.801 429.767 814.401 424.867C810.301 420.167 809.301 419.767 806.101 418.967C805.301 417.967 805.301 417.967 805.301 417.967L807.201 418.367C807.201 418.367 807.801 416.467 810.201 419.667C811.801 417.967 813.301 418.467 814.601 422.867C819.201 426.167 822.001 427.867 832.101 427.467Z" fill="#F2E9E4"/>
<path d="M742.2 477.166C742.2 477.166 741.8 474.766 743.9 474.466C742.9 474.066 742.9 474.066 742.9 474.066C742.9 474.066 742.8 472.066 745.7 472.666C746.1 469.866 748.8 466.766 750.4 465.166C752 463.566 751.3 460.966 752.7 459.766C754 458.966 754.1 459.666 756.6 459.066C759.1 458.466 765.7 462.166 767.3 462.166C768.9 462.166 775.4 461.766 779.8 464.166C781.1 464.566 782.6 464.566 781.9 465.866C781.2 467.266 782 469.366 778.8 474.266C775.6 479.166 775.3 481.766 774 483.566C772.7 485.366 771.8 485.666 768.8 485.566C765.7 485.466 764.6 488.566 760.9 488.666C758.6 488.866 758.4 488.266 758.4 488.266C758.4 488.266 756.5 488.566 755.2 487.866C753.2 487.766 751.6 486.166 751.6 486.166C751.6 486.166 749.4 486.566 749.4 485.266C749.4 483.866 749.4 483.866 749.4 483.866C749.4 483.866 747.1 483.766 746.7 483.466C744.8 483.866 743.1 482.266 742.2 480.566C735.4 480.366 729.9 479.466 724.5 474.566C720.4 469.866 719.4 469.466 716.2 468.666C715.4 467.666 715.4 467.666 715.4 467.666L717.3 468.066C717.3 468.066 717.9 466.166 720.3 469.366C721.9 467.666 723.4 468.166 724.7 472.566C729.3 475.866 732.1 477.566 742.2 477.166Z" fill="#F2E9E4"/>
<path d="M817.601 470.865C817.601 470.865 817.201 468.465 819.301 468.165C818.301 467.765 818.301 467.765 818.301 467.765C818.301 467.765 818.201 465.765 821.101 466.365C821.501 463.565 824.201 460.465 825.801 458.865C827.401 457.265 826.701 454.665 828.101 453.465C829.401 452.665 829.501 453.365 832.001 452.765C834.501 452.165 841.101 455.865 842.701 455.865C844.301 455.865 850.801 455.465 855.201 457.865C856.501 458.265 858.001 458.265 857.301 459.565C856.601 460.965 857.401 463.065 854.201 467.965C851.001 472.865 850.701 475.465 849.401 477.265C848.101 479.065 847.201 479.365 844.201 479.265C841.101 479.165 840.001 482.265 836.301 482.365C834.001 482.565 833.801 481.965 833.801 481.965C833.801 481.965 831.901 482.265 830.601 481.565C828.601 481.465 827.001 479.865 827.001 479.865C827.001 479.865 824.801 480.265 824.801 478.965C824.801 477.565 824.801 477.565 824.801 477.565C824.801 477.565 822.501 477.465 822.101 477.165C820.201 477.565 818.501 475.965 817.601 474.265C810.801 474.065 805.301 473.165 799.901 468.265C795.801 463.565 794.801 463.165 791.601 462.365C790.801 461.365 790.801 461.365 790.801 461.365L792.701 461.765C792.701 461.765 793.301 459.865 795.701 463.065C797.301 461.365 798.801 461.865 800.101 466.265C804.701 469.565 807.501 471.265 817.601 470.865Z" fill="#F2E9E4"/>
<path d="M855.3 378.467C855.3 378.467 854.9 376.067 857 375.767C856 375.367 856 375.367 856 375.367C856 375.367 855.9 373.367 858.8 373.967C859.2 371.167 861.9 368.067 863.5 366.467C865.1 364.867 864.4 362.267 865.8 361.067C867.1 360.267 867.2 360.967 869.7 360.367C872.1 359.767 878.8 363.467 880.4 363.467C882 363.467 888.5 363.067 892.9 365.467C894.2 365.867 895.7 365.867 895 367.167C894.3 368.467 895.1 370.667 891.9 375.567C888.7 380.467 888.4 383.067 887.1 384.867C885.8 386.667 884.9 386.967 881.9 386.867C878.9 386.767 877.7 389.867 874 389.967C871.7 390.167 871.5 389.567 871.5 389.567C871.5 389.567 869.6 389.867 868.3 389.167C866.3 389.067 864.7 387.467 864.7 387.467C864.7 387.467 862.5 387.867 862.5 386.567C862.5 385.167 862.5 385.167 862.5 385.167C862.5 385.167 860.2 385.067 859.8 384.767C857.9 385.167 856.2 383.567 855.3 381.867C848.5 381.667 843 380.767 837.6 375.867C833.5 371.167 832.5 370.767 829.3 369.967C828.5 368.967 828.5 368.967 828.5 368.967L830.4 369.367C830.4 369.367 831 367.467 833.4 370.667C835 368.967 836.5 369.467 837.8 373.867C842.4 377.267 845.2 378.967 855.3 378.467Z" fill="#F2E9E4"/>
<path d="M726.999 371.066C726.999 371.066 726.599 368.666 728.699 368.366C727.699 367.966 727.699 367.966 727.699 367.966C727.699 367.966 727.599 365.966 730.499 366.566C730.899 363.766 733.599 360.666 735.199 359.066C736.799 357.466 736.099 354.866 737.499 353.666C738.799 352.866 738.899 353.566 741.399 352.966C743.799 352.366 750.499 356.066 752.099 356.066C753.699 356.066 760.199 355.666 764.599 358.066C765.899 358.466 767.399 358.466 766.699 359.766C765.999 361.066 766.799 363.266 763.599 368.166C760.399 373.066 760.099 375.666 758.799 377.466C757.499 379.266 756.599 379.566 753.599 379.466C750.599 379.366 749.399 382.466 745.699 382.566C743.399 382.766 743.199 382.166 743.199 382.166C743.199 382.166 741.299 382.466 739.999 381.766C737.999 381.666 736.399 380.066 736.399 380.066C736.399 380.066 734.199 380.466 734.199 379.166C734.199 377.766 734.199 377.766 734.199 377.766C734.199 377.766 731.899 377.666 731.499 377.366C729.599 377.766 727.899 376.166 726.999 374.466C720.199 374.266 714.699 373.366 709.299 368.466C705.199 363.766 704.199 363.366 700.999 362.566C700.199 361.566 700.199 361.566 700.199 361.566L702.099 361.966C702.099 361.966 702.699 360.066 705.099 363.266C706.699 361.566 708.199 362.066 709.499 366.466C714.099 369.866 716.899 371.566 726.999 371.066Z" fill="#F2E9E4"/>
<path d="M649.8 395.865C649.8 395.865 649.4 393.465 651.5 393.165C650.5 392.765 650.5 392.765 650.5 392.765C650.5 392.765 650.4 390.765 653.3 391.365C653.7 388.565 656.4 385.465 658 383.865C659.6 382.265 658.9 379.665 660.3 378.465C661.6 377.665 661.7 378.365 664.2 377.765C666.6 377.165 673.3 380.865 674.9 380.865C676.5 380.865 683 380.465 687.4 382.865C688.7 383.265 690.2 383.265 689.5 384.565C688.8 385.965 689.6 388.065 686.4 392.965C683.2 397.865 682.9 400.465 681.6 402.265C680.3 404.065 679.4 404.365 676.4 404.265C673.3 404.165 672.2 407.265 668.5 407.365C666.2 407.565 666 406.965 666 406.965C666 406.965 664.1 407.265 662.8 406.565C660.8 406.465 659.2 404.865 659.2 404.865C659.2 404.865 657 405.265 657 403.965C657 402.565 657 402.565 657 402.565C657 402.565 654.7 402.465 654.3 402.165C652.4 402.565 650.7 400.965 649.8 399.265C643 399.065 637.5 398.165 632.1 393.265C628 388.565 627 388.165 623.8 387.365C623 386.365 623 386.365 623 386.365L624.9 386.765C624.9 386.765 625.5 384.865 627.9 388.065C629.5 386.365 631 386.865 632.3 391.265C637 394.665 639.7 396.365 649.8 395.865Z" fill="#F2E9E4"/>
<path d="M668.101 502.566C668.101 502.566 667.701 500.166 669.801 499.866C668.801 499.466 668.801 499.466 668.801 499.466C668.801 499.466 668.701 497.466 671.601 498.066C672.001 495.266 674.701 492.166 676.301 490.566C677.901 488.966 677.201 486.366 678.601 485.166C679.901 484.366 680.001 485.066 682.501 484.466C685.001 483.866 691.601 487.566 693.201 487.566C694.801 487.566 701.301 487.166 705.701 489.566C707.001 489.966 708.501 489.966 707.801 491.266C707.101 492.666 707.901 494.766 704.701 499.666C701.501 504.566 701.201 507.166 699.901 508.966C698.601 510.766 697.701 511.066 694.701 510.966C691.601 510.866 690.501 513.966 686.801 514.066C684.501 514.266 684.301 513.666 684.301 513.666C684.301 513.666 682.401 513.966 681.101 513.266C679.101 513.166 677.501 511.566 677.501 511.566C677.501 511.566 675.301 511.966 675.301 510.666C675.301 509.266 675.301 509.266 675.301 509.266C675.301 509.266 673.001 509.166 672.601 508.866C670.701 509.266 669.001 507.666 668.101 505.966C661.301 505.766 655.801 504.866 650.401 499.966C646.301 495.266 645.301 494.866 642.101 494.066C641.301 493.066 641.301 493.066 641.301 493.066L643.201 493.466C643.201 493.466 643.801 491.566 646.201 494.766C647.801 493.066 649.301 493.566 650.601 497.966C655.201 501.266 658.001 502.966 668.101 502.566Z" fill="#F2E9E4"/>
<path d="M771.601 521.267C771.601 521.267 771.201 518.867 773.301 518.567C772.301 518.167 772.301 518.167 772.301 518.167C772.301 518.167 772.201 516.167 775.101 516.767C775.501 513.967 778.201 510.867 779.801 509.267C781.401 507.667 780.701 505.067 782.101 503.867C783.401 503.067 783.501 503.767 786.001 503.167C788.401 502.567 795.101 506.267 796.701 506.267C798.301 506.267 804.801 505.867 809.201 508.267C810.501 508.667 812.001 508.667 811.301 509.967C810.601 511.267 811.401 513.467 808.201 518.367C805.001 523.267 804.701 525.867 803.401 527.667C802.101 529.467 801.201 529.767 798.201 529.667C795.101 529.567 794.001 532.667 790.301 532.767C788.001 532.967 787.801 532.367 787.801 532.367C787.801 532.367 785.901 532.667 784.601 531.967C782.601 531.867 781.001 530.267 781.001 530.267C781.001 530.267 778.801 530.667 778.801 529.367C778.801 527.967 778.801 527.967 778.801 527.967C778.801 527.967 776.501 527.867 776.101 527.567C774.201 527.967 772.501 526.367 771.601 524.667C764.801 524.467 759.301 523.567 753.901 518.667C749.801 513.967 748.801 513.567 745.601 512.767C744.801 511.767 744.801 511.767 744.801 511.767L746.701 512.167C746.701 512.167 747.301 510.267 749.701 513.467C751.301 511.767 752.801 512.267 754.101 516.667C758.701 520.067 761.501 521.767 771.601 521.267Z" fill="#F2E9E4"/>
<path d="M858.101 521.267C858.101 521.267 857.701 518.867 859.801 518.567C858.801 518.167 858.801 518.167 858.801 518.167C858.801 518.167 858.701 516.167 861.601 516.767C862.001 513.967 864.701 510.867 866.301 509.267C867.901 507.667 867.201 505.067 868.601 503.867C869.901 503.067 870.001 503.767 872.501 503.167C874.901 502.567 881.601 506.267 883.201 506.267C884.801 506.267 891.301 505.867 895.701 508.267C897.001 508.667 898.501 508.667 897.801 509.967C897.101 511.267 897.901 513.467 894.701 518.367C891.501 523.267 891.201 525.867 889.901 527.667C888.601 529.467 887.701 529.767 884.701 529.667C881.701 529.567 880.501 532.667 876.801 532.767C874.501 532.967 874.301 532.367 874.301 532.367C874.301 532.367 872.401 532.667 871.101 531.967C869.101 531.867 867.501 530.267 867.501 530.267C867.501 530.267 865.301 530.667 865.301 529.367C865.301 527.967 865.301 527.967 865.301 527.967C865.301 527.967 863.001 527.867 862.601 527.567C860.701 527.967 859.001 526.367 858.101 524.667C851.301 524.467 845.801 523.567 840.401 518.667C836.301 513.967 835.301 513.567 832.101 512.767C831.301 511.767 831.301 511.767 831.301 511.767L833.201 512.167C833.201 512.167 833.801 510.267 836.201 513.467C837.801 511.767 839.301 512.267 840.601 516.667C845.201 520.067 848.001 521.767 858.101 521.267Z" fill="#F2E9E4"/>
</g>
<g opacity="0.2">
<path d="M31.469 125.431C31.469 125.431 31.2465 124.986 30.8017 124.986C30.357 124.986 30.1346 126.543 30.1346 126.543C30.1346 126.543 23.2403 121.761 20.7939 120.205C18.3476 118.648 15.1229 116.535 15.1229 116.535C15.1229 116.535 14.4557 116.758 15.1229 117.314C15.7901 117.87 21.4612 124.097 22.6844 132.548C23.574 139.887 20.9052 144.223 20.9052 144.223C20.9052 144.223 9.22942 144.001 6.11588 143.556C4.33672 141.777 4.33674 141.221 4.33674 141.221C4.33674 141.221 5.00385 140.109 4.11427 138.886C3.22468 137.774 2.5575 137.552 1.33432 137.774C0.667133 137.107 0.66716 137.107 0.66716 137.107L0 137.774L4.11427 143C4.11427 143 3.00229 143 3.00229 143.89L4.33674 146.447V147.337C4.33674 147.337 5.00388 149.227 5.67106 149.45C6.33825 149.672 7.00552 150.784 7.00552 150.784C7.00552 150.784 9.007 152.786 9.56299 153.119C10.0078 153.342 16.6796 156.789 20.7939 157.678C24.9083 158.568 31.8026 157.901 36.1393 155.121C39.5864 153.786 40.6984 153.342 40.6984 153.342L41.8104 151.785H39.0304L44.0343 145.669C44.0343 145.669 46.3695 145.447 47.9262 144.779C47.4814 143.223 42.9223 139.553 40.8095 136.996C38.808 134.438 35.8057 131.324 31.2466 127.877C31.469 125.431 31.469 125.431 31.469 125.431Z" fill="#F2E9E4"/>
<path d="M79.3948 125.431C79.3948 125.431 79.1725 124.986 78.7277 124.986C78.2829 124.986 78.0604 126.543 78.0604 126.543C78.0604 126.543 71.1662 121.761 68.7199 120.205C66.2735 118.648 63.0487 116.535 63.0487 116.535C63.0487 116.535 62.3815 116.758 63.0487 117.314C63.7158 117.87 69.387 124.097 70.6102 132.548C71.4997 139.887 68.831 144.223 68.831 144.223C68.831 144.223 57.1552 144.001 54.0417 143.556C52.2625 141.777 52.2625 141.221 52.2625 141.221C52.2625 141.221 52.9298 140.109 52.0402 138.886C51.1506 137.774 50.4834 137.552 49.2602 137.774C48.593 137.107 48.5929 137.107 48.5929 137.107L47.9258 137.774L52.0402 143C52.0402 143 50.9282 143 50.9282 143.89L52.2625 146.447V147.337C52.2625 147.337 52.9297 149.227 53.5968 149.45C54.264 149.672 54.9313 150.784 54.9313 150.784C54.9313 150.784 56.9328 152.786 57.4888 153.119C57.9336 153.342 64.6055 156.789 68.7199 157.678C72.8342 158.568 79.7284 157.901 84.0651 155.121C87.5122 153.786 88.6242 153.342 88.6242 153.342L89.7361 151.785H86.9562L91.9601 145.669C91.9601 145.669 94.2952 145.447 95.852 144.779C95.4072 143.223 90.8482 139.553 88.7355 136.996C86.7339 134.438 83.7315 131.324 79.1723 127.877C79.3947 125.431 79.3948 125.431 79.3948 125.431Z" fill="#F2E9E4"/>
<path d="M127.434 125.431C127.434 125.431 127.211 124.986 126.767 124.986C126.322 124.986 126.099 126.543 126.099 126.543C126.099 126.543 119.205 121.761 116.759 120.205C114.312 118.648 111.088 116.535 111.088 116.535C111.088 116.535 110.421 116.758 111.088 117.314C111.755 117.87 117.426 124.097 118.649 132.548C119.539 139.887 116.87 144.223 116.87 144.223C116.87 144.223 105.194 144.001 102.081 143.556C100.302 141.777 100.301 141.221 100.301 141.221C100.301 141.221 100.969 140.109 100.079 138.886C99.1895 137.774 98.5223 137.552 97.2992 137.774C96.632 137.107 96.632 137.107 96.632 137.107L95.9648 137.774L100.079 143C100.079 143 98.9671 143 98.9671 143.89L100.301 146.447V147.337C100.301 147.337 100.969 149.227 101.636 149.45C102.303 149.672 102.97 150.784 102.97 150.784C102.97 150.784 104.972 152.786 105.528 153.119C105.973 153.342 112.644 156.789 116.759 157.678C120.873 158.568 127.767 157.901 132.104 155.121C135.551 153.786 136.663 153.342 136.663 153.342L137.775 151.785H134.995L139.999 145.669C139.999 145.669 142.334 145.447 143.891 144.779C143.446 143.223 138.887 139.553 136.774 136.996C134.773 134.438 131.771 131.324 127.211 127.877C127.434 125.431 127.434 125.431 127.434 125.431Z" fill="#F2E9E4"/>
<path d="M175.36 125.431C175.36 125.431 175.137 124.986 174.692 124.986C174.248 124.986 174.025 126.543 174.025 126.543C174.025 126.543 167.131 121.761 164.685 120.205C162.127 118.648 159.014 116.535 159.014 116.535C159.014 116.535 158.346 116.758 159.014 117.314C159.681 117.87 165.352 124.097 166.575 132.548C167.465 139.887 164.796 144.223 164.796 144.223C164.796 144.223 153.12 144.001 150.007 143.556C148.227 141.777 148.227 141.221 148.227 141.221C148.227 141.221 148.894 140.109 148.005 138.886C147.115 137.774 146.448 137.552 145.225 137.774C144.558 137.107 144.558 137.107 144.558 137.107L143.891 137.774L148.005 143C148.005 143 146.893 143 146.893 143.89L148.227 146.447V147.337C148.227 147.337 148.895 149.227 149.562 149.45C150.229 149.672 150.896 150.784 150.896 150.784C150.896 150.784 152.898 152.786 153.454 153.119C153.898 153.342 160.57 156.789 164.685 157.678C168.799 158.568 175.693 157.901 180.03 155.121C183.477 153.786 184.589 153.342 184.589 153.342L185.701 151.785H182.921L187.925 145.669C187.925 145.669 190.26 145.447 191.817 144.779C191.372 143.223 186.813 139.553 184.7 136.996C182.699 134.438 179.696 131.324 175.137 127.877C175.36 125.431 175.36 125.431 175.36 125.431Z" fill="#F2E9E4"/>
<path d="M223.285 125.431C223.285 125.431 223.063 124.986 222.618 124.986C222.173 124.986 221.951 126.543 221.951 126.543C221.951 126.543 215.057 121.761 212.61 120.205C210.053 118.648 206.939 116.535 206.939 116.535C206.939 116.535 206.272 116.758 206.939 117.314C207.606 117.87 213.278 124.097 214.501 132.548C215.39 139.887 212.722 144.223 212.722 144.223C212.722 144.223 201.046 144.001 197.932 143.556C196.153 141.777 196.153 141.221 196.153 141.221C196.153 141.221 196.82 140.109 195.931 138.886C195.041 137.774 194.374 137.552 193.151 137.774C192.484 137.107 192.484 137.107 192.484 137.107L191.816 137.774L195.931 143C195.931 143 194.819 143 194.819 143.89L196.153 146.447V147.337C196.153 147.337 196.82 149.227 197.487 149.45C198.155 149.672 198.822 150.784 198.822 150.784C198.822 150.784 200.823 152.786 201.379 153.119C201.824 153.342 208.496 156.789 212.61 157.678C216.725 158.568 223.619 157.901 227.956 155.121C231.403 153.786 232.515 153.342 232.515 153.342L233.627 151.785H230.847L235.851 145.669C235.851 145.669 238.186 145.447 239.743 144.779C239.298 143.223 234.739 139.553 232.626 136.996C230.624 134.438 227.622 131.324 223.063 127.877C223.285 125.431 223.285 125.431 223.285 125.431Z" fill="#F2E9E4"/>
<path d="M55.4866 163.238C55.4866 163.238 55.2642 162.793 54.8195 162.793C54.3747 162.793 54.1522 164.35 54.1522 164.35C54.1522 164.35 47.258 159.568 44.8117 158.011C42.2541 156.455 39.1405 154.342 39.1405 154.342C39.1405 154.342 38.4733 154.564 39.1405 155.12C39.8076 155.676 45.4788 161.903 46.702 170.354C47.5915 177.693 44.9228 182.03 44.9228 182.03C44.9228 182.03 33.247 181.808 30.1335 181.363C28.3543 179.584 28.3543 179.028 28.3543 179.028C28.3543 179.028 29.0216 177.916 28.132 176.693C27.2424 175.469 26.5752 175.358 25.352 175.581C24.6848 174.913 24.6847 174.913 24.6847 174.913L24.0176 175.581L28.132 180.807C28.132 180.807 27.02 180.807 27.02 181.696L28.3543 184.254V185.144C28.3543 185.144 29.0215 187.034 29.6886 187.256C30.3558 187.479 31.0231 188.591 31.0231 188.591C31.0231 188.591 33.0246 190.592 33.5806 190.926C34.0254 191.148 40.6973 194.595 44.8117 195.485C48.926 196.375 55.8202 195.707 60.1569 192.927C63.604 191.593 64.716 191.148 64.716 191.148L65.8279 189.592H63.048L68.0519 183.476C68.0519 183.476 70.387 183.253 71.9438 182.586C71.499 181.029 66.94 177.36 64.8273 174.802C62.8257 172.245 59.8233 169.131 55.2641 165.684C55.4865 163.238 55.4866 163.238 55.4866 163.238Z" fill="#F2E9E4"/>
<path d="M103.412 163.238C103.412 163.238 103.19 162.793 102.745 162.793C102.3 162.793 102.078 164.35 102.078 164.35C102.078 164.35 95.1838 159.568 92.7374 158.011C90.1799 156.455 87.0664 154.342 87.0664 154.342C87.0664 154.342 86.3992 154.564 87.0664 155.12C87.7336 155.676 93.4046 161.903 94.6277 170.354C95.5173 177.693 92.8486 182.03 92.8486 182.03C92.8486 182.03 81.1728 181.808 78.0592 181.363C76.2801 179.584 76.2801 179.028 76.2801 179.028C76.2801 179.028 76.9473 177.916 76.0578 176.693C75.1682 175.581 74.501 175.358 73.2778 175.581C72.6106 174.913 72.6107 174.913 72.6107 174.913L71.9434 175.581L76.0578 180.807C76.0578 180.807 74.9458 180.807 74.9458 181.696L76.2801 184.254V185.144C76.2801 185.144 76.9474 187.034 77.6146 187.256C78.2817 187.479 78.9489 188.591 78.9489 188.591C78.9489 188.591 80.9505 190.592 81.5065 190.926C81.9513 191.148 88.6231 194.595 92.7374 195.485C96.8518 196.375 103.746 195.707 108.083 192.927C111.53 191.593 112.642 191.148 112.642 191.148L113.754 189.592H110.974L115.978 183.476C115.978 183.476 118.313 183.253 119.87 182.586C119.425 181.029 114.866 177.36 112.753 174.802C110.64 172.245 107.749 169.131 103.19 165.684C103.412 163.238 103.412 163.238 103.412 163.238Z" fill="#F2E9E4"/>
<path d="M151.342 163.238C151.342 163.238 151.12 162.793 150.675 162.793C150.23 162.793 150.008 164.35 150.008 164.35C150.008 164.35 143.113 159.568 140.667 158.011C138.109 156.455 134.996 154.342 134.996 154.342C134.996 154.342 134.329 154.564 134.996 155.12C135.663 155.676 141.334 161.903 142.557 170.354C143.447 177.693 140.778 182.03 140.778 182.03C140.778 182.03 129.102 181.808 125.989 181.363C124.21 179.584 124.21 179.028 124.21 179.028C124.21 179.028 124.877 177.916 123.987 176.693C123.098 175.581 122.431 175.358 121.207 175.581C120.54 174.913 120.54 174.913 120.54 174.913L119.873 175.581L123.987 180.807C123.987 180.807 122.875 180.807 122.875 181.696L124.21 184.254V185.144C124.21 185.144 124.877 187.034 125.544 187.256C126.211 187.479 126.878 188.591 126.878 188.591C126.878 188.591 128.88 190.592 129.436 190.926C129.881 191.148 136.553 194.595 140.667 195.485C144.781 196.375 151.676 195.707 156.012 192.927C159.459 191.593 160.571 191.148 160.571 191.148L161.683 189.592H158.903L163.907 183.476C163.907 183.476 166.243 183.253 167.799 182.586C167.354 181.029 162.795 177.36 160.683 174.802C158.57 172.245 155.679 169.131 151.12 165.684C151.342 163.238 151.342 163.238 151.342 163.238Z" fill="#F2E9E4"/>
<path d="M199.377 163.238C199.377 163.238 199.155 162.793 198.71 162.793C198.265 162.793 198.043 164.35 198.043 164.35C198.043 164.35 191.148 159.568 188.702 158.011C186.145 156.455 183.031 154.342 183.031 154.342C183.031 154.342 182.364 154.564 183.031 155.12C183.698 155.676 189.369 161.903 190.593 170.354C191.482 177.693 188.813 182.03 188.813 182.03C188.813 182.03 177.138 181.808 174.024 181.363C172.245 179.584 172.245 179.028 172.245 179.028C172.245 179.028 172.912 177.916 172.022 176.693C171.133 175.581 170.466 175.358 169.243 175.581C168.575 174.913 168.575 174.913 168.575 174.913L167.908 175.581L172.022 180.807C172.022 180.807 170.91 180.807 170.91 181.696L172.245 184.254V185.144C172.245 185.144 172.912 187.034 173.579 187.256C174.246 187.479 174.914 188.591 174.914 188.591C174.914 188.591 176.915 190.592 177.471 190.926C177.916 191.148 184.588 194.595 188.702 195.485C192.816 196.375 199.711 195.707 204.047 192.927C207.495 191.593 208.607 191.148 208.607 191.148L209.719 189.592H206.939L211.943 183.476C211.943 183.476 214.278 183.253 215.834 182.586C215.39 181.029 210.831 177.36 208.718 174.802C206.605 172.245 203.714 169.131 199.155 165.684C199.377 163.238 199.377 163.238 199.377 163.238Z" fill="#F2E9E4"/>
<path d="M304.238 163.238C304.238 163.238 304.016 162.793 303.571 162.793C303.126 162.793 302.904 164.35 302.904 164.35C302.904 164.35 296.01 159.568 293.563 158.011C291.006 156.455 287.892 154.342 287.892 154.342C287.892 154.342 287.225 154.564 287.892 155.12C288.56 155.676 294.231 161.903 295.454 170.354C296.343 177.693 293.675 182.03 293.675 182.03C293.675 182.03 281.999 181.808 278.885 181.363C277.106 179.584 277.106 179.028 277.106 179.028C277.106 179.028 277.773 177.916 276.884 176.693C275.994 175.581 275.327 175.358 274.104 175.581C273.437 174.913 273.437 174.913 273.437 174.913L272.77 175.581L276.884 180.807C276.884 180.807 275.772 180.807 275.772 181.696L277.106 184.254V185.144C277.106 185.144 277.773 187.034 278.441 187.256C279.108 187.479 279.775 188.591 279.775 188.591C279.775 188.591 281.777 190.592 282.333 190.926C282.777 191.148 289.449 194.595 293.563 195.485C297.678 196.375 304.572 195.707 308.909 192.927C312.356 191.593 313.468 191.148 313.468 191.148L314.58 189.592H311.8L316.804 183.476C316.804 183.476 319.139 183.253 320.696 182.586C320.251 181.029 315.692 177.36 313.579 174.802C311.466 172.245 308.575 169.131 304.016 165.684C304.238 163.238 304.238 163.238 304.238 163.238Z" fill="#F2E9E4"/>
<path d="M311.242 91.2943C311.242 91.2943 311.02 90.8495 310.575 90.8495C310.131 90.8495 309.908 92.4062 309.908 92.4062C309.908 92.4062 303.014 87.6247 300.568 86.068C298.01 84.5112 294.896 82.3984 294.896 82.3984C294.896 82.3984 294.229 82.6208 294.896 83.1768C295.564 83.7328 301.235 89.9599 302.458 98.4109C303.347 105.75 300.679 110.087 300.679 110.087C300.679 110.087 289.003 109.864 285.889 109.42C284.11 107.64 284.11 107.084 284.11 107.084C284.11 107.084 284.777 105.972 283.888 104.749C282.998 103.637 282.331 103.415 281.108 103.637C280.441 102.97 280.441 102.97 280.441 102.97L279.773 103.637L283.888 108.864C283.888 108.864 282.776 108.864 282.776 109.753L284.11 112.311V113.2C284.11 113.2 284.777 115.091 285.444 115.313C286.112 115.535 286.779 116.647 286.779 116.647C286.779 116.647 288.78 118.649 289.336 118.983C289.781 119.205 296.453 122.652 300.568 123.542C304.682 124.431 311.576 123.764 315.913 120.984C319.36 119.65 320.472 119.205 320.472 119.205L321.584 117.648H318.804L323.808 111.532C323.808 111.532 326.143 111.31 327.7 110.643C327.255 109.086 322.696 105.416 320.583 102.859C318.582 100.301 315.579 97.1878 311.02 93.7406C311.242 91.2943 311.242 91.2943 311.242 91.2943Z" fill="#F2E9E4"/>
<path d="M208.94 51.3724C208.94 51.3724 208.717 50.9276 208.273 50.9276C207.828 50.9276 207.605 52.4844 207.605 52.4844C207.605 52.4844 200.711 47.7029 198.265 46.1461C195.707 44.5893 192.594 42.4766 192.594 42.4766C192.594 42.4766 191.926 42.699 192.594 43.2549C193.261 43.8109 198.932 50.038 200.155 58.489C201.045 65.8281 198.376 70.1648 198.376 70.1648C198.376 70.1648 186.7 69.9424 183.587 69.4976C181.807 67.7185 181.807 67.1625 181.807 67.1625C181.807 67.1625 182.475 66.0505 181.585 64.8273C180.696 63.6042 180.028 63.493 178.805 63.7154C178.138 63.0482 178.138 63.0482 178.138 63.0482L177.471 63.7154L181.585 68.9416C181.585 68.9416 180.473 68.9416 180.473 69.8312L181.807 72.3888V73.2784C181.807 73.2784 182.475 75.1687 183.142 75.3911C183.809 75.6135 184.476 76.7255 184.476 76.7255C184.476 76.7255 186.478 78.7271 187.034 79.0606C187.478 79.283 194.15 82.7302 198.265 83.6198C202.379 84.5093 209.273 83.8422 213.61 81.0622C217.057 79.7278 218.169 79.283 218.169 79.283L219.281 77.7263H216.501L221.505 71.6104C221.505 71.6104 223.84 71.388 225.397 70.7208C224.952 69.164 220.393 65.4945 218.28 62.937C216.279 60.3794 213.276 57.2659 208.717 53.8187C208.94 51.3724 208.94 51.3724 208.94 51.3724Z" fill="#F2E9E4"/>
<path d="M113.088 51.3724C113.088 51.3724 112.866 50.9276 112.421 50.9276C111.976 50.9276 111.754 52.4844 111.754 52.4844C111.754 52.4844 104.859 47.7029 102.413 46.1461C99.8555 44.5893 96.742 42.4766 96.742 42.4766C96.742 42.4766 96.0748 42.699 96.742 43.2549C97.4092 43.8109 103.08 50.038 104.304 58.489C105.193 65.8281 102.524 70.1648 102.524 70.1648C102.524 70.1648 90.8486 69.9424 87.735 69.4976C85.9559 67.7185 85.9559 67.1625 85.9559 67.1625C85.9559 67.1625 86.623 66.0505 85.7334 64.8273C84.8438 63.6042 84.1766 63.493 82.9535 63.7154C82.2863 63.0482 82.2863 63.0482 82.2863 63.0482L81.6191 63.7154L85.7334 68.9416C85.7334 68.9416 84.6214 68.9416 84.6214 69.8312L85.9559 72.3888V73.2784C85.9559 73.2784 86.623 75.1687 87.2902 75.3911C87.9574 75.6135 88.6245 76.7255 88.6245 76.7255C88.6245 76.7255 90.6261 78.7271 91.1821 79.0606C91.6269 79.283 98.2988 82.7302 102.413 83.6198C106.527 84.5093 113.422 83.8422 117.758 81.0622C121.206 79.7278 122.318 79.283 122.318 79.283L123.429 77.7263H120.65L125.653 71.6104C125.653 71.6104 127.989 71.388 129.545 70.7208C129.101 69.164 124.541 65.4945 122.429 62.937C120.427 60.3794 117.425 57.2659 112.866 53.8187C113.088 51.3724 113.088 51.3724 113.088 51.3724Z" fill="#F2E9E4"/>
<path d="M151.342 8.89583C151.342 8.89583 151.12 8.45104 150.675 8.45104C150.23 8.45104 150.008 10.0078 150.008 10.0078C150.008 10.0078 143.113 5.2263 140.667 3.66953C138.109 2.11276 134.996 0 134.996 0C134.996 0 134.329 0.222397 134.996 0.778386C135.663 1.33437 141.334 7.56145 142.557 16.0125C143.447 23.3515 140.778 27.6883 140.778 27.6883C140.778 27.6883 129.102 27.4659 125.989 27.0211C124.21 25.2419 124.21 24.6859 124.21 24.6859C124.21 24.6859 124.877 23.5739 123.987 22.3508C123.098 21.2388 122.431 21.0164 121.207 21.2388C120.54 20.5716 120.54 20.5716 120.54 20.5716L119.873 21.2388L123.987 26.4651C123.987 26.4651 122.875 26.4651 122.875 27.3547L124.21 29.9122V30.8018C124.21 30.8018 124.877 32.6922 125.544 32.9146C126.211 33.137 126.878 34.2489 126.878 34.2489C126.878 34.2489 128.88 36.2505 129.436 36.5841C129.992 36.9177 136.553 40.2536 140.667 41.1432C144.781 42.0328 151.676 41.3656 156.012 38.5856C159.459 37.2513 160.571 36.8065 160.571 36.8065L161.683 35.2497H158.903L163.907 29.1338C163.907 29.1338 166.243 28.9114 167.799 28.2443C167.354 26.6875 162.795 23.018 160.683 20.4604C158.681 17.9029 155.679 14.7893 151.12 11.3422C151.342 8.89583 151.342 8.89583 151.342 8.89583Z" fill="#F2E9E4"/>
<path d="M131.881 204.716C131.881 204.716 131.659 204.271 131.214 204.271C130.769 204.271 130.547 205.828 130.547 205.828C130.547 205.828 123.652 201.047 121.206 199.49C118.76 197.933 115.535 195.82 115.535 195.82C115.535 195.82 114.868 196.043 115.535 196.599C116.202 197.155 121.873 203.382 123.096 211.833C123.986 219.172 121.317 223.509 121.317 223.509C121.317 223.509 109.642 223.286 106.528 222.841C104.749 221.062 104.749 220.506 104.749 220.506C104.749 220.506 105.416 219.394 104.526 218.171C103.637 217.059 102.97 216.837 101.746 217.059C101.079 216.392 101.079 216.392 101.079 216.392L100.412 217.059L104.526 222.285C104.526 222.285 103.414 222.285 103.414 223.175L104.749 225.733V226.622C104.749 226.622 105.416 228.512 106.083 228.735C106.75 228.957 107.417 230.069 107.417 230.069C107.417 230.069 109.419 232.071 109.975 232.404C110.42 232.627 117.092 236.074 121.206 236.964C125.32 237.853 132.215 237.186 136.551 234.406C139.999 233.072 141.11 232.627 141.11 232.627L142.222 231.07H139.443L144.446 224.954C144.446 224.954 146.782 224.732 148.338 224.065C147.894 222.508 143.334 218.838 141.222 216.281C139.22 213.723 136.218 210.61 131.659 207.162C131.881 204.716 131.881 204.716 131.881 204.716Z" fill="#F2E9E4"/>
<path d="M271.211 125.431C271.211 125.431 270.989 124.986 270.544 124.986C270.099 124.986 269.877 126.543 269.877 126.543C269.877 126.543 262.983 121.761 260.536 120.205C257.979 118.648 254.865 116.535 254.865 116.535C254.865 116.535 254.198 116.758 254.865 117.314C255.532 117.87 261.203 124.097 262.427 132.548C263.316 139.887 260.647 144.223 260.647 144.223C260.647 144.223 248.972 144.001 245.858 143.556C244.079 141.777 244.079 141.221 244.079 141.221C244.079 141.221 244.746 140.109 243.857 138.886C242.967 137.774 242.3 137.552 241.077 137.774C240.409 137.107 240.409 137.107 240.409 137.107L239.742 137.774L243.857 143C243.857 143 242.745 143 242.745 143.89L244.079 146.447V147.337C244.079 147.337 244.746 149.227 245.413 149.45C246.08 149.672 246.748 150.784 246.748 150.784C246.748 150.784 248.749 152.786 249.305 153.119C249.75 153.342 256.422 156.789 260.536 157.678C264.651 158.568 271.545 157.901 275.881 155.121C279.329 153.786 280.441 153.342 280.441 153.342L281.553 151.785H278.773L283.777 145.669C283.777 145.669 286.112 145.447 287.668 144.779C287.224 143.223 282.665 139.553 280.552 136.996C278.55 134.438 275.548 131.324 270.989 127.877C271.211 125.431 271.211 125.431 271.211 125.431Z" fill="#F2E9E4"/>
<path d="M48.2601 91.2943C48.2601 91.2943 48.0377 90.8495 47.5929 90.8495C47.1481 90.8495 46.9256 92.4062 46.9256 92.4062C46.9256 92.4062 40.0314 87.6247 37.5851 86.068C35.1387 84.5112 31.9139 82.3984 31.9139 82.3984C31.9139 82.3984 31.2467 82.6208 31.9139 83.1768C32.5811 83.7328 38.2522 89.9599 39.4754 98.4109C40.365 105.75 37.6963 110.087 37.6963 110.087C37.6963 110.087 26.0204 109.864 22.9069 109.42C21.1277 107.64 21.1278 107.084 21.1278 107.084C21.1278 107.084 21.795 105.972 20.9054 104.749C20.0158 103.637 19.3486 103.415 18.1255 103.637C17.4583 102.97 17.4582 102.97 17.4582 102.97L16.791 103.637L20.9054 108.864C20.9054 108.864 19.7934 108.864 19.7934 109.753L21.1278 112.311V113.2C21.1278 113.2 21.7949 115.091 22.4621 115.313C23.1293 115.535 23.7965 116.647 23.7965 116.647C23.7965 116.647 25.798 118.649 26.354 118.983C26.7988 119.205 33.4708 122.652 37.5851 123.542C41.6994 124.431 48.5936 123.764 52.9303 120.984C56.3774 119.65 57.4894 119.205 57.4894 119.205L58.6014 117.648H55.8214L60.8253 111.532C60.8253 111.532 63.1605 111.31 64.7173 110.643C64.2725 109.086 59.7135 105.416 57.6007 102.859C55.5991 100.301 52.5967 97.1878 48.0376 93.7406C48.26 91.2943 48.2601 91.2943 48.2601 91.2943Z" fill="#F2E9E4"/>
<path d="M96.299 91.2943C96.299 91.2943 96.0766 90.8495 95.6318 90.8495C95.187 90.8495 94.9647 92.4062 94.9647 92.4062C94.9647 92.4062 88.0704 87.6247 85.624 86.068C83.1777 84.5112 79.953 82.3984 79.953 82.3984C79.953 82.3984 79.2858 82.6208 79.953 83.1768C80.6201 83.7328 86.2912 89.9599 87.5143 98.4109C88.4039 105.75 85.7352 110.087 85.7352 110.087C85.7352 110.087 74.0595 109.864 70.946 109.42C69.1668 107.64 69.1667 107.084 69.1667 107.084C69.1667 107.084 69.8339 105.972 68.9443 104.749C68.0548 103.637 67.3876 103.415 66.1644 103.637C65.4972 102.97 65.4972 102.97 65.4972 102.97L64.8301 103.637L68.9443 108.864C68.9443 108.864 67.8324 108.864 67.8324 109.753L69.1667 112.311V113.2C69.1667 113.2 69.834 115.091 70.5011 115.313C71.1683 115.535 71.8355 116.647 71.8355 116.647C71.8355 116.647 73.8371 118.649 74.3931 118.983C74.8379 119.205 81.5097 122.652 85.624 123.542C89.7383 124.431 96.6327 123.764 100.969 120.984C104.417 119.65 105.528 119.205 105.528 119.205L106.64 117.648H103.86L108.864 111.532C108.864 111.532 111.2 111.31 112.756 110.643C112.312 109.086 107.752 105.416 105.64 102.859C103.638 100.301 100.636 97.1878 96.0766 93.7406C96.299 91.2943 96.299 91.2943 96.299 91.2943Z" fill="#F2E9E4"/>
<path d="M144.225 91.2943C144.225 91.2943 144.002 90.8495 143.558 90.8495C143.113 90.8495 142.89 92.4062 142.89 92.4062C142.89 92.4062 135.996 87.6247 133.55 86.068C131.103 84.5112 127.879 82.3984 127.879 82.3984C127.879 82.3984 127.212 82.6208 127.879 83.1768C128.546 83.7328 134.217 89.9599 135.44 98.4109C136.33 105.75 133.661 110.087 133.661 110.087C133.661 110.087 121.985 109.864 118.872 109.42C117.093 107.64 117.093 107.084 117.093 107.084C117.093 107.084 117.76 105.972 116.87 104.749C115.981 103.637 115.313 103.415 114.09 103.637C113.423 102.97 113.423 102.97 113.423 102.97L112.756 103.637L116.87 108.864C116.87 108.864 115.758 108.864 115.758 109.753L117.093 112.311V113.2C117.093 113.2 117.76 115.091 118.427 115.313C119.094 115.535 119.761 116.647 119.761 116.647C119.761 116.647 121.763 118.649 122.319 118.983C122.764 119.205 129.435 122.652 133.55 123.542C137.664 124.431 144.558 123.764 148.895 120.984C152.342 119.65 153.454 119.205 153.454 119.205L154.566 117.648H151.786L156.79 111.532C156.79 111.532 159.125 111.31 160.682 110.643C160.237 109.086 155.678 105.416 153.565 102.859C151.564 100.301 148.562 97.1878 144.002 93.7406C144.225 91.2943 144.225 91.2943 144.225 91.2943Z" fill="#F2E9E4"/>
<path d="M192.151 91.2943C192.151 91.2943 191.928 90.8495 191.483 90.8495C191.039 90.8495 190.816 92.4062 190.816 92.4062C190.816 92.4062 183.922 87.6247 181.476 86.068C179.029 84.5112 175.805 82.3984 175.805 82.3984C175.805 82.3984 175.137 82.6208 175.805 83.1768C176.472 83.7328 182.143 89.9599 183.366 98.4109C184.256 105.75 181.587 110.087 181.587 110.087C181.587 110.087 169.911 109.864 166.798 109.42C165.018 107.64 165.018 107.084 165.018 107.084C165.018 107.084 165.685 105.972 164.796 104.749C163.906 103.637 163.239 103.415 162.016 103.637C161.349 102.97 161.349 102.97 161.349 102.97L160.682 103.637L164.796 108.864C164.796 108.864 163.684 108.864 163.684 109.753L165.018 112.311V113.2C165.018 113.2 165.686 115.091 166.353 115.313C167.02 115.535 167.687 116.647 167.687 116.647C167.687 116.647 169.689 118.649 170.245 118.983C170.689 119.205 177.361 122.652 181.476 123.542C185.59 124.431 192.484 123.764 196.821 120.984C200.268 119.65 201.38 119.205 201.38 119.205L202.492 117.648H199.712L204.716 111.532C204.716 111.532 207.051 111.31 208.608 110.643C208.163 109.086 203.604 105.416 201.491 102.859C199.49 100.301 196.487 97.1878 191.928 93.7406C192.151 91.2943 192.151 91.2943 192.151 91.2943Z" fill="#F2E9E4"/>
<path d="M240.076 91.2943C240.076 91.2943 239.854 90.8495 239.409 90.8495C238.965 90.8495 238.742 92.4062 238.742 92.4062C238.742 92.4062 231.848 87.6247 229.401 86.068C226.955 84.5112 223.73 82.3984 223.73 82.3984C223.73 82.3984 223.063 82.6208 223.73 83.1768C224.397 83.7328 230.069 89.9599 231.292 98.4109C232.181 105.75 229.513 110.087 229.513 110.087C229.513 110.087 217.837 109.864 214.723 109.42C212.944 107.64 212.944 107.084 212.944 107.084C212.944 107.084 213.611 105.972 212.722 104.749C211.832 103.637 211.165 103.415 209.942 103.637C209.275 102.97 209.275 102.97 209.275 102.97L208.607 103.637L212.722 108.864C212.722 108.864 211.61 108.864 211.61 109.753L212.944 112.311V113.2C212.944 113.2 213.611 115.091 214.278 115.313C214.946 115.535 215.613 116.647 215.613 116.647C215.613 116.647 217.614 118.649 218.17 118.983C218.615 119.205 225.287 122.652 229.401 123.542C233.516 124.431 240.41 123.764 244.747 120.984C248.194 119.65 249.306 119.205 249.306 119.205L250.418 117.648H247.638L252.642 111.532C252.642 111.532 254.977 111.31 256.534 110.643C256.089 109.086 251.53 105.416 249.417 102.859C247.416 100.301 244.413 97.1878 239.854 93.7406C240.076 91.2943 240.076 91.2943 240.076 91.2943Z" fill="#F2E9E4"/>
</g>
</svg>
