<svg width="1756" height="650" viewBox="0 0 1756 650" fill="none" xmlns="http://www.w3.org/2000/svg">
<path opacity="0.2" d="M545.078 131.239L578.662 99V142.56L627 140.997L593.094 173.128L627 203.696L580.755 205.313L582.096 249.035L548.244 219.815L516.269 252V206.876L466 209.248L500.496 175.5L466 145.202L513.372 144.178L512.835 100.671L545.078 131.239Z" fill="#F2D0AC"/>
<path opacity="0.2" d="M1674.08 277.239L1707.66 245V288.56L1756 286.997L1722.09 319.128L1756 349.696L1709.75 351.313L1711.1 395.035L1677.24 365.815L1645.27 398V352.876L1595 355.248L1629.5 321.5L1595 291.202L1642.37 290.178L1641.84 246.671L1674.08 277.239Z" fill="#F2D0AC"/>
<g opacity="0.2">
<path d="M248.724 502.702C226.788 481.316 203.63 484.066 203.63 484.066C205.402 483.516 206.624 482.783 209.496 483.149C213.712 483.699 209.679 481.133 212.857 481.744C216.034 482.355 217.745 482.355 216.89 481.133C216.034 479.85 222.389 483.455 221.35 481.133C220.311 478.811 228.316 485.166 225.994 482.477C223.672 479.789 226.422 479.361 226.422 479.361C226.422 479.361 230.21 482.416 230.027 480.705C229.843 478.994 232.165 478.994 232.96 479.3C233.754 479.605 236.809 480.033 238.092 480.461C239.375 480.889 239.375 480.033 240.414 479.3C241.453 478.567 248.907 484.066 246.952 481.927C242.98 477.284 248.419 479.3 248.419 479.3C248.419 479.3 249.702 478.933 246.952 477.039C244.203 475.145 247.38 474.473 240.842 472.395C234.304 470.257 240.414 470.684 235.343 470.073C230.271 469.462 232.776 468.607 228.988 468.301C219.7 468.24 225.383 466.468 222.633 466.529C219.884 466.591 216.279 467.874 212.918 467.874C209.557 467.874 198.925 470.012 198.925 470.012C198.925 470.012 202.103 467.69 209.068 466.529C216.034 465.368 208.213 464.696 213.712 464.269C219.211 463.78 217.317 462.802 221.533 462.191C225.749 461.58 219.639 459.197 223 458.769C226.36 458.342 231.249 460.48 230.638 458.769C230.027 457.058 237.603 458.158 239.498 457.914C241.392 457.67 238.031 455.836 238.887 455.042C239.742 454.309 241.636 454.737 240.597 452.965C239.559 451.193 246.952 451.926 246.952 451.926C246.952 451.926 245.913 449.848 237.665 449.848C229.416 449.848 235.526 448.565 231.554 448.81C227.521 449.054 221.839 451.07 219.7 451.07C217.562 451.07 212.918 452.537 208.702 454.248C204.486 455.898 204.669 454.248 204.669 454.248C205.647 453.148 205.647 452.476 205.341 451.926C204.73 450.887 207.907 449.787 210.413 448.81C212.979 447.771 204.669 448.321 213.162 445.999C221.656 443.677 213.346 443.86 218.478 442.333C223.55 440.805 221.045 438.789 221.045 438.789C221.045 438.789 228.255 436.895 230.332 435.611C232.471 434.328 225.872 434.573 227.155 433.289C228.438 432.006 234.121 431.151 232.898 430.601C231.615 430.051 227.583 431.151 221.9 430.601C216.156 430.051 214.69 432.678 211.757 432.434C208.824 432.251 206.441 435.795 204.791 436.039C203.08 436.222 201.614 435.856 195.931 440.683C190.188 445.571 191.715 440.683 191.715 440.683C191.715 440.683 184.933 448.076 182 449.971C179.067 451.865 184.749 443.188 182 445.754C179.25 448.321 174.545 456.753 174.545 456.753L176.5 451.681C176.5 451.681 179.067 445.754 179.739 444.288C180.411 442.821 176.745 442.822 178.822 439.827C180.961 436.895 178.395 435.367 178.822 433.473C179.25 431.579 177.112 432.006 177.967 429.684C178.822 427.362 180.289 425.041 177.112 427.118C173.934 429.257 176.5 423.513 177.723 419.052C179.006 414.592 176.439 416.486 178.334 412.698C180.228 408.909 179.189 406.587 179.617 405.304C180.044 404.021 177.05 403.166 177.478 401.699C177.906 400.233 178.945 395.589 177.478 397.422C176.012 399.255 174.117 399.988 172.834 400.66C171.551 401.271 169.474 406.404 168.618 406.893C167.763 407.382 165.869 410.193 165.013 411.231C164.158 412.27 162.691 416.12 161.164 418.441C159.636 420.152 159.514 426.079 159.331 429.257C159.147 432.434 157.62 432.434 156.764 435.611C155.909 438.789 158.231 450.643 158.231 450.643C154.198 440.5 149.31 433.778 148.943 436.406C148.576 439.033 146.132 435.306 143.138 432.495C140.144 429.684 139.411 432.678 134.339 427.973C129.268 423.269 129.818 428.523 124.991 424.796C120.102 421.069 122.363 425.163 115.031 421.68C107.699 418.197 112.587 423.819 107.699 422.535C102.81 421.252 93.4616 421.619 98.4109 422.535C108.798 425.713 101.527 426.446 105.499 427.607C109.409 428.707 111.487 430.968 113.015 431.334C114.542 431.701 114.542 433.045 115.825 433.595C117.108 434.145 119.553 435.306 122.974 437.139C126.335 439.033 120.53 441.661 128.779 444.838C137.028 448.015 133.851 449.543 142.649 454.187C151.448 458.892 152.854 463.047 152.854 463.047C149.31 460.297 145.949 458.892 143.444 457.12C138.617 453.759 136.478 454.37 128.29 450.887C120.102 447.404 121.141 450.459 115.214 449.054C109.287 447.71 111.548 450.704 109.898 450.704C108.249 450.704 101.71 453.27 98.472 453.759C94.5003 454.187 86.0681 457.425 87.3513 457.547C88.6345 457.67 88.4512 458.281 87.5957 460.48C86.6792 462.619 88.94 462.252 88.94 462.252C88.94 462.252 88.94 462.252 93.7671 460.847C98.5942 459.441 94.6837 462.558 99.3886 461.213C104.094 459.869 100.122 463.047 103.482 462.436C108.921 461.397 101.527 465.307 103.482 464.696C112.281 461.947 113.015 463.474 114.114 463.78C115.153 464.085 116.986 464.819 117.903 465.124C118.819 465.43 122.974 467.079 122.974 467.079C118.208 466.468 114.725 466.346 113.687 466.346C110.509 466.224 108.554 467.69 106.11 467.874C103.666 467.996 98.5331 471.968 93.2172 473.617C87.9012 475.267 88.8178 476.978 87.5957 478.017C82.5853 480.889 72.4422 488.771 77.2693 486.999C82.2798 484.86 79.5301 489.871 81.0577 489.015C88.5123 484.372 88.94 487.915 88.94 487.915C88.94 487.915 90.4675 488.038 95.2947 485.349C100.122 482.6 98.472 486.388 99.3886 486.082C100.305 485.777 101.527 484.249 105.438 481.622C109.348 478.994 108.615 481.866 109.837 481.622C111.059 481.377 118.086 481.622 118.086 481.622C105.071 485.594 92.4839 493.354 89.3677 495.859C85.5793 499.036 77.3304 509.057 80.7522 507.835C84.1739 506.613 84.5406 504.047 86.6181 502.519C88.6956 500.991 91.0786 502.519 92.9728 500.991C94.867 499.464 94.5003 501.358 95.9057 500.991C97.3111 500.625 97.6166 501.358 100.366 499.464C103.116 497.57 103.482 500.503 105.01 499.464C110.02 495.859 111.181 498.059 113.748 495.859C116.314 493.598 116.986 497.936 118.208 496.898C119.43 495.859 120.775 495.492 122.363 495.676C123.891 495.859 125.968 494.148 127.679 492.926C129.39 491.704 132.201 492.926 132.201 492.926C118.819 498.731 106.782 512.784 103.727 519.139C100.183 526.655 96.3945 535.454 99.022 533.926C101.649 532.398 103.544 526.777 106.171 524.455C108.798 522.133 110.082 526.777 114.42 517.428C118.758 508.079 120.041 514.251 123.769 509.729C127.496 505.208 128.29 506.918 130.734 504.658C133.179 502.397 136.722 501.969 136.722 501.969C135.989 502.519 135.256 503.069 134.462 503.68C132.567 506.674 132.567 506.674 132.567 506.674L128.046 510.218L126.335 513.395C126.335 513.395 120.897 517.123 118.453 521.461C117.536 523.355 118.819 522.561 116.742 526.899C115.825 529.527 116.742 530.076 113.931 533.865C113.198 535.392 109.776 542.847 111.12 545.841C110.937 549.385 110.693 554.09 110.815 556.351C110.937 558.612 113.931 551.463 115.642 550.179C117.353 548.896 118.269 550.179 119.797 546.024C121.325 541.869 122.974 544.497 125.052 540.953C127.129 537.409 129.573 538.692 131.223 536.065C132.934 533.437 134.278 527.999 135.867 532.521C136.295 534.415 140.083 528.366 141 525.372C141 525.372 141.611 517.489 145.521 518.467C143.505 519.2 143.322 522.255 143.322 522.255C143.322 522.255 142.161 524.822 143.322 525.677C141.855 527.571 142.405 530.565 143.322 531.176C143.322 531.176 138.739 536.187 138.433 539.181C138.556 540.647 140.511 537.714 139.655 539.975C138.8 542.297 141.061 540.953 139.655 543.764C139.228 545.23 142.038 541.625 140.877 545.413C139.655 549.202 141.977 545.963 141.55 550.546C141.122 553.235 142.405 554.579 142.405 554.579C142.405 554.579 144.36 547.674 145.094 549.568C145.766 551.463 146.193 545.352 146.866 548.591C147.538 551.829 148.21 543.825 148.21 543.825C148.21 543.825 149.187 541.686 149.676 544.069C150.226 546.513 150.898 538.936 151.57 540.708C152.243 542.48 154.076 537.898 154.076 535.942C154.809 535.515 155.42 535.026 155.787 534.72C156.825 534.72 157.864 534.354 158.72 533.804C158.72 533.804 156.459 538.814 156.214 542.786C156.092 544.069 157.009 543.03 156.214 547.246C156.092 548.53 157.62 546.085 157.436 549.324C157.253 552.562 158.72 553.235 158.72 553.235L159.758 551.34C159.758 551.34 160.736 547.308 160.919 548.652C161.103 549.996 163.119 544.558 163.119 544.558C163.241 544.986 163.486 545.474 163.852 546.085C164.28 547.063 162.569 547.43 164.158 550.424C164.708 551.707 162.508 551.463 163.73 555.19C164.28 556.656 161.897 556.534 164.402 561.667C165.258 563.439 161.591 560.689 164.891 567.594C165.196 568.449 162.508 567.655 165.441 573.521C165.991 574.865 163.058 575.354 164.402 578.531C164.952 579.509 165.258 579.875 164.402 580.792C163.547 581.647 163.058 582.808 164.585 585.558C165.441 587.147 162.691 585.802 164.585 590.568C165.563 592.89 163.241 592.585 164.402 595.212C165.624 597.84 163.791 598.817 164.585 601.139C165.38 603.461 162.997 602.789 165.563 608.166C166.48 610.182 163.241 607.616 165.196 612.932C165.196 613.971 163.18 613.788 164.952 618.187C165.441 619.226 163.913 619.409 165.135 622.098C165.441 623.442 164.158 624.419 164.952 626.986C165.441 628.574 164.097 629.247 164.647 631.568C165.196 633.89 165.258 634.868 165.258 634.868C165.258 634.868 163.791 635.174 164.769 637.923C165.502 640.001 164.035 639.145 164.952 642.017C165.013 643.3 163.913 642.261 163.913 644.828C163.669 645.683 161.958 645.378 163.913 648.677C166.907 650.022 176.806 649.227 178.761 648.25C179.495 646.233 178.761 645.867 178.272 645.989C177.784 646.172 177.723 641.65 178.211 640.612C178.7 639.573 176.378 640.856 177.967 635.418C178.395 633.829 176.684 633.89 177.478 631.019C178.272 628.147 176.134 626.925 177.05 623.503C178.334 619.409 175.278 623.014 176.195 620.326C177.05 617.637 175.889 616.598 176.378 615.621C176.867 614.643 175.767 613.971 176.684 611.954C177.661 609.938 174.912 609.266 176.256 606.516C177.6 603.828 175.156 602.85 175.706 600.345C177.295 596.129 174.729 598.695 176.012 595.884C177.295 593.074 175.523 592.218 175.951 590.691C176.378 589.163 176.928 588.308 176.195 587.33C176.928 585.008 174.973 585.497 175.767 583.175C176.562 580.853 173.995 580.548 175.34 578.531C176.684 576.515 175.951 575.843 175.889 575.109C175.828 574.376 174.423 575.415 175.706 572.176C176.989 568.877 175.156 570.832 175.767 568.205C176.378 565.577 176.012 564.539 176.012 564.539C176.012 564.539 174.667 564.233 175.462 562.278C176.256 560.384 173.445 561.239 174.545 558.917C175.645 556.595 175.523 556.656 175.278 555.862C175.034 555.068 174.24 554.762 175.34 552.257C176.439 549.752 173.568 552.196 174.545 549.141C175.523 546.085 174.973 546.88 174.973 546.88C174.973 546.88 173.568 546.88 174.545 544.375C175.523 541.869 175.095 542.053 175.095 542.053C175.095 542.053 173.201 541.503 173.873 539.425C174.056 538.875 174.056 538.448 173.995 538.081C173.995 538.081 175.34 537.898 175.217 539.975C175.095 542.053 176.989 542.725 176.989 542.725C176.989 542.725 178.639 544.986 178.883 546.452C179.128 547.919 180.106 544.008 181.45 547.185C182.794 550.363 182.427 544.13 182.427 544.13C182.427 544.13 183.65 542.236 182.489 540.097C181.328 537.959 184.322 540.525 182.977 537.103C181.694 533.743 181.694 533.743 181.694 533.743C182.611 533.743 183.161 533.132 183.161 533.132C183.161 533.132 185.544 533.376 187.01 531.726C187.499 531.665 187.927 531.482 188.232 531.176C187.805 533.682 188.782 533.193 188.904 533.682C189.027 534.231 190.31 535.576 190.31 535.576C190.31 535.576 190.615 542.175 191.287 539.914C191.96 537.653 192.815 542.541 192.815 542.541C192.815 542.541 192.937 539.609 193.487 537.348C194.037 535.087 194.587 547.735 194.892 544.802C195.198 541.869 195.32 541.869 195.87 543.702C196.42 545.536 197.092 547.185 197.52 546.208C198.009 545.23 198.681 547.185 198.681 547.185C198.681 547.185 198.986 544.558 198.253 541.014C197.52 537.409 199.659 540.77 199.659 539.486C199.659 538.203 200.331 539.181 200.331 538.509C200.331 537.837 198.925 534.048 198.681 533.743C198.436 533.376 198.375 532.582 198.009 529.221C198.131 528.366 198.131 527.632 198.009 526.838C200.27 526.838 198.62 528.916 199.292 532.154C199.964 535.392 200.819 533.743 200.819 533.743C200.819 533.743 200.942 539.609 202.653 537.103C204.363 534.598 202.897 541.686 204.18 541.319C205.463 541.014 205.402 544.008 205.891 542.419C206.441 540.77 207.724 542.725 207.724 542.725C207.724 542.725 208.58 540.036 208.946 542.969C209.252 545.902 211.757 551.34 212.001 550.24C212.246 549.141 212.246 547.552 211.879 544.925C211.574 542.297 212.979 544.191 212.612 541.808C212.307 539.425 214.445 541.686 213.284 537.898C212.062 534.109 216.217 539.975 214.384 535.392C212.551 530.81 216.217 535.392 215.423 533.743C214.568 532.093 214.995 530.749 213.346 527.144C211.696 523.538 215.423 527.144 215.423 527.144C215.423 527.144 214.323 523.355 213.346 521.644C212.307 519.933 211.39 516.573 211.39 516.573C211.39 516.573 211.085 513.64 207.907 510.768C207.907 510.768 209.679 510.646 210.963 511.99C212.246 513.395 216.279 518.223 215.423 516.084C214.629 513.945 216.217 511.685 216.217 511.685C216.217 511.685 221.289 518.895 221.533 517.367C221.717 515.901 223.428 517.184 223.428 517.184C223.428 517.184 222.817 513.579 223.855 514.251C224.894 514.862 226.422 516.389 226.727 515.106C227.033 513.823 229.538 519.567 229.782 518.039C229.966 516.573 234.243 521.217 233.998 518.895C233.815 516.573 239.314 523.538 239.07 521.217C238.887 518.895 244.386 525.86 243.714 523.355C241.392 517.856 243.714 517.611 242.003 515.962C238.214 511.929 242.003 513.823 240.964 512.051C239.925 510.279 237.787 508.141 232.898 505.146C225.627 499.953 218.417 496.409 211.879 494.087C215.179 494.942 223.55 497.264 225.749 498.67C228.499 500.38 231.065 502.03 230.393 499.708C229.782 497.386 233.571 502.458 232.898 500.136C232.226 497.814 237.787 502.886 237.176 500.319C236.565 497.753 245.425 504.352 244.569 502.458C243.775 500.808 253.062 506.491 248.724 502.702Z" fill="#F2D0AC"/>
</g>
<g opacity="0.2">
<path d="M1446.72 105.702C1424.79 84.3163 1401.63 87.066 1401.63 87.066C1403.4 86.516 1404.62 85.7828 1407.5 86.1494C1411.71 86.6994 1407.68 84.133 1410.86 84.7441C1414.03 85.3551 1415.74 85.3551 1414.89 84.133C1414.03 82.8499 1420.39 86.4549 1419.35 84.133C1418.31 81.8111 1426.32 88.1658 1423.99 85.4773C1421.67 82.7888 1424.42 82.3611 1424.42 82.3611C1424.42 82.3611 1428.21 85.4162 1428.03 83.7053C1427.84 81.9944 1430.17 81.9944 1430.96 82.2999C1431.75 82.6055 1434.81 83.0332 1436.09 83.4609C1437.38 83.8886 1437.38 83.0332 1438.41 82.2999C1439.45 81.5667 1446.91 87.066 1444.95 84.9274C1440.98 80.2835 1446.42 82.2999 1446.42 82.2999C1446.42 82.2999 1447.7 81.9333 1444.95 80.0391C1442.2 78.1449 1445.38 77.4728 1438.84 75.3953C1432.3 73.2567 1438.41 73.6844 1433.34 73.0734C1428.27 72.4624 1430.78 71.6069 1426.99 71.3014C1417.7 71.2403 1423.38 69.4684 1420.63 69.5295C1417.88 69.5906 1414.28 70.8737 1410.92 70.8737C1407.56 70.8737 1396.93 73.0123 1396.93 73.0123C1396.93 73.0123 1400.1 70.6904 1407.07 69.5295C1414.03 68.3685 1406.21 67.6964 1411.71 67.2686C1417.21 66.7798 1415.32 65.8022 1419.53 65.1911C1423.75 64.5801 1417.64 62.1971 1421 61.7694C1424.36 61.3417 1429.25 63.4803 1428.64 61.7694C1428.03 60.0585 1435.6 61.1583 1437.5 60.9139C1439.39 60.6695 1436.03 58.8364 1436.89 58.0421C1437.74 57.3088 1439.64 57.7366 1438.6 55.9646C1437.56 54.1926 1444.95 54.9258 1444.95 54.9258C1444.95 54.9258 1443.91 52.8483 1435.66 52.8483C1427.42 52.8483 1433.53 51.5652 1429.55 51.8096C1425.52 52.054 1419.84 54.0704 1417.7 54.0704C1415.56 54.0704 1410.92 55.5369 1406.7 57.2477C1402.49 58.8975 1402.67 57.2477 1402.67 57.2477C1403.65 56.1479 1403.65 55.4758 1403.34 54.9258C1402.73 53.8871 1405.91 52.7873 1408.41 51.8096C1410.98 50.7709 1402.67 51.3208 1411.16 48.9988C1419.66 46.6769 1411.35 46.8602 1416.48 45.3327C1421.55 43.8051 1419.04 41.7887 1419.04 41.7887C1419.04 41.7887 1426.25 39.8945 1428.33 38.6113C1430.47 37.3282 1423.87 37.5726 1425.15 36.2894C1426.44 35.0063 1432.12 34.1508 1430.9 33.6009C1429.62 33.051 1425.58 34.1508 1419.9 33.6009C1414.16 33.051 1412.69 35.6784 1409.76 35.434C1406.82 35.2507 1404.44 38.7947 1402.79 39.0391C1401.08 39.2224 1399.61 38.8557 1393.93 43.6829C1388.19 48.5711 1389.72 43.6829 1389.72 43.6829C1389.72 43.6829 1382.93 51.0763 1380 52.9705C1377.07 54.8647 1382.75 46.1881 1380 48.7545C1377.25 51.3208 1372.55 59.753 1372.55 59.753L1374.5 54.6814C1374.5 54.6814 1377.07 48.7544 1377.74 47.288C1378.41 45.8215 1374.74 45.8215 1376.82 42.8275C1378.96 39.8945 1376.39 38.3669 1376.82 36.4727C1377.25 34.5786 1375.11 35.0063 1375.97 32.6844C1376.82 30.3624 1378.29 28.0406 1375.11 30.1181C1371.93 32.2567 1374.5 26.513 1375.72 22.0525C1377.01 17.5919 1374.44 19.4861 1376.33 15.6977C1378.23 11.9094 1377.19 9.58746 1377.62 8.3043C1378.04 7.02114 1375.05 6.16568 1375.48 4.69921C1375.91 3.23274 1376.94 -1.41108 1375.48 0.422008C1374.01 2.2551 1372.12 2.98832 1370.83 3.66046C1369.55 4.27149 1367.47 9.40414 1366.62 9.89296C1365.76 10.3818 1363.87 13.1925 1363.01 14.2313C1362.16 15.27 1360.69 19.1195 1359.16 21.4414C1357.64 23.1523 1357.51 29.0793 1357.33 32.2567C1357.15 35.434 1355.62 35.434 1354.76 38.6113C1353.91 41.7887 1356.23 53.6427 1356.23 53.6427C1352.2 43.4996 1347.31 36.7782 1346.94 39.4057C1346.58 42.0331 1344.13 38.3058 1341.14 35.4951C1338.14 32.6844 1337.41 35.6784 1332.34 30.9735C1327.27 26.2686 1327.82 31.5234 1322.99 27.7961C1318.1 24.0688 1320.36 28.1628 1313.03 24.6799C1305.7 21.197 1310.59 26.8185 1305.7 25.5353C1300.81 24.2522 1291.46 24.6188 1296.41 25.5353C1306.8 28.7127 1299.53 29.4459 1303.5 30.6069C1307.41 31.7067 1309.49 33.9675 1311.01 34.3341C1312.54 34.7008 1312.54 36.045 1313.83 36.595C1315.11 37.1449 1317.55 38.3058 1320.97 40.1389C1324.33 42.0331 1318.53 44.6606 1326.78 47.8379C1335.03 51.0153 1331.85 52.5428 1340.65 57.1867C1349.45 61.8916 1350.85 66.0466 1350.85 66.0466C1347.31 63.2969 1343.95 61.8916 1341.44 60.1196C1336.62 56.7589 1334.48 57.3699 1326.29 53.8871C1318.1 50.4042 1319.14 53.4594 1313.21 52.054C1307.29 50.7097 1309.55 53.7038 1307.9 53.7038C1306.25 53.7038 1299.71 56.2701 1296.47 56.7589C1292.5 57.1866 1284.07 60.4251 1285.35 60.5473C1286.63 60.6695 1286.45 61.2805 1285.6 63.4802C1284.68 65.6189 1286.94 65.2523 1286.94 65.2523C1286.94 65.2523 1286.94 65.2522 1291.77 63.8469C1296.59 62.4415 1292.68 65.5578 1297.39 64.2135C1302.09 62.8692 1298.12 66.0466 1301.48 65.4355C1306.92 64.3968 1299.53 68.3074 1301.48 67.6964C1310.28 64.9467 1311.01 66.4743 1312.11 66.7798C1313.15 67.0853 1314.99 67.8185 1315.9 68.1241C1316.82 68.4296 1320.97 70.0794 1320.97 70.0794C1316.21 69.4683 1312.73 69.3461 1311.69 69.3461C1308.51 69.2239 1306.55 70.6904 1304.11 70.8737C1301.67 70.9959 1296.53 74.9676 1291.22 76.6174C1285.9 78.2672 1286.82 79.9781 1285.6 81.0168C1280.59 83.8886 1270.44 91.7709 1275.27 89.9989C1280.28 87.8603 1277.53 92.8708 1279.06 92.0153C1286.51 87.3715 1286.94 90.9155 1286.94 90.9155C1286.94 90.9155 1288.47 91.0377 1293.29 88.3492C1298.12 85.5995 1296.47 89.3879 1297.39 89.0824C1298.31 88.7769 1299.53 87.2493 1303.44 84.6219C1307.35 81.9944 1306.62 84.8663 1307.84 84.6219C1309.06 84.3774 1316.09 84.6219 1316.09 84.6219C1303.07 88.5935 1290.48 96.3536 1287.37 98.8589C1283.58 102.036 1275.33 112.057 1278.75 110.835C1282.17 109.613 1282.54 107.047 1284.62 105.519C1286.7 103.991 1289.08 105.519 1290.97 103.991C1292.87 102.464 1292.5 104.358 1293.91 103.991C1295.31 103.625 1295.62 104.358 1298.37 102.464C1301.12 100.57 1301.48 103.503 1303.01 102.464C1308.02 98.8588 1309.18 101.059 1311.75 98.8589C1314.31 96.5981 1314.99 100.936 1316.21 99.8976C1317.43 98.8588 1318.77 98.4922 1320.36 98.6755C1321.89 98.8588 1323.97 97.148 1325.68 95.9259C1327.39 94.7038 1330.2 95.9259 1330.2 95.9259C1316.82 101.731 1304.78 115.784 1301.73 122.139C1298.18 129.655 1294.39 138.454 1297.02 136.926C1299.65 135.398 1301.54 129.777 1304.17 127.455C1306.8 125.133 1308.08 129.777 1312.42 120.428C1316.76 111.079 1318.04 117.251 1321.77 112.729C1325.5 108.208 1326.29 109.918 1328.73 107.658C1331.18 105.397 1334.72 104.969 1334.72 104.969C1333.99 105.519 1333.26 106.069 1332.46 106.68C1330.57 109.674 1330.57 109.674 1330.57 109.674L1326.05 113.218L1324.33 116.395C1324.33 116.395 1318.9 120.123 1316.45 124.461C1315.54 126.355 1316.82 125.561 1314.74 129.899C1313.83 132.527 1314.74 133.076 1311.93 136.865C1311.2 138.392 1307.78 145.847 1309.12 148.841C1308.94 152.385 1308.69 157.09 1308.81 159.351C1308.94 161.612 1311.93 154.463 1313.64 153.179C1315.35 151.896 1316.27 153.179 1317.8 149.024C1319.32 144.869 1320.97 147.497 1323.05 143.953C1325.13 140.409 1327.57 141.692 1329.22 139.065C1330.93 136.437 1332.28 130.999 1333.87 135.521C1334.29 137.415 1338.08 131.366 1339 128.372C1339 128.372 1339.61 120.489 1343.52 121.467C1341.5 122.2 1341.32 125.255 1341.32 125.255C1341.32 125.255 1340.16 127.822 1341.32 128.677C1339.86 130.571 1340.41 133.565 1341.32 134.176C1341.32 134.176 1336.74 139.187 1336.43 142.181C1336.56 143.647 1338.51 140.714 1337.66 142.975C1336.8 145.297 1339.06 143.953 1337.66 146.764C1337.23 148.23 1340.04 144.625 1338.88 148.413C1337.66 152.202 1339.98 148.963 1339.55 153.546C1339.12 156.235 1340.41 157.579 1340.41 157.579C1340.41 157.579 1342.36 150.674 1343.09 152.568C1343.77 154.463 1344.19 148.352 1344.87 151.591C1345.54 154.829 1346.21 146.825 1346.21 146.825C1346.21 146.825 1347.19 144.686 1347.68 147.069C1348.23 149.513 1348.9 141.936 1349.57 143.708C1350.24 145.48 1352.08 140.898 1352.08 138.942C1352.81 138.515 1353.42 138.026 1353.79 137.72C1354.83 137.72 1355.86 137.354 1356.72 136.804C1356.72 136.804 1354.46 141.814 1354.21 145.786C1354.09 147.069 1355.01 146.03 1354.21 150.246C1354.09 151.53 1355.62 149.085 1355.44 152.324C1355.25 155.562 1356.72 156.235 1356.72 156.235L1357.76 154.34C1357.76 154.34 1358.74 150.308 1358.92 151.652C1359.1 152.996 1361.12 147.558 1361.12 147.558C1361.24 147.986 1361.49 148.474 1361.85 149.085C1362.28 150.063 1360.57 150.43 1362.16 153.424C1362.71 154.707 1360.51 154.463 1361.73 158.19C1362.28 159.656 1359.9 159.534 1362.4 164.667C1363.26 166.439 1359.59 163.689 1362.89 170.594C1363.2 171.449 1360.51 170.655 1363.44 176.521C1363.99 177.865 1361.06 178.354 1362.4 181.531C1362.95 182.509 1363.26 182.875 1362.4 183.792C1361.55 184.647 1361.06 185.808 1362.59 188.558C1363.44 190.147 1360.69 188.802 1362.59 193.568C1363.56 195.89 1361.24 195.585 1362.4 198.212C1363.62 200.84 1361.79 201.817 1362.59 204.139C1363.38 206.461 1361 205.789 1363.56 211.166C1364.48 213.182 1361.24 210.616 1363.2 215.932C1363.2 216.971 1361.18 216.788 1362.95 221.187C1363.44 222.226 1361.91 222.409 1363.14 225.098C1363.44 226.442 1362.16 227.419 1362.95 229.986C1363.44 231.574 1362.1 232.247 1362.65 234.568C1363.2 236.89 1363.26 237.868 1363.26 237.868C1363.26 237.868 1361.79 238.174 1362.77 240.923C1363.5 243.001 1362.04 242.145 1362.95 245.017C1363.01 246.3 1361.91 245.261 1361.91 247.828C1361.67 248.683 1359.96 248.378 1361.91 251.677C1364.91 253.022 1374.81 252.227 1376.76 251.25C1377.49 249.233 1376.76 248.867 1376.27 248.989C1375.78 249.172 1375.72 244.65 1376.21 243.612C1376.7 242.573 1374.38 243.856 1375.97 238.418C1376.39 236.829 1374.68 236.89 1375.48 234.019C1376.27 231.147 1374.13 229.925 1375.05 226.503C1376.33 222.409 1373.28 226.014 1374.19 223.326C1375.05 220.637 1373.89 219.598 1374.38 218.621C1374.87 217.643 1373.77 216.971 1374.68 214.954C1375.66 212.938 1372.91 212.266 1374.26 209.516C1375.6 206.828 1373.16 205.85 1373.71 203.345C1375.29 199.129 1372.73 201.695 1374.01 198.884C1375.29 196.074 1373.52 195.218 1373.95 193.691C1374.38 192.163 1374.93 191.308 1374.19 190.33C1374.93 188.008 1372.97 188.497 1373.77 186.175C1374.56 183.853 1372 183.548 1373.34 181.531C1374.68 179.515 1373.95 178.843 1373.89 178.109C1373.83 177.376 1372.42 178.415 1373.71 175.176C1374.99 171.877 1373.16 173.832 1373.77 171.205C1374.38 168.577 1374.01 167.539 1374.01 167.539C1374.01 167.539 1372.67 167.233 1373.46 165.278C1374.26 163.384 1371.45 164.239 1372.55 161.917C1373.65 159.595 1373.52 159.656 1373.28 158.862C1373.03 158.068 1372.24 157.762 1373.34 155.257C1374.44 152.752 1371.57 155.196 1372.55 152.141C1373.52 149.085 1372.97 149.88 1372.97 149.88C1372.97 149.88 1371.57 149.88 1372.55 147.375C1373.52 144.869 1373.1 145.053 1373.1 145.053C1373.1 145.053 1371.2 144.503 1371.87 142.425C1372.06 141.875 1372.06 141.448 1372 141.081C1372 141.081 1373.34 140.898 1373.22 142.975C1373.1 145.053 1374.99 145.725 1374.99 145.725C1374.99 145.725 1376.64 147.986 1376.88 149.452C1377.13 150.919 1378.11 147.008 1379.45 150.185C1380.79 153.363 1380.43 147.13 1380.43 147.13C1380.43 147.13 1381.65 145.236 1380.49 143.097C1379.33 140.959 1382.32 143.525 1380.98 140.103C1379.69 136.743 1379.69 136.743 1379.69 136.743C1380.61 136.743 1381.16 136.132 1381.16 136.132C1381.16 136.132 1383.54 136.376 1385.01 134.726C1385.5 134.665 1385.93 134.482 1386.23 134.176C1385.8 136.682 1386.78 136.193 1386.9 136.682C1387.03 137.231 1388.31 138.576 1388.31 138.576C1388.31 138.576 1388.62 145.175 1389.29 142.914C1389.96 140.653 1390.81 145.541 1390.81 145.541C1390.81 145.541 1390.94 142.609 1391.49 140.348C1392.04 138.087 1392.59 150.735 1392.89 147.802C1393.2 144.869 1393.32 144.869 1393.87 146.702C1394.42 148.536 1395.09 150.185 1395.52 149.208C1396.01 148.23 1396.68 150.185 1396.68 150.185C1396.68 150.185 1396.99 147.558 1396.25 144.014C1395.52 140.409 1397.66 143.77 1397.66 142.486C1397.66 141.203 1398.33 142.181 1398.33 141.509C1398.33 140.837 1396.93 137.048 1396.68 136.743C1396.44 136.376 1396.38 135.582 1396.01 132.221C1396.13 131.366 1396.13 130.632 1396.01 129.838C1398.27 129.838 1396.62 131.916 1397.29 135.154C1397.96 138.392 1398.82 136.743 1398.82 136.743C1398.82 136.743 1398.94 142.609 1400.65 140.103C1402.36 137.598 1400.9 144.686 1402.18 144.319C1403.46 144.014 1403.4 147.008 1403.89 145.419C1404.44 143.77 1405.72 145.725 1405.72 145.725C1405.72 145.725 1406.58 143.036 1406.95 145.969C1407.25 148.902 1409.76 154.34 1410 153.24C1410.25 152.141 1410.25 150.552 1409.88 147.925C1409.57 145.297 1410.98 147.191 1410.61 144.808C1410.31 142.425 1412.45 144.686 1411.28 140.898C1410.06 137.109 1414.22 142.975 1412.38 138.392C1410.55 133.81 1414.22 138.392 1413.42 136.743C1412.57 135.093 1413 133.749 1411.35 130.144C1409.7 126.538 1413.42 130.144 1413.42 130.144C1413.42 130.144 1412.32 126.355 1411.35 124.644C1410.31 122.933 1409.39 119.573 1409.39 119.573C1409.39 119.573 1409.08 116.64 1405.91 113.768C1405.91 113.768 1407.68 113.646 1408.96 114.99C1410.25 116.395 1414.28 121.223 1413.42 119.084C1412.63 116.945 1414.22 114.685 1414.22 114.685C1414.22 114.685 1419.29 121.895 1419.53 120.367C1419.72 118.901 1421.43 120.184 1421.43 120.184C1421.43 120.184 1420.82 116.579 1421.86 117.251C1422.89 117.862 1424.42 119.389 1424.73 118.106C1425.03 116.823 1427.54 122.567 1427.78 121.039C1427.97 119.573 1432.24 124.217 1432 121.895C1431.82 119.573 1437.31 126.538 1437.07 124.217C1436.89 121.895 1442.39 128.86 1441.71 126.355C1439.39 120.856 1441.71 120.611 1440 118.962C1436.21 114.929 1440 116.823 1438.96 115.051C1437.93 113.279 1435.79 111.141 1430.9 108.146C1423.63 102.953 1416.42 99.4088 1409.88 97.0869C1413.18 97.9423 1421.55 100.264 1423.75 101.67C1426.5 103.38 1429.07 105.03 1428.39 102.708C1427.78 100.386 1431.57 105.458 1430.9 103.136C1430.23 100.814 1435.79 105.886 1435.18 103.319C1434.56 100.753 1443.42 107.352 1442.57 105.458C1441.77 103.808 1451.06 109.491 1446.72 105.702Z" fill="#F2D0AC"/>
</g>
<g opacity="0.2">
<path d="M1248.13 547.828C1248.13 547.828 1253.93 541.528 1266.53 526.028C1279.03 510.528 1309.43 494.528 1333.33 490.828C1357.23 487.128 1390.23 497.028 1390.23 497.028L1387.43 500.828L1390.23 502.528C1390.23 502.528 1382.93 522.428 1360.13 529.428C1340.53 546.928 1320.43 553.328 1307.63 554.228C1299.13 556.528 1299.13 556.528 1299.13 556.528L1298.53 560.328C1298.53 560.328 1286.53 560.628 1281.63 560.328C1274.33 563.228 1265.33 565.028 1265.33 565.028C1265.33 565.028 1259.83 564.728 1256.53 565.028C1253.33 565.328 1248.03 565.028 1248.03 565.028C1248.03 565.028 1242.73 567.028 1238.43 572.628C1234.03 578.128 1225.93 590.428 1206.33 600.928C1213.93 593.028 1224.43 579.628 1220.63 568.528C1216.83 557.428 1203.13 562.728 1198.13 567.628C1195.83 569.128 1196.63 564.128 1204.53 559.128C1212.43 554.128 1225.23 551.528 1232.83 551.528C1240.43 551.528 1248.13 547.828 1248.13 547.828Z" fill="#F2D0AC"/>
</g>
<g opacity="0.2">
<path d="M51.1261 184.828C51.1261 184.828 56.9261 178.528 69.5261 163.028C82.0261 147.528 112.426 131.528 136.326 127.828C160.226 124.128 193.226 134.028 193.226 134.028L190.426 137.828L193.226 139.528C193.226 139.528 185.926 159.428 163.126 166.428C143.526 183.928 123.426 190.328 110.626 191.228C102.126 193.528 102.126 193.528 102.126 193.528L101.526 197.328C101.526 197.328 89.5261 197.628 84.6261 197.328C77.3261 200.228 68.3262 202.028 68.3262 202.028C68.3262 202.028 62.8261 201.728 59.5261 202.028C56.3261 202.328 51.0261 202.028 51.0261 202.028C51.0261 202.028 45.7262 204.028 41.4262 209.628C37.0262 215.128 28.9262 227.428 9.32618 237.928C16.9262 230.028 27.4261 216.628 23.6261 205.528C19.8261 194.428 6.12611 199.728 1.12611 204.628C-1.17389 206.128 -0.373868 201.128 7.52613 196.128C15.4261 191.128 28.2262 188.528 35.8262 188.528C43.4262 188.528 51.1261 184.828 51.1261 184.828Z" fill="#F2D0AC"/>
</g>
</svg>
