<svg width="1687" height="974" viewBox="0 0 1687 974" fill="none" xmlns="http://www.w3.org/2000/svg">
<g opacity="0.2">
<path d="M806.993 649.73C805.759 649.977 804.773 650.471 803.539 651.706V653.187C804.773 651.952 805.759 651.459 806.746 651.459C808.473 651.212 809.706 652.199 809.953 654.421C809.953 655.162 809.953 655.903 809.953 656.643C807.733 656.643 806.746 656.643 805.513 656.89C803.539 657.137 802.799 658.125 803.046 660.593C803.292 661.828 803.786 664.544 804.773 668L806.499 667.259C805.513 664.05 804.773 661.334 804.526 660.347C804.279 659.359 804.773 658.865 806.006 658.618C806.993 658.618 807.979 658.371 810.446 658.371L811.433 657.384C811.68 655.903 811.68 654.915 811.68 653.927C811.186 651.212 809.46 649.484 806.993 649.73Z" fill="#F2E9E4"/>
<path d="M812.914 639.115L816.368 657.384L818.094 656.891L814.394 638.621L812.914 639.115Z" fill="#F2E9E4"/>
<path d="M836.596 638.866L834.623 637.879L833.636 639.854L835.609 640.842L836.596 638.866Z" fill="#F2E9E4"/>
<path d="M832.893 640.349L830.92 639.361L830.18 641.336L832.153 642.324L832.893 640.349Z" fill="#F2E9E4"/>
<path d="M984.356 597.638C982.876 596.897 980.903 597.144 978.683 599.119L977.449 600.106C976.216 601.094 974.736 601.094 973.256 600.353H973.009C973.009 600.353 973.009 600.353 973.009 600.106C972.022 599.366 971.282 598.625 970.789 597.884C971.036 597.884 971.036 597.638 971.282 597.391L974.736 593.687L973.009 592.947L970.049 596.156C969.309 596.897 968.322 596.897 967.089 595.909C966.349 595.416 965.855 594.922 965.362 594.181C965.609 594.181 965.609 593.934 965.855 593.687L968.816 590.725L967.089 589.984L964.869 592.453C964.129 593.194 963.142 593.194 961.908 592.206C960.922 591.465 960.182 590.725 959.688 590.231C959.935 590.231 959.935 589.984 960.182 589.737L962.648 587.268L960.922 586.528L959.195 588.503C958.455 589.243 957.221 589.243 955.988 588.009C955.001 587.022 947.848 580.109 942.174 581.096C933.54 582.331 913.066 605.291 891.358 621.092C875.57 632.695 849.668 646.027 839.801 648.99C839.554 648.99 839.308 649.237 839.061 649.237C838.321 649.484 837.581 649.484 837.088 649.484C837.088 649.237 837.088 648.99 837.088 648.743L836.101 643.805L834.621 644.793L835.361 648.99C835.608 649.977 835.114 650.471 833.141 651.212L832.154 651.459L831.414 651.706C829.934 652.199 828.947 651.706 827.96 649.977L824.507 644.299L823.273 645.533L826.48 650.718C826.974 651.459 827.467 651.952 827.96 652.446C826.974 652.94 825.987 653.434 824.754 653.681C823.52 653.928 822.287 654.174 820.807 654.421L821.3 656.149C822.533 656.149 823.767 655.903 825.247 655.656C826.727 655.162 828.207 654.668 829.687 653.434C830.427 653.681 831.167 653.681 832.154 653.434C832.647 653.187 833.387 652.94 833.634 652.94C835.854 652.199 836.841 651.212 837.088 650.224L838.074 650.965C838.814 650.965 839.554 650.965 840.541 650.471C858.056 645.78 900.485 621.092 914.299 611.71C925.893 603.81 935.267 594.675 941.434 590.972C944.887 588.997 950.808 594.675 951.548 595.169C953.275 596.403 954.508 596.65 955.741 596.403V597.638C956.235 598.378 956.728 598.872 957.715 599.613C959.195 600.6 960.428 601.094 961.662 600.6V601.835C962.155 602.328 962.402 602.822 963.142 603.316C964.622 604.304 965.855 604.55 966.842 604.304V605.538C967.335 606.032 967.829 606.772 968.816 607.513C968.816 607.513 969.062 607.513 969.062 607.76C970.049 608.254 971.776 608.747 972.763 608.501C973.996 609.982 976.463 610.969 978.683 612.204L980.163 611.957C980.656 611.463 980.903 610.969 981.15 610.476C981.643 609.982 985.343 604.304 985.59 603.81C986.823 601.094 986.33 598.625 984.356 597.638ZM983.616 603.316C983.37 603.81 982.876 604.55 982.383 605.044C980.656 604.057 979.176 602.822 977.943 601.588L978.189 601.341L979.916 600.106C981.396 598.872 982.63 598.625 983.616 599.119C984.85 599.86 984.85 601.341 983.616 603.316Z" fill="#F2E9E4"/>
<path d="M1011 605.045L1010.26 603.07L1008.28 604.058L1009.02 606.033L1011 605.045Z" fill="#F2E9E4"/>
<path d="M1003.85 611.711C1004.59 609.982 1006.31 609.242 1008.04 610.229C1008.78 610.476 1009.52 610.97 1010.51 611.711L1011 610.229C1010.01 609.242 1009.03 608.748 1008.53 608.501C1006.07 607.267 1003.35 608.254 1002.37 610.97C1001.87 612.204 1001.87 613.686 1002.37 615.167C1001.38 614.673 1000.64 614.426 999.651 613.932C999.405 613.932 999.158 613.686 999.158 613.686C997.678 612.945 997.431 611.957 997.678 609.982L998.665 603.316L996.938 603.563L995.951 609.735C995.951 610.476 995.951 611.217 995.951 611.957C994.965 611.711 993.978 611.464 992.744 610.97C991.758 610.476 990.524 609.735 989.291 608.748L986.084 614.426C987.071 615.167 988.057 615.908 989.291 616.648C990.771 617.389 992.991 617.636 994.718 617.883C995.211 618.623 995.705 619.117 996.445 619.364C996.691 619.364 997.925 619.858 997.678 619.858C1000.64 621.092 1003.85 622.08 1006.81 622.82L1009.27 617.389C1007.55 616.895 1005.82 616.401 1004.34 615.661C1003.6 614.426 1003.35 612.945 1003.85 611.711Z" fill="#F2E9E4"/>
<path d="M1291.97 648.249C1288.76 645.039 1288.02 641.83 1285.55 640.842C1284.81 640.595 1283.83 640.595 1282.84 640.595L1281.85 641.83C1283.09 641.83 1283.83 641.83 1284.57 642.323C1286.54 643.064 1286.79 645.039 1289.5 648.002C1286.05 648.249 1283.83 648.495 1281.36 647.755L1228.57 626.77L1180.22 607.512L1179.73 607.266C1178.25 606.772 1177.75 606.031 1178.25 604.55L1182.93 590.477L1181.21 590.23L1176.77 603.809C1176.52 604.303 1176.52 605.044 1176.52 605.537C1175.53 605.537 1174.79 605.29 1174.3 605.29C1174.05 605.29 1174.05 605.29 1173.81 605.29H1173.56C1172.33 605.044 1172.08 604.55 1172.08 604.303C1171.83 604.056 1171.83 603.562 1171.83 602.822L1172.82 594.428L1171.09 594.674L1170.85 595.909C1166.9 596.896 1164.19 598.625 1163.94 601.093C1163.94 601.34 1163.69 605.537 1163.69 606.031C1163.94 608.006 1165.67 609.488 1168.87 609.981L1169.86 609.488C1169.86 609.488 1169.86 609.981 1170.6 610.722C1170.6 610.722 1170.85 610.722 1170.85 610.969C1170.85 610.969 1170.85 610.969 1171.09 610.969C1171.83 611.463 1172.82 611.71 1174.55 611.956H1174.79C1175.29 611.956 1176.03 611.956 1176.52 611.956C1176.77 612.45 1177.26 612.944 1178.25 613.438H1178.49C1178.74 613.438 1178.74 613.438 1178.99 613.685L1179.73 613.931L1280.87 650.224C1283.83 651.458 1286.54 650.471 1290.98 650.471L1291.97 648.249ZM1170.35 602.575C1170.35 603.069 1170.35 603.562 1170.35 603.809C1167.15 603.315 1165.67 602.081 1165.91 600.847C1166.16 599.365 1167.89 598.131 1171.09 597.39L1170.35 602.575Z" fill="#F2E9E4"/>
<path d="M1297.89 646.52L1296.16 647.013C1296.41 651.457 1296.16 653.185 1295.67 654.173C1294.68 656.642 1291.72 657.876 1288.27 656.889L1288.52 658.864C1292.46 659.604 1295.92 657.876 1297.15 654.667C1297.89 653.432 1298.38 651.21 1297.89 646.52Z" fill="#F2E9E4"/>
<path d="M1171.09 589.983L1169.86 588.502L1168.13 589.736L1169.61 591.465L1171.09 589.983Z" fill="#F2E9E4"/>
<path d="M1175.04 590.478L1173.81 588.75L1172.08 590.231L1173.32 591.713L1175.04 590.478Z" fill="#F2E9E4"/>
<path d="M1153.33 589.243L1151.61 588.256L1150.37 589.984L1152.1 591.218L1153.33 589.243Z" fill="#F2E9E4"/>
<path d="M1155.8 599.119C1155.31 597.885 1154.57 595.663 1153.83 593.688L1152.35 594.675C1153.58 597.391 1154.32 599.613 1154.57 600.6C1154.81 601.588 1154.32 602.082 1153.58 602.328C1152.59 602.575 1151.85 602.822 1151.11 603.069C1149.88 603.316 1149.14 603.563 1148.4 603.563C1147.91 603.563 1147.66 603.563 1147.41 603.563C1147.41 603.563 1147.41 603.563 1147.17 603.563C1146.92 603.563 1146.92 603.563 1146.67 603.563C1146.43 603.563 1146.18 603.563 1146.18 603.563C1146.43 603.316 1146.67 603.069 1146.92 602.822L1146.67 601.094C1141.99 601.341 1139.27 599.613 1136.81 600.6C1136.07 601.094 1135.33 601.588 1134.83 602.575L1135.08 604.057C1136.07 603.069 1136.56 602.822 1137.3 602.328C1139.27 601.341 1140.75 602.575 1144.95 602.822C1142.73 605.538 1141.49 607.513 1139.27 608.501C1126.45 613.438 1120.53 632.202 1120.53 632.202C1111.4 661.087 1081.3 652.446 1059.84 644.546C1041.09 637.633 1022.84 626.77 1022.1 626.523L1022.35 626.03C1023.83 621.832 1023.33 618.623 1020.87 617.882C1018.89 617.142 1016.18 618.87 1015.19 621.092C1014.95 621.339 1013.71 625.783 1013.71 626.276C1013.71 628.498 1015.69 629.98 1018.4 631.214C1017.17 632.695 1015.19 633.93 1010.51 632.695L1010.75 634.671C1015.93 635.905 1018.65 633.93 1020.13 631.955L1024.57 633.683C1024.57 633.683 1060.83 650.471 1084.51 653.187C1107.95 655.903 1117.07 647.015 1122.25 632.695C1128.17 616.895 1139.27 612.451 1140.51 611.957C1143.22 610.476 1144.95 610.229 1146.92 608.007C1146.92 608.007 1148.15 609.241 1149.39 609.488C1149.63 609.488 1149.88 609.488 1150.13 609.488C1150.37 609.488 1150.62 609.488 1150.87 609.488H1151.11H1151.36C1153.58 608.994 1155.31 608.501 1155.31 608.501C1157.53 608.007 1158.27 606.526 1158.02 604.55C1157.28 603.316 1156.05 599.366 1155.8 599.119ZM1020.13 625.289C1016.92 624.054 1015.69 622.573 1016.18 621.339C1016.67 619.857 1018.4 618.623 1019.39 619.117C1021.11 619.61 1021.36 622.079 1020.13 625.289Z" fill="#F2E9E4"/>
</g>
<g opacity="0.2">
<path d="M395.993 346.73C394.759 346.977 393.773 347.471 392.539 348.706V350.187C393.773 348.952 394.759 348.459 395.746 348.459C397.473 348.212 398.706 349.199 398.953 351.421C398.953 352.162 398.953 352.903 398.953 353.643C396.733 353.643 395.746 353.643 394.513 353.89C392.539 354.137 391.799 355.125 392.046 357.593C392.292 358.828 392.786 361.544 393.773 365L395.499 364.259C394.513 361.05 393.773 358.334 393.526 357.347C393.279 356.359 393.773 355.865 395.006 355.618C395.993 355.618 396.979 355.371 399.446 355.371L400.433 354.384C400.68 352.903 400.68 351.915 400.68 350.927C400.186 348.212 398.46 346.484 395.993 346.73Z" fill="#F2E9E4"/>
<path d="M401.914 336.115L405.368 354.384L407.094 353.891L403.394 335.621L401.914 336.115Z" fill="#F2E9E4"/>
<path d="M425.596 335.866L423.623 334.879L422.636 336.854L424.609 337.842L425.596 335.866Z" fill="#F2E9E4"/>
<path d="M421.893 337.349L419.92 336.361L419.18 338.336L421.153 339.324L421.893 337.349Z" fill="#F2E9E4"/>
<path d="M573.356 294.638C571.876 293.897 569.903 294.144 567.683 296.119L566.449 297.106C565.216 298.094 563.736 298.094 562.256 297.353H562.009C562.009 297.353 562.009 297.353 562.009 297.106C561.022 296.366 560.282 295.625 559.789 294.884C560.036 294.884 560.036 294.638 560.282 294.391L563.736 290.687L562.009 289.947L559.049 293.156C558.309 293.897 557.322 293.897 556.089 292.909C555.349 292.416 554.855 291.922 554.362 291.181C554.609 291.181 554.609 290.934 554.855 290.687L557.816 287.725L556.089 286.984L553.869 289.453C553.129 290.194 552.142 290.194 550.908 289.206C549.922 288.465 549.182 287.725 548.688 287.231C548.935 287.231 548.935 286.984 549.182 286.737L551.648 284.268L549.922 283.528L548.195 285.503C547.455 286.243 546.221 286.243 544.988 285.009C544.001 284.022 536.848 277.109 531.174 278.096C522.54 279.331 502.066 302.291 480.358 318.092C464.57 329.695 438.668 343.027 428.801 345.99C428.554 345.99 428.308 346.237 428.061 346.237C427.321 346.484 426.581 346.484 426.088 346.484C426.088 346.237 426.088 345.99 426.088 345.743L425.101 340.805L423.621 341.793L424.361 345.99C424.608 346.977 424.114 347.471 422.141 348.212L421.154 348.459L420.414 348.706C418.934 349.199 417.947 348.706 416.96 346.977L413.507 341.299L412.273 342.533L415.48 347.718C415.974 348.459 416.467 348.952 416.96 349.446C415.974 349.94 414.987 350.434 413.754 350.681C412.52 350.928 411.287 351.174 409.807 351.421L410.3 353.149C411.533 353.149 412.767 352.903 414.247 352.656C415.727 352.162 417.207 351.668 418.687 350.434C419.427 350.681 420.167 350.681 421.154 350.434C421.647 350.187 422.387 349.94 422.634 349.94C424.854 349.199 425.841 348.212 426.088 347.224L427.074 347.965C427.814 347.965 428.554 347.965 429.541 347.471C447.056 342.78 489.485 318.092 503.299 308.71C514.893 300.81 524.267 291.675 530.434 287.972C533.887 285.997 539.808 291.675 540.548 292.169C542.275 293.403 543.508 293.65 544.741 293.403V294.638C545.235 295.378 545.728 295.872 546.715 296.613C548.195 297.6 549.428 298.094 550.662 297.6V298.835C551.155 299.328 551.402 299.822 552.142 300.316C553.622 301.304 554.855 301.55 555.842 301.304V302.538C556.335 303.032 556.829 303.772 557.816 304.513C557.816 304.513 558.062 304.513 558.062 304.76C559.049 305.254 560.776 305.747 561.763 305.501C562.996 306.982 565.463 307.969 567.683 309.204L569.163 308.957C569.656 308.463 569.903 307.969 570.15 307.476C570.643 306.982 574.343 301.304 574.59 300.81C575.823 298.094 575.33 295.625 573.356 294.638ZM572.616 300.316C572.37 300.81 571.876 301.55 571.383 302.044C569.656 301.057 568.176 299.822 566.943 298.588L567.189 298.341L568.916 297.106C570.396 295.872 571.63 295.625 572.616 296.119C573.85 296.86 573.85 298.341 572.616 300.316Z" fill="#F2E9E4"/>
<path d="M599.997 302.045L599.257 300.07L597.283 301.058L598.023 303.033L599.997 302.045Z" fill="#F2E9E4"/>
<path d="M592.845 308.711C593.585 306.982 595.312 306.242 597.039 307.229C597.779 307.476 598.519 307.97 599.506 308.711L599.999 307.229C599.012 306.242 598.025 305.748 597.532 305.501C595.065 304.267 592.352 305.254 591.365 307.97C590.872 309.204 590.872 310.686 591.365 312.167C590.378 311.673 589.638 311.426 588.651 310.932C588.405 310.932 588.158 310.686 588.158 310.686C586.678 309.945 586.431 308.957 586.678 306.982L587.665 300.316L585.938 300.563L584.951 306.735C584.951 307.476 584.951 308.217 584.951 308.957C583.965 308.711 582.978 308.464 581.744 307.97C580.758 307.476 579.524 306.735 578.291 305.748L575.084 311.426C576.071 312.167 577.057 312.908 578.291 313.648C579.771 314.389 581.991 314.636 583.718 314.883C584.211 315.623 584.705 316.117 585.445 316.364C585.691 316.364 586.925 316.858 586.678 316.858C589.638 318.092 592.845 319.08 595.805 319.82L598.272 314.389C596.545 313.895 594.819 313.401 593.338 312.661C592.598 311.426 592.352 309.945 592.845 308.711Z" fill="#F2E9E4"/>
<path d="M880.968 345.249C877.761 342.039 877.021 338.83 874.554 337.842C873.814 337.595 872.827 337.595 871.84 337.595L870.854 338.83C872.087 338.83 872.827 338.83 873.567 339.323C875.541 340.064 875.787 342.039 878.501 345.002C875.047 345.249 872.827 345.495 870.36 344.755L817.571 323.77L769.221 304.512L768.728 304.266C767.248 303.772 766.754 303.031 767.248 301.55L771.934 287.477L770.208 287.23L765.767 300.809C765.521 301.303 765.521 302.044 765.521 302.537C764.534 302.537 763.794 302.29 763.301 302.29C763.054 302.29 763.054 302.29 762.807 302.29H762.561C761.327 302.044 761.081 301.55 761.081 301.303C760.834 301.056 760.834 300.562 760.834 299.822L761.821 291.428L760.094 291.674L759.847 292.909C755.9 293.896 753.187 295.625 752.94 298.093C752.94 298.34 752.693 302.537 752.693 303.031C752.94 305.006 754.667 306.488 757.874 306.981L758.86 306.488C758.86 306.488 758.86 306.981 759.6 307.722C759.6 307.722 759.847 307.722 759.847 307.969C759.847 307.969 759.847 307.969 760.094 307.969C760.834 308.463 761.821 308.71 763.547 308.956H763.794C764.287 308.956 765.027 308.956 765.521 308.956C765.768 309.45 766.261 309.944 767.248 310.438H767.494C767.741 310.438 767.741 310.438 767.988 310.685L768.728 310.931L869.867 347.224C872.827 348.458 875.541 347.471 879.981 347.471L880.968 345.249ZM759.354 299.575C759.354 300.069 759.354 300.562 759.354 300.809C756.147 300.315 754.667 299.081 754.914 297.847C755.16 296.365 756.887 295.131 760.094 294.39L759.354 299.575Z" fill="#F2E9E4"/>
<path d="M886.889 343.52L885.162 344.013C885.409 348.457 885.162 350.185 884.669 351.173C883.682 353.642 880.722 354.876 877.269 353.889L877.515 355.864C881.462 356.604 884.916 354.876 886.149 351.667C886.889 350.432 887.383 348.21 886.889 343.52Z" fill="#F2E9E4"/>
<path d="M760.094 286.983L758.861 285.502L757.134 286.736L758.614 288.465L760.094 286.983Z" fill="#F2E9E4"/>
<path d="M764.042 287.478L762.809 285.75L761.082 287.231L762.315 288.713L764.042 287.478Z" fill="#F2E9E4"/>
<path d="M742.333 286.243L740.606 285.256L739.373 286.984L741.1 288.218L742.333 286.243Z" fill="#F2E9E4"/>
<path d="M744.801 296.119C744.308 294.885 743.568 292.663 742.828 290.688L741.348 291.675C742.581 294.391 743.321 296.613 743.568 297.6C743.814 298.588 743.321 299.082 742.581 299.328C741.594 299.575 740.854 299.822 740.114 300.069C738.881 300.316 738.141 300.563 737.401 300.563C736.907 300.563 736.661 300.563 736.414 300.563C736.414 300.563 736.414 300.563 736.167 300.563C735.921 300.563 735.921 300.563 735.674 300.563C735.427 300.563 735.181 300.563 735.181 300.563C735.427 300.316 735.674 300.069 735.921 299.822L735.674 298.094C730.987 298.341 728.274 296.613 725.807 297.6C725.067 298.094 724.327 298.588 723.833 299.575L724.08 301.057C725.067 300.069 725.56 299.822 726.3 299.328C728.274 298.341 729.754 299.575 733.947 299.822C731.727 302.538 730.494 304.513 728.274 305.501C715.446 310.438 709.526 329.202 709.526 329.202C700.399 358.087 670.303 349.446 648.842 341.546C630.094 334.633 611.84 323.77 611.1 323.523L611.347 323.03C612.827 318.832 612.333 315.623 609.867 314.882C607.893 314.142 605.179 315.87 604.193 318.092C603.946 318.339 602.713 322.783 602.713 323.276C602.713 325.498 604.686 326.98 607.4 328.214C606.166 329.695 604.193 330.93 599.506 329.695L599.752 331.671C604.933 332.905 607.646 330.93 609.126 328.955L613.567 330.683C613.567 330.683 649.829 347.471 673.51 350.187C696.945 352.903 706.072 344.015 711.253 329.695C717.173 313.895 728.274 309.451 729.507 308.957C732.221 307.476 733.947 307.229 735.921 305.007C735.921 305.007 737.154 306.241 738.388 306.488C738.634 306.488 738.881 306.488 739.128 306.488C739.374 306.488 739.621 306.488 739.868 306.488H740.114H740.361C742.581 305.994 744.308 305.501 744.308 305.501C746.528 305.007 747.268 303.526 747.021 301.55C746.281 300.316 745.048 296.366 744.801 296.119ZM609.126 322.289C605.919 321.054 604.686 319.573 605.18 318.339C605.673 316.857 607.4 315.623 608.386 316.117C610.113 316.61 610.36 319.079 609.126 322.289Z" fill="#F2E9E4"/>
</g>
<g opacity="0.2">
<path d="M1383.78 53.1723L1393.61 43.7031V56.4502L1407.81 55.9645L1397.86 65.4338L1407.81 74.4173L1394.22 74.903L1394.58 87.65L1384.63 79.0306L1375.28 88.4999V75.2672L1360.47 75.9956L1370.54 66.1622L1360.47 57.2999L1374.43 56.9358L1374.19 44.1888L1383.78 53.1723Z" fill="#F2D0AC"/>
<path d="M1470.34 52.9302L1480.17 43.4609V56.208L1494.37 55.7225L1484.42 65.1916L1494.37 74.1753L1480.78 74.6609L1481.14 87.408L1471.18 78.9099L1461.84 88.2577V75.025L1447.03 75.7536L1457.22 65.92L1447.03 57.0579L1460.99 56.6936L1460.74 43.9466L1470.34 52.9302Z" fill="#F2D0AC"/>
<path d="M1427.72 10.3189L1437.56 0.849609V13.7181L1451.88 13.2325L1441.81 22.5803L1451.88 31.564L1438.28 32.0496L1438.65 44.7966L1428.69 36.2986L1419.22 45.7677V32.5351L1404.41 33.1421L1414.61 23.3087L1404.41 14.4465L1418.38 14.0823L1418.25 1.33524L1427.72 10.3189Z" fill="#F2D0AC"/>
<path d="M1470.34 136.575L1480.17 127.105V139.974L1494.37 139.488L1484.42 148.836L1494.37 157.82L1480.78 158.305L1481.14 171.052L1471.18 162.554L1461.84 172.024V158.791L1447.03 159.398L1457.22 149.565L1447.03 140.702L1460.99 140.338L1460.74 127.591L1470.34 136.575Z" fill="#F2D0AC"/>
<path d="M1336.31 136.575L1346.26 127.105V139.974L1360.47 139.488L1350.51 148.836L1360.47 157.82L1346.87 158.305L1347.23 171.052L1337.28 162.554L1327.81 172.024V158.791L1313 159.398L1323.2 149.565L1313 140.702L1326.96 140.338L1326.84 127.591L1336.31 136.575Z" fill="#F2D0AC"/>
<path d="M1427.24 179.551L1437.19 170.203V182.95L1451.4 182.465L1441.44 191.934L1451.4 200.796L1437.8 201.282L1438.16 214.15L1428.21 205.531L1418.74 215V201.767L1404.05 202.496L1414.13 192.541L1404.05 183.679L1418.01 183.436L1417.77 170.689L1427.24 179.551Z" fill="#F2D0AC"/>
<path d="M1556.89 136.332L1566.73 126.863V139.732L1580.93 139.246L1570.98 148.594L1580.93 157.577L1567.33 158.063L1567.82 170.81L1557.74 162.312L1548.4 171.781V158.549L1533.58 159.156L1543.78 149.322L1533.58 140.46L1547.55 140.096L1547.42 127.349L1556.89 136.332Z" fill="#F2D0AC"/>
<path d="M1599.87 179.309L1609.82 169.961V182.708L1624.03 182.222L1613.95 191.692L1624.03 200.554L1610.43 201.039L1610.79 213.908L1600.84 205.288L1591.37 214.758V201.525L1576.56 202.253L1586.76 192.299L1576.56 183.436L1590.52 183.194L1590.4 170.447L1599.87 179.309Z" fill="#F2D0AC"/>
<path d="M1662.03 13.3541L1671.86 3.88477V16.6318L1686.06 16.1462L1676.11 25.6155L1686.06 34.5991L1672.47 34.9632L1672.83 47.8318L1662.88 39.2122L1653.53 48.6815V35.4489L1638.72 36.1772L1648.79 26.2225L1638.72 17.3602L1652.68 17.1174L1652.44 4.3704L1662.03 13.3541Z" fill="#F2D0AC"/>
<path d="M1600.6 93.8422L1610.43 84.373V97.1201L1624.76 96.6345L1614.68 106.104L1624.76 114.966L1611.16 115.452L1611.52 128.32L1601.57 119.701L1592.1 129.17V115.937L1577.29 116.666L1587.49 106.711L1577.29 97.8485L1591.25 97.6057L1591.13 84.8587L1600.6 93.8422Z" fill="#F2D0AC"/>
<path d="M1513.67 9.46921L1523.63 0V12.747L1537.83 12.3828L1527.88 21.7307L1537.83 30.7142L1524.24 31.1998L1524.6 43.9469L1514.65 35.4488L1505.3 44.7968V31.6855L1490.49 32.2925L1500.56 22.4591L1490.49 13.5968L1504.45 13.2326L1504.21 0.485557L1513.67 9.46921Z" fill="#F2D0AC"/>
<path d="M1557.74 50.3814L1567.58 40.9121V53.6591L1581.9 53.1735L1571.83 62.6428L1581.9 71.6265L1568.18 72.1121L1568.67 84.8591L1558.71 76.3611L1549.25 85.7089V72.4762L1534.43 73.2046L1544.63 63.3712L1534.43 54.509L1548.4 54.1448L1548.27 41.3977L1557.74 50.3814Z" fill="#F2D0AC"/>
</g>
<g opacity="0.2">
<path d="M73.3269 804.265C72.9277 803.201 69.4676 803.467 65.8744 802.402C62.4143 801.338 60.8174 803.866 60.8174 803.866C60.8174 803.866 59.2204 803.866 60.0189 805.729C58.555 809.589 62.2813 813.714 60.0189 815.71C57.7565 817.84 55.4942 813.448 53.7641 812.383C52.0341 811.319 46.7109 809.322 43.1177 808.923C41.92 807.06 40.0569 807.06 37.7945 807.326C35.5322 807.592 32.6044 810.52 29.2774 812.25C25.8173 813.98 25.1519 816.775 25.1519 816.775C25.1519 816.775 22.2242 819.17 21.5588 821.033C20.3611 824.627 22.0911 831.946 22.6234 834.741C23.1557 837.535 20.7603 840.729 20.4941 848.182C22.7565 856.566 21.958 864.418 21.958 864.418C21.8249 866.946 27.0151 866.414 27.0151 866.414C27.0151 866.414 26.2166 864.817 24.0873 863.353C23.6881 856.033 23.8211 852.174 25.8173 850.178C27.0151 852.706 30.209 864.151 30.7413 864.684C31.1405 865.216 34.2014 866.148 34.4675 864.95C34.6006 863.486 32.7375 863.22 31.1405 857.231C29.5436 851.243 31.0075 839.132 31.939 836.205C32.8706 833.277 35.1329 832.878 35.3991 829.417C36.7299 829.95 41.92 829.417 41.92 829.417L47.5094 830.881C47.5094 830.881 48.0417 841.927 47.5094 845.653C48.9733 848.714 47.5094 852.973 47.5094 858.961C47.5094 865.083 50.0379 864.018 50.0379 864.018C50.0379 864.018 49.3725 865.615 52.0341 865.615C54.6957 865.615 57.0911 865.083 54.6957 864.418C52.4333 863.752 51.901 858.562 52.3003 851.775C54.1634 846.585 53.0987 840.463 53.0987 837.935C53.0987 835.406 55.228 828.885 55.228 828.885C55.228 828.885 55.228 828.885 56.0265 825.691C60.6843 826.091 63.2128 825.292 65.6083 822.364C68.0037 819.57 67.4714 813.714 67.4714 811.851C67.4714 809.988 71.1976 808.657 73.1938 807.992C75.19 807.193 74.6577 804.931 73.3269 804.265ZM25.285 848.581C24.6196 846.851 25.1519 839.132 27.1481 837.003C27.0151 843.79 25.285 848.581 25.285 848.581Z" fill="#F2E9E4"/>
<path d="M52.8328 879.189C52.4335 878.125 48.9734 878.391 45.3803 877.326C41.9202 876.261 40.3232 878.79 40.3232 878.79C40.3232 878.79 38.7263 878.79 39.5248 880.653C38.0609 884.512 41.7871 888.638 39.5248 890.634C37.2624 892.763 35 888.372 33.27 887.307C31.54 886.242 26.2168 884.246 22.6236 883.847C21.4259 881.984 19.5628 881.984 17.3004 882.25C15.1711 882.516 12.1103 885.444 8.78328 887.174C5.3232 888.904 4.6578 891.699 4.6578 891.699C4.6578 891.699 1.73004 894.094 1.06464 895.957C-0.133081 899.55 1.59696 906.87 2.12928 909.665C2.6616 912.459 0.26616 915.653 0 923.106C2.26236 931.49 1.46388 939.341 1.46388 939.341C1.3308 941.87 6.52092 941.338 6.52092 941.338C6.52092 941.338 5.72244 939.741 3.59316 938.277C3.19392 930.957 3.327 927.098 5.3232 925.102C6.52092 927.63 9.71484 939.075 10.2472 939.608C10.6464 940.14 13.7072 941.071 13.9734 939.874C14.1065 938.41 12.2434 938.144 10.6464 932.155C9.04944 926.166 10.5133 914.056 11.4449 911.128C12.3764 908.201 14.6388 907.801 14.905 904.341C16.2358 904.874 21.4259 904.341 21.4259 904.341L27.0152 905.805C27.0152 905.805 27.5476 916.851 27.0152 920.577C28.4791 923.638 27.0152 927.896 27.0152 933.885C27.0152 940.007 29.5438 938.942 29.5438 938.942C29.5438 938.942 28.8784 940.539 31.54 940.539C34.2016 940.539 36.597 940.007 34.2016 939.341C31.9392 938.676 31.4069 933.486 31.8061 926.699C33.6692 921.509 32.6046 915.387 32.6046 912.858C32.6046 910.33 34.7339 903.809 34.7339 903.809C34.7339 903.809 34.7339 903.809 35.5324 900.615C40.1902 901.014 42.7187 900.216 45.1141 897.288C47.5096 894.36 46.9772 888.638 46.9772 886.775C46.9772 884.912 50.7035 883.581 52.6997 882.915C54.6959 882.25 54.1636 879.855 52.8328 879.189ZM4.6578 923.505C3.9924 921.775 4.52472 914.056 6.52092 911.927C6.38784 918.714 4.6578 923.505 4.6578 923.505Z" fill="#F2E9E4"/>
<path d="M94.8845 908.599C94.4853 907.535 91.0252 907.801 87.432 906.736C83.972 905.672 82.375 908.2 82.375 908.2C82.375 908.2 80.778 908.2 81.5765 910.063C80.1126 913.923 83.8389 918.048 81.5765 920.044C79.3142 922.174 77.0518 917.782 75.3218 916.717C73.7248 915.653 68.2685 913.656 64.6754 913.257C63.4776 911.394 61.6145 911.394 59.3522 911.66C57.0898 911.926 54.162 914.854 50.835 916.584C47.375 918.314 46.7096 921.109 46.7096 921.109C46.7096 921.109 43.7818 923.504 43.1164 925.367C41.9187 928.961 43.6487 936.28 44.181 939.075C44.7134 941.869 42.3179 945.063 42.0518 952.516C44.3141 960.9 43.5156 968.752 43.5156 968.752C43.3826 971.28 48.5727 970.748 48.5727 970.748C48.5727 970.748 47.7742 969.151 45.6449 967.687C45.2457 960.367 45.3788 956.508 47.375 954.512C48.5727 957.041 51.7666 968.485 52.2989 969.018C52.6982 969.55 55.759 970.482 56.0252 969.284C56.1582 967.82 54.2951 967.554 52.6982 961.565C51.1012 955.577 52.5651 943.466 53.4966 940.539C54.4282 937.611 56.6906 937.212 56.9567 933.751C58.2875 934.284 63.4776 933.751 63.4776 933.751L69.067 935.215C69.067 935.215 69.5993 946.261 69.067 949.987C70.5309 953.048 69.067 957.307 69.067 963.295C69.067 969.417 71.5955 968.352 71.5955 968.352C71.5955 968.352 70.9301 969.949 73.5917 969.949C76.2533 969.949 78.6488 969.417 76.2533 968.752C73.991 968.086 73.4586 962.896 73.8579 956.109C75.721 950.919 74.6564 944.797 74.6564 942.269C74.6564 939.74 76.7856 933.219 76.7856 933.219C76.7856 933.219 76.7856 933.219 77.5841 930.025C82.2419 930.424 84.7705 929.626 87.1659 926.698C89.5613 923.904 89.029 918.048 89.029 916.185C89.029 914.322 92.7552 912.991 94.7514 912.326C96.8807 911.527 96.3484 909.265 94.8845 908.599ZM46.8426 952.915C46.1772 951.185 46.7096 943.466 48.7058 941.337C48.5727 948.124 46.8426 952.915 46.8426 952.915Z" fill="#F2E9E4"/>
<path d="M250.833 796.125C250.434 795.06 246.973 795.326 243.38 794.262C239.92 793.197 238.323 795.726 238.323 795.726C238.323 795.726 236.726 795.726 237.525 797.589C236.061 801.448 239.787 805.573 237.525 807.57C235.262 809.566 233 805.307 231.27 804.243C229.54 803.178 224.217 801.182 220.624 800.783C219.426 798.919 217.563 798.919 215.3 799.186C213.038 799.452 210.11 802.38 206.783 804.11C203.323 805.84 202.658 808.634 202.658 808.634C202.658 808.634 199.73 811.03 199.065 812.893C197.867 816.486 199.597 823.805 200.129 826.6C200.662 829.395 198.266 832.589 198 840.041C200.262 848.425 199.464 856.277 199.464 856.277C199.331 858.805 204.521 858.273 204.521 858.273C204.521 858.273 203.722 856.676 201.593 855.212C201.194 847.893 201.327 844.034 203.323 842.037C204.521 844.566 207.715 856.011 208.247 856.543C208.646 857.075 211.707 858.007 211.973 856.809C212.106 855.345 210.243 855.079 208.646 849.091C207.049 843.102 208.513 830.992 209.445 828.064C210.376 825.136 212.639 824.737 212.905 821.277C214.236 821.809 219.426 821.277 219.426 821.277L225.015 822.741C225.015 822.741 225.548 833.786 225.015 837.513C226.479 840.573 225.015 844.832 225.015 850.821C225.015 856.942 227.544 855.878 227.544 855.878C227.544 855.878 226.878 857.475 229.54 857.475C232.202 857.475 234.597 856.942 232.202 856.277C229.939 855.612 229.407 850.421 229.806 843.634C231.669 838.444 230.605 832.323 230.605 829.794C230.605 827.265 232.734 820.745 232.734 820.745C232.734 820.745 232.734 820.745 233.532 817.551C238.19 817.95 240.719 817.151 243.114 814.224C245.51 811.296 244.977 805.573 244.977 803.71C244.977 801.847 248.703 800.516 250.7 799.851C252.696 799.053 252.164 796.79 250.833 796.125ZM202.658 840.44C201.992 838.71 202.525 830.992 204.521 828.862C204.521 835.65 202.658 840.44 202.658 840.44Z" fill="#F2E9E4"/>
<path d="M305.019 703.125C304.62 702.06 301.16 702.326 297.567 701.262C294.107 700.197 292.51 702.725 292.51 702.725C292.51 702.725 290.913 702.726 291.711 704.589C290.247 708.448 293.974 712.573 291.711 714.57C289.449 716.566 287.187 712.307 285.457 711.243C283.86 710.178 278.403 708.182 274.81 707.783C273.612 705.919 271.749 705.919 269.487 706.186C267.225 706.452 264.297 709.379 260.97 711.11C257.51 712.84 256.844 715.634 256.844 715.634C256.844 715.634 253.917 718.03 253.251 719.893C252.053 723.486 253.783 730.805 254.316 733.6C254.848 736.395 252.453 739.589 252.187 747.041C254.449 755.425 253.65 763.277 253.65 763.277C253.517 765.805 258.707 765.273 258.707 765.273C258.707 765.273 257.909 763.676 255.78 762.212C255.38 754.893 255.514 751.034 257.51 749.037C258.707 751.566 261.901 763.011 262.434 763.543C262.833 764.075 265.894 765.007 266.16 763.809C266.293 762.345 264.43 762.079 262.833 756.091C261.236 750.102 262.7 737.992 263.631 735.064C264.563 732.136 266.825 731.737 267.091 728.277C268.422 728.809 273.612 728.277 273.612 728.277L279.202 729.741C279.202 729.741 279.734 740.786 279.202 744.513C280.666 747.573 279.202 751.832 279.202 757.821C279.202 763.942 281.73 762.878 281.73 762.878C281.73 762.878 281.065 764.475 283.726 764.475C286.388 764.475 288.784 763.942 286.388 763.277C284.126 762.611 283.593 757.421 283.993 750.634C285.856 745.444 284.791 739.322 284.791 736.794C284.791 734.265 286.92 727.745 286.92 727.745C286.92 727.745 286.92 727.745 287.719 724.551C292.377 724.95 294.905 724.151 297.301 721.224C299.696 718.296 299.164 712.573 299.164 710.71C299.164 708.847 302.89 707.516 304.886 706.851C306.882 706.186 306.35 703.923 305.019 703.125ZM256.977 747.573C256.312 745.843 256.844 738.125 258.841 735.995C258.707 742.783 256.977 747.573 256.977 747.573Z" fill="#F2E9E4"/>
<path d="M70.4001 716.832C70.0009 715.767 66.5408 716.033 62.9477 714.969C59.4876 713.904 57.8906 716.433 57.8906 716.433C57.8906 716.433 56.2937 716.433 57.0921 718.296C55.6283 722.155 59.3545 726.28 57.0921 728.277C54.8298 730.406 52.5674 726.014 50.8374 724.95C49.2404 723.885 43.7841 721.889 40.191 721.49C38.9933 719.626 37.1301 719.626 34.8678 719.893C32.7385 720.159 29.6777 723.086 26.3507 724.817C22.8906 726.547 22.2252 729.341 22.2252 729.341C22.2252 729.341 19.2974 731.737 18.632 733.6C17.4343 737.193 19.1643 744.512 19.6967 747.307C20.229 750.102 17.8335 753.296 17.5674 760.748C19.8297 769.132 19.0313 776.984 19.0313 776.984C18.8982 779.512 24.0883 778.98 24.0883 778.98C24.0883 778.98 23.2898 777.383 21.1605 775.919C20.7613 768.6 20.8944 764.741 22.8906 762.744C24.0883 765.273 27.2822 776.718 27.8145 777.25C28.2138 777.782 31.2746 778.714 31.5408 777.516C31.6739 776.052 29.8107 775.786 28.2138 769.798C26.6168 763.809 28.0807 751.699 29.0123 748.771C29.9438 745.843 32.2062 745.444 32.4723 741.984C33.8031 742.516 38.9933 741.984 38.9933 741.984L44.5826 743.448C44.5826 743.448 45.115 754.493 44.5826 758.22C46.0465 761.281 44.5826 765.539 44.5826 771.528C44.5826 777.649 47.1111 776.585 47.1111 776.585C47.1111 776.585 46.4457 778.182 49.1073 778.182C51.7689 778.182 54.1644 777.649 51.7689 776.984C49.5066 776.319 48.9743 771.128 49.3735 764.341C51.2366 759.151 50.172 753.03 50.172 750.501C50.172 747.973 52.3013 741.452 52.3013 741.452C52.3013 741.452 52.3013 741.452 53.0997 738.258C57.7575 738.657 60.2861 737.858 62.6815 734.931C65.077 732.136 64.5446 726.28 64.5446 724.417C64.5446 722.554 68.2709 721.223 70.2671 720.558C72.2633 719.893 71.7309 717.497 70.4001 716.832ZM22.2252 761.147C21.5598 759.417 22.0921 751.699 24.0883 749.569C23.9552 756.357 22.2252 761.147 22.2252 761.147Z" fill="#F2E9E4"/>
<path d="M228.833 911.125C228.434 910.06 224.973 910.326 221.38 909.262C217.92 908.197 216.323 910.725 216.323 910.725C216.323 910.725 214.726 910.726 215.525 912.589C214.061 916.448 217.787 920.573 215.525 922.57C213.262 924.699 211 920.307 209.27 919.243C207.673 918.178 202.217 916.182 198.624 915.783C197.426 913.919 195.563 913.919 193.3 914.186C191.171 914.452 188.11 917.38 184.783 919.11C181.323 920.84 180.658 923.634 180.658 923.634C180.658 923.634 177.73 926.03 177.065 927.893C175.867 931.486 177.597 938.805 178.129 941.6C178.662 944.395 176.266 947.589 176 955.041C178.262 963.425 177.464 971.277 177.464 971.277C177.331 973.805 182.521 973.273 182.521 973.273C182.521 973.273 181.722 971.676 179.593 970.212C179.194 962.893 179.327 959.034 181.323 957.037C182.521 959.566 185.715 971.011 186.247 971.543C186.646 972.075 189.707 973.007 189.973 971.809C190.106 970.345 188.243 970.079 186.646 964.091C185.049 958.102 186.513 945.992 187.445 943.064C188.376 940.136 190.639 939.737 190.905 936.277C192.236 936.809 197.426 936.277 197.426 936.277L203.015 937.741C203.015 937.741 203.548 948.786 203.015 952.513C204.479 955.573 203.015 959.832 203.015 965.821C203.015 971.942 205.544 970.878 205.544 970.878C205.544 970.878 204.878 972.475 207.54 972.475C210.202 972.475 212.597 971.942 210.202 971.277C207.939 970.611 207.407 965.421 207.806 958.634C209.669 953.444 208.605 947.323 208.605 944.794C208.605 942.265 210.734 935.745 210.734 935.745C210.734 935.745 210.734 935.745 211.532 932.551C216.19 932.95 218.719 932.151 221.114 929.224C223.51 926.429 222.977 920.573 222.977 918.71C222.977 916.847 226.703 915.516 228.7 914.851C230.829 914.053 230.297 911.79 228.833 911.125ZM180.791 955.44C180.125 953.71 180.658 945.992 182.654 943.862C182.521 950.65 180.791 955.44 180.791 955.44Z" fill="#F2E9E4"/>
<path d="M304.833 859.125C304.434 858.06 300.973 858.326 297.38 857.262C293.92 856.197 292.323 858.725 292.323 858.725C292.323 858.725 290.726 858.726 291.525 860.589C290.061 864.448 293.787 868.573 291.525 870.57C289.262 872.699 287 868.307 285.27 867.243C283.54 866.178 278.217 864.182 274.624 863.783C273.426 861.919 271.563 861.919 269.3 862.186C267.171 862.452 264.11 865.379 260.783 867.11C257.323 868.84 256.658 871.634 256.658 871.634C256.658 871.634 253.73 874.03 253.065 875.893C251.867 879.486 253.597 886.805 254.129 889.6C254.662 892.395 252.266 895.589 252 903.041C254.262 911.425 253.464 919.277 253.464 919.277C253.331 921.805 258.521 921.273 258.521 921.273C258.521 921.273 257.722 919.676 255.593 918.212C255.194 910.893 255.327 907.034 257.323 905.037C258.521 907.566 261.715 919.011 262.247 919.543C262.646 920.075 265.707 921.007 265.973 919.809C266.106 918.345 264.243 918.079 262.646 912.091C261.049 906.102 262.513 893.992 263.445 891.064C264.376 888.136 266.639 887.737 266.905 884.277C268.236 884.809 273.426 884.277 273.426 884.277L279.015 885.741C279.015 885.741 279.548 896.786 279.015 900.513C280.479 903.573 279.015 907.832 279.015 913.821C279.015 919.942 281.544 918.878 281.544 918.878C281.544 918.878 280.878 920.475 283.54 920.475C286.202 920.475 288.597 919.942 286.202 919.277C283.939 918.611 283.407 913.421 283.806 906.634C285.669 901.444 284.605 895.322 284.605 892.794C284.605 890.265 286.734 883.745 286.734 883.745C286.734 883.745 286.734 883.745 287.532 880.551C292.19 880.95 294.719 880.151 297.114 877.224C299.51 874.296 298.977 868.573 298.977 866.71C298.977 864.847 302.703 863.516 304.7 862.851C306.829 862.186 306.297 859.923 304.833 859.125ZM256.791 903.573C256.125 901.843 256.658 894.125 258.654 891.995C258.521 898.783 256.791 903.573 256.791 903.573Z" fill="#F2E9E4"/>
<path d="M162.091 846.984C161.691 845.92 158.231 846.186 154.638 845.121C151.178 844.056 149.581 846.585 149.581 846.585C149.581 846.585 147.984 846.585 148.783 848.448C147.319 852.307 151.045 856.433 148.783 858.429C146.52 860.558 144.258 856.167 142.528 855.102C140.931 854.037 135.475 852.041 131.881 851.642C130.684 849.779 128.821 849.779 126.558 850.045C124.296 850.311 121.368 853.239 118.041 854.969C114.581 856.699 113.916 859.494 113.916 859.494C113.916 859.494 110.988 861.889 110.322 863.752C109.125 867.345 110.855 874.665 111.387 877.459C111.919 880.254 109.524 883.448 109.258 890.901C111.52 899.285 110.722 907.136 110.722 907.136C110.589 909.665 115.779 909.132 115.779 909.132C115.779 909.132 114.98 907.536 112.851 906.072C112.452 898.752 112.585 894.893 114.581 892.897C115.779 895.425 118.973 906.87 119.505 907.402C119.904 907.935 122.965 908.866 123.231 907.669C123.364 906.205 121.501 905.939 119.904 899.95C118.307 893.961 119.771 881.851 120.703 878.923C121.634 875.996 123.897 875.596 124.163 872.136C125.494 872.669 130.684 872.136 130.684 872.136L136.273 873.6C136.273 873.6 136.805 884.646 136.273 888.372C137.737 891.433 136.273 895.691 136.273 901.68C136.273 907.802 138.802 906.737 138.802 906.737C138.802 906.737 138.136 908.334 140.798 908.334C143.459 908.334 145.855 907.802 143.459 907.136C141.197 906.471 140.665 901.281 141.064 894.494C142.927 889.304 141.862 883.182 141.862 880.653C141.862 878.125 143.992 871.604 143.992 871.604C143.992 871.604 143.992 871.604 144.79 868.41C149.448 868.809 151.977 868.011 154.372 865.083C156.767 862.288 156.235 856.433 156.235 854.57C156.235 852.707 159.961 851.376 161.957 850.71C163.954 850.045 163.421 847.65 162.091 846.984ZM114.049 891.3C113.383 889.57 113.916 881.851 115.912 879.722C115.779 886.509 114.049 891.3 114.049 891.3Z" fill="#F2E9E4"/>
<path d="M191.635 776.851C191.236 775.787 187.776 776.053 184.183 774.988C180.723 773.924 179.126 776.452 179.126 776.452C179.126 776.452 177.529 776.452 178.327 778.315C176.864 782.175 180.59 786.3 178.327 788.296C176.065 790.292 173.803 786.034 172.073 784.969C170.476 783.905 165.019 781.908 161.426 781.509C160.229 779.646 158.365 779.646 156.103 779.912C153.974 780.178 150.913 783.106 147.586 784.836C144.126 786.566 143.461 789.361 143.461 789.361C143.461 789.361 140.533 791.756 139.867 793.619C138.67 797.213 140.4 804.532 140.932 807.327C141.464 810.121 139.069 813.315 138.803 820.768C141.065 829.152 140.267 837.004 140.267 837.004C140.134 839.532 145.324 839 145.324 839C145.324 839 144.525 837.403 142.396 835.939C141.997 828.619 142.13 824.76 144.126 822.764C145.324 825.292 148.518 836.737 149.05 837.27C149.449 837.802 152.51 838.734 152.776 837.536C152.909 836.072 151.046 835.806 149.449 829.817C147.852 823.829 149.316 811.718 150.248 808.791C151.179 805.863 153.442 805.463 153.708 802.003C155.038 802.536 160.229 802.003 160.229 802.003L165.818 803.467C165.818 803.467 166.35 814.513 165.818 818.239C167.282 821.3 165.818 825.559 165.818 831.547C165.818 837.536 168.346 836.604 168.346 836.604C168.346 836.604 167.681 838.201 170.343 838.201C173.004 838.201 175.4 837.669 173.004 837.004C170.609 836.338 170.21 831.148 170.609 824.361C172.472 819.171 171.407 813.049 171.407 810.521C171.407 807.992 173.537 801.471 173.537 801.471C173.537 801.471 173.537 801.471 174.335 798.277C178.993 798.676 181.521 797.878 183.917 794.95C186.312 792.156 185.78 786.3 185.78 784.437C185.78 782.574 189.506 781.243 191.502 780.578C193.499 779.779 192.966 777.517 191.635 776.851ZM143.594 821.167C142.928 819.437 143.461 811.718 145.457 809.589C145.324 816.376 143.594 821.167 143.594 821.167Z" fill="#F2E9E4"/>
</g>
</svg>
