<svg width="1920" height="1080" viewBox="0 0 1920 1080" fill="none" xmlns="http://www.w3.org/2000/svg">
<g opacity="0.1">
<path d="M12.179 516.1L22.2948 506.407V519.455L36.7283 519.083L26.6125 528.651L36.7283 537.847L22.9116 538.344L23.2817 551.392L13.1659 542.694L3.54363 552.387V538.841L-11.3833 539.463L-1.14415 529.397L-11.3833 520.325L2.68008 519.953L2.55674 506.904L12.179 516.1Z" fill="#F2E9E4"/>
<path d="M55.2326 472.855L65.225 463.162V476.21L79.6585 475.713L69.5427 485.406L79.6585 494.602L65.8418 495.099L66.2119 508.147L56.0961 499.448L46.5972 509.017V495.471L31.5469 496.217L41.9093 486.151L31.5469 477.08L45.7336 476.707L45.4869 463.659L55.2326 472.855Z" fill="#F2E9E4"/>
<path d="M11.9323 429.237L21.9247 419.544V432.716L36.4815 432.219L26.2424 441.788L36.4815 450.984L22.6649 451.481L23.0349 464.529L12.9192 455.83L3.29685 465.523V451.978L-11.7534 452.599L-1.39093 442.534L-11.7534 433.462L2.43333 433.089L2.30996 420.041L11.9323 429.237Z" fill="#F2E9E4"/>
<path d="M55.2326 558.476L65.225 548.783V561.956L79.6585 561.459L69.5427 571.027L79.6585 580.223L65.8418 580.72L66.2119 593.769L56.0961 585.07L46.5972 594.763V581.217L31.5469 581.839L41.9093 571.773L31.5469 562.701L45.7336 562.329L45.4869 549.28L55.2326 558.476Z" fill="#F2E9E4"/>
<path d="M11.4383 602.468L21.5541 592.899V605.947L35.9876 605.45L25.8718 615.143L35.9876 624.215L22.1709 624.712L22.541 637.884L12.4252 629.061L2.80291 638.754V625.209L-12.124 625.954L-1.88487 615.764L-12.124 606.693L2.06273 606.444L1.81602 593.396L11.4383 602.468Z" fill="#F2E9E4"/>
<path d="M100.261 601.598L110.254 591.905V604.953L124.687 604.456L114.571 614.149L124.687 623.221L110.871 623.718L111.241 636.89L101.125 628.067L91.626 637.76V624.215L76.5757 624.961L86.8148 614.771L76.5757 605.699L90.7624 605.45L90.5157 592.402L100.261 601.598Z" fill="#F2E9E4"/>
<path d="M143.191 558.227L153.183 548.534V561.707L167.616 561.21L157.501 570.778L167.616 579.974L153.8 580.471L154.293 593.519L144.054 584.821L134.555 594.514V580.968L119.505 581.59L129.867 571.524L119.505 562.452L133.692 562.08L133.568 549.031L143.191 558.227Z" fill="#F2E9E4"/>
<path d="M1606.08 813.809L1616.07 804.116V817.288L1630.5 816.791L1620.39 826.36L1630.5 835.556L1616.68 836.053L1617.18 849.101L1606.94 840.402L1597.44 850.095V836.55L1582.39 837.171L1592.75 827.105L1582.39 818.034L1596.58 817.661L1596.45 804.613L1606.08 813.809Z" fill="#F2E9E4"/>
<path d="M1087.92 961.405L1097.91 951.712V964.885L1112.34 964.388L1102.23 973.957L1112.34 983.152L1098.53 983.649L1099.02 996.698L1088.78 987.999L1079.28 997.692V984.146L1064.23 984.768L1074.59 974.702L1064.23 965.63L1078.42 965.258L1078.3 952.21L1087.92 961.405Z" fill="#F2E9E4"/>
<path d="M186.86 602.219L196.976 592.65V605.699L211.41 605.201L201.171 614.895L211.41 623.966L197.593 624.463L197.963 637.636L187.847 628.813L178.225 638.506V624.96L163.175 625.706L173.537 615.516L163.175 606.444L177.362 606.196L177.238 593.147L186.86 602.219Z" fill="#F2E9E4"/>
<path d="M250.025 432.344L260.018 422.651V435.699L274.451 435.202L264.335 444.895L274.451 454.091L260.634 454.464L261.004 467.636L250.889 458.813L241.39 468.506V454.961L226.339 455.706L236.579 445.516L226.339 436.445L240.526 436.196L240.279 423.148L250.025 432.344Z" fill="#F2E9E4"/>
<path d="M1712.91 687.925L1722.9 678.232V691.28L1737.34 690.783L1727.22 700.476L1737.34 709.672L1723.52 710.045L1723.89 723.217L1713.77 714.394L1704.27 724.087V710.542L1689.22 711.287L1699.46 701.097L1689.22 692.026L1703.41 691.777L1703.16 678.729L1712.91 687.925Z" fill="#F2E9E4"/>
<path d="M99.8893 514.733L110.005 505.041V518.089L124.439 517.592L114.323 527.285L124.439 536.356L110.622 536.853L110.992 550.026L100.876 541.203L91.2538 550.896V537.35L76.2036 538.096L86.5661 527.906L76.2036 518.834L90.3904 518.586L90.267 505.538L99.8893 514.733Z" fill="#F2E9E4"/>
<path d="M1562.77 770.314L1572.89 760.622V773.67L1587.32 773.173L1577.21 782.866L1587.32 791.937L1573.51 792.434L1573.88 805.607L1563.76 796.784L1554.14 806.477V792.931L1539.09 793.677L1549.45 783.487L1539.09 774.415L1553.28 774.167L1553.15 761.119L1562.77 770.314Z" fill="#F2E9E4"/>
<path d="M1001.04 960.411L1011.16 950.718V963.766L1025.59 963.269L1015.48 972.962L1025.59 982.033L1011.77 982.53L1012.14 995.703L1002.03 986.88L992.406 996.573V983.028L977.356 983.773L987.718 973.583L977.356 964.512L991.543 964.263L991.419 951.215L1001.04 960.411Z" fill="#F2E9E4"/>
<path d="M187.6 514.733L197.593 505.041V518.089L212.149 517.592L201.91 527.285L212.149 536.356L198.333 536.853L198.703 550.026L188.587 541.203L178.965 550.896V537.35L163.915 538.096L174.277 527.906L163.915 518.834L178.101 518.586L177.978 505.538L187.6 514.733Z" fill="#F2E9E4"/>
<path d="M1650.49 770.314L1660.48 760.622V773.67L1675.03 773.173L1664.8 782.866L1675.03 791.937L1661.22 792.434L1661.59 805.607L1651.47 796.784L1641.85 806.477V792.931L1626.8 793.677L1637.16 783.487L1626.8 774.415L1640.99 774.167L1640.86 761.119L1650.49 770.314Z" fill="#F2E9E4"/>
<path d="M99.2723 428.367L109.388 418.674V431.722L123.822 431.349L113.706 440.918L123.822 450.114L110.005 450.611L110.375 463.659L100.259 454.96L90.7603 464.529V451.108L75.71 451.729L85.9491 441.664L75.71 432.592L89.8967 432.219L89.65 419.171L99.2723 428.367Z" fill="#F2E9E4"/>
<path d="M144.054 470.246L154.047 460.553V473.601L168.604 473.104L158.364 482.797L168.604 491.993L154.664 492.49L155.157 505.538L145.041 496.839L135.419 506.408V492.863L120.369 493.608L130.731 483.542L120.369 474.471L134.555 474.098L134.432 461.05L144.054 470.246Z" fill="#F2E9E4"/>
<path d="M1606.94 725.827L1616.93 716.134V729.182L1631.49 728.685L1621.25 738.378L1631.49 747.574L1617.55 748.071L1618.04 761.119L1607.93 752.42L1598.3 761.989V748.444L1583.25 749.189L1593.62 739.123L1583.25 730.052L1597.44 729.679L1597.32 716.631L1606.94 725.827Z" fill="#F2E9E4"/>
</g>
</svg>
