<svg width="1920" height="1080" viewBox="0 0 1920 1080" fill="none" xmlns="http://www.w3.org/2000/svg" >
<g opacity="0.1">
<path d="M135.229 379.813C135.229 379.813 135.005 379.371 134.559 379.371C134.113 379.371 133.89 380.918 133.89 380.918C133.89 380.918 126.974 376.165 124.519 374.618C122.065 373.07 118.83 370.97 118.83 370.97C118.83 370.97 118.161 371.191 118.83 371.744C119.5 372.296 125.189 378.487 126.416 386.887C127.308 394.183 124.631 398.494 124.631 398.494C124.631 398.494 112.918 398.273 109.795 397.831C108.01 396.062 108.01 395.51 108.01 395.51C108.01 395.51 108.679 394.404 107.787 393.188C106.894 392.083 106.225 391.862 104.998 392.083C104.328 391.42 104.328 391.42 104.328 391.42L103.659 392.083L107.787 397.278C107.787 397.278 106.671 397.278 106.671 398.162L108.01 400.705V401.589C108.01 401.589 108.679 403.468 109.348 403.689C110.018 403.911 110.687 405.016 110.687 405.016C110.687 405.016 112.695 407.006 113.253 407.337C113.699 407.558 120.392 410.985 124.519 411.869C128.647 412.754 135.563 412.09 139.914 409.327C143.372 408 144.487 407.558 144.487 407.558L145.603 406.011H142.814L147.834 399.931C147.834 399.931 150.177 399.71 151.738 399.047C151.292 397.499 146.718 393.851 144.599 391.309C142.591 388.767 139.579 385.672 135.005 382.245C135.228 379.813 135.229 379.813 135.229 379.813Z" fill="#F2E9E4"/>
<path d="M183.308 379.813C183.308 379.813 183.085 379.371 182.638 379.371C182.192 379.371 181.969 380.918 181.969 380.918C181.969 380.918 175.053 376.165 172.599 374.618C170.145 373.07 166.909 370.97 166.909 370.97C166.909 370.97 166.24 371.191 166.909 371.744C167.579 372.296 173.268 378.487 174.495 386.887C175.387 394.183 172.71 398.494 172.71 398.494C172.71 398.494 160.997 398.273 157.874 397.831C156.089 396.062 156.089 395.51 156.089 395.51C156.089 395.51 156.758 394.404 155.866 393.188C154.973 392.083 154.304 391.862 153.077 392.083C152.408 391.42 152.408 391.42 152.408 391.42L151.738 392.083L155.866 397.278C155.866 397.278 154.75 397.278 154.75 398.162L156.089 400.705V401.589C156.089 401.589 156.758 403.468 157.427 403.689C158.097 403.911 158.766 405.016 158.766 405.016C158.766 405.016 160.774 407.006 161.332 407.337C161.778 407.558 168.471 410.985 172.599 411.869C176.726 412.754 183.642 412.09 187.993 409.327C191.451 408 192.566 407.558 192.566 407.558L193.682 406.011H190.893L195.913 399.931C195.913 399.931 198.256 399.71 199.817 399.047C199.371 397.499 194.798 393.851 192.678 391.309C190.67 388.767 187.658 385.672 183.084 382.245C183.308 379.813 183.308 379.813 183.308 379.813Z" fill="#F2E9E4"/>
<path d="M231.499 379.813C231.499 379.813 231.276 379.371 230.83 379.371C230.383 379.371 230.16 380.918 230.16 380.918C230.16 380.918 223.244 376.165 220.79 374.618C218.336 373.07 215.101 370.97 215.101 370.97C215.101 370.97 214.431 371.191 215.101 371.744C215.77 372.296 221.459 378.487 222.686 386.887C223.579 394.183 220.901 398.494 220.901 398.494C220.901 398.494 209.189 398.273 206.065 397.831C204.28 396.062 204.28 395.51 204.28 395.51C204.28 395.51 204.949 394.404 204.057 393.188C203.165 392.083 202.495 391.862 201.268 392.083C200.599 391.42 200.599 391.42 200.599 391.42L199.93 392.083L204.057 397.278C204.057 397.278 202.942 397.278 202.942 398.162L204.28 400.705V401.589C204.28 401.589 204.95 403.468 205.619 403.689C206.288 403.911 206.957 405.016 206.957 405.016C206.957 405.016 208.965 407.006 209.523 407.337C209.969 407.558 216.663 410.985 220.79 411.869C224.917 412.754 231.834 412.09 236.184 409.327C239.642 408 240.758 407.558 240.758 407.558L241.873 406.011H239.085L244.104 399.931C244.104 399.931 246.447 399.71 248.009 399.047C247.563 397.499 242.989 393.851 240.869 391.309C238.861 388.767 235.85 385.672 231.276 382.245C231.499 379.813 231.499 379.813 231.499 379.813Z" fill="#F2E9E4"/>
<path d="M279.578 379.813C279.578 379.813 279.355 379.371 278.909 379.371C278.463 379.371 278.239 380.918 278.239 380.918C278.239 380.918 271.323 376.165 268.869 374.618C266.303 373.07 263.18 370.97 263.18 370.97C263.18 370.97 262.511 371.191 263.18 371.744C263.849 372.296 269.538 378.487 270.766 386.887C271.658 394.183 268.981 398.494 268.981 398.494C268.981 398.494 257.268 398.273 254.144 397.831C252.359 396.062 252.359 395.51 252.359 395.51C252.359 395.51 253.029 394.404 252.136 393.188C251.244 392.083 250.574 391.862 249.347 392.083C248.678 391.42 248.678 391.42 248.678 391.42L248.009 392.083L252.136 397.278C252.136 397.278 251.021 397.278 251.021 398.162L252.359 400.705V401.589C252.359 401.589 253.029 403.468 253.698 403.689C254.367 403.911 255.037 405.016 255.037 405.016C255.037 405.016 257.045 407.006 257.602 407.337C258.048 407.558 264.742 410.985 268.869 411.869C272.996 412.754 279.913 412.09 284.263 409.327C287.721 408 288.837 407.558 288.837 407.558L289.952 406.011H287.164L292.184 399.931C292.184 399.931 294.526 399.71 296.088 399.047C295.642 397.499 291.068 393.851 288.948 391.309C286.941 388.767 283.929 385.672 279.355 382.245C279.578 379.813 279.578 379.813 279.578 379.813Z" fill="#F2E9E4"/>
<path d="M327.656 379.813C327.656 379.813 327.433 379.371 326.987 379.371C326.541 379.371 326.318 380.918 326.318 380.918C326.318 380.918 319.401 376.165 316.947 374.618C314.381 373.07 311.258 370.97 311.258 370.97C311.258 370.97 310.589 371.191 311.258 371.744C311.927 372.296 317.617 378.487 318.844 386.887C319.736 394.183 317.059 398.494 317.059 398.494C317.059 398.494 305.346 398.273 302.222 397.831C300.437 396.062 300.437 395.51 300.437 395.51C300.437 395.51 301.107 394.404 300.214 393.188C299.322 392.083 298.653 391.862 297.425 392.083C296.756 391.42 296.756 391.42 296.756 391.42L296.087 392.083L300.214 397.278C300.214 397.278 299.099 397.278 299.099 398.162L300.437 400.705V401.589C300.437 401.589 301.107 403.468 301.776 403.689C302.445 403.911 303.115 405.016 303.115 405.016C303.115 405.016 305.123 407.006 305.68 407.337C306.127 407.558 312.82 410.985 316.947 411.869C321.075 412.754 327.991 412.09 332.341 409.327C335.8 408 336.915 407.558 336.915 407.558L338.031 406.011H335.242L340.262 399.931C340.262 399.931 342.604 399.71 344.166 399.047C343.72 397.499 339.146 393.851 337.027 391.309C335.019 388.767 332.007 385.672 327.433 382.245C327.656 379.813 327.656 379.813 327.656 379.813Z" fill="#F2E9E4"/>
<path d="M159.323 417.396C159.323 417.396 159.1 416.954 158.654 416.954C158.208 416.954 157.985 418.502 157.985 418.502C157.985 418.502 151.068 413.749 148.614 412.201C146.049 410.653 142.925 408.553 142.925 408.553C142.925 408.553 142.256 408.774 142.925 409.327C143.594 409.88 149.284 416.07 150.511 424.471C151.403 431.766 148.726 436.077 148.726 436.077C148.726 436.077 137.013 435.856 133.889 435.414C132.104 433.646 132.104 433.093 132.104 433.093C132.104 433.093 132.774 431.988 131.881 430.772C130.989 429.556 130.32 429.445 129.093 429.666C128.423 429.003 128.423 429.003 128.423 429.003L127.754 429.666L131.881 434.862C131.881 434.862 130.766 434.862 130.766 435.746L132.104 438.288V439.173C132.104 439.173 132.774 441.052 133.443 441.273C134.112 441.494 134.782 442.599 134.782 442.599C134.782 442.599 136.79 444.589 137.347 444.921C137.794 445.142 144.487 448.568 148.614 449.453C152.742 450.337 159.658 449.674 164.008 446.91C167.467 445.584 168.582 445.142 168.582 445.142L169.698 443.594H166.909L171.929 437.514C171.929 437.514 174.271 437.293 175.833 436.63C175.387 435.083 170.813 431.435 168.694 428.892C166.686 426.35 163.674 423.255 159.1 419.828C159.323 417.396 159.323 417.396 159.323 417.396Z" fill="#F2E9E4"/>
<path d="M207.402 417.396C207.402 417.396 207.179 416.954 206.733 416.954C206.287 416.954 206.064 418.502 206.064 418.502C206.064 418.502 199.148 413.749 196.693 412.201C194.128 410.653 191.004 408.553 191.004 408.553C191.004 408.553 190.335 408.774 191.004 409.327C191.674 409.88 197.363 416.07 198.59 424.471C199.482 431.766 196.805 436.077 196.805 436.077C196.805 436.077 185.092 435.856 181.968 435.414C180.184 433.646 180.184 433.093 180.184 433.093C180.184 433.093 180.853 431.988 179.961 430.772C179.068 429.666 178.399 429.445 177.172 429.666C176.502 429.003 176.502 429.003 176.502 429.003L175.833 429.666L179.961 434.862C179.961 434.862 178.845 434.862 178.845 435.746L180.184 438.288V439.173C180.184 439.173 180.853 441.052 181.522 441.273C182.192 441.494 182.861 442.599 182.861 442.599C182.861 442.599 184.869 444.589 185.427 444.921C185.873 445.142 192.566 448.568 196.693 449.453C200.821 450.337 207.737 449.674 212.088 446.91C215.546 445.584 216.661 445.142 216.661 445.142L217.777 443.594H214.988L220.008 437.514C220.008 437.514 222.35 437.293 223.912 436.63C223.466 435.083 218.892 431.435 216.773 428.892C214.653 426.35 211.753 423.255 207.179 419.828C207.402 417.396 207.402 417.396 207.402 417.396Z" fill="#F2E9E4"/>
<path d="M255.483 417.396C255.483 417.396 255.26 416.954 254.814 416.954C254.368 416.954 254.145 418.502 254.145 418.502C254.145 418.502 247.228 413.749 244.774 412.201C242.209 410.653 239.085 408.553 239.085 408.553C239.085 408.553 238.416 408.774 239.085 409.327C239.754 409.88 245.444 416.07 246.671 424.471C247.563 431.766 244.886 436.077 244.886 436.077C244.886 436.077 233.173 435.856 230.049 435.414C228.265 433.646 228.264 433.093 228.264 433.093C228.264 433.093 228.934 431.988 228.041 430.772C227.149 429.666 226.48 429.445 225.253 429.666C224.583 429.003 224.583 429.003 224.583 429.003L223.914 429.666L228.041 434.862C228.041 434.862 226.926 434.862 226.926 435.746L228.264 438.288V439.173C228.264 439.173 228.934 441.052 229.603 441.273C230.273 441.494 230.942 442.599 230.942 442.599C230.942 442.599 232.95 444.589 233.508 444.921C233.954 445.142 240.647 448.568 244.774 449.453C248.902 450.337 255.818 449.674 260.169 446.91C263.627 445.584 264.742 445.142 264.742 445.142L265.858 443.594H263.069L268.089 437.514C268.089 437.514 270.431 437.293 271.993 436.63C271.547 435.083 266.973 431.435 264.854 428.892C262.734 426.35 259.834 423.255 255.26 419.828C255.483 417.396 255.483 417.396 255.483 417.396Z" fill="#F2E9E4"/>
<path d="M303.673 417.396C303.673 417.396 303.45 416.954 303.003 416.954C302.557 416.954 302.334 418.502 302.334 418.502C302.334 418.502 295.418 413.749 292.964 412.201C290.398 410.653 287.275 408.553 287.275 408.553C287.275 408.553 286.605 408.774 287.275 409.327C287.944 409.88 293.633 416.07 294.86 424.471C295.753 431.766 293.075 436.077 293.075 436.077C293.075 436.077 281.362 435.856 278.239 435.414C276.454 433.646 276.454 433.093 276.454 433.093C276.454 433.093 277.123 431.988 276.231 430.772C275.338 429.666 274.669 429.445 273.442 429.666C272.773 429.003 272.773 429.003 272.773 429.003L272.104 429.666L276.231 434.862C276.231 434.862 275.115 434.862 275.115 435.746L276.454 438.288V439.173C276.454 439.173 277.123 441.052 277.793 441.273C278.462 441.494 279.131 442.599 279.131 442.599C279.131 442.599 281.139 444.589 281.697 444.921C282.143 445.142 288.836 448.568 292.964 449.453C297.091 450.337 304.008 449.674 308.358 446.91C311.816 445.584 312.932 445.142 312.932 445.142L314.047 443.594H311.258L316.278 437.514C316.278 437.514 318.621 437.293 320.183 436.63C319.736 435.083 315.163 431.435 313.043 428.892C310.924 426.35 308.023 423.255 303.45 419.828C303.673 417.396 303.673 417.396 303.673 417.396Z" fill="#F2E9E4"/>
<path d="M408.867 417.396C408.867 417.396 408.644 416.954 408.198 416.954C407.752 416.954 407.529 418.502 407.529 418.502C407.529 418.502 400.612 413.749 398.158 412.201C395.592 410.653 392.469 408.553 392.469 408.553C392.469 408.553 391.8 408.774 392.469 409.327C393.138 409.88 398.827 416.07 400.054 424.471C400.947 431.766 398.27 436.077 398.27 436.077C398.27 436.077 386.557 435.856 383.433 435.414C381.648 433.646 381.648 433.093 381.648 433.093C381.648 433.093 382.318 431.988 381.425 430.772C380.533 429.666 379.864 429.445 378.636 429.666C377.967 429.003 377.967 429.003 377.967 429.003L377.298 429.666L381.425 434.862C381.425 434.862 380.31 434.862 380.31 435.746L381.648 438.288V439.173C381.648 439.173 382.318 441.052 382.987 441.273C383.656 441.494 384.326 442.599 384.326 442.599C384.326 442.599 386.334 444.589 386.891 444.921C387.338 445.142 394.031 448.568 398.158 449.453C402.286 450.337 409.202 449.674 413.552 446.91C417.011 445.584 418.126 445.142 418.126 445.142L419.242 443.594H416.453L421.473 437.514C421.473 437.514 423.815 437.293 425.377 436.63C424.931 435.083 420.357 431.435 418.238 428.892C416.118 426.35 413.218 423.255 408.644 419.828C408.867 417.396 408.867 417.396 408.867 417.396Z" fill="#F2E9E4"/>
<path d="M415.894 345.877C415.894 345.877 415.671 345.435 415.224 345.435C414.778 345.435 414.555 346.983 414.555 346.983C414.555 346.983 407.639 342.229 405.185 340.682C402.619 339.134 399.495 337.034 399.495 337.034C399.495 337.034 398.826 337.255 399.495 337.808C400.165 338.361 405.854 344.551 407.081 352.952C407.973 360.247 405.296 364.558 405.296 364.558C405.296 364.558 393.583 364.337 390.46 363.895C388.675 362.127 388.675 361.574 388.675 361.574C388.675 361.574 389.344 360.468 388.452 359.252C387.559 358.147 386.89 357.926 385.663 358.147C384.994 357.484 384.994 357.484 384.994 357.484L384.324 358.147L388.452 363.342C388.452 363.342 387.336 363.342 387.336 364.227L388.675 366.769V367.653C388.675 367.653 389.344 369.533 390.013 369.754C390.683 369.975 391.352 371.08 391.352 371.08C391.352 371.08 393.36 373.07 393.918 373.402C394.364 373.623 401.057 377.049 405.185 377.934C409.312 378.818 416.228 378.155 420.579 375.391C424.037 374.065 425.152 373.623 425.152 373.623L426.268 372.075H423.479L428.499 365.995C428.499 365.995 430.842 365.774 432.403 365.111C431.957 363.564 427.384 359.916 425.264 357.373C423.256 354.831 420.244 351.736 415.67 348.309C415.894 345.877 415.894 345.877 415.894 345.877Z" fill="#F2E9E4"/>
<path d="M313.266 306.194C313.266 306.194 313.043 305.752 312.596 305.752C312.15 305.752 311.927 307.3 311.927 307.3C311.927 307.3 305.011 302.547 302.557 300.999C299.991 299.451 296.867 297.351 296.867 297.351C296.867 297.351 296.198 297.572 296.867 298.125C297.537 298.678 303.226 304.868 304.453 313.269C305.345 320.564 302.668 324.875 302.668 324.875C302.668 324.875 290.955 324.654 287.832 324.212C286.047 322.444 286.047 321.891 286.047 321.891C286.047 321.891 286.716 320.785 285.824 319.57C284.931 318.354 284.262 318.243 283.035 318.464C282.366 317.801 282.366 317.801 282.366 317.801L281.696 318.464L285.824 323.66C285.824 323.66 284.708 323.66 284.708 324.544L286.047 327.086V327.971C286.047 327.971 286.716 329.85 287.385 330.071C288.055 330.292 288.724 331.397 288.724 331.397C288.724 331.397 290.732 333.387 291.29 333.719C291.736 333.94 298.429 337.366 302.557 338.251C306.684 339.135 313.6 338.472 317.951 335.708C321.409 334.382 322.524 333.94 322.524 333.94L323.64 332.392H320.851L325.871 326.312C325.871 326.312 328.214 326.091 329.775 325.428C329.329 323.881 324.756 320.233 322.636 317.69C320.628 315.148 317.616 312.053 313.043 308.626C313.266 306.194 313.266 306.194 313.266 306.194Z" fill="#F2E9E4"/>
<path d="M217.108 306.194C217.108 306.194 216.885 305.752 216.439 305.752C215.993 305.752 215.77 307.3 215.77 307.3C215.77 307.3 208.853 302.547 206.399 300.999C203.834 299.451 200.71 297.351 200.71 297.351C200.71 297.351 200.041 297.572 200.71 298.125C201.379 298.678 207.069 304.868 208.296 313.269C209.188 320.564 206.511 324.875 206.511 324.875C206.511 324.875 194.798 324.654 191.674 324.212C189.89 322.444 189.89 321.891 189.89 321.891C189.89 321.891 190.559 320.785 189.666 319.57C188.774 318.354 188.105 318.243 186.878 318.464C186.208 317.801 186.208 317.801 186.208 317.801L185.539 318.464L189.666 323.66C189.666 323.66 188.551 323.66 188.551 324.544L189.89 327.086V327.971C189.89 327.971 190.559 329.85 191.228 330.071C191.898 330.292 192.567 331.397 192.567 331.397C192.567 331.397 194.575 333.387 195.133 333.719C195.579 333.94 202.272 337.366 206.399 338.251C210.527 339.135 217.443 338.472 221.794 335.708C225.252 334.382 226.367 333.94 226.367 333.94L227.483 332.392H224.694L229.714 326.312C229.714 326.312 232.056 326.091 233.618 325.428C233.172 323.881 228.598 320.233 226.479 317.69C224.471 315.148 221.459 312.053 216.885 308.626C217.108 306.194 217.108 306.194 217.108 306.194Z" fill="#F2E9E4"/>
<path d="M255.483 263.968C255.483 263.968 255.26 263.526 254.814 263.526C254.368 263.526 254.145 265.074 254.145 265.074C254.145 265.074 247.228 260.32 244.774 258.773C242.209 257.225 239.085 255.125 239.085 255.125C239.085 255.125 238.416 255.346 239.085 255.899C239.754 256.451 245.444 262.642 246.671 271.043C247.563 278.338 244.886 282.649 244.886 282.649C244.886 282.649 233.173 282.428 230.049 281.986C228.265 280.217 228.264 279.665 228.264 279.665C228.264 279.665 228.934 278.559 228.041 277.343C227.149 276.238 226.48 276.017 225.253 276.238C224.583 275.575 224.583 275.575 224.583 275.575L223.914 276.238L228.041 281.433C228.041 281.433 226.926 281.433 226.926 282.318L228.264 284.86V285.744C228.264 285.744 228.934 287.624 229.603 287.845C230.273 288.066 230.942 289.171 230.942 289.171C230.942 289.171 232.95 291.161 233.508 291.492C234.065 291.824 240.647 295.14 244.774 296.025C248.902 296.909 255.818 296.246 260.169 293.482C263.627 292.156 264.742 291.713 264.742 291.713L265.858 290.166H263.069L268.089 284.086C268.089 284.086 270.431 283.865 271.993 283.202C271.547 281.654 266.973 278.007 264.854 275.464C262.846 272.922 259.834 269.827 255.26 266.4C255.483 263.968 255.483 263.968 255.483 263.968Z" fill="#F2E9E4"/>
<path d="M235.961 458.627C235.961 458.627 235.738 458.185 235.292 458.185C234.845 458.185 234.622 459.733 234.622 459.733C234.622 459.733 227.706 454.979 225.252 453.432C222.798 451.884 219.563 449.784 219.563 449.784C219.563 449.784 218.893 450.005 219.563 450.558C220.232 451.111 225.921 457.301 227.148 465.702C228.041 472.997 225.363 477.308 225.363 477.308C225.363 477.308 213.65 477.087 210.527 476.645C208.742 474.876 208.742 474.324 208.742 474.324C208.742 474.324 209.411 473.218 208.519 472.002C207.627 470.897 206.957 470.676 205.73 470.897C205.061 470.234 205.061 470.234 205.061 470.234L204.392 470.897L208.519 476.092C208.519 476.092 207.403 476.092 207.403 476.977L208.742 479.519V480.403C208.742 480.403 209.411 482.283 210.081 482.504C210.75 482.725 211.419 483.83 211.419 483.83C211.419 483.83 213.427 485.82 213.985 486.152C214.431 486.373 221.124 489.799 225.252 490.684C229.379 491.568 236.296 490.905 240.646 488.141C244.104 486.815 245.22 486.373 245.22 486.373L246.335 484.825H243.546L248.566 478.745C248.566 478.745 250.909 478.524 252.471 477.861C252.024 476.314 247.451 472.666 245.331 470.123C243.323 467.581 240.311 464.486 235.738 461.059C235.961 458.627 235.961 458.627 235.961 458.627Z" fill="#F2E9E4"/>
<path d="M375.735 379.813C375.735 379.813 375.512 379.371 375.066 379.371C374.62 379.371 374.397 380.918 374.397 380.918C374.397 380.918 367.481 376.165 365.026 374.618C362.461 373.07 359.337 370.97 359.337 370.97C359.337 370.97 358.668 371.191 359.337 371.744C360.006 372.296 365.696 378.487 366.923 386.887C367.815 394.183 365.138 398.494 365.138 398.494C365.138 398.494 353.425 398.273 350.301 397.831C348.517 396.062 348.517 395.51 348.517 395.51C348.517 395.51 349.186 394.404 348.294 393.188C347.401 392.083 346.732 391.862 345.505 392.083C344.835 391.42 344.835 391.42 344.835 391.42L344.166 392.083L348.294 397.278C348.294 397.278 347.178 397.278 347.178 398.162L348.517 400.705V401.589C348.517 401.589 349.186 403.468 349.855 403.689C350.524 403.911 351.194 405.016 351.194 405.016C351.194 405.016 353.202 407.006 353.759 407.337C354.206 407.558 360.899 410.985 365.026 411.869C369.154 412.754 376.07 412.09 380.421 409.327C383.879 408 384.994 407.558 384.994 407.558L386.11 406.011H383.321L388.341 399.931C388.341 399.931 390.683 399.71 392.245 399.047C391.799 397.499 387.225 393.851 385.106 391.309C383.098 388.767 380.086 385.672 375.512 382.245C375.735 379.813 375.735 379.813 375.735 379.813Z" fill="#F2E9E4"/>
<path d="M152.072 345.877C152.072 345.877 151.849 345.435 151.403 345.435C150.957 345.435 150.734 346.983 150.734 346.983C150.734 346.983 143.817 342.229 141.363 340.682C138.909 339.134 135.674 337.034 135.674 337.034C135.674 337.034 135.005 337.255 135.674 337.808C136.343 338.361 142.033 344.551 143.26 352.952C144.152 360.247 141.475 364.558 141.475 364.558C141.475 364.558 129.762 364.337 126.638 363.895C124.853 362.127 124.854 361.574 124.854 361.574C124.854 361.574 125.523 360.468 124.63 359.252C123.738 358.147 123.069 357.926 121.842 358.147C121.172 357.484 121.172 357.484 121.172 357.484L120.503 358.147L124.63 363.342C124.63 363.342 123.515 363.342 123.515 364.227L124.854 366.769V367.653C124.854 367.653 125.523 369.533 126.192 369.754C126.861 369.975 127.531 371.08 127.531 371.08C127.531 371.08 129.539 373.07 130.096 373.402C130.543 373.623 137.236 377.049 141.363 377.934C145.491 378.818 152.407 378.155 156.757 375.391C160.216 374.065 161.331 373.623 161.331 373.623L162.447 372.075H159.658L164.678 365.995C164.678 365.995 167.02 365.774 168.582 365.111C168.136 363.564 163.562 359.916 161.443 357.373C159.435 354.831 156.423 351.736 151.849 348.309C152.072 345.877 152.072 345.877 152.072 345.877Z" fill="#F2E9E4"/>
<path d="M200.265 345.877C200.265 345.877 200.041 345.435 199.595 345.435C199.149 345.435 198.926 346.983 198.926 346.983C198.926 346.983 192.01 342.229 189.556 340.682C187.101 339.134 183.866 337.034 183.866 337.034C183.866 337.034 183.197 337.255 183.866 337.808C184.536 338.361 190.225 344.551 191.452 352.952C192.344 360.247 189.667 364.558 189.667 364.558C189.667 364.558 177.954 364.337 174.831 363.895C173.046 362.127 173.046 361.574 173.046 361.574C173.046 361.574 173.715 360.468 172.823 359.252C171.93 358.147 171.261 357.926 170.034 358.147C169.365 357.484 169.365 357.484 169.365 357.484L168.695 358.147L172.823 363.342C172.823 363.342 171.707 363.342 171.707 364.227L173.046 366.769V367.653C173.046 367.653 173.715 369.533 174.384 369.754C175.054 369.975 175.723 371.08 175.723 371.08C175.723 371.08 177.731 373.07 178.289 373.402C178.735 373.623 185.428 377.049 189.556 377.934C193.683 378.818 200.599 378.155 204.95 375.391C208.408 374.065 209.523 373.623 209.523 373.623L210.639 372.075H207.85L212.87 365.995C212.87 365.995 215.213 365.774 216.774 365.111C216.328 363.564 211.754 359.916 209.635 357.373C207.627 354.831 204.615 351.736 200.042 348.309C200.265 345.877 200.265 345.877 200.265 345.877Z" fill="#F2E9E4"/>
<path d="M248.343 345.877C248.343 345.877 248.12 345.435 247.673 345.435C247.227 345.435 247.004 346.983 247.004 346.983C247.004 346.983 240.088 342.229 237.634 340.682C235.18 339.134 231.945 337.034 231.945 337.034C231.945 337.034 231.275 337.255 231.945 337.808C232.614 338.361 238.303 344.551 239.53 352.952C240.423 360.247 237.745 364.558 237.745 364.558C237.745 364.558 226.032 364.337 222.909 363.895C221.124 362.127 221.124 361.574 221.124 361.574C221.124 361.574 221.793 360.468 220.901 359.252C220.008 358.147 219.339 357.926 218.112 358.147C217.443 357.484 217.443 357.484 217.443 357.484L216.773 358.147L220.901 363.342C220.901 363.342 219.785 363.342 219.785 364.227L221.124 366.769V367.653C221.124 367.653 221.793 369.533 222.463 369.754C223.132 369.975 223.801 371.08 223.801 371.08C223.801 371.08 225.809 373.07 226.367 373.402C226.813 373.623 233.506 377.049 237.634 377.934C241.761 378.818 248.677 378.155 253.028 375.391C256.486 374.065 257.602 373.623 257.602 373.623L258.717 372.075H255.928L260.948 365.995C260.948 365.995 263.291 365.774 264.853 365.111C264.406 363.564 259.833 359.916 257.713 357.373C255.705 354.831 252.693 351.736 248.12 348.309C248.343 345.877 248.343 345.877 248.343 345.877Z" fill="#F2E9E4"/>
<path d="M296.422 345.877C296.422 345.877 296.199 345.435 295.753 345.435C295.306 345.435 295.083 346.983 295.083 346.983C295.083 346.983 288.167 342.229 285.713 340.682C283.259 339.134 280.024 337.034 280.024 337.034C280.024 337.034 279.354 337.255 280.024 337.808C280.693 338.361 286.382 344.551 287.609 352.952C288.502 360.247 285.824 364.558 285.824 364.558C285.824 364.558 274.111 364.337 270.988 363.895C269.203 362.127 269.203 361.574 269.203 361.574C269.203 361.574 269.872 360.468 268.98 359.252C268.088 358.147 267.418 357.926 266.191 358.147C265.522 357.484 265.522 357.484 265.522 357.484L264.853 358.147L268.98 363.342C268.98 363.342 267.864 363.342 267.864 364.227L269.203 366.769V367.653C269.203 367.653 269.872 369.533 270.542 369.754C271.211 369.975 271.88 371.08 271.88 371.08C271.88 371.08 273.888 373.07 274.446 373.402C274.892 373.623 281.585 377.049 285.713 377.934C289.84 378.818 296.757 378.155 301.107 375.391C304.565 374.065 305.681 373.623 305.681 373.623L306.796 372.075H304.007L309.027 365.995C309.027 365.995 311.37 365.774 312.932 365.111C312.485 363.564 307.912 359.916 305.792 357.373C303.784 354.831 300.772 351.736 296.199 348.309C296.422 345.877 296.422 345.877 296.422 345.877Z" fill="#F2E9E4"/>
<path d="M344.5 345.877C344.5 345.877 344.277 345.435 343.831 345.435C343.385 345.435 343.161 346.983 343.161 346.983C343.161 346.983 336.245 342.229 333.791 340.682C331.337 339.134 328.102 337.034 328.102 337.034C328.102 337.034 327.432 337.255 328.102 337.808C328.771 338.361 334.46 344.551 335.687 352.952C336.58 360.247 333.903 364.558 333.903 364.558C333.903 364.558 322.19 364.337 319.066 363.895C317.281 362.127 317.281 361.574 317.281 361.574C317.281 361.574 317.951 360.468 317.058 359.252C316.166 358.147 315.496 357.926 314.269 358.147C313.6 357.484 313.6 357.484 313.6 357.484L312.931 358.147L317.058 363.342C317.058 363.342 315.943 363.342 315.943 364.227L317.281 366.769V367.653C317.281 367.653 317.95 369.533 318.62 369.754C319.289 369.975 319.959 371.08 319.959 371.08C319.959 371.08 321.966 373.07 322.524 373.402C322.97 373.623 329.664 377.049 333.791 377.934C337.919 378.818 344.835 378.155 349.185 375.391C352.643 374.065 353.759 373.623 353.759 373.623L354.874 372.075H352.086L357.105 365.995C357.105 365.995 359.448 365.774 361.01 365.111C360.564 363.564 355.99 359.916 353.871 357.373C351.863 354.831 348.851 351.736 344.277 348.309C344.5 345.877 344.5 345.877 344.5 345.877Z" fill="#F2E9E4"/>
<path d="M501.49 157.249C501.49 157.249 501.267 156.807 500.821 156.807C500.375 156.807 500.152 158.354 500.152 158.354C500.152 158.354 493.235 153.601 490.781 152.053C488.215 150.506 485.092 148.406 485.092 148.406C485.092 148.406 484.423 148.627 485.092 149.179C485.761 149.732 491.45 155.922 492.677 164.323C493.57 171.619 490.893 175.93 490.893 175.93C490.893 175.93 479.18 175.709 476.056 175.267C474.271 173.498 474.271 172.945 474.271 172.945C474.271 172.945 474.941 171.84 474.048 170.624C473.156 169.519 472.487 169.298 471.259 169.519C470.59 168.855 470.59 168.855 470.59 168.855L469.921 169.519L474.048 174.714C474.048 174.714 472.933 174.714 472.933 175.598L474.271 178.141V179.025C474.271 179.025 474.941 180.904 475.61 181.125C476.279 181.346 476.949 182.452 476.949 182.452C476.949 182.452 478.957 184.441 479.514 184.773C480.072 185.105 486.654 188.421 490.781 189.305C494.909 190.19 501.825 189.526 506.175 186.763C509.634 185.436 510.749 184.994 510.749 184.994L511.865 183.447H509.076L514.096 177.367C514.096 177.367 516.438 177.146 518 176.483C517.554 174.935 512.98 171.287 510.861 168.745C508.853 166.203 505.841 163.107 501.267 159.681C501.49 157.249 501.49 157.249 501.49 157.249Z" fill="#F2E9E4"/>
<path d="M1663.2 741.78C1663.2 741.78 1662.97 741.338 1662.53 741.338C1662.08 741.338 1661.86 742.885 1661.86 742.885C1661.86 742.885 1654.94 738.132 1652.49 736.585C1649.92 735.037 1646.8 732.937 1646.8 732.937C1646.8 732.937 1646.13 733.158 1646.8 733.711C1647.47 734.263 1653.16 740.454 1654.38 748.855C1655.28 756.15 1652.6 760.461 1652.6 760.461C1652.6 760.461 1640.89 760.24 1637.76 759.798C1635.98 758.029 1635.98 757.477 1635.98 757.477C1635.98 757.477 1636.65 756.371 1635.76 755.155C1634.86 754.05 1634.19 753.829 1632.97 754.05C1632.3 753.387 1632.3 753.387 1632.3 753.387L1631.63 754.05L1635.76 759.245C1635.76 759.245 1634.64 759.245 1634.64 760.13L1635.98 762.672V763.556C1635.98 763.556 1636.65 765.435 1637.32 765.656C1637.99 765.878 1638.66 766.983 1638.66 766.983C1638.66 766.983 1640.66 768.973 1641.22 769.304C1641.67 769.525 1648.36 772.952 1652.49 773.836C1656.62 774.721 1663.53 774.057 1667.88 771.294C1671.34 769.968 1672.46 769.525 1672.46 769.525L1673.57 767.978H1670.78L1675.8 761.898C1675.8 761.898 1678.15 761.677 1679.71 761.014C1679.26 759.466 1674.69 755.818 1672.57 753.276C1670.56 750.734 1667.55 747.639 1662.97 744.212C1663.2 741.78 1663.2 741.78 1663.2 741.78Z" fill="#F2E9E4"/>
<path d="M1711.28 741.78C1711.28 741.78 1711.05 741.338 1710.61 741.338C1710.16 741.338 1709.94 742.885 1709.94 742.885C1709.94 742.885 1703.02 738.132 1700.57 736.585C1698 735.037 1694.88 732.937 1694.88 732.937C1694.88 732.937 1694.21 733.158 1694.88 733.711C1695.55 734.263 1701.24 740.454 1702.46 748.855C1703.36 756.15 1700.68 760.461 1700.68 760.461C1700.68 760.461 1688.96 760.24 1685.84 759.798C1684.06 758.029 1684.06 757.477 1684.06 757.477C1684.06 757.477 1684.73 756.371 1683.83 755.155C1682.94 754.05 1682.27 753.829 1681.04 754.05C1680.38 753.387 1680.38 753.387 1680.38 753.387L1679.71 754.05L1683.83 759.245C1683.83 759.245 1682.72 759.245 1682.72 760.13L1684.06 762.672V763.556C1684.06 763.556 1684.73 765.435 1685.4 765.656C1686.06 765.878 1686.73 766.983 1686.73 766.983C1686.73 766.983 1688.74 768.973 1689.3 769.304C1689.75 769.525 1696.44 772.952 1700.57 773.836C1704.69 774.721 1711.61 774.057 1715.96 771.294C1719.42 769.968 1720.53 769.525 1720.53 769.525L1721.65 767.978H1718.86L1723.88 761.898C1723.88 761.898 1726.22 761.677 1727.79 761.014C1727.34 759.466 1722.77 755.818 1720.65 753.276C1718.64 750.734 1715.63 747.639 1711.05 744.212C1711.28 741.78 1711.28 741.78 1711.28 741.78Z" fill="#F2E9E4"/>
<path d="M1639.1 779.363C1639.1 779.363 1638.88 778.921 1638.43 778.921C1637.99 778.921 1637.76 780.469 1637.76 780.469C1637.76 780.469 1630.85 775.715 1628.39 774.168C1625.83 772.62 1622.7 770.52 1622.7 770.52C1622.7 770.52 1622.03 770.741 1622.7 771.294C1623.37 771.847 1629.06 778.037 1630.29 786.438C1631.18 793.733 1628.5 798.044 1628.5 798.044C1628.5 798.044 1616.79 797.823 1613.67 797.381C1611.88 795.613 1611.88 795.06 1611.88 795.06C1611.88 795.06 1612.55 793.954 1611.66 792.739C1610.77 791.633 1610.1 791.412 1608.87 791.633C1608.2 790.97 1608.2 790.97 1608.2 790.97L1607.53 791.633L1611.66 796.828C1611.66 796.828 1610.54 796.828 1610.54 797.713L1611.88 800.255V801.14C1611.88 801.14 1612.55 803.019 1613.22 803.24C1613.89 803.461 1614.56 804.566 1614.56 804.566C1614.56 804.566 1616.57 806.556 1617.13 806.888C1617.57 807.109 1624.27 810.535 1628.39 811.42C1632.52 812.304 1639.44 811.641 1643.79 808.877C1647.24 807.551 1648.36 807.109 1648.36 807.109L1649.48 805.561H1646.69L1651.71 799.481C1651.71 799.481 1654.05 799.26 1655.61 798.597C1655.17 797.05 1650.59 793.402 1648.47 790.859C1646.35 788.317 1643.45 785.222 1638.88 781.795C1639.1 779.363 1639.1 779.363 1639.1 779.363Z" fill="#F2E9E4"/>
<path d="M1687.29 779.363C1687.29 779.363 1687.07 778.921 1686.62 778.921C1686.18 778.921 1685.95 780.469 1685.95 780.469C1685.95 780.469 1679.04 775.715 1676.58 774.168C1674.02 772.62 1670.89 770.52 1670.89 770.52C1670.89 770.52 1670.22 770.741 1670.89 771.294C1671.56 771.847 1677.25 778.037 1678.48 786.438C1679.37 793.733 1676.69 798.044 1676.69 798.044C1676.69 798.044 1664.98 797.823 1661.86 797.381C1660.07 795.613 1660.07 795.06 1660.07 795.06C1660.07 795.06 1660.74 793.954 1659.85 792.739C1658.96 791.633 1658.29 791.412 1657.06 791.633C1656.39 790.97 1656.39 790.97 1656.39 790.97L1655.72 791.633L1659.85 796.828C1659.85 796.828 1658.73 796.828 1658.73 797.713L1660.07 800.255V801.14C1660.07 801.14 1660.74 803.019 1661.41 803.24C1662.08 803.461 1662.75 804.566 1662.75 804.566C1662.75 804.566 1664.76 806.556 1665.32 806.888C1665.76 807.109 1672.46 810.535 1676.58 811.42C1680.71 812.304 1687.63 811.641 1691.98 808.877C1695.44 807.551 1696.55 807.109 1696.55 807.109L1697.67 805.561H1694.88L1699.9 799.481C1699.9 799.481 1702.24 799.26 1703.8 798.597C1703.36 797.05 1698.78 793.402 1696.66 790.859C1694.54 788.317 1691.64 785.222 1687.07 781.795C1687.29 779.363 1687.29 779.363 1687.29 779.363Z" fill="#F2E9E4"/>
<path d="M1792.49 779.363C1792.49 779.363 1792.26 778.921 1791.82 778.921C1791.37 778.921 1791.15 780.469 1791.15 780.469C1791.15 780.469 1784.23 775.715 1781.78 774.168C1779.21 772.62 1776.09 770.52 1776.09 770.52C1776.09 770.52 1775.42 770.741 1776.09 771.294C1776.76 771.847 1782.45 778.037 1783.67 786.438C1784.57 793.733 1781.89 798.044 1781.89 798.044C1781.89 798.044 1770.18 797.823 1767.05 797.381C1765.27 795.613 1765.27 795.06 1765.27 795.06C1765.27 795.06 1765.94 793.954 1765.04 792.739C1764.15 791.633 1763.48 791.412 1762.26 791.633C1761.59 790.97 1761.59 790.97 1761.59 790.97L1760.92 791.633L1765.04 796.828C1765.04 796.828 1763.93 796.828 1763.93 797.713L1765.27 800.255V801.14C1765.27 801.14 1765.94 803.019 1766.61 803.24C1767.28 803.461 1767.94 804.566 1767.94 804.566C1767.94 804.566 1769.95 806.556 1770.51 806.888C1770.96 807.109 1777.65 810.535 1781.78 811.42C1785.9 812.304 1792.82 811.641 1797.17 808.877C1800.63 807.551 1801.75 807.109 1801.75 807.109L1802.86 805.561H1800.07L1805.09 799.481C1805.09 799.481 1807.43 799.26 1809 798.597C1808.55 797.05 1803.98 793.402 1801.86 790.859C1799.74 788.317 1796.84 785.222 1792.26 781.795C1792.49 779.363 1792.49 779.363 1792.49 779.363Z" fill="#F2E9E4"/>
<path d="M1799.51 707.844C1799.51 707.844 1799.29 707.402 1798.84 707.402C1798.4 707.402 1798.18 708.95 1798.18 708.95C1798.18 708.95 1791.26 704.196 1788.8 702.649C1786.24 701.101 1783.12 699.001 1783.12 699.001C1783.12 699.001 1782.45 699.222 1783.12 699.775C1783.78 700.328 1789.47 706.518 1790.7 714.919C1791.59 722.214 1788.92 726.525 1788.92 726.525C1788.92 726.525 1777.2 726.304 1774.08 725.862C1772.29 724.093 1772.29 723.541 1772.29 723.541C1772.29 723.541 1772.96 722.435 1772.07 721.219C1771.18 720.114 1770.51 719.893 1769.28 720.114C1768.61 719.451 1768.61 719.451 1768.61 719.451L1767.94 720.114L1772.07 725.309C1772.07 725.309 1770.96 725.309 1770.96 726.194L1772.29 728.736V729.62C1772.29 729.62 1772.96 731.5 1773.63 731.721C1774.3 731.942 1774.97 733.047 1774.97 733.047C1774.97 733.047 1776.98 735.037 1777.54 735.368C1777.98 735.59 1784.68 739.016 1788.8 739.901C1792.93 740.785 1799.85 740.122 1804.2 737.358C1807.66 736.032 1808.77 735.59 1808.77 735.59L1809.89 734.042H1807.1L1812.12 727.962C1812.12 727.962 1814.46 727.741 1816.02 727.078C1815.58 725.53 1811 721.883 1808.88 719.34C1806.88 716.798 1803.86 713.703 1799.29 710.276C1799.51 707.844 1799.51 707.844 1799.51 707.844Z" fill="#F2E9E4"/>
<path d="M1696.88 668.161C1696.88 668.161 1696.66 667.719 1696.22 667.719C1695.77 667.719 1695.55 669.267 1695.55 669.267C1695.55 669.267 1688.63 664.514 1686.18 662.966C1683.61 661.418 1680.49 659.318 1680.49 659.318C1680.49 659.318 1679.82 659.539 1680.49 660.092C1681.16 660.645 1686.85 666.835 1688.07 675.236C1688.96 682.531 1686.29 686.842 1686.29 686.842C1686.29 686.842 1674.57 686.621 1671.45 686.179C1669.67 684.411 1669.67 683.858 1669.67 683.858C1669.67 683.858 1670.34 682.753 1669.44 681.537C1668.55 680.321 1667.88 680.21 1666.65 680.431C1665.98 679.768 1665.98 679.768 1665.98 679.768L1665.32 680.431L1669.44 685.627C1669.44 685.627 1668.33 685.627 1668.33 686.511L1669.67 689.053V689.938C1669.67 689.938 1670.34 691.817 1671 692.038C1671.67 692.259 1672.34 693.364 1672.34 693.364C1672.34 693.364 1674.35 695.354 1674.91 695.686C1675.36 695.907 1682.05 699.333 1686.18 700.218C1690.3 701.102 1697.22 700.439 1701.57 697.675C1705.03 696.349 1706.14 695.907 1706.14 695.907L1707.26 694.359H1704.47L1709.49 688.279C1709.49 688.279 1711.83 688.058 1713.39 687.395C1712.95 685.848 1708.37 682.2 1706.26 679.657C1704.25 677.115 1701.24 674.02 1696.66 670.593C1696.88 668.161 1696.88 668.161 1696.88 668.161Z" fill="#F2E9E4"/>
<path d="M1600.73 668.161C1600.73 668.161 1600.5 667.719 1600.06 667.719C1599.61 667.719 1599.39 669.267 1599.39 669.267C1599.39 669.267 1592.47 664.514 1590.02 662.966C1587.45 661.418 1584.33 659.318 1584.33 659.318C1584.33 659.318 1583.66 659.539 1584.33 660.092C1585 660.645 1590.69 666.835 1591.91 675.236C1592.81 682.531 1590.13 686.842 1590.13 686.842C1590.13 686.842 1578.42 686.621 1575.29 686.179C1573.51 684.411 1573.51 683.858 1573.51 683.858C1573.51 683.858 1574.18 682.753 1573.29 681.537C1572.39 680.321 1571.72 680.21 1570.5 680.431C1569.83 679.768 1569.83 679.768 1569.83 679.768L1569.16 680.431L1573.29 685.627C1573.29 685.627 1572.17 685.627 1572.17 686.511L1573.51 689.053V689.938C1573.51 689.938 1574.18 691.817 1574.85 692.038C1575.52 692.259 1576.19 693.364 1576.19 693.364C1576.19 693.364 1578.19 695.354 1578.75 695.686C1579.2 695.907 1585.89 699.333 1590.02 700.218C1594.15 701.102 1601.06 700.439 1605.41 697.675C1608.87 696.349 1609.99 695.907 1609.99 695.907L1611.1 694.359H1608.31L1613.33 688.279C1613.33 688.279 1615.68 688.058 1617.24 687.395C1616.79 685.848 1612.22 682.2 1610.1 679.657C1608.09 677.115 1605.08 674.02 1600.5 670.593C1600.73 668.161 1600.73 668.161 1600.73 668.161Z" fill="#F2E9E4"/>
<path d="M1639.1 625.935C1639.1 625.935 1638.88 625.493 1638.43 625.493C1637.99 625.493 1637.76 627.04 1637.76 627.04C1637.76 627.04 1630.85 622.287 1628.39 620.74C1625.83 619.192 1622.7 617.092 1622.7 617.092C1622.7 617.092 1622.03 617.313 1622.7 617.866C1623.37 618.418 1629.06 624.609 1630.29 633.01C1631.18 640.305 1628.5 644.616 1628.5 644.616C1628.5 644.616 1616.79 644.395 1613.67 643.953C1611.88 642.184 1611.88 641.632 1611.88 641.632C1611.88 641.632 1612.55 640.526 1611.66 639.31C1610.77 638.205 1610.1 637.984 1608.87 638.205C1608.2 637.542 1608.2 637.542 1608.2 637.542L1607.53 638.205L1611.66 643.4C1611.66 643.4 1610.54 643.4 1610.54 644.285L1611.88 646.827V647.711C1611.88 647.711 1612.55 649.59 1613.22 649.812C1613.89 650.033 1614.56 651.138 1614.56 651.138C1614.56 651.138 1616.57 653.128 1617.13 653.459C1617.68 653.791 1624.27 657.107 1628.39 657.991C1632.52 658.876 1639.44 658.212 1643.79 655.449C1647.24 654.123 1648.36 653.68 1648.36 653.68L1649.48 652.133H1646.69L1651.71 646.053C1651.71 646.053 1654.05 645.832 1655.61 645.169C1655.17 643.621 1650.59 639.974 1648.47 637.431C1646.46 634.889 1643.45 631.794 1638.88 628.367C1639.1 625.935 1639.1 625.935 1639.1 625.935Z" fill="#F2E9E4"/>
<path d="M1619.58 820.594C1619.58 820.594 1619.36 820.152 1618.91 820.152C1618.47 820.152 1618.24 821.7 1618.24 821.7C1618.24 821.7 1611.33 816.946 1608.87 815.399C1606.42 813.851 1603.18 811.751 1603.18 811.751C1603.18 811.751 1602.51 811.972 1603.18 812.525C1603.85 813.078 1609.54 819.268 1610.77 827.669C1611.66 834.964 1608.98 839.275 1608.98 839.275C1608.98 839.275 1597.27 839.054 1594.15 838.612C1592.36 836.844 1592.36 836.291 1592.36 836.291C1592.36 836.291 1593.03 835.185 1592.14 833.969C1591.25 832.864 1590.58 832.643 1589.35 832.864C1588.68 832.201 1588.68 832.201 1588.68 832.201L1588.01 832.864L1592.14 838.059C1592.14 838.059 1591.02 838.059 1591.02 838.944L1592.36 841.486V842.37C1592.36 842.37 1593.03 844.25 1593.7 844.471C1594.37 844.692 1595.04 845.797 1595.04 845.797C1595.04 845.797 1597.05 847.787 1597.61 848.119C1598.05 848.34 1604.74 851.766 1608.87 852.651C1613 853.535 1619.92 852.872 1624.27 850.108C1627.72 848.782 1628.84 848.34 1628.84 848.34L1629.96 846.792H1627.17L1632.19 840.712C1632.19 840.712 1634.53 840.491 1636.09 839.828C1635.64 838.281 1631.07 834.633 1628.95 832.09C1626.94 829.548 1623.93 826.453 1619.36 823.026C1619.58 820.594 1619.58 820.594 1619.58 820.594Z" fill="#F2E9E4"/>
<path d="M1458.61 900.072C1458.61 900.072 1458.39 899.63 1457.94 899.63C1457.49 899.63 1457.27 901.178 1457.27 901.178C1457.27 901.178 1450.35 896.425 1447.9 894.877C1445.45 893.329 1442.21 891.229 1442.21 891.229C1442.21 891.229 1441.54 891.45 1442.21 892.003C1442.88 892.556 1448.57 898.746 1449.8 907.147C1450.69 914.442 1448.01 918.753 1448.01 918.753C1448.01 918.753 1436.3 918.532 1433.18 918.09C1431.39 916.322 1431.39 915.769 1431.39 915.769C1431.39 915.769 1432.06 914.664 1431.17 913.448C1430.28 912.342 1429.61 912.121 1428.38 912.342C1427.71 911.679 1427.71 911.679 1427.71 911.679L1427.04 912.342L1431.17 917.538C1431.17 917.538 1430.05 917.538 1430.05 918.422L1431.39 920.964V921.849C1431.39 921.849 1432.06 923.728 1432.73 923.949C1433.4 924.17 1434.07 925.275 1434.07 925.275C1434.07 925.275 1436.08 927.265 1436.63 927.597C1437.08 927.818 1443.77 931.244 1447.9 932.129C1452.03 933.013 1458.94 932.35 1463.29 929.586C1466.75 928.26 1467.87 927.818 1467.87 927.818L1468.98 926.27H1466.19L1471.21 920.19C1471.21 920.19 1473.56 919.969 1475.12 919.306C1474.67 917.759 1470.1 914.111 1467.98 911.568C1465.97 909.026 1462.96 905.931 1458.39 902.504C1458.61 900.072 1458.61 900.072 1458.61 900.072Z" fill="#F2E9E4"/>
<path d="M1759.35 741.78C1759.35 741.78 1759.13 741.338 1758.69 741.338C1758.24 741.338 1758.02 742.885 1758.02 742.885C1758.02 742.885 1751.1 738.132 1748.65 736.585C1746.08 735.037 1742.96 732.937 1742.96 732.937C1742.96 732.937 1742.29 733.158 1742.96 733.711C1743.63 734.263 1749.31 740.454 1750.54 748.855C1751.43 756.15 1748.76 760.461 1748.76 760.461C1748.76 760.461 1737.04 760.24 1733.92 759.798C1732.14 758.029 1732.14 757.477 1732.14 757.477C1732.14 757.477 1732.81 756.371 1731.91 755.155C1731.02 754.05 1730.35 753.829 1729.12 754.05C1728.45 753.387 1728.45 753.387 1728.45 753.387L1727.79 754.05L1731.91 759.245C1731.91 759.245 1730.8 759.245 1730.8 760.13L1732.14 762.672V763.556C1732.14 763.556 1732.8 765.435 1733.47 765.656C1734.14 765.878 1734.81 766.983 1734.81 766.983C1734.81 766.983 1736.82 768.973 1737.38 769.304C1737.82 769.525 1744.52 772.952 1748.65 773.836C1752.77 774.721 1759.69 774.057 1764.04 771.294C1767.5 769.968 1768.61 769.525 1768.61 769.525L1769.73 767.978H1766.94L1771.96 761.898C1771.96 761.898 1774.3 761.677 1775.86 761.014C1775.42 759.466 1770.84 755.818 1768.73 753.276C1766.72 750.734 1763.71 747.639 1759.13 744.212C1759.35 741.78 1759.35 741.78 1759.35 741.78Z" fill="#F2E9E4"/>
<path d="M1631.96 707.844C1631.96 707.844 1631.74 707.402 1631.29 707.402C1630.85 707.402 1630.62 708.95 1630.62 708.95C1630.62 708.95 1623.71 704.196 1621.25 702.649C1618.8 701.101 1615.56 699.001 1615.56 699.001C1615.56 699.001 1614.89 699.222 1615.56 699.775C1616.23 700.328 1621.92 706.518 1623.15 714.919C1624.04 722.214 1621.36 726.525 1621.36 726.525C1621.36 726.525 1609.65 726.304 1606.53 725.862C1604.74 724.093 1604.74 723.541 1604.74 723.541C1604.74 723.541 1605.41 722.435 1604.52 721.219C1603.63 720.114 1602.96 719.893 1601.73 720.114C1601.06 719.451 1601.06 719.451 1601.06 719.451L1600.39 720.114L1604.52 725.309C1604.52 725.309 1603.4 725.309 1603.4 726.194L1604.74 728.736V729.62C1604.74 729.62 1605.41 731.5 1606.08 731.721C1606.75 731.942 1607.42 733.047 1607.42 733.047C1607.42 733.047 1609.43 735.037 1609.99 735.368C1610.43 735.59 1617.13 739.016 1621.25 739.901C1625.38 740.785 1632.3 740.122 1636.65 737.358C1640.11 736.032 1641.22 735.59 1641.22 735.59L1642.34 734.042H1639.55L1644.57 727.962C1644.57 727.962 1646.91 727.741 1648.47 727.078C1648.03 725.53 1643.45 721.883 1641.33 719.34C1639.32 716.798 1636.31 713.703 1631.74 710.276C1631.96 707.844 1631.96 707.844 1631.96 707.844Z" fill="#F2E9E4"/>
<path d="M1728.12 707.844C1728.12 707.844 1727.9 707.402 1727.45 707.402C1727 707.402 1726.78 708.95 1726.78 708.95C1726.78 708.95 1719.87 704.196 1717.41 702.649C1714.96 701.101 1711.72 699.001 1711.72 699.001C1711.72 699.001 1711.05 699.222 1711.72 699.775C1712.39 700.328 1718.08 706.518 1719.31 714.919C1720.2 722.214 1717.52 726.525 1717.52 726.525C1717.52 726.525 1705.81 726.304 1702.69 725.862C1700.9 724.093 1700.9 723.541 1700.9 723.541C1700.9 723.541 1701.57 722.435 1700.68 721.219C1699.79 720.114 1699.12 719.893 1697.89 720.114C1697.22 719.451 1697.22 719.451 1697.22 719.451L1696.55 720.114L1700.68 725.309C1700.68 725.309 1699.56 725.309 1699.56 726.194L1700.9 728.736V729.62C1700.9 729.62 1701.57 731.5 1702.24 731.721C1702.91 731.942 1703.58 733.047 1703.58 733.047C1703.58 733.047 1705.59 735.037 1706.14 735.368C1706.59 735.59 1713.28 739.016 1717.41 739.901C1721.54 740.785 1728.45 740.122 1732.81 737.358C1736.26 736.032 1737.38 735.59 1737.38 735.59L1738.49 734.042H1735.71L1740.73 727.962C1740.73 727.962 1743.07 727.741 1744.63 727.078C1744.18 725.53 1739.61 721.883 1737.49 719.34C1735.48 716.798 1732.47 713.703 1727.9 710.276C1728.12 707.844 1728.12 707.844 1728.12 707.844Z" fill="#F2E9E4"/>
</g>
</svg>
