<?xml version="1.0" encoding="utf-8"?>
<!-- Generator: Adobe Illustrator 25.0.0, SVG Export Plug-In . SVG Version: 6.00 Build 0)  -->
<svg version="1.1" id="Layer_1" xmlns="http://www.w3.org/2000/svg" xmlns:xlink="http://www.w3.org/1999/xlink" x="0px" y="0px"
	 viewBox="0 0 263.1 216.9" style="enable-background:new 0 0 263.1 216.9;" xml:space="preserve" opacity="0.1">
<style type="text/css">
	.st0{fill:#F2E9E4;}
</style>
<g>
	<path class="st0" d="M132.6,88c0,0-0.2-0.4-0.7-0.4c-0.4,0-0.7,1.5-0.7,1.5s-6.9-4.8-9.4-6.3c-2.6-1.5-5.7-3.6-5.7-3.6
		s-0.7,0.2,0,0.8c0.7,0.6,6.4,6.7,7.6,15.1c0.9,7.3-1.8,11.6-1.8,11.6s-11.7-0.2-14.8-0.7c-1.8-1.8-1.8-2.3-1.8-2.3s0.7-1.1-0.2-2.3
		c-0.9-1.1-1.6-1.3-2.8-1.1c-0.7-0.7-0.7-0.7-0.7-0.7l-0.7,0.7l4.1,5.2c0,0-1.1,0-1.1,0.9l1.3,2.5v0.9c0,0,0.7,1.9,1.3,2.1
		c0.7,0.2,1.3,1.3,1.3,1.3s2,2,2.6,2.3c0.4,0.2,7.1,3.6,11.3,4.5c4.1,0.9,11,0.2,15.4-2.5c3.5-1.3,4.6-1.8,4.6-1.8l1.1-1.5h-2.8
		l5-6.1c0,0,2.3-0.2,3.9-0.9c-0.5-1.5-5-5.2-7.1-7.7c-2-2.5-5-5.6-9.6-9.1C132.6,88,132.6,88,132.6,88z"/>
	<path class="st0" d="M213.8,125.6c0,0-0.2-0.4-0.7-0.4c-0.4,0-0.7,1.5-0.7,1.5s-6.9-4.8-9.4-6.3c-2.6-1.5-5.7-3.6-5.7-3.6
		s-0.7,0.2,0,0.8c0.7,0.6,6.4,6.7,7.6,15.1c0.9,7.3-1.8,11.6-1.8,11.6s-11.7-0.2-14.8-0.7c-1.8-1.8-1.8-2.3-1.8-2.3s0.7-1.1-0.2-2.3
		c-0.9-1.1-1.6-1.3-2.8-1.1c-0.7-0.7-0.7-0.7-0.7-0.7l-0.7,0.7l4.1,5.2c0,0-1.1,0-1.1,0.9l1.3,2.5v0.9c0,0,0.7,1.9,1.3,2.1
		s1.3,1.3,1.3,1.3s2,2,2.6,2.3c0.4,0.2,7.1,3.6,11.3,4.5c4.1,0.9,11,0.2,15.4-2.5c3.5-1.3,4.6-1.8,4.6-1.8l1.1-1.5h-2.8l5-6.1
		c0,0,2.3-0.2,3.9-0.9c-0.4-1.5-5-5.2-7.1-7.7c-2.1-2.5-5-5.6-9.6-9.1C213.8,125.6,213.8,125.6,213.8,125.6z"/>
	<path class="st0" d="M220.8,54.1c0,0-0.2-0.4-0.7-0.4c-0.4,0-0.7,1.5-0.7,1.5s-6.9-4.8-9.4-6.3c-2.6-1.5-5.7-3.6-5.7-3.6
		s-0.7,0.2,0,0.8c0.7,0.6,6.3,6.7,7.6,15.1c0.9,7.3-1.8,11.6-1.8,11.6s-11.7-0.2-14.8-0.7c-1.8-1.8-1.8-2.3-1.8-2.3s0.7-1.1-0.2-2.3
		c-0.9-1.1-1.6-1.3-2.8-1.1c-0.7-0.7-0.7-0.7-0.7-0.7l-0.7,0.7l4.1,5.2c0,0-1.1,0-1.1,0.9l1.3,2.5v0.9c0,0,0.7,1.9,1.3,2.1
		s1.3,1.3,1.3,1.3s2,2,2.6,2.3c0.4,0.2,7.1,3.6,11.3,4.5c4.1,0.9,11,0.2,15.4-2.5c3.5-1.3,4.6-1.8,4.6-1.8l1.1-1.5h-2.8l5-6.1
		c0,0,2.3-0.2,3.9-0.9c-0.4-1.5-5-5.2-7.1-7.7c-2-2.5-5-5.6-9.6-9.1C220.8,54.1,220.8,54.1,220.8,54.1z"/>
	<path class="st0" d="M65,131.6c0,0-0.2-0.4-0.7-0.4c-0.4,0-0.7,1.5-0.7,1.5s-6.9-4.8-9.4-6.3c-2.4-1.5-5.7-3.6-5.7-3.6
		s-0.7,0.2,0,0.8c0.7,0.6,6.4,6.7,7.6,15.1c0.9,7.3-1.8,11.6-1.8,11.6s-11.7-0.2-14.8-0.7c-1.8-1.8-1.8-2.3-1.8-2.3s0.7-1.1-0.2-2.3
		c-0.9-1.1-1.6-1.3-2.8-1.1c-0.7-0.7-0.7-0.7-0.7-0.7l-0.7,0.7l4.1,5.2c0,0-1.1,0-1.1,0.9l1.3,2.5v0.9c0,0,0.7,1.9,1.3,2.1
		c0.7,0.2,1.3,1.3,1.3,1.3s2,2,2.6,2.3c0.4,0.2,7.1,3.6,11.3,4.5c4.1,0.9,11.1,0.2,15.4-2.5c3.4-1.3,4.6-1.8,4.6-1.8l1.1-1.5h-2.8
		l5-6.1c0,0,2.3-0.2,3.9-0.9c-0.4-1.5-5-5.2-7.1-7.7c-2-2.5-5-5.6-9.6-9.1C65,131.6,65,131.6,65,131.6z"/>
	<path class="st0" d="M180.7,88c0,0-0.2-0.4-0.7-0.4c-0.4,0-0.7,1.5-0.7,1.5s-6.9-4.8-9.4-6.3c-2.6-1.5-5.7-3.6-5.7-3.6
		s-0.7,0.2,0,0.8c0.7,0.6,6.4,6.7,7.6,15.1c0.9,7.3-1.8,11.6-1.8,11.6s-11.7-0.2-14.8-0.7c-1.8-1.8-1.8-2.3-1.8-2.3s0.7-1.1-0.2-2.3
		c-0.9-1.1-1.6-1.3-2.8-1.1c-0.7-0.7-0.7-0.7-0.7-0.7l-0.7,0.7l4.1,5.2c0,0-1.1,0-1.1,0.9l1.3,2.5v0.9c0,0,0.7,1.9,1.3,2.1
		c0.7,0.2,1.3,1.3,1.3,1.3s2,2,2.6,2.3c0.4,0.2,7.1,3.6,11.3,4.5c4.1,0.9,11,0.2,15.4-2.5c3.5-1.3,4.6-1.8,4.6-1.8l1.1-1.5h-2.8
		l5-6.1c0,0,2.3-0.2,3.9-0.9c-0.4-1.5-5-5.2-7.1-7.7c-2-2.5-5-5.6-9.6-9.1C180.7,88,180.7,88,180.7,88z"/>
</g>
</svg>
