<svg id="Layer_1" data-name="Layer 1" xmlns="http://www.w3.org/2000/svg" viewBox="0 0 398.81 295.11"><defs><style>.cls-1{opacity:0.1;}.cls-2{fill:#f2e9e4;}</style></defs><g class="cls-1"><path class="cls-2" d="M64.12,159.81a.84.84,0,0,0-.67-.44c-.45,0-.67,1.55-.67,1.55s-6.92-4.75-9.37-6.3S47.72,151,47.72,151s-.67.22,0,.77a29.13,29.13,0,0,1,7.58,15.15c.9,7.29-1.78,11.6-1.78,11.6s-11.71-.22-14.84-.66c-1.78-1.77-1.78-2.32-1.78-2.32a2.14,2.14,0,0,0-.22-2.32,2.47,2.47,0,0,0-2.79-1.11l-.67-.66-.67.66,4.13,5.2s-1.12,0-1.12.88l1.34,2.54v.89s.67,1.88,1.34,2.1S39.58,185,39.58,185a29.7,29.7,0,0,0,2.56,2.32c.45.22,7.14,3.64,11.27,4.53s11,.22,15.39-2.54l4.58-1.77L74.49,186H71.7l5-6.08a16.11,16.11,0,0,0,3.91-.88c-.45-1.55-5-5.2-7.14-7.74a51.19,51.19,0,0,0-9.6-9.07Z"/><path class="cls-2" d="M112.2,159.81a.84.84,0,0,0-.67-.44c-.45,0-.67,1.55-.67,1.55s-6.92-4.75-9.37-6.3S95.8,151,95.8,151s-.67.22,0,.77a29.13,29.13,0,0,1,7.58,15.15c.9,7.29-1.78,11.6-1.78,11.6s-11.71-.22-14.84-.66C85,176.06,85,175.51,85,175.51a2.13,2.13,0,0,0-.23-2.32A2.45,2.45,0,0,0,82,172.08l-.67-.66-.67.66,4.12,5.2s-1.11,0-1.11.88L85,180.7v.89s.67,1.88,1.34,2.1S87.65,185,87.65,185a30.11,30.11,0,0,0,2.57,2.32c.45.22,7.14,3.64,11.27,4.53s11,.22,15.39-2.54c3.46-1.33,4.57-1.77,4.57-1.77l1.12-1.55h-2.79l5-6.08a16.2,16.2,0,0,0,3.91-.88c-.45-1.55-5-5.2-7.14-7.74a51.19,51.19,0,0,0-9.6-9.07Z"/><path class="cls-2" d="M160.39,159.81a.84.84,0,0,0-.67-.44c-.45,0-.67,1.55-.67,1.55s-6.92-4.75-9.37-6.3S144,151,144,151s-.67.22,0,.77a29.13,29.13,0,0,1,7.58,15.15c.9,7.29-1.78,11.6-1.78,11.6s-11.71-.22-14.84-.66c-1.78-1.77-1.78-2.32-1.78-2.32a2.14,2.14,0,0,0-.22-2.32,2.47,2.47,0,0,0-2.79-1.11l-.67-.66-.67.66,4.13,5.2s-1.12,0-1.12.88l1.34,2.54v.89s.67,1.88,1.34,2.1,1.34,1.33,1.34,1.33a29.7,29.7,0,0,0,2.56,2.32c.45.22,7.14,3.64,11.27,4.53s11,.22,15.39-2.54l4.58-1.77,1.11-1.55H168l5-6.08a16.11,16.11,0,0,0,3.91-.88c-.45-1.55-5-5.2-7.14-7.74a51.19,51.19,0,0,0-9.6-9.07Z"/><path class="cls-2" d="M208.47,159.81a.84.84,0,0,0-.67-.44c-.45,0-.67,1.55-.67,1.55s-6.92-4.75-9.37-6.3-5.69-3.65-5.69-3.65-.67.22,0,.77a29.13,29.13,0,0,1,7.58,15.15c.9,7.29-1.78,11.6-1.78,11.6s-11.71-.22-14.84-.66c-1.78-1.77-1.78-2.32-1.78-2.32a2.13,2.13,0,0,0-.23-2.32,2.45,2.45,0,0,0-2.78-1.11l-.67-.66-.67.66,4.12,5.2s-1.11,0-1.11.88l1.34,2.54v.89s.67,1.88,1.34,2.1,1.34,1.33,1.34,1.33a29.7,29.7,0,0,0,2.56,2.32c.45.22,7.14,3.64,11.27,4.53s11,.22,15.39-2.54l4.58-1.77,1.11-1.55h-2.79l5-6.08a16.2,16.2,0,0,0,3.91-.88c-.45-1.55-5-5.2-7.14-7.74a51.19,51.19,0,0,0-9.6-9.07Z"/><path class="cls-2" d="M256.54,159.81a.81.81,0,0,0-.66-.44c-.45,0-.67,1.55-.67,1.55s-6.92-4.75-9.37-6.3-5.69-3.65-5.69-3.65-.67.22,0,.77a29.13,29.13,0,0,1,7.58,15.15c.89,7.29-1.78,11.6-1.78,11.6s-11.72-.22-14.84-.66c-1.78-1.77-1.78-2.32-1.78-2.32a2.13,2.13,0,0,0-.23-2.32,2.46,2.46,0,0,0-2.79-1.11l-.67-.66-.66.66,4.12,5.2s-1.11,0-1.11.88l1.34,2.54v.89s.67,1.88,1.33,2.1S232,185,232,185a30.11,30.11,0,0,0,2.57,2.32c.45.22,7.14,3.64,11.27,4.53s11,.22,15.39-2.54c3.46-1.33,4.57-1.77,4.57-1.77l1.12-1.55h-2.79l5-6.08a16.07,16.07,0,0,0,3.9-.88c-.44-1.55-5-5.2-7.13-7.74a51.19,51.19,0,0,0-9.6-9.07Z"/><path class="cls-2" d="M88.21,197.4a.82.82,0,0,0-.67-.45c-.44,0-.67,1.55-.67,1.55s-6.91-4.75-9.37-6.3-5.69-3.65-5.69-3.65-.67.22,0,.78a29.1,29.1,0,0,1,7.59,15.14c.89,7.3-1.79,11.61-1.79,11.61s-11.71-.22-14.83-.67C61,213.65,61,213.09,61,213.09a2.14,2.14,0,0,0-.22-2.32,2.33,2.33,0,0,0-2.79-1.1l-.67-.67-.67.67,4.13,5.19s-1.12,0-1.12.89L61,218.29v.88s.67,1.88,1.34,2.1,1.34,1.33,1.34,1.33a30.11,30.11,0,0,0,2.57,2.32c.44.22,7.14,3.65,11.26,4.53s11,.22,15.4-2.54c3.46-1.33,4.57-1.77,4.57-1.77l1.12-1.55H95.8l5-6.08a16.07,16.07,0,0,0,3.9-.88c-.44-1.55-5-5.2-7.14-7.74A51.4,51.4,0,0,0,88,199.83Z"/><path class="cls-2" d="M136.29,197.4a.82.82,0,0,0-.67-.45c-.44,0-.67,1.55-.67,1.55s-6.91-4.75-9.37-6.3-5.69-3.65-5.69-3.65-.67.22,0,.78a29.1,29.1,0,0,1,7.59,15.14c.89,7.3-1.79,11.61-1.79,11.61s-11.71-.22-14.83-.67c-1.79-1.76-1.79-2.32-1.79-2.32a2.14,2.14,0,0,0-.22-2.32,2.47,2.47,0,0,0-2.79-1.1l-.67-.67-.67.67,4.13,5.19s-1.12,0-1.12.89l1.34,2.54v.88s.67,1.88,1.34,2.1,1.34,1.33,1.34,1.33a30.11,30.11,0,0,0,2.57,2.32c.44.22,7.13,3.65,11.26,4.53s11,.22,15.4-2.54l4.57-1.77,1.12-1.55h-2.79l5-6.08a16.07,16.07,0,0,0,3.9-.88c-.45-1.55-5-5.2-7.14-7.74a55.19,55.19,0,0,0-9.59-9.06Z"/><path class="cls-2" d="M184.37,197.4a.82.82,0,0,0-.67-.45c-.44,0-.67,1.55-.67,1.55s-6.91-4.75-9.37-6.3-5.69-3.65-5.69-3.65-.67.22,0,.78a29.1,29.1,0,0,1,7.59,15.14c.89,7.3-1.79,11.61-1.79,11.61s-11.71-.22-14.83-.67c-1.79-1.76-1.79-2.32-1.79-2.32a2.14,2.14,0,0,0-.22-2.32,2.47,2.47,0,0,0-2.79-1.1l-.67-.67-.67.67,4.13,5.19s-1.12,0-1.12.89l1.34,2.54v.88s.67,1.88,1.34,2.1,1.34,1.33,1.34,1.33a30.11,30.11,0,0,0,2.57,2.32c.44.22,7.14,3.65,11.26,4.53s11.05.22,15.4-2.54c3.46-1.33,4.57-1.77,4.57-1.77l1.12-1.55H192l5-6.08a16.07,16.07,0,0,0,3.9-.88c-.44-1.55-5-5.2-7.14-7.74a55.19,55.19,0,0,0-9.59-9.06Z"/><path class="cls-2" d="M232.56,197.4a.82.82,0,0,0-.67-.45c-.44,0-.67,1.55-.67,1.55s-6.91-4.75-9.37-6.3-5.69-3.65-5.69-3.65-.67.22,0,.78a29.1,29.1,0,0,1,7.59,15.14c.89,7.3-1.79,11.61-1.79,11.61s-11.71-.22-14.83-.67c-1.79-1.76-1.79-2.32-1.79-2.32a2.14,2.14,0,0,0-.22-2.32,2.47,2.47,0,0,0-2.79-1.1l-.67-.67-.67.67,4.13,5.19s-1.12,0-1.12.89l1.34,2.54v.88s.67,1.88,1.34,2.1S208,222.6,208,222.6a30.11,30.11,0,0,0,2.57,2.32c.44.22,7.13,3.65,11.26,4.53s11.05.22,15.4-2.54l4.57-1.77,1.12-1.55h-2.79l5-6.08a16.07,16.07,0,0,0,3.9-.88c-.45-1.55-5-5.2-7.14-7.74a55.19,55.19,0,0,0-9.59-9.06Z"/><path class="cls-2" d="M337.76,197.4a.84.84,0,0,0-.67-.45c-.45,0-.67,1.55-.67,1.55s-6.92-4.75-9.37-6.3-5.69-3.65-5.69-3.65-.67.22,0,.78a29,29,0,0,1,7.58,15.14c.9,7.3-1.78,11.61-1.78,11.61s-11.71-.22-14.84-.67c-1.78-1.76-1.78-2.32-1.78-2.32a2.13,2.13,0,0,0-.23-2.32,2.47,2.47,0,0,0-2.79-1.1l-.66-.67-.67.67,4.12,5.19s-1.11,0-1.11.89l1.34,2.54v.88s.67,1.88,1.34,2.1,1.33,1.33,1.33,1.33a30.11,30.11,0,0,0,2.57,2.32c.45.22,7.14,3.65,11.27,4.53s11,.22,15.39-2.54c3.46-1.33,4.57-1.77,4.57-1.77l1.12-1.55h-2.79l5-6.08a16.2,16.2,0,0,0,3.91-.88c-.45-1.55-5-5.2-7.14-7.74a55,55,0,0,0-9.6-9.06Z"/><path class="cls-2" d="M344.78,125.88a.82.82,0,0,0-.67-.45c-.44,0-.67,1.55-.67,1.55s-6.91-4.75-9.37-6.3-5.69-3.65-5.69-3.65-.67.23,0,.78A29.1,29.1,0,0,1,336,133c.89,7.3-1.79,11.61-1.79,11.61s-11.71-.22-14.83-.67c-1.79-1.76-1.79-2.32-1.79-2.32a2.14,2.14,0,0,0-.22-2.32,2.47,2.47,0,0,0-2.79-1.1l-.67-.67-.67.67,4.13,5.19s-1.12,0-1.12.89l1.34,2.54v.88s.67,1.88,1.34,2.1,1.34,1.33,1.34,1.33a30.11,30.11,0,0,0,2.57,2.32c.44.22,7.14,3.65,11.26,4.53s11.05.22,15.4-2.54c3.46-1.32,4.57-1.77,4.57-1.77l1.12-1.54h-2.79l5-6.09a16.07,16.07,0,0,0,3.9-.88c-.44-1.55-5-5.19-7.14-7.74a51.4,51.4,0,0,0-9.59-9.06Z"/><path class="cls-2" d="M242.15,86.19a.82.82,0,0,0-.67-.44c-.44,0-.66,1.55-.66,1.55s-6.92-4.75-9.37-6.3-5.69-3.65-5.69-3.65-.67.22,0,.77a29.21,29.21,0,0,1,7.58,15.15c.89,7.29-1.78,11.61-1.78,11.61s-11.72-.23-14.84-.67c-1.78-1.77-1.78-2.32-1.78-2.32a2.15,2.15,0,0,0-.23-2.32,2.32,2.32,0,0,0-2.79-1.11l-.67-.66-.67.66,4.13,5.2s-1.11,0-1.11.88l1.34,2.55V108s.66,1.88,1.33,2.1,1.34,1.33,1.34,1.33a30.11,30.11,0,0,0,2.57,2.32c.44.22,7.14,3.65,11.27,4.53s11,.22,15.39-2.54c3.46-1.33,4.57-1.77,4.57-1.77l1.12-1.55h-2.79l5-6.08a16.07,16.07,0,0,0,3.9-.88c-.44-1.55-5-5.2-7.14-7.74a50.76,50.76,0,0,0-9.59-9.06Z"/><path class="cls-2" d="M146,86.19a.84.84,0,0,0-.67-.44c-.45,0-.67,1.55-.67,1.55s-6.92-4.75-9.37-6.3-5.69-3.65-5.69-3.65-.67.22,0,.77a29.13,29.13,0,0,1,7.58,15.15c.9,7.29-1.78,11.61-1.78,11.61s-11.71-.23-14.84-.67c-1.78-1.77-1.78-2.32-1.78-2.32a2.13,2.13,0,0,0-.23-2.32,2.31,2.31,0,0,0-2.78-1.11l-.67-.66-.67.66,4.12,5.2s-1.11,0-1.11.88l1.34,2.55V108s.67,1.88,1.34,2.1,1.34,1.33,1.34,1.33a29.7,29.7,0,0,0,2.56,2.32c.45.22,7.14,3.65,11.27,4.53s11,.22,15.39-2.54l4.58-1.77,1.11-1.55h-2.79l5-6.08a16.2,16.2,0,0,0,3.91-.88c-.45-1.55-5-5.2-7.14-7.74a50.88,50.88,0,0,0-9.6-9.06Z"/><path class="cls-2" d="M184.37,44a.82.82,0,0,0-.67-.44c-.44,0-.67,1.54-.67,1.54s-6.91-4.75-9.37-6.3S168,35.12,168,35.12s-.67.23,0,.78A29.1,29.1,0,0,1,175.56,51c.89,7.3-1.79,11.61-1.79,11.61s-11.71-.22-14.83-.66c-1.79-1.77-1.79-2.32-1.79-2.32a2.16,2.16,0,0,0-.22-2.33,2.47,2.47,0,0,0-2.79-1.1l-.67-.66-.67.66,4.13,5.19s-1.12,0-1.12.89l1.34,2.54v.88s.67,1.88,1.34,2.11,1.34,1.32,1.34,1.32a30.11,30.11,0,0,0,2.57,2.32c.55.33,7.14,3.65,11.26,4.53s11.05.23,15.4-2.54c3.46-1.32,4.57-1.77,4.57-1.77l1.12-1.54H192l5-6.08a16.31,16.31,0,0,0,3.9-.89c-.44-1.55-5-5.19-7.14-7.74a51.4,51.4,0,0,0-9.59-9.06Z"/><path class="cls-2" d="M164.85,238.63a.82.82,0,0,0-.67-.45c-.45,0-.67,1.55-.67,1.55s-6.92-4.75-9.37-6.3-5.69-3.65-5.69-3.65-.67.23,0,.78A29.1,29.1,0,0,1,156,245.7c.89,7.3-1.79,11.61-1.79,11.61s-11.71-.22-14.83-.67c-1.79-1.76-1.79-2.32-1.79-2.32a2.14,2.14,0,0,0-.22-2.32,2.47,2.47,0,0,0-2.79-1.1l-.67-.67-.67.67,4.13,5.19s-1.12,0-1.12.89l1.34,2.54v.88s.67,1.88,1.34,2.1,1.34,1.33,1.34,1.33a31.31,31.31,0,0,0,2.56,2.32c.45.22,7.14,3.65,11.27,4.53s11,.22,15.39-2.54c3.46-1.32,4.58-1.77,4.58-1.77l1.11-1.54h-2.79l5-6.09a16.11,16.11,0,0,0,3.91-.88c-.45-1.55-5-5.19-7.14-7.74a51.4,51.4,0,0,0-9.59-9.06Z"/><path class="cls-2" d="M304.62,159.81a.82.82,0,0,0-.67-.44c-.44,0-.66,1.55-.66,1.55s-6.92-4.75-9.38-6.3-5.68-3.65-5.68-3.65-.67.22,0,.77a29.29,29.29,0,0,1,7.58,15.15c.89,7.29-1.78,11.6-1.78,11.6s-11.72-.22-14.84-.66c-1.78-1.77-1.78-2.32-1.78-2.32a2.15,2.15,0,0,0-.23-2.32,2.46,2.46,0,0,0-2.79-1.11l-.67-.66-.67.66,4.13,5.2s-1.11,0-1.11.88l1.34,2.54v.89s.66,1.88,1.33,2.1,1.34,1.33,1.34,1.33a30.11,30.11,0,0,0,2.57,2.32c.44.22,7.14,3.64,11.26,4.53s11,.22,15.4-2.54c3.46-1.33,4.57-1.77,4.57-1.77L315,186h-2.79l5-6.08a16.07,16.07,0,0,0,3.9-.88c-.44-1.55-5-5.2-7.14-7.74a51.08,51.08,0,0,0-9.59-9.07Z"/><path class="cls-2" d="M81,125.88a.82.82,0,0,0-.67-.45c-.44,0-.67,1.55-.67,1.55s-6.91-4.75-9.37-6.3S64.56,117,64.56,117s-.67.23,0,.78A29.1,29.1,0,0,1,72.15,133c.89,7.3-1.79,11.61-1.79,11.61s-11.71-.22-14.83-.67c-1.79-1.76-1.79-2.32-1.79-2.32a2.14,2.14,0,0,0-.22-2.32,2.47,2.47,0,0,0-2.79-1.1l-.67-.67-.67.67,4.13,5.19s-1.12,0-1.12.89l1.34,2.54v.88s.67,1.88,1.34,2.1,1.34,1.33,1.34,1.33A31.31,31.31,0,0,0,59,153.4c.45.22,7.14,3.65,11.27,4.53s11,.22,15.4-2.54c3.45-1.32,4.57-1.77,4.57-1.77l1.12-1.54H88.55l5-6.09a16.07,16.07,0,0,0,3.9-.88c-.45-1.55-5-5.19-7.14-7.74a51.4,51.4,0,0,0-9.59-9.06Z"/><path class="cls-2" d="M129.15,125.88a.82.82,0,0,0-.67-.45c-.44,0-.67,1.55-.67,1.55s-6.91-4.75-9.37-6.3-5.69-3.65-5.69-3.65-.66.23,0,.78A29.1,29.1,0,0,1,120.34,133c.89,7.3-1.78,11.61-1.78,11.61s-11.72-.22-14.84-.67c-1.79-1.76-1.79-2.32-1.79-2.32a2.14,2.14,0,0,0-.22-2.32,2.47,2.47,0,0,0-2.79-1.1l-.67-.67-.67.67,4.13,5.19s-1.11,0-1.11.89l1.33,2.54v.88s.67,1.88,1.34,2.1,1.34,1.33,1.34,1.33a30.11,30.11,0,0,0,2.57,2.32c.44.22,7.14,3.65,11.26,4.53s11.05.22,15.4-2.54c3.46-1.32,4.57-1.77,4.57-1.77l1.12-1.54h-2.79l5-6.09a16.07,16.07,0,0,0,3.9-.88c-.44-1.55-5-5.19-7.14-7.74a51.08,51.08,0,0,0-9.59-9.06Z"/><path class="cls-2" d="M177.23,125.88a.82.82,0,0,0-.67-.45c-.44,0-.67,1.55-.67,1.55s-6.91-4.75-9.37-6.3-5.69-3.65-5.69-3.65-.67.23,0,.78A29.1,29.1,0,0,1,168.42,133c.89,7.3-1.79,11.61-1.79,11.61s-11.71-.22-14.83-.67c-1.79-1.76-1.79-2.32-1.79-2.32a2.14,2.14,0,0,0-.22-2.32,2.47,2.47,0,0,0-2.79-1.1l-.67-.67-.67.67,4.13,5.19s-1.12,0-1.12.89l1.34,2.54v.88s.67,1.88,1.34,2.1,1.34,1.33,1.34,1.33a30.11,30.11,0,0,0,2.57,2.32c.44.22,7.13,3.65,11.26,4.53s11,.22,15.4-2.54c3.45-1.32,4.57-1.77,4.57-1.77l1.12-1.54h-2.79l5-6.09a16.07,16.07,0,0,0,3.9-.88c-.45-1.55-5-5.19-7.14-7.74a51.4,51.4,0,0,0-9.59-9.06Z"/><path class="cls-2" d="M225.31,125.88a.82.82,0,0,0-.67-.45c-.45,0-.67,1.55-.67,1.55s-6.91-4.75-9.37-6.3-5.69-3.65-5.69-3.65-.67.23,0,.78A29.1,29.1,0,0,1,216.5,133c.89,7.3-1.79,11.61-1.79,11.61s-11.71-.22-14.83-.67c-1.79-1.76-1.79-2.32-1.79-2.32a2.14,2.14,0,0,0-.22-2.32,2.47,2.47,0,0,0-2.79-1.1l-.67-.67-.67.67,4.13,5.19s-1.12,0-1.12.89l1.34,2.54v.88s.67,1.88,1.34,2.1,1.34,1.33,1.34,1.33a31.31,31.31,0,0,0,2.56,2.32c.45.22,7.14,3.65,11.27,4.53s11.05.22,15.4-2.54c3.45-1.32,4.57-1.77,4.57-1.77l1.11-1.54H232.9l5-6.09a16.07,16.07,0,0,0,3.9-.88c-.45-1.55-5-5.19-7.14-7.74a51.4,51.4,0,0,0-9.59-9.06Z"/><path class="cls-2" d="M273.39,125.88a.82.82,0,0,0-.67-.45c-.45,0-.67,1.55-.67,1.55s-6.92-4.75-9.37-6.3S257,117,257,117s-.67.23,0,.78A29.1,29.1,0,0,1,264.58,133c.89,7.3-1.79,11.61-1.79,11.61s-11.71-.22-14.84-.67c-1.78-1.76-1.78-2.32-1.78-2.32a2.14,2.14,0,0,0-.22-2.32,2.48,2.48,0,0,0-2.79-1.1l-.67-.67-.67.67,4.13,5.19s-1.12,0-1.12.89l1.34,2.54v.88s.67,1.88,1.34,2.1,1.34,1.33,1.34,1.33a29.7,29.7,0,0,0,2.56,2.32c.45.22,7.14,3.65,11.27,4.53s11,.22,15.39-2.54c3.46-1.32,4.58-1.77,4.58-1.77l1.11-1.54H281l5-6.09a16.11,16.11,0,0,0,3.91-.88c-.45-1.55-5-5.19-7.14-7.74a51.4,51.4,0,0,0-9.59-9.06Z"/></g></svg>