<svg id="Layer_1" data-name="Layer 1" xmlns="http://www.w3.org/2000/svg" viewBox="0 0 390 844"><defs><style>.cls-1{opacity:0.1;}.cls-2{fill:#f2e9e4;}</style></defs><g class="cls-1"><path class="cls-2" d="M149.14,130a28.56,28.56,0,0,0-4.15,4.15,7.86,7.86,0,0,1-.83.93,1.08,1.08,0,0,1-1.11.11.82.82,0,0,1-.28-1.14,4.17,4.17,0,0,1-4.16,1.24c-.09,0-.18-.1-.27-.21v-.31c.27-.62.46-1.24.73-1.86a5.09,5.09,0,0,1,.65-1.25,1.08,1.08,0,0,1,1.2-.41,1.76,1.76,0,0,1,.83-1.35,9.29,9.29,0,0,1,1.39-.73c2.22-1.14,3.6-4.14,3.23-6.94a25.5,25.5,0,0,0-7.85,3.73,44.43,44.43,0,0,1-8.22,4.67l-4.81,1.86a16.69,16.69,0,0,1-3.23,1c-1.94.31-4.06-.93-5.73.1-1.94,1.25-2.77,4.05-4.52,5.5-1.94,1.66-4.72,1.55-7.12,1.24-1.94-.21-3.88-.41-5.82-.52a3.49,3.49,0,0,0-2,.21,4.45,4.45,0,0,0-1.2,1.14A23,23,0,0,1,91,145.7a7.31,7.31,0,0,1-6,1c-.46-.1-.92-.51-.74-.93a11.31,11.31,0,0,1,5.64-3,10.1,10.1,0,0,0,1.66-.42c2.77-1.14,3.14-6.22,6-7a4.22,4.22,0,0,0,5.09.11,5.81,5.81,0,0,0,2-5.29,11.91,11.91,0,0,1-6.19,2.8,1.06,1.06,0,0,1-1.2-.94c-.19-1,1-1.45,1.85-1.86,1.47-.73,2.4-2.39,3.88-3.32a22.93,22.93,0,0,1,2.77-1.14,25.47,25.47,0,0,0,4-2.69,13.18,13.18,0,0,1,5-2.08c2.12-.41,4.34-.21,6.37-.83a19.89,19.89,0,0,0,4-1.86c1.85-1,3.7-2.08,5.64-3.11a13.63,13.63,0,0,1,3.33-1.56,21.28,21.28,0,0,0,2.67-.62c1.76-.52,3.15-2,4.44-3.32,1.11-1.14,2.31-2.28,3.42-3.42a2.49,2.49,0,0,1-3-.41c-.65-.52-1.39-1.14-1.2-2a8.22,8.22,0,0,1-6-1,4.51,4.51,0,0,1,3.23-.83,4.73,4.73,0,0,1-2.31-1c-.09-.1-.19-.1-.19-.31-.18-.41.47-.62.93-.51a7.51,7.51,0,0,0,3.69-.52c.93-.42,1.85-.94,2.77-1.25a7.51,7.51,0,0,1,7.3,1.25c.65.52,1.3,1.34,2.13,1.45a7.16,7.16,0,0,0,3.51,2c.92.2,3.14.52,3.14,1.66s-.65,1.24-.65,1.24a3.44,3.44,0,0,1-3,1.45c-1.75.21-3.23,2-5,1.87a1.46,1.46,0,0,0-.65.1.77.77,0,0,0-.37.42c-1.94,2.8-3.88,5.49-5.82,8.29a17.31,17.31,0,0,0,6.37-1.45,1.34,1.34,0,0,1,1.39.2c.74.73,0,1.87-.19,2.8s.19,2-.09,2.91c-.18.52-.46.93-.64,1.45C149.05,125.79,150.62,128.8,149.14,130Z"/><path class="cls-2" d="M149.14,207.9A28,28,0,0,0,145,212a8,8,0,0,1-.83.94,1.08,1.08,0,0,1-1.11.1.82.82,0,0,1-.28-1.14,4.19,4.19,0,0,1-4.16,1.25c-.09,0-.18-.11-.27-.21v-.31c.27-.63.46-1.25.73-1.87a5.2,5.2,0,0,1,.65-1.24,1.08,1.08,0,0,1,1.2-.42,1.78,1.78,0,0,1,.83-1.35,9.21,9.21,0,0,1,1.39-.72c2.22-1.14,3.6-4.15,3.23-6.95a25.53,25.53,0,0,0-7.85,3.74,45,45,0,0,1-8.22,4.66l-4.81,1.87a16.67,16.67,0,0,1-3.23,1c-1.94.31-4.06-.93-5.73.11-1.94,1.24-2.77,4-4.52,5.49-1.94,1.66-4.72,1.56-7.12,1.25-1.94-.21-3.88-.42-5.82-.52a3.4,3.4,0,0,0-2,.2,4.45,4.45,0,0,0-1.2,1.14,23,23,0,0,1-4.8,4.46,7.36,7.36,0,0,1-6,1c-.46-.11-.92-.52-.74-.93a11.25,11.25,0,0,1,5.64-3,9.18,9.18,0,0,0,1.66-.42c2.77-1.14,3.14-6.22,6-7a4.22,4.22,0,0,0,5.09.1,5.8,5.8,0,0,0,2-5.29,11.83,11.83,0,0,1-6.19,2.8,1.06,1.06,0,0,1-1.2-.93c-.19-1,1-1.45,1.85-1.87,1.47-.72,2.4-2.38,3.88-3.32a24.68,24.68,0,0,1,2.77-1.14,25.47,25.47,0,0,0,4-2.69,13.16,13.16,0,0,1,5-2.07c2.12-.42,4.34-.21,6.37-.83a19.93,19.93,0,0,0,4-1.87c1.85-1,3.7-2.07,5.64-3.11a14,14,0,0,1,3.33-1.55,21.28,21.28,0,0,0,2.67-.63c1.76-.51,3.15-2,4.44-3.31,1.11-1.14,2.31-2.29,3.42-3.43a2.46,2.46,0,0,1-3-.41c-.65-.52-1.39-1.14-1.2-2a8.22,8.22,0,0,1-6-1,4.56,4.56,0,0,1,3.23-.83,4.71,4.71,0,0,1-2.31-1c-.09-.11-.19-.11-.19-.31-.18-.42.47-.62.93-.52a7.51,7.51,0,0,0,3.69-.52c.93-.41,1.85-.93,2.77-1.24a7.49,7.49,0,0,1,7.3,1.24c.65.52,1.3,1.35,2.13,1.45a7.08,7.08,0,0,0,3.51,2c.92.21,3.14.52,3.14,1.66s-.65,1.24-.65,1.24a3.44,3.44,0,0,1-3,1.45c-1.75.21-3.23,2-5,1.87a1.46,1.46,0,0,0-.65.1.77.77,0,0,0-.37.42c-1.94,2.8-3.88,5.49-5.82,8.29a17.31,17.31,0,0,0,6.37-1.45,1.34,1.34,0,0,1,1.39.21c.74.72,0,1.86-.19,2.8s.19,2-.09,2.9c-.18.52-.46.93-.64,1.45C149.05,203.65,150.62,206.65,149.14,207.9Z"/><path class="cls-2" d="M264.25,122.68a28.07,28.07,0,0,0-4.15,4.15,7.1,7.1,0,0,1-.84.93,1.07,1.07,0,0,1-1.1.11.82.82,0,0,1-.28-1.14,4.17,4.17,0,0,1-4.16,1.24c-.09,0-.18-.1-.28-.21v-.31c.28-.62.47-1.24.74-1.86a5.09,5.09,0,0,1,.65-1.25,1.08,1.08,0,0,1,1.2-.41,1.76,1.76,0,0,1,.83-1.35,9.29,9.29,0,0,1,1.39-.73c2.22-1.14,3.6-4.14,3.23-6.94a25.17,25.17,0,0,0-7.85,3.73,44.43,44.43,0,0,1-8.22,4.67l-4.81,1.86a16.69,16.69,0,0,1-3.23,1c-1.94.31-4.06-.93-5.73.1-1.94,1.25-2.77,4-4.52,5.5-1.94,1.66-4.72,1.55-7.12,1.24-1.94-.21-3.88-.41-5.82-.52a3.49,3.49,0,0,0-2,.21,4.45,4.45,0,0,0-1.2,1.14,23,23,0,0,1-4.8,4.46,7.31,7.31,0,0,1-6,1c-.46-.1-.92-.51-.74-.93a11.31,11.31,0,0,1,5.64-3,10.1,10.1,0,0,0,1.66-.42c2.77-1.14,3.14-6.22,6-7.05a4.22,4.22,0,0,0,5.09.1,5.81,5.81,0,0,0,2-5.28,11.94,11.94,0,0,1-6.19,2.8,1.06,1.06,0,0,1-1.2-.94c-.19-1,1-1.45,1.84-1.86,1.48-.73,2.41-2.39,3.88-3.32a22.16,22.16,0,0,1,2.78-1.14,24.87,24.87,0,0,0,4-2.7,13.32,13.32,0,0,1,5-2.07c2.12-.41,4.34-.21,6.37-.83a19.89,19.89,0,0,0,4-1.86c1.85-1,3.7-2.08,5.64-3.11a13.63,13.63,0,0,1,3.33-1.56,21.28,21.28,0,0,0,2.67-.62c1.76-.52,3.14-2,4.44-3.32,1.11-1.14,2.31-2.28,3.42-3.42a2.49,2.49,0,0,1-3-.41c-.65-.52-1.39-1.14-1.2-2a8.25,8.25,0,0,1-6-1,4.55,4.55,0,0,1,3.24-.83,4.73,4.73,0,0,1-2.31-1c-.09-.1-.19-.1-.19-.31-.18-.41.47-.62.93-.52a7.5,7.5,0,0,0,3.69-.51c.93-.42,1.85-.94,2.77-1.25a7.51,7.51,0,0,1,7.3,1.25c.65.51,1.3,1.34,2.13,1.45a7.16,7.16,0,0,0,3.51,2c.92.2,3.14.52,3.14,1.66s-.65,1.24-.65,1.24a3.44,3.44,0,0,1-3.05,1.45c-1.75.21-3.23,2-5,1.87a1.43,1.43,0,0,0-.64.1.73.73,0,0,0-.37.42c-1.94,2.79-3.88,5.49-5.82,8.29a17.31,17.31,0,0,0,6.37-1.45,1.34,1.34,0,0,1,1.39.2c.74.73,0,1.87-.19,2.8s.19,2-.09,2.91c-.18.51-.46.93-.65,1.45C264.16,118.54,265.73,121.44,264.25,122.68Z"/><path class="cls-2" d="M264.25,43.38a27.14,27.14,0,0,0-4.15,4.15,7.81,7.81,0,0,1-.84.93,1.05,1.05,0,0,1-1.1.1.82.82,0,0,1-.28-1.14,4.19,4.19,0,0,1-4.16,1.25c-.09,0-.18-.11-.28-.21v-.31c.28-.62.47-1.25.74-1.87a5.2,5.2,0,0,1,.65-1.24,1.1,1.1,0,0,1,1.2-.42,1.78,1.78,0,0,1,.83-1.35,9.21,9.21,0,0,1,1.39-.72c2.22-1.14,3.6-4.15,3.23-6.95a25.42,25.42,0,0,0-7.85,3.74A45,45,0,0,1,245.41,44l-4.81,1.87a16.67,16.67,0,0,1-3.23,1c-1.94.31-4.06-.93-5.73.11-1.94,1.24-2.77,4-4.52,5.49-1.94,1.66-4.72,1.56-7.12,1.24-1.94-.2-3.88-.41-5.82-.51a3.4,3.4,0,0,0-2,.2,4.45,4.45,0,0,0-1.2,1.14,23,23,0,0,1-4.8,4.46,7.36,7.36,0,0,1-6,1c-.46-.1-.92-.52-.74-.93a11.25,11.25,0,0,1,5.64-3,9.18,9.18,0,0,0,1.66-.42c2.77-1.14,3.14-6.22,6-7a4.22,4.22,0,0,0,5.09.1,5.82,5.82,0,0,0,2-5.29,11.86,11.86,0,0,1-6.19,2.8,1.06,1.06,0,0,1-1.2-.93c-.19-1,1-1.45,1.84-1.87,1.48-.72,2.41-2.38,3.88-3.32A25.65,25.65,0,0,1,220.93,39a25.47,25.47,0,0,0,4-2.69,13.16,13.16,0,0,1,5-2.07c2.12-.42,4.34-.21,6.37-.83a19.93,19.93,0,0,0,4-1.87c1.85-1,3.7-2.07,5.64-3.11a14,14,0,0,1,3.33-1.55,21.28,21.28,0,0,0,2.67-.63c1.76-.52,3.14-2,4.44-3.31,1.11-1.14,2.31-2.28,3.42-3.43a2.46,2.46,0,0,1-3-.41c-.65-.52-1.39-1.14-1.2-2a8.2,8.2,0,0,1-6-1,4.6,4.6,0,0,1,3.24-.83,4.71,4.71,0,0,1-2.31-1c-.09-.11-.19-.11-.19-.31-.18-.42.47-.63.93-.52a7.51,7.51,0,0,0,3.69-.52c.93-.41,1.85-.93,2.77-1.24A7.49,7.49,0,0,1,265,12.9c.65.52,1.3,1.35,2.13,1.45a7.08,7.08,0,0,0,3.51,2c.92.21,3.14.52,3.14,1.66s-.65,1.24-.65,1.24a3.47,3.47,0,0,1-3.05,1.46c-1.75.2-3.23,2-5,1.86a1.32,1.32,0,0,0-.64.11.71.71,0,0,0-.37.41c-1.94,2.8-3.88,5.49-5.82,8.29a17.31,17.31,0,0,0,6.37-1.45,1.35,1.35,0,0,1,1.39.21c.74.72,0,1.87-.19,2.8s.19,2-.09,2.9c-.18.52-.46.93-.65,1.45C264.16,39.23,265.73,42.13,264.25,43.38Z"/><path class="cls-2" d="M199.86,32.18a28.14,28.14,0,0,0-4.16,4.15,6.42,6.42,0,0,1-.83.93,1.09,1.09,0,0,1-1.1.11.82.82,0,0,1-.28-1.14,4.19,4.19,0,0,1-4.16,1.24c-.09,0-.18-.1-.28-.21V37c.28-.62.47-1.24.74-1.86a5.09,5.09,0,0,1,.65-1.25,1.08,1.08,0,0,1,1.2-.41,1.76,1.76,0,0,1,.83-1.35,9.29,9.29,0,0,1,1.39-.73,7,7,0,0,0,3.23-6.94,25.17,25.17,0,0,0-7.85,3.73A43.81,43.81,0,0,1,181,32.8l-4.81,1.87a16.69,16.69,0,0,1-3.23,1c-1.94.31-4.07-.94-5.73.1-1.94,1.25-2.77,4-4.52,5.5-1.95,1.65-4.72,1.55-7.12,1.24-1.94-.21-3.88-.42-5.82-.52a3.48,3.48,0,0,0-2,.21,4.3,4.3,0,0,0-1.2,1.14,22.78,22.78,0,0,1-4.81,4.46,7.29,7.29,0,0,1-6,1c-.46-.1-.92-.52-.74-.93a11.41,11.41,0,0,1,5.64-3,9.35,9.35,0,0,0,1.66-.41c2.77-1.14,3.14-6.22,6-7.05a4.2,4.2,0,0,0,5.08.1,5.79,5.79,0,0,0,2-5.28,12,12,0,0,1-6.19,2.8,1.06,1.06,0,0,1-1.2-.94c-.19-1,1-1.45,1.84-1.86,1.48-.73,2.41-2.39,3.88-3.32a22.16,22.16,0,0,1,2.78-1.14,24.87,24.87,0,0,0,4-2.7,13.32,13.32,0,0,1,5-2.07c2.12-.41,4.34-.21,6.37-.83a19.39,19.39,0,0,0,4-1.87c1.85-1,3.7-2.07,5.64-3.11a14.09,14.09,0,0,1,3.32-1.55,21,21,0,0,0,2.68-.62c1.76-.52,3.14-2,4.44-3.32,1.11-1.14,2.31-2.28,3.42-3.42a2.47,2.47,0,0,1-3-.42c-.65-.51-1.39-1.14-1.2-2a8.25,8.25,0,0,1-6-1,4.55,4.55,0,0,1,3.24-.83,4.73,4.73,0,0,1-2.31-1c-.1-.1-.19-.1-.19-.31-.18-.41.46-.62.93-.52a7.39,7.39,0,0,0,3.69-.52c.93-.41,1.85-.93,2.77-1.24a7.54,7.54,0,0,1,7.3,1.24c.65.52,1.29,1.35,2.13,1.46a7.24,7.24,0,0,0,3.51,2c.92.2,3.14.51,3.14,1.65S208.73,8,208.73,8a3.44,3.44,0,0,1-3,1.45c-1.75.21-3.23,2-5,1.87a1.43,1.43,0,0,0-.64.1.75.75,0,0,0-.37.41c-1.94,2.8-3.88,5.5-5.82,8.3a17.51,17.51,0,0,0,6.37-1.45,1.34,1.34,0,0,1,1.39.2c.74.73,0,1.87-.19,2.8s.19,2-.09,2.91c-.18.51-.46.93-.65,1.45C199.77,28,201.25,30.94,199.86,32.18Z"/><path class="cls-2" d="M90.85,73.65a27.66,27.66,0,0,0-4.16,4.15,7,7,0,0,1-.83.93,1.07,1.07,0,0,1-1.11.1.83.83,0,0,1-.27-1.14,4.19,4.19,0,0,1-4.16,1.25c-.09,0-.18-.11-.28-.21v-.31c.28-.62.47-1.25.74-1.87a5.2,5.2,0,0,1,.65-1.24,1.1,1.1,0,0,1,1.2-.42,1.76,1.76,0,0,1,.83-1.34,9.29,9.29,0,0,1,1.39-.73c2.21-1.14,3.6-4.15,3.23-6.95a25.42,25.42,0,0,0-7.85,3.74A43.81,43.81,0,0,1,72,74.27l-4.81,2a16.69,16.69,0,0,1-3.23,1c-1.94.31-4.07-.94-5.73.1-1.94,1.24-2.77,4-4.53,5.5-1.94,1.65-4.71,1.55-7.11,1.24-1.94-.21-3.88-.41-5.82-.52a3.48,3.48,0,0,0-2,.21A4.3,4.3,0,0,0,37.55,85a22.78,22.78,0,0,1-4.81,4.46,7.32,7.32,0,0,1-6,1c-.46-.1-.92-.52-.74-.93a11.41,11.41,0,0,1,5.64-3,9.35,9.35,0,0,0,1.66-.41c2.77-1.14,3.14-6.22,6-7a4.2,4.2,0,0,0,5.08.1,5.79,5.79,0,0,0,2-5.28,12,12,0,0,1-6.19,2.8,1.06,1.06,0,0,1-1.2-.94c-.19-1,1-1.45,1.84-1.86,1.48-.73,2.41-2.39,3.88-3.32a22.16,22.16,0,0,1,2.78-1.14,24.87,24.87,0,0,0,4-2.7,13.32,13.32,0,0,1,5-2.07c2.12-.41,4.34-.21,6.37-.83a19.89,19.89,0,0,0,4-1.86c1.85-1,3.7-2.08,5.64-3.11a13.74,13.74,0,0,1,3.32-1.56,21,21,0,0,0,2.68-.62c1.76-.52,3.14-2,4.44-3.32,1.11-1.14,2.31-2.28,3.42-3.42a2.47,2.47,0,0,1-3-.42c-.65-.51-1.39-1.14-1.2-2a8.25,8.25,0,0,1-6-1,4.55,4.55,0,0,1,3.24-.83,4.73,4.73,0,0,1-2.31-1c-.1-.1-.19-.1-.19-.31-.18-.41.46-.62.93-.52a7.39,7.39,0,0,0,3.69-.52c.93-.41,1.85-.93,2.77-1.24a7.54,7.54,0,0,1,7.3,1.24c.65.52,1.29,1.35,2.13,1.46a7.24,7.24,0,0,0,3.51,2c.92.2,3.14.51,3.14,1.65s-.65,1.25-.65,1.25a3.44,3.44,0,0,1-3,1.45c-1.75.21-3.23,2-5,1.87A1.43,1.43,0,0,0,91,53a.75.75,0,0,0-.37.41c-1.94,2.8-3.88,5.5-5.82,8.3a17.51,17.51,0,0,0,6.37-1.45,1.34,1.34,0,0,1,1.39.2c.74.73,0,1.87-.19,2.8s.19,2-.09,2.9c-.18.52-.46.94-.65,1.46C90.76,69.5,92.24,72.41,90.85,73.65Z"/><path class="cls-2" d="M64.89,122.68a28.56,28.56,0,0,0-4.15,4.15,7.1,7.1,0,0,1-.84.93,1.07,1.07,0,0,1-1.1.11.82.82,0,0,1-.28-1.14A4.17,4.17,0,0,1,54.36,128c-.09,0-.18-.1-.28-.21v-.31c.28-.62.47-1.24.74-1.86a5.09,5.09,0,0,1,.65-1.25,1.08,1.08,0,0,1,1.2-.41,1.76,1.76,0,0,1,.83-1.35,9.29,9.29,0,0,1,1.39-.73c2.22-1.14,3.6-4.14,3.23-6.94a25.28,25.28,0,0,0-7.85,3.73,44.43,44.43,0,0,1-8.22,4.67l-4.81,1.86a16.69,16.69,0,0,1-3.23,1c-1.94.31-4.06-.93-5.73.1-1.94,1.25-2.77,4-4.52,5.5-1.94,1.65-4.72,1.55-7.12,1.24-1.94-.21-3.88-.42-5.82-.52a3.49,3.49,0,0,0-2,.21,4.3,4.3,0,0,0-1.2,1.14,23,23,0,0,1-4.8,4.46,7.31,7.31,0,0,1-6,1c-.46-.1-.92-.51-.74-.93a11.41,11.41,0,0,1,5.64-3A9.14,9.14,0,0,0,7.34,135c2.77-1.14,3.14-6.22,6-7.05a4.22,4.22,0,0,0,5.09.1,5.79,5.79,0,0,0,2-5.28,11.91,11.91,0,0,1-6.19,2.8,1.06,1.06,0,0,1-1.2-.94c-.19-1,1-1.45,1.85-1.86,1.47-.73,2.4-2.39,3.88-3.32a21.42,21.42,0,0,1,2.77-1.14,24.87,24.87,0,0,0,4-2.7,13.32,13.32,0,0,1,5-2.07c2.12-.41,4.34-.21,6.37-.83a19.89,19.89,0,0,0,4-1.86c1.85-1,3.7-2.08,5.64-3.11a13.63,13.63,0,0,1,3.33-1.56,21.28,21.28,0,0,0,2.67-.62c1.76-.52,3.15-2,4.44-3.32,1.11-1.14,2.31-2.28,3.42-3.42a2.49,2.49,0,0,1-3-.41c-.65-.52-1.39-1.14-1.2-2a8.25,8.25,0,0,1-6-1,4.55,4.55,0,0,1,3.24-.83,4.77,4.77,0,0,1-2.31-1c-.09-.1-.19-.1-.19-.31-.18-.41.47-.62.93-.52a7.39,7.39,0,0,0,3.69-.52c.93-.41,1.85-.93,2.77-1.24a7.54,7.54,0,0,1,7.3,1.24c.65.52,1.3,1.35,2.13,1.46a7.16,7.16,0,0,0,3.51,2c.92.2,3.14.51,3.14,1.66s-.65,1.24-.65,1.24A3.44,3.44,0,0,1,70.71,100c-1.75.21-3.23,2-5,1.87a1.43,1.43,0,0,0-.64.1.73.73,0,0,0-.37.42c-1.94,2.79-3.88,5.49-5.82,8.29a17.51,17.51,0,0,0,6.37-1.45,1.34,1.34,0,0,1,1.39.2c.74.73,0,1.87-.19,2.8s.19,2-.09,2.91c-.18.51-.46.93-.65,1.45C64.8,118.54,66.28,121.44,64.89,122.68Z"/><path class="cls-2" d="M64.89,207.9A28,28,0,0,0,60.74,212a8,8,0,0,1-.84.94,1.07,1.07,0,0,1-1.1.1.82.82,0,0,1-.28-1.14,4.17,4.17,0,0,1-4.16,1.24c-.09,0-.18-.1-.28-.2v-.31c.28-.63.47-1.25.74-1.87a5.2,5.2,0,0,1,.65-1.24,1.08,1.08,0,0,1,1.2-.42,1.78,1.78,0,0,1,.83-1.35,9.21,9.21,0,0,1,1.39-.72c2.22-1.14,3.6-4.15,3.23-6.95a25.73,25.73,0,0,0-7.85,3.73,44.43,44.43,0,0,1-8.22,4.67l-4.81,1.87a17.38,17.38,0,0,1-3.23,1c-1.94.31-4.06-.93-5.73.11-1.94,1.24-2.77,4-4.52,5.49-1.94,1.66-4.72,1.56-7.12,1.24-1.94-.2-3.88-.41-5.82-.51a3.4,3.4,0,0,0-2,.2,4.45,4.45,0,0,0-1.2,1.14,23,23,0,0,1-4.8,4.46,7.36,7.36,0,0,1-6,1c-.46-.11-.92-.52-.74-.94a11.31,11.31,0,0,1,5.64-3,9.18,9.18,0,0,0,1.66-.42c2.77-1.14,3.14-6.22,6-7a4.22,4.22,0,0,0,5.09.11,5.8,5.8,0,0,0,2-5.29,11.83,11.83,0,0,1-6.19,2.8,1.06,1.06,0,0,1-1.2-.93c-.19-1,1-1.45,1.85-1.87,1.47-.72,2.4-2.38,3.88-3.32a24.68,24.68,0,0,1,2.77-1.14,25.47,25.47,0,0,0,4-2.69,13.34,13.34,0,0,1,5-2.08c2.12-.41,4.34-.2,6.37-.82a19.93,19.93,0,0,0,4-1.87c1.85-1,3.7-2.07,5.64-3.11a14.41,14.41,0,0,1,3.33-1.56,19.66,19.66,0,0,0,2.67-.62c1.76-.52,3.15-2,4.44-3.32,1.11-1.14,2.31-2.28,3.42-3.42a2.47,2.47,0,0,1-3-.41c-.65-.52-1.39-1.14-1.2-2a8.25,8.25,0,0,1-6-1,4.6,4.6,0,0,1,3.24-.83,4.75,4.75,0,0,1-2.31-1c-.09-.11-.19-.11-.19-.31-.18-.42.47-.63.93-.52a7.51,7.51,0,0,0,3.69-.52c.93-.42,1.85-.93,2.77-1.24a7.49,7.49,0,0,1,7.3,1.24c.65.52,1.3,1.35,2.13,1.45a7.08,7.08,0,0,0,3.51,2c.92.21,3.14.52,3.14,1.66s-.65,1.24-.65,1.24a3.44,3.44,0,0,1-3.05,1.45c-1.75.21-3.23,2-5,1.87a1.43,1.43,0,0,0-.64.1.77.77,0,0,0-.37.42c-1.94,2.8-3.88,5.49-5.82,8.29a17.31,17.31,0,0,0,6.37-1.45,1.35,1.35,0,0,1,1.39.21c.74.72,0,1.86-.19,2.8s.19,2-.09,2.9c-.18.52-.46.93-.65,1.45C64.8,203.65,66.28,206.65,64.89,207.9Z"/><path class="cls-2" d="M189.24,153.06a27.6,27.6,0,0,0-4.16,4.14,7.2,7.2,0,0,1-.83.94,1.1,1.1,0,0,1-1.11.1.83.83,0,0,1-.28-1.14,4.15,4.15,0,0,1-4.15,1.24c-.1,0-.19-.1-.28-.2v-.31c.28-.63.46-1.25.74-1.87a5.18,5.18,0,0,1,.64-1.24,1.11,1.11,0,0,1,1.21-.42,1.75,1.75,0,0,1,.83-1.35,9.12,9.12,0,0,1,1.38-.72c2.22-1.14,3.61-4.15,3.24-6.95a25.47,25.47,0,0,0-7.86,3.74,44.63,44.63,0,0,1-8.22,4.66l-4.8,1.87a17,17,0,0,1-3.24,1c-1.94.31-4.06-.93-5.72.11-1.94,1.24-2.77,4-4.53,5.49-1.94,1.66-4.71,1.56-7.11,1.24-1.94-.2-3.88-.41-5.82-.51a3.43,3.43,0,0,0-2,.2,4.45,4.45,0,0,0-1.2,1.14,22.49,22.49,0,0,1-4.8,4.46,7.35,7.35,0,0,1-6,1c-.46-.11-.92-.52-.73-.93a11.26,11.26,0,0,1,5.63-3,9.18,9.18,0,0,0,1.66-.42c2.78-1.14,3.14-6.22,6-7a4.19,4.19,0,0,0,5.08.11,5.77,5.77,0,0,0,2-5.29,11.79,11.79,0,0,1-6.19,2.8,1.06,1.06,0,0,1-1.2-.93c-.18-1,1-1.45,1.85-1.87,1.48-.72,2.4-2.38,3.88-3.32a25.48,25.48,0,0,1,2.77-1.14,24.57,24.57,0,0,0,4-2.69,13.22,13.22,0,0,1,5-2.07c2.13-.42,4.34-.21,6.38-.83a20.19,20.19,0,0,0,4-1.87c1.85-1,3.69-2.07,5.63-3.11a14.15,14.15,0,0,1,3.33-1.55,21.44,21.44,0,0,0,2.68-.63c1.75-.52,3.14-2,4.43-3.31,1.11-1.15,2.31-2.29,3.42-3.43a2.46,2.46,0,0,1-3-.41c-.64-.52-1.38-1.14-1.2-2a8.18,8.18,0,0,1-6-1,4.56,4.56,0,0,1,3.23-.83,4.75,4.75,0,0,1-2.31-1c-.09-.11-.18-.11-.18-.31-.19-.42.46-.63.92-.52a7.55,7.55,0,0,0,3.7-.52c.92-.41,1.84-.93,2.77-1.24a7.49,7.49,0,0,1,7.3,1.24c.64.52,1.29,1.35,2.12,1.45a7.17,7.17,0,0,0,3.51,2c.93.21,3.14.52,3.14,1.66s-.64,1.24-.64,1.24a3.46,3.46,0,0,1-3.05,1.45c-1.76.21-3.24,2-5,1.87a1.48,1.48,0,0,0-.65.1.81.81,0,0,0-.37.42c-1.94,2.8-3.88,5.49-5.82,8.29a17.36,17.36,0,0,0,6.38-1.45,1.33,1.33,0,0,1,1.38.21c.74.72,0,1.87-.18,2.8s.18,2-.09,2.9c-.19.52-.47.93-.65,1.45C189.14,148.81,190.62,151.81,189.24,153.06Z"/><path class="cls-2" d="M380.49,765.21a27.2,27.2,0,0,0-4.16,4.15,8.75,8.75,0,0,1-.83.93,1.08,1.08,0,0,1-1.11.1.82.82,0,0,1-.28-1.14A4.19,4.19,0,0,1,370,770.5c-.09,0-.18-.11-.27-.21V770c.27-.62.46-1.25.74-1.87a4.84,4.84,0,0,1,.64-1.24,1.1,1.1,0,0,1,1.2-.42,1.78,1.78,0,0,1,.83-1.35,9.71,9.71,0,0,1,1.39-.72c2.22-1.14,3.6-4.15,3.23-7a25.53,25.53,0,0,0-7.85,3.74,44.63,44.63,0,0,1-8.22,4.66l-4.81,1.87a16.67,16.67,0,0,1-3.23,1c-1.94.31-4.06-.93-5.73.11-1.94,1.24-2.77,4-4.52,5.49-1.94,1.66-4.71,1.56-7.12,1.25-1.94-.21-3.88-.42-5.82-.52a3.4,3.4,0,0,0-2,.2,4.45,4.45,0,0,0-1.2,1.14,23,23,0,0,1-4.8,4.46,7.36,7.36,0,0,1-6,1c-.46-.1-.92-.52-.74-.93a11.29,11.29,0,0,1,5.64-3,9.18,9.18,0,0,0,1.66-.42c2.77-1.14,3.14-6.21,6-7a4.2,4.2,0,0,0,5.08.1,5.79,5.79,0,0,0,2-5.29,11.83,11.83,0,0,1-6.19,2.8,1.05,1.05,0,0,1-1.2-.93c-.19-1,1-1.45,1.85-1.87,1.47-.72,2.4-2.38,3.88-3.32a24.68,24.68,0,0,1,2.77-1.14,25,25,0,0,0,4-2.69,13.16,13.16,0,0,1,5-2.07c2.12-.42,4.34-.21,6.37-.83a20.27,20.27,0,0,0,4-1.87c1.84-1,3.69-2.07,5.63-3.11a14.15,14.15,0,0,1,3.33-1.55,21.86,21.86,0,0,0,2.68-.63c1.75-.51,3.14-2,4.43-3.31,1.11-1.14,2.31-2.28,3.42-3.42a2.48,2.48,0,0,1-3-.42c-.65-.52-1.38-1.14-1.2-2a8.17,8.17,0,0,1-6-1,4.56,4.56,0,0,1,3.23-.83,4.75,4.75,0,0,1-2.31-1c-.09-.11-.19-.11-.19-.31-.18-.42.47-.62.93-.52a7.51,7.51,0,0,0,3.69-.52c.93-.41,1.85-.93,2.78-1.24a7.47,7.47,0,0,1,7.29,1.24c.65.52,1.3,1.35,2.13,1.45a7.12,7.12,0,0,0,3.51,2c.92.21,3.14.52,3.14,1.66s-.65,1.24-.65,1.24a3.46,3.46,0,0,1-3,1.46c-1.76.2-3.24,2-5,1.86a1.34,1.34,0,0,0-.65.11.75.75,0,0,0-.37.41c-1.94,2.8-3.88,5.49-5.82,8.29a17.31,17.31,0,0,0,6.37-1.45,1.34,1.34,0,0,1,1.39.21c.74.72,0,1.87-.18,2.8s.18,2-.1,2.9c-.18.52-.46.93-.64,1.45C380.39,761,381.87,764,380.49,765.21Z"/><path class="cls-2" d="M360.45,827a28.14,28.14,0,0,0-4.16,4.15,7.07,7.07,0,0,1-.83.93,1.11,1.11,0,0,1-1.11.11.83.83,0,0,1-.28-1.14,4.15,4.15,0,0,1-4.15,1.24c-.1,0-.19-.1-.28-.21v-.31c.28-.62.46-1.24.74-1.86a5.07,5.07,0,0,1,.64-1.25,1.09,1.09,0,0,1,1.21-.41,1.73,1.73,0,0,1,.83-1.35,9.2,9.2,0,0,1,1.38-.73,7,7,0,0,0,3.24-6.94,25.22,25.22,0,0,0-7.86,3.73,44.11,44.11,0,0,1-8.22,4.67l-4.8,1.86a17,17,0,0,1-3.24,1c-1.94.31-4.06-.93-5.72.1-1.94,1.25-2.77,4.05-4.53,5.5-1.94,1.65-4.71,1.55-7.11,1.24-1.94-.21-3.88-.41-5.82-.52a3.51,3.51,0,0,0-2,.21,4.3,4.3,0,0,0-1.2,1.14,22.73,22.73,0,0,1-4.8,4.46,7.31,7.31,0,0,1-6,1c-.46-.1-.92-.51-.73-.93a11.42,11.42,0,0,1,5.63-3,9,9,0,0,0,1.66-.41c2.77-1.14,3.14-6.22,6-7a4.19,4.19,0,0,0,5.08.1,5.76,5.76,0,0,0,2-5.28,11.87,11.87,0,0,1-6.19,2.8,1.06,1.06,0,0,1-1.2-.94c-.18-1,1-1.45,1.85-1.86,1.48-.73,2.4-2.39,3.88-3.32a22,22,0,0,1,2.77-1.14,24,24,0,0,0,4-2.7,13.39,13.39,0,0,1,5-2.07c2.13-.41,4.34-.21,6.38-.83a20.15,20.15,0,0,0,4-1.86c1.85-1,3.69-2.08,5.63-3.11a13.8,13.8,0,0,1,3.33-1.56,21.44,21.44,0,0,0,2.68-.62c1.75-.52,3.14-2,4.43-3.32,1.11-1.14,2.31-2.28,3.42-3.42a2.49,2.49,0,0,1-3-.41c-.64-.52-1.38-1.14-1.2-2a8.23,8.23,0,0,1-6-1A4.51,4.51,0,0,1,349,799a4.77,4.77,0,0,1-2.31-1c-.09-.1-.18-.1-.18-.31-.19-.41.46-.62.92-.52a7.54,7.54,0,0,0,3.7-.51,29.51,29.51,0,0,1,2.77-1.25,7.52,7.52,0,0,1,7.3,1.25c.64.51,1.29,1.34,2.12,1.45a7.24,7.24,0,0,0,3.51,2c.93.2,3.14.51,3.14,1.66s-.64,1.24-.64,1.24a3.46,3.46,0,0,1-3.05,1.45c-1.76.21-3.24,2-5,1.87a1.48,1.48,0,0,0-.65.1.77.77,0,0,0-.37.42c-1.94,2.79-3.88,5.49-5.82,8.29a17.56,17.56,0,0,0,6.38-1.45,1.33,1.33,0,0,1,1.38.2c.74.73,0,1.87-.18,2.8s.18,2-.09,2.91c-.19.51-.47.93-.65,1.45C360.35,822.79,361.83,825.8,360.45,827Z"/><path class="cls-2" d="M188.5,76.66a27.6,27.6,0,0,0-4.16,4.14,7.12,7.12,0,0,1-.83.94,1.1,1.1,0,0,1-1.11.1.82.82,0,0,1-.27-1.14A4.17,4.17,0,0,1,178,81.94c-.09,0-.19-.1-.28-.2v-.32c.28-.62.46-1.24.74-1.86a4.93,4.93,0,0,1,.65-1.25,1.07,1.07,0,0,1,1.2-.41,1.76,1.76,0,0,1,.83-1.35,8,8,0,0,1,1.39-.72c2.21-1.14,3.6-4.15,3.23-7a25.29,25.29,0,0,0-7.85,3.73,44.19,44.19,0,0,1-8.23,4.67l-4.8,1.86a16.92,16.92,0,0,1-3.23,1c-1.94.31-4.07-.93-5.73.1-1.94,1.25-2.77,4-4.53,5.5-1.94,1.66-4.71,1.55-7.11,1.24-1.94-.2-3.88-.41-5.82-.52a3.47,3.47,0,0,0-2,.21,4.31,4.31,0,0,0-1.2,1.14,22.78,22.78,0,0,1-4.81,4.46,7.33,7.33,0,0,1-6,1c-.46-.11-.93-.52-.74-.94a11.32,11.32,0,0,1,5.63-3A10.21,10.21,0,0,0,131,89c2.77-1.14,3.14-6.22,6-7a4.2,4.2,0,0,0,5.08.11,5.78,5.78,0,0,0,2-5.29,11.87,11.87,0,0,1-6.19,2.8,1.07,1.07,0,0,1-1.2-.93c-.18-1,1-1.46,1.85-1.87,1.48-.73,2.4-2.38,3.88-3.32a23.62,23.62,0,0,1,2.77-1.14,25.09,25.09,0,0,0,4-2.69,13.2,13.2,0,0,1,5-2.08c2.13-.41,4.35-.2,6.38-.83a20.15,20.15,0,0,0,4-1.86c1.85-1,3.7-2.08,5.64-3.11a13.94,13.94,0,0,1,3.32-1.56,19.81,19.81,0,0,0,2.68-.62c1.76-.52,3.14-2,4.43-3.32,1.11-1.14,2.31-2.28,3.42-3.42A2.47,2.47,0,0,1,181,52.4c-.65-.52-1.39-1.14-1.2-2a8.24,8.24,0,0,1-6-1,4.58,4.58,0,0,1,3.23-.83,4.85,4.85,0,0,1-2.31-1c-.09-.11-.18-.11-.18-.32-.19-.41.46-.62.92-.51a7.53,7.53,0,0,0,3.7-.52c.92-.42,1.85-.94,2.77-1.25a7.52,7.52,0,0,1,7.3,1.25c.64.52,1.29,1.35,2.12,1.45a7.17,7.17,0,0,0,3.51,2c.93.21,3.15.52,3.15,1.66s-.65,1.24-.65,1.24A3.45,3.45,0,0,1,194.32,54c-1.76.21-3.23,2-5,1.87a1.5,1.5,0,0,0-.65.1.85.85,0,0,0-.37.42c-1.94,2.8-3.88,5.49-5.81,8.29a17.31,17.31,0,0,0,6.37-1.45,1.33,1.33,0,0,1,1.38.21c.74.72,0,1.86-.18,2.8s.18,2-.09,2.9c-.19.52-.46.93-.65,1.45C188.41,72.41,190,75.41,188.5,76.66Z"/><path class="cls-2" d="M227.11,98.22a27.6,27.6,0,0,0-4.15,4.15,8.75,8.75,0,0,1-.83.93,1.08,1.08,0,0,1-1.11.1.82.82,0,0,1-.28-1.14,4.19,4.19,0,0,1-4.16,1.25c-.09,0-.18-.11-.27-.21V103c.27-.62.46-1.25.73-1.87a5.2,5.2,0,0,1,.65-1.24,1.1,1.1,0,0,1,1.2-.42,1.74,1.74,0,0,1,.83-1.34,8.87,8.87,0,0,1,1.39-.73c2.22-1.14,3.6-4.15,3.23-7a25.53,25.53,0,0,0-7.85,3.74,45,45,0,0,1-8.22,4.66l-4.81,1.87a16.67,16.67,0,0,1-3.23,1c-1.94.31-4.06-.93-5.73.11-1.94,1.24-2.77,4-4.52,5.49-1.94,1.66-4.71,1.56-7.12,1.25-1.94-.21-3.88-.42-5.82-.52a3.4,3.4,0,0,0-2,.2,4.45,4.45,0,0,0-1.2,1.14,23,23,0,0,1-4.8,4.46,7.36,7.36,0,0,1-6,1c-.46-.1-.92-.52-.74-.93a11.25,11.25,0,0,1,5.64-3,10.06,10.06,0,0,0,1.66-.41c2.77-1.15,3.14-6.23,6-7a4.2,4.2,0,0,0,5.08.1,5.79,5.79,0,0,0,2-5.29,11.83,11.83,0,0,1-6.19,2.8,1,1,0,0,1-1.2-.93c-.19-1,1-1.45,1.85-1.87,1.47-.72,2.4-2.38,3.88-3.32a24.68,24.68,0,0,1,2.77-1.14,25,25,0,0,0,4-2.69,13.16,13.16,0,0,1,5-2.07c2.12-.42,4.34-.21,6.37-.83a19.93,19.93,0,0,0,4-1.87c1.85-1,3.7-2.07,5.64-3.11a14.15,14.15,0,0,1,3.33-1.55,21.28,21.28,0,0,0,2.67-.63c1.76-.52,3.15-2,4.44-3.31,1.11-1.14,2.31-2.28,3.42-3.42a2.48,2.48,0,0,1-3-.42c-.65-.52-1.38-1.14-1.2-2a8.17,8.17,0,0,1-6-1,4.56,4.56,0,0,1,3.23-.83,4.75,4.75,0,0,1-2.31-1c-.09-.11-.19-.11-.19-.31-.18-.42.47-.63.93-.52a7.51,7.51,0,0,0,3.69-.52c.93-.41,1.85-.93,2.77-1.24a7.49,7.49,0,0,1,7.3,1.24c.65.52,1.3,1.35,2.13,1.45a7.12,7.12,0,0,0,3.51,2c.92.21,3.14.52,3.14,1.66s-.65,1.24-.65,1.24a3.47,3.47,0,0,1-3,1.46c-1.75.2-3.23,2-5,1.86a1.46,1.46,0,0,0-.65.1.77.77,0,0,0-.37.42c-1.94,2.8-3.88,5.49-5.82,8.29a17.11,17.11,0,0,0,6.37-1.45,1.34,1.34,0,0,1,1.39.21c.74.73,0,1.87-.19,2.8s.19,2-.09,2.9c-.18.52-.46.93-.64,1.45C227,94,228.5,97,227.11,98.22Z"/></g></svg>