<svg id="Layer_1" data-name="Layer 1" xmlns="http://www.w3.org/2000/svg" viewBox="0 0 105.05 133.91"><defs><style>.cls-1{opacity:0.1;}.cls-2{fill:#f2e9e4;}</style></defs><g class="cls-1"><path class="cls-2" d="M95.46,55.25A27.21,27.21,0,0,0,91.3,59.4a8.11,8.11,0,0,1-.83.93,1.11,1.11,0,0,1-1.11.1.82.82,0,0,1-.29-1.12h0A4.19,4.19,0,0,1,85,60.54c-.09,0-.18-.11-.27-.21v-.26c.27-.62.46-1.25.74-1.87A4.86,4.86,0,0,1,86.08,57a1.1,1.1,0,0,1,1.2-.42,1.77,1.77,0,0,1,.83-1.35,9.15,9.15,0,0,1,1.39-.72c2.22-1.14,3.6-4.15,3.23-7a25.23,25.23,0,0,0-7.85,3.74,44.72,44.72,0,0,1-8.22,4.66l-4.81,1.87a17.26,17.26,0,0,1-3.23,1c-1.94.31-4.06-.93-5.73.11-1.94,1.24-2.77,4-4.52,5.49-1.94,1.66-4.71,1.56-7.12,1.25-1.94-.21-3.88-.42-5.82-.52a3.35,3.35,0,0,0-2,.2,4.49,4.49,0,0,0-1.2,1.14,23.36,23.36,0,0,1-4.8,4.46,7.4,7.4,0,0,1-6,1c-.46-.1-.92-.52-.74-.93a11.33,11.33,0,0,1,5.64-3A9.79,9.79,0,0,0,38,67.49c2.77-1.14,3.14-6.21,6-7a4.2,4.2,0,0,0,5.08.1,5.79,5.79,0,0,0,2-5.29,11.91,11.91,0,0,1-6.22,2.77,1,1,0,0,1-1.18-.78h0v-.09h0c-.19-1,1-1.45,1.85-1.87,1.47-.69,2.39-2.35,3.87-3.25a23,23,0,0,1,2.77-1.14,25.21,25.21,0,0,0,4-2.69,13.25,13.25,0,0,1,5-2.07c2.12-.42,4.34-.21,6.37-.83a20.83,20.83,0,0,0,4-1.87c1.84-1,3.69-2.07,5.63-3.11a14.21,14.21,0,0,1,3.33-1.55,20.45,20.45,0,0,0,2.68-.63c1.75-.51,3.14-2,4.43-3.31,1.11-1.14,2.31-2.28,3.42-3.42a2.47,2.47,0,0,1-3-.42c-.65-.52-1.38-1.14-1.2-2a8.2,8.2,0,0,1-6-1,4.59,4.59,0,0,1,3.23-.83,4.8,4.8,0,0,1-2.31-1c-.09-.11-.19-.11-.19-.31-.18-.42.47-.62.93-.52a7.52,7.52,0,0,0,3.69-.52c.93-.41,1.85-.93,2.78-1.24a7.48,7.48,0,0,1,7.29,1.24c.65.52,1.3,1.35,2.13,1.45a7.16,7.16,0,0,0,3.51,2c.92.21,3.14.52,3.14,1.66s-.65,1.24-.65,1.24a3.46,3.46,0,0,1-3,1.46c-1.76.2-3.24,2-5,1.86a1.32,1.32,0,0,0-.65.11.75.75,0,0,0-.37.41c-1.94,2.8-3.88,5.49-5.82,8.29a17.46,17.46,0,0,0,6.37-1.45,1.33,1.33,0,0,1,1.39.21c.74.72,0,1.87-.18,2.8s.18,2-.1,2.9c-.18.52-.46.93-.64,1.45C95.36,51.07,96.84,54.07,95.46,55.25Z"/><path class="cls-2" d="M75.42,117.07a27.67,27.67,0,0,0-4.16,4.15,8.11,8.11,0,0,1-.83.93,1.13,1.13,0,0,1-1.11.11.83.83,0,0,1-.34-1.12.43.43,0,0,1,0-.07h0a4.14,4.14,0,0,1-4.15,1.24c-.1,0-.19-.1-.28-.21v-.31c.28-.62.46-1.24.74-1.86a4.76,4.76,0,0,1,.64-1.25,1.08,1.08,0,0,1,1.21-.41,1.72,1.72,0,0,1,.83-1.35,8.29,8.29,0,0,1,1.38-.73,7,7,0,0,0,3.24-6.94A24.93,24.93,0,0,0,64.77,113a43.88,43.88,0,0,1-8.22,4.67l-4.8,1.86a17.36,17.36,0,0,1-3.24,1c-1.94.31-4.06-.93-5.72.1-1.94,1.25-2.77,4-4.53,5.5-1.94,1.65-4.71,1.55-7.11,1.24-1.94-.21-3.88-.41-5.82-.52a3.43,3.43,0,0,0-2,.21,4.21,4.21,0,0,0-1.2,1.14,22.84,22.84,0,0,1-4.8,4.46,7.36,7.36,0,0,1-6,1c-.46-.1-.92-.51-.73-.93a11.3,11.3,0,0,1,5.63-3,8.57,8.57,0,0,0,1.66-.41c2.77-1.14,3.14-6.22,6-7a4.2,4.2,0,0,0,5.08.1,5.77,5.77,0,0,0,2-5.28,11.94,11.94,0,0,1-6.19,2.8,1.06,1.06,0,0,1-1.2-.9h0c-.18-1,1-1.45,1.85-1.86,1.48-.73,2.4-2.39,3.88-3.32a23,23,0,0,1,2.77-1.14,24.61,24.61,0,0,0,4-2.7,13.25,13.25,0,0,1,5-2.07c2.13-.41,4.34-.21,6.38-.83a20.79,20.79,0,0,0,4-1.86c1.85-1,3.69-2.08,5.63-3.11a13.85,13.85,0,0,1,3.33-1.56A22.16,22.16,0,0,0,63.1,100c1.75-.52,3.14-2,4.43-3.32,1.11-1.14,2.31-2.28,3.42-3.42a2.48,2.48,0,0,1-3-.41c-.64-.52-1.38-1.14-1.2-2a8.2,8.2,0,0,1-6-1A4.57,4.57,0,0,1,64,89.07a4.8,4.8,0,0,1-2.31-1c-.09-.1-.18-.1-.18-.31-.19-.41.46-.62.92-.52a7.66,7.66,0,0,0,3.7-.51c.9-.46,1.83-.88,2.77-1.25a7.53,7.53,0,0,1,7.3,1.25c.64.51,1.29,1.34,2.12,1.45a7.29,7.29,0,0,0,3.51,2c.93.2,3.14.51,3.14,1.66s-.64,1.24-.64,1.24a3.48,3.48,0,0,1-3,1.45c-1.76.21-3.24,2-5,1.87a1.31,1.31,0,0,0-.65.1.8.8,0,0,0-.37.42c-1.94,2.79-3.88,5.49-5.82,8.29a17.55,17.55,0,0,0,6.38-1.45,1.33,1.33,0,0,1,1.38.2c.74.73,0,1.87-.18,2.8s.18,2-.09,2.91c-.19.51-.47.93-.65,1.45C75.32,112.83,76.8,115.84,75.42,117.07Z"/></g></svg>