<svg id="Layer_1" data-name="Layer 1" xmlns="http://www.w3.org/2000/svg" viewBox="0 0 289.99 233"><defs><style>.cls-1{opacity:0.1;}.cls-2{fill:#f2e9e4;}</style></defs><g class="cls-1"><path class="cls-2" d="M149.1,130a29.07,29.07,0,0,0-4.15,4.15,8.11,8.11,0,0,1-.83.93,1.08,1.08,0,0,1-1.11.11.82.82,0,0,1-.29-1.12h0a4.17,4.17,0,0,1-4.16,1.24c-.09,0-.18-.1-.27-.21v-.31c.27-.62.46-1.24.73-1.86a5.51,5.51,0,0,1,.65-1.25,1.08,1.08,0,0,1,1.2-.41,1.72,1.72,0,0,1,.83-1.35,9.21,9.21,0,0,1,1.39-.73c2.22-1.14,3.6-4.14,3.23-6.94a25.43,25.43,0,0,0-7.85,3.73,44.77,44.77,0,0,1-8.22,4.67l-4.81,1.86a16.55,16.55,0,0,1-3.23,1c-1.94.31-4.06-.93-5.73.1-1.94,1.25-2.77,4-4.52,5.5-1.94,1.66-4.72,1.55-7.12,1.24-1.94-.21-3.88-.41-5.82-.52a3.51,3.51,0,0,0-2,.21,4.49,4.49,0,0,0-1.2,1.14A22.93,22.93,0,0,1,91,145.7a7.32,7.32,0,0,1-6,1c-.46-.1-.92-.51-.74-.93a11.33,11.33,0,0,1,5.64-3,9.61,9.61,0,0,0,1.66-.42c2.77-1.14,3.14-6.22,6-7a4.22,4.22,0,0,0,5.09.11,5.82,5.82,0,0,0,2-5.29,11.94,11.94,0,0,1-6.19,2.8,1.06,1.06,0,0,1-1.2-.9h0c-.19-1,1-1.45,1.85-1.86,1.47-.73,2.4-2.39,3.88-3.32a23,23,0,0,1,2.77-1.14,26.16,26.16,0,0,0,4-2.69,13.27,13.27,0,0,1,5-2.08c2.12-.41,4.34-.21,6.37-.83a19.66,19.66,0,0,0,4-1.86c1.85-1,3.7-2.08,5.64-3.11a13.51,13.51,0,0,1,3.33-1.56,22.45,22.45,0,0,0,2.67-.62c1.76-.52,3.15-2,4.44-3.32,1.11-1.14,2.31-2.28,3.42-3.42a2.48,2.48,0,0,1-3-.41c-.65-.52-1.39-1.14-1.2-2a8.2,8.2,0,0,1-6-1,4.49,4.49,0,0,1,3.23-.83,4.71,4.71,0,0,1-2.31-1c-.09-.1-.19-.1-.19-.31-.18-.41.47-.62.93-.51a7.52,7.52,0,0,0,3.69-.52c.93-.42,1.85-.94,2.77-1.25a7.5,7.5,0,0,1,7.3,1.25c.65.52,1.3,1.34,2.13,1.45a7.16,7.16,0,0,0,3.51,2c.92.2,3.14.52,3.14,1.66S158,106,158,106a3.42,3.42,0,0,1-3,1.45c-1.75.21-3.23,2-5,1.87a1.46,1.46,0,0,0-.65.1.8.8,0,0,0-.37.42c-1.94,2.8-3.88,5.49-5.82,8.29a17.26,17.26,0,0,0,6.37-1.45,1.35,1.35,0,0,1,1.39.2c.74.73,0,1.87-.19,2.8s.19,2-.09,2.91c-.18.52-.46.93-.64,1.45C149,125.79,150.58,128.8,149.1,130Z"/><path class="cls-2" d="M149.1,207.9A27.67,27.67,0,0,0,145,212a8.21,8.21,0,0,1-.83.94,1.08,1.08,0,0,1-1.11.1.82.82,0,0,1-.29-1.12h0a4.19,4.19,0,0,1-4.16,1.25c-.09,0-.18-.11-.27-.21v-.31c.27-.63.46-1.25.73-1.87a5.24,5.24,0,0,1,.65-1.24,1.06,1.06,0,0,1,1.2-.42,1.8,1.8,0,0,1,.83-1.35,9.15,9.15,0,0,1,1.39-.72c2.22-1.14,3.6-4.15,3.23-7a25.45,25.45,0,0,0-7.85,3.74,44.72,44.72,0,0,1-8.22,4.66l-4.81,1.87a16.55,16.55,0,0,1-3.23,1c-1.94.31-4.06-.93-5.73.11-1.94,1.24-2.77,4-4.52,5.49-1.94,1.66-4.72,1.56-7.12,1.25-1.94-.21-3.88-.42-5.82-.52a3.35,3.35,0,0,0-2,.2,4.49,4.49,0,0,0-1.2,1.14A23.09,23.09,0,0,1,91,223.5a7.36,7.36,0,0,1-6,1c-.46-.11-.92-.52-.74-.93a11.25,11.25,0,0,1,5.64-3,9.61,9.61,0,0,0,1.66-.42c2.77-1.14,3.14-6.22,6-7a4.22,4.22,0,0,0,5.09.1,5.79,5.79,0,0,0,2-5.29,11.86,11.86,0,0,1-6.19,2.8,1.06,1.06,0,0,1-1.2-.9h0c-.19-1,1-1.45,1.85-1.87,1.47-.72,2.4-2.38,3.88-3.32a23,23,0,0,1,2.77-1.14,26.16,26.16,0,0,0,4-2.69,13.25,13.25,0,0,1,5-2.07c2.12-.42,4.34-.21,6.37-.83a19.69,19.69,0,0,0,4-1.87c1.85-1,3.7-2.07,5.64-3.11a14.21,14.21,0,0,1,3.33-1.55,20.69,20.69,0,0,0,2.67-.63c1.76-.51,3.15-2,4.44-3.31,1.11-1.14,2.31-2.29,3.42-3.43a2.46,2.46,0,0,1-3-.41c-.65-.52-1.39-1.14-1.2-2a8.2,8.2,0,0,1-6-1,4.59,4.59,0,0,1,3.23-.83,4.67,4.67,0,0,1-2.31-1c-.09-.11-.19-.11-.19-.31-.18-.42.47-.62.93-.52a7.52,7.52,0,0,0,3.69-.52c.93-.41,1.85-.93,2.77-1.24a7.5,7.5,0,0,1,7.3,1.24c.65.52,1.3,1.35,2.13,1.45a7.09,7.09,0,0,0,3.51,2c.92.21,3.14.52,3.14,1.66s-.65,1.24-.65,1.24a3.42,3.42,0,0,1-3,1.45c-1.75.21-3.23,2-5,1.87a1.46,1.46,0,0,0-.65.1.8.8,0,0,0-.37.42c-1.94,2.8-3.88,5.49-5.82,8.29a17.26,17.26,0,0,0,6.37-1.45,1.33,1.33,0,0,1,1.39.21c.74.72,0,1.86-.19,2.8s.19,2-.09,2.9c-.18.52-.46.93-.64,1.45C149,203.65,150.58,206.65,149.1,207.9Z"/><path class="cls-2" d="M264.21,122.68a28.07,28.07,0,0,0-4.15,4.15,6.19,6.19,0,0,1-.84.93,1.07,1.07,0,0,1-1.1.11.82.82,0,0,1-.29-1.12h0a4.17,4.17,0,0,1-4.16,1.24c-.09,0-.18-.1-.28-.21v-.31c.28-.62.47-1.24.74-1.86a5.51,5.51,0,0,1,.65-1.25A1.08,1.08,0,0,1,256,124a1.72,1.72,0,0,1,.83-1.35,9.21,9.21,0,0,1,1.39-.73c2.22-1.14,3.6-4.14,3.23-6.94a25.21,25.21,0,0,0-7.85,3.73,44.77,44.77,0,0,1-8.22,4.67l-4.81,1.86a16.55,16.55,0,0,1-3.23,1c-1.94.31-4.06-.93-5.73.1-1.94,1.25-2.77,4-4.52,5.5-1.94,1.66-4.72,1.55-7.12,1.24-1.94-.21-3.88-.41-5.82-.52a3.51,3.51,0,0,0-2,.21,4.49,4.49,0,0,0-1.2,1.14,23.09,23.09,0,0,1-4.8,4.46,7.32,7.32,0,0,1-6,1c-.46-.1-.92-.51-.74-.93a11.33,11.33,0,0,1,5.64-3,9.61,9.61,0,0,0,1.66-.42c2.77-1.14,3.14-6.22,6-7a4.22,4.22,0,0,0,5.09.1,5.82,5.82,0,0,0,2-5.28,11.94,11.94,0,0,1-6.19,2.8,1.06,1.06,0,0,1-1.2-.9h0c-.19-1,1-1.45,1.84-1.86,1.48-.73,2.41-2.39,3.88-3.32a23.17,23.17,0,0,1,2.78-1.14,24.61,24.61,0,0,0,4-2.7,13.41,13.41,0,0,1,5-2.07c2.12-.41,4.34-.21,6.37-.83a19.66,19.66,0,0,0,4-1.86c1.85-1,3.7-2.08,5.64-3.11a13.51,13.51,0,0,1,3.33-1.56,22.45,22.45,0,0,0,2.67-.62c1.76-.52,3.14-2,4.44-3.32,1.11-1.14,2.31-2.28,3.42-3.42a2.48,2.48,0,0,1-3-.41c-.65-.52-1.39-1.14-1.2-2a8.25,8.25,0,0,1-6-1,4.56,4.56,0,0,1,3.24-.83,4.71,4.71,0,0,1-2.31-1c-.09-.1-.19-.1-.19-.31-.18-.41.47-.62.93-.52a7.52,7.52,0,0,0,3.69-.51c.93-.42,1.85-.94,2.77-1.25A7.5,7.5,0,0,1,265,92.3c.65.51,1.3,1.34,2.13,1.45a7.16,7.16,0,0,0,3.51,2c.92.2,3.14.52,3.14,1.66s-.65,1.24-.65,1.24a3.45,3.45,0,0,1-3.05,1.45c-1.75.21-3.23,2-5,1.87a1.39,1.39,0,0,0-.64.1.8.8,0,0,0-.37.42c-1.94,2.79-3.88,5.49-5.82,8.29a17.26,17.26,0,0,0,6.37-1.45,1.35,1.35,0,0,1,1.39.2c.74.73,0,1.87-.19,2.8s.19,2-.09,2.91c-.18.51-.46.93-.65,1.45C264.12,118.54,265.69,121.44,264.21,122.68Z"/><path class="cls-2" d="M264.21,43.38a27.14,27.14,0,0,0-4.15,4.15,9.28,9.28,0,0,1-.84.93,1,1,0,0,1-1.1.1.82.82,0,0,1-.29-1.12h0a4.19,4.19,0,0,1-4.16,1.25c-.09,0-.18-.11-.28-.21v-.31c.28-.62.47-1.25.74-1.87a5.24,5.24,0,0,1,.65-1.24,1.1,1.1,0,0,1,1.2-.42,1.8,1.8,0,0,1,.83-1.35,9.15,9.15,0,0,1,1.39-.72c2.22-1.14,3.6-4.15,3.23-7a25.45,25.45,0,0,0-7.85,3.74A44.88,44.88,0,0,1,245.37,44l-4.81,1.87a16.55,16.55,0,0,1-3.23,1c-1.94.31-4.06-.93-5.73.11-1.94,1.24-2.77,4-4.52,5.49-1.94,1.66-4.72,1.56-7.12,1.24-1.94-.2-3.88-.41-5.82-.51a3.35,3.35,0,0,0-2,.2,4.49,4.49,0,0,0-1.2,1.14,23.09,23.09,0,0,1-4.8,4.46,7.36,7.36,0,0,1-6,1c-.46-.1-.92-.52-.74-.93a11.25,11.25,0,0,1,5.64-3,9.61,9.61,0,0,0,1.66-.42c2.77-1.14,3.14-6.22,6-7a4.22,4.22,0,0,0,5.09.1,5.82,5.82,0,0,0,2-5.29,11.86,11.86,0,0,1-6.19,2.8,1.06,1.06,0,0,1-1.2-.9h0c-.19-1,1-1.45,1.84-1.87,1.48-.72,2.41-2.38,3.88-3.32A28,28,0,0,1,220.89,39a26.16,26.16,0,0,0,4-2.69,13.25,13.25,0,0,1,5-2.07c2.12-.42,4.34-.21,6.37-.83a19.69,19.69,0,0,0,4-1.87c1.85-1,3.7-2.07,5.64-3.11a14.21,14.21,0,0,1,3.33-1.55,20.69,20.69,0,0,0,2.67-.63c1.76-.52,3.14-2,4.44-3.31,1.11-1.14,2.31-2.28,3.42-3.43a2.46,2.46,0,0,1-3-.41c-.65-.52-1.39-1.14-1.2-2a8.2,8.2,0,0,1-6-1,4.61,4.61,0,0,1,3.24-.83,4.71,4.71,0,0,1-2.31-1c-.09-.11-.19-.11-.19-.31-.18-.42.47-.63.93-.52a7.52,7.52,0,0,0,3.69-.52c.93-.41,1.85-.93,2.77-1.24A7.49,7.49,0,0,1,265,12.9c.65.52,1.3,1.35,2.13,1.45a7.09,7.09,0,0,0,3.51,2c.92.21,3.14.52,3.14,1.66s-.65,1.24-.65,1.24a3.46,3.46,0,0,1-3,1.46c-1.75.2-3.23,2-5,1.86a1.28,1.28,0,0,0-.64.11.71.71,0,0,0-.37.41c-1.94,2.8-3.88,5.49-5.82,8.29a17.26,17.26,0,0,0,6.37-1.45,1.35,1.35,0,0,1,1.39.21c.74.72,0,1.87-.19,2.8s.19,2-.09,2.9c-.18.52-.46.93-.65,1.45C264.12,39.23,265.69,42.13,264.21,43.38Z"/><path class="cls-2" d="M199.82,32.18a28.14,28.14,0,0,0-4.16,4.15,5.64,5.64,0,0,1-.83.93,1.09,1.09,0,0,1-1.1.11.82.82,0,0,1-.29-1.12h0a4.19,4.19,0,0,1-4.16,1.24c-.09,0-.18-.1-.28-.21V37c.28-.62.47-1.24.74-1.86a5.51,5.51,0,0,1,.65-1.25,1.08,1.08,0,0,1,1.2-.41,1.72,1.72,0,0,1,.83-1.35,9.21,9.21,0,0,1,1.39-.73A7,7,0,0,0,197,24.46a25.21,25.21,0,0,0-7.85,3.73A44,44,0,0,1,181,32.8l-4.81,1.87a16.55,16.55,0,0,1-3.23,1c-1.94.31-4.07-.94-5.73.1-1.94,1.25-2.77,4-4.52,5.5-2,1.65-4.72,1.55-7.12,1.24-1.94-.21-3.88-.42-5.82-.52a3.43,3.43,0,0,0-2,.21,4.35,4.35,0,0,0-1.2,1.14,22.9,22.9,0,0,1-4.81,4.46,7.29,7.29,0,0,1-6,1c-.46-.1-.92-.52-.74-.93a11.33,11.33,0,0,1,5.64-3,9.59,9.59,0,0,0,1.66-.41c2.77-1.14,3.14-6.22,6-7.05a4.2,4.2,0,0,0,5.08.1,5.79,5.79,0,0,0,2-5.28,12,12,0,0,1-6.19,2.8,1.06,1.06,0,0,1-1.2-.9h0c-.19-1,1-1.45,1.84-1.86,1.48-.73,2.41-2.39,3.88-3.32a23.17,23.17,0,0,1,2.78-1.14,24.61,24.61,0,0,0,4-2.7,13.41,13.41,0,0,1,5-2.07c2.12-.41,4.34-.21,6.37-.83a19.69,19.69,0,0,0,4-1.87c1.85-1,3.7-2.07,5.64-3.11a14,14,0,0,1,3.32-1.55,20.42,20.42,0,0,0,2.68-.62c1.76-.52,3.14-2,4.44-3.32,1.11-1.14,2.31-2.28,3.42-3.42a2.47,2.47,0,0,1-3-.42c-.65-.51-1.39-1.14-1.2-2a8.25,8.25,0,0,1-6-1,4.59,4.59,0,0,1,3.24-.9,4.71,4.71,0,0,1-2.31-1c-.1-.1-.19-.1-.19-.31-.18-.41.46-.62.93-.52a7.52,7.52,0,0,0,3.69-.52c.93-.41,1.85-.93,2.77-1.24a7.55,7.55,0,0,1,7.3,1.24c.65.52,1.29,1.35,2.13,1.46a7.21,7.21,0,0,0,3.51,2c.92.2,3.14.51,3.14,1.65S208.69,8,208.69,8a3.42,3.42,0,0,1-3,1.45c-1.75.21-3.23,2-5,1.87a1.39,1.39,0,0,0-.64.1.75.75,0,0,0-.37.41c-1.94,2.8-3.88,5.5-5.82,8.3a17.46,17.46,0,0,0,6.37-1.45,1.35,1.35,0,0,1,1.39.2c.74.73,0,1.87-.19,2.8s.19,2-.09,2.91c-.18.51-.46.93-.65,1.45C199.73,28,201.21,30.94,199.82,32.18Z"/><path class="cls-2" d="M90.81,73.65a27.67,27.67,0,0,0-4.16,4.15,8.11,8.11,0,0,1-.83.93,1.06,1.06,0,0,1-1.11.1.83.83,0,0,1-.27-1.14,4.19,4.19,0,0,1-4.16,1.25c-.09,0-.18-.11-.28-.21v-.31c.28-.62.47-1.25.74-1.87a5.24,5.24,0,0,1,.65-1.24,1.1,1.1,0,0,1,1.2-.42,1.77,1.77,0,0,1,.83-1.34,9.21,9.21,0,0,1,1.39-.73c2.21-1.14,3.6-4.15,3.23-6.95a25.45,25.45,0,0,0-7.85,3.74A43.67,43.67,0,0,1,72,74.27l-4.81,2a16.55,16.55,0,0,1-3.23,1c-1.94.31-4.07-.94-5.73.1-1.94,1.24-2.77,4-4.53,5.5-1.94,1.65-4.71,1.55-7.11,1.24-1.94-.21-3.88-.41-5.82-.52a3.43,3.43,0,0,0-2,.21A4.23,4.23,0,0,0,37.51,85a22.9,22.9,0,0,1-4.81,4.46,7.32,7.32,0,0,1-6,1c-.46-.1-.92-.52-.74-.93a11.33,11.33,0,0,1,5.64-3,9.59,9.59,0,0,0,1.66-.41c2.77-1.14,3.14-6.22,6-7a4.2,4.2,0,0,0,5.08.1,5.79,5.79,0,0,0,2-5.28,12,12,0,0,1-6.19,2.8,1.06,1.06,0,0,1-1.2-.9h0c-.19-1,1-1.45,1.84-1.86,1.48-.73,2.41-2.39,3.88-3.32a23.17,23.17,0,0,1,2.78-1.14,24.61,24.61,0,0,0,4-2.7,13.41,13.41,0,0,1,5-2.07c2.12-.41,4.34-.21,6.37-.83a19.66,19.66,0,0,0,4-1.86c1.85-1,3.7-2.08,5.64-3.11a13.61,13.61,0,0,1,3.32-1.56,20.42,20.42,0,0,0,2.68-.62c1.76-.52,3.14-2,4.44-3.32C84,52.31,85.21,51.17,86.32,50a2.47,2.47,0,0,1-3-.42c-.65-.51-1.39-1.14-1.2-2a8.25,8.25,0,0,1-6-1,4.56,4.56,0,0,1,3.24-.83,4.71,4.71,0,0,1-2.31-1c-.1-.1-.19-.1-.19-.31-.18-.41.46-.62.93-.52a7.52,7.52,0,0,0,3.69-.52c.93-.41,1.85-.93,2.77-1.24a7.55,7.55,0,0,1,7.3,1.24c.65.52,1.29,1.35,2.13,1.46a7.21,7.21,0,0,0,3.51,2c.92.2,3.14.51,3.14,1.65s-.65,1.25-.65,1.25a3.42,3.42,0,0,1-3,1.45c-1.75.21-3.23,2-5,1.87A1.48,1.48,0,0,0,91,53a.75.75,0,0,0-.37.41c-1.94,2.8-3.88,5.5-5.82,8.3a17.46,17.46,0,0,0,6.37-1.45,1.35,1.35,0,0,1,1.39.2c.74.73,0,1.87-.19,2.8s.19,2-.09,2.9c-.18.52-.46.94-.65,1.46C90.72,69.5,92.2,72.41,90.81,73.65Z"/><path class="cls-2" d="M64.85,122.68a29.07,29.07,0,0,0-4.15,4.15,6.19,6.19,0,0,1-.84.93,1.07,1.07,0,0,1-1.1.11.82.82,0,0,1-.29-1.12h0A4.17,4.17,0,0,1,54.32,128c-.09,0-.18-.1-.28-.21v-.31c.28-.62.47-1.24.74-1.86a5.51,5.51,0,0,1,.65-1.25,1.08,1.08,0,0,1,1.2-.41,1.72,1.72,0,0,1,.83-1.35,9.21,9.21,0,0,1,1.39-.73c2.22-1.14,3.6-4.14,3.23-6.94a25.21,25.21,0,0,0-7.85,3.73A44.77,44.77,0,0,1,46,123.34L41.2,125.2a16.55,16.55,0,0,1-3.23,1c-1.94.31-4.06-.93-5.73.1-1.94,1.25-2.77,4-4.52,5.5-1.94,1.65-4.72,1.55-7.12,1.24-1.94-.21-3.88-.42-5.82-.52a3.51,3.51,0,0,0-2,.21,4.35,4.35,0,0,0-1.2,1.14,23.09,23.09,0,0,1-4.8,4.46,7.32,7.32,0,0,1-6,1c-.46-.1-.92-.51-.74-.93a11.33,11.33,0,0,1,5.64-3A9.13,9.13,0,0,0,7.3,135c2.77-1.14,3.14-6.22,6-7a4.22,4.22,0,0,0,5.09.1,5.79,5.79,0,0,0,2-5.28,11.94,11.94,0,0,1-6.19,2.8,1.06,1.06,0,0,1-1.2-.9h0c-.19-1,1-1.45,1.85-1.86,1.47-.73,2.4-2.39,3.88-3.32a23,23,0,0,1,2.77-1.14,24.61,24.61,0,0,0,4-2.7,13.41,13.41,0,0,1,5-2.07c2.12-.41,4.34-.21,6.37-.83a19.66,19.66,0,0,0,4-1.86c1.85-1,3.7-2.08,5.64-3.11a13.51,13.51,0,0,1,3.33-1.56,22.45,22.45,0,0,0,2.67-.62c1.76-.52,3.15-2,4.44-3.32,1.11-1.14,2.31-2.28,3.42-3.42a2.48,2.48,0,0,1-3-.41c-.65-.52-1.39-1.14-1.2-2a8.25,8.25,0,0,1-6-1,4.56,4.56,0,0,1,3.24-.83,4.8,4.8,0,0,1-2.31-1c-.09-.1-.19-.1-.19-.31-.18-.41.47-.62.93-.52a7.52,7.52,0,0,0,3.69-.52c.93-.41,1.85-.93,2.77-1.24a7.55,7.55,0,0,1,7.3,1.24c.65.52,1.3,1.35,2.13,1.46a7.16,7.16,0,0,0,3.51,2c.92.2,3.14.51,3.14,1.66s-.65,1.24-.65,1.24A3.42,3.42,0,0,1,70.67,100c-1.75.21-3.23,2-5,1.87a1.39,1.39,0,0,0-.64.1.8.8,0,0,0-.37.42c-1.94,2.79-3.88,5.49-5.82,8.29a17.46,17.46,0,0,0,6.37-1.45,1.35,1.35,0,0,1,1.39.2c.74.73,0,1.87-.19,2.8s.19,2-.09,2.91c-.18.51-.46.93-.65,1.45C64.76,118.54,66.24,121.44,64.85,122.68Z"/><path class="cls-2" d="M64.85,207.9A28.22,28.22,0,0,0,60.7,212a9.39,9.39,0,0,1-.84.94,1.09,1.09,0,0,1-1.1.1.82.82,0,0,1-.29-1.12h0a4.17,4.17,0,0,1-4.16,1.24c-.09,0-.18-.1-.28-.2v-.31c.28-.63.47-1.25.74-1.87a5.24,5.24,0,0,1,.65-1.24,1.06,1.06,0,0,1,1.2-.42,1.8,1.8,0,0,1,.83-1.35,9.15,9.15,0,0,1,1.39-.72c2.22-1.14,3.6-4.15,3.23-7a25.77,25.77,0,0,0-7.85,3.73A44.77,44.77,0,0,1,46,208.5l-4.81,1.87a17.26,17.26,0,0,1-3.23,1c-1.94.31-4.06-.93-5.73.11-1.94,1.24-2.77,4-4.52,5.49-1.94,1.66-4.72,1.56-7.12,1.24-1.94-.2-3.88-.41-5.82-.51a3.35,3.35,0,0,0-2,.2,4.49,4.49,0,0,0-1.2,1.14,23.09,23.09,0,0,1-4.8,4.46,7.36,7.36,0,0,1-6,1c-.46-.11-.92-.52-.74-.94a11.33,11.33,0,0,1,5.64-3,9.61,9.61,0,0,0,1.66-.42c2.77-1.14,3.14-6.22,6-7a4.22,4.22,0,0,0,5.09.11,5.79,5.79,0,0,0,2-5.29,11.86,11.86,0,0,1-6.19,2.8,1.06,1.06,0,0,1-1.2-.9h0c-.19-1,1-1.45,1.85-1.87,1.47-.72,2.4-2.38,3.88-3.32a23,23,0,0,1,2.77-1.14,26.16,26.16,0,0,0,4-2.69,13.27,13.27,0,0,1,5-2.08c2.12-.41,4.34-.2,6.37-.82A19.66,19.66,0,0,0,41,196c1.85-1,3.7-2.07,5.64-3.11a14.66,14.66,0,0,1,3.33-1.56,18.8,18.8,0,0,0,2.67-.62c1.76-.52,3.15-2,4.44-3.32,1.11-1.14,2.31-2.28,3.42-3.42a2.47,2.47,0,0,1-3-.41c-.65-.52-1.39-1.14-1.2-2a8.25,8.25,0,0,1-6-1,4.61,4.61,0,0,1,3.24-.83,4.71,4.71,0,0,1-2.31-1c-.09-.11-.19-.11-.19-.31-.18-.42.47-.63.93-.52a7.52,7.52,0,0,0,3.69-.52c.93-.42,1.85-.93,2.77-1.24a7.5,7.5,0,0,1,7.3,1.24c.65.52,1.3,1.35,2.13,1.45a7.09,7.09,0,0,0,3.51,2c.92.21,3.14.52,3.14,1.66s-.65,1.24-.65,1.24a3.45,3.45,0,0,1-3,1.45c-1.75.21-3.23,2-5,1.87a1.39,1.39,0,0,0-.64.1.8.8,0,0,0-.37.42c-1.94,2.8-3.88,5.49-5.82,8.29a17.26,17.26,0,0,0,6.37-1.45,1.35,1.35,0,0,1,1.39.21c.74.72,0,1.86-.19,2.8s.19,2-.09,2.9c-.18.52-.46.93-.65,1.45C64.76,203.65,66.24,206.65,64.85,207.9Z"/><path class="cls-2" d="M189.2,153.06A28.07,28.07,0,0,0,185,157.2a7.44,7.44,0,0,1-.83.94,1.11,1.11,0,0,1-1.11.1.83.83,0,0,1-.28-1.14h0a4.14,4.14,0,0,1-4.15,1.24c-.1,0-.19-.1-.28-.2v-.31c.28-.63.46-1.25.74-1.87a5.2,5.2,0,0,1,.64-1.24,1.11,1.11,0,0,1,1.21-.42,1.72,1.72,0,0,1,.83-1.35,9,9,0,0,1,1.38-.72c2.22-1.14,3.61-4.15,3.24-6.95a25.62,25.62,0,0,0-7.86,3.74,44.72,44.72,0,0,1-8.22,4.66l-4.8,1.87a16.64,16.64,0,0,1-3.24,1c-1.94.31-4.06-.93-5.72.11-1.94,1.24-2.77,4-4.53,5.49-1.94,1.66-4.71,1.56-7.11,1.24-1.94-.2-3.88-.41-5.82-.51a3.51,3.51,0,0,0-2,.2,4.49,4.49,0,0,0-1.2,1.14,22.35,22.35,0,0,1-4.8,4.46,7.36,7.36,0,0,1-6,1c-.46-.11-.92-.52-.73-.93a11.3,11.3,0,0,1,5.63-3,9.61,9.61,0,0,0,1.66-.42c2.78-1.14,3.14-6.22,6-7a4.19,4.19,0,0,0,5.08.11,5.78,5.78,0,0,0,2-5.29,11.82,11.82,0,0,1-6.19,2.8,1.06,1.06,0,0,1-1.2-.9h0c-.18-1,1-1.45,1.85-1.87,1.48-.72,2.4-2.38,3.88-3.32a27.79,27.79,0,0,1,2.77-1.14,23.93,23.93,0,0,0,4-2.69,13.25,13.25,0,0,1,5-2.07c2.13-.42,4.34-.21,6.38-.83a20.24,20.24,0,0,0,4-1.87c1.85-1,3.69-2.07,5.63-3.11a14.21,14.21,0,0,1,3.33-1.55,20.45,20.45,0,0,0,2.68-.63c1.75-.52,3.14-2,4.43-3.31,1.11-1.15,2.31-2.29,3.42-3.43a2.46,2.46,0,0,1-3-.41c-.64-.52-1.38-1.14-1.2-2a8.2,8.2,0,0,1-6-1,4.59,4.59,0,0,1,3.23-.83,4.71,4.71,0,0,1-2.31-1c-.09-.11-.18-.11-.18-.31-.19-.42.46-.63.92-.52a7.55,7.55,0,0,0,3.7-.52c.92-.41,1.84-.93,2.77-1.24a7.5,7.5,0,0,1,7.3,1.24c.64.52,1.29,1.35,2.12,1.45a7.16,7.16,0,0,0,3.51,2c.93.21,3.14.52,3.14,1.66s-.64,1.24-.64,1.24a3.46,3.46,0,0,1-3.05,1.45c-1.76.21-3.24,2-5,1.87a1.46,1.46,0,0,0-.65.1.8.8,0,0,0-.37.42c-1.94,2.8-3.88,5.49-5.82,8.29a17.35,17.35,0,0,0,6.38-1.45,1.31,1.31,0,0,1,1.38.21c.74.72,0,1.87-.18,2.8s.18,2-.09,2.9c-.19.52-.47.93-.65,1.45C189.1,148.81,190.58,151.81,189.2,153.06Z"/><path class="cls-2" d="M188.46,76.66a28.07,28.07,0,0,0-4.16,4.14,7.44,7.44,0,0,1-.83.94,1.11,1.11,0,0,1-1.11.1.83.83,0,0,1-.28-1.13h0A4.16,4.16,0,0,1,178,81.94c-.09,0-.19-.1-.28-.2v-.32c.28-.62.46-1.24.74-1.86a4.51,4.51,0,0,1,.65-1.25,1.08,1.08,0,0,1,1.2-.41,1.72,1.72,0,0,1,.83-1.35,8,8,0,0,1,1.39-.72c2.21-1.14,3.6-4.15,3.23-7a25.21,25.21,0,0,0-7.85,3.73,44.28,44.28,0,0,1-8.23,4.67l-4.8,1.86a16.55,16.55,0,0,1-3.23,1c-1.94.31-4.07-.93-5.73.1-1.94,1.25-2.77,4-4.53,5.5-1.94,1.66-4.71,1.55-7.11,1.24-1.94-.2-3.88-.41-5.82-.52a3.43,3.43,0,0,0-2,.21,4.35,4.35,0,0,0-1.2,1.14,22.9,22.9,0,0,1-4.81,4.46,7.32,7.32,0,0,1-6,1c-.46-.11-.93-.52-.74-.94a11.3,11.3,0,0,1,5.63-3A10.28,10.28,0,0,0,131,89c2.77-1.14,3.14-6.22,6-7a4.2,4.2,0,0,0,5.08.11,5.78,5.78,0,0,0,2-5.29,11.86,11.86,0,0,1-6.19,2.8,1.06,1.06,0,0,1-1.2-.92h0c-.18-1,1-1.46,1.85-1.87,1.48-.73,2.4-2.38,3.88-3.32a23,23,0,0,1,2.77-1.14,25.21,25.21,0,0,0,4-2.69,13.27,13.27,0,0,1,5-2.08c2.13-.41,4.35-.2,6.38-.83a20.21,20.21,0,0,0,4-1.86c1.85-1,3.7-2.08,5.64-3.11a14,14,0,0,1,3.32-1.56,18.93,18.93,0,0,0,2.68-.62c1.76-.52,3.14-2,4.43-3.32,1.11-1.14,2.31-2.28,3.42-3.42A2.47,2.47,0,0,1,181,52.4c-.65-.52-1.39-1.14-1.2-2a8.25,8.25,0,0,1-6-1,4.59,4.59,0,0,1,3.23-.83,4.84,4.84,0,0,1-2.31-1c-.09-.11-.18-.11-.18-.32-.19-.41.46-.62.92-.51a7.55,7.55,0,0,0,3.7-.52c.92-.42,1.85-.94,2.77-1.25a7.53,7.53,0,0,1,7.3,1.25c.64.52,1.29,1.35,2.12,1.45a7.16,7.16,0,0,0,3.51,2c.93.21,3.15.52,3.15,1.66s-.65,1.24-.65,1.24a3.44,3.44,0,0,1-3,1.43c-1.76.21-3.23,2-5,1.87a1.46,1.46,0,0,0-.65.1.8.8,0,0,0-.37.42c-1.94,2.8-3.88,5.49-5.81,8.29a17.26,17.26,0,0,0,6.37-1.45,1.31,1.31,0,0,1,1.38.21c.74.72,0,1.86-.18,2.8s.18,2-.09,2.9c-.19.52-.46.93-.65,1.45C188.37,72.41,190,75.41,188.46,76.66Z"/><path class="cls-2" d="M227.07,98.22a27.14,27.14,0,0,0-4.15,4.15,8.11,8.11,0,0,1-.83.93,1.08,1.08,0,0,1-1.11.1.82.82,0,0,1-.29-1.12h0a4.19,4.19,0,0,1-4.16,1.25c-.09,0-.18-.11-.27-.21V103c.27-.62.46-1.25.73-1.87a5.24,5.24,0,0,1,.65-1.24,1.1,1.1,0,0,1,1.2-.42,1.77,1.77,0,0,1,.83-1.34,9.21,9.21,0,0,1,1.39-.73c2.22-1.14,3.6-4.15,3.23-7a25.45,25.45,0,0,0-7.85,3.74,44.72,44.72,0,0,1-8.22,4.66l-4.81,1.87a16.55,16.55,0,0,1-3.23,1c-1.94.31-4.06-.93-5.73.11-1.94,1.24-2.77,4-4.52,5.49-1.94,1.66-4.71,1.56-7.12,1.25-1.94-.21-3.88-.42-5.82-.52a3.35,3.35,0,0,0-2,.2,4.49,4.49,0,0,0-1.2,1.14,23.09,23.09,0,0,1-4.8,4.46,7.36,7.36,0,0,1-6,1c-.46-.1-.92-.52-.74-.93a11.25,11.25,0,0,1,5.64-3,10.59,10.59,0,0,0,1.66-.41c2.77-1.15,3.14-6.23,6-7a4.2,4.2,0,0,0,5.08.1,5.79,5.79,0,0,0,2-5.29,11.86,11.86,0,0,1-6.19,2.8,1,1,0,0,1-1.18-.78h0v-.15c-.19-1,1-1.45,1.85-1.87,1.47-.72,2.4-2.38,3.88-3.32a23,23,0,0,1,2.77-1.14,25.21,25.21,0,0,0,4-2.69,13.25,13.25,0,0,1,5-2.07c2.12-.42,4.34-.21,6.37-.83a19.69,19.69,0,0,0,4-1.87c1.85-1,3.7-2.07,5.64-3.11a14.21,14.21,0,0,1,3.33-1.55,20.69,20.69,0,0,0,2.67-.63c1.76-.52,3.15-2,4.44-3.31,1.11-1.14,2.31-2.28,3.42-3.42a2.47,2.47,0,0,1-3-.42c-.65-.52-1.38-1.14-1.2-2a8.2,8.2,0,0,1-6-1,4.59,4.59,0,0,1,3.23-.83,4.8,4.8,0,0,1-2.31-1c-.09-.11-.19-.11-.19-.31-.18-.42.47-.63.93-.52a7.52,7.52,0,0,0,3.69-.52c.93-.41,1.85-.93,2.77-1.24a7.5,7.5,0,0,1,7.3,1.24c.65.52,1.3,1.35,2.13,1.45a7.09,7.09,0,0,0,3.51,2c.92.21,3.14.52,3.14,1.66s-.65,1.24-.65,1.24a3.47,3.47,0,0,1-3,1.46c-1.75.2-3.23,2-5,1.86a1.46,1.46,0,0,0-.65.1.8.8,0,0,0-.37.42c-1.94,2.8-3.88,5.49-5.82,8.29a17.06,17.06,0,0,0,6.37-1.45,1.33,1.33,0,0,1,1.39.21c.74.73,0,1.87-.19,2.8s.19,2-.09,2.9c-.18.52-.46.93-.64,1.45C227,94,228.46,97,227.07,98.22Z"/></g></svg>