<svg id="Layer_1" data-name="Layer 1" xmlns="http://www.w3.org/2000/svg" opacity="0.1" viewBox="0 0 203 144"><defs><style>.cls-1{fill:#f2e9e4;}</style></defs><path class="cls-1" d="M51.83,44.64l6-5.81v7.82l8.72-.3-6.11,5.82,6.11,5.51-8.34.3.22,7.82-6.11-5.29-5.74,5.82V58.2l-9.09.45,6.19-6-6.19-5.44L46.09,47l-.15-7.83Z"/><path class="cls-1" d="M79,70.42l6.11-5.81v7.82l8.72-.22L87.67,78l6.11,5.51-8.34.3.22,7.83-6.11-5.22-5.81,5.81V84.06l-9,.37,6.18-6L64.72,73l8.49-.23-.07-7.82Z"/><path class="cls-1" d="M105,44.49l6-5.81V46.5l8.71-.3L113.6,52l6.11,5.51-8.34.3.22,7.82-6.11-5.21-5.74,5.73V58.05l-9.09.45,6.26-6L90.65,47l8.57-.22L99.07,39Z"/><path class="cls-1" d="M78.8,18.34l6-5.82v7.9l8.79-.3-6.18,5.74,6.18,5.52-8.34.29.22,7.83L79.4,34.28l-5.81,5.81V32l-9.09.37,6.26-6L64.5,20.87l8.57-.22L73,12.82Z"/><path class="cls-1" d="M105,95.84,111,90v7.9l8.71-.3-6.11,5.74,6.11,5.52-8.34.29.22,7.83-6.11-5.22-5.74,5.81v-8.12l-9.09.37,6.26-6-6.26-5.44,8.57-.22-.15-7.83Z"/><path class="cls-1" d="M22.69,95.84,28.8,90v7.9l8.72-.3-6.11,5.74,6.11,5.52-8.35.29L29.4,117l-6.11-5.22-5.82,5.81v-8.12l-9.09.37,6.26-6L8.38,98.37,17,98.15l-.07-7.83Z"/><path class="cls-1" d="M78.51,122.22l6.11-5.74v7.82l8.72-.3-6.12,5.82,6.12,5.44-8.35.29.22,7.9-6.11-5.29L73.29,144v-8.12l-9,.45,6.19-6.11-6.19-5.44,8.57-.15-.15-7.82Z"/><path class="cls-1" d="M132.16,121.69l6-5.81v7.83l8.72-.3-6.12,5.81,6.12,5.44-8.35.3.22,7.9-6.11-5.29-5.74,5.81v-8.12l-9.09.44,6.19-6.11-6.19-5.44,8.57-.15-.15-7.82Z"/><path class="cls-1" d="M158.09,95.69l6-5.82v7.9l8.72-.3-6.11,5.74,6.11,5.52-8.35.3.3,7.82-6.19-5.22-5.73,5.82v-8.13l-9.1.38,6.26-6-6.26-5.44,8.57-.22-.07-7.83Z"/><path class="cls-1" d="M184.47,122.07l6.11-5.74v7.82l8.72-.3-6.18,5.82,6.18,5.44-8.34.29.22,7.9L185.07,138l-5.81,5.82V135.7l-9.09.45,6.25-6.11-6.25-5.44,8.56-.15-.07-7.83Z"/><path class="cls-1" d="M131.94,69.6l6.11-5.81v7.83l8.72-.3-6.12,5.81,6.12,5.44-8.35.3.22,7.9-6.11-5.29-5.81,5.81V83.17l-9.09.44,6.26-6.11-6.26-5.44,8.57-.15-.08-7.82Z"/><path class="cls-1" d="M184.92,69.6l6-5.81v7.83l8.79-.3-6.19,5.81,6.19,5.44-8.35.3.23,7.9-6.11-5.29-5.82,5.81V83.17l-9.09.44,6.26-6.11-6.26-5.44,8.57-.15-.07-7.82Z"/><path class="cls-1" d="M131.56,17.81,137.67,12v7.83l8.72-.23-6.11,5.74,6.11,5.51-8.34.3.22,7.83-6.11-5.22-5.74,5.74v-8l-9.09.37,6.19-6-6.19-5.44,8.57-.23-.15-7.82Z"/><path class="cls-1" d="M158.61,42.93l6-5.82v7.83l8.79-.3-6.18,5.81L173.44,56l-8.42.3.3,7.82-6.11-5.22-5.81,5.74V56.49l-9.09.44,6.26-6-6.26-5.44,8.57-.22-.08-7.83Z"/></svg>