<svg width="1843" height="580" viewBox="0 0 1843 580" fill="#F2E9E4" xmlns="http://www.w3.org/2000/svg" opacity="0.1">
<path d="M72.2741 55.103L82.2665 45.4102V58.4584L96.7 57.9613L86.5842 67.6543L96.7 76.85L82.8833 77.3471L83.2534 90.3953L73.1376 81.5723L63.6387 91.2653V77.72L48.5884 78.4656L58.8275 68.3998L48.5884 59.3282L62.7751 58.9555L62.5284 45.9073L72.2741 55.103Z" fill="#F2E9E4"/>
<path d="M117.179 98.1002L127.295 88.4072V101.455L141.728 101.083L131.613 110.651L141.728 119.847L127.912 120.344L128.282 133.392L118.166 124.694L108.544 134.387V120.841L93.6167 121.463L103.856 111.397L93.6167 102.325L107.68 101.953L107.557 88.9043L117.179 98.1002Z" fill="#F2E9E4"/>
<path d="M160.233 54.8546L170.225 45.1616V58.2098L184.658 57.7129L174.543 67.4057L184.658 76.6017L170.842 77.0988L171.212 90.147L161.096 81.4482L151.597 91.0168V77.4715L136.547 78.2172L146.909 68.1513L136.547 59.0798L150.734 58.7069L150.487 45.6587L160.233 54.8546Z" fill="#F2E9E4"/>
<path d="M116.932 11.237L126.925 1.54395V14.7165L141.482 14.2194L131.242 23.7881L141.482 32.984L127.665 33.4811L128.035 46.5293L117.919 37.8305L108.297 47.5233V33.978L93.2466 34.5994L103.609 24.5336L93.2466 15.462L107.433 15.0893L107.31 2.04105L116.932 11.237Z" fill="#F2E9E4"/>
<path d="M160.233 140.476L170.225 130.783V143.956L184.658 143.459L174.543 153.027L184.658 162.223L170.842 162.72L171.212 175.769L161.096 167.07L151.597 176.763V163.217L136.547 163.839L146.909 153.773L136.547 144.701L150.734 144.329L150.487 131.28L160.233 140.476Z" fill="#F2E9E4"/>
<path d="M24.0397 140.476L34.1555 130.783V143.956L48.589 143.459L38.4732 153.027L48.589 162.223L34.7723 162.72L35.1424 175.769L25.0266 167.07L15.4043 176.763V163.217L0.354004 163.839L10.7165 153.773L0.354004 144.701L14.5408 144.329L14.4174 131.28L24.0397 140.476Z" fill="#F2E9E4"/>
<path d="M116.438 184.468L126.554 174.899V187.947L140.988 187.45L130.872 197.143L140.988 206.215L127.171 206.712L127.541 219.884L117.425 211.061L107.803 220.754V207.209L92.876 207.954L103.115 197.764L92.876 188.693L107.063 188.444L106.816 175.396L116.438 184.468Z" fill="#F2E9E4"/>
<path d="M205.261 183.598L215.254 173.905V186.953L229.687 186.456L219.571 196.149L229.687 205.221L215.871 205.718L216.241 218.89L206.125 210.067L196.626 219.76V206.215L181.576 206.961L191.815 196.771L181.576 187.699L195.762 187.45L195.516 174.402L205.261 183.598Z" fill="#F2E9E4"/>
<path d="M248.191 140.227L258.183 130.534V143.707L272.616 143.21L262.501 152.778L272.616 161.974L258.8 162.471L259.293 175.519L249.054 166.821L239.555 176.514V162.968L224.505 163.59L234.867 153.524L224.505 144.452L238.692 144.08L238.568 131.031L248.191 140.227Z" fill="#F2E9E4"/>
<path d="M1711.08 395.809L1721.07 386.116V399.288L1735.5 398.791L1725.39 408.36L1735.5 417.556L1721.68 418.053L1722.18 431.101L1711.94 422.402L1702.44 432.095V418.55L1687.39 419.171L1697.75 409.105L1687.39 400.034L1701.58 399.661L1701.45 386.613L1711.08 395.809Z" fill="#F2E9E4"/>
<path d="M1192.92 543.405L1202.91 533.712V546.885L1217.34 546.388L1207.23 555.957L1217.34 565.152L1203.53 565.649L1204.02 578.698L1193.78 569.999L1184.28 579.692V566.146L1169.23 566.768L1179.59 556.702L1169.23 547.63L1183.42 547.258L1183.3 534.21L1192.92 543.405Z" fill="#F2E9E4"/>
<path d="M291.86 184.219L301.976 174.65V187.699L316.41 187.201L306.171 196.895L316.41 205.966L302.593 206.463L302.963 219.636L292.847 210.813L283.225 220.506V206.96L268.175 207.706L278.537 197.516L268.175 188.444L282.362 188.196L282.238 175.147L291.86 184.219Z" fill="#F2E9E4"/>
<path d="M355.025 14.3439L365.018 4.65088V17.6991L379.451 17.202L369.335 26.895L379.451 36.0909L365.634 36.4636L366.004 49.6362L355.889 40.813L346.39 50.506V36.9607L331.339 37.7063L341.579 27.5163L331.339 18.4447L345.526 18.1962L345.279 5.14798L355.025 14.3439Z" fill="#F2E9E4"/>
<path d="M1817.91 269.925L1827.9 260.232V273.28L1842.34 272.783L1832.22 282.476L1842.34 291.672L1828.52 292.045L1828.89 305.217L1818.77 296.394L1809.27 306.087V292.542L1794.22 293.287L1804.46 283.097L1794.22 274.026L1808.41 273.777L1808.16 260.729L1817.91 269.925Z" fill="#F2E9E4"/>
<path d="M204.889 96.7334L215.005 87.0405V100.089L229.439 99.5916L219.323 109.285L229.439 118.356L215.622 118.853L215.992 132.026L205.876 123.203L196.254 132.896V119.35L181.204 120.096L191.566 109.906L181.204 100.834L195.39 100.586L195.267 87.5376L204.889 96.7334Z" fill="#F2E9E4"/>
<path d="M1667.77 352.314L1677.89 342.622V355.67L1692.32 355.173L1682.21 364.866L1692.32 373.937L1678.51 374.434L1678.88 387.607L1668.76 378.784L1659.14 388.477V374.931L1644.09 375.677L1654.45 365.487L1644.09 356.415L1658.28 356.167L1658.15 343.119L1667.77 352.314Z" fill="#F2E9E4"/>
<path d="M1106.04 542.411L1116.16 532.718V545.766L1130.59 545.269L1120.48 554.962L1130.59 564.033L1116.77 564.53L1117.14 577.703L1107.03 568.88L1097.41 578.573V565.028L1082.36 565.773L1092.72 555.583L1082.36 546.512L1096.54 546.263L1096.42 533.215L1106.04 542.411Z" fill="#F2E9E4"/>
<path d="M292.6 96.7334L302.593 87.0405V100.089L317.149 99.5916L306.91 109.285L317.149 118.356L303.333 118.853L303.703 132.026L293.587 123.203L283.965 132.896V119.35L268.915 120.096L279.277 109.906L268.915 100.834L283.101 100.586L282.978 87.5376L292.6 96.7334Z" fill="#F2E9E4"/>
<path d="M1755.49 352.314L1765.48 342.622V355.67L1780.03 355.173L1769.8 364.866L1780.03 373.937L1766.22 374.434L1766.59 387.607L1756.47 378.784L1746.85 388.477V374.931L1731.8 375.677L1742.16 365.487L1731.8 356.415L1745.99 356.167L1745.86 343.119L1755.49 352.314Z" fill="#F2E9E4"/>
<path d="M204.272 10.3668L214.388 0.673828V13.722L228.822 13.3492L218.706 22.9179L228.822 32.1137L215.005 32.6108L215.375 45.659L205.259 36.9602L195.76 46.529V33.1079L180.71 33.7292L190.949 23.6635L180.71 14.5918L194.897 14.2191L194.65 1.17086L204.272 10.3668Z" fill="#F2E9E4"/>
<path d="M249.054 52.2457L259.047 42.5527V55.6009L273.604 55.1038L263.364 64.7969L273.604 73.9928L259.664 74.4899L260.157 87.5381L250.041 78.8393L240.419 88.4079V74.8626L225.369 75.6082L235.731 65.5424L225.369 56.4709L239.555 56.098L239.432 43.0498L249.054 52.2457Z" fill="#F2E9E4"/>
<path d="M1711.94 307.827L1721.93 298.134V311.182L1736.49 310.685L1726.25 320.378L1736.49 329.574L1722.55 330.071L1723.04 343.119L1712.93 334.42L1703.3 343.989V330.444L1688.25 331.189L1698.62 321.123L1688.25 312.052L1702.44 311.679L1702.32 298.631L1711.94 307.827Z" fill="#F2E9E4"/>
</svg>
