<?xml version="1.0" encoding="utf-8"?>
<!-- Generator: Adobe Illustrator 27.9.0, SVG Export Plug-In . SVG Version: 6.00 Build 0)  -->
<svg version="1.1" id="Layer_1" xmlns="http://www.w3.org/2000/svg" xmlns:xlink="http://www.w3.org/1999/xlink" x="0px" y="0px"
	 viewBox="0 0 1920 85" style="enable-background:new 0 0 1920 85;" xml:space="preserve">
<style type="text/css">
	.st0{fill:none;stroke:#F2E9E4;stroke-width:3;}
	.st1{clip-path:url(#SVGID_00000036215395330868618770000005344039739480947594_);fill:none;stroke:#F2E9E4;stroke-width:6;}
	.st2{fill:#F2E9E4;}
</style>
<g>
	<g>
		<path class="st0" d="M-1540,15.2h1159.7h294.5c36,0,95-11.8,125-11.8c68,0,93,12,154.5,12c52.4,0,229,0,229,0h500.5
			c0,0,8.3,0,12,0c33.5,0,75.2-11.3,97-11.7c23.5-0.4,50,11.5,98.5,11.5c5.1,0,13,0,13,0h191c0,0,203.5,0,239.5,0s95-11.8,125-11.8
			c68,0,93,12,154.5,12s249-0.2,249-0.2H3460"/>
	</g>
</g>
<path class="st0" d="M-1540,30.8H134.6h811c0,0,8.3,0,12,0c24.5,0,53.8-9.3,75.5-9.7c23.5-0.4,44,9.5,73.9,9.5c5.1,0,13,0,13,0
	l1002.1,0.2H3460"/>
<path class="st0" d="M-1540,47H236.5H998c0,0,8.3,0,12,0c24.5,0,53.8,9.3,75.5,9.7c23.5,0.4,44-9.5,73.9-9.5c5.1,0,13,0,13,0H2190
	h1270"/>
<path class="st0" d="M3460,63.2H2061h-863.2c0,0-7.9,0-13,0c-48.5,0-75,11.9-98.5,11.5c-21.7-0.3-63.5-11.7-97-11.7
	c-3.7,0-707.2,0.2-707.2,0.2c-36,0-95,11.8-125,11.8C89,75,64,63,2.5,63S-227,63.2-227,63.2h-1313"/>
<g>
	<g>
		<defs>
			<path id="SVGID_1_" d="M0,0h1093.5v86H0V0z"/>
		</defs>
		<clipPath id="SVGID_00000110441656474539299210000004204542794796852632_">
			<use xlink:href="#SVGID_1_"  style="overflow:visible;"/>
		</clipPath>
		
			<path style="clip-path:url(#SVGID_00000110441656474539299210000004204542794796852632_);fill:none;stroke:#F2E9E4;stroke-width:6;" d="
			M3460,63.2H2061h-863.2c0,0-7.9,0-13,0c-48.5,0-75,11.9-98.5,11.5c-21.7-0.3-63.5-11.7-97-11.7c-3.7,0-707.2,0.2-707.2,0.2
			c-36,0-95,11.8-125,11.8C89,75,64,63,2.5,63S-227,63.2-227,63.2h-1313"/>
	</g>
</g>
<path class="st2" d="M276.1,63.4L286.5,53l10.4,10.4l-10.4,10.4L276.1,63.4z"/>
<path class="st2" d="M545.6,63.5L556,53.1l10.4,10.4L556,73.9L545.6,63.5z"/>
<path class="st2" d="M814.6,64.5L825,54.1l10.4,10.4L825,74.9L814.6,64.5z"/>
<path class="st2" d="M1083.6,73.5l10.4-10.4l10.4,10.4L1094,83.9L1083.6,73.5z"/>
<path class="st2" d="M1352.6,63.5l10.4-10.4l10.4,10.4L1363,73.9L1352.6,63.5z"/>
<path class="st2" d="M1621.6,63.5l10.4-10.4l10.4,10.4L1632,73.9L1621.6,63.5z"/>
</svg>
