<?xml version="1.0" encoding="utf-8"?>
<!-- Generator: Adobe Illustrator 27.9.0, SVG Export Plug-In . SVG Version: 6.00 Build 0)  -->
<svg version="1.1" id="Layer_1" xmlns="http://www.w3.org/2000/svg" xmlns:xlink="http://www.w3.org/1999/xlink" x="0px" y="0px"
	 viewBox="0 0 1920 85" style="enable-background:new 0 0 1920 85;" xml:space="preserve">
<style type="text/css">
	.st0{fill:none;stroke:#F2E9E4;stroke-width:3;}
	.st1{clip-path:url(#SVGID_00000023249187852542981010000008789485803704071088_);fill:none;stroke:#F2E9E4;stroke-width:6;}
	.st2{fill:#F2E9E4;}
</style>
<g>
	<g>
		<path class="st0" d="M-1540,14.9h992.1h294.5c36,0,95-11.8,125-11.8c68,0,93,12,154.5,12c52.4,0,229,0,229,0h500.5c0,0,8.3,0,12,0
			c33.5,0,75.2-11.3,97-11.7c23.5-0.4,50,11.5,98.5,11.5c5.1,0,13,0,13,0h191c0,0,203.5,0,239.5,0s95-11.8,125-11.8
			c68,0,93,12,154.5,12s249-0.2,249-0.2H3460"/>
	</g>
</g>
<path class="st0" d="M-1540,30.8H-45.4h811c0,0,8.3,0,12,0c24.5,0,53.8-9.3,75.5-9.7c23.5-0.4,44,9.5,73.9,9.5c5.1,0,13,0,13,0
	l1002.1,0.2H3460"/>
<path class="st0" d="M-1540,47H-23.5H738c0,0,8.3,0,12,0c24.5,0,53.8,9.3,75.5,9.7c23.5,0.4,44-9.5,73.9-9.5c5.1,0,13,0,13,0H1930
	h1530"/>
<path class="st0" d="M3460,63.2H1931H937c0,0-7.9,0-13,0c-48.5,0-75,11.9-98.5,11.5C803.8,74.3,762,63,728.5,63
	c-3.7,0-576.5,0.2-576.5,0.2C116,63.2,57,75,27,75c-68,0-93-12-154.5-12S-357,63.2-357,63.2h-1183"/>
<g>
	<g>
		<defs>
			<path id="SVGID_1_" d="M825.5,86H0V0h825.5V86z"/>
		</defs>
		<clipPath id="SVGID_00000063613364226143848940000012796254022455212456_">
			<use xlink:href="#SVGID_1_"  style="overflow:visible;"/>
		</clipPath>
		
			<path style="clip-path:url(#SVGID_00000063613364226143848940000012796254022455212456_);fill:none;stroke:#F2E9E4;stroke-width:6;" d="
			M3460,63.2H1931H937c0,0-7.9,0-13,0c-48.5,0-75,11.9-98.5,11.5C803.8,74.3,762,63,728.5,63c-3.7,0-576.5,0.2-576.5,0.2
			C116,63.2,57,75,27,75c-68,0-93-12-154.5-12S-357,63.2-357,63.2h-1183"/>
	</g>
</g>
<path class="st2" d="M276.1,63.4L286.5,53l10.4,10.4l-10.4,10.4L276.1,63.4z"/>
<path class="st2" d="M545.6,63.5L556,53.1l10.4,10.4L556,73.9L545.6,63.5z"/>
<path class="st2" d="M814.6,74.5L825,64.1l10.4,10.4L825,84.9L814.6,74.5z"/>
<path class="st2" d="M1083.6,63.5l10.4-10.4l10.4,10.4L1094,73.9L1083.6,63.5z"/>
<path class="st2" d="M1352.6,63.5l10.4-10.4l10.4,10.4L1363,73.9L1352.6,63.5z"/>
<path class="st2" d="M1621.6,63.5l10.4-10.4l10.4,10.4L1632,73.9L1621.6,63.5z"/>
</svg>
