<?xml version="1.0" encoding="utf-8"?>
<!-- Generator: Adobe Illustrator 27.9.0, SVG Export Plug-In . SVG Version: 6.00 Build 0)  -->
<svg version="1.1" id="Layer_1" xmlns="http://www.w3.org/2000/svg" xmlns:xlink="http://www.w3.org/1999/xlink" x="0px" y="0px"
	 viewBox="0 0 1920 85" style="enable-background:new 0 0 1920 85;" xml:space="preserve">
<style type="text/css">
	.st0{fill:none;stroke:#F2E9E4;stroke-width:3;}
	.st1{clip-path:url(#SVGID_00000152250892658753057840000014371916828949671586_);fill:none;stroke:#F2E9E4;stroke-width:6;}
	.st2{fill:#F2E9E4;}
</style>
<g>
	<g>
		<path class="st0" d="M-1540,14.9h762.1h294.5c36,0,95-11.8,125-11.8c68,0,93,12,154.5,12c52.4,0,229,0,229,0h500.5c0,0,8.3,0,12,0
			c33.5,0,75.2-11.3,97-11.7c23.5-0.4,50,11.5,98.5,11.5c5.1,0,13,0,13,0h191c0,0,83.5,0,119.5,0s95-11.8,125-11.8
			c68,0,93,12,154.5,12s369-0.2,369-0.2H3460"/>
	</g>
</g>
<path class="st0" d="M-1540,30.8h1264.6h811c0,0,8.3,0,12,0c24.5,0,53.8-9.3,75.5-9.7c23.5-0.4,44,9.5,73.9,9.5c5.1,0,13,0,13,0
	l1002.1,0.2H3460"/>
<path class="st0" d="M-1540,47h1246.5H468c0,0,8.3,0,12,0c24.5,0,53.8,9.3,75.5,9.7c23.5,0.4,44-9.5,73.9-9.5c5.1,0,13,0,13,0H1660
	h1800"/>
<path class="st0" d="M3460,63.2H1661H667c0,0-7.9,0-13,0c-48.5,0-75,11.9-98.5,11.5C533.8,74.3,492,63,458.5,63
	c-3.7,0-576.5,0.2-576.5,0.2c-36,0-95,11.8-125,11.8c-68,0-93-12-154.5-12S-627,63.2-627,63.2h-913"/>
<g>
	<g>
		<defs>
			<path id="SVGID_1_" d="M556,86H0V0h556V86z"/>
		</defs>
		<clipPath id="SVGID_00000170240438228578429810000012587707654759347361_">
			<use xlink:href="#SVGID_1_"  style="overflow:visible;"/>
		</clipPath>
		
			<path style="clip-path:url(#SVGID_00000170240438228578429810000012587707654759347361_);fill:none;stroke:#F2E9E4;stroke-width:6;" d="
			M3190,63.2H1661H667c0,0-7.9,0-13,0c-48.5,0-75,11.9-98.5,11.5C533.8,74.3,492,63,458.5,63c-3.7,0-576.5,0.2-576.5,0.2
			c-36,0-95,11.8-125,11.8c-68,0-93-12-154.5-12S-627,63.2-627,63.2h-1183"/>
	</g>
</g>
<path class="st2" d="M276.1,63.4L286.5,53l10.4,10.4l-10.4,10.4L276.1,63.4z"/>
<path class="st2" d="M545.6,73.5L556,63.1l10.4,10.4L556,83.9L545.6,73.5z"/>
<path class="st2" d="M814.6,64.5L825,54.1l10.4,10.4L825,74.9L814.6,64.5z"/>
<path class="st2" d="M1083.6,63.5l10.4-10.4l10.4,10.4L1094,73.9L1083.6,63.5z"/>
<path class="st2" d="M1352.6,63.5l10.4-10.4l10.4,10.4L1363,73.9L1352.6,63.5z"/>
<path class="st2" d="M1621.6,63.5l10.4-10.4l10.4,10.4L1632,73.9L1621.6,63.5z"/>
</svg>
