<?xml version="1.0" encoding="utf-8"?>
<!-- Generator: Adobe Illustrator 27.9.0, SVG Export Plug-In . SVG Version: 6.00 Build 0)  -->
<svg version="1.1" id="Layer_1" xmlns="http://www.w3.org/2000/svg" xmlns:xlink="http://www.w3.org/1999/xlink" x="0px" y="0px"
	 viewBox="0 0 1920 86" style="enable-background:new 0 0 1920 86;" xml:space="preserve">
<style type="text/css">
	.st0{fill:none;stroke:#F2E9E4;stroke-width:3;}
	.st1{clip-path:url(#SVGID_00000009558215635509427810000007648282384261754261_);fill:none;stroke:#F2E9E4;stroke-width:6;}
	.st2{fill:#F2E9E4;}
</style>
<path class="st0" d="M-1540,14.8H157.5H682C718,14.8,777,3,807,3c68,0,93,12,154.5,12c52.4,0,229,0,229,0H1461c0,0,8.3,0,12,0
	c33.5,0,75.2-11.3,97-11.7c23.5-0.4,50,11.5,98.5,11.5c5.1,0,13,0,13,0h191c0,0,203.5,0,239.5,0S2207,3,2237,3c68,0,93,12,154.5,12
	s249-0.2,249-0.2H3460"/>
<path class="st0" d="M-1540,30.8H674.6h811c0,0,8.3,0,12,0c24.5,0,53.8-9.3,75.5-9.7c23.5-0.4,44,9.5,73.9,9.5c5.1,0,13,0,13,0
	l1002.1,0.2H3460"/>
<path class="st0" d="M-1540,47H782.2h761.5c0,0,8.3,0,12,0c24.5,0,53.8,9.3,75.5,9.7c23.5,0.4,44-9.5,73.9-9.5c5.1,0,13,0,13,0
	h1017.6H3460"/>
<path class="st0" d="M3460,63.2h-853.3h-863.2c0,0-7.9,0-13,0c-48.5,0-75,11.9-98.5,11.5c-21.7-0.3-63.5-11.7-97-11.7
	c-3.7,0-707.2,0.2-707.2,0.2c-36,0-95-0.2-125-0.2c-68,0-93,0-154.5,0c-61.6,0-229.6,0.2-229.6,0.2H-1540"/>
<g>
	<g>
		<g>
			<defs>
				<path id="SVGID_1_" d="M0,0h1632v86H0V0z"/>
			</defs>
			<clipPath id="SVGID_00000151527583232965747510000001726672244898581424_">
				<use xlink:href="#SVGID_1_"  style="overflow:visible;"/>
			</clipPath>
			
				<path style="clip-path:url(#SVGID_00000151527583232965747510000001726672244898581424_);fill:none;stroke:#F2E9E4;stroke-width:6;" d="
				M3725.7,63.2h-1119h-863.2c0,0-7.9,0-13,0c-48.5,0-75,11.9-98.5,11.5c-21.7-0.3-63.5-11.7-97-11.7c-3.7,0-707.2,0.2-707.2,0.2
				c-36,0-95-0.2-125-0.2c-68,0-93,0-154.5,0c-61.6,0-229.6,0.2-229.6,0.2h-1593"/>
		</g>
	</g>
</g>
<path class="st2" d="M276.1,63.5l10.4-10.4l10.4,10.4l-10.4,10.4L276.1,63.5z"/>
<path class="st2" d="M545.5,63.5l10.4-10.4l10.4,10.4l-10.4,10.4L545.5,63.5z"/>
<path class="st2" d="M814.5,64.5l10.4-10.4l10.4,10.4l-10.4,10.4L814.5,64.5z"/>
<path class="st2" d="M1083.5,63.5l10.4-10.4l10.4,10.4l-10.4,10.4L1083.5,63.5z"/>
<path class="st2" d="M1352.5,63.5l10.4-10.4l10.4,10.4l-10.4,10.4L1352.5,63.5z"/>
<path class="st2" d="M1621.5,73.5l10.4-10.4l10.4,10.4l-10.4,10.4L1621.5,73.5z"/>
</svg>
