<svg xmlns="http://www.w3.org/2000/svg" viewBox="0 0 243.56 316.73"><defs><style>.cls-1{opacity:0.1;}.cls-2{fill:#f2e9e4;}</style></defs><g id="Layer_1" data-name="Layer 1" class="cls-1"><path class="cls-2" d="M144.32,74.4c-9.38-9-19.31-7.71-19.31-7.71a5.14,5.14,0,0,1,2.57-.36c1.84.18,0-.89,1.47-.54,1.29.18,2,.18,1.66-.18-.37-.53,2.39.9,1.84,0-.37-.89,2.94,1.62,2,.54s.18-1.25.18-1.25,1.66,1.25,1.47.54.92-.72,1.29-.54,1.66.36,2.21.54.55-.18.92-.54,3.68,2,2.76,1.07c-1.66-2,.55-1.07.55-1.07s.55-.18-.55-.9.18-1.07-2.58-2-.18-.72-2.39-.9-1.1-.54-2.76-.71c-4,0-1.47-.72-2.76-.72-1.1,0-2.75.54-4.23.54a56.73,56.73,0,0,0-6.06.89A11.9,11.9,0,0,1,127,59.7c2.94-.54-.37-.72,2-.9s1.47-.54,3.31-.89c1.84-.18-.73-1.26.55-1.44,1.48-.18,3.5.72,3.31,0s2.95-.18,3.87-.36-.56-.89-.19-1.25,1.11-.18.74-.9,2.76-.36,2.76-.36-.37-.89-4.05-.89-.92-.54-2.57-.36-4.23.89-5.15.89a17.18,17.18,0,0,0-4.78,1.26c-1.84.72-1.66,0-1.66,0,.37-.54.37-.72.37-.9-.19-.36,1.1-.89,2.2-1.25s-2.39-.18,1.11-1.26c3.68-.89,0-.89,2.21-1.61s1.1-1.44,1.1-1.44a23.66,23.66,0,0,0,4-1.25c.92-.54-1.83-.36-1.28-.9s2.94-.89,2.39-1.07-2.21.18-4.78,0c-2.39-.18-3.13.89-4.42.71-1.28,0-2.2,1.44-2.94,1.44s-1.29,0-3.86,2c-2.39,2-1.84,0-1.84,0a48.15,48.15,0,0,1-4.23,4c-1.29.71,1.1-2.87,0-1.8a32.47,32.47,0,0,0-3.13,4.66l.92-2.15s1.11-2.51,1.47-3.05-1.28-.53-.36-1.79-.19-1.79,0-2.69c.18-.72-.74-.54-.37-1.61.37-.9.92-2-.37-1.08s-.18-1.43.18-3.4c.56-1.8-.55-1.08.19-2.69a8.51,8.51,0,0,0,.55-3c.18-.54-1.1-.9-.92-1.44s.55-2.51,0-1.79a6.79,6.79,0,0,1-2,1.43c-.55.18-1.47,2.34-1.84,2.69-.37.18-1.1,1.44-1.47,1.8s-.92,2-1.66,3c-.73.71-.73,3.22-.73,4.48s-.74,1.25-1.11,2.69c-.36,1.25.56,6.27.56,6.27-1.66-4.3-3.87-7-4.05-5.91s-1.29-.54-2.57-1.62c-1.29-1.25-1.66,0-3.87-1.79-2.2-2-1.84.18-4-1.26-2-1.61-1.11.18-4.23-1.25s-1.11.9-3.13.36-6.07-.36-4,0c4.41,1.25,1.28,1.61,2.94,2.15a21,21,0,0,1,3.12,1.61c.56.18.56.72,1.29.9.55.18,1.66.72,3.13,1.43s-1.11,1.8,2.57,3.23c3.5,1.26,2.21,2,5.89,3.95,3.86,2,4.41,3.76,4.41,3.76-1.47-1.07-2.94-1.79-4-2.51-2-1.43-3-1.07-6.44-2.69-3.5-1.43-3.13-.18-5.52-.72-2.57-.53-1.47.72-2.2.72s-3.5,1.08-5,1.26c-1.66.18-5.33,1.43-4.78,1.61.55,0,.55.36.18,1.26s.55.71.55.71l2-.54c2-.53.36.72,2.39.18s.37.72,1.84.54c2.39-.36-.92,1.26,0,.9,3.86-1.08,4-.54,4.59-.36.37.18,1.29.36,1.66.54s2.21.89,2.21.89c-2-.18-3.5-.35-4-.35a17.72,17.72,0,0,0-3.31.71c-1.1,0-3.31,1.8-5.52,2.33-2.2.72-1.84,1.44-2.39,1.8-2.2,1.25-6.43,4.48-4.41,3.76,2.21-.9.92,1.26,1.65.9,3.13-2,3.31-.54,3.31-.54a7.36,7.36,0,0,0,2.76-1.08c2-1.07,1.29.36,1.84.36s.92-.71,2.58-1.79,1.28.18,1.84,0a22.28,22.28,0,0,1,3.49,0,44,44,0,0,0-12.32,5.92c-1.47,1.25-5.15,5.38-3.68,4.84s1.65-1.62,2.57-2.15c.92-.72,1.84,0,2.76-.72.74-.72.74.18,1.29,0s.74.18,1.84-.72c1.1-.72,1.29.36,2,0,2.21-1.43,2.58-.54,3.68-1.43s1.47.89,1.84.36a3.14,3.14,0,0,1,1.84-.54c.73,0,1.47-.72,2.2-1.08.74-.54,2,0,2,0-5.7,2.51-10.85,8.25-12.14,10.94-1.47,3-3.13,6.81-2,6.28s1.84-3,3.12-3.95c1.11-.9,1.66.9,3.5-2.87,1.84-3.94,2.39-1.25,4-3.23s1.84-1.25,2.95-2.15A5.71,5.71,0,0,1,96,75.3c-.37.18-.55.53-.92.71l-.73,1.26L92.46,78.7,91.72,80a11.64,11.64,0,0,0-3.31,3.41c-.37.71.18.53-.73,2.33-.37,1.07,0,1.25-1.29,2.87-.37.53-1.84,3.76-1.29,5,0,1.43-.18,3.4-.18,4.3s1.28-2,2-2.51,1.1,0,1.84-1.79,1.29-.54,2.21-2.16c.91-1.43,1.83-.89,2.57-2s1.29-3.41,2-1.43c.19.71,1.84-1.8,2.21-3,0,0,.18-3.23,1.84-2.87-.92.36-.92,1.61-.92,1.61s-.55,1.08,0,1.44a2.12,2.12,0,0,0,0,2.33s-2,2.15-2,3.41c0,.53.92-.54.55.35s.55.36,0,1.62c-.19.54,1.1-.9.55.72s.55.18.37,2.15a1.82,1.82,0,0,0,.37,1.61s.91-2.87,1.1-2.15c.37.72.55-1.79.73-.36.37,1.44.56-2,.56-2s.36-.9.55.18.55-2.15.73-1.44c.37.72,1.11-1.25,1.11-2a2.55,2.55,0,0,0,.73-.54,3.48,3.48,0,0,0,1.29-.36,16.83,16.83,0,0,0-1.1,3.77c0,.54.36.18,0,1.79,0,.54.55-.53.55.9s.55,1.61.55,1.61l.37-.71s.36-1.62.55-1.08c0,.54.92-1.79.92-1.79,0,.18.18.36.37.71s-.56.54.18,1.8c.18.54-.74.36-.18,2,.18.54-.74.54.18,2.69.37.72-1.29-.36.18,2.51.19.36-1.1,0,.19,2.51.18.54-1.11.72-.37,2.15.18.36.37.54,0,.9s-.55.89,0,2c.37.72-.74.18,0,2.15.37.9-.55.9,0,2s-.18,1.44,0,2.51c.37.9-.74.72.37,2.87.37.9-.92-.18-.19,2,0,.35-.92.35-.18,2.15.18.36-.37.53,0,1.61.18.54-.37.9,0,2,.18.72-.37.9-.18,2a10.71,10.71,0,0,1,.18,1.44s-.55.18-.18,1.25c.36.9-.37.54,0,1.8,0,.53-.37.18-.37,1.25-.19.36-.92.18,0,1.62,1.29.53,5.52.17,6.43-.18.37-.9,0-1.08-.18-.9s-.18-1.79,0-2.15-.73.18-.18-2.15c.18-.72-.55-.72-.19-1.8.37-1.25-.55-1.79-.18-3.22.55-1.8-.74-.18-.37-1.26s-.18-1.61,0-2-.18-.72.19-1.61-.74-1.08-.19-2.33c.55-1.08-.55-1.62-.18-2.51.73-1.8-.37-.72.18-1.8.55-1.25-.18-1.61,0-2.15.19-.72.37-1.08.19-1.43.36-.9-.56-.72-.19-1.8.37-.89-.73-1.07-.18-2s.18-1.07.18-1.43-.55.18,0-1.26-.18-.54,0-1.61a10.55,10.55,0,0,0,.19-1.62s-.56-.18-.19-.89-.92-.36-.37-1.44c.56-.89.37-.89.37-1.25-.18-.36-.37-.54,0-1.44s-.73,0-.37-1.25.19-.9.19-.9-.55,0-.19-1.07.19-.9.19-.9a.83.83,0,0,1-.55-1.08v-.53s.55,0,.55.71a1,1,0,0,0,.73,1.08,3.33,3.33,0,0,1,.74,1.61c.18.54.55-1.07,1.1.36.55,1.26.37-1.25.37-1.25a1.46,1.46,0,0,0,0-1.62c-.55-.89.74.18.18-1.25l-.55-1.44a.8.8,0,0,0,.55-.18,1.9,1.9,0,0,0,1.66-.53c.18,0,.37-.18.55-.18-.18,1.07.18.89.37,1.07,0,.18.55.72.55.72s.18,2.69.37,1.79c.37-.89.73,1.08.73,1.08A6.7,6.7,0,0,1,120,90.9c.37-.9.55,4.3.55,3,.19-1.25.19-1.25.37-.53s.55,1.43.74,1.07.55.36.55.36a6.64,6.64,0,0,0-.19-2.51c-.36-1.43.56-.18.56-.72s.36-.18.36-.36a8.93,8.93,0,0,0-.73-2c-.19-.18-.19-.54-.37-2V86.23c.92,0,.18.9.55,2.16.37,1.43.74.71.74.71s0,2.51.73,1.44.19,2,.74,1.79.55,1.08.73.54c.19-.72.74.18.74.18s.37-1.08.55.18,1.29,3.4,1.29,3a4.24,4.24,0,0,0,0-2.16c-.18-1.07.55-.35.37-1.25-.19-1.08.73,0,.36-1.62-.55-1.61,1.29.9.56-1.07s.73,0,.36-.72a20.36,20.36,0,0,0-.92-2.69c-.73-1.43.92,0,.92,0a24.73,24.73,0,0,0-.92-2.33c-.36-.72-.92-2.15-.92-2.15A4.09,4.09,0,0,0,126.29,80a2,2,0,0,1,1.29.54c.55.53,2.21,2.69,1.84,1.79a2,2,0,0,1,.37-1.79s2.2,3,2.2,2.33c0-.54.74,0,.74,0s-.18-1.44.18-1.26,1.11.9,1.29.36,1.29,1.79,1.29,1.26,1.84,1.25,1.84.35,2.2,2,2.2.9,2.21,2,2,.9c-.92-2.33,0-2.33-.74-3-1.65-1.61,0-.9-.37-1.61s-1.28-1.62-3.49-2.87a44,44,0,0,0-9-4.67c1.47.36,5,1.26,5.88,2,1.11.71,2.21,1.43,2,.36-.19-.9,1.28,1.07,1.1.18-.37-.9,2,1.07,1.84,0s3.49,1.61,3.13.89C142.29,73.68,146.15,76,144.32,74.4Z"/><path class="cls-2" d="M88.12,224.12c-9.37-9-19.3-7.71-19.3-7.71a5.14,5.14,0,0,1,2.57-.36c1.84.18,0-.9,1.47-.54,1.29.18,2,.18,1.66-.18-.37-.54,2.39.9,1.84,0-.37-.9,2.94,1.61,2,.54s.18-1.26.18-1.26,1.66,1.26,1.47.54.92-.72,1.29-.54,1.66.36,2.21.54.55-.18.92-.54,3.67,2,2.76,1.08c-1.66-2,.55-1.08.55-1.08s.55-.18-.55-.89.18-1.08-2.58-2-.18-.71-2.39-.89-1.1-.54-2.76-.72c-4,0-1.47-.72-2.76-.72-1.1,0-2.76.54-4.23.54a56.42,56.42,0,0,0-6.07.9,11.87,11.87,0,0,1,4.42-1.44c2.94-.53-.37-.71,2-.89s1.47-.54,3.31-.9c1.84-.18-.73-1.25.55-1.43,1.47-.18,3.5.71,3.31,0s3-.18,3.86-.36-.55-.9-.18-1.26,1.1-.18.74-.89,2.76-.36,2.76-.36-.37-.9-4-.9-.92-.54-2.58-.36-4.22.9-5.14.9a17.58,17.58,0,0,0-4.79,1.25c-1.83.72-1.65,0-1.65,0,.37-.53.37-.71.37-.89-.19-.36,1.1-.9,2.2-1.26s-2.39-.18,1.11-1.25c3.68-.9,0-.9,2.2-1.62S76,197.76,76,197.76a23.92,23.92,0,0,0,4-1.26c.92-.53-1.84-.35-1.28-.89s2.94-.9,2.39-1.08-2.21.18-4.78,0c-2.4-.18-3.13.9-4.42.72-1.29,0-2.21,1.43-2.94,1.43s-1.29,0-3.86,2c-2.39,2-1.84,0-1.84,0a48.46,48.46,0,0,1-4.23,3.94c-1.29.72,1.1-2.87,0-1.79a31.91,31.91,0,0,0-3.13,4.66l.92-2.15s1.11-2.51,1.47-3-1.28-.54-.36-1.79-.19-1.8,0-2.69c.18-.72-.74-.54-.37-1.62.37-.89.92-2-.37-1.07s-.18-1.44.18-3.41c.56-1.79-.55-1.08.19-2.69s.37-2.51.55-3.05-1.1-.89-.92-1.43.55-2.51,0-1.8a7,7,0,0,1-2,1.44c-.55.18-1.47,2.33-1.84,2.69-.37.18-1.11,1.43-1.47,1.79s-.92,2-1.66,3.05c-.73.72-.73,3.23-.73,4.48s-.74,1.26-1.11,2.69c-.37,1.26.55,6.28.55,6.28-1.65-4.31-3.86-7-4-5.92s-1.29-.54-2.58-1.61c-1.28-1.26-1.65,0-3.86-1.8-2.2-2-1.84.18-4-1.25-2-1.61-1.11.18-4.23-1.26s-1.11.9-3.13.36-6.07-.36-4.05,0c4.42,1.26,1.29,1.62,2.95,2.15a20.72,20.72,0,0,1,3.12,1.62c.56.18.56.72,1.29.89.55.18,1.66.72,3.13,1.44s-1.11,1.79,2.57,3.23c3.5,1.25,2.21,2,5.89,3.94,3.86,2,4.41,3.77,4.41,3.77-1.47-1.08-2.94-1.8-4.05-2.51-2-1.44-2.94-1.08-6.43-2.69-3.5-1.44-3.13-.18-5.52-.72-2.57-.54-1.47.72-2.21.72s-3.49,1.07-5,1.25c-1.66.18-5.33,1.44-4.78,1.62.55,0,.55.35.18,1.25s.55.72.55.72l2-.54c2-.54.36.72,2.39.18s.36.72,1.84.54c2.39-.36-.92,1.25,0,.89,3.86-1.07,4-.53,4.59-.35.37.17,1.29.35,1.66.53s2.2.9,2.2.9c-2-.18-3.49-.36-4-.36a17.71,17.71,0,0,0-3.31.72c-1.1,0-3.31,1.79-5.52,2.33-2.21.72-1.84,1.43-2.39,1.79-2.21,1.26-6.44,4.48-4.41,3.77,2.2-.9.92,1.25,1.65.89,3.13-2,3.31-.53,3.31-.53A7.36,7.36,0,0,0,21.92,218c2-1.08,1.29.36,1.84.36s.92-.72,2.57-1.79,1.29.18,1.84,0a22.39,22.39,0,0,1,3.5,0,44.19,44.19,0,0,0-12.32,5.91c-1.47,1.26-5.15,5.38-3.68,4.84s1.65-1.61,2.57-2.15c.92-.72,1.84,0,2.76-.72.74-.71.74.18,1.29,0s.73.18,1.84-.71c1.1-.72,1.29.36,2,0,2.21-1.44,2.58-.54,3.68-1.44s1.47.9,1.84.36a3.14,3.14,0,0,1,1.84-.54c.73,0,1.47-.71,2.2-1.07.74-.54,2,0,2,0C32,223.58,26.89,229.32,25.6,232c-1.47,3-3.13,6.81-2,6.27s1.84-3.05,3.12-3.94c1.11-.9,1.66.89,3.5-2.87,1.84-3.95,2.39-1.26,4-3.23s1.84-1.26,2.94-2.15A5.71,5.71,0,0,1,39.76,225c-.37.18-.55.54-.92.72L38.1,227l-1.83,1.44-.74,1.25a11.78,11.78,0,0,0-3.31,3.41c-.37.72.18.54-.74,2.33-.36,1.08,0,1.26-1.28,2.87-.37.54-1.84,3.77-1.29,5,0,1.43-.18,3.41-.18,4.3s1.28-2,2-2.51,1.1,0,1.84-1.79,1.28-.54,2.2-2.15c.92-1.44,1.84-.9,2.58-2s1.29-3.41,2-1.44c.19.72,1.84-1.79,2.21-3.05,0,0,.18-3.22,1.84-2.86-.92.35-.92,1.61-.92,1.61s-.55,1.08,0,1.43a2.12,2.12,0,0,0,0,2.33s-2,2.16-2,3.41c0,.54.91-.54.55.36s.55.36,0,1.61c-.19.54,1.1-.89.55.72s.55.18.37,2.15a1.85,1.85,0,0,0,.36,1.62s.92-2.87,1.11-2.16c.37.72.55-1.79.73-.35.37,1.43.55-2,.55-2s.37-.89.56.18.55-2.15.73-1.43c.37.72,1.11-1.26,1.11-2a2.55,2.55,0,0,0,.73-.54,3.48,3.48,0,0,0,1.29-.36A17,17,0,0,0,48,242.22c0,.54.37.18,0,1.8,0,.54.56-.54.56.89s.55,1.62.55,1.62l.37-.72s.36-1.61.55-1.08c0,.54.92-1.79.92-1.79,0,.18.18.36.36.72s-.55.54.19,1.79c.18.54-.74.36-.19,2,.19.54-.73.54.19,2.69.37.72-1.29-.35.18,2.51.19.36-1.1,0,.19,2.51.18.54-1.11.72-.37,2.16.18.36.37.53,0,.89s-.55.9,0,2c.37.71-.74.17,0,2.15.37.89-.55.89,0,2s-.18,1.43,0,2.51c.37.9-.74.72.37,2.87.36.9-.92-.18-.19,2,0,.36-.92.36-.18,2.15.18.36-.37.54,0,1.62.18.53-.37.89,0,2,.18.72-.37.9-.19,2a10.17,10.17,0,0,1,.19,1.44S51,281,51.34,282c.37.9-.36.54,0,1.79,0,.54-.36.18-.36,1.26-.19.36-.92.18,0,1.61,1.28.54,5.51.18,6.43-.18.37-.89,0-1.07-.18-.89s-.18-1.8,0-2.16-.74.18-.18-2.15c.18-.71-.56-.71-.19-1.79.37-1.25-.55-1.79-.18-3.23.55-1.79-.74-.18-.37-1.25s-.18-1.62,0-2-.18-.72.18-1.62-.73-1.07-.18-2.33c.55-1.08-.55-1.61-.18-2.51.73-1.79-.37-.72.18-1.79.55-1.26-.18-1.62,0-2.15.18-.72.37-1.08.18-1.44.37-.9-.55-.72-.18-1.79.37-.9-.74-1.08-.18-2s.18-1.08.18-1.44-.55.18,0-1.25-.18-.54,0-1.62a10.93,10.93,0,0,0,.18-1.61s-.55-.18-.18-.9-.92-.36-.37-1.43c.55-.9.37-.9.37-1.26-.18-.36-.37-.54,0-1.43s-.74,0-.37-1.26.19-.89.19-.89-.56,0-.19-1.08.19-.9.19-.9a.84.84,0,0,1-.56-1.07v-.54s.56,0,.56.72a1,1,0,0,0,.73,1.07,3.33,3.33,0,0,1,.74,1.62c.18.53.55-1.08,1.1.36.55,1.25.37-1.26.37-1.26a1.44,1.44,0,0,0,0-1.61c-.55-.9.73.18.18-1.26L58.7,239a.8.8,0,0,0,.55-.18,1.89,1.89,0,0,0,1.66-.54c.18,0,.37-.18.55-.18-.18,1.08.18.9.37,1.08,0,.18.55.71.55.71s.18,2.69.37,1.8c.36-.9.73,1.07.73,1.07a6.73,6.73,0,0,1,.37-2.15c.37-.9.55,4.3.55,3,.19-1.26.19-1.26.37-.54s.55,1.44.74,1.08.55.36.55.36a6.64,6.64,0,0,0-.19-2.51c-.36-1.44.55-.18.55-.72s.37-.18.37-.36a8.74,8.74,0,0,0-.73-2c-.19-.18-.19-.54-.37-2V236c.92,0,.18.9.55,2.15.37,1.44.74.72.74.72s0,2.51.73,1.43.19,2,.74,1.8.55,1.07.73.53c.19-.71.74.18.74.18s.37-1.07.55.18,1.29,3.41,1.29,3.05a4.21,4.21,0,0,0,0-2.15c-.19-1.08.55-.36.37-1.26-.19-1.07.73,0,.36-1.61-.55-1.61,1.29.9.55-1.08s.74,0,.37-.71a21.44,21.44,0,0,0-.92-2.69c-.73-1.44.92,0,.92,0a23.68,23.68,0,0,0-.92-2.33c-.36-.72-.92-2.15-.92-2.15a4.13,4.13,0,0,0-1.47-2.34,2,2,0,0,1,1.29.54c.55.54,2.21,2.69,1.84,1.8a2,2,0,0,1,.37-1.8s2.2,3,2.2,2.33c0-.53.74,0,.74,0s-.18-1.43.18-1.25,1.11.89,1.29.36,1.29,1.79,1.29,1.25,1.84,1.26,1.84.36,2.2,2,2.2.9,2.21,2,2,.89c-.92-2.33,0-2.33-.74-3-1.65-1.62,0-.9-.37-1.62s-1.28-1.61-3.49-2.87a43.93,43.93,0,0,0-9-4.66c1.47.36,5,1.26,5.88,2,1.11.72,2.21,1.44,2,.36-.19-.89,1.28,1.08,1.1.18-.37-.9,2,1.08,1.84,0s3.49,1.61,3.12.9C86.1,223.4,90,225.73,88.12,224.12Z"/><path class="cls-2" d="M219.27,188.79c-9.38-9-19.31-7.71-19.31-7.71a5.2,5.2,0,0,1,2.57-.35c1.84.17,0-.9,1.48-.54,1.28.18,2,.18,1.65-.18-.37-.54,2.39.89,1.84,0-.37-.9,2.94,1.61,2,.54s.19-1.26.19-1.26,1.65,1.26,1.47.54.92-.72,1.29-.54,1.65.36,2.2.54.55-.18.92-.54,3.68,2,2.76,1.08c-1.66-2,.55-1.08.55-1.08s.55-.18-.55-.9.18-1.07-2.58-2-.18-.71-2.39-.89-1.1-.54-2.75-.72c-4,0-1.48-.72-2.76-.72-1.11,0-2.76.54-4.23.54a56.42,56.42,0,0,0-6.07.9,11.86,11.86,0,0,1,4.41-1.44c3-.54-.36-.72,2-.89s1.47-.54,3.31-.9c1.83-.18-.74-1.26.55-1.44,1.47-.17,3.49.72,3.31,0s2.94-.17,3.86-.35-.55-.9-.18-1.26,1.1-.18.73-.9,2.76-.35,2.76-.35-.37-.9-4-.9-.92-.54-2.57-.36-4.23.9-5.15.9a17.53,17.53,0,0,0-4.78,1.25c-1.84.72-1.66,0-1.66,0,.37-.54.37-.71.37-.89-.18-.36,1.11-.9,2.21-1.26s-2.39-.18,1.1-1.25c3.68-.9,0-.9,2.21-1.62s1.1-1.43,1.1-1.43a24,24,0,0,0,4.05-1.26c.92-.54-1.84-.36-1.29-.89s2.94-.9,2.39-1.08-2.21.18-4.78,0c-2.39-.18-3.13.9-4.41.72-1.29,0-2.21,1.43-3,1.43s-1.28,0-3.86,2c-2.39,2-1.84,0-1.84,0a48.15,48.15,0,0,1-4.23,3.95c-1.28.72,1.11-2.87,0-1.79a31.63,31.63,0,0,0-3.12,4.66L188,168s1.1-2.51,1.47-3.05-1.29-.54-.37-1.79-.18-1.8,0-2.69c.18-.72-.74-.54-.37-1.62.37-.89.92-2-.37-1.07s-.18-1.44.19-3.41c.55-1.79-.55-1.08.18-2.69s.37-2.51.55-3.05-1.1-.9-.92-1.43.56-2.51,0-1.8a7,7,0,0,1-2,1.44c-.55.18-1.47,2.33-1.84,2.69-.37.18-1.1,1.43-1.47,1.79s-.92,2-1.65,3.05c-.74.72-.74,3.23-.74,4.48s-.73,1.26-1.1,2.69c-.37,1.26.55,6.28.55,6.28-1.66-4.31-3.86-7-4-5.92s-1.28-.54-2.57-1.61c-1.29-1.26-1.66,0-3.86-1.8-2.21-2-1.84.18-4.05-1.25-2-1.62-1.1.18-4.23-1.26s-1.1.9-3.12.36-6.07-.36-4.05,0c4.41,1.26,1.29,1.62,2.94,2.15a20.47,20.47,0,0,1,3.13,1.62c.55.18.55.71,1.29.89.55.18,1.65.72,3.12,1.44s-1.1,1.79,2.58,3.23c3.49,1.25,2.2,2,5.88,3.94,3.86,2,4.41,3.76,4.41,3.76-1.47-1.07-2.94-1.79-4-2.51-2-1.43-2.94-1.07-6.44-2.68-3.49-1.44-3.12-.18-5.51-.72-2.58-.54-1.48.72-2.21.72s-3.5,1.07-5,1.25c-1.65.18-5.33,1.43-4.78,1.61.55,0,.55.36.19,1.26s.55.72.55.72l2-.54c2-.54.37.72,2.39.18s.37.71,1.84.54c2.39-.36-.92,1.25,0,.89,3.86-1.07,4.05-.54,4.6-.36.37.18,1.28.36,1.65.54s2.21.9,2.21.9c-2-.18-3.49-.36-4.05-.36a18.07,18.07,0,0,0-3.31.72c-1.1,0-3.31,1.79-5.51,2.33-2.21.71-1.84,1.43-2.39,1.79-2.21,1.25-6.44,4.48-4.42,3.76,2.21-.89.92,1.26,1.66.9,3.12-2,3.31-.54,3.31-.54a7.48,7.48,0,0,0,2.76-1.07c2-1.08,1.28.36,1.84.36s.91-.72,2.57-1.8,1.29.18,1.84,0a22.28,22.28,0,0,1,3.49,0,44.44,44.44,0,0,0-12.32,5.92c-1.47,1.25-5.15,5.38-3.68,4.84s1.66-1.61,2.58-2.15c.92-.72,1.84,0,2.76-.72.73-.72.73.18,1.28,0s.74.18,1.84-.72c1.11-.71,1.29.36,2,0,2.2-1.43,2.57-.53,3.67-1.43s1.47.9,1.84.36a3.17,3.17,0,0,1,1.84-.54c.74,0,1.47-.72,2.21-1.07.73-.54,2,0,2,0-5.7,2.51-10.85,8.24-12.14,10.93-1.47,3-3.12,6.82-2,6.28s1.84-3.05,3.13-4c1.1-.89,1.65.9,3.49-2.86,1.84-4,2.39-1.26,4-3.23s1.84-1.26,2.94-2.15a5.65,5.65,0,0,1,2.57-1.08c-.36.18-.55.54-.92.72l-.73,1.25-1.84,1.44-.74,1.25a11.78,11.78,0,0,0-3.31,3.41c-.36.72.19.54-.73,2.33-.37,1.08,0,1.26-1.29,2.87-.37.54-1.84,3.76-1.29,5,0,1.43-.18,3.41-.18,4.3s1.29-2,2-2.51,1.11,0,1.84-1.79,1.29-.54,2.21-2.15c.92-1.44,1.84-.9,2.57-2s1.29-3.41,2-1.44c.18.72,1.84-1.79,2.2-3,0,0,.19-3.22,1.84-2.87-.92.36-.92,1.62-.92,1.62s-.55,1.07,0,1.43a2.12,2.12,0,0,0,0,2.33s-2,2.15-2,3.41c0,.54.92-.54.55.36s.55.36,0,1.61c-.18.54,1.1-.89.55.72s.55.18.37,2.15a1.84,1.84,0,0,0,.37,1.61s.92-2.86,1.1-2.15c.37.72.55-1.79.74-.36.37,1.44.55-2,.55-2s.37-.89.55.18.55-2.15.74-1.43c.36.71,1.1-1.26,1.1-2a2.43,2.43,0,0,0,.74-.53,3.43,3.43,0,0,0,1.28-.36,16.67,16.67,0,0,0-1.1,3.76c0,.54.37.18,0,1.8,0,.53.55-.54.55.89s.55,1.62.55,1.62l.37-.72s.37-1.61.55-1.08c0,.54.92-1.79.92-1.79,0,.18.19.36.37.72s-.55.54.18,1.79c.19.54-.73.36-.18,2,.18.54-.74.54.18,2.69.37.72-1.28-.36.19,2.51.18.36-1.11,0,.18,2.51.19.54-1.1.72-.37,2.16.19.35.37.53,0,.89s-.55.9,0,2c.37.72-.73.18,0,2.16.37.89-.55.89,0,2s-.18,1.43,0,2.51c.37.89-.73.72.37,2.87.37.89-.92-.18-.18,2,0,.36-.92.36-.19,2.15.19.36-.36.54,0,1.61.19.54-.36.9,0,2,.19.71-.36.89-.18,2a10.52,10.52,0,0,1,.18,1.43s-.55.18-.18,1.26c.37.89-.37.54,0,1.79,0,.54-.37.18-.37,1.26-.18.35-.92.17,0,1.61,1.29.54,5.52.18,6.44-.18.37-.9,0-1.08-.19-.9s-.18-1.79,0-2.15-.73.18-.18-2.15c.18-.72-.55-.72-.18-1.79.36-1.26-.55-1.8-.19-3.23.55-1.79-.73-.18-.36-1.25s-.19-1.62,0-2-.19-.71.18-1.61-.74-1.08-.18-2.33c.55-1.08-.56-1.61-.19-2.51.74-1.79-.37-.72.19-1.79.55-1.26-.19-1.62,0-2.16.18-.71.36-1.07.18-1.43.37-.9-.55-.72-.18-1.79.36-.9-.74-1.08-.19-2s.19-1.07.19-1.43-.56.18,0-1.25-.19-.54,0-1.62a10.93,10.93,0,0,0,.18-1.61s-.55-.18-.18-.9-.92-.36-.37-1.43c.55-.9.37-.9.37-1.26-.19-.36-.37-.54,0-1.43s-.74,0-.37-1.26.18-.89.18-.89-.55,0-.18-1.08.18-.9.18-.9a.83.83,0,0,1-.55-1.07v-.54s.55,0,.55.72a1,1,0,0,0,.74,1.07,3.35,3.35,0,0,1,.73,1.62c.19.53.55-1.08,1.11.35.55,1.26.36-1.25.36-1.25a1.42,1.42,0,0,0,0-1.61c-.55-.9.74.18.19-1.26l-.55-1.43a.83.83,0,0,0,.55-.18,1.87,1.87,0,0,0,1.65-.54c.19,0,.37-.18.55-.18-.18,1.08.19.9.37,1.08,0,.17.55.71.55.71s.19,2.69.37,1.8c.37-.9.74,1.07.74,1.07a6.91,6.91,0,0,1,.36-2.15c.37-.9.56,4.3.56,3.05.18-1.26.18-1.26.36-.54s.56,1.43.74,1.08.55.35.55.35a6.5,6.5,0,0,0-.18-2.51c-.37-1.43.55-.17.55-.71s.37-.18.37-.36a8.33,8.33,0,0,0-.74-2c-.18-.18-.18-.54-.37-2v-1.07c.92,0,.19.89.56,2.15.36,1.43.73.72.73.72s0,2.51.74,1.43.18,2,.73,1.79.55,1.08.74.54c.18-.71.73.18.73.18s.37-1.07.56.18,1.28,3.41,1.28,3a4,4,0,0,0,0-2.15c-.18-1.08.55-.36.37-1.26-.18-1.07.74,0,.37-1.61-.55-1.62,1.29.9.55-1.08s.74,0,.37-.71a23.27,23.27,0,0,0-.92-2.69c-.74-1.44.92,0,.92,0a24.56,24.56,0,0,0-.92-2.34c-.37-.71-.92-2.15-.92-2.15a4.19,4.19,0,0,0-1.47-2.33,2,2,0,0,1,1.28.54c.56.54,2.21,2.69,1.84,1.79a2,2,0,0,1,.37-1.79s2.21,3.05,2.21,2.33c0-.54.73,0,.73,0s-.18-1.43.19-1.25,1.1.89,1.28.35,1.29,1.8,1.29,1.26,1.84,1.25,1.84.36,2.21,2,2.21.89,2.2,2,2,.9c-.92-2.33,0-2.33-.74-3-1.65-1.61,0-.89-.36-1.61s-1.29-1.61-3.5-2.87a43.19,43.19,0,0,0-9-4.66c1.47.36,5,1.25,5.89,2,1.1.72,2.2,1.44,2,.36-.18-.9,1.29,1.08,1.1.18-.36-.9,2,1.07,1.84,0s3.5,1.61,3.13.9C217.25,188.08,221.11,190.41,219.27,188.79Z"/></g></svg>