<svg width="22" height="23" viewBox="0 0 22 23" fill="none" xmlns="http://www.w3.org/2000/svg">
<g id="Anghami">
<path id="Anghami_2" d="M4.43188e-06 11.4923C4.43188e-06 8.57697 1.15893 5.78103 3.22183 3.71957C5.28473 1.65812 8.08262 0.5 11 0.5C13.9174 0.5 16.7153 1.65812 18.7782 3.71957C20.8411 5.78103 22 8.57697 22 11.4923V21.4911L20.6817 21.2474V11.4923C20.6781 9.45069 20.0281 7.46254 18.825 5.8125C17.6218 4.16246 15.927 2.93512 13.9833 2.30617C12.0396 1.67723 9.94662 1.67892 8.00395 2.31102C6.06127 2.94312 4.36853 4.17322 3.16803 5.82521C1.96753 7.4772 1.32082 9.4664 1.3205 11.508C1.32018 13.5497 1.96626 15.5391 3.16624 17.1914C4.36622 18.8438 6.05857 20.0744 8.00105 20.7071C9.94353 21.3399 12.0365 21.3422 13.9804 20.7139L16.283 21.153C14.6063 22.0687 12.7198 22.5323 10.8093 22.4983C8.89879 22.4642 7.03007 21.9337 5.38703 20.9589C3.74398 19.984 2.38323 18.5985 1.43867 16.9387C0.494108 15.2788 -0.00171016 13.4018 4.43188e-06 11.4923ZM18.6757 20.8742V11.4923C18.6761 9.84123 18.1442 8.23394 17.159 6.90849C16.1738 5.58305 14.7876 4.60995 13.2057 4.13332C11.6238 3.65668 9.93029 3.70186 8.3761 4.26217C6.8219 4.82247 5.48961 5.8681 4.57656 7.24418C3.66352 8.62027 3.21827 10.2536 3.30676 11.9023C3.39524 13.5511 4.01277 15.1275 5.06787 16.3981C6.12297 17.6687 7.55953 18.5659 9.16478 18.9569C10.77 19.3478 12.4586 19.2117 13.9804 18.5688V19.9718C12.1796 20.604 10.2242 20.6474 8.39705 20.0957C6.56991 19.5439 4.96575 18.4257 3.81662 16.9027C2.66748 15.3797 2.03294 13.5309 2.00478 11.6237C1.97661 9.71652 2.55629 7.84981 3.65995 6.29359C4.76361 4.73737 6.33404 3.57233 8.1441 2.96697C9.95415 2.36161 11.91 2.34733 13.7287 2.92619C15.5474 3.50504 17.1347 4.64701 18.261 6.18694C19.3874 7.72687 19.9943 9.58492 19.994 11.4923V21.1179L18.6757 20.8742ZM16.6983 20.4943V11.4923C16.6973 10.2376 16.2797 9.01859 15.511 8.02643C14.7423 7.03428 13.666 6.325 12.4506 6.00975C11.2352 5.69449 9.94956 5.79107 8.79502 6.28436C7.64048 6.77765 6.68234 7.63976 6.07073 8.73561C5.45912 9.83145 5.2286 11.0991 5.41531 12.3399C5.60202 13.5807 6.19539 14.7246 7.10245 15.5922C8.00951 16.4599 9.179 17.0023 10.4277 17.1345C11.6763 17.2667 12.9336 16.9811 14.0024 16.3227V17.8091C12.6325 18.459 11.0884 18.6467 9.60257 18.3438C8.11672 18.041 6.76952 17.264 5.76376 16.1299C4.75801 14.9957 4.14814 13.5658 4.02595 12.0554C3.90376 10.5449 4.27587 9.03565 5.08626 7.7548C5.89665 6.47396 7.10146 5.49083 8.51934 4.95341C9.93721 4.41598 11.4914 4.35336 12.948 4.77495C14.4046 5.19655 15.6847 6.07955 16.5956 7.29104C17.5066 8.50253 17.9991 9.97693 17.999 11.4923V20.7468L16.6983 20.4943ZM14.6967 20.1233V11.4923C14.6963 10.6161 14.3828 9.76885 13.8127 9.10311C13.2426 8.43737 12.4534 7.9969 11.5872 7.86102C10.721 7.72514 9.8347 7.90277 9.08791 8.36193C8.34113 8.8211 7.78294 9.53162 7.51385 10.3655C7.24477 11.1995 7.28247 12.102 7.62018 12.9106C7.95788 13.7192 8.5734 14.3808 9.35588 14.7761C10.1384 15.1715 11.0364 15.2747 11.8883 15.0672C12.7401 14.8596 13.4898 14.3549 14.0024 13.644V15.4905C13.103 16.1666 12.0015 16.5195 10.8764 16.4919C9.75124 16.4643 8.66838 16.0579 7.80324 15.3385C6.93809 14.6192 6.34133 13.629 6.10963 12.5284C5.87793 11.4278 6.02487 10.2813 6.52665 9.27457C7.02842 8.26785 7.85564 7.45992 8.87428 6.98166C9.89291 6.5034 11.0433 6.38282 12.1391 6.63948C13.2348 6.89613 14.2118 7.51498 14.9117 8.39575C15.6116 9.27653 15.9933 10.3676 15.9952 11.4923V20.3736L14.6967 20.1233Z" fill="white"/>
</g>
</svg>
