<svg width="13" height="15" viewBox="0 0 13 15" fill="none" xmlns="http://www.w3.org/2000/svg">
<g id="Group">
<g id="Group_2">
<path id="Vector" d="M3.69141 1.586V11.3672H2.1875C1.23978 11.3672 0.46875 12.1383 0.46875 13.086C0.46875 14.0337 1.23978 14.8047 2.1875 14.8047H3.26172C4.20944 14.8047 4.98047 14.0337 4.98047 13.086V5.67968L11.168 4.61285V10.0782H9.66406C8.71634 10.0782 7.94531 10.8492 7.94531 11.7969C7.94531 12.7446 8.71634 13.5157 9.66406 13.5157H10.7383C11.686 13.5157 12.457 12.7446 12.457 11.7969V0.074707L3.69141 1.586ZM3.69141 13.086C3.69141 13.3229 3.49865 13.5157 3.26172 13.5157H2.1875C1.95057 13.5157 1.75781 13.3229 1.75781 13.086C1.75781 12.8491 1.95057 12.6563 2.1875 12.6563H3.69141V13.086ZM11.168 11.7969C11.168 12.0339 10.9752 12.2266 10.7383 12.2266H9.66406C9.42713 12.2266 9.23438 12.0339 9.23438 11.7969C9.23438 11.56 9.42713 11.3672 9.66406 11.3672H11.168V11.7969ZM11.168 3.3048L4.98047 4.37162V2.67191L11.168 1.60508V3.3048Z" fill="#B44406"/>
</g>
</g>
</svg>
