<svg width="1024" height="1024" viewBox="0 0 1024 1024" fill="none" xmlns="http://www.w3.org/2000/svg">
<rect width="1024" height="1024" fill="white"/>
<path d="M810.363 158.059V125.195L802.028 121.029L793.693 125.195L785.357 121.029V88.1658L777.022 84L768.687 88.1658L760.352 84L752.016 88.1658L743.681 84L735.346 88.1658L727.01 84L718.675 88.1658L710.34 84L702.004 88.1658L693.669 84L685.334 88.1658L676.999 84L668.663 88.1658L660.328 84L651.993 88.1658L643.657 84L635.322 88.1658L626.987 84L618.651 88.1658L610.316 84L601.981 88.1658V121.029L593.646 125.195L585.31 121.029L576.975 125.195L568.64 121.029L560.304 125.195V158.059L568.64 162.225V195.088L560.304 199.254V232.118L568.64 236.284V269.147L560.304 273.313V306.177L568.64 310.342L576.975 306.177L585.31 310.342L593.646 306.177L601.981 310.342L610.316 306.177L618.651 310.342L626.987 306.177V273.313L618.651 269.147V236.284L626.987 232.118V199.254L635.322 195.088L643.657 199.254L651.993 195.088L660.328 199.254L668.663 195.088L676.999 199.254L685.334 195.088L693.669 199.254L702.004 195.088L710.34 199.254L718.675 195.088L727.01 199.254L735.346 195.088L743.681 199.254V232.118L752.016 236.284V269.147L743.681 273.313V306.177L752.016 310.342V343.206L743.681 347.372V380.235L752.016 384.401L760.352 380.235L768.687 384.401V417.265L760.352 421.431L752.016 417.265L743.681 421.431V454.294L735.346 458.46L727.01 454.294L718.675 458.46V491.324L710.34 495.49L702.004 491.324L693.669 495.49V528.353L685.334 532.519L676.999 528.353L668.663 532.519V565.383L660.328 569.548L651.993 565.383L643.657 569.548V602.412L651.993 606.578L660.328 602.412L668.663 606.578L676.999 602.412L685.334 606.578L693.669 602.412V569.548L702.004 565.383V532.519L710.34 528.353L718.675 532.519L727.01 528.353L735.346 532.519L743.681 528.353V495.49L752.016 491.324V458.46L760.352 454.294L768.687 458.46L777.022 454.294L785.357 458.46V491.324L793.693 495.49L802.028 491.324V458.46L793.693 454.294V421.431L802.028 417.265V384.401L810.363 380.235V347.372L802.028 343.206V310.342L810.363 306.177V273.313L802.028 269.147V236.284L810.363 232.118V199.254L802.028 195.088V162.225L810.363 158.059Z" fill="#2D2B27"/>
<path d="M785.589 532.982V565.846L793.924 570.011L802.028 565.846V532.982L793.924 528.816L785.589 532.982Z" fill="#2D2B27"/>
<path d="M760.583 570.011V570.243V603.106L768.918 607.272L777.254 603.106V570.243V570.011L768.918 565.845L760.583 570.011Z" fill="#2D2B27"/>
<path d="M777.254 495.953L768.918 491.787L760.583 495.953V528.816L768.918 532.982L777.254 528.816V495.953Z" fill="#2D2B27"/>
<path d="M735.809 607.272V640.136L744.144 644.302L752.248 640.136V607.272L744.144 603.106L735.809 607.272Z" fill="#2D2B27"/>
<path d="M735.809 417.496V384.633L727.473 380.467L719.138 384.633V417.496L727.473 421.894L735.809 417.496Z" fill="#2D2B27"/>
<path d="M710.803 644.302V677.165L719.138 681.331L727.474 677.165V644.302L719.138 640.136L710.803 644.302Z" fill="#2D2B27"/>
<path d="M727.474 570.243V570.011L719.138 565.845L710.803 570.011V570.243V603.106L719.138 607.272L727.474 603.106V570.243Z" fill="#2D2B27"/>
<path d="M686.029 681.331V714.195L694.364 718.592L702.468 714.195V681.331L694.364 677.165L686.029 681.331Z" fill="#2D2B27"/>
<path d="M694.364 380.467L686.029 384.633V417.496L694.364 421.894V454.757L702.468 458.923L710.803 454.757V421.894L702.468 417.496V384.633L694.364 380.467Z" fill="#2D2B27"/>
<path d="M686.028 491.787V458.923L677.693 454.757L669.358 458.923V491.787L677.693 495.952L686.028 491.787Z" fill="#2D2B27"/>
<path d="M661.023 718.592V751.224L669.358 755.621L677.693 751.224V718.592L669.358 714.195L661.023 718.592Z" fill="#2D2B27"/>
<path d="M677.693 644.302L669.358 640.136L661.023 644.302V677.165L669.358 681.331L677.693 677.165V644.302Z" fill="#2D2B27"/>
<path d="M644.352 454.757L636.248 458.923V491.787L644.352 495.952V528.816L652.687 532.982L661.023 528.816V495.952L652.687 491.787V458.923L644.352 454.757Z" fill="#2D2B27"/>
<path d="M627.913 603.106L619.578 607.272V640.136L611.243 644.302L602.907 640.136L594.572 644.302V677.165L586.237 681.331L577.901 677.165L569.566 681.331V714.195L577.901 718.36L586.237 714.195L594.572 718.36V751.224L586.237 755.39L577.901 751.224L569.566 755.39V788.254L577.901 792.419V825.283L569.566 829.449V862.312L561.231 866.478V899.342L569.566 903.508V936.834L577.901 941L586.237 936.834L594.572 941L602.907 936.834L611.243 941L619.578 936.834L627.913 941L636.248 936.834L644.584 941L652.919 936.834L661.254 941L669.59 936.834L677.925 941L686.26 936.834L694.596 941L702.931 936.834L711.266 941L719.601 936.834L727.937 941L736.272 936.834L744.607 941L752.943 936.834L761.278 941L769.613 936.834L777.949 941L786.284 936.834L794.619 941L802.955 936.834V903.971L811.29 899.805V866.941L802.955 862.775V829.912L794.619 825.746L786.284 829.912L777.949 825.746L769.613 829.912L761.278 825.746L752.943 829.912L744.607 825.746L736.272 829.912L727.937 825.746L719.601 829.912L711.266 825.746L702.931 829.912L694.596 825.746L686.26 829.912L677.925 825.746V792.882L669.59 788.716L661.254 792.882V825.746L652.919 829.912L644.584 825.746V792.882L636.248 788.716L627.913 792.882L619.578 788.716L611.243 792.882L602.907 788.716V755.853L611.243 751.687L619.578 755.853L627.913 751.687L636.248 755.853L644.584 751.687V718.823L636.248 714.658L627.913 718.823L619.578 714.658L611.243 718.823L602.907 714.658V681.794L611.243 677.628L619.578 681.794L627.913 677.628L636.248 681.794L644.584 677.628V644.764L652.919 640.599V607.735L644.584 603.569L636.248 607.735L627.913 603.106Z" fill="#2D2B27"/>
<path d="M636.248 565.846V532.982L627.913 528.816L619.578 532.982V565.846L627.913 570.011L636.248 565.846Z" fill="#2D2B27"/>
<path d="M602.907 532.982L594.572 528.816L586.468 532.982V565.846L594.572 570.011V570.243V603.106L602.907 607.272L611.242 603.106V570.243V570.011L602.907 565.846V532.982Z" fill="#2D2B27"/>
<path d="M586.468 640.136V607.272L578.133 603.106L569.797 607.272V640.136L578.133 644.302L586.468 640.136Z" fill="#2D2B27"/>
<path d="M478.572 454.757V421.894L470.237 417.728V384.864L461.901 380.698V347.835L453.566 343.669L445.231 347.835L436.896 343.669V310.805L428.56 306.639L420.225 310.805L411.89 306.639L403.554 310.805L395.219 306.639L386.884 310.805L378.548 306.639L370.213 310.805L361.878 306.639L353.542 310.805L345.207 306.639L336.872 310.805L328.537 306.639L320.201 310.805L311.866 306.639L303.531 310.805L295.195 306.639L286.86 310.805L278.525 306.639V273.776L270.189 269.61V236.746L278.525 232.581V199.717L286.86 195.551L295.195 199.717L303.531 195.551L311.866 199.717L320.201 195.551L328.537 199.717L336.872 195.551L345.207 199.717L353.542 195.551L361.878 199.717L370.213 195.551L378.548 199.717L386.884 195.551L395.219 199.717L403.554 195.551L411.89 199.717L420.225 195.551L428.56 199.717L436.896 195.551L445.231 199.717L453.566 195.551V162.688L461.901 158.522V125.658L453.566 121.492L445.231 125.658L436.896 121.492V88.6287L428.56 84.4629L420.225 88.6287L411.89 84.4629L403.554 88.6287L395.219 84.4629L386.884 88.6287L378.548 84.4629L370.213 88.6287L361.878 84.4629L353.542 88.6287L345.207 84.4629L336.872 88.6287L328.537 84.4629L320.201 88.6287L311.866 84.4629L303.531 88.6287L295.195 84.4629L286.86 88.6287L278.525 84.4629L270.189 88.6287L261.854 84.4629L253.519 88.6287V121.492L245.184 125.658L236.848 121.492L228.513 125.658L220.178 121.492L213 125.195V158.059L221.335 162.225V195.088L213 199.254V232.118L221.335 236.283V269.147L213 273.544V306.408L221.335 310.574V343.437L213 347.603V380.467L221.335 384.633V417.496L229.671 421.662L238.006 417.496L246.341 421.662L254.677 417.496L263.012 421.662L271.347 417.496L279.682 421.662L288.018 417.496V384.633L296.353 380.467L304.688 384.633L313.024 380.467L321.359 384.633L329.694 380.467L338.03 384.633L346.365 380.467L354.7 384.633L363.035 380.467L371.371 384.633V417.496L379.706 421.662L388.041 417.496V384.633L396.377 380.467L404.712 384.633V417.496L396.377 421.662V454.526L404.712 458.692L413.047 454.526V421.662L421.383 417.496L429.718 421.662L438.053 417.496L446.389 421.662V454.526L438.053 458.692L429.718 454.526L421.383 458.692V491.555L429.718 495.721L438.053 491.555L446.389 495.721V528.585L438.053 532.75L429.718 528.585L421.383 532.75V565.614L429.718 569.78L438.053 565.614L446.389 569.78V602.643L438.053 606.809L429.718 602.643L421.383 606.809V639.673L429.718 643.839L438.053 639.673L446.389 643.839V676.702L438.053 680.868L429.718 676.702L421.383 680.868V713.732L429.718 717.898L438.053 713.732L446.389 717.898V750.761L438.053 754.927L429.718 750.761L421.383 754.927V787.791L413.047 791.957L404.712 787.791L396.377 791.957V824.82L388.041 828.986L379.706 824.82L371.371 828.986L363.035 824.82L354.7 828.986L346.365 824.82L338.03 828.986L329.694 824.82L321.359 828.986L313.024 824.82L304.688 828.986L296.353 824.82L288.018 828.986L279.682 824.82V791.957L288.018 787.791V754.927L279.682 750.761L271.347 754.927L263.012 750.761L254.677 754.927L246.341 750.761L238.006 754.927L229.671 750.761L221.335 754.927V787.791L213 792.651V825.514L221.335 829.68V862.544L229.671 866.71V899.573L238.006 903.739L246.341 899.573L254.677 903.739V936.834L263.012 941L271.347 936.834L279.682 941L288.018 936.834L296.353 941L304.688 936.834L313.024 941L321.359 936.834L329.694 941L338.03 936.834L346.365 941L354.7 936.834L363.035 941L371.371 936.834L379.706 941L388.041 936.834L396.377 941L404.712 936.834L413.047 941L421.383 936.834L429.718 941L438.053 936.834V903.971L446.389 899.805V866.941L454.724 862.775L463.059 866.941L471.394 862.775V829.912L463.059 825.746V792.882L471.394 788.716V755.853L479.73 751.687V718.823L471.394 714.658V681.794L479.73 677.628V644.764L471.394 640.599V607.735L479.73 603.569V570.706L471.394 566.54V533.676L479.73 529.51V496.647L471.394 492.481V459.617L478.572 454.757Z" fill="#2D2B27"/>
<path d="M395.451 751.224L403.786 755.621L412.121 751.224V718.592L403.786 714.195L395.451 718.592V751.224Z" fill="#2D2B27"/>
<path d="M395.451 677.165L403.786 681.331L412.121 677.165V644.302L403.786 640.136L395.451 644.302V677.165Z" fill="#2D2B27"/>
<path d="M395.451 570.243V603.106L403.786 607.272L412.121 603.106V570.243V570.011L403.786 565.845L395.451 570.011V570.243Z" fill="#2D2B27"/>
<path d="M412.121 528.816V495.953L403.786 491.787L395.451 495.953V528.816L403.786 532.982L412.121 528.816Z" fill="#2D2B27"/>
<path d="M370.676 788.485L379.012 792.651L387.347 788.485V755.621L379.012 751.224L370.676 755.621V788.485Z" fill="#2D2B27"/>
<path d="M370.676 714.195L379.012 718.592L387.347 714.195V681.331L379.012 677.165L370.676 681.331V714.195Z" fill="#2D2B27"/>
<path d="M370.676 640.136L379.012 644.302L387.347 640.136V607.272L379.012 603.106L370.676 607.272V640.136Z" fill="#2D2B27"/>
<path d="M370.676 565.846L379.012 570.011L387.347 565.846V532.982L379.012 528.816L370.676 532.982V565.846Z" fill="#2D2B27"/>
<path d="M387.347 491.787V458.923L379.012 454.757L370.676 458.923V491.787L379.012 495.952L387.347 491.787Z" fill="#2D2B27"/>
<path d="M329.231 751.224L337.567 755.621L345.67 751.224V718.592L337.567 714.195L329.231 718.592V751.224Z" fill="#2D2B27"/>
<path d="M329.231 677.165L337.567 681.331L345.67 677.165V644.302L337.567 640.136H337.335L329.231 644.302V677.165Z" fill="#2D2B27"/>
<path d="M329.231 570.243V603.106L337.335 607.272L345.67 603.106V570.243V570.011L337.567 565.845H337.335L329.231 570.011V570.243Z" fill="#2D2B27"/>
<path d="M329.231 528.816L337.567 532.982L345.67 528.816V495.953L337.567 491.787H337.335L329.231 495.953V528.816Z" fill="#2D2B27"/>
<path d="M345.67 454.757V421.894L337.567 417.496H337.335L329.231 421.894V454.757L337.567 458.923L345.67 454.757Z" fill="#2D2B27"/>
</svg>
