<svg width="216" height="14" viewBox="0 0 216 14" fill="none" xmlns="http://www.w3.org/2000/svg">
<path d="M13.0821 11.9187L12.7914 12.1125L12.5006 11.9187V10.5621L12.2099 10.3683L11.9192 10.5621L11.6285 10.3683V9.01159L11.3378 8.81778L11.0471 9.01159L10.7564 8.81778V7.46112L10.4657 7.26731L10.1749 7.46112L9.88425 7.26731V5.91065L9.59352 5.71684L9.30282 5.91065L9.01212 5.71684V4.36018L8.72138 4.16637L8.43068 4.36018L8.13995 4.16637V2.80971L7.84925 2.6159L7.55855 2.80971L7.26782 2.6159V1.25924L6.97712 1.06543L6.68639 1.25924L6.39569 1.06543L6.10499 1.25924V2.6159L5.81426 2.80971L5.52356 2.6159L5.23282 2.80971V4.55399L4.94212 4.7478L4.65142 4.55399L4.36069 4.7478V6.10446L4.06999 6.29827L3.77926 6.10446L3.48856 6.29827V7.46112L3.19786 7.65493L2.90713 7.46112L2.61643 7.65493V9.01159L2.3257 9.2054L2.035 9.01159L1.74429 9.2054V10.5621L1.45356 10.7559L1.16286 10.5621L0.872133 10.7559V12.1125L0.581432 12.3063L0.290731 12.1125L0 12.3063V13.663L0.290731 13.8568L0.581432 13.663L0.872133 13.8568L1.16286 13.663V12.3063L1.45356 12.1125L1.74429 12.3063V13.663L2.035 13.8568L2.3257 13.663L2.61643 13.8568L2.90713 13.663V12.3063L2.61643 12.1125L2.3257 12.3063L2.035 12.1125V10.7559L2.3257 10.5621L2.61643 10.7559L2.90713 10.5621V9.2054L3.19786 9.01159L3.48856 9.2054V10.5621L3.77926 10.7559L4.06999 10.5621L4.36069 10.7559V12.1125L4.06999 12.3063L3.77926 12.1125L3.48856 12.3063V13.663L3.77926 13.8568L4.06999 13.663L4.36069 13.8568L4.65142 13.663V12.3063L4.94212 12.1125L5.23282 12.3063V13.663L5.52356 13.8568L5.81426 13.663L6.10499 13.8568L6.39569 13.663V12.3063L6.10499 12.1125L5.81426 12.3063L5.52356 12.1125V10.7559L5.81426 10.5621L6.10499 10.7559L6.39569 10.5621V9.2054L6.68639 9.01159L6.97712 9.2054V10.5621L7.26782 10.7559L7.55855 10.5621L7.84925 10.7559V12.1125L7.55855 12.3063L7.26782 12.1125L6.97712 12.3063V13.663L7.26782 13.8568L7.55855 13.663L7.84925 13.8568L8.13995 13.663V12.3063L8.43068 12.1125L8.72138 12.3063V13.663L9.01212 13.8568L9.30282 13.663L9.59352 13.8568L9.88425 13.663V12.3063L9.59352 12.1125L9.30282 12.3063L9.01212 12.1125V10.7559L9.30282 10.5621L9.59352 10.7559L9.88425 10.5621V9.2054L10.1749 9.01159L10.4657 9.2054V10.5621L10.7564 10.7559L11.0471 10.5621L11.3378 10.7559V12.1125L11.0471 12.3063L10.7564 12.1125L10.4657 12.3063V13.663L10.7564 13.8568L11.0471 13.663L11.3378 13.8568L11.6285 13.663V12.3063L11.9192 12.1125L12.2099 12.3063V13.663L12.5006 13.8568L12.7914 13.663L13.0821 13.8568L13.3728 13.663V12.3063L13.0821 11.9187ZM5.13594 9.01159L4.84521 9.2054L4.55451 9.01159L4.26378 9.2054V10.5621L3.97308 10.7559L3.68238 10.5621V9.2054L3.39165 9.01159L3.10095 9.2054L2.81022 9.01159V7.65493L3.10095 7.46112L3.39165 7.65493L3.68238 7.46112V6.10446L3.97308 5.91065L4.26378 6.10446V7.46112L4.55451 7.65493L4.84521 7.46112L5.13594 7.65493V9.01159ZM6.10499 6.20136V7.46112L5.81426 7.65493L5.52356 7.46112V6.10446L5.23282 5.91065L4.94212 6.10446L4.65142 5.91065V4.55399L4.94212 4.36018L5.23282 4.55399L5.52356 4.36018V3.00352L5.81426 2.80971L6.10499 3.00352V4.55399L6.39569 4.7478L6.68639 4.55399L6.97712 4.7478V6.10446L6.68639 6.29827L6.39569 6.10446L6.10499 6.20136ZM9.109 9.01159L8.81829 9.2054L8.52759 9.01159L8.23686 9.2054V10.5621L7.94616 10.7559L7.65543 10.5621V9.2054L7.36473 9.01159L7.07403 9.2054L6.7833 9.01159V7.65493L7.07403 7.46112L7.36473 7.65493L7.65543 7.46112V6.10446L7.94616 5.91065L8.23686 6.10446V7.46112L8.52759 7.65493L8.81829 7.46112L9.109 7.65493V9.01159Z" fill="#B44406"/>
<path d="M40.7969 11.9187L40.5062 12.1125L40.2155 11.9187V10.5621L39.9247 10.3683L39.634 10.5621L39.3433 10.3683V9.01159L39.0526 8.81778L38.7619 9.01159L38.4712 8.81778V7.46112L38.1805 7.26731L37.8898 7.46112L37.5991 7.26731V5.91065L37.3084 5.71684L37.0176 5.91065L36.7269 5.71684V4.36018L36.4362 4.16637L36.1455 4.36018L35.8548 4.16637V2.80971L35.564 2.6159L35.2733 2.80971L34.9826 2.6159V1.25924L34.6919 1.06543L34.4012 1.25924L34.1105 1.06543L33.8198 1.25924V2.6159L33.5291 2.80971L33.2384 2.6159L32.9477 2.80971V4.55399L32.6569 4.7478L31.1065 4.55399L30.8158 4.7478V6.10446L30.5251 6.29827L30.2343 6.10446L29.9436 6.29827V7.46112L29.6529 7.65493L29.3622 7.46112L29.0715 7.65493V9.01159L28.7807 9.2054L28.49 9.01159L28.1993 9.2054V10.5621L27.9086 10.7559L27.6179 10.5621L27.3272 10.7559V12.1125L27.0365 12.3063L26.7458 12.1125L26.4551 12.3063V13.663L26.7458 13.8568L27.0365 13.663L27.3272 13.8568L27.6179 13.663V12.3063L27.9086 12.1125L28.1993 12.3063V13.663L28.49 13.8568L28.7807 13.663L29.0715 13.8568L29.3622 13.663V12.3063L29.0715 12.1125L28.7807 12.3063L28.49 12.1125V10.7559L28.7807 10.5621L29.0715 10.7559L29.3622 10.5621V9.2054L29.6529 9.01159L29.9436 9.2054V10.5621L30.2343 10.7559L30.5251 10.5621L30.8158 10.7559V12.1125L30.5251 12.3063L30.2343 12.1125L29.9436 12.3063V13.663L30.2343 13.8568L30.5251 13.663L30.8158 13.8568L31.1065 13.663V12.3063L31.3972 12.1125L31.6879 12.3063V13.663L31.9786 13.8568L32.2693 13.663L32.56 13.8568L32.8507 13.663V12.3063L32.56 12.1125L32.2693 12.3063L31.9786 12.1125V10.7559L32.2693 10.5621L32.56 10.7559L32.8507 10.5621V9.2054L33.1414 9.01159L33.4322 9.2054V10.5621L33.7229 10.7559L34.0136 10.5621L34.3043 10.7559V12.1125L34.0136 12.3063L33.7229 12.1125L33.4322 12.3063V13.663L33.7229 13.8568L34.0136 13.663L34.3043 13.8568L34.595 13.663V12.3063L34.8858 12.1125L35.1765 12.3063V13.663L35.4672 13.8568L35.7579 13.663L36.0486 13.8568L36.3393 13.663V12.3063L36.0486 12.1125L35.7579 12.3063L35.4672 12.1125V10.7559L35.7579 10.5621L36.0486 10.7559L36.3393 10.5621V9.2054L36.63 9.01159L36.9207 9.2054V10.5621L37.2114 10.7559L37.5021 10.5621L37.7929 10.7559V12.1125L37.5021 12.3063L37.2114 12.1125L36.9207 12.3063V13.663L37.2114 13.8568L37.5021 13.663L37.7929 13.8568L38.0836 13.663V12.3063L38.3743 12.1125L38.665 12.3063V13.663L38.9557 13.8568L39.2465 13.663L39.5372 13.8568L39.8279 13.663V12.3063L40.7969 11.9187ZM32.7539 9.01159L32.4632 9.2054L32.1724 9.01159L31.8817 9.2054V10.5621L31.591 10.7559L31.3003 10.5621V9.2054L31.0096 9.01159L30.7188 9.2054L30.4281 9.01159V7.65493L30.7188 7.46112L31.0096 7.65493L31.1065 7.46112V6.10446L31.3972 5.91065L31.6879 6.10446V7.46112L31.9786 7.65493L32.2693 7.46112L32.56 7.65493V9.01159H32.7539ZM33.8198 6.20136V7.46112L33.5291 7.65493L33.2384 7.46112V6.10446L32.9477 5.91065L32.6569 6.10446L32.3662 5.91065V4.55399L32.6569 4.36018L32.9477 4.55399L33.2384 4.36018V3.00352L33.5291 2.80971L33.8198 3.00352V4.55399L34.1105 4.7478L34.4012 4.55399L34.6919 4.7478V6.10446L34.4012 6.29827L34.1105 6.10446L33.8198 6.20136ZM36.7269 9.01159L36.4362 9.2054L36.1455 9.01159L35.8548 9.2054V10.5621L35.564 10.7559L35.2733 10.5621V9.2054L34.9826 9.01159L34.6919 9.2054L34.4012 9.01159V7.65493L34.6919 7.46112L34.9826 7.65493L35.2733 7.46112V6.10446L35.564 5.91065L35.8548 6.10446V7.46112L36.1455 7.65493L36.4362 7.46112L36.7269 7.65493V9.01159Z" fill="#B44406"/>
<path d="M12.3066 1.74428L12.5973 1.55047L12.8881 1.74428V3.10094L13.1788 3.29475L13.4695 3.10094L13.7602 3.29475V4.55451L14.0509 4.74832L14.6323 4.55451L14.923 4.74832V6.10498L15.2138 6.29879L15.5045 6.10498L15.7952 6.29879V7.46164L16.0859 7.65545L16.5704 7.46164L16.8611 7.65545V9.01211L17.1519 9.20592L17.4426 9.01211L17.7333 9.20592V10.5626L18.024 10.7564L18.3147 10.5626L18.6054 10.7564V12.1131L18.8961 12.3069L19.1869 12.1131L19.4776 12.3069L19.7683 12.1131V10.7564L20.059 10.5626L20.3497 10.7564L20.6404 10.5626V9.20592L20.9311 9.01211L21.2218 9.20592L21.5125 9.01211V7.65545L21.8032 7.46164L22.094 7.65545L22.3847 7.46164V6.10498L22.6754 5.91117L22.9661 6.10498L23.2568 5.91117V4.55451L23.5475 4.3607L23.8382 4.55451H25.2918V3.19785L25.5825 3.00404L25.8732 3.19785L26.1639 3.00404V1.64738L26.4547 1.45357L26.7454 1.64738L27.0361 1.45357V0.193809L26.7454 0L26.4547 0.193809L26.2608 0L25.9701 0.193809V1.55047L25.6794 1.74428L25.3887 1.55047V0.193809L25.098 0L24.8073 0.193809L24.5166 0L24.2259 0.193809V1.55047L24.5166 1.74428L24.8073 1.55047L25.098 1.74428V3.10094L24.8073 3.29475L24.5166 3.10094L24.2259 3.29475V4.55451L23.9352 4.74832L23.6444 4.55451V3.19785L23.3537 3.00404L23.063 3.19785L22.7723 3.00404V1.64738L23.063 1.45357L23.3537 1.64738L23.6444 1.45357V0.193809L23.3537 0L23.063 0.193809L22.7723 0L22.4816 0.193809V1.55047L22.1909 1.74428L21.9002 1.55047V0.193809L21.6095 0L21.3187 0.193809L21.028 0L20.7373 0.193809V1.55047L21.028 1.74428L21.3187 1.55047L21.6095 1.74428V3.10094L21.3187 3.29475L21.028 3.10094L20.7373 3.29475V4.55451L20.4466 4.74832L20.1559 4.55451V3.19785L19.8652 3.00404L19.5745 3.19785L19.2837 3.00404V1.64738L19.5745 1.45357L19.8652 1.64738L20.1559 1.45357V0.193809L19.8652 0L19.5745 0.193809L19.2837 0L18.993 0.193809V1.55047L18.7023 1.74428L18.4116 1.55047V0.193809L18.1209 0L16.5704 0.193809L16.2797 0L15.989 0.193809V1.55047L16.2797 1.74428L16.5704 1.55047L16.8611 1.74428V3.10094L16.5704 3.29475L16.2797 3.10094L15.989 3.29475V4.55451L15.6983 4.74832L15.4076 4.55451V3.19785L15.1169 3.00404L14.8262 3.19785L14.5354 3.00404V1.64738L14.8262 1.45357L15.1169 1.64738L15.4076 1.45357V0.193809L15.1169 0L14.6323 0.193809L14.3416 0L14.0509 0.193809V1.55047L13.7602 1.74428L13.4695 1.55047V0.193809L13.1788 0L12.8881 0.193809L12.5973 0L12.3066 0.193809V1.55047V1.74428ZM20.2528 4.65141L20.5435 4.4576L20.8342 4.65141L21.1249 4.4576V3.10094L21.4156 2.90713L21.7063 3.10094V4.55451L21.9971 4.74832L22.2878 4.55451L22.5785 4.74832V6.10498L22.2878 6.29879L21.9971 6.10498L21.7063 6.29879V7.46164L21.4156 7.65545L21.1249 7.46164V6.10498L20.8342 5.91117L20.5435 6.10498L20.2528 5.91117V4.65141ZM19.2837 7.46164V6.10498L19.5745 5.91117L19.8652 6.10498V7.46164L20.1559 7.65545L20.4466 7.46164L20.7373 7.65545V9.01211L20.4466 9.20592L20.1559 9.01211L19.8652 9.20592V10.5626L19.5745 10.7564L19.2837 10.5626V9.20592L18.993 9.01211L18.7023 9.20592L18.4116 9.01211V7.65545L18.7023 7.46164L18.993 7.65545L19.2837 7.46164ZM16.2797 4.65141L16.5704 4.55451L16.8611 4.74832L17.1519 4.55451V3.19785L17.4426 3.00404L17.7333 3.19785V4.55451L18.024 4.74832L18.3147 4.55451L18.6054 4.74832V6.10498L18.3147 6.29879L18.024 6.10498L17.7333 6.29879V7.46164L17.4426 7.65545L17.1519 7.46164V6.10498L16.8611 5.91117L16.5704 6.10498L16.2797 5.91117V4.65141Z" fill="#B44406"/>
<path d="M100.682 11.9188L100.392 12.1126L100.101 11.9188V10.5621L99.8102 10.3683L99.5194 10.5621L99.2287 10.3683V9.01167L98.938 8.81786L98.6473 9.01167L98.3566 8.81786V7.4612L98.0659 7.26739L97.7752 7.4612H96.9999V6.10454L96.7092 5.91073L96.4185 6.10454L96.1278 5.91073V4.55407L95.8371 4.36026L95.5464 4.55407H95.0619V3.1974L94.7712 3.0036L94.4805 3.1974L94.1897 3.0036V1.64693L93.899 1.45312L93.6083 1.64693L93.3176 1.45312L93.0269 1.64693V3.0036L92.7361 3.1974L92.4454 3.0036L92.1547 3.1974V4.55407L91.864 4.74788L91.5733 4.55407L91.2826 4.74788V6.10454L90.9919 6.29835L90.7012 6.10454L90.4105 6.29835V7.4612L90.1198 7.65501L89.829 7.4612L89.5383 7.65501V9.01167L89.2476 9.20548L88.9569 9.01167L88.6662 9.20548V10.5621L88.3754 10.7559L88.0847 10.5621L87.794 10.7559V12.1126L87.5033 12.3064L87.2126 12.1126L86.9219 12.3064V13.6631L87.2126 13.8569L87.5033 13.6631L87.794 13.8569L88.0847 13.6631V12.3064L88.3754 12.1126L88.6662 12.3064V13.6631L88.9569 13.8569L89.2476 13.6631L89.5383 13.8569L89.829 13.6631V12.3064L89.5383 12.1126L89.2476 12.3064L88.9569 12.1126V10.7559L89.2476 10.5621L89.5383 10.7559L89.829 10.5621V9.20548L90.1198 9.01167L90.4105 9.20548V10.5621L90.7012 10.7559L90.9919 10.5621L91.2826 10.7559V12.1126L90.9919 12.3064L90.7012 12.1126L90.4105 12.3064V13.6631L90.7012 13.8569L90.9919 13.6631L91.2826 13.8569L91.5733 13.6631V12.3064L91.864 12.1126L92.1547 12.3064V13.6631L92.4454 13.8569L92.7361 13.6631L93.0269 13.8569L93.3176 13.6631V12.3064L93.0269 12.1126L92.7361 12.3064L92.4454 12.1126V10.7559L92.7361 10.5621L93.0269 10.7559L93.3176 10.5621V9.20548L93.6083 9.01167L93.899 9.20548V10.5621L94.1897 10.7559L94.4805 10.5621L94.7712 10.7559V12.1126L94.4805 12.3064L94.1897 12.1126L93.899 12.3064V13.6631L94.1897 13.8569L94.4805 13.6631L94.7712 13.8569L95.0619 13.6631V12.3064L95.3526 12.1126L95.6433 12.3064V13.6631L95.934 13.8569L96.2247 13.6631L96.5154 13.8569L96.8061 13.6631V12.3064L96.5154 12.1126L96.2247 12.3064L95.934 12.1126V10.7559L96.2247 10.5621L96.5154 10.7559L96.8061 10.5621V9.20548L97.0968 9.01167L97.3876 9.20548V10.5621L97.6783 10.7559L97.969 10.5621L98.2597 10.7559V12.1126L97.969 12.3064L97.6783 12.1126L97.3876 12.3064V13.6631L97.6783 13.8569L97.969 13.6631L98.2597 13.8569L98.5504 13.6631V12.3064L98.8411 12.1126L99.1318 12.3064V13.6631L99.4225 13.8569L99.7133 13.6631L100.004 13.8569L100.295 13.6631V12.3064L100.682 11.9188ZM92.7361 9.01167L92.4454 9.20548L92.1547 9.01167L91.864 9.20548V10.5621L91.5733 10.7559L91.2826 10.5621V9.20548L90.9919 9.01167L90.7012 9.20548L90.4105 9.01167V7.65501L90.7012 7.4612L90.9919 7.65501L91.2826 7.4612V6.10454L91.5733 5.91073L91.864 6.10454V7.4612L92.1547 7.65501L92.4454 7.4612L92.7361 7.65501V9.01167ZM93.7052 6.20144V7.4612L93.4145 7.65501L93.1238 7.4612V6.10454L92.8331 5.91073L92.5424 6.10454L92.2516 5.91073V4.55407L92.5424 4.36026L92.8331 4.55407L93.1238 4.36026V3.0036L93.4145 2.80979L93.7052 3.0036V4.55407L93.9959 4.74788L94.2866 4.55407L94.5773 4.74788V6.10454L94.2866 6.29835L93.9959 6.10454L93.7052 6.20144ZM96.7092 9.01167L96.4185 9.20548L96.1278 9.01167L95.8371 9.20548V10.5621L95.5464 10.7559L95.2557 10.5621V9.20548L94.965 9.01167L94.6742 9.20548L94.3835 9.01167V7.65501L94.6742 7.4612L94.965 7.65501L95.0619 7.4612V6.10454L95.3526 5.91073L95.6433 6.10454V7.4612L95.934 7.65501L96.2247 7.4612L96.5154 7.65501V9.01167H96.7092Z" fill="#B44406"/>
<path d="M128.398 11.9187L128.108 12.1125L127.817 11.9187V10.5621L127.526 10.3683L127.236 10.5621L126.945 10.3683V9.01159L126.654 8.81778L126.363 9.01159L126.073 8.81778V7.46112L125.782 7.26731L125.491 7.46112L125.201 7.26731V5.91065L124.91 5.71684L124.619 5.91065L124.328 5.71684V4.36018L124.038 4.16637L123.747 4.36018L123.456 4.16637V2.80971L123.166 2.6159L122.875 2.80971L122.584 2.6159V1.25924L122.293 1.06543L122.003 1.25924L121.712 1.06543L121.421 1.25924V2.6159L121.131 2.80971L120.84 2.6159L120.549 2.80971V4.55399L120.259 4.7478L119.968 4.55399L119.677 4.7478V6.10446L119.386 6.29827L119.096 6.10446L118.805 6.29827V7.46112L118.514 7.65493L118.224 7.46112L117.933 7.65493V9.01159L117.642 9.2054L117.351 9.01159L117.061 9.2054V10.5621L116.77 10.7559L116.479 10.5621L116.189 10.7559V12.1125L115.898 12.3063L115.607 12.1125L115.316 12.3063V13.663L115.607 13.8568L115.898 13.663L116.189 13.8568L116.479 13.663V12.3063L116.77 12.1125L117.061 12.3063V13.663L117.351 13.8568L117.642 13.663L117.933 13.8568L118.224 13.663V12.3063L117.933 12.1125L117.642 12.3063L117.351 12.1125V10.7559L117.642 10.5621L117.933 10.7559L118.224 10.5621V9.2054L118.514 9.01159L118.805 9.2054V10.5621L119.096 10.7559L119.386 10.5621L119.677 10.7559V12.1125L119.386 12.3063L119.096 12.1125L118.805 12.3063V13.663L119.096 13.8568L119.386 13.663L119.677 13.8568L119.968 13.663V12.3063L120.259 12.1125L120.549 12.3063V13.663L120.84 13.8568L121.131 13.663L121.421 13.8568L121.712 13.663V12.3063L121.421 12.1125L121.131 12.3063L120.84 12.1125V10.7559L121.131 10.5621L121.421 10.7559L121.712 10.5621V9.2054L122.003 9.01159L122.293 9.2054V10.5621L122.584 10.7559L122.875 10.5621L123.166 10.7559V12.1125L122.875 12.3063L122.584 12.1125L122.293 12.3063V13.663L122.584 13.8568L122.875 13.663L123.166 13.8568L123.456 13.663V12.3063L123.747 12.1125L124.038 12.3063V13.663L124.328 13.8568L124.619 13.663L124.91 13.8568L125.201 13.663V12.3063L124.91 12.1125L124.619 12.3063L124.328 12.1125V10.7559L124.619 10.5621L124.91 10.7559L125.201 10.5621V9.2054L125.491 9.01159L125.782 9.2054V10.5621L126.073 10.7559L126.363 10.5621L126.654 10.7559V12.1125L126.363 12.3063L126.073 12.1125L125.782 12.3063V13.663L126.073 13.8568L126.363 13.663L126.654 13.8568L126.945 13.663V12.3063L127.236 12.1125L127.526 12.3063V13.663L127.817 13.8568L128.108 13.663L128.398 13.8568L128.689 13.663V12.3063L128.398 11.9187ZM120.355 9.01159L120.065 9.2054L119.774 9.01159L119.483 9.2054V10.5621L119.193 10.7559L118.902 10.5621V9.2054L118.611 9.01159L118.32 9.2054L118.03 9.01159V7.65493L118.32 7.46112L118.611 7.65493L118.902 7.46112V6.10446L119.193 5.91065L119.483 6.10446V7.46112L119.774 7.65493L120.065 7.46112L120.355 7.65493V9.01159ZM121.324 6.20136V7.46112L121.034 7.65493L120.743 7.46112V6.10446L120.452 5.91065L120.162 6.10446L119.871 5.91065V4.55399L120.162 4.36018L120.452 4.55399L120.743 4.36018V3.00352L121.034 2.80971L121.324 3.00352V4.55399L121.615 4.7478L121.906 4.55399L122.197 4.7478V6.10446L121.906 6.29827L121.615 6.10446L121.324 6.20136ZM124.328 9.01159L124.038 9.2054L123.747 9.01159L123.456 9.2054V10.5621L123.166 10.7559L122.875 10.5621V9.2054L122.584 9.01159L122.293 9.2054L122.003 9.01159V7.65493L122.293 7.46112L122.584 7.65493L122.875 7.46112V6.10446L123.166 5.91065L123.456 6.10446V7.46112L123.747 7.65493L124.038 7.46112L124.328 7.65493V9.01159Z" fill="#B44406"/>
<path d="M99.9079 1.74428L100.199 1.55047L100.489 1.74428V3.10094L100.78 3.29475L101.071 3.10094L101.361 3.29475V4.55451L101.652 4.74832L101.943 4.55451L102.234 4.74832V6.10498L102.524 6.29879L102.815 6.10498L103.106 6.29879V7.46164L103.396 7.65545L103.687 7.46164L103.978 7.65545V9.01211L104.269 9.20592L104.559 9.01211L104.85 9.20592V10.5626L105.141 10.7564L105.431 10.5626L105.722 10.7564V12.1131L106.013 12.3069L106.304 12.1131L106.594 12.3069L106.885 12.1131V10.7564L107.176 10.5626L107.466 10.7564L107.757 10.5626V9.20592L108.048 9.01211L108.339 9.20592L108.629 9.01211V7.65545L108.92 7.46164L109.211 7.65545L109.501 7.46164V6.10498L109.792 5.91117L110.083 6.10498L110.374 5.91117V4.55451L110.664 4.3607L110.955 4.55451L111.246 4.3607V3.00404L111.536 2.81023L111.827 3.00404L112.118 2.81023V1.45357L112.409 1.25976L112.699 1.45357L112.99 1.25976V0.193809L112.699 0L112.409 0.193809L112.118 0L111.827 0.193809V1.55047L111.536 1.74428L111.246 1.55047V0.193809L112.505 0L112.215 0.193809L111.924 0L111.536 0.193809V1.55047L111.827 1.74428L112.118 1.55047L112.409 1.74428V3.10094L112.118 3.29475L111.827 3.10094L111.536 3.29475V4.55451L111.246 4.74832L110.955 4.55451V3.19785L110.664 3.00404L110.374 3.19785L110.083 3.00404V1.64738L110.374 1.45357L110.664 1.64738L110.955 1.45357V0.193809L110.567 0L110.277 0.193809L109.986 0L109.695 0.193809V1.55047L109.404 1.74428L109.114 1.55047V0.193809L108.823 0L108.532 0.193809L108.242 0L107.951 0.193809V1.55047L108.242 1.74428L108.532 1.55047L108.823 1.74428V3.10094L108.532 3.29475L108.242 3.10094L107.951 3.29475V4.55451L107.66 4.74832L107.37 4.55451V3.19785L107.079 3.00404L106.788 3.19785L106.497 3.00404V1.64738L106.788 1.45357L107.079 1.64738L107.37 1.45357V0.193809L107.079 0L106.788 0.193809L106.497 0L106.207 0.193809V1.55047L105.916 1.74428L105.625 1.55047V0.193809L105.335 0L105.044 0.193809L104.753 0L104.462 0.193809V1.55047L104.753 1.74428L105.044 1.55047L105.335 1.74428V3.10094L105.044 3.29475L104.753 3.10094L104.462 3.29475V4.55451L104.172 4.74832L102.815 4.55451V3.19785L102.524 3.00404L102.234 3.19785L101.943 3.00404V1.64738L102.234 1.45357L102.524 1.64738L102.815 1.45357V0.193809L102.524 0L102.234 0.193809L101.846 0L101.555 0.193809V1.55047L101.265 1.74428L100.974 1.55047V0.193809L100.683 0L100.392 0.193809L99.9079 0L99.6172 0.193809V1.55047L99.9079 1.74428ZM107.854 4.65141L108.145 4.4576L108.435 4.65141L108.726 4.4576V3.10094L109.017 2.90713L109.308 3.10094V4.55451L109.598 4.74832L109.889 4.55451L110.18 4.74832V6.10498L109.889 6.29879L109.598 6.10498L109.308 6.29879V7.46164L109.017 7.65545L108.726 7.46164V6.10498L108.435 5.91117L108.145 6.10498L107.854 5.91117V4.65141ZM106.885 7.46164V6.10498L107.176 5.91117L107.466 6.10498V7.46164L107.757 7.65545L108.048 7.46164L108.339 7.65545V9.01211L108.048 9.20592L107.757 9.01211L107.466 9.20592V10.5626L107.176 10.7564L106.885 10.5626V9.20592L106.594 9.01211L106.304 9.20592L106.013 9.01211V7.65545L106.304 7.46164L106.594 7.65545L106.885 7.46164ZM103.881 4.65141L104.172 4.4576L104.462 4.65141L104.753 4.4576V3.10094L105.044 2.90713L105.335 3.10094V4.55451L105.625 4.74832L105.916 4.55451L106.207 4.74832V6.10498L105.916 6.29879L105.625 6.10498L105.335 6.29879V7.46164L105.044 7.65545L104.753 7.46164V6.10498L104.462 5.91117L104.172 6.10498L103.881 5.91117V4.65141Z" fill="#B44406"/>
<path d="M188.284 11.9188L187.993 12.1126L187.702 11.9188V10.5621L187.412 10.3683L187.121 10.5621L186.83 10.3683V9.01167L186.54 8.81786L186.249 9.01167L185.958 8.81786V7.4612L185.667 7.26739L185.377 7.4612L185.086 7.26739V5.91073L184.795 5.71692L184.505 5.91073L184.214 5.71692V4.36026L183.245 4.55407L182.954 4.74788L182.663 4.55407V3.1974L182.373 3.0036L182.082 3.1974L181.791 3.0036V1.64693L181.501 1.45312L181.21 1.64693L180.919 1.45312L180.628 1.64693V3.0036L180.338 3.1974L180.047 3.0036L179.756 3.1974V4.55407L179.466 4.74788L179.175 4.55407L178.884 4.74788V6.10454L178.593 6.29835L178.303 6.10454L178.012 6.29835V7.4612L177.721 7.65501L177.431 7.4612L177.14 7.65501V9.01167L176.849 9.20548L176.558 9.01167L176.268 9.20548V10.5621L175.977 10.7559L175.686 10.5621L175.396 10.7559V12.1126L175.105 12.3064L174.814 12.1126L174.523 12.3064V13.6631L174.814 13.8569L175.105 13.6631L175.396 13.8569L175.686 13.6631V12.3064L175.977 12.1126L176.268 12.3064V13.6631L176.558 13.8569L176.849 13.6631L177.14 13.8569L177.431 13.6631V12.3064L177.14 12.1126L176.849 12.3064L176.558 12.1126V10.7559L176.849 10.5621L177.14 10.7559L177.431 10.5621V9.20548L177.721 9.01167L178.012 9.20548V10.5621L178.303 10.7559L178.593 10.5621L178.884 10.7559V12.1126L178.593 12.3064L178.303 12.1126L178.012 12.3064V13.6631L178.303 13.8569L178.593 13.6631L178.884 13.8569L179.175 13.6631V12.3064L179.466 12.1126L179.756 12.3064V13.6631L180.047 13.8569L180.338 13.6631L180.628 13.8569L180.919 13.6631V12.3064L180.628 12.1126L180.338 12.3064L180.047 12.1126V10.7559L180.338 10.5621L180.628 10.7559L180.919 10.5621V9.20548L181.21 9.01167L181.501 9.20548V10.5621L181.791 10.7559L182.082 10.5621L182.373 10.7559V12.1126L182.082 12.3064L181.791 12.1126L181.501 12.3064V13.6631L181.791 13.8569L182.082 13.6631L182.373 13.8569L182.663 13.6631V12.3064L182.954 12.1126L183.245 12.3064V13.6631L183.536 13.8569L183.826 13.6631L184.117 13.8569L184.408 13.6631V12.3064L184.117 12.1126L183.826 12.3064L183.536 12.1126V10.7559L183.826 10.5621L184.117 10.7559L184.408 10.5621V9.20548L184.698 9.01167L184.989 9.20548V10.5621L185.28 10.7559L185.571 10.5621L185.861 10.7559V12.1126L185.571 12.3064L185.28 12.1126L184.989 12.3064V13.6631L185.28 13.8569L185.571 13.6631L185.861 13.8569L186.152 13.6631V12.3064L186.443 12.1126L186.733 12.3064V13.6631L187.024 13.8569L187.315 13.6631L187.606 13.8569L187.896 13.6631V12.3064L188.284 11.9188ZM180.338 9.01167L180.047 9.20548L179.756 9.01167L179.466 9.20548V10.5621L179.175 10.7559L178.884 10.5621V9.20548L178.593 9.01167L178.303 9.20548L178.012 9.01167V7.65501L178.303 7.4612L178.593 7.65501L178.884 7.4612V6.10454L179.175 5.91073L179.466 6.10454V7.4612L179.756 7.65501L180.047 7.4612L180.338 7.65501V9.01167ZM181.307 6.20144V7.4612L181.016 7.65501L180.725 7.4612V6.10454L180.435 5.91073L180.144 6.10454L179.853 5.91073V4.55407L180.144 4.36026L180.435 4.55407L180.725 4.36026V3.0036L181.016 2.80979L181.307 3.0036V4.55407L181.597 4.74788L181.888 4.55407L182.179 4.74788V6.10454L181.888 6.29835L181.597 6.10454L181.307 6.20144ZM184.311 9.01167L184.02 9.20548L183.729 9.01167L183.439 9.20548V10.5621L183.148 10.7559L182.857 10.5621V9.20548L182.566 9.01167L182.276 9.20548L181.985 9.01167V7.65501L182.276 7.4612L182.566 7.65501L182.857 7.4612V6.10454L183.148 5.91073L183.439 6.10454V7.4612L183.729 7.65501L184.02 7.4612L184.311 7.65501V9.01167Z" fill="#B44406"/>
<path d="M216 11.9193L215.709 12.1131L215.419 11.9193V10.5626L215.128 10.3688L214.837 10.5626L214.547 10.3688V9.01212L214.256 8.81831L213.965 9.01212L213.675 8.81831V7.46165L213.384 7.26784L213.093 7.46165H212.318V6.10499L212.027 5.91118L211.736 6.10499L211.446 5.91118V4.55452L211.155 4.36071L210.864 4.55452L210.574 4.36071V3.00404L210.283 2.81024L209.992 3.00404L209.701 2.81024V1.45357L209.411 1.25977L209.12 1.45357L208.829 1.25977L208.539 1.45357V2.81024L208.248 3.00404L207.957 2.81024L207.666 3.00404V4.55452L207.376 4.74832L207.085 4.55452L206.794 4.74832V6.10499L206.504 6.2988L206.213 6.10499L205.922 6.2988V7.46165L205.631 7.65546L205.341 7.46165L205.05 7.65546V9.01212L204.759 9.20593L204.469 9.01212L204.178 9.20593V10.5626L203.887 10.7564L203.596 10.5626L203.306 10.7564V12.1131L203.015 12.3069L202.724 12.1131L202.434 12.3069V13.6635L202.724 13.8573L203.015 13.6635L203.306 13.8573L203.596 13.6635V12.3069L203.887 12.1131L204.178 12.3069V13.6635L204.469 13.8573L204.759 13.6635L205.05 13.8573L205.341 13.6635V12.3069L205.05 12.1131L204.759 12.3069L204.469 12.1131V10.7564L204.759 10.5626L205.05 10.7564L205.341 10.5626V9.20593L205.631 9.01212L205.922 9.20593V10.5626L206.213 10.7564L206.504 10.5626L206.794 10.7564V12.1131L206.504 12.3069L206.213 12.1131L205.922 12.3069V13.6635L206.213 13.8573L206.504 13.6635L206.794 13.8573L207.085 13.6635V12.3069L207.376 12.1131L207.666 12.3069V13.6635L207.957 13.8573L208.248 13.6635L208.539 13.8573L208.829 13.6635V12.3069L208.539 12.1131L208.248 12.3069L207.957 12.1131V10.7564L208.248 10.5626L208.539 10.7564L208.829 10.5626V9.20593L209.12 9.01212L209.411 9.20593V10.5626L209.701 10.7564L209.992 10.5626L210.283 10.7564V12.1131L209.992 12.3069L209.701 12.1131L209.411 12.3069V13.6635L209.701 13.8573L209.992 13.6635L210.283 13.8573L210.574 13.6635V12.3069L210.864 12.1131L211.155 12.3069V13.6635L211.446 13.8573L211.736 13.6635L212.027 13.8573L212.318 13.6635V12.3069L212.027 12.1131L211.736 12.3069L211.446 12.1131V10.7564L211.736 10.5626L212.027 10.7564L212.318 10.5626V9.20593L212.609 9.01212L212.899 9.20593V10.5626L213.19 10.7564L213.481 10.5626L213.771 10.7564V12.1131L213.481 12.3069L213.19 12.1131L212.899 12.3069V13.6635L213.19 13.8573L213.481 13.6635L213.771 13.8573L214.062 13.6635V12.3069L214.353 12.1131L214.644 12.3069V13.6635L214.934 13.8573L215.225 13.6635L215.516 13.8573L215.806 13.6635V12.3069L216 11.9193ZM207.957 9.01212L207.666 9.20593L207.376 9.01212L207.085 9.20593V10.5626L206.794 10.7564L206.504 10.5626V9.20593L206.213 9.01212L205.922 9.20593L205.631 9.01212V7.65546L205.922 7.46165L206.213 7.65546L206.504 7.46165V6.10499L206.794 5.91118L207.085 6.10499V7.46165L207.376 7.65546L207.666 7.46165L207.957 7.65546V9.01212ZM208.926 6.20189V7.46165L208.635 7.65546L208.345 7.46165V6.10499L208.054 5.91118L207.763 6.10499L207.473 5.91118V4.55452L207.763 4.36071L208.054 4.55452L208.345 4.36071V3.00404L208.635 2.81024L208.926 3.00404V4.55452L209.217 4.74832L209.508 4.55452L209.798 4.74832V6.10499L209.508 6.2988L209.217 6.10499L208.926 6.20189ZM211.93 9.01212L211.639 9.20593L211.349 9.01212L211.058 9.20593V10.5626L210.767 10.7564L210.477 10.5626V9.20593L210.186 9.01212L209.895 9.20593L209.605 9.01212V7.65546L209.895 7.46165L210.186 7.65546L210.477 7.46165V6.10499L210.767 5.91118L211.058 6.10499V7.46165L211.349 7.65546L211.639 7.46165L211.93 7.65546V9.01212Z" fill="#B44406"/>
<path d="M187.412 1.74428L187.702 1.55047L187.993 1.74428V3.10094L188.284 3.29475L188.575 3.10094L188.865 3.29475V4.55451L189.156 4.74832L189.447 4.55451L189.738 4.74832V6.10498L190.028 6.29879L190.319 6.10498L190.61 6.29879V7.46164L190.9 7.65545L191.191 7.46164L191.482 7.65545V9.01211L191.772 9.20592L192.063 9.01211L192.354 9.20592V10.5626L192.645 10.7564L192.935 10.5626L193.226 10.7564V12.1131L193.517 12.3069L193.808 12.1131L194.098 12.3069L194.389 12.1131V10.7564L194.68 10.5626L194.97 10.7564L195.261 10.5626V9.20592L195.552 9.01211L195.842 9.20592L196.133 9.01211V7.65545L197.781 7.46164L198.071 7.65545L198.362 7.46164V6.10498L198.653 5.91117L198.943 6.10498L199.234 5.91117V4.55451L199.525 4.3607L199.816 4.55451L200.106 4.3607V3.00404L200.397 2.81023L200.688 3.00404L200.978 2.81023V1.45357L201.269 1.25976L201.56 1.45357L201.851 1.25976V0.193809L201.56 0L201.269 0.193809L200.978 0L200.688 0.193809V1.55047L200.397 1.74428L200.106 1.55047V0.193809L199.816 0L199.525 0.193809L199.234 0L198.943 0.193809V1.55047L199.234 1.74428L199.525 1.55047L199.816 1.74428V3.10094L199.525 3.29475L199.234 3.10094L198.943 3.29475V4.55451L198.653 4.74832L198.362 4.55451V3.19785L198.071 3.00404L197.781 3.19785L197.49 3.00404V1.64738L197.781 1.45357L198.071 1.64738L198.362 1.45357V0.193809L198.071 0L197.781 0.193809L197.49 0L197.199 0.193809V1.55047L196.908 1.74428L196.618 1.55047V0.193809L196.327 0L195.842 0.193809L195.552 0L195.261 0.193809V1.55047L195.552 1.74428L195.842 1.55047L196.133 1.74428V3.10094L195.842 3.29475L195.552 3.10094L195.261 3.29475V4.55451L194.97 4.74832L194.68 4.55451V3.19785L194.389 3.00404L194.098 3.19785L193.808 3.00404V1.64738L194.098 1.45357L194.389 1.64738L194.68 1.45357V0.193809L194.389 0L194.098 0.193809L193.808 0L193.517 0.193809V1.55047L193.226 1.74428L192.935 1.55047V0.193809L192.645 0L192.354 0.193809L192.063 0L191.772 0.193809V1.55047L192.063 1.74428L192.354 1.55047L192.645 1.74428V3.10094L192.354 3.29475L192.063 3.10094L191.772 3.29475V4.55451L191.482 4.74832L191.191 4.55451V3.19785L190.9 3.00404L190.61 3.19785L190.319 3.00404V1.64738L190.61 1.45357L190.9 1.64738L191.191 1.45357V0.193809L190.9 0L190.61 0.193809L190.319 0L190.028 0.193809V1.55047L189.738 1.74428L189.447 1.55047V0.193809L188.09 0L187.799 0.193809L187.509 0L187.121 0.193809V1.55047L187.412 1.74428ZM195.455 4.65141L195.842 4.55451L196.133 4.74832L196.424 4.55451V3.19785L196.715 3.00404L197.005 3.19785V4.55451L197.296 4.74832L197.781 4.55451L198.071 4.74832V6.10498L197.781 6.29879L197.49 6.10498L197.199 6.29879V7.46164L196.908 7.65545L196.618 7.46164V6.10498L196.327 5.91117L196.036 6.10498L195.746 5.91117V4.65141H195.455ZM194.486 7.46164V6.10498L194.777 5.91117L195.067 6.10498V7.46164L195.358 7.65545L195.842 7.46164L196.133 7.65545V9.01211L195.842 9.20592L195.552 9.01211L195.261 9.20592V10.5626L194.97 10.7564L194.68 10.5626V9.20592L194.389 9.01211L194.098 9.20592L193.808 9.01211V7.65545L194.098 7.46164L194.389 7.65545L194.486 7.46164ZM191.482 4.65141L191.772 4.4576L192.063 4.65141L192.354 4.4576V3.10094L192.645 2.90713L192.935 3.10094V4.55451L193.226 4.74832L193.517 4.55451L193.808 4.74832V6.10498L193.517 6.29879L193.226 6.10498L192.935 6.29879V7.46164L192.645 7.65545L192.354 7.46164V6.10498L192.063 5.91117L191.772 6.10498L191.482 5.91117V4.65141Z" fill="#B44406"/>
<path d="M65.6992 12.1132V13.4699L66.0868 13.6637L66.3776 13.4699V12.1132L66.0868 11.9194L65.6992 12.1132Z" fill="#B44406"/>
<path d="M66.0879 10.6601V11.9199L66.3787 12.1137L66.7662 11.9199V10.6601L66.3787 10.4663L66.0879 10.6601Z" fill="#B44406"/>
<path d="M67.7363 12.1132V13.4699L68.027 13.6637L68.4147 13.4699V12.1132L68.027 11.9194L67.7363 12.1132Z" fill="#B44406"/>
<path d="M68.0254 10.6601V11.9199L68.413 12.1137L68.7037 11.9199V10.6601L68.413 10.4663L68.0254 10.6601Z" fill="#B44406"/>
<path d="M75.3906 10.6601V11.9199L75.7782 12.1137L76.069 11.9199V10.6601L75.7782 10.4663L75.3906 10.6601Z" fill="#B44406"/>
<path d="M75.7773 12.1132V13.4699L76.0681 13.6637L76.3588 13.4699V12.1132L76.0681 11.9194L75.7773 12.1132Z" fill="#B44406"/>
<path d="M76.7461 10.6601V11.9199L77.0369 12.1137L77.4244 11.9199V10.6601L77.0369 10.4663L76.7461 10.6601Z" fill="#B44406"/>
<path d="M77.0391 12.1132V13.4699L77.4266 13.6637L77.7173 13.4699V12.1132L77.4266 11.9194L77.0391 12.1132Z" fill="#B44406"/>
<path d="M65.4102 7.65621V9.01287L65.7009 9.10978L66.0884 9.01287V7.65621L65.7009 7.4624L65.4102 7.65621Z" fill="#B44406"/>
<path d="M65.6992 6.20211V7.46187L66.0868 7.65568L66.3776 7.46187V6.20211L66.0868 6.0083L65.6992 6.20211Z" fill="#B44406"/>
<path d="M66.0879 4.65133V6.00799L66.3787 6.2018L66.7662 6.00799V4.65133L66.3787 4.45752L66.0879 4.65133Z" fill="#B44406"/>
<path d="M66.3789 9.10911V10.4658L66.7665 10.6596L67.0572 10.4658V9.10911L66.7665 9.01221L66.3789 9.10911Z" fill="#B44406"/>
<path d="M66.7656 7.65621V9.01287L67.0563 9.10978L67.3471 9.01287V7.65621L67.0563 7.4624L66.7656 7.65621Z" fill="#B44406"/>
<path d="M66.7656 4.65133V6.00799L67.0563 6.2018L67.3471 6.00799V4.65133L67.0563 4.45752L66.7656 4.65133Z" fill="#B44406"/>
<path d="M67.0566 10.4658L67.3474 10.6596L67.735 10.4658V9.10911L67.3474 9.01221L67.0566 9.10911V10.4658Z" fill="#B44406"/>
<path d="M67.0566 6.20211V7.46187L67.3474 7.65568L67.735 7.46187V6.20211L67.3474 6.0083L67.0566 6.20211Z" fill="#B44406"/>
<path d="M67.0566 3.1982V4.45796L67.3474 4.65177L67.735 4.45796V3.1982L67.3474 3.00439L67.0566 3.1982Z" fill="#B44406"/>
<path d="M67.3477 7.65621V9.01287L67.7352 9.10978L68.0259 9.01287V7.65621L67.7352 7.4624L67.3477 7.65621Z" fill="#B44406"/>
<path d="M67.3477 4.65133V6.00799L67.7352 6.2018L68.0259 6.00799V4.65133L67.7352 4.45752L67.3477 4.65133Z" fill="#B44406"/>
<path d="M67.7363 6.20211V7.46187L68.027 7.65568L68.4147 7.46187V6.20211L68.027 6.0083L67.7363 6.20211Z" fill="#B44406"/>
<path d="M67.7363 3.1982V4.45796L68.027 4.65177L68.4147 4.45796V3.1982L68.027 3.00439L67.7363 3.1982Z" fill="#B44406"/>
<path d="M68.0254 7.65621V9.01287L68.413 9.10978L68.7037 9.01287V7.65621L68.413 7.4624L68.0254 7.65621Z" fill="#B44406"/>
<path d="M68.0254 4.65133V6.00799L68.413 6.2018L68.7037 6.00799V4.65133L68.413 4.45752L68.0254 4.65133Z" fill="#B44406"/>
<path d="M68.0254 1.6472V3.00386L68.413 3.19767L68.7037 3.00386V1.6472L68.413 1.55029L68.0254 1.6472Z" fill="#B44406"/>
<path d="M68.4141 9.10911V10.4658L68.7048 10.6596L69.0924 10.4658V9.10911L68.7048 9.01221L68.4141 9.10911Z" fill="#B44406"/>
<path d="M68.4141 6.20211V7.46187L68.7048 7.65568L69.0924 7.46187V6.20211L68.7048 6.0083L68.4141 6.20211Z" fill="#B44406"/>
<path d="M68.4141 3.1982V4.45796L68.7048 4.65177L69.0924 4.45796V3.1982L68.7048 3.00439L68.4141 3.1982Z" fill="#B44406"/>
<path d="M68.7051 7.65621V9.01287L69.0927 9.10978L69.3834 9.01287V7.65621L69.0927 7.4624L68.7051 7.65621Z" fill="#B44406"/>
<path d="M68.7051 4.65133V6.00799L69.0927 6.2018L69.3834 6.00799V4.65133L69.0927 4.45752L68.7051 4.65133Z" fill="#B44406"/>
<path d="M68.7051 1.6472V3.00386L69.0927 3.19767L69.3834 3.00386V1.6472L69.0927 1.55029L68.7051 1.6472Z" fill="#B44406"/>
<path d="M69.0918 6.20211V7.46187L69.3825 7.65568L69.7701 7.46187V6.20211L69.3825 6.0083L69.0918 6.20211Z" fill="#B44406"/>
<path d="M69.0918 3.1982V4.45796L69.3825 4.65177L69.7701 4.45796V3.1982L69.3825 3.00439L69.0918 3.1982Z" fill="#B44406"/>
<path d="M69.3828 4.65133V6.00799L69.7705 6.2018L70.0612 6.00799V4.65133L69.7705 4.45752L69.3828 4.65133Z" fill="#B44406"/>
<path d="M69.7705 1.55029L69.3828 1.6472V3.00386L69.7705 3.19767L70.0612 3.00386V1.6472L69.7705 1.55029Z" fill="#B44406"/>
<path d="M69.7695 6.20211V7.46187L70.0602 7.65568L70.3509 7.46187V6.20211L70.0602 6.0083L69.7695 6.20211Z" fill="#B44406"/>
<path d="M69.7695 3.1982V4.45796L70.0602 4.65177L70.3509 4.45796V3.1982L70.0602 3.00439L69.7695 3.1982Z" fill="#B44406"/>
<path d="M69.7695 0.194297V1.55096L70.0602 1.64786L70.3509 1.55096V0.194297L70.0602 0.000488281L69.7695 0.194297Z" fill="#B44406"/>
<path d="M70.0625 4.65133V6.00799L70.3532 6.2018L70.7408 6.00799V4.65133L70.3532 4.45752L70.0625 4.65133Z" fill="#B44406"/>
<path d="M70.0625 1.6472V3.00386L70.3532 3.19767L70.7408 3.00386V1.6472L70.3532 1.55029L70.0625 1.6472Z" fill="#B44406"/>
<path d="M70.3516 6.20211V7.46187L70.7392 7.65568L71.0299 7.46187V6.20211L70.7392 6.0083L70.3516 6.20211Z" fill="#B44406"/>
<path d="M70.3516 3.1982V4.45796L70.7392 4.65177L71.0299 4.45796V3.1982L70.7392 3.00439L70.3516 3.1982Z" fill="#B44406"/>
<path d="M70.3516 0.194297V1.55096L70.7392 1.64786L71.0299 1.55096V0.194297L70.7392 0.000488281L70.3516 0.194297Z" fill="#B44406"/>
<path d="M70.7402 4.65133V6.00799L71.0309 6.2018L71.4185 6.00799V4.65133L71.0309 4.45752L70.7402 4.65133Z" fill="#B44406"/>
<path d="M70.7402 1.6472V3.00386L71.0309 3.19767L71.4185 3.00386V1.6472L71.0309 1.55029L70.7402 1.6472Z" fill="#B44406"/>
<path d="M71.0312 6.20211V7.46187L71.4188 7.65568L71.7096 7.46187V6.20211L71.4188 6.0083L71.0312 6.20211Z" fill="#B44406"/>
<path d="M71.0312 3.1982V4.45796L71.4188 4.65177L71.7096 4.45796V3.1982L71.4188 3.00439L71.0312 3.1982Z" fill="#B44406"/>
<path d="M71.0312 0.194297V1.55096L71.4188 1.64786L71.7096 1.55096V0.194297L71.4188 0.000488281L71.0312 0.194297Z" fill="#B44406"/>
<path d="M71.418 4.65133V6.00799L71.7087 6.2018L72.0963 6.00799V4.65133L71.7087 4.45752L71.418 4.65133Z" fill="#B44406"/>
<path d="M71.416 1.6472V3.00386L71.7068 3.19767L72.0944 3.00386V1.6472L71.7068 1.55029L71.416 1.6472Z" fill="#B44406"/>
<path d="M71.709 6.20211V7.46187L72.0966 7.65568L72.3873 7.46187V6.20211L72.0966 6.0083L71.709 6.20211Z" fill="#B44406"/>
<path d="M71.709 3.1982V4.45796L72.0966 4.65177L72.3873 4.45796V3.1982L72.0966 3.00439L71.709 3.1982Z" fill="#B44406"/>
<path d="M71.709 0.194297V1.55096L72.0966 1.64786L72.3873 1.55096V0.194297L72.0966 0.000488281L71.709 0.194297Z" fill="#B44406"/>
<path d="M72.0977 4.65133V6.00799L72.3884 6.2018L72.776 6.00799V4.65133L72.3884 4.45752L72.0977 4.65133Z" fill="#B44406"/>
<path d="M72.3884 1.55029L72.0977 1.6472V3.00386L72.3884 3.19767L72.776 3.00386V1.6472L72.3884 1.55029Z" fill="#B44406"/>
<path d="M72.3867 6.20211V7.46187L72.7744 7.65568L73.0651 7.46187V6.20211L72.7744 6.0083L72.3867 6.20211Z" fill="#B44406"/>
<path d="M72.3867 3.1982V4.45796L72.7744 4.65177L73.0651 4.45796V3.1982L72.7744 3.00439L72.3867 3.1982Z" fill="#B44406"/>
<path d="M72.7734 4.65133V6.00799L73.0641 6.2018L73.3548 6.00799V4.65133L73.0641 4.45752L72.7734 4.65133Z" fill="#B44406"/>
<path d="M72.7734 1.6472V3.00386L73.0641 3.19767L73.3548 3.00386V1.6472L73.0641 1.55029L72.7734 1.6472Z" fill="#B44406"/>
<path d="M73.0645 6.20211V7.46187L73.3552 7.65568L73.7428 7.46187V6.20211L73.3552 6.0083L73.0645 6.20211Z" fill="#B44406"/>
<path d="M73.0664 3.1982V4.45796L73.3571 4.65177L73.7447 4.45796V3.1982L73.3571 3.00439L73.0664 3.1982Z" fill="#B44406"/>
<path d="M73.3555 4.65133V6.00799L73.7431 6.2018L74.0338 6.00799V4.65133L73.7431 4.45752L73.3555 4.65133Z" fill="#B44406"/>
<path d="M73.3555 1.6472V3.00386L73.7431 3.19767L74.0338 3.00386V1.6472L73.7431 1.55029L73.3555 1.6472Z" fill="#B44406"/>
<path d="M73.7422 6.20211V7.46187L74.0329 7.65568L74.4205 7.46187V6.20211L74.0329 6.0083L73.7422 6.20211Z" fill="#B44406"/>
<path d="M73.7422 3.1982V4.45796L74.0329 4.65177L74.4205 4.45796V3.1982L74.0329 3.00439L73.7422 3.1982Z" fill="#B44406"/>
<path d="M73.7422 0.194297V1.55096L74.0329 1.64786L74.4205 1.55096V0.194297L74.0329 0.000488281L73.7422 0.194297Z" fill="#B44406"/>
<path d="M74.0352 4.65133V6.00799L74.4228 6.2018L74.7135 6.00799V4.65133L74.4228 4.45752L74.0352 4.65133Z" fill="#B44406"/>
<path d="M74.0352 1.6472V3.00386L74.4228 3.19767L74.7135 3.00386V1.6472L74.4228 1.55029L74.0352 1.6472Z" fill="#B44406"/>
<path d="M74.4219 6.20211V7.46187L74.7126 7.65568L75.1002 7.46187V6.20211L74.7126 6.0083L74.4219 6.20211Z" fill="#B44406"/>
<path d="M74.4219 3.1982V4.45796L74.7126 4.65177L75.1002 4.45796V3.1982L74.7126 3.00439L74.4219 3.1982Z" fill="#B44406"/>
<path d="M74.4219 0.194297V1.55096L74.7126 1.64786L75.1002 1.55096V0.194297L74.7126 0.000488281L74.4219 0.194297Z" fill="#B44406"/>
<path d="M74.7129 7.65621V9.01287L75.1005 9.10978L75.3912 9.01287V7.65621L75.1005 7.4624L74.7129 7.65621Z" fill="#B44406"/>
<path d="M74.7129 4.65133V6.00799L75.1005 6.2018L75.3912 6.00799V4.65133L75.1005 4.45752L74.7129 4.65133Z" fill="#B44406"/>
<path d="M75.1005 1.55029L74.7129 1.6472V3.00386L75.1005 3.19767L75.3912 3.00386V1.6472L75.1005 1.55029Z" fill="#B44406"/>
<path d="M75.1016 9.10911V10.4658L75.3923 10.6596L75.7798 10.4658V9.10911L75.3923 9.01221L75.1016 9.10911Z" fill="#B44406"/>
<path d="M75.1016 6.20211V7.46187L75.3923 7.65568L75.7798 7.46187V6.20211L75.3923 6.0083L75.1016 6.20211Z" fill="#B44406"/>
<path d="M75.1016 3.1982V4.45796L75.3923 4.65177L75.7798 4.45796V3.1982L75.3923 3.00439L75.1016 3.1982Z" fill="#B44406"/>
<path d="M75.1016 0.194297V1.55096L75.3923 1.64786L75.7798 1.55096V0.194297L75.3923 0.000488281L75.1016 0.194297Z" fill="#B44406"/>
<path d="M75.3906 7.65621V9.01287L75.7782 9.10978L76.069 9.01287V7.65621L75.7782 7.4624L75.3906 7.65621Z" fill="#B44406"/>
<path d="M75.3906 4.65133V6.00799L75.7782 6.2018L76.069 6.00799V4.65133L75.7782 4.45752L75.3906 4.65133Z" fill="#B44406"/>
<path d="M75.3906 1.6472V3.00386L75.7782 3.19767L76.069 3.00386V1.6472L75.7782 1.55029L75.3906 1.6472Z" fill="#B44406"/>
<path d="M75.7773 9.10911V10.4658L76.0681 10.6596L76.3588 10.4658V9.10911L76.0681 9.01221L75.7773 9.10911Z" fill="#B44406"/>
<path d="M75.7773 6.20211V7.46187L76.0681 7.65568L76.3588 7.46187V6.20211L76.0681 6.0083L75.7773 6.20211Z" fill="#B44406"/>
<path d="M75.7773 3.1982V4.45796L76.0681 4.65177L76.3588 4.45796V3.1982L76.0681 3.00439L75.7773 3.1982Z" fill="#B44406"/>
<path d="M75.7773 0.194297V1.55096L76.0681 1.64786L76.3588 1.55096V0.194297L76.0681 0.000488281L75.7773 0.194297Z" fill="#B44406"/>
<path d="M76.0703 7.65621V9.01287L76.361 9.10978L76.7486 9.01287V7.65621L76.361 7.4624L76.0703 7.65621Z" fill="#B44406"/>
<path d="M76.0703 4.65133V6.00799L76.361 6.2018L76.7486 6.00799V4.65133L76.361 4.45752L76.0703 4.65133Z" fill="#B44406"/>
<path d="M76.0703 1.6472V3.00386L76.361 3.19767L76.7486 3.00386V1.6472L76.361 1.55029L76.0703 1.6472Z" fill="#B44406"/>
<path d="M76.3594 6.20211V7.46187L76.747 7.65568L77.0377 7.46187V6.20211L76.747 6.0083L76.3594 6.20211Z" fill="#B44406"/>
<path d="M76.3594 3.1982V4.45796L76.747 4.65177L77.0377 4.45796V3.1982L76.747 3.00439L76.3594 3.1982Z" fill="#B44406"/>
<path d="M76.7461 7.65621V9.01287L77.0369 9.10978L77.4244 9.01287V7.65621L77.0369 7.4624L76.7461 7.65621Z" fill="#B44406"/>
<path d="M76.7461 4.65133V6.00799L77.0369 6.2018L77.4244 6.00799V4.65133L77.0369 4.45752L76.7461 4.65133Z" fill="#B44406"/>
<path d="M76.7461 1.6472V3.00386L77.0369 3.19767L77.4244 3.00386V1.6472L77.0369 1.55029L76.7461 1.6472Z" fill="#B44406"/>
<path d="M77.0391 9.10911V10.4658L77.4266 10.6596L77.7173 10.4658V9.10911L77.4266 9.01221L77.0391 9.10911Z" fill="#B44406"/>
<path d="M77.0371 6.20211V7.46187L77.4247 7.65568L77.7154 7.46187V6.20211L77.4247 6.0083L77.0371 6.20211Z" fill="#B44406"/>
<path d="M77.0391 3.1982V4.45796L77.4266 4.65177L77.7173 4.45796V3.1982L77.4266 3.00439L77.0391 3.1982Z" fill="#B44406"/>
<path d="M77.4258 7.65621V9.01287L77.7165 9.10978L78.1041 9.01287V7.65621L77.7165 7.4624L77.4258 7.65621Z" fill="#B44406"/>
<path d="M77.4258 4.65133V6.00799L77.7165 6.2018L78.1041 6.00799V4.65133L77.7165 4.45752L77.4258 4.65133Z" fill="#B44406"/>
<path d="M77.7165 1.55029L77.4258 1.6472V3.00386L77.7165 3.19767L78.1041 3.00386V1.6472L77.7165 1.55029Z" fill="#B44406"/>
<path d="M77.7148 6.20211V7.46187L78.1025 7.65568L78.3932 7.46187V6.20211L78.1025 6.0083L77.7148 6.20211Z" fill="#B44406"/>
<path d="M77.7148 3.1982V4.45796L78.1025 4.65177L78.3932 4.45796V3.1982L78.1025 3.00439L77.7148 3.1982Z" fill="#B44406"/>
<path d="M78.1055 7.65621V9.01287L78.3962 9.10978L78.7838 9.01287V7.65621L78.3962 7.4624L78.1055 7.65621Z" fill="#B44406"/>
<path d="M78.1055 4.65133V6.00799L78.3962 6.2018L78.7838 6.00799V4.65133L78.3962 4.45752L78.1055 4.65133Z" fill="#B44406"/>
<path d="M78.3945 6.20211V7.46187L78.7822 7.65568L79.0729 7.46187V6.20211L78.7822 6.0083L78.3945 6.20211Z" fill="#B44406"/>
<path d="M78.3945 3.1982V4.45796L78.7822 4.65177L79.0729 4.45796V3.1982L78.7822 3.00439L78.3945 3.1982Z" fill="#B44406"/>
<path d="M78.7812 7.65621V9.01287L79.072 9.10978L79.3627 9.01287V7.65621L79.072 7.4624L78.7812 7.65621Z" fill="#B44406"/>
<path d="M78.7812 4.65133V6.00799L79.072 6.2018L79.3627 6.00799V4.65133L79.072 4.45752L78.7812 4.65133Z" fill="#B44406"/>
<path d="M79.0742 6.20211V7.46187L79.3649 7.65568L79.7526 7.46187V6.20211L79.3649 6.0083L79.0742 6.20211Z" fill="#B44406"/>
<path d="M79.0742 3.1982V4.45796L79.3649 4.65177L79.7526 4.45796V3.1982L79.3649 3.00439L79.0742 3.1982Z" fill="#B44406"/>
<path d="M79.3633 4.65133V6.00799L79.7509 6.2018L80.0416 6.00799V4.65133L79.7509 4.45752L79.3633 4.65133Z" fill="#B44406"/>
<path d="M79.752 6.20211V7.46187L80.0427 7.65568L80.4303 7.46187V6.20211L80.0427 6.0083L79.752 6.20211Z" fill="#B44406"/>
<path d="M80.043 4.65133V6.00799L80.4306 6.2018L80.7213 6.00799V4.65133L80.4306 4.45752L80.043 4.65133Z" fill="#B44406"/>
<path d="M80.4297 6.20211V7.46187L80.7204 7.65568L81.108 7.46187V6.20211L80.7204 6.0083L80.4297 6.20211Z" fill="#B44406"/>
<path d="M80.7207 4.65133V6.00799L81.1083 6.2018L81.399 6.00799V4.65133L81.1083 4.45752L80.7207 4.65133Z" fill="#B44406"/>
<path d="M81.1074 6.20211V7.46187L81.3982 7.65568L81.7858 7.46187V6.20211L81.3982 6.0083L81.1074 6.20211Z" fill="#B44406"/>
<path d="M81.1074 3.1982V4.45796L81.3982 4.65177L81.7858 4.45796V3.1982L81.3982 3.00439L81.1074 3.1982Z" fill="#B44406"/>
<path d="M81.3984 4.65133V6.00799L81.786 6.2018L82.0767 6.00799V4.65133L81.786 4.45752L81.3984 4.65133Z" fill="#B44406"/>
<path d="M81.7871 6.20211V7.46187L82.0778 7.65568L82.3686 7.46187V6.20211L82.0778 6.0083L81.7871 6.20211Z" fill="#B44406"/>
<path d="M81.7871 3.1982V4.45796L82.0778 4.65177L82.3686 4.45796V3.1982L82.0778 3.00439L81.7871 3.1982Z" fill="#B44406"/>
<path d="M82.0781 4.65133V6.00799L82.3689 6.2018L82.7565 6.00799V4.65133L82.3689 4.45752L82.0781 4.65133Z" fill="#B44406"/>
<path d="M82.0781 1.6472V3.00386L82.3689 3.19767L82.7565 3.00386V1.6472L82.3689 1.55029L82.0781 1.6472Z" fill="#B44406"/>
<path d="M82.3672 3.1982V4.45796L82.7548 4.65177L83.0455 4.45796V3.1982L82.7548 3.00439L82.3672 3.1982Z" fill="#B44406"/>
<path d="M82.7559 4.65133V6.00799L83.0466 6.2018L83.4342 6.00799V4.65133L83.0466 4.45752L82.7559 4.65133Z" fill="#B44406"/>
<path d="M82.7559 1.6472V3.00386L83.0466 3.19767L83.4342 3.00386V1.6472L83.0466 1.55029L82.7559 1.6472Z" fill="#B44406"/>
<path d="M83.0469 3.1982V4.45796L83.4345 4.65177L83.7252 4.45796V3.1982L83.4345 3.00439L83.0469 3.1982Z" fill="#B44406"/>
<path d="M83.4336 1.6472V3.00386L83.7243 3.19767L84.1119 3.00386V1.6472L83.7243 1.55029L83.4336 1.6472Z" fill="#B44406"/>
<path d="M83.7266 3.1982V4.45796L84.1142 4.65177L84.4049 4.45796V3.1982L84.1142 3.00439L83.7266 3.1982Z" fill="#B44406"/>
<path d="M84.1133 1.6472V3.00386L84.404 3.19767L84.7916 3.00386V1.6472L84.404 1.55029L84.1133 1.6472Z" fill="#B44406"/>
<path d="M84.791 1.6472V3.00386L85.0817 3.19767L85.3724 3.00386V1.6472L85.0817 1.55029L84.791 1.6472Z" fill="#B44406"/>
<path d="M72.3867 0.194297V1.55096L72.7744 1.64786L73.0651 1.55096V0.194297L72.7744 0.000488281L72.3867 0.194297Z" fill="#B44406"/>
<path d="M73.0664 0.194297V1.55096L73.454 1.64786L73.7447 1.55096V0.194297L73.454 0.000488281L73.0664 0.194297Z" fill="#B44406"/>
<path d="M83.0469 0.194297V1.55096L83.4345 1.64786L83.7252 1.55096V0.194297L83.4345 0.000488281L83.0469 0.194297Z" fill="#B44406"/>
<path d="M83.7266 0.194297V1.55096L84.1142 1.64786L84.4049 1.55096V0.194297L84.1142 0.000488281L83.7266 0.194297Z" fill="#B44406"/>
<path d="M84.4023 0.194297V1.55096L84.79 1.64786L85.0807 1.55096V0.194297L84.79 0.000488281L84.4023 0.194297Z" fill="#B44406"/>
<path d="M85.082 0.194297V1.55096L85.4696 1.64786L85.7604 1.55096V0.194297L85.4696 0.000488281L85.082 0.194297Z" fill="#B44406"/>
<path d="M85.7598 0.194297V1.55096L86.0505 1.64786L86.438 1.55096V0.194297L86.0505 0.000488281L85.7598 0.194297Z" fill="#B44406"/>
<path d="M86.4375 0.194297V1.55096L86.7283 1.64786L87.1158 1.55096V0.194297L86.7283 0.000488281L86.4375 0.194297Z" fill="#B44406"/>
<path d="M61.0494 12.1132V13.4699L60.7587 13.6637L60.3711 13.4699V12.1132L60.7587 11.9194L61.0494 12.1132Z" fill="#B44406"/>
<path d="M60.7584 10.6601V11.9199L60.3708 12.1137L60.0801 11.9199V10.6601L60.3708 10.4663L60.7584 10.6601Z" fill="#B44406"/>
<path d="M59.015 12.1132V13.4699L58.7243 13.6637L58.4336 13.4699V12.1132L58.7243 11.9194L59.015 12.1132Z" fill="#B44406"/>
<path d="M58.7252 10.6601V11.9199L58.4345 12.1137L58.0469 11.9199V10.6601L58.4345 10.4663L58.7252 10.6601Z" fill="#B44406"/>
<path d="M51.358 10.6601V11.9199L51.0673 12.1137L50.6797 11.9199V10.6601L51.0673 10.4663L51.358 10.6601Z" fill="#B44406"/>
<path d="M51.0689 12.1132V13.4699L50.6813 13.6637L50.3906 13.4699V12.1132L50.6813 11.9194L51.0689 12.1132Z" fill="#B44406"/>
<path d="M50.0033 10.6601V11.9199L49.7126 12.1137L49.4219 11.9199V10.6601L49.7126 10.4663L50.0033 10.6601Z" fill="#B44406"/>
<path d="M49.7115 12.1132V13.4699L49.4208 13.6637L49.0332 13.4699V12.1132L49.4208 11.9194L49.7115 12.1132Z" fill="#B44406"/>
<path d="M61.4362 7.65621V9.01287L61.0486 9.10978L60.7578 9.01287V7.65621L61.0486 7.4624L61.4362 7.65621Z" fill="#B44406"/>
<path d="M61.0494 6.20211V7.46187L60.7587 7.65568L60.3711 7.46187V6.20211L60.7587 6.0083L61.0494 6.20211Z" fill="#B44406"/>
<path d="M60.7584 4.65133V6.00799L60.3708 6.2018L60.0801 6.00799V4.65133L60.3708 4.45752L60.7584 4.65133Z" fill="#B44406"/>
<path d="M60.3697 9.10911V10.4658L60.079 10.6596L59.6914 10.4658V9.10911L60.079 9.01221L60.3697 9.10911Z" fill="#B44406"/>
<path d="M60.0807 7.65621V9.01287L59.693 9.10978L59.4023 9.01287V7.65621L59.693 7.4624L60.0807 7.65621Z" fill="#B44406"/>
<path d="M60.0807 4.65133V6.00799L59.693 6.2018L59.4023 6.00799V4.65133L59.693 4.45752L60.0807 4.65133Z" fill="#B44406"/>
<path d="M59.694 10.4658L59.4033 10.6596L59.0156 10.4658V9.10911L59.4033 9.01221L59.694 9.10911V10.4658Z" fill="#B44406"/>
<path d="M59.694 6.20211V7.46187L59.4033 7.65568L59.0156 7.46187V6.20211L59.4033 6.0083L59.694 6.20211Z" fill="#B44406"/>
<path d="M59.694 3.1982V4.45796L59.4033 4.65177L59.0156 4.45796V3.1982L59.4033 3.00439L59.694 3.1982Z" fill="#B44406"/>
<path d="M59.401 7.65621V9.01287L59.0134 9.10978L58.7227 9.01287V7.65621L59.0134 7.4624L59.401 7.65621Z" fill="#B44406"/>
<path d="M59.401 4.65133V6.00799L59.0134 6.2018L58.7227 6.00799V4.65133L59.0134 4.45752L59.401 4.65133Z" fill="#B44406"/>
<path d="M59.015 6.20211V7.46187L58.7243 7.65568L58.4336 7.46187V6.20211L58.7243 6.0083L59.015 6.20211Z" fill="#B44406"/>
<path d="M59.015 3.1982V4.45796L58.7243 4.65177L58.4336 4.45796V3.1982L58.7243 3.00439L59.015 3.1982Z" fill="#B44406"/>
<path d="M58.7252 7.65621V9.01287L58.4345 9.10978L58.0469 9.01287V7.65621L58.4345 7.4624L58.7252 7.65621Z" fill="#B44406"/>
<path d="M58.7252 4.65133V6.00799L58.4345 6.2018L58.0469 6.00799V4.65133L58.4345 4.45752L58.7252 4.65133Z" fill="#B44406"/>
<path d="M58.7252 1.6472V3.00386L58.4345 3.19767L58.0469 3.00386V1.6472L58.4345 1.55029L58.7252 1.6472Z" fill="#B44406"/>
<path d="M58.4322 9.10911V10.4658L58.0446 10.6596L57.7539 10.4658V9.10911L58.0446 9.01221L58.4322 9.10911Z" fill="#B44406"/>
<path d="M58.4322 6.20211V7.46187L58.0446 7.65568L57.7539 7.46187V6.20211L58.0446 6.0083L58.4322 6.20211Z" fill="#B44406"/>
<path d="M58.4322 3.1982V4.45796L58.0446 4.65177L57.7539 4.45796V3.1982L58.0446 3.00439L58.4322 3.1982Z" fill="#B44406"/>
<path d="M58.0455 7.65621V9.01287L57.7548 9.10978L57.3672 9.01287V7.65621L57.7548 7.4624L58.0455 7.65621Z" fill="#B44406"/>
<path d="M58.0455 4.65133V6.00799L57.7548 6.2018L57.3672 6.00799V4.65133L57.7548 4.45752L58.0455 4.65133Z" fill="#B44406"/>
<path d="M58.0455 1.6472V3.00386L57.7548 3.19767L57.3672 3.00386V1.6472L57.7548 1.55029L58.0455 1.6472Z" fill="#B44406"/>
<path d="M57.7545 6.20211V7.46187L57.3669 7.65568L57.0762 7.46187V6.20211L57.3669 6.0083L57.7545 6.20211Z" fill="#B44406"/>
<path d="M57.7545 3.1982V4.45796L57.3669 4.65177L57.0762 4.45796V3.1982L57.3669 3.00439L57.7545 3.1982Z" fill="#B44406"/>
<path d="M57.3658 4.65133V6.00799L57.0751 6.2018L56.6875 6.00799V4.65133L57.0751 4.45752L57.3658 4.65133Z" fill="#B44406"/>
<path d="M57.0751 1.55029L57.3658 1.6472V3.00386L57.0751 3.19767L56.6875 3.00386V1.6472L57.0751 1.55029Z" fill="#B44406"/>
<path d="M57.0768 6.20211V7.46187L56.6892 7.65568L56.3984 7.46187V6.20211L56.6892 6.0083L57.0768 6.20211Z" fill="#B44406"/>
<path d="M57.0768 3.1982V4.45796L56.6892 4.65177L56.3984 4.45796V3.1982L56.6892 3.00439L57.0768 3.1982Z" fill="#B44406"/>
<path d="M57.0768 0.194297V1.55096L56.6892 1.64786L56.3984 1.55096V0.194297L56.6892 0.000488281L57.0768 0.194297Z" fill="#B44406"/>
<path d="M56.6881 4.65133V6.00799L56.3973 6.2018L56.0098 6.00799V4.65133L56.3973 4.45752L56.6881 4.65133Z" fill="#B44406"/>
<path d="M56.6881 1.6472V3.00386L56.3973 3.19767L56.0098 3.00386V1.6472L56.3973 1.55029L56.6881 1.6472Z" fill="#B44406"/>
<path d="M56.397 6.20211V7.46187L56.0095 7.65568L55.7188 7.46187V6.20211L56.0095 6.0083L56.397 6.20211Z" fill="#B44406"/>
<path d="M56.397 3.1982V4.45796L56.0095 4.65177L55.7188 4.45796V3.1982L56.0095 3.00439L56.397 3.1982Z" fill="#B44406"/>
<path d="M56.397 0.194297V1.55096L56.0095 1.64786L55.7188 1.55096V0.194297L56.0095 0.000488281L56.397 0.194297Z" fill="#B44406"/>
<path d="M56.0092 4.65133V6.00799L55.7185 6.2018L55.4277 6.00799V4.65133L55.7185 4.45752L56.0092 4.65133Z" fill="#B44406"/>
<path d="M56.0092 1.6472V3.00386L55.7185 3.19767L55.4277 3.00386V1.6472L55.7185 1.55029L56.0092 1.6472Z" fill="#B44406"/>
<path d="M55.7194 6.20211V7.46187L55.4286 7.65568L55.041 7.46187V6.20211L55.4286 6.0083L55.7194 6.20211Z" fill="#B44406"/>
<path d="M55.7194 3.1982V4.45796L55.4286 4.65177L55.041 4.45796V3.1982L55.4286 3.00439L55.7194 3.1982Z" fill="#B44406"/>
<path d="M55.7194 0.194297V1.55096L55.4286 1.64786L55.041 1.55096V0.194297L55.4286 0.000488281L55.7194 0.194297Z" fill="#B44406"/>
<path d="M55.4283 4.65133V6.00799L55.0407 6.2018L54.75 6.00799V4.65133L55.0407 4.45752L55.4283 4.65133Z" fill="#B44406"/>
<path d="M55.4283 1.6472V3.00386L55.0407 3.19767L54.75 3.00386V1.6472L55.0407 1.55029L55.4283 1.6472Z" fill="#B44406"/>
<path d="M55.0397 6.20211V7.46187L54.749 7.65568L54.3613 7.46187V6.20211L54.749 6.0083L55.0397 6.20211Z" fill="#B44406"/>
<path d="M55.0416 3.1982V4.45796L54.7509 4.65177L54.3633 4.45796V3.1982L54.7509 3.00439L55.0416 3.1982Z" fill="#B44406"/>
<path d="M55.0416 0.194297V1.55096L54.7509 1.64786L54.3633 1.55096V0.194297L54.7509 0.000488281L55.0416 0.194297Z" fill="#B44406"/>
<path d="M54.7506 4.65133V6.00799L54.363 6.2018L54.0723 6.00799V4.65133L54.363 4.45752L54.7506 4.65133Z" fill="#B44406"/>
<path d="M54.363 1.55029L54.7506 1.6472V3.00386L54.363 3.19767L54.0723 3.00386V1.6472L54.363 1.55029Z" fill="#B44406"/>
<path d="M54.3619 6.20211V7.46187L54.0712 7.65568L53.6836 7.46187V6.20211L54.0712 6.0083L54.3619 6.20211Z" fill="#B44406"/>
<path d="M54.3619 3.1982V4.45796L54.0712 4.65177L53.6836 4.45796V3.1982L54.0712 3.00439L54.3619 3.1982Z" fill="#B44406"/>
<path d="M54.0729 4.65133V6.00799L53.6852 6.2018L53.3945 6.00799V4.65133L53.6852 4.45752L54.0729 4.65133Z" fill="#B44406"/>
<path d="M54.0729 1.6472V3.00386L53.6852 3.19767L53.3945 3.00386V1.6472L53.6852 1.55029L54.0729 1.6472Z" fill="#B44406"/>
<path d="M53.6842 6.20211V7.46187L53.3935 7.65568L53.0059 7.46187V6.20211L53.3935 6.0083L53.6842 6.20211Z" fill="#B44406"/>
<path d="M53.6842 3.1982V4.45796L53.3935 4.65177L53.0059 4.45796V3.1982L53.3935 3.00439L53.6842 3.1982Z" fill="#B44406"/>
<path d="M53.3932 4.65133V6.00799L53.0055 6.2018L52.7148 6.00799V4.65133L53.0055 4.45752L53.3932 4.65133Z" fill="#B44406"/>
<path d="M53.3932 1.6472V3.00386L53.0055 3.19767L52.7148 3.00386V1.6472L53.0055 1.55029L53.3932 1.6472Z" fill="#B44406"/>
<path d="M53.0072 6.20211V7.46187L52.7165 7.65568L52.4258 7.46187V6.20211L52.7165 6.0083L53.0072 6.20211Z" fill="#B44406"/>
<path d="M53.0072 3.1982V4.45796L52.7165 4.65177L52.4258 4.45796V3.1982L52.7165 3.00439L53.0072 3.1982Z" fill="#B44406"/>
<path d="M53.0072 0.194297V1.55096L52.7165 1.64786L52.4258 1.55096V0.194297L52.7165 0.000488281L53.0072 0.194297Z" fill="#B44406"/>
<path d="M52.7135 4.65133V6.00799L52.4228 6.2018L52.0352 6.00799V4.65133L52.4228 4.45752L52.7135 4.65133Z" fill="#B44406"/>
<path d="M52.7135 1.6472V3.00386L52.4228 3.19767L52.0352 3.00386V1.6472L52.4228 1.55029L52.7135 1.6472Z" fill="#B44406"/>
<path d="M52.4244 6.20211V7.46187L52.0368 7.65568L51.7461 7.46187V6.20211L52.0368 6.0083L52.4244 6.20211Z" fill="#B44406"/>
<path d="M52.4244 3.1982V4.45796L52.0368 4.65177L51.7461 4.45796V3.1982L52.0368 3.00439L52.4244 3.1982Z" fill="#B44406"/>
<path d="M52.4244 0.194297V1.55096L52.0368 1.64786L51.7461 1.55096V0.194297L52.0368 0.000488281L52.4244 0.194297Z" fill="#B44406"/>
<path d="M52.0377 7.65621V9.01287L51.747 9.10978L51.3594 9.01287V7.65621L51.747 7.4624L52.0377 7.65621Z" fill="#B44406"/>
<path d="M52.0377 4.65133V6.00799L51.747 6.2018L51.3594 6.00799V4.65133L51.747 4.45752L52.0377 4.65133Z" fill="#B44406"/>
<path d="M51.747 1.55029L52.0377 1.6472V3.00386L51.747 3.19767L51.3594 3.00386V1.6472L51.747 1.55029Z" fill="#B44406"/>
<path d="M51.7447 9.10911V10.4658L51.3572 10.6596L51.0664 10.4658V9.10911L51.3572 9.01221L51.7447 9.10911Z" fill="#B44406"/>
<path d="M51.7447 6.20211V7.46187L51.3572 7.65568L51.0664 7.46187V6.20211L51.3572 6.0083L51.7447 6.20211Z" fill="#B44406"/>
<path d="M51.7447 3.1982V4.45796L51.3572 4.65177L51.0664 4.45796V3.1982L51.3572 3.00439L51.7447 3.1982Z" fill="#B44406"/>
<path d="M51.7447 0.194297V1.55096L51.3572 1.64786L51.0664 1.55096V0.194297L51.3572 0.000488281L51.7447 0.194297Z" fill="#B44406"/>
<path d="M51.358 7.65621V9.01287L51.0673 9.10978L50.6797 9.01287V7.65621L51.0673 7.4624L51.358 7.65621Z" fill="#B44406"/>
<path d="M51.358 4.65133V6.00799L51.0673 6.2018L50.6797 6.00799V4.65133L51.0673 4.45752L51.358 4.65133Z" fill="#B44406"/>
<path d="M51.358 1.6472V3.00386L51.0673 3.19767L50.6797 3.00386V1.6472L51.0673 1.55029L51.358 1.6472Z" fill="#B44406"/>
<path d="M51.0689 9.10911V10.4658L50.6813 10.6596L50.3906 10.4658V9.10911L50.6813 9.01221L51.0689 9.10911Z" fill="#B44406"/>
<path d="M51.0689 6.20211V7.46187L50.6813 7.65568L50.3906 7.46187V6.20211L50.6813 6.0083L51.0689 6.20211Z" fill="#B44406"/>
<path d="M51.0689 3.1982V4.45796L50.6813 4.65177L50.3906 4.45796V3.1982L50.6813 3.00439L51.0689 3.1982Z" fill="#B44406"/>
<path d="M51.0689 0.194297V1.55096L50.6813 1.64786L50.3906 1.55096V0.194297L50.6813 0.000488281L51.0689 0.194297Z" fill="#B44406"/>
<path d="M50.6803 7.65621V9.01287L50.3896 9.10978L50.002 9.01287V7.65621L50.3896 7.4624L50.6803 7.65621Z" fill="#B44406"/>
<path d="M50.6803 4.65133V6.00799L50.3896 6.2018L50.002 6.00799V4.65133L50.3896 4.45752L50.6803 4.65133Z" fill="#B44406"/>
<path d="M50.6803 1.6472V3.00386L50.3896 3.19767L50.002 3.00386V1.6472L50.3896 1.55029L50.6803 1.6472Z" fill="#B44406"/>
<path d="M50.3893 6.20211V7.46187L50.0016 7.65568L49.7109 7.46187V6.20211L50.0016 6.0083L50.3893 6.20211Z" fill="#B44406"/>
<path d="M50.3893 3.1982V4.45796L50.0016 4.65177L49.7109 4.45796V3.1982L50.0016 3.00439L50.3893 3.1982Z" fill="#B44406"/>
<path d="M50.0033 7.65621V9.01287L49.7126 9.10978L49.4219 9.01287V7.65621L49.7126 7.4624L50.0033 7.65621Z" fill="#B44406"/>
<path d="M50.0033 4.65133V6.00799L49.7126 6.2018L49.4219 6.00799V4.65133L49.7126 4.45752L50.0033 4.65133Z" fill="#B44406"/>
<path d="M50.0033 1.6472V3.00386L49.7126 3.19767L49.4219 3.00386V1.6472L49.7126 1.55029L50.0033 1.6472Z" fill="#B44406"/>
<path d="M49.7115 9.10911V10.4658L49.4208 10.6596L49.0332 10.4658V9.10911L49.4208 9.01221L49.7115 9.10911Z" fill="#B44406"/>
<path d="M49.7115 6.20211V7.46187L49.4208 7.65568L49.0332 7.46187V6.20211L49.4208 6.0083L49.7115 6.20211Z" fill="#B44406"/>
<path d="M49.7115 3.1982V4.45796L49.4208 4.65177L49.0332 4.45796V3.1982L49.4208 3.00439L49.7115 3.1982Z" fill="#B44406"/>
<path d="M49.4205 7.65621V9.01287L49.0329 9.10978L48.7422 9.01287V7.65621L49.0329 7.4624L49.4205 7.65621Z" fill="#B44406"/>
<path d="M49.4205 4.65133V6.00799L49.0329 6.2018L48.7422 6.00799V4.65133L49.0329 4.45752L49.4205 4.65133Z" fill="#B44406"/>
<path d="M49.0329 1.55029L49.4205 1.6472V3.00386L49.0329 3.19767L48.7422 3.00386V1.6472L49.0329 1.55029Z" fill="#B44406"/>
<path d="M49.0338 6.20211V7.46187L48.7431 7.65568L48.3555 7.46187V6.20211L48.7431 6.0083L49.0338 6.20211Z" fill="#B44406"/>
<path d="M49.0338 3.1982V4.45796L48.7431 4.65177L48.3555 4.45796V3.1982L48.7431 3.00439L49.0338 3.1982Z" fill="#B44406"/>
<path d="M48.7408 7.65621V9.01287L48.3532 9.10978L48.0625 9.01287V7.65621L48.3532 7.4624L48.7408 7.65621Z" fill="#B44406"/>
<path d="M48.7408 4.65133V6.00799L48.3532 6.2018L48.0625 6.00799V4.65133L48.3532 4.45752L48.7408 4.65133Z" fill="#B44406"/>
<path d="M48.3541 6.20211V7.46187L48.0634 7.65568L47.6758 7.46187V6.20211L48.0634 6.0083L48.3541 6.20211Z" fill="#B44406"/>
<path d="M48.3541 3.1982V4.45796L48.0634 4.65177L47.6758 4.45796V3.1982L48.0634 3.00439L48.3541 3.1982Z" fill="#B44406"/>
<path d="M48.0651 7.65621V9.01287L47.6774 9.10978L47.3867 9.01287V7.65621L47.6774 7.4624L48.0651 7.65621Z" fill="#B44406"/>
<path d="M48.0651 4.65133V6.00799L47.6774 6.2018L47.3867 6.00799V4.65133L47.6774 4.45752L48.0651 4.65133Z" fill="#B44406"/>
<path d="M47.6763 6.20211V7.46187L47.3856 7.65568L46.998 7.46187V6.20211L47.3856 6.0083L47.6763 6.20211Z" fill="#B44406"/>
<path d="M47.6763 3.1982V4.45796L47.3856 4.65177L46.998 4.45796V3.1982L47.3856 3.00439L47.6763 3.1982Z" fill="#B44406"/>
<path d="M47.3854 4.65133V6.00799L46.9978 6.2018L46.707 6.00799V4.65133L46.9978 4.45752L47.3854 4.65133Z" fill="#B44406"/>
<path d="M46.9994 6.20211V7.46187L46.7087 7.65568L46.418 7.46187V6.20211L46.7087 6.0083L46.9994 6.20211Z" fill="#B44406"/>
<path d="M46.7076 4.65133V6.00799L46.4169 6.2018L46.0293 6.00799V4.65133L46.4169 4.45752L46.7076 4.65133Z" fill="#B44406"/>
<path d="M46.4147 6.20211V7.46187L46.0271 7.65568L45.7363 7.46187V6.20211L46.0271 6.0083L46.4147 6.20211Z" fill="#B44406"/>
<path d="M46.0299 4.65133V6.00799L45.7391 6.2018L45.3516 6.00799V4.65133L45.7391 4.45752L46.0299 4.65133Z" fill="#B44406"/>
<path d="M45.7388 6.20211V7.46187L45.3512 7.65568L45.0605 7.46187V6.20211L45.3512 6.0083L45.7388 6.20211Z" fill="#B44406"/>
<path d="M45.7388 3.1982V4.45796L45.3512 4.65177L45.0605 4.45796V3.1982L45.3512 3.00439L45.7388 3.1982Z" fill="#B44406"/>
<path d="M45.3502 4.65133V6.00799L45.0595 6.2018L44.6719 6.00799V4.65133L45.0595 4.45752L45.3502 4.65133Z" fill="#B44406"/>
<path d="M45.0612 6.20211V7.46187L44.6735 7.65568L44.3828 7.46187V6.20211L44.6735 6.0083L45.0612 6.20211Z" fill="#B44406"/>
<path d="M45.0612 3.1982V4.45796L44.6735 4.65177L44.3828 4.45796V3.1982L44.6735 3.00439L45.0612 3.1982Z" fill="#B44406"/>
<path d="M44.6725 4.65133V6.00799L44.3818 6.2018L43.9941 6.00799V4.65133L44.3818 4.45752L44.6725 4.65133Z" fill="#B44406"/>
<path d="M44.6725 1.6472V3.00386L44.3818 3.19767L43.9941 3.00386V1.6472L44.3818 1.55029L44.6725 1.6472Z" fill="#B44406"/>
<path d="M44.3815 3.1982V4.45796L43.9938 4.65177L43.7031 4.45796V3.1982L43.9938 3.00439L44.3815 3.1982Z" fill="#B44406"/>
<path d="M43.9935 4.65133V6.00799L43.7028 6.2018L43.4121 6.00799V4.65133L43.7028 4.45752L43.9935 4.65133Z" fill="#B44406"/>
<path d="M43.9935 1.6472V3.00386L43.7028 3.19767L43.4121 3.00386V1.6472L43.7028 1.55029L43.9935 1.6472Z" fill="#B44406"/>
<path d="M43.7037 3.1982V4.45796L43.413 4.65177L43.0254 4.45796V3.1982L43.413 3.00439L43.7037 3.1982Z" fill="#B44406"/>
<path d="M43.4127 1.6472V3.00386L43.0251 3.19767L42.7344 3.00386V1.6472L43.0251 1.55029L43.4127 1.6472Z" fill="#B44406"/>
<path d="M43.024 3.1982V4.45796L42.7333 4.65177L42.3457 4.45796V3.1982L42.7333 3.00439L43.024 3.1982Z" fill="#B44406"/>
<path d="M42.735 1.6472V3.00386L42.3473 3.19767L42.0566 3.00386V1.6472L42.3473 1.55029L42.735 1.6472Z" fill="#B44406"/>
<path d="M42.0553 1.6472V3.00386L41.6677 3.19767L41.377 3.00386V1.6472L41.6677 1.55029L42.0553 1.6472Z" fill="#B44406"/>
<path d="M54.3619 0.194297V1.55096L54.0712 1.64786L53.6836 1.55096V0.194297L54.0712 0.000488281L54.3619 0.194297Z" fill="#B44406"/>
<path d="M53.6842 0.194297V1.55096L53.3935 1.64786L53.0059 1.55096V0.194297L53.3935 0.000488281L53.6842 0.194297Z" fill="#B44406"/>
<path d="M43.7037 0.194297V1.55096L43.413 1.64786L43.0254 1.55096V0.194297L43.413 0.000488281L43.7037 0.194297Z" fill="#B44406"/>
<path d="M43.024 0.194297V1.55096L42.7333 1.64786L42.3457 1.55096V0.194297L42.7333 0.000488281L43.024 0.194297Z" fill="#B44406"/>
<path d="M42.3463 0.194297V1.55096L42.0556 1.64786L41.668 1.55096V0.194297L42.0556 0.000488281L42.3463 0.194297Z" fill="#B44406"/>
<path d="M41.6686 0.194297V1.55096L41.3778 1.64786L40.9902 1.55096V0.194297L41.3778 0.000488281L41.6686 0.194297Z" fill="#B44406"/>
<path d="M40.9897 0.194297V1.55096L40.699 1.64786L40.4082 1.55096V0.194297L40.699 0.000488281L40.9897 0.194297Z" fill="#B44406"/>
<path d="M40.3119 0.194297V1.55096L40.0212 1.64786L39.7305 1.55096V0.194297L40.0212 0.000488281L40.3119 0.194297Z" fill="#B44406"/>
<path d="M153.303 12.1132V13.4699L153.69 13.6637L153.981 13.4699V12.1132L153.69 11.9194L153.303 12.1132Z" fill="#B44406"/>
<path d="M153.691 10.6601V11.9199L153.982 12.1137L154.273 11.9199V10.6601L153.982 10.4663L153.691 10.6601Z" fill="#B44406"/>
<path d="M155.338 12.1132V13.4699L155.629 13.6637L156.016 13.4699V12.1132L155.629 11.9194L155.338 12.1132Z" fill="#B44406"/>
<path d="M155.629 10.6601V11.9199L156.017 12.1137L156.307 11.9199V10.6601L156.017 10.4663L155.629 10.6601Z" fill="#B44406"/>
<path d="M162.992 10.6601V11.9199L163.283 12.1137L163.671 11.9199V10.6601L163.283 10.4663L162.992 10.6601Z" fill="#B44406"/>
<path d="M163.283 12.1132V13.4699L163.671 13.6637L163.961 13.4699V12.1132L163.671 11.9194L163.283 12.1132Z" fill="#B44406"/>
<path d="M164.35 10.6601V11.9199L164.64 12.1137L165.028 11.9199V10.6601L164.64 10.4663L164.35 10.6601Z" fill="#B44406"/>
<path d="M164.641 12.1132V13.4699L165.028 13.6637L165.319 13.4699V12.1132L165.028 11.9194L164.641 12.1132Z" fill="#B44406"/>
<path d="M153.012 7.65621V9.01287L153.302 9.10978L153.69 9.01287V7.65621L153.302 7.4624L153.012 7.65621Z" fill="#B44406"/>
<path d="M153.303 6.20211V7.46187L153.69 7.65568L153.981 7.46187V6.20211L153.69 6.0083L153.303 6.20211Z" fill="#B44406"/>
<path d="M153.691 4.65133V6.00799L153.982 6.2018L154.273 6.00799V4.65133L153.982 4.45752L153.691 4.65133Z" fill="#B44406"/>
<path d="M153.98 9.10911V10.4658L154.271 10.6596L154.659 10.4658V9.10911L154.271 9.01221L153.98 9.10911Z" fill="#B44406"/>
<path d="M154.271 7.65621V9.01287L154.659 9.10978L154.95 9.01287V7.65621L154.659 7.4624L154.271 7.65621Z" fill="#B44406"/>
<path d="M154.271 4.65133V6.00799L154.659 6.2018L154.95 6.00799V4.65133L154.659 4.45752L154.271 4.65133Z" fill="#B44406"/>
<path d="M154.66 10.4658L154.951 10.6596L155.338 10.4658V9.10911L154.951 9.01221L154.66 9.10911V10.4658Z" fill="#B44406"/>
<path d="M154.66 6.20211V7.46187L154.951 7.65568L155.338 7.46187V6.20211L154.951 6.0083L154.66 6.20211Z" fill="#B44406"/>
<path d="M154.66 3.1982V4.45796L154.951 4.65177L155.338 4.45796V3.1982L154.951 3.00439L154.66 3.1982Z" fill="#B44406"/>
<path d="M154.949 7.65621V9.01287L155.337 9.10978L155.628 9.01287V7.65621L155.337 7.4624L154.949 7.65621Z" fill="#B44406"/>
<path d="M154.949 4.65133V6.00799L155.337 6.2018L155.628 6.00799V4.65133L155.337 4.45752L154.949 4.65133Z" fill="#B44406"/>
<path d="M155.338 6.20211V7.46187L155.629 7.65568L156.016 7.46187V6.20211L155.629 6.0083L155.338 6.20211Z" fill="#B44406"/>
<path d="M155.338 3.1982V4.45796L155.629 4.65177L156.016 4.45796V3.1982L155.629 3.00439L155.338 3.1982Z" fill="#B44406"/>
<path d="M155.629 7.65621V9.01287L156.017 9.10978L156.307 9.01287V7.65621L156.017 7.4624L155.629 7.65621Z" fill="#B44406"/>
<path d="M155.629 4.65133V6.00799L156.017 6.2018L156.307 6.00799V4.65133L156.017 4.45752L155.629 4.65133Z" fill="#B44406"/>
<path d="M155.629 1.6472V3.00386L156.017 3.19767L156.307 3.00386V1.6472L156.017 1.55029L155.629 1.6472Z" fill="#B44406"/>
<path d="M156.016 9.10911V10.4658L156.306 10.6596L156.694 10.4658V9.10911L156.306 9.01221L156.016 9.10911Z" fill="#B44406"/>
<path d="M156.016 6.20211V7.46187L156.306 7.65568L156.694 7.46187V6.20211L156.306 6.0083L156.016 6.20211Z" fill="#B44406"/>
<path d="M156.016 3.1982V4.45796L156.306 4.65177L156.694 4.45796V3.1982L156.306 3.00439L156.016 3.1982Z" fill="#B44406"/>
<path d="M156.307 7.65621V9.01287L156.694 9.10978L156.985 9.01287V7.65621L156.694 7.4624L156.307 7.65621Z" fill="#B44406"/>
<path d="M156.307 4.65133V6.00799L156.694 6.2018L156.985 6.00799V4.65133L156.694 4.45752L156.307 4.65133Z" fill="#B44406"/>
<path d="M156.307 1.6472V3.00386L156.694 3.19767L156.985 3.00386V1.6472L156.694 1.55029L156.307 1.6472Z" fill="#B44406"/>
<path d="M156.695 6.20211V7.46187L156.986 7.65568L157.277 7.46187V6.20211L156.986 6.0083L156.695 6.20211Z" fill="#B44406"/>
<path d="M156.695 3.1982V4.45796L156.986 4.65177L157.277 4.45796V3.1982L156.986 3.00439L156.695 3.1982Z" fill="#B44406"/>
<path d="M156.984 4.65133V6.00799L157.275 6.2018L157.663 6.00799V4.65133L157.275 4.45752L156.984 4.65133Z" fill="#B44406"/>
<path d="M157.275 1.55029L156.984 1.6472V3.00386L157.275 3.19767L157.663 3.00386V1.6472L157.275 1.55029Z" fill="#B44406"/>
<path d="M157.277 6.20211V7.46187L157.665 7.65568L157.956 7.46187V6.20211L157.665 6.0083L157.277 6.20211Z" fill="#B44406"/>
<path d="M157.277 3.1982V4.45796L157.665 4.65177L157.956 4.45796V3.1982L157.665 3.00439L157.277 3.1982Z" fill="#B44406"/>
<path d="M157.277 0.194297V1.55096L157.665 1.64786L157.956 1.55096V0.194297L157.665 0.000488281L157.277 0.194297Z" fill="#B44406"/>
<path d="M157.664 4.65133V6.00799L157.955 6.2018L158.342 6.00799V4.65133L157.955 4.45752L157.664 4.65133Z" fill="#B44406"/>
<path d="M157.664 1.6472V3.00386L157.955 3.19767L158.342 3.00386V1.6472L157.955 1.55029L157.664 1.6472Z" fill="#B44406"/>
<path d="M157.953 6.20211V7.46187L158.341 7.65568L158.631 7.46187V6.20211L158.341 6.0083L157.953 6.20211Z" fill="#B44406"/>
<path d="M157.953 3.1982V4.45796L158.341 4.65177L158.631 4.45796V3.1982L158.341 3.00439L157.953 3.1982Z" fill="#B44406"/>
<path d="M157.953 0.194297V1.55096L158.341 1.64786L158.631 1.55096V0.194297L158.341 0.000488281L157.953 0.194297Z" fill="#B44406"/>
<path d="M158.342 4.65133V6.00799L158.632 6.2018L159.02 6.00799V4.65133L158.632 4.45752L158.342 4.65133Z" fill="#B44406"/>
<path d="M158.342 1.6472V3.00386L158.632 3.19767L159.02 3.00386V1.6472L158.632 1.55029L158.342 1.6472Z" fill="#B44406"/>
<path d="M158.633 6.20211V7.46187L159.02 7.65568L159.311 7.46187V6.20211L159.02 6.0083L158.633 6.20211Z" fill="#B44406"/>
<path d="M158.633 3.1982V4.45796L159.02 4.65177L159.311 4.45796V3.1982L159.02 3.00439L158.633 3.1982Z" fill="#B44406"/>
<path d="M158.633 0.194297V1.55096L159.02 1.64786L159.311 1.55096V0.194297L159.02 0.000488281L158.633 0.194297Z" fill="#B44406"/>
<path d="M159.02 4.65133V6.00799L159.31 6.2018L159.698 6.00799V4.65133L159.31 4.45752L159.02 4.65133Z" fill="#B44406"/>
<path d="M159.021 1.6472V3.00386L159.312 3.19767L159.7 3.00386V1.6472L159.312 1.55029L159.021 1.6472Z" fill="#B44406"/>
<path d="M159.311 6.20211V7.46187L159.698 7.65568L159.989 7.46187V6.20211L159.698 6.0083L159.311 6.20211Z" fill="#B44406"/>
<path d="M159.311 3.1982V4.45796L159.698 4.65177L159.989 4.45796V3.1982L159.698 3.00439L159.311 3.1982Z" fill="#B44406"/>
<path d="M159.311 0.194297V1.55096L159.698 1.64786L159.989 1.55096V0.194297L159.698 0.000488281L159.311 0.194297Z" fill="#B44406"/>
<path d="M159.699 4.65133V6.00799L159.99 6.2018L160.281 6.00799V4.65133L159.99 4.45752L159.699 4.65133Z" fill="#B44406"/>
<path d="M159.99 1.55029L159.699 1.6472V3.00386L159.99 3.19767L160.281 3.00386V1.6472L159.99 1.55029Z" fill="#B44406"/>
<path d="M159.988 6.20211V7.46187L160.279 7.65568L160.667 7.46187V6.20211L160.279 6.0083L159.988 6.20211Z" fill="#B44406"/>
<path d="M159.988 3.1982V4.45796L160.279 4.65177L160.667 4.45796V3.1982L160.279 3.00439L159.988 3.1982Z" fill="#B44406"/>
<path d="M160.279 4.65133V6.00799L160.667 6.2018L160.958 6.00799V4.65133L160.667 4.45752L160.279 4.65133Z" fill="#B44406"/>
<path d="M160.279 1.6472V3.00386L160.667 3.19767L160.958 3.00386V1.6472L160.667 1.55029L160.279 1.6472Z" fill="#B44406"/>
<path d="M160.668 6.20211V7.46187L160.959 7.65568L161.346 7.46187V6.20211L160.959 6.0083L160.668 6.20211Z" fill="#B44406"/>
<path d="M160.668 3.1982V4.45796L160.959 4.65177L161.346 4.45796V3.1982L160.959 3.00439L160.668 3.1982Z" fill="#B44406"/>
<path d="M160.957 4.65133V6.00799L161.345 6.2018L161.635 6.00799V4.65133L161.345 4.45752L160.957 4.65133Z" fill="#B44406"/>
<path d="M160.957 1.6472V3.00386L161.345 3.19767L161.635 3.00386V1.6472L161.345 1.55029L160.957 1.6472Z" fill="#B44406"/>
<path d="M161.346 6.20211V7.46187L161.636 7.65568L162.024 7.46187V6.20211L161.636 6.0083L161.346 6.20211Z" fill="#B44406"/>
<path d="M161.346 3.1982V4.45796L161.636 4.65177L162.024 4.45796V3.1982L161.636 3.00439L161.346 3.1982Z" fill="#B44406"/>
<path d="M161.346 0.194297V1.55096L161.636 1.64786L162.024 1.55096V0.194297L161.636 0.000488281L161.346 0.194297Z" fill="#B44406"/>
<path d="M161.637 4.65133V6.00799L162.024 6.2018L162.315 6.00799V4.65133L162.024 4.45752L161.637 4.65133Z" fill="#B44406"/>
<path d="M161.637 1.6472V3.00386L162.024 3.19767L162.315 3.00386V1.6472L162.024 1.55029L161.637 1.6472Z" fill="#B44406"/>
<path d="M162.023 6.20211V7.46187L162.314 7.65568L162.702 7.46187V6.20211L162.314 6.0083L162.023 6.20211Z" fill="#B44406"/>
<path d="M162.023 3.1982V4.45796L162.314 4.65177L162.702 4.45796V3.1982L162.314 3.00439L162.023 3.1982Z" fill="#B44406"/>
<path d="M162.023 0.194297V1.55096L162.314 1.64786L162.702 1.55096V0.194297L162.314 0.000488281L162.023 0.194297Z" fill="#B44406"/>
<path d="M162.314 7.65621V9.01287L162.702 9.10978L162.993 9.01287V7.65621L162.702 7.4624L162.314 7.65621Z" fill="#B44406"/>
<path d="M162.314 4.65133V6.00799L162.702 6.2018L162.993 6.00799V4.65133L162.702 4.45752L162.314 4.65133Z" fill="#B44406"/>
<path d="M162.702 1.55029L162.314 1.6472V3.00386L162.702 3.19767L162.993 3.00386V1.6472L162.702 1.55029Z" fill="#B44406"/>
<path d="M162.703 9.10911V10.4658L162.994 10.6596L163.285 10.4658V9.10911L162.994 9.01221L162.703 9.10911Z" fill="#B44406"/>
<path d="M162.703 6.20211V7.46187L162.994 7.65568L163.285 7.46187V6.20211L162.994 6.0083L162.703 6.20211Z" fill="#B44406"/>
<path d="M162.703 3.1982V4.45796L162.994 4.65177L163.285 4.45796V3.1982L162.994 3.00439L162.703 3.1982Z" fill="#B44406"/>
<path d="M162.703 0.194297V1.55096L162.994 1.64786L163.285 1.55096V0.194297L162.994 0.000488281L162.703 0.194297Z" fill="#B44406"/>
<path d="M162.992 7.65621V9.01287L163.283 9.10978L163.671 9.01287V7.65621L163.283 7.4624L162.992 7.65621Z" fill="#B44406"/>
<path d="M162.992 4.65133V6.00799L163.283 6.2018L163.671 6.00799V4.65133L163.283 4.45752L162.992 4.65133Z" fill="#B44406"/>
<path d="M162.994 1.6472V3.00386L163.285 3.19767L163.672 3.00386V1.6472L163.285 1.55029L162.994 1.6472Z" fill="#B44406"/>
<path d="M163.283 9.10911V10.4658L163.671 10.6596L163.961 10.4658V9.10911L163.671 9.01221L163.283 9.10911Z" fill="#B44406"/>
<path d="M163.283 6.20211V7.46187L163.671 7.65568L163.961 7.46187V6.20211L163.671 6.0083L163.283 6.20211Z" fill="#B44406"/>
<path d="M163.283 3.1982V4.45796L163.671 4.65177L163.961 4.45796V3.1982L163.671 3.00439L163.283 3.1982Z" fill="#B44406"/>
<path d="M163.283 0.194297V1.55096L163.671 1.64786L163.961 1.55096V0.194297L163.671 0.000488281L163.283 0.194297Z" fill="#B44406"/>
<path d="M163.672 7.65621V9.01287L163.963 9.10978L164.35 9.01287V7.65621L163.963 7.4624L163.672 7.65621Z" fill="#B44406"/>
<path d="M163.672 4.65133V6.00799L163.963 6.2018L164.35 6.00799V4.65133L163.963 4.45752L163.672 4.65133Z" fill="#B44406"/>
<path d="M163.672 1.6472V3.00386L163.963 3.19767L164.35 3.00386V1.6472L163.963 1.55029L163.672 1.6472Z" fill="#B44406"/>
<path d="M163.961 6.20211V7.46187L164.349 7.65568L164.639 7.46187V6.20211L164.349 6.0083L163.961 6.20211Z" fill="#B44406"/>
<path d="M163.961 3.1982V4.45796L164.349 4.65177L164.639 4.45796V3.1982L164.349 3.00439L163.961 3.1982Z" fill="#B44406"/>
<path d="M164.35 7.65621V9.01287L164.64 9.10978L165.028 9.01287V7.65621L164.64 7.4624L164.35 7.65621Z" fill="#B44406"/>
<path d="M164.35 4.65133V6.00799L164.64 6.2018L165.028 6.00799V4.65133L164.64 4.45752L164.35 4.65133Z" fill="#B44406"/>
<path d="M164.35 1.6472V3.00386L164.64 3.19767L165.028 3.00386V1.6472L164.64 1.55029L164.35 1.6472Z" fill="#B44406"/>
<path d="M164.641 9.10911V10.4658L165.028 10.6596L165.319 10.4658V9.10911L165.028 9.01221L164.641 9.10911Z" fill="#B44406"/>
<path d="M164.641 6.20211V7.46187L165.028 7.65568L165.319 7.46187V6.20211L165.028 6.0083L164.641 6.20211Z" fill="#B44406"/>
<path d="M164.641 3.1982V4.45796L165.028 4.65177L165.319 4.45796V3.1982L165.028 3.00439L164.641 3.1982Z" fill="#B44406"/>
<path d="M165.027 7.65621V9.01287L165.318 9.10978L165.706 9.01287V7.65621L165.318 7.4624L165.027 7.65621Z" fill="#B44406"/>
<path d="M165.027 4.65133V6.00799L165.318 6.2018L165.706 6.00799V4.65133L165.318 4.45752L165.027 4.65133Z" fill="#B44406"/>
<path d="M165.318 1.55029L165.027 1.6472V3.00386L165.318 3.19767L165.706 3.00386V1.6472L165.318 1.55029Z" fill="#B44406"/>
<path d="M165.32 6.20211V7.46187L165.708 7.65568L165.999 7.46187V6.20211L165.708 6.0083L165.32 6.20211Z" fill="#B44406"/>
<path d="M165.32 3.1982V4.45796L165.708 4.65177L165.999 4.45796V3.1982L165.708 3.00439L165.32 3.1982Z" fill="#B44406"/>
<path d="M165.707 7.65621V9.01287L165.998 9.10978L166.288 9.01287V7.65621L165.998 7.4624L165.707 7.65621Z" fill="#B44406"/>
<path d="M165.707 4.65133V6.00799L165.998 6.2018L166.288 6.00799V4.65133L165.998 4.45752L165.707 4.65133Z" fill="#B44406"/>
<path d="M165.996 6.20211V7.46187L166.287 7.65568L166.674 7.46187V6.20211L166.287 6.0083L165.996 6.20211Z" fill="#B44406"/>
<path d="M165.996 3.1982V4.45796L166.287 4.65177L166.674 4.45796V3.1982L166.287 3.00439L165.996 3.1982Z" fill="#B44406"/>
<path d="M166.289 7.65621V9.01287L166.677 9.10978L166.967 9.01287V7.65621L166.677 7.4624L166.289 7.65621Z" fill="#B44406"/>
<path d="M166.289 4.65133V6.00799L166.677 6.2018L166.967 6.00799V4.65133L166.677 4.45752L166.289 4.65133Z" fill="#B44406"/>
<path d="M166.676 6.20211V7.46187L166.966 7.65568L167.354 7.46187V6.20211L166.966 6.0083L166.676 6.20211Z" fill="#B44406"/>
<path d="M166.676 3.1982V4.45796L166.966 4.65177L167.354 4.45796V3.1982L166.966 3.00439L166.676 3.1982Z" fill="#B44406"/>
<path d="M166.967 4.65133V6.00799L167.354 6.2018L167.645 6.00799V4.65133L167.354 4.45752L166.967 4.65133Z" fill="#B44406"/>
<path d="M167.354 6.20211V7.46187L167.644 7.65568L168.032 7.46187V6.20211L167.644 6.0083L167.354 6.20211Z" fill="#B44406"/>
<path d="M167.645 4.65133V6.00799L168.032 6.2018L168.323 6.00799V4.65133L168.032 4.45752L167.645 4.65133Z" fill="#B44406"/>
<path d="M168.031 6.20211V7.46187L168.322 7.65568L168.71 7.46187V6.20211L168.322 6.0083L168.031 6.20211Z" fill="#B44406"/>
<path d="M168.322 4.65133V6.00799L168.71 6.2018L169.001 6.00799V4.65133L168.71 4.45752L168.322 4.65133Z" fill="#B44406"/>
<path d="M168.711 6.20211V7.46187L169.002 7.65568L169.292 7.46187V6.20211L169.002 6.0083L168.711 6.20211Z" fill="#B44406"/>
<path d="M168.711 3.1982V4.45796L169.002 4.65177L169.292 4.45796V3.1982L169.002 3.00439L168.711 3.1982Z" fill="#B44406"/>
<path d="M169 4.65133V6.00799L169.291 6.2018L169.678 6.00799V4.65133L169.291 4.45752L169 4.65133Z" fill="#B44406"/>
<path d="M169.293 6.20211V7.46187L169.681 7.65568L169.971 7.46187V6.20211L169.681 6.0083L169.293 6.20211Z" fill="#B44406"/>
<path d="M169.293 3.1982V4.45796L169.681 4.65177L169.971 4.45796V3.1982L169.681 3.00439L169.293 3.1982Z" fill="#B44406"/>
<path d="M169.68 4.65133V6.00799L169.97 6.2018L170.358 6.00799V4.65133L169.97 4.45752L169.68 4.65133Z" fill="#B44406"/>
<path d="M169.68 1.6472V3.00386L169.97 3.19767L170.358 3.00386V1.6472L169.97 1.55029L169.68 1.6472Z" fill="#B44406"/>
<path d="M169.969 3.1982V4.45796L170.356 4.65177L170.647 4.45796V3.1982L170.356 3.00439L169.969 3.1982Z" fill="#B44406"/>
<path d="M170.359 4.65133V6.00799L170.65 6.2018L171.038 6.00799V4.65133L170.65 4.45752L170.359 4.65133Z" fill="#B44406"/>
<path d="M170.359 1.6472V3.00386L170.65 3.19767L171.038 3.00386V1.6472L170.65 1.55029L170.359 1.6472Z" fill="#B44406"/>
<path d="M170.648 3.1982V4.45796L171.036 4.65177L171.327 4.45796V3.1982L171.036 3.00439L170.648 3.1982Z" fill="#B44406"/>
<path d="M171.037 1.6472V3.00386L171.328 3.19767L171.715 3.00386V1.6472L171.328 1.55029L171.037 1.6472Z" fill="#B44406"/>
<path d="M171.328 3.1982V4.45796L171.716 4.65177L172.006 4.45796V3.1982L171.716 3.00439L171.328 3.1982Z" fill="#B44406"/>
<path d="M171.715 1.6472V3.00386L172.006 3.19767L172.296 3.00386V1.6472L172.006 1.55029L171.715 1.6472Z" fill="#B44406"/>
<path d="M172.297 1.6472V3.00386L172.684 3.19767L172.975 3.00386V1.6472L172.684 1.55029L172.297 1.6472Z" fill="#B44406"/>
<path d="M159.988 0.194297V1.55096L160.279 1.64786L160.667 1.55096V0.194297L160.279 0.000488281L159.988 0.194297Z" fill="#B44406"/>
<path d="M160.668 0.194297V1.55096L160.959 1.64786L161.346 1.55096V0.194297L160.959 0.000488281L160.668 0.194297Z" fill="#B44406"/>
<path d="M170.648 0.194297V1.55096L171.036 1.64786L171.327 1.55096V0.194297L171.036 0.000488281L170.648 0.194297Z" fill="#B44406"/>
<path d="M171.328 0.194297V1.55096L171.716 1.64786L172.006 1.55096V0.194297L171.716 0.000488281L171.328 0.194297Z" fill="#B44406"/>
<path d="M172.004 0.194297V1.55096L172.295 1.64786L172.682 1.55096V0.194297L172.295 0.000488281L172.004 0.194297Z" fill="#B44406"/>
<path d="M172.684 0.194297V1.55096L172.974 1.64786L173.362 1.55096V0.194297L172.974 0.000488281L172.684 0.194297Z" fill="#B44406"/>
<path d="M173.361 0.194297V1.55096L173.652 1.64786L174.04 1.55096V0.194297L173.652 0.000488281L173.361 0.194297Z" fill="#B44406"/>
<path d="M174.039 0.194297V1.55096L174.33 1.64786L174.717 1.55096V0.194297L174.33 0.000488281L174.039 0.194297Z" fill="#B44406"/>
<path d="M148.651 12.1132V13.4699L148.263 13.6637L147.973 13.4699V12.1132L148.263 11.9194L148.651 12.1132Z" fill="#B44406"/>
<path d="M148.261 10.6601V11.9199L147.97 12.1137L147.68 11.9199V10.6601L147.97 10.4663L148.261 10.6601Z" fill="#B44406"/>
<path d="M146.616 12.1132V13.4699L146.325 13.6637L145.938 13.4699V12.1132L146.325 11.9194L146.616 12.1132Z" fill="#B44406"/>
<path d="M146.325 10.6601V11.9199L145.937 12.1137L145.646 11.9199V10.6601L145.937 10.4663L146.325 10.6601Z" fill="#B44406"/>
<path d="M138.96 10.6601V11.9199L138.669 12.1137L138.281 11.9199V10.6601L138.669 10.4663L138.96 10.6601Z" fill="#B44406"/>
<path d="M138.669 12.1132V13.4699L138.281 13.6637L137.99 13.4699V12.1132L138.281 11.9194L138.669 12.1132Z" fill="#B44406"/>
<path d="M137.604 10.6601V11.9199L137.313 12.1137L136.926 11.9199V10.6601L137.313 10.4663L137.604 10.6601Z" fill="#B44406"/>
<path d="M137.313 12.1132V13.4699L136.925 13.6637L136.635 13.4699V12.1132L136.925 11.9194L137.313 12.1132Z" fill="#B44406"/>
<path d="M148.94 7.65621V9.01287L148.649 9.10978L148.262 9.01287V7.65621L148.649 7.4624L148.94 7.65621Z" fill="#B44406"/>
<path d="M148.651 6.20211V7.46187L148.263 7.65568L147.973 7.46187V6.20211L148.263 6.0083L148.651 6.20211Z" fill="#B44406"/>
<path d="M148.261 4.65133V6.00799L147.97 6.2018L147.68 6.00799V4.65133L147.97 4.45752L148.261 4.65133Z" fill="#B44406"/>
<path d="M147.971 9.10911V10.4658L147.681 10.6596L147.293 10.4658V9.10911L147.681 9.01221L147.971 9.10911Z" fill="#B44406"/>
<path d="M147.682 7.65621V9.01287L147.295 9.10978L147.004 9.01287V7.65621L147.295 7.4624L147.682 7.65621Z" fill="#B44406"/>
<path d="M147.682 4.65133V6.00799L147.295 6.2018L147.004 6.00799V4.65133L147.295 4.45752L147.682 4.65133Z" fill="#B44406"/>
<path d="M147.294 10.4658L147.003 10.6596L146.615 10.4658V9.10911L147.003 9.01221L147.294 9.10911V10.4658Z" fill="#B44406"/>
<path d="M147.294 6.20211V7.46187L147.003 7.65568L146.615 7.46187V6.20211L147.003 6.0083L147.294 6.20211Z" fill="#B44406"/>
<path d="M147.294 3.1982V4.45796L147.003 4.65177L146.615 4.45796V3.1982L147.003 3.00439L147.294 3.1982Z" fill="#B44406"/>
<path d="M147.003 7.65621V9.01287L146.615 9.10978L146.324 9.01287V7.65621L146.615 7.4624L147.003 7.65621Z" fill="#B44406"/>
<path d="M147.003 4.65133V6.00799L146.615 6.2018L146.324 6.00799V4.65133L146.615 4.45752L147.003 4.65133Z" fill="#B44406"/>
<path d="M146.616 6.20211V7.46187L146.325 7.65568L145.938 7.46187V6.20211L146.325 6.0083L146.616 6.20211Z" fill="#B44406"/>
<path d="M146.616 3.1982V4.45796L146.325 4.65177L145.938 4.45796V3.1982L146.325 3.00439L146.616 3.1982Z" fill="#B44406"/>
<path d="M146.325 7.65621V9.01287L145.937 9.10978L145.646 9.01287V7.65621L145.937 7.4624L146.325 7.65621Z" fill="#B44406"/>
<path d="M146.325 4.65133V6.00799L145.937 6.2018L145.646 6.00799V4.65133L145.937 4.45752L146.325 4.65133Z" fill="#B44406"/>
<path d="M146.325 1.6472V3.00386L145.937 3.19767L145.646 3.00386V1.6472L145.937 1.55029L146.325 1.6472Z" fill="#B44406"/>
<path d="M145.936 9.10911V10.4658L145.645 10.6596L145.258 10.4658V9.10911L145.645 9.01221L145.936 9.10911Z" fill="#B44406"/>
<path d="M145.936 6.20211V7.46187L145.645 7.65568L145.258 7.46187V6.20211L145.645 6.0083L145.936 6.20211Z" fill="#B44406"/>
<path d="M145.936 3.1982V4.45796L145.645 4.65177L145.258 4.45796V3.1982L145.645 3.00439L145.936 3.1982Z" fill="#B44406"/>
<path d="M145.647 7.65621V9.01287L145.259 9.10978L144.969 9.01287V7.65621L145.259 7.4624L145.647 7.65621Z" fill="#B44406"/>
<path d="M145.647 4.65133V6.00799L145.259 6.2018L144.969 6.00799V4.65133L145.259 4.45752L145.647 4.65133Z" fill="#B44406"/>
<path d="M145.647 1.6472V3.00386L145.259 3.19767L144.969 3.00386V1.6472L145.259 1.55029L145.647 1.6472Z" fill="#B44406"/>
<path d="M145.257 6.20211V7.46187L144.966 7.65568L144.676 7.46187V6.20211L144.966 6.0083L145.257 6.20211Z" fill="#B44406"/>
<path d="M145.257 3.1982V4.45796L144.966 4.65177L144.676 4.45796V3.1982L144.966 3.00439L145.257 3.1982Z" fill="#B44406"/>
<path d="M144.967 4.65133V6.00799L144.677 6.2018L144.289 6.00799V4.65133L144.677 4.45752L144.967 4.65133Z" fill="#B44406"/>
<path d="M144.677 1.55029L144.967 1.6472V3.00386L144.677 3.19767L144.289 3.00386V1.6472L144.677 1.55029Z" fill="#B44406"/>
<path d="M144.678 6.20211V7.46187L144.291 7.65568L144 7.46187V6.20211L144.291 6.0083L144.678 6.20211Z" fill="#B44406"/>
<path d="M144.678 3.1982V4.45796L144.291 4.65177L144 4.45796V3.1982L144.291 3.00439L144.678 3.1982Z" fill="#B44406"/>
<path d="M144.678 0.194297V1.55096L144.291 1.64786L144 1.55096V0.194297L144.291 0.000488281L144.678 0.194297Z" fill="#B44406"/>
<path d="M144.29 4.65133V6.00799L143.999 6.2018L143.611 6.00799V4.65133L143.999 4.45752L144.29 4.65133Z" fill="#B44406"/>
<path d="M144.29 1.6472V3.00386L143.999 3.19767L143.611 3.00386V1.6472L143.999 1.55029L144.29 1.6472Z" fill="#B44406"/>
<path d="M143.999 6.20211V7.46187L143.611 7.65568L143.32 7.46187V6.20211L143.611 6.0083L143.999 6.20211Z" fill="#B44406"/>
<path d="M143.999 3.1982V4.45796L143.611 4.65177L143.32 4.45796V3.1982L143.611 3.00439L143.999 3.1982Z" fill="#B44406"/>
<path d="M143.999 0.194297V1.55096L143.611 1.64786L143.32 1.55096V0.194297L143.611 0.000488281L143.999 0.194297Z" fill="#B44406"/>
<path d="M143.612 4.65133V6.00799L143.321 6.2018L142.934 6.00799V4.65133L143.321 4.45752L143.612 4.65133Z" fill="#B44406"/>
<path d="M143.612 1.6472V3.00386L143.321 3.19767L142.934 3.00386V1.6472L143.321 1.55029L143.612 1.6472Z" fill="#B44406"/>
<path d="M143.321 6.20211V7.46187L142.933 7.65568L142.643 7.46187V6.20211L142.933 6.0083L143.321 6.20211Z" fill="#B44406"/>
<path d="M143.321 3.1982V4.45796L142.933 4.65177L142.643 4.45796V3.1982L142.933 3.00439L143.321 3.1982Z" fill="#B44406"/>
<path d="M143.321 0.194297V1.55096L142.933 1.64786L142.643 1.55096V0.194297L142.933 0.000488281L143.321 0.194297Z" fill="#B44406"/>
<path d="M142.932 4.65133V6.00799L142.641 6.2018L142.254 6.00799V4.65133L142.641 4.45752L142.932 4.65133Z" fill="#B44406"/>
<path d="M142.934 1.6472V3.00386L142.643 3.19767L142.256 3.00386V1.6472L142.643 1.55029L142.934 1.6472Z" fill="#B44406"/>
<path d="M142.643 6.20211V7.46187L142.256 7.65568L141.965 7.46187V6.20211L142.256 6.0083L142.643 6.20211Z" fill="#B44406"/>
<path d="M142.643 3.1982V4.45796L142.256 4.65177L141.965 4.45796V3.1982L142.256 3.00439L142.643 3.1982Z" fill="#B44406"/>
<path d="M142.643 0.194297V1.55096L142.256 1.64786L141.965 1.55096V0.194297L142.256 0.000488281L142.643 0.194297Z" fill="#B44406"/>
<path d="M142.255 4.65133V6.00799L141.965 6.2018L141.674 6.00799V4.65133L141.965 4.45752L142.255 4.65133Z" fill="#B44406"/>
<path d="M141.965 1.55029L142.255 1.6472V3.00386L141.965 3.19767L141.674 3.00386V1.6472L141.965 1.55029Z" fill="#B44406"/>
<path d="M141.963 6.20211V7.46187L141.673 7.65568L141.285 7.46187V6.20211L141.673 6.0083L141.963 6.20211Z" fill="#B44406"/>
<path d="M141.963 3.1982V4.45796L141.673 4.65177L141.285 4.45796V3.1982L141.673 3.00439L141.963 3.1982Z" fill="#B44406"/>
<path d="M141.674 4.65133V6.00799L141.287 6.2018L140.996 6.00799V4.65133L141.287 4.45752L141.674 4.65133Z" fill="#B44406"/>
<path d="M141.674 1.6472V3.00386L141.287 3.19767L140.996 3.00386V1.6472L141.287 1.55029L141.674 1.6472Z" fill="#B44406"/>
<path d="M141.286 6.20211V7.46187L140.995 7.65568L140.607 7.46187V6.20211L140.995 6.0083L141.286 6.20211Z" fill="#B44406"/>
<path d="M141.286 3.1982V4.45796L140.995 4.65177L140.607 4.45796V3.1982L140.995 3.00439L141.286 3.1982Z" fill="#B44406"/>
<path d="M140.995 4.65133V6.00799L140.607 6.2018L140.316 6.00799V4.65133L140.607 4.45752L140.995 4.65133Z" fill="#B44406"/>
<path d="M140.995 1.6472V3.00386L140.607 3.19767L140.316 3.00386V1.6472L140.607 1.55029L140.995 1.6472Z" fill="#B44406"/>
<path d="M140.608 6.20211V7.46187L140.317 7.65568L139.93 7.46187V6.20211L140.317 6.0083L140.608 6.20211Z" fill="#B44406"/>
<path d="M140.608 3.1982V4.45796L140.317 4.65177L139.93 4.45796V3.1982L140.317 3.00439L140.608 3.1982Z" fill="#B44406"/>
<path d="M140.608 0.194297V1.55096L140.317 1.64786L139.93 1.55096V0.194297L140.317 0.000488281L140.608 0.194297Z" fill="#B44406"/>
<path d="M140.315 4.65133V6.00799L139.927 6.2018L139.637 6.00799V4.65133L139.927 4.45752L140.315 4.65133Z" fill="#B44406"/>
<path d="M140.315 1.6472V3.00386L139.927 3.19767L139.637 3.00386V1.6472L139.927 1.55029L140.315 1.6472Z" fill="#B44406"/>
<path d="M139.928 6.20211V7.46187L139.638 7.65568L139.25 7.46187V6.20211L139.638 6.0083L139.928 6.20211Z" fill="#B44406"/>
<path d="M139.928 3.1982V4.45796L139.638 4.65177L139.25 4.45796V3.1982L139.638 3.00439L139.928 3.1982Z" fill="#B44406"/>
<path d="M139.928 0.194297V1.55096L139.638 1.64786L139.25 1.55096V0.194297L139.638 0.000488281L139.928 0.194297Z" fill="#B44406"/>
<path d="M139.637 7.65621V9.01287L139.25 9.10978L138.959 9.01287V7.65621L139.25 7.4624L139.637 7.65621Z" fill="#B44406"/>
<path d="M139.637 4.65133V6.00799L139.25 6.2018L138.959 6.00799V4.65133L139.25 4.45752L139.637 4.65133Z" fill="#B44406"/>
<path d="M139.25 1.55029L139.637 1.6472V3.00386L139.25 3.19767L138.959 3.00386V1.6472L139.25 1.55029Z" fill="#B44406"/>
<path d="M139.249 9.10911V10.4658L138.959 10.6596L138.668 10.4658V9.10911L138.959 9.01221L139.249 9.10911Z" fill="#B44406"/>
<path d="M139.249 6.20211V7.46187L138.959 7.65568L138.668 7.46187V6.20211L138.959 6.0083L139.249 6.20211Z" fill="#B44406"/>
<path d="M139.249 3.1982V4.45796L138.959 4.65177L138.668 4.45796V3.1982L138.959 3.00439L139.249 3.1982Z" fill="#B44406"/>
<path d="M139.249 0.194297V1.55096L138.959 1.64786L138.668 1.55096V0.194297L138.959 0.000488281L139.249 0.194297Z" fill="#B44406"/>
<path d="M138.96 7.65621V9.01287L138.669 9.10978L138.281 9.01287V7.65621L138.669 7.4624L138.96 7.65621Z" fill="#B44406"/>
<path d="M138.96 4.65133V6.00799L138.669 6.2018L138.281 6.00799V4.65133L138.669 4.45752L138.96 4.65133Z" fill="#B44406"/>
<path d="M138.962 1.6472V3.00386L138.671 3.19767L138.283 3.00386V1.6472L138.671 1.55029L138.962 1.6472Z" fill="#B44406"/>
<path d="M138.669 9.10911V10.4658L138.281 10.6596L137.99 10.4658V9.10911L138.281 9.01221L138.669 9.10911Z" fill="#B44406"/>
<path d="M138.669 6.20211V7.46187L138.281 7.65568L137.99 7.46187V6.20211L138.281 6.0083L138.669 6.20211Z" fill="#B44406"/>
<path d="M138.669 3.1982V4.45796L138.281 4.65177L137.99 4.45796V3.1982L138.281 3.00439L138.669 3.1982Z" fill="#B44406"/>
<path d="M138.669 0.194297V1.55096L138.281 1.64786L137.99 1.55096V0.194297L138.281 0.000488281L138.669 0.194297Z" fill="#B44406"/>
<path d="M138.282 7.65621V9.01287L137.991 9.10978L137.604 9.01287V7.65621L137.991 7.4624L138.282 7.65621Z" fill="#B44406"/>
<path d="M138.282 4.65133V6.00799L137.991 6.2018L137.604 6.00799V4.65133L137.991 4.45752L138.282 4.65133Z" fill="#B44406"/>
<path d="M138.282 1.6472V3.00386L137.991 3.19767L137.604 3.00386V1.6472L137.991 1.55029L138.282 1.6472Z" fill="#B44406"/>
<path d="M137.991 6.20211V7.46187L137.603 7.65568L137.312 7.46187V6.20211L137.603 6.0083L137.991 6.20211Z" fill="#B44406"/>
<path d="M137.991 3.1982V4.45796L137.603 4.65177L137.312 4.45796V3.1982L137.603 3.00439L137.991 3.1982Z" fill="#B44406"/>
<path d="M137.604 7.65621V9.01287L137.313 9.10978L136.926 9.01287V7.65621L137.313 7.4624L137.604 7.65621Z" fill="#B44406"/>
<path d="M137.604 4.65133V6.00799L137.313 6.2018L136.926 6.00799V4.65133L137.313 4.45752L137.604 4.65133Z" fill="#B44406"/>
<path d="M137.604 1.6472V3.00386L137.313 3.19767L136.926 3.00386V1.6472L137.313 1.55029L137.604 1.6472Z" fill="#B44406"/>
<path d="M137.313 9.10911V10.4658L136.925 10.6596L136.635 10.4658V9.10911L136.925 9.01221L137.313 9.10911Z" fill="#B44406"/>
<path d="M137.313 6.20211V7.46187L136.925 7.65568L136.635 7.46187V6.20211L136.925 6.0083L137.313 6.20211Z" fill="#B44406"/>
<path d="M137.313 3.1982V4.45796L136.925 4.65177L136.635 4.45796V3.1982L136.925 3.00439L137.313 3.1982Z" fill="#B44406"/>
<path d="M136.924 7.65621V9.01287L136.634 9.10978L136.246 9.01287V7.65621L136.634 7.4624L136.924 7.65621Z" fill="#B44406"/>
<path d="M136.924 4.65133V6.00799L136.634 6.2018L136.246 6.00799V4.65133L136.634 4.45752L136.924 4.65133Z" fill="#B44406"/>
<path d="M136.634 1.55029L136.924 1.6472V3.00386L136.634 3.19767L136.246 3.00386V1.6472L136.634 1.55029Z" fill="#B44406"/>
<path d="M136.635 6.20211V7.46187L136.248 7.65568L135.957 7.46187V6.20211L136.248 6.0083L136.635 6.20211Z" fill="#B44406"/>
<path d="M136.635 3.1982V4.45796L136.248 4.65177L135.957 4.45796V3.1982L136.248 3.00439L136.635 3.1982Z" fill="#B44406"/>
<path d="M136.245 7.65621V9.01287L135.955 9.10978L135.664 9.01287V7.65621L135.955 7.4624L136.245 7.65621Z" fill="#B44406"/>
<path d="M136.245 4.65133V6.00799L135.955 6.2018L135.664 6.00799V4.65133L135.955 4.45752L136.245 4.65133Z" fill="#B44406"/>
<path d="M135.956 6.20211V7.46187L135.665 7.65568L135.277 7.46187V6.20211L135.665 6.0083L135.956 6.20211Z" fill="#B44406"/>
<path d="M135.956 3.1982V4.45796L135.665 4.65177L135.277 4.45796V3.1982L135.665 3.00439L135.956 3.1982Z" fill="#B44406"/>
<path d="M135.665 7.65621V9.01287L135.277 9.10978L134.986 9.01287V7.65621L135.277 7.4624L135.665 7.65621Z" fill="#B44406"/>
<path d="M135.665 4.65133V6.00799L135.277 6.2018L134.986 6.00799V4.65133L135.277 4.45752L135.665 4.65133Z" fill="#B44406"/>
<path d="M135.276 6.20211V7.46187L134.985 7.65568L134.598 7.46187V6.20211L134.985 6.0083L135.276 6.20211Z" fill="#B44406"/>
<path d="M135.276 3.1982V4.45796L134.985 4.65177L134.598 4.45796V3.1982L134.985 3.00439L135.276 3.1982Z" fill="#B44406"/>
<path d="M134.987 4.65133V6.00799L134.599 6.2018L134.309 6.00799V4.65133L134.599 4.45752L134.987 4.65133Z" fill="#B44406"/>
<path d="M134.6 6.20211V7.46187L134.31 7.65568L133.922 7.46187V6.20211L134.31 6.0083L134.6 6.20211Z" fill="#B44406"/>
<path d="M134.307 4.65133V6.00799L133.92 6.2018L133.629 6.00799V4.65133L133.92 4.45752L134.307 4.65133Z" fill="#B44406"/>
<path d="M133.92 6.20211V7.46187L133.63 7.65568L133.242 7.46187V6.20211L133.63 6.0083L133.92 6.20211Z" fill="#B44406"/>
<path d="M133.631 4.65133V6.00799L133.244 6.2018L132.953 6.00799V4.65133L133.244 4.45752L133.631 4.65133Z" fill="#B44406"/>
<path d="M133.242 6.20211V7.46187L132.951 7.65568L132.66 7.46187V6.20211L132.951 6.0083L133.242 6.20211Z" fill="#B44406"/>
<path d="M133.242 3.1982V4.45796L132.951 4.65177L132.66 4.45796V3.1982L132.951 3.00439L133.242 3.1982Z" fill="#B44406"/>
<path d="M132.952 4.65133V6.00799L132.661 6.2018L132.273 6.00799V4.65133L132.661 4.45752L132.952 4.65133Z" fill="#B44406"/>
<path d="M132.663 6.20211V7.46187L132.275 7.65568L131.984 7.46187V6.20211L132.275 6.0083L132.663 6.20211Z" fill="#B44406"/>
<path d="M132.663 3.1982V4.45796L132.275 4.65177L131.984 4.45796V3.1982L132.275 3.00439L132.663 3.1982Z" fill="#B44406"/>
<path d="M132.272 4.65133V6.00799L131.981 6.2018L131.594 6.00799V4.65133L131.981 4.45752L132.272 4.65133Z" fill="#B44406"/>
<path d="M132.272 1.6472V3.00386L131.981 3.19767L131.594 3.00386V1.6472L131.981 1.55029L132.272 1.6472Z" fill="#B44406"/>
<path d="M131.983 3.1982V4.45796L131.595 4.65177L131.305 4.45796V3.1982L131.595 3.00439L131.983 3.1982Z" fill="#B44406"/>
<path d="M131.596 4.65133V6.00799L131.306 6.2018L130.918 6.00799V4.65133L131.306 4.45752L131.596 4.65133Z" fill="#B44406"/>
<path d="M131.596 1.6472V3.00386L131.306 3.19767L130.918 3.00386V1.6472L131.306 1.55029L131.596 1.6472Z" fill="#B44406"/>
<path d="M131.303 3.1982V4.45796L130.916 4.65177L130.625 4.45796V3.1982L130.916 3.00439L131.303 3.1982Z" fill="#B44406"/>
<path d="M130.917 1.6472V3.00386L130.626 3.19767L130.238 3.00386V1.6472L130.626 1.55029L130.917 1.6472Z" fill="#B44406"/>
<path d="M130.626 3.1982V4.45796L130.238 4.65177L129.947 4.45796V3.1982L130.238 3.00439L130.626 3.1982Z" fill="#B44406"/>
<path d="M130.24 1.6472V3.00386L129.949 3.19767L129.658 3.00386V1.6472L129.949 1.55029L130.24 1.6472Z" fill="#B44406"/>
<path d="M129.657 1.6472V3.00386L129.269 3.19767L128.979 3.00386V1.6472L129.269 1.55029L129.657 1.6472Z" fill="#B44406"/>
<path d="M141.963 0.194297V1.55096L141.673 1.64786L141.285 1.55096V0.194297L141.673 0.000488281L141.963 0.194297Z" fill="#B44406"/>
<path d="M141.286 0.194297V1.55096L140.995 1.64786L140.607 1.55096V0.194297L140.995 0.000488281L141.286 0.194297Z" fill="#B44406"/>
<path d="M131.303 0.194297V1.55096L130.916 1.64786L130.625 1.55096V0.194297L130.916 0.000488281L131.303 0.194297Z" fill="#B44406"/>
<path d="M130.626 0.194297V1.55096L130.238 1.64786L129.947 1.55096V0.194297L130.238 0.000488281L130.626 0.194297Z" fill="#B44406"/>
<path d="M129.948 0.194297V1.55096L129.657 1.64786L129.27 1.55096V0.194297L129.657 0.000488281L129.948 0.194297Z" fill="#B44406"/>
<path d="M129.27 0.194297V1.55096L128.979 1.64786L128.592 1.55096V0.194297L128.979 0.000488281L129.27 0.194297Z" fill="#B44406"/>
<path d="M128.592 0.194297V1.55096L128.302 1.64786L127.914 1.55096V0.194297L128.302 0.000488281L128.592 0.194297Z" fill="#B44406"/>
<path d="M127.913 0.194297V1.55096L127.622 1.64786L127.234 1.55096V0.194297L127.622 0.000488281L127.913 0.194297Z" fill="#B44406"/>
</svg>
