<svg width="22" height="23" viewBox="0 0 22 23" fill="none" xmlns="http://www.w3.org/2000/svg">
<g id="Spotify" clip-path="url(#clip0_1934_67545)">
<path id="Vector" d="M18.7782 3.72182C16.7006 1.64421 13.9382 0.5 11 0.5C8.06184 0.5 5.29942 1.64421 3.22182 3.72182C1.14421 5.79942 0 8.56168 0 11.5C0 14.4382 1.14421 17.2006 3.22182 19.2782C5.29959 21.3558 8.06184 22.5 11 22.5C13.9382 22.5 16.7006 21.3558 18.7782 19.2782C20.8558 17.2006 22 14.4382 22 11.5C22 8.56168 20.8558 5.79942 18.7782 3.72182ZM11 21.2109C5.64536 21.2109 1.28906 16.8546 1.28906 11.5C1.28906 6.14536 5.64536 1.78906 11 1.78906C16.3546 1.78906 20.7109 6.14536 20.7109 11.5C20.7109 16.8546 16.3546 21.2109 11 21.2109Z" fill="white"/>
<path id="Vector_2" d="M18.4367 9.10745C15.4499 7.76669 12.2625 7.08691 8.96295 7.08691C7.32242 7.08691 5.68423 7.25946 4.09372 7.59985C3.7456 7.67421 3.52388 8.01678 3.5984 8.3649C3.67276 8.71301 4.01533 8.93507 4.36345 8.86038C5.86551 8.53896 7.41289 8.37598 8.96295 8.37598C12.0794 8.37598 15.089 9.01782 17.9087 10.2836C17.9944 10.322 18.0841 10.3403 18.1724 10.3403C18.4184 10.3403 18.6534 10.1985 18.7607 9.95944C18.9065 9.63466 18.7613 9.25331 18.4367 9.10745Z" fill="white"/>
<path id="Vector_3" d="M15.7611 15.1798C13.619 14.2117 11.332 13.7207 8.96313 13.7207C7.70261 13.7207 6.44627 13.8634 5.22905 14.1445C4.88228 14.2246 4.66609 14.5707 4.74615 14.9174C4.82622 15.2644 5.17232 15.4806 5.51926 15.4005C6.64148 15.1412 7.80012 15.0098 8.96313 15.0098C11.1477 15.0098 13.2561 15.4621 15.2302 16.3544C15.3163 16.3935 15.4064 16.4118 15.4952 16.4118C15.7406 16.4118 15.9753 16.2708 16.0829 16.0326C16.2296 15.7083 16.0855 15.3265 15.7611 15.1798Z" fill="white"/>
<path id="Vector_4" d="M17.1201 12.0953C14.549 10.9379 11.8046 10.3511 8.96291 10.3511C7.50936 10.3511 6.059 10.5087 4.65211 10.8195C4.3045 10.8964 4.08495 11.2405 4.16183 11.5879C4.2387 11.9355 4.58279 12.1554 4.93023 12.0782C6.24598 11.7875 7.60268 11.6401 8.96291 11.6401C11.6208 11.6401 14.1873 12.1887 16.5909 13.2708C16.6768 13.3094 16.7666 13.3277 16.8551 13.3277C17.101 13.3277 17.3358 13.1863 17.4432 12.9475C17.5894 12.623 17.4447 12.2415 17.1201 12.0953Z" fill="white"/>
</g>
<defs>
<clipPath id="clip0_1934_67545">
<rect width="22" height="22" fill="white" transform="translate(0 0.5)"/>
</clipPath>
</defs>
</svg>
