<svg width="25" height="25" viewBox="0 0 500 500" fill="none" xmlns="http://www.w3.org/2000/svg">
<path d="M455.785 206.379C412.659 207.337 372.409 193.92 337.908 169.003V340.547C337.908 405.715 297.658 463.216 236.324 486.216C175.948 509.216 106.947 491.966 64.7796 443.09C21.654 393.256 13.9872 323.297 44.6543 265.796C75.3214 209.254 138.572 177.629 203.74 186.254V272.505C174.031 262.921 141.447 273.463 123.239 298.38C105.988 324.256 105.988 357.798 124.197 382.715C142.406 407.632 174.989 418.173 203.74 408.59C233.449 399.007 253.574 371.215 253.574 340.547V5.12622H337.908C337.908 12.793 337.908 19.5014 339.825 27.1682C345.575 58.7936 363.784 86.5857 391.576 103.836C409.784 116.294 432.785 123.003 455.785 123.003V206.379Z" fill="white"/>
</svg>
