<svg id="Layer_1" data-name="Layer 1" xmlns="http://www.w3.org/2000/svg" viewBox="0 0 864 864"><defs><style>.cls-1{fill:#f2e9e4;}</style></defs><path class="cls-1" d="M605.53,285.84c-5.36-5.26-11-4.52-11-4.52a2.84,2.84,0,0,1,1.47-.21c1,.1,0-.53.84-.32s1.16.11,1-.1,1.36.52,1,0,1.68.94,1.15.31.11-.73.11-.73.94.73.84.31.52-.42.73-.31,1,.21,1.26.31.32-.1.53-.31,2.1,1.15,1.57.63c-.94-1.16.32-.63.32-.63s.31-.11-.32-.53.11-.63-1.47-1.16-.1-.42-1.36-.52-.63-.32-1.58-.42c-2.31,0-.84-.42-1.57-.42s-1.58.31-2.42.31a31.08,31.08,0,0,0-3.46.53,6.43,6.43,0,0,1,2.52-.84c1.68-.32-.21-.42,1.15-.53s.84-.31,1.89-.52-.42-.74.32-.84,2,.41,1.89,0,1.68-.11,2.2-.22-.31-.52-.1-.73.63-.11.42-.53,1.57-.21,1.57-.21-.21-.52-2.31-.52-.52-.32-1.47-.21-2.41.52-2.94.52a9.61,9.61,0,0,0-2.73.74c-1,.42-1,0-1,0,.22-.32.22-.42.22-.53a2.84,2.84,0,0,1,1.26-.73c.63-.21-1.37-.11.63-.74s0-.53,1.26-.95.63-.84.63-.84a14.41,14.41,0,0,0,2.31-.73c.52-.32-1-.21-.74-.53s1.68-.53,1.37-.63-1.26.1-2.73,0-1.79.53-2.52.42-1.26.84-1.69.84-.73,0-2.2,1.16-1,0-1,0a27.77,27.77,0,0,1-2.42,2.31c-.73.42.63-1.68,0-1.05a18.8,18.8,0,0,0-1.78,2.73l.52-1.26s.63-1.47.84-1.78-.73-.32-.21-1.06-.1-1.05,0-1.57-.42-.32-.21-1,.53-1.16-.21-.63-.1-.84.11-2-.32-.63.1-1.58a5.2,5.2,0,0,0,.32-1.79c.1-.31-.63-.52-.53-.84s.32-1.47,0-1.05a4,4,0,0,1-1.15.84c-.32.11-.84,1.37-1,1.58s-.63.84-.84,1.05-.53,1.16-1,1.79c-.42.42-.42,1.89-.42,2.63s-.42.74-.63,1.58a16.85,16.85,0,0,0,.32,3.68c-1-2.53-2.21-4.1-2.31-3.47s-.74-.32-1.47-.95-1,0-2.21-1.05-1,.1-2.31-.74-.63.11-2.42-.73-.63.52-1.78.21-3.47-.21-2.31,0c2.52.73.73.94,1.68,1.26a10.85,10.85,0,0,1,1.78,1c.32.1.32.42.74.52a11.29,11.29,0,0,1,1.78.84c.84.42-.63,1.05,1.47,1.89s1.26,1.16,3.36,2.32a5.54,5.54,0,0,1,2.53,2.21c-.84-.63-1.68-1.06-2.31-1.47-1.16-.85-1.68-.64-3.68-1.58s-1.79-.11-3.15-.42-.84.42-1.26.42-2,.63-2.84.73-3,.85-2.73.95.31.21.11.74.31.42.31.42l1.16-.32c1.15-.31.21.42,1.36.11s.21.42,1,.31c1.37-.21-.52.74,0,.53,2.21-.63,2.31-.32,2.63-.21s.73.21.94.31,1.26.53,1.26.53c-1.15-.11-2-.21-2.31-.21a10.13,10.13,0,0,0-1.89.42c-.63,0-1.89,1.05-3.15,1.37s-1.05.84-1.36,1.05c-1.26.73-3.68,2.63-2.53,2.21s.53.73,1,.52c1.78-1.16,1.89-.31,1.89-.31a4.17,4.17,0,0,0,1.58-.63c1.15-.64.73.21,1,.21s.52-.43,1.47-1.06.73.11,1,0a13.35,13.35,0,0,1,2,0,25.43,25.43,0,0,0-7,3.47c-.83.74-2.94,3.16-2.09,2.84s.94-.94,1.46-1.26,1.06,0,1.58-.42.42.11.74,0,.42.11,1-.42.73.21,1.15,0c1.26-.84,1.47-.32,2.1-.84s.84.52,1,.21a1.8,1.8,0,0,1,1-.32c.42,0,.84-.42,1.26-.63a2,2,0,0,1,1.16,0,16.57,16.57,0,0,0-6.93,6.42c-.84,1.78-1.79,4-1.16,3.68s1.05-1.79,1.79-2.32.94.53,2-1.68,1.37-.73,2.31-1.89,1-.74,1.68-1.26a3.21,3.21,0,0,1,1.48-.63c-.21.1-.32.31-.53.42l-.42.73-1.05.84-.42.74a6.8,6.8,0,0,0-1.89,2c-.21.42.1.31-.42,1.37a3.09,3.09,0,0,1-.74,1.68c-.21.31-1,2.21-.73,2.94,0,.84-.11,2-.11,2.53s.74-1.16,1.16-1.48.63,0,1-1,.73-.31,1.26-1.26,1-.53,1.47-1.16.73-2,1.16-.84c.1.42,1-1,1.26-1.78,0,0,.1-1.9,1-1.69-.53.21-.53.95-.53.95s-.32.63,0,.84a1.26,1.26,0,0,0,0,1.37s-1.15,1.26-1.15,2c0,.31.52-.32.31.21s.32.21,0,.94c-.11.32.63-.52.32.42s.31.11.2,1.27a1.07,1.07,0,0,0,.22.94s.52-1.68.63-1.26.31-1.05.41-.21.32-1.16.32-1.16.21-.52.32.11.31-1.26.42-.84.63-.74.63-1.16a1.46,1.46,0,0,0,.42-.32,1.86,1.86,0,0,0,.73-.21,10.54,10.54,0,0,0-.63,2.21c0,.32.21.11,0,1,0,.32.32-.31.32.53s.31.95.31.95l.21-.43s.21-.94.32-.63.52-1.05.52-1.05l.21.42c.1.21-.31.32.11,1.06.1.31-.42.2-.11,1.15.11.32-.42.32.11,1.58.21.42-.74-.21.1,1.47.11.21-.63,0,.11,1.47.1.32-.63.42-.21,1.27.1.2.21.31,0,.52s-.32.53,0,1.16c.21.42-.42.1,0,1.26.21.53-.32.53,0,1.16s-.11.84,0,1.47-.42.42.21,1.68c.21.53-.53-.1-.11,1.16,0,.21-.52.21-.1,1.26.1.21-.21.31,0,.95.1.31-.21.52,0,1.15.1.42-.21.53-.11,1.16a4.83,4.83,0,0,1,.11.84s-.32.11-.11.74-.21.31,0,1.05c0,.31-.21.1-.21.73-.1.21-.52.11,0,1a8.46,8.46,0,0,0,3.68-.1c.21-.53,0-.64-.11-.53s-.1-1.05,0-1.26-.42.1-.1-1.26c.1-.42-.32-.42-.11-1.06s-.31-1.05-.1-1.89c.31-1.05-.42-.1-.21-.73s-.11-.95,0-1.16-.11-.42.1-.95-.42-.63-.1-1.36-.32-.95-.11-1.48c.42-1.05-.21-.42.11-1.05s-.11-.94,0-1.26a1.18,1.18,0,0,0,.1-.84c.21-.53-.31-.42-.1-1.05s-.42-.63-.11-1.16.11-.63.11-.84-.32.1,0-.74-.11-.31,0-.94a7.46,7.46,0,0,0,.1-.95s-.31-.1-.1-.53-.53-.21-.21-.84.21-.52.21-.73-.21-.32,0-.84-.42,0-.21-.74.1-.53.1-.53-.31,0-.1-.63.1-.52.1-.52a.48.48,0,0,1-.31-.62h0v-.32s.31,0,.31.42a.6.6,0,0,0,.42.63,2,2,0,0,1,.42.95c0,.42.32-.63.63.21s.21-.74.21-.74a.85.85,0,0,0,0-.94c-.31-.53.42.1.11-.74l-.32-.84a.46.46,0,0,0,.32-.11,1,1,0,0,0,.94-.31c.11,0,.21-.11.32-.11-.11.63.1.53.21.63a3,3,0,0,1,.31.42s.11,1.58.21,1.06.42.63.42.63a3.87,3.87,0,0,1,.21-1.26c.11-.53.32,2.52.32,1.78s.11-.73.21-.31.32.84.42.63.31.21.31.21a3.84,3.84,0,0,0-.1-1.47c-.21-.84.32-.11.32-.42s.2-.11.2-.21a3.44,3.44,0,0,0-.42-1.16c-.1-.11-.1-.32-.2-1.16v-.63c.52,0,.1.53.31,1.26s.42.42.42.42,0,1.48.42.84.1,1.16.42,1.06.32.63.42.31.42.11.42.11.21-.63.32.1a4.15,4.15,0,0,0,.73,1.79,2.45,2.45,0,0,0,0-1.26c-.1-.63.32-.21.21-.74s.42,0,.21-.94.74.52.32-.64.42,0,.21-.42a12.6,12.6,0,0,0-.53-1.57c-.42-.85.53,0,.53,0a11,11,0,0,0-.53-1.37,11.07,11.07,0,0,1-.52-1.26,2.49,2.49,0,0,0-.84-1.37,1.13,1.13,0,0,1,.73.32c.32.31,1.26,1.57,1,1.05a1.17,1.17,0,0,1,.21-1.05s1.26,1.78,1.26,1.36.42,0,.42,0-.1-.84.11-.73.63.52.73.21.74,1.05.74.73,1,.74,1,.21,1.26,1.16,1.26.53,1.26,1.16,1.15.52c-.52-1.36,0-1.36-.42-1.78-.94-1,0-.53-.21-1a4.88,4.88,0,0,0-2-1.68,24.43,24.43,0,0,0-5.15-2.73,13.22,13.22,0,0,1,3.36,1.15c.63.42,1.26.84,1.16.21s.73.63.63.11,1.15.63,1,0,2,.94,1.78.52C604.27,285.31,606.58,286.79,605.53,285.84Z"/><path class="cls-1" d="M537.53,328.89c-5.36-5.26-11-4.52-11-4.52a2.84,2.84,0,0,1,1.47-.21c1,.1,0-.53.84-.32s1.16.11,1-.1,1.36.52,1,0,1.68.94,1.15.31.11-.73.11-.73.94.73.84.31.52-.42.73-.31,1,.21,1.26.31.32-.1.53-.31,2.1,1.15,1.57.63c-.94-1.16.32-.63.32-.63s.31-.11-.32-.53.11-.63-1.47-1.15-.1-.43-1.36-.53-.63-.32-1.58-.42c-2.31,0-.84-.42-1.57-.42s-1.58.31-2.42.31a31.08,31.08,0,0,0-3.46.53,6.43,6.43,0,0,1,2.52-.84c1.68-.32-.21-.42,1.15-.53s.84-.31,1.89-.52-.42-.74.32-.85,2,.43,1.89,0,1.68-.1,2.2-.21-.31-.52-.1-.73.63-.11.42-.53,1.57-.21,1.57-.21-.21-.52-2.31-.52-.52-.32-1.47-.21-2.41.52-2.94.52a9.61,9.61,0,0,0-2.73.74c-1,.42-1,0-1,0,.22-.32.22-.42.22-.53a2.84,2.84,0,0,1,1.26-.73c.63-.21-1.37-.11.63-.74s0-.53,1.26-1,.63-.84.63-.84a14.41,14.41,0,0,0,2.31-.73c.52-.32-1-.21-.74-.53s1.68-.53,1.37-.63-1.26.1-2.73,0-1.79.52-2.52.42-1.26.84-1.69.84-.73,0-2.2,1.16-1,0-1,0a27.77,27.77,0,0,1-2.42,2.31c-.73.42.63-1.68,0-1a18.8,18.8,0,0,0-1.78,2.73l.52-1.26s.63-1.47.84-1.79-.73-.31-.21-1-.1-1,0-1.58-.42-.31-.21-.94.53-1.16-.21-.63-.1-.84.11-2-.32-.63.1-1.58a5.2,5.2,0,0,0,.32-1.79c.1-.31-.63-.52-.53-.84s.32-1.47,0-1.05a4,4,0,0,1-1.15.84c-.32.11-.84,1.37-1,1.58s-.63.84-.84,1-.53,1.16-1,1.79c-.42.42-.42,1.89-.42,2.63s-.42.73-.63,1.58a16.85,16.85,0,0,0,.32,3.68c-1-2.53-2.21-4.1-2.31-3.47s-.74-.32-1.47-.95-1,0-2.21-1.05-1.05.1-2.31-.74-.63.11-2.42-.73-.63.52-1.78.21-3.47-.21-2.31,0c2.52.73.73.94,1.68,1.26a12.1,12.1,0,0,1,1.78.94c.32.11.32.43.74.53a11.29,11.29,0,0,1,1.78.84c.84.42-.63,1,1.47,1.9s1.26,1.15,3.37,2.31,2.52,2.21,2.52,2.21c-.84-.63-1.68-1-2.31-1.48-1.16-.84-1.68-.63-3.68-1.57s-1.79-.11-3.15-.42-.84.42-1.26.42-2,.63-2.84.73-3.05.84-2.73,1,.32.21.11.74.31.42.31.42l1.16-.32c1.15-.31.21.42,1.36.11s.21.42,1,.31c1.37-.21-.52.74,0,.53,2.21-.63,2.31-.32,2.63-.21s.73.21.94.31,1.26.53,1.26.53c-1.15-.11-2-.21-2.31-.21a10.13,10.13,0,0,0-1.89.42c-.63,0-1.89,1.05-3.15,1.37s-1.05.84-1.36,1c-1.26.73-3.68,2.63-2.53,2.21s.53.73,1,.52c1.79-1.15,1.89-.31,1.89-.31a4.12,4.12,0,0,0,1.58-.64c1.15-.63.73.21,1,.21s.52-.41,1.47-1,.73.11,1.05,0a13.35,13.35,0,0,1,2,0,25.43,25.43,0,0,0-7,3.47c-.84.74-2.94,3.16-2.1,2.84s.95-.94,1.47-1.26,1.06,0,1.58-.42.42.11.74,0,.42.11,1-.42.73.21,1.15,0c1.26-.84,1.47-.32,2.1-.84s.84.52,1,.21a1.8,1.8,0,0,1,1.05-.32c.42,0,.84-.42,1.26-.63a2,2,0,0,1,1.16,0,16.57,16.57,0,0,0-6.93,6.42c-.84,1.78-1.79,4-1.16,3.68s1-1.79,1.79-2.31.94.52,2-1.69,1.37-.73,2.31-1.89,1.05-.74,1.68-1.26a3.17,3.17,0,0,1,1.47-.63c-.2.1-.31.31-.52.42l-.42.73-1,.84-.42.74a6.8,6.8,0,0,0-1.89,2c-.21.42.1.31-.42,1.37a3.09,3.09,0,0,1-.74,1.68c-.21.31-1.05,2.21-.73,2.94,0,.84-.11,2-.11,2.53s.74-1.16,1.16-1.48.63,0,1.05-1.05.73-.31,1.26-1.26,1.05-.52,1.47-1.16.73-2,1.16-.84c.1.42,1-1.05,1.25-1.79,0,0,.11-1.89,1.06-1.68-.53.21-.53.95-.53.95s-.31.63,0,.84a1.3,1.3,0,0,0,0,1.37s-1.15,1.26-1.15,2c0,.32.52-.31.31.21s.31.22,0,1c-.1.32.63-.52.31.42s.32.11.22,1.26a1.09,1.09,0,0,0,.21,1s.52-1.68.63-1.26.31-1,.41-.21.32-1.16.32-1.16.21-.52.32.11.31-1.27.42-.84.63-.74.63-1.16a1.46,1.46,0,0,0,.42-.32,1.86,1.86,0,0,0,.73-.21,10.54,10.54,0,0,0-.63,2.21c0,.32.21.11,0,1,0,.32.32-.31.32.53s.31.94.31.94l.21-.42s.21-.94.32-.63.52-1.05.52-1.05l.21.42c.1.21-.31.32.11,1,.1.32-.42.21-.11,1.16.11.32-.42.32.11,1.58.21.42-.74-.21.1,1.47.11.21-.63,0,.11,1.47.1.32-.63.42-.21,1.26.1.21.21.32,0,.53s-.32.53,0,1.16c.21.42-.42.1,0,1.26.21.52-.32.52,0,1.16s-.11.84,0,1.47-.42.42.21,1.68c.21.53-.53-.1-.11,1.16,0,.21-.52.21-.1,1.26.1.21-.21.31,0,1,.1.31-.21.52,0,1.15.1.42-.21.53-.11,1.16a4.83,4.83,0,0,1,.11.84s-.32.11-.11.74-.21.31,0,1.05c0,.31-.21.1-.21.73-.1.22-.52.11,0,.95a8.46,8.46,0,0,0,3.68-.1c.21-.53,0-.63-.11-.53s-.1-1,0-1.26-.42.1-.1-1.26c.1-.42-.32-.42-.11-1s-.31-1.06-.1-1.9c.31-1.05-.42-.1-.21-.73s-.11-1,0-1.16-.11-.42.1-1-.42-.63-.1-1.37-.32-.94-.11-1.47c.42-1.05-.21-.42.11-1.05s-.11-.95,0-1.26a1.18,1.18,0,0,0,.1-.84c.21-.53-.31-.42-.1-1.05s-.42-.63-.11-1.16.11-.63.11-.84-.32.1,0-.74-.11-.31,0-.94a6,6,0,0,0,.1-.95s-.31-.11-.1-.53-.53-.21-.21-.84.21-.52.21-.73-.21-.32,0-.85-.42,0-.21-.73.1-.53.1-.53-.31,0-.1-.63.1-.52.1-.52a.48.48,0,0,1-.31-.62h0v-.32s.31,0,.31.42a.6.6,0,0,0,.42.63,2,2,0,0,1,.42.95c0,.42.32-.63.63.21s.21-.74.21-.74a.85.85,0,0,0,0-.94c-.31-.53.42.1.11-.74l-.32-.84a.52.52,0,0,0,.32-.11,1,1,0,0,0,.94-.31c.11,0,.21-.11.32-.11-.11.63.1.53.21.63a3,3,0,0,1,.31.42s.11,1.58.21,1.06.42.63.42.63a3.93,3.93,0,0,1,.21-1.27c.11-.52.32,2.53.32,1.79s.11-.73.21-.31.32.84.42.63.31.21.31.21a3.84,3.84,0,0,0-.1-1.47c-.21-.85.32-.11.32-.42s.2-.11.2-.22a3.47,3.47,0,0,0-.42-1.15c-.1-.11-.1-.32-.2-1.16V336c.52,0,.1.53.31,1.26s.42.42.42.42,0,1.48.42.85.1,1.15.42,1.05.32.63.42.31.42.11.42.11.21-.63.32.1a4.15,4.15,0,0,0,.73,1.79,2.45,2.45,0,0,0,0-1.26c-.1-.63.32-.21.21-.74s.42,0,.21-1,.74.53.32-.63.42,0,.21-.42a12.6,12.6,0,0,0-.53-1.57c-.42-.85.53,0,.53,0s-.32-.95-.53-1.37-.52-1.26-.52-1.26a2.49,2.49,0,0,0-.84-1.37,1.13,1.13,0,0,1,.73.32c.32.31,1.26,1.57,1,1a1.15,1.15,0,0,1,.21-1s1.26,1.78,1.26,1.36.42,0,.42,0-.1-.84.11-.73.63.52.73.21.74,1.05.74.73,1,.74,1,.21,1.26,1.16,1.26.53,1.26,1.16,1.15.52c-.52-1.36,0-1.36-.42-1.78-.94-.95,0-.53-.21-.95a4.8,4.8,0,0,0-2-1.68,24.94,24.94,0,0,0-5.15-2.74,13.93,13.93,0,0,1,3.36,1.16c.63.42,1.26.84,1.16.21s.73.63.63.11,1.15.63,1,0,2,.94,1.78.52C536.27,328.36,538.58,329.84,537.53,328.89Z"/><path class="cls-1" d="M558.53,254.8c-5.36-5.25-11-4.52-11-4.52a3.07,3.07,0,0,1,1.47-.21c1,.11,0-.52.84-.31s1.16.1,1-.11,1.36.53,1,0,1.68.95,1.15.32.11-.74.11-.74.94.74.84.32.52-.42.73-.32,1,.21,1.26.32.32-.11.53-.32,2.1,1.16,1.57.63c-.94-1.15.32-.63.32-.63s.31-.1-.32-.52.11-.64-1.47-1.16-.1-.42-1.36-.53-.63-.31-1.58-.42c-2.31,0-.84-.42-1.57-.42s-1.58.32-2.42.32a31,31,0,0,0-3.46.52,6.83,6.83,0,0,1,2.52-.84c1.68-.31-.21-.42,1.15-.52s.84-.32,1.89-.53-.42-.74.32-.84,2,.42,1.89,0,1.68-.11,2.2-.21-.31-.53-.1-.74.63-.1.42-.52,1.57-.21,1.57-.21-.21-.53-2.31-.53-.52-.32-1.47-.21-2.41.53-2.94.53a9.6,9.6,0,0,0-2.73.73c-1,.42-1,0-1,0,.22-.31.22-.42.22-.52a2.93,2.93,0,0,1,1.26-.74c.63-.21-1.37-.11.63-.74s0-.52,1.26-.94.63-.84.63-.84a13.5,13.5,0,0,0,2.31-.74c.52-.32-1-.21-.74-.53s1.68-.52,1.37-.63-1.26.11-2.73,0-1.79.53-2.52.42-1.26.84-1.69.84-.73,0-2.2,1.16-1,0-1,0a27.88,27.88,0,0,1-2.42,2.32c-.73.42.63-1.69,0-1.06a18.9,18.9,0,0,0-1.78,2.74l.52-1.26s.63-1.48.84-1.79-.73-.32-.21-1-.1-1.06,0-1.58-.42-.32-.21-1,.53-1.15-.21-.63-.1-.84.11-2-.32-.63.1-1.57a5.2,5.2,0,0,0,.32-1.79c.1-.32-.63-.53-.53-.84s.32-1.47,0-1a4,4,0,0,1-1.15.84c-.32.1-.84,1.36-1,1.57s-.63.85-.84,1.06-.53,1.15-1,1.78c-.42.42-.42,1.9-.42,2.63s-.42.74-.63,1.58a16.26,16.26,0,0,0,.32,3.68c-1-2.52-2.21-4.1-2.31-3.47s-.74-.32-1.47-.95-1,0-2.21-1.05-1,.11-2.31-.73-.63.1-2.42-.74-.63.53-1.78.21-3.47-.21-2.31,0c2.52.74.73.95,1.68,1.26a10.85,10.85,0,0,1,1.78,1c.32.1.32.42.74.52a11.59,11.59,0,0,1,1.78.85c.84.42-.63,1.05,1.47,1.89s1.26,1.16,3.36,2.31a5.48,5.48,0,0,1,2.53,2.21c-.84-.63-1.68-1-2.31-1.47-1.16-.84-1.68-.63-3.68-1.58s-1.79-.1-3.15-.42-.84.42-1.26.42-2,.63-2.84.74-3,.84-2.73.94.31.21.11.74.31.42.31.42l1.16-.32c1.15-.31.21.43,1.36.11s.21.42,1,.32c1.37-.21-.52.73,0,.52,2.21-.63,2.31-.31,2.63-.21a7.28,7.28,0,0,1,.94.32c.21.11,1.26.52,1.26.52-1.15-.1-2-.21-2.31-.21a10.31,10.31,0,0,0-1.89.42c-.63,0-1.89,1-3.15,1.37s-1.05.84-1.36,1c-1.26.74-3.68,2.63-2.53,2.21s.53.74,1,.53c1.78-1.16,1.89-.32,1.89-.32a4.17,4.17,0,0,0,1.58-.63c1.15-.63.73.21,1,.21s.52-.42,1.47-1,.73.1,1,0a11.13,11.13,0,0,1,2,0,24.88,24.88,0,0,0-7,3.47c-.83.73-2.94,3.15-2.09,2.84s.94-1,1.46-1.26,1.06,0,1.58-.43.42.11.74,0,.42.11,1-.42.73.21,1.15,0c1.26-.84,1.47-.31,2.1-.84s.84.53,1,.21a1.8,1.8,0,0,1,1-.31c.42,0,.84-.42,1.26-.63a2,2,0,0,1,1.16,0,16.61,16.61,0,0,0-6.93,6.41c-.84,1.79-1.79,4-1.16,3.68s1.05-1.78,1.79-2.31.94.53,2-1.68,1.37-.74,2.31-1.9,1-.73,1.68-1.26a3.21,3.21,0,0,1,1.48-.63c-.21.11-.32.32-.53.42l-.42.74-1.05.84-.42.73a6.8,6.8,0,0,0-1.89,2c-.21.42.1.32-.42,1.37a3.09,3.09,0,0,1-.74,1.68c-.21.32-1,2.21-.73,3,0,.84-.11,2-.11,2.52s.74-1.16,1.16-1.47.63,0,1-1,.73-.32,1.26-1.26,1-.53,1.47-1.16.73-2,1.16-.84c.1.42,1-1.06,1.26-1.79,0,0,.1-1.89,1-1.68-.53.21-.53.94-.53.94s-.32.63,0,.84a1.26,1.26,0,0,0,0,1.37s-1.15,1.26-1.15,2c0,.32.52-.32.31.21s.32.21,0,.95c-.11.31.63-.53.32.42s.31.1.2,1.26a1.13,1.13,0,0,0,.22.95s.52-1.69.63-1.27.31-1.05.41-.21.32-1.15.32-1.15.21-.53.32.1.31-1.26.42-.84.63-.74.63-1.16a1.43,1.43,0,0,0,.42-.31,1.91,1.91,0,0,0,.73-.21,10.54,10.54,0,0,0-.63,2.21c0,.31.21.1,0,1.05,0,.31.32-.32.32.52s.31.95.31.95l.21-.42s.21-.95.32-.63.52-1,.52-1l.21.42c.1.21-.31.31.11,1.05.1.31-.42.21-.11,1.15.11.32-.42.32.11,1.58.21.42-.74-.21.1,1.47.11.21-.63,0,.11,1.48.1.31-.63.42-.21,1.26.1.21.21.32,0,.52s-.32.53,0,1.16c.21.42-.42.11,0,1.26.21.53-.32.53,0,1.16s-.11.84,0,1.47-.42.42.21,1.69c.21.52-.53-.11-.11,1.15,0,.21-.52.21-.1,1.26.1.21-.21.32,0,.95.1.32-.21.53,0,1.16.1.42-.21.52-.11,1.15a4.83,4.83,0,0,1,.11.84s-.32.11-.11.74-.21.32,0,1.05c0,.32-.21.11-.21.74-.1.21-.52.1,0,.94a8.46,8.46,0,0,0,3.68-.1c.21-.53,0-.63-.11-.53s-.1-1,0-1.26-.42.11-.1-1.26c.1-.42-.32-.42-.11-1.05s-.31-1.05-.1-1.89c.31-1.06-.42-.11-.21-.74s-.11-.95,0-1.16-.11-.42.1-.94-.42-.63-.1-1.37-.32-1-.11-1.47c.42-1.05-.21-.42.11-1.05s-.11-.95,0-1.27a1.18,1.18,0,0,0,.1-.84c.21-.52-.31-.42-.1-1.05s-.42-.63-.11-1.16.11-.63.11-.84-.32.11,0-.73-.11-.32,0-1a6,6,0,0,0,.1-.95s-.31-.1-.1-.52-.53-.21-.21-.84.21-.53.21-.74-.21-.32,0-.84-.42,0-.21-.74.1-.52.1-.52-.31,0-.1-.63.1-.53.1-.53a.48.48,0,0,1-.32-.6v-.35s.31,0,.31.42a.63.63,0,0,0,.42.64,1.92,1.92,0,0,1,.42.94c0,.42.32-.63.63.21s.21-.73.21-.73a.86.86,0,0,0,0-1c-.31-.53.42.11.11-.74l-.32-.84a.53.53,0,0,0,.32-.1,1,1,0,0,0,.94-.32c.11,0,.21-.1.32-.1-.11.63.1.52.21.63a3.73,3.73,0,0,1,.31.42s.11,1.58.21,1,.42.63.42.63a3.87,3.87,0,0,1,.21-1.26c.11-.53.32,2.52.32,1.79s.11-.74.21-.32.32.84.42.63.31.21.31.21a3.84,3.84,0,0,0-.1-1.47c-.21-.84.32-.1.32-.42s.2-.1.2-.21a3.67,3.67,0,0,0-.42-1.16c-.1-.1-.1-.31-.2-1.15v-.64c.52,0,.1.53.31,1.27s.42.42.42.42,0,1.47.42.84.1,1.16.42,1.05.32.63.42.32.42.1.42.1.21-.63.32.11a4.16,4.16,0,0,0,.73,1.78,2.45,2.45,0,0,0,0-1.26c-.1-.63.32-.21.21-.73s.42,0,.21-.95.74.53.32-.63.42,0,.21-.42a12.74,12.74,0,0,0-.53-1.58c-.42-.84.53,0,.53,0s-.32-1-.53-1.37-.52-1.26-.52-1.26a2.49,2.49,0,0,0-.84-1.37,1.13,1.13,0,0,1,.73.32c.32.32,1.26,1.58,1,1a1.2,1.2,0,0,1,.21-1s1.26,1.79,1.26,1.37.42,0,.42,0-.1-.84.11-.74.63.53.73.21.74,1,.74.74,1,.73,1,.21,1.26,1.16,1.26.52,1.26,1.16,1.15.53c-.52-1.37,0-1.37-.42-1.79-.94-.95,0-.52-.21-.95a4.88,4.88,0,0,0-2-1.68,24.43,24.43,0,0,0-5.15-2.73,13.91,13.91,0,0,1,3.36,1.15c.63.43,1.26.85,1.16.22s.73.63.63.1,1.15.63,1,0,2,1,1.78.53C557.27,254.28,559.58,255.75,558.53,254.8Z"/><path class="cls-1" d="M701.44,633.31c-5.36-5.26-11-4.53-11-4.53a3,3,0,0,1,1.47-.2c1,.1,0-.53.84-.32s1.15.1.94-.11,1.37.53,1,0,1.69,1,1.16.32.1-.74.1-.74,1,.74.85.32.52-.42.73-.32,1,.21,1.26.32.32-.11.53-.32,2.1,1.16,1.57.63c-.94-1.15.32-.63.32-.63s.31-.1-.32-.52.11-.63-1.47-1.16-.1-.42-1.36-.52-.63-.32-1.58-.43c-2.31,0-.84-.42-1.58-.42s-1.57.32-2.41.32a31.25,31.25,0,0,0-3.47.53,6.61,6.61,0,0,1,2.52-.85c1.68-.31-.21-.42,1.16-.52s.84-.32,1.89-.53-.42-.73.31-.84,2,.42,1.9,0,1.68-.1,2.2-.21-.31-.53-.1-.74.63-.1.42-.52,1.57-.21,1.57-.21-.21-.53-2.31-.53-.52-.31-1.47-.21-2.42.53-2.94.53a9.61,9.61,0,0,0-2.73.74c-1,.41-1,0-1,0,.21-.32.21-.43.21-.53a2.93,2.93,0,0,1,1.26-.74c.63-.21-1.36-.1.63-.73s0-.53,1.26-.95.63-.84.63-.84a13.61,13.61,0,0,0,2.32-.74c.52-.31-1-.21-.74-.52s1.68-.53,1.37-.63-1.27.1-2.74,0-1.78.52-2.52.42-1.26.84-1.68.84-.73,0-2.2,1.15-1,0-1,0a27.88,27.88,0,0,1-2.42,2.32c-.74.42.63-1.68,0-1.05a19.74,19.74,0,0,0-1.79,2.73l.53-1.26s.63-1.47.84-1.79-.74-.31-.21-1.05-.1-1,0-1.58-.42-.31-.21-.94.53-1.16-.21-.64-.11-.84.11-2-.32-.63.1-1.58a5.2,5.2,0,0,0,.32-1.79c.1-.31-.64-.52-.53-.84s.31-1.47,0-1a4.15,4.15,0,0,1-1.15.84c-.32.1-.85,1.37-1,1.58a13,13,0,0,1-.85,1c-.21.21-.52,1.16-.94,1.79-.42.42-.42,1.89-.42,2.63s-.42.73-.63,1.57a16.84,16.84,0,0,0,.31,3.68c-.94-2.52-2.2-4.1-2.31-3.47s-.73-.31-1.47-.94-.94,0-2.2-1.06-1,.11-2.31-.73-.63.1-2.42-.74-.63.53-1.79.21-3.46-.21-2.31,0c2.52.74.74,1,1.68,1.26a12.57,12.57,0,0,1,1.79,1c.31.11.31.42.74.53a19.27,19.27,0,0,1,1.78.84c.84.42-.63,1,1.47,1.89s1.26,1.16,3.36,2.31a5.4,5.4,0,0,1,2.52,2.21c-.84-.63-1.68-1-2.31-1.47-1.15-.84-1.68-.63-3.67-1.58s-1.79-.1-3.15-.42-.85.42-1.26.42-2,.63-2.84.74-3.05.84-2.73,1,.31.21.1.73.32.42.32.42l1.15-.31c1.16-.32.21.42,1.37.1s.21.42,1,.32c1.36-.21-.53.74,0,.52,2.21-.63,2.31-.31,2.62-.21a8.94,8.94,0,0,1,1,.32c.21.11,1.26.52,1.26.52-1.16-.1-2-.21-2.31-.21a9.41,9.41,0,0,0-1.89.43c-.63,0-1.89,1-3.15,1.36s-1,.84-1.37,1c-1.26.74-3.67,2.63-2.52,2.21s.53.74,1,.53c1.78-1.16,1.89-.32,1.89-.32a4.06,4.06,0,0,0,1.57-.63c1.16-.63.74.21,1,.21s.53-.42,1.47-1,.74.11,1.06,0a11.13,11.13,0,0,1,2,0,25.43,25.43,0,0,0-7,3.47c-.84.74-2.94,3.16-2.1,2.84s1-1,1.47-1.26,1,0,1.58-.42.42.1.73,0,.42.1,1-.42.74.21,1.16,0c1.26-.84,1.47-.32,2.1-.84s.84.52,1.05.21a1.77,1.77,0,0,1,1-.32c.42,0,.84-.42,1.26-.63a2,2,0,0,1,1.16,0A16.7,16.7,0,0,0,665.7,638c-.84,1.79-1.78,4-1.15,3.68s1-1.78,1.78-2.31.95.53,2-1.68,1.37-.74,2.31-1.89,1.05-.74,1.68-1.27a3.33,3.33,0,0,1,1.47-.63c-.21.11-.31.32-.52.42l-.42.74-1,.84-.42.74a6.68,6.68,0,0,0-1.89,2c-.22.43.1.32-.42,1.37a3.09,3.09,0,0,1-.74,1.68c-.21.32-1,2.21-.74,2.95,0,.84-.1,2-.1,2.52s.73-1.15,1.15-1.47.63,0,1.06-1.05.73-.32,1.26-1.26,1-.53,1.47-1.16.73-2,1.15-.84c.11.42,1-1,1.26-1.79,0,0,.11-1.89,1-1.68-.52.21-.52,1-.52,1s-.32.63,0,.84a1.24,1.24,0,0,0,0,1.36s-1.16,1.27-1.16,2c0,.32.53-.31.32.21s.31.21,0,1c-.11.31.63-.53.31.42s.32.1.21,1.26a1.12,1.12,0,0,0,.21,1s.53-1.68.63-1.26.32-1.06.42-.22.32-1.15.32-1.15.21-.53.31.1.32-1.26.42-.84.63-.73.63-1.15a1.46,1.46,0,0,0,.42-.32,1.91,1.91,0,0,0,.74-.21,9.46,9.46,0,0,0-.63,2.21c0,.31.21.1,0,1.05,0,.31.31-.32.31.53s.32.94.32.94l.21-.42s.21-.94.31-.63.53-1,.53-1,.1.21.21.42-.32.32.1,1.05c.11.32-.42.21-.1,1.16.1.31-.42.31.1,1.57.21.43-.73-.21.11,1.48.1.21-.63,0,.1,1.47.11.31-.63.42-.21,1.26.11.21.21.32,0,.53s-.31.52,0,1.15c.21.42-.42.11,0,1.27.21.52-.31.52,0,1.15s-.1.84,0,1.48-.42.42.21,1.68c.21.52-.52-.11-.1,1.15,0,.22-.53.22-.11,1.27.11.21-.21.31,0,.94.11.32-.21.53,0,1.16.11.42-.21.52-.1,1.16a4.81,4.81,0,0,1,.1.84s-.31.1-.1.73-.21.32,0,1.06c0,.31-.21.1-.21.73-.11.21-.53.11,0,1a8.62,8.62,0,0,0,3.68-.11c.21-.52,0-.63-.11-.52a2.49,2.49,0,0,1,0-1.27c.11-.21-.42.11-.11-1.26.11-.42-.31-.42-.1-1s-.31-1-.11-1.89-.42-.11-.2-.74-.11-.94,0-1.15-.11-.43.1-1-.42-.63-.1-1.37-.32-.94-.11-1.47c.42-1-.21-.42.11-1s-.11-1,0-1.26a1.24,1.24,0,0,0,.1-.84c.21-.53-.32-.43-.1-1.06s-.43-.63-.11-1.15.11-.63.11-.84-.32.1,0-.74-.11-.32,0-1a5.88,5.88,0,0,0,.1-.94s-.32-.11-.1-.53-.53-.21-.22-.84.22-.53.22-.74-.22-.31,0-.84-.43,0-.22-.73.11-.53.11-.53-.32,0-.11-.63.11-.53.11-.53a.5.5,0,0,1-.33-.61v-.33s.32,0,.32.42a.62.62,0,0,0,.42.63,1.94,1.94,0,0,1,.42,1c.11.31.32-.64.63.2s.21-.73.21-.73a.86.86,0,0,0,0-.95c-.31-.52.42.11.11-.73l-.32-.85a.51.51,0,0,0,.32-.1,1,1,0,0,0,.94-.32c.11,0,.21-.1.32-.1-.11.63.1.52.21.63a3.73,3.73,0,0,1,.31.42s.11,1.58.21,1.05.42.63.42.63a3.87,3.87,0,0,1,.21-1.26c.11-.52.32,2.53.32,1.79s.1-.74.21-.32.31.84.42.64.31.2.31.2a3.84,3.84,0,0,0-.1-1.47c-.21-.84.31-.1.31-.42s.21-.1.21-.21a3.67,3.67,0,0,0-.42-1.16c-.1-.1-.1-.31-.21-1.15v-.63c.53,0,.11.52.32,1.26s.42.42.42.42,0,1.47.42.84.1,1.16.42,1.05.31.63.42.32.42.1.42.1.21-.63.31.11a4.29,4.29,0,0,0,.74,1.79,2.73,2.73,0,0,0,0-1.27c-.11-.63.31-.21.21-.73s.42,0,.21-.95.73.53.31-.63.42,0,.21-.42a12.17,12.17,0,0,0-.52-1.58c-.42-.84.52,0,.52,0a13.13,13.13,0,0,0-.52-1.36c-.21-.42-.53-1.27-.53-1.27a2.38,2.38,0,0,0-.84-1.36,1.13,1.13,0,0,1,.74.31c.31.32,1.26,1.58,1,1a1.15,1.15,0,0,1,.21-1s1.26,1.79,1.26,1.37.42,0,.42,0-.11-.84.1-.74.63.53.74.21.74,1.06.74.74,1,.74,1,.21,1.26,1.16,1.26.53,1.26,1.15,1.15.52c-.52-1.37,0-1.37-.42-1.79-.94-.94,0-.52-.21-.94a4.83,4.83,0,0,0-2-1.69,24.35,24.35,0,0,0-5.14-2.73,13.93,13.93,0,0,1,3.36,1.16c.63.42,1.26.84,1.15.21s.74.63.63.1,1.16.63,1,0,2,1,1.79.53C700.18,632.89,702.49,634.25,701.44,633.31Z"/><path class="cls-1" d="M661,672.85c-5.36-5.26-11-4.52-11-4.52a2.85,2.85,0,0,1,1.47-.22c1,.11,0-.52.84-.31s1.15.11.94-.11,1.37.53,1.06,0,1.68.95,1.15.32.11-.74.11-.74.94.74.84.32.52-.42.73-.32,1,.21,1.26.32.32-.11.53-.32,2.1,1.16,1.57.64c-.94-1.16.32-.64.32-.64s.31-.1-.32-.52.11-.63-1.47-1.16-.1-.42-1.36-.52-.63-.32-1.58-.42c-2.31,0-.84-.43-1.57-.43s-1.58.32-2.42.32a31.25,31.25,0,0,0-3.47.53,6.61,6.61,0,0,1,2.52-.85c1.68-.31-.21-.42,1.16-.52s.84-.32,1.89-.53-.42-.73.32-.84,2,.42,1.89,0,1.68-.1,2.2-.21-.31-.53-.1-.73.63-.11.42-.53,1.57-.21,1.57-.21-.21-.53-2.31-.53-.52-.31-1.47-.21-2.41.53-2.94.53a9.6,9.6,0,0,0-2.73.73c-1,.42-.95,0-.95,0,.21-.31.21-.42.21-.52a2.93,2.93,0,0,1,1.26-.74c.63-.21-1.36-.1.63-.73s0-.53,1.27-.95.63-.84.63-.84a13.5,13.5,0,0,0,2.31-.74c.52-.31-1-.21-.74-.52s1.68-.53,1.37-.63-1.26.1-2.73,0-1.79.52-2.52.42-1.27.84-1.69.84-.73,0-2.2,1.15-1,0-1,0a27.88,27.88,0,0,1-2.42,2.32c-.73.52.63-1.68,0-1.05a18.8,18.8,0,0,0-1.78,2.73l.52-1.26s.63-1.47.84-1.79-.73-.31-.21-1.05-.1-1,0-1.58-.42-.31-.21-.94.53-1.16-.21-.63-.1-.85.11-2-.32-.63.1-1.58a5.2,5.2,0,0,0,.32-1.79c.1-.31-.63-.52-.53-.84s.32-1.47,0-1.05a4,4,0,0,1-1.15.84c-.32.1-.84,1.37-1,1.58s-.63.84-.84,1-.53,1.16-.95,1.79c-.42.42-.42,1.89-.42,2.63s-.42.73-.63,1.57a16.84,16.84,0,0,0,.31,3.68c-.94-2.52-2.2-4.1-2.31-3.47s-.73-.31-1.47-.94-.94,0-2.2-1-1,.1-2.31-.74-.63.1-2.42-.74-.63.53-1.78.21-3.47-.21-2.31,0c2.52.74.73,1,1.68,1.27a12.1,12.1,0,0,1,1.78.94c.32.11.32.42.74.53a19.27,19.27,0,0,1,1.78.84c.84.42-.63,1.05,1.47,1.89s1.26,1.16,3.36,2.31a5.48,5.48,0,0,1,2.53,2.21c-.85-.63-1.69-1-2.32-1.47-1.15-.84-1.68-.63-3.67-1.58s-1.79-.1-3.15-.42-.84.42-1.26.42-2,.64-2.84.74-3,.84-2.73,1,.31.21.1.73.32.42.32.42l1.16-.31c1.15-.32.2.42,1.36.1s.21.42,1,.32c1.37-.21-.52.73,0,.52,2.21-.63,2.31-.31,2.63-.21a7.28,7.28,0,0,1,.94.32c.21.11,1.26.52,1.26.52-1.15-.1-2-.2-2.31-.2a10.13,10.13,0,0,0-1.89.42c-.63.1-1.89,1-3.15,1.36s-1,.84-1.37,1c-1.26.74-3.67,2.63-2.52,2.21s.53.74,1,.53c1.78-1.16,1.89-.32,1.89-.32a4.06,4.06,0,0,0,1.57-.63c1.16-.63.74.21,1,.21s.53-.42,1.48-1,.73.11,1,0a13.35,13.35,0,0,1,2,0,25.43,25.43,0,0,0-7,3.47c-.84.74-2.94,3.16-2.1,2.84s.95-1,1.47-1.26,1,0,1.58-.42.42.1.74,0,.42.1,1-.42.73.21,1.15,0c1.26-.84,1.47-.32,2.1-.84s.84.52,1,.21a1.77,1.77,0,0,1,1-.32c.42,0,.84-.42,1.26-.63a2,2,0,0,1,1.16,0,16.61,16.61,0,0,0-6.93,6.41c-.84,1.79-1.79,4-1.16,3.69s1-1.79,1.79-2.32.94.53,2-1.68,1.37-.74,2.31-1.89,1-.74,1.68-1.27a3.33,3.33,0,0,1,1.47-.63c-.21.11-.31.32-.52.42l-.42.74-1,.84-.42.74a6.68,6.68,0,0,0-1.89,2c-.21.43.1.32-.42,1.37a3.12,3.12,0,0,1-.74,1.69c-.21.31-1,2.2-.73,2.94,0,.84-.11,2-.11,2.52s.74-1.15,1.16-1.47.63,0,1-1,.73-.32,1.26-1.26,1.05-.53,1.47-1.16.73-2,1.15-.84c.11.42,1.05-1.05,1.26-1.79,0,0,.11-1.89,1.05-1.68-.52.21-.52,1-.52,1s-.32.63,0,.84a1.24,1.24,0,0,0,0,1.36s-1.16,1.27-1.16,2c0,.32.53-.31.32.21s.31.21,0,1c-.11.31.63-.53.31.42s.32.1.21,1.26a1.12,1.12,0,0,0,.21,1s.53-1.69.63-1.26.32-1.06.42-.21.32-1.16.32-1.16.21-.53.31.1.32-1.26.43-.84.63-.73.63-1.15a1.57,1.57,0,0,0,.41-.32,1.91,1.91,0,0,0,.74-.21,10.54,10.54,0,0,0-.63,2.21c0,.31.21.1,0,1,0,.32.31-.32.31.53s.32.94.32.94l.21-.42s.21-1,.32-.63.52-1,.52-1l.21.42c.1.21-.31.31.11,1.05.1.32-.42.21-.11,1.16.11.31-.42.31.11,1.57.21.43-.74-.2.1,1.48.11.21-.63,0,.11,1.47.1.31-.63.42-.21,1.26.1.21.21.32,0,.53s-.32.52,0,1.15c.21.43-.42.11,0,1.27.21.52-.32.52,0,1.15s-.11.84,0,1.47-.42.43.21,1.69c.21.52-.53-.11-.11,1.15,0,.21-.52.21-.1,1.27.1.21-.21.31,0,.94.1.32-.21.53,0,1.16.1.42-.21.52-.11,1.16a4.83,4.83,0,0,1,.11.84s-.32.1-.11.73-.21.32,0,1.05c0,.32-.21.11-.21.74-.1.21-.52.11,0,.95a8.62,8.62,0,0,0,3.68-.11c.21-.52,0-.63-.11-.52a2.68,2.68,0,0,1,0-1.26c.11-.21-.42.1-.1-1.27.1-.42-.32-.42-.11-1s-.31-1-.1-1.89c.31-1.05-.42-.11-.21-.74s-.11-.94,0-1.15-.11-.42.1-1-.42-.63-.1-1.37-.32-.94-.11-1.47c.42-1-.21-.42.11-1s-.11-1,0-1.26a1.18,1.18,0,0,0,.1-.85c.21-.52-.31-.41-.1-1.05s-.42-.63-.11-1.15.11-.63.11-.84-.32.1,0-.74-.11-.32,0-1a5.88,5.88,0,0,0,.1-.94s-.31-.11-.1-.53-.53-.21-.21-.84.21-.53.21-.74-.21-.31,0-.84-.42,0-.21-.73.1-.53.1-.53-.31,0-.1-.63.1-.53.1-.53a.48.48,0,0,1-.32-.6v-.34s.31,0,.31.42a.62.62,0,0,0,.42.63,1.92,1.92,0,0,1,.42.94c.11.32.32-.63.63.22s.21-.74.21-.74a.87.87,0,0,0,0-1c-.31-.52.42.11.11-.73l-.32-.84a.46.46,0,0,0,.32-.11,1,1,0,0,0,.94-.31c.11,0,.21-.11.32-.11-.11.63.1.53.21.63a3,3,0,0,1,.31.42s.11,1.58.21,1,.42.63.42.63a3.87,3.87,0,0,1,.21-1.26c.11-.52.32,2.53.32,1.79s.1-.74.21-.32.31.85.42.63.31.22.31.22a3.88,3.88,0,0,0-.1-1.48c-.21-.84.31-.1.31-.42s.21-.1.21-.21a3.47,3.47,0,0,0-.42-1.15c-.1-.11-.1-.32-.21-1.16v-.63c.53,0,.11.52.32,1.26s.42.42.42.42,0,1.47.42.84.1,1.16.42,1,.31.63.42.32.42.1.42.1.21-.63.31.11a4.34,4.34,0,0,0,.74,1.79,2.49,2.49,0,0,0,0-1.27c-.11-.63.32-.21.21-.73s.42,0,.21-1,.73.53.32-.63.41,0,.2-.42a12.17,12.17,0,0,0-.52-1.58c-.42-.84.52,0,.52,0a13.13,13.13,0,0,0-.52-1.36c-.21-.42-.53-1.27-.53-1.27a2.38,2.38,0,0,0-.84-1.36,1.13,1.13,0,0,1,.74.31c.32.32,1.26,1.58,1,1a1.2,1.2,0,0,1,.21-1s1.26,1.79,1.26,1.37.42,0,.42,0-.1-.84.11-.74.63.53.73.21.74,1.06.74.74,1,.74,1,.21,1.26,1.16,1.26.53,1.26,1.15,1.15.52c-.52-1.36,0-1.36-.42-1.79-.94-.94,0-.52-.21-.94a4.83,4.83,0,0,0-2-1.69,24.9,24.9,0,0,0-5.15-2.73,13.93,13.93,0,0,1,3.36,1.16c.63.42,1.26.84,1.16.21s.73.63.63.1,1.15.63,1.05,0,2,1,1.78.53C659.84,672.43,662.05,673.79,661,672.85Z"/><path class="cls-1" d="M781.53,522.11c-5.36-5.25-11-4.52-11-4.52a3.07,3.07,0,0,1,1.47-.21c1,.11,0-.52.84-.31s1.16.1,1-.11,1.36.53,1,0,1.68.95,1.15.32.11-.74.11-.74.94.74.84.32.52-.42.73-.32,1,.21,1.26.32.32-.11.53-.32,2.1,1.16,1.57.63c-.94-1.15.32-.63.32-.63s.31-.1-.32-.52.11-.64-1.47-1.16-.1-.42-1.36-.53-.63-.31-1.58-.42c-2.31,0-.84-.42-1.57-.42s-1.58.32-2.42.32a31,31,0,0,0-3.46.52,6.83,6.83,0,0,1,2.52-.84c1.68-.31-.21-.42,1.15-.52s.84-.32,1.89-.53-.42-.74.32-.84,2,.42,1.89,0,1.68-.11,2.2-.21-.31-.53-.1-.74.63-.1.42-.52,1.57-.21,1.57-.21-.21-.53-2.31-.53-.52-.32-1.47-.21-2.41.52-2.94.52a9.61,9.61,0,0,0-2.73.74c-1,.42-.94,0-.94,0,.21-.31.21-.42.21-.52a2.93,2.93,0,0,1,1.26-.74c.63-.21-1.37-.11.63-.74s0-.52,1.26-.94.63-.84.63-.84a14.45,14.45,0,0,0,2.31-.74c.52-.32-1-.21-.74-.53s1.68-.52,1.37-.63-1.26.11-2.73,0-1.79.53-2.52.42-1.26.84-1.68.84-.74,0-2.21,1.16-1,0-1,0a27.77,27.77,0,0,1-2.42,2.31c-.73.43.63-1.68,0-1.05a18.9,18.9,0,0,0-1.78,2.74l.52-1.26s.63-1.48.84-1.79-.73-.32-.21-1.05-.1-1.06,0-1.58-.42-.32-.21-.95.53-1.15-.21-.63-.1-.84.11-2-.32-.63.1-1.57a5.2,5.2,0,0,0,.32-1.79c.1-.32-.63-.53-.53-.84s.32-1.48,0-1.05a4,4,0,0,1-1.15.84c-.32.1-.84,1.36-1,1.57s-.63.85-.84,1.06-.53,1.15-1,1.78c-.42.42-.42,1.9-.42,2.63s-.42.74-.63,1.58a16.26,16.26,0,0,0,.32,3.68c-1-2.52-2.21-4.1-2.31-3.47s-.74-.32-1.47-.95-1,0-2.21-1.05-1,.11-2.31-.73-.63.1-2.42-.74-.63.53-1.78.21-3.47-.21-2.31,0c2.52.74.73.95,1.68,1.26a11.11,11.11,0,0,1,1.78,1c.32.1.32.42.74.52a10.69,10.69,0,0,1,1.78.85c.84.43-.63,1,1.47,1.89s1.26,1.15,3.36,2.31a5.54,5.54,0,0,1,2.53,2.21c-.84-.63-1.68-1-2.31-1.47-1.16-.84-1.68-.63-3.68-1.58s-1.79-.1-3.15-.42-.84.42-1.26.42-2,.63-2.84.74-3,.84-2.73.94.31.21.11.74.31.42.31.42l1.16-.32c1.15-.31.21.43,1.36.11s.21.42,1,.32c1.37-.22-.52.73,0,.52,2.21-.63,2.31-.31,2.63-.21a7.28,7.28,0,0,1,.94.32c.21.11,1.26.52,1.26.52-1.15-.1-2-.21-2.31-.21a10.31,10.31,0,0,0-1.89.42c-.63,0-1.89,1-3.15,1.37s-1.05.84-1.36,1c-1.26.74-3.68,2.63-2.53,2.21s.53.74,1,.52c1.78-1.15,1.89-.31,1.89-.31a4.17,4.17,0,0,0,1.58-.63c1.15-.63.73.21,1,.21s.52-.42,1.47-1,.73.1,1,0a11.13,11.13,0,0,1,2,0,24.75,24.75,0,0,0-7,3.47c-.84.73-3,3.15-2.1,2.84s.94-1,1.46-1.27,1.06,0,1.58-.42.42.11.74,0,.42.11,1-.42.73.21,1.15,0c1.26-.84,1.47-.31,2.1-.84s.84.53,1,.21a1.8,1.8,0,0,1,1-.31c.42,0,.84-.42,1.26-.63a2,2,0,0,1,1.16,0,16.61,16.61,0,0,0-6.93,6.41c-.84,1.79-1.79,4-1.16,3.68s1-1.79,1.79-2.31.94.52,2-1.68,1.37-.74,2.31-1.9,1-.73,1.68-1.26a3.21,3.21,0,0,1,1.48-.63c-.21.1-.32.32-.53.42l-.42.74-1.05.84-.42.73a6.8,6.8,0,0,0-1.89,2c-.21.42.1.32-.42,1.37a3.09,3.09,0,0,1-.74,1.68c-.21.32-1,2.21-.73,3,0,.84-.11,2-.11,2.52s.74-1.16,1.16-1.47.63,0,1-1,.73-.32,1.26-1.27,1-.52,1.47-1.15.73-2,1.16-.84c.1.42,1-1.06,1.26-1.79,0,0,.1-1.89,1-1.68-.53.21-.53.94-.53.94s-.32.63,0,.84a1.26,1.26,0,0,0,0,1.37s-1.15,1.26-1.15,2c0,.31.52-.32.31.21s.32.21,0,1c-.11.31.63-.53.32.42s.31.1.2,1.26a1.07,1.07,0,0,0,.22.94s.52-1.68.63-1.26.31-1,.42-.21.31-1.15.31-1.15.21-.53.32.1.31-1.26.42-.84.63-.74.63-1.16a1.43,1.43,0,0,0,.42-.31,1.91,1.91,0,0,0,.73-.21,10.62,10.62,0,0,0-.63,2.2c0,.32.21.11,0,1.06,0,.31.32-.32.32.52s.31,1,.31,1l.21-.42s.21-1,.32-.63.52-1.05.52-1.05l.21.42c.1.21-.31.31.11,1,.1.31-.42.21-.11,1.15.11.32-.42.32.11,1.58.21.42-.74-.21.1,1.47.11.21-.63,0,.11,1.48.1.31-.63.42-.21,1.26.1.21.21.31,0,.52s-.32.53,0,1.16c.21.42-.42.11,0,1.26.21.53-.32.53,0,1.16s-.11.84,0,1.47-.42.42.21,1.68c.21.53-.53-.1-.11,1.16,0,.21-.52.21-.1,1.26.1.21-.21.32,0,1,.1.31-.21.53,0,1.16.1.42-.21.52-.11,1.15a4.83,4.83,0,0,1,.11.84s-.32.11-.11.74-.21.32,0,1c0,.32-.21.11-.21.74-.1.21-.52.1,0,.94a8.46,8.46,0,0,0,3.68-.1c.21-.53,0-.63-.11-.53a2.68,2.68,0,0,1,0-1.26c.11-.21-.42.11-.1-1.26.1-.42-.32-.42-.11-1s-.31-1.05-.1-1.89c.31-1.06-.42-.11-.21-.74s-.11-1,0-1.16-.11-.42.1-.94-.42-.64-.1-1.37-.32-1-.11-1.47c.42-1.06-.21-.42.11-1.06s-.11-.94,0-1.26a1.18,1.18,0,0,0,.1-.84c.21-.52-.31-.42-.1-1s-.42-.63-.11-1.16.11-.63.11-.84-.32.11,0-.73-.11-.32,0-1a6,6,0,0,0,.1-.95s-.31-.1-.1-.52-.53-.21-.21-.84.21-.53.21-.74-.21-.32,0-.84-.42,0-.21-.74.1-.52.1-.52-.31,0-.1-.63.1-.53.1-.53a.48.48,0,0,1-.31-.62h0v-.32s.31,0,.31.42a.63.63,0,0,0,.42.64,1.92,1.92,0,0,1,.42.94c.11.32.32-.63.63.21s.21-.73.21-.73a.87.87,0,0,0,0-1c-.31-.53.42.11.11-.74l-.32-.84a.53.53,0,0,0,.32-.1,1,1,0,0,0,.94-.32c.11,0,.21-.1.32-.1-.11.63.1.52.21.63a3.73,3.73,0,0,1,.31.42s.11,1.58.21,1,.42.63.42.63a3.87,3.87,0,0,1,.21-1.26c.11-.53.32,2.52.32,1.79s.11-.74.21-.32.32.84.42.63.31.21.31.21a3.84,3.84,0,0,0-.1-1.47c-.21-.84.32-.1.32-.42s.2-.11.2-.21a3.67,3.67,0,0,0-.42-1.16c-.1-.1-.1-.31-.2-1.15v-.64c.52,0,.1.53.31,1.27s.42.42.42.42,0,1.47.42.84.1,1.15.42,1,.32.63.42.32.42.1.42.1.21-.63.32.11a4.16,4.16,0,0,0,.73,1.78,2.45,2.45,0,0,0,0-1.26c-.1-.63.32-.21.21-.73s.42,0,.21-1,.74.53.32-.63.42,0,.21-.42a12.74,12.74,0,0,0-.53-1.58c-.42-.84.53,0,.53,0a11,11,0,0,0-.53-1.37,11.07,11.07,0,0,1-.52-1.26,2.49,2.49,0,0,0-.84-1.37,1.13,1.13,0,0,1,.73.32c.32.31,1.26,1.58,1,1a1.15,1.15,0,0,1,.21-1s1.26,1.79,1.26,1.37.42,0,.42,0-.1-.84.11-.74.63.53.73.21.74,1,.74.74,1,.73,1,.21,1.26,1.15,1.26.52,1.26,1.16,1.15.53c-.52-1.37,0-1.37-.42-1.79-.94-1,0-.52-.21-1a4.88,4.88,0,0,0-2-1.68,24.43,24.43,0,0,0-5.15-2.73,13.91,13.91,0,0,1,3.36,1.15c.63.43,1.26.85,1.16.21s.73.64.63.11,1.15.63,1,0,2,.95,1.78.53C780.27,521.59,782.58,523.06,781.53,522.11Z"/><path class="cls-1" d="M811.55,588.66c-5.36-5.26-11-4.53-11-4.53a3.07,3.07,0,0,1,1.47-.21c1,.11,0-.52.84-.31s1.16.1.95-.11,1.36.53,1.05,0,1.68,1,1.15.32.11-.74.11-.74.94.74.84.32.52-.42.73-.32,1,.21,1.26.32.32-.11.53-.32,2.1,1.16,1.57.63c-.94-1.15.32-.63.32-.63s.31-.1-.32-.52.11-.64-1.47-1.16-.1-.42-1.36-.53-.63-.31-1.58-.42c-2.31,0-.84-.42-1.57-.42s-1.58.32-2.42.32a31,31,0,0,0-3.46.52,6.78,6.78,0,0,1,2.51-.84c1.69-.31-.2-.42,1.16-.52s.84-.32,1.89-.53-.42-.74.32-.84,2,.42,1.89,0,1.68-.11,2.2-.21-.31-.53-.1-.74.63-.1.42-.52,1.57-.21,1.57-.21-.21-.53-2.31-.53-.52-.32-1.47-.21-2.41.53-2.94.53a9.6,9.6,0,0,0-2.73.73c-1.05.42-1,0-1,0,.22-.31.22-.42.22-.52a2.93,2.93,0,0,1,1.26-.74c.63-.21-1.37-.11.63-.74s0-.52,1.26-.94.63-.84.63-.84a13.5,13.5,0,0,0,2.31-.74c.52-.31-1-.21-.74-.53s1.68-.52,1.37-.63-1.26.11-2.73,0-1.79.53-2.52.42-1.27.85-1.69.85-.73,0-2.2,1.15-1,0-1,0A27.19,27.19,0,0,1,795,576c-.73.42.63-1.69,0-1.06a18.9,18.9,0,0,0-1.78,2.74l.52-1.26s.63-1.48.84-1.79-.73-.32-.21-1-.1-1,0-1.58-.42-.32-.21-.95.53-1.15-.21-.63-.1-.84.11-2-.32-.63.1-1.57a5.2,5.2,0,0,0,.32-1.79c.1-.32-.63-.53-.53-.84s.32-1.47,0-1a4,4,0,0,1-1.15.84c-.32.1-.84,1.36-1,1.57s-.63.85-.84,1.06-.53,1.15-1,1.78c-.42.43-.42,1.9-.42,2.63s-.42.74-.63,1.58a16.26,16.26,0,0,0,.32,3.68c-1-2.52-2.21-4.1-2.32-3.47s-.73-.31-1.46-1-1,0-2.21-1-1,.11-2.31-.73-.63.1-2.42-.74-.63.53-1.78.21-3.47-.21-2.31,0c2.52.74.73,1,1.68,1.26a11.11,11.11,0,0,1,1.78,1c.32.1.32.42.74.52a11.59,11.59,0,0,1,1.78.85c.84.42-.63,1,1.47,1.89s1.26,1.16,3.36,2.31a5.48,5.48,0,0,1,2.53,2.21c-.85-.63-1.68-1.05-2.31-1.47-1.16-.84-1.69-.63-3.68-1.58s-1.79-.1-3.15-.42-.84.42-1.26.42-2,.63-2.84.74-3,.84-2.73.94.31.21.1.74.32.42.32.42l1.16-.31c1.15-.32.21.42,1.36.1s.21.42,1,.32c1.37-.21-.52.73,0,.52,2.21-.63,2.31-.31,2.63-.21a7.28,7.28,0,0,1,.94.32c.21.11,1.26.52,1.26.52-1.15-.1-2-.21-2.31-.21a10.31,10.31,0,0,0-1.89.42c-.63,0-1.89,1-3.15,1.37s-1,.84-1.37,1c-1.26.74-3.67,2.63-2.52,2.21s.53.74,1,.53c1.78-1.16,1.89-.32,1.89-.32a4.17,4.17,0,0,0,1.58-.63c1.15-.63.73.21,1,.21s.52-.42,1.47-1,.73.1,1,0a11.13,11.13,0,0,1,2,0,24.75,24.75,0,0,0-7,3.47c-.85.74-3,3.15-2.11,2.84s1-.95,1.48-1.26,1,0,1.57-.43.42.11.74,0,.42.11,1-.41.73.21,1.15,0c1.26-.85,1.47-.32,2.1-.85s.84.53,1,.21a1.8,1.8,0,0,1,1-.31c.42,0,.84-.42,1.26-.63a2,2,0,0,1,1.16,0,16.61,16.61,0,0,0-6.93,6.41c-.84,1.79-1.79,4-1.16,3.68s1-1.79,1.79-2.31.94.52,2-1.68,1.37-.74,2.31-1.9,1.05-.73,1.68-1.26a3.33,3.33,0,0,1,1.47-.63c-.21.11-.31.32-.52.42l-.42.74-1,.84-.42.73a6.8,6.8,0,0,0-1.89,2c-.21.42.1.32-.42,1.37a3.09,3.09,0,0,1-.74,1.68c-.21.32-1.05,2.21-.73,2.95,0,.84-.11,2-.11,2.52s.74-1.16,1.16-1.47.63,0,1.05-1.05.73-.32,1.26-1.26,1-.53,1.47-1.16.73-2,1.15-.84c.11.42,1-1.06,1.26-1.79,0,0,.11-1.89,1.06-1.68-.53.21-.53.94-.53.94s-.32.63,0,.84a1.26,1.26,0,0,0,0,1.37s-1.16,1.26-1.16,2c0,.32.53-.32.32.21s.31.21,0,1c-.11.31.63-.53.31.42s.32.1.21,1.26a1.07,1.07,0,0,0,.22.94s.52-1.68.63-1.26.31-1,.42-.21.31-1.15.31-1.15.21-.53.32.1.31-1.26.41-.84.64-.74.64-1.16a1.43,1.43,0,0,0,.42-.31,1.91,1.91,0,0,0,.73-.21,10.54,10.54,0,0,0-.63,2.21c0,.31.21.1,0,1,0,.31.32-.32.32.52s.31,1,.31,1l.21-.42s.21-1,.32-.63.52-1,.52-1l.21.42c.1.21-.31.31.11,1,.1.31-.42.21-.11,1.16.11.31-.42.31.11,1.57.21.42-.74-.21.1,1.47.11.22-.63,0,.11,1.48.1.31-.63.42-.21,1.26.1.21.21.31,0,.53s-.32.52,0,1.15c.21.42-.42.11,0,1.26.21.53-.32.53,0,1.16s-.11.84,0,1.47-.42.42.21,1.68c.21.53-.53-.1-.11,1.16,0,.21-.52.21-.1,1.26.1.21-.21.32,0,1,.1.32-.21.53,0,1.16.1.42-.21.52-.11,1.15a4.82,4.82,0,0,1,.11.85s-.32.1-.11.73-.21.32,0,1c0,.32-.21.11-.21.74-.1.21-.52.1,0,.94a8.47,8.47,0,0,0,3.68-.1c.21-.53,0-.63-.11-.53a2.68,2.68,0,0,1,0-1.26c.11-.21-.42.11-.1-1.26.1-.42-.32-.42-.11-1.05s-.31-1-.1-1.89-.42-.11-.21-.74-.11-.95,0-1.16-.11-.42.1-.94-.42-.63-.1-1.37-.32-1-.11-1.47c.42-1-.21-.42.11-1s-.11-1,0-1.27a1.18,1.18,0,0,0,.1-.84c.21-.52-.31-.42-.1-1s-.42-.63-.11-1.16.11-.63.11-.84-.32.11,0-.73-.11-.32,0-1a6.64,6.64,0,0,0,.1-1s-.31-.1-.1-.52-.53-.21-.21-.84.21-.53.21-.74-.21-.31,0-.84-.42,0-.21-.74.1-.52.1-.52-.31,0-.1-.63.1-.53.1-.53a.48.48,0,0,1-.32-.6v-.35s.31,0,.31.42a.63.63,0,0,0,.42.64,1.92,1.92,0,0,1,.42.94c.11.32.32-.63.63.21s.21-.73.21-.73a.86.86,0,0,0,0-1c-.31-.53.42.11.11-.74l-.32-.84a.53.53,0,0,0,.32-.1,1.06,1.06,0,0,0,1-.44c.11,0,.21-.1.32-.1-.11.63.1.52.21.63a3.73,3.73,0,0,1,.31.42s.11,1.58.21,1,.42.63.42.63a3.87,3.87,0,0,1,.21-1.26c.21-.53.32,2.52.32,1.79s.1-.74.21-.32.31.84.42.63.32.21.32.21a4.05,4.05,0,0,0-.11-1.47c-.21-.84.32-.1.32-.42s.2-.1.2-.21a3.91,3.91,0,0,0-.41-1.16c-.11-.1-.11-.31-.22-1.15v-.64c.53,0,.11.53.32,1.27s.42.42.42.42,0,1.47.42.84.1,1.16.42,1,.31.63.42.32.42.1.42.1.21-.63.32.11.73,2,.73,1.78a2.45,2.45,0,0,0,0-1.26c-.1-.63.32-.21.21-.73s.42,0,.21-1,.74.53.32-.63.42,0,.21-.42a12.74,12.74,0,0,0-.53-1.58c-.42-.84.53,0,.53,0s-.32-1-.53-1.37-.52-1.26-.52-1.26a2.49,2.49,0,0,0-.84-1.37,1.13,1.13,0,0,1,.73.32c.32.32,1.26,1.58,1,1a1.15,1.15,0,0,1,.21-1s1.26,1.79,1.26,1.37.42,0,.42,0-.1-.84.11-.74.63.53.73.21.74,1,.74.74,1,.73,1,.21,1.26,1.15,1.26.52,1.26,1.16,1.15.53c-.52-1.37,0-1.37-.42-1.79-.94-.94,0-.52-.21-.94a4.83,4.83,0,0,0-2-1.69,24.43,24.43,0,0,0-5.15-2.73,13.93,13.93,0,0,1,3.36,1.16c.63.42,1.26.84,1.16.21s.73.63.63.1,1.15.63,1,0,2,1,1.78.53C810.39,588.23,812.7,589.6,811.55,588.66Z"/><path class="cls-1" d="M848.28,637.55c-5.36-5.25-11-4.52-11-4.52a3.07,3.07,0,0,1,1.47-.21c1,.11,0-.52.84-.31s1.16.1,1-.11,1.36.53,1,0,1.68,1,1.15.32.11-.74.11-.74.94.74.84.32.52-.42.73-.32,1,.21,1.26.32.32-.11.53-.32,2.1,1.16,1.57.63c-.94-1.15.32-.63.32-.63s.31-.1-.32-.52.11-.64-1.47-1.16-.1-.42-1.36-.53-.63-.31-1.58-.42c-2.31,0-.84-.42-1.57-.42s-1.58.32-2.42.32a31.23,31.23,0,0,0-3.47.52,6.88,6.88,0,0,1,2.53-.84c1.68-.31-.21-.42,1.15-.52s.84-.32,1.89-.53-.42-.74.32-.84,2,.42,1.89,0,1.68-.11,2.2-.21-.31-.53-.1-.74.63-.1.42-.52,1.57-.21,1.57-.21-.21-.53-2.31-.53-.52-.31-1.47-.21-2.41.53-2.94.53a9.6,9.6,0,0,0-2.73.73c-1,.42-1,0-1,0,.22-.31.22-.42.22-.52a2.93,2.93,0,0,1,1.26-.74c.63-.21-1.37-.1.63-.74s0-.52,1.26-.94.63-.84.63-.84a14.45,14.45,0,0,0,2.31-.74c.52-.32-1-.21-.74-.53s1.68-.52,1.37-.63-1.26.11-2.73,0-1.79.53-2.53.42-1.25.85-1.68.85-.73,0-2.2,1.15-1,0-1,0a27.77,27.77,0,0,1-2.42,2.31c-.73.43.63-1.68,0-1a18.9,18.9,0,0,0-1.78,2.74l.52-1.26s.63-1.48.84-1.79-.73-.32-.21-1-.1-1,0-1.58-.42-.32-.21-1,.53-1.15-.21-.63-.1-.84.11-2-.32-.63.1-1.57a5.2,5.2,0,0,0,.32-1.79c.1-.32-.63-.53-.53-.84s.32-1.48,0-1a4,4,0,0,1-1.15.84c-.32.1-.84,1.36-1,1.58s-.63.84-.84,1-.53,1.15-1,1.78c-.42.42-.42,1.9-.42,2.63s-.42.74-.63,1.58a16.26,16.26,0,0,0,.32,3.68c-1-2.52-2.21-4.1-2.32-3.47s-.73-.31-1.47-1-.94,0-2.2-1-1,.11-2.31-.73-.63.1-2.42-.74-.63.53-1.78.21-3.47-.21-2.32,0c2.53.74.74,1,1.69,1.26a11.11,11.11,0,0,1,1.78,1c.32.1.32.42.74.52a10.69,10.69,0,0,1,1.78.85c.84.43-.63,1,1.47,1.89s1.26,1.16,3.36,2.31a5.4,5.4,0,0,1,2.52,2.21c-.84-.63-1.68-1-2.31-1.47-1.15-.84-1.68-.63-3.67-1.58s-1.79-.1-3.15-.42-.84.42-1.26.42-2,.63-2.84.74-3.05.84-2.73.94.31.21.1.74.32.42.32.42L810,628c1.16-.31.22.43,1.37.11s.21.42,1,.32c1.37-.21-.52.73,0,.52,2.21-.63,2.31-.31,2.63-.21a7.28,7.28,0,0,1,.94.32c.21.11,1.26.52,1.26.52-1.15-.1-2-.21-2.31-.21a10.31,10.31,0,0,0-1.89.42c-.63,0-1.89,1.05-3.15,1.37s-1,.84-1.37,1.05c-1.26.74-3.67,2.63-2.52,2.21s.53.74,1,.52c1.78-1.15,1.89-.31,1.89-.31a4.17,4.17,0,0,0,1.58-.63c1.15-.63.73.21,1,.21s.52-.42,1.47-1.05.73.1,1,0a11.13,11.13,0,0,1,2,0,24.88,24.88,0,0,0-7,3.47c-.84.73-2.94,3.15-2.1,2.84s1-1,1.47-1.27,1,0,1.58-.41.42.1.73,0,.42.1,1.06-.43.73.21,1.15,0c1.26-.84,1.47-.31,2.1-.84s.84.53,1,.21a1.8,1.8,0,0,1,1-.31c.42,0,.84-.42,1.26-.63a2,2,0,0,1,1.16,0,16.61,16.61,0,0,0-6.93,6.41c-.85,1.79-1.79,4-1.16,3.68s1-1.79,1.79-2.31.94.52,2-1.68,1.37-.74,2.31-1.9,1-.73,1.68-1.26a3.17,3.17,0,0,1,1.47-.63c-.21.1-.31.32-.52.42l-.42.74-1,.84-.42.73a6.8,6.8,0,0,0-1.89,2c-.21.42.1.32-.42,1.37a3.09,3.09,0,0,1-.74,1.68c-.21.32-1.05,2.21-.73,3,0,.84-.11,2-.11,2.52s.74-1.16,1.16-1.47.63,0,1-1,.73-.32,1.26-1.27,1-.52,1.47-1.15.73-2,1.15-.84c.11.42,1-1.06,1.26-1.79,0,0,.11-1.89,1-1.68-.52.21-.52.94-.52.94s-.32.63,0,.84a1.26,1.26,0,0,0,0,1.37s-1.16,1.26-1.16,2c0,.31.53-.32.32.21s.31.21,0,.95c-.11.31.63-.53.31.42s.32.1.21,1.26a1.12,1.12,0,0,0,.21.95s.53-1.69.63-1.27.32-1,.42-.21.32-1.15.32-1.15.21-.53.31.1.32-1.26.42-.84.63-.74.63-1.16a1.48,1.48,0,0,0,.43-.31,2.15,2.15,0,0,0,.9-.2,9.38,9.38,0,0,0-.63,2.2c0,.32.21.11,0,1.06,0,.31.32-.32.32.52s.31,1,.31,1l.21-.42s.21-1,.32-.63.52-1,.52-1l.21.42c.1.21-.31.31.11,1.05.1.31-.42.21-.11,1.15.11.32-.42.32.11,1.58.21.42-.74-.21.1,1.48.11.2-.63,0,.11,1.47.1.31-.63.42-.21,1.26.1.21.21.31,0,.52s-.32.53,0,1.16c.21.42-.42.11,0,1.26.21.53-.32.53,0,1.16s-.11.84,0,1.47-.42.42.21,1.69c.21.52-.53-.11-.11,1.15,0,.21-.52.21-.1,1.26.1.21-.21.32,0,1,.1.32-.21.53,0,1.16.1.42-.21.52-.11,1.15a4.83,4.83,0,0,1,.11.84s-.32.11-.11.74-.21.32,0,1c0,.32-.21.11-.21.74-.1.21-.52.1,0,.94a8.46,8.46,0,0,0,3.68-.1c.21-.53,0-.63-.11-.53a2.68,2.68,0,0,1,0-1.26c.11-.21-.42.11-.1-1.26.1-.42-.32-.42-.11-1s-.31-1-.1-1.89c.31-1.06-.42-.11-.21-.74s-.11-1,0-1.16-.11-.42.1-.94-.42-.64-.1-1.37-.32-1-.11-1.47c.42-1.06-.21-.42.11-1.06s-.11-.94,0-1.26a1.18,1.18,0,0,0,.1-.84c.21-.52-.31-.42-.1-1s-.42-.63-.11-1.16.11-.63.11-.84-.32.11,0-.73-.11-.32,0-1a6.64,6.64,0,0,0,.1-1s-.31-.1-.1-.52-.53-.21-.21-.84.21-.53.21-.74-.21-.32,0-.84-.42,0-.21-.74.1-.52.1-.52-.31,0-.1-.63.1-.53.1-.53a.48.48,0,0,1-.31-.62h0v-.32s.31,0,.31.42a.63.63,0,0,0,.42.64,1.92,1.92,0,0,1,.42.94c.11.32.32-.63.63.21s.21-.73.21-.73a.86.86,0,0,0,0-1c-.31-.53.42.11.11-.74l-.32-.84a.51.51,0,0,0,.32-.1,1,1,0,0,0,.94-.32c.11,0,.21-.1.32-.1-.11.63.1.52.21.63a3.73,3.73,0,0,1,.31.42s.11,1.58.21,1,.42.63.42.63a3.87,3.87,0,0,1,.21-1.26c.21-.53.32,2.52.32,1.79s.1-.74.21-.32.31.84.42.63.31.21.31.21a3.84,3.84,0,0,0-.1-1.47c-.21-.84.31-.1.31-.42s.21-.11.21-.21a3.67,3.67,0,0,0-.42-1.16c-.1-.1-.1-.31-.21-1.15v-.64c.53,0,.11.53.32,1.27s.42.42.42.42,0,1.47.42.84.1,1.15.42,1.05.31.63.42.32.42.1.42.1.21-.63.32.11a4.16,4.16,0,0,0,.73,1.78,2.68,2.68,0,0,0,0-1.26c-.1-.63.31-.21.21-.73s.42,0,.21-.95.74.53.31-.63.43,0,.22-.42-.33-1.06-.53-1.58c-.42-.84.53,0,.53,0s-.32-1-.53-1.37-.52-1.26-.52-1.26a2.45,2.45,0,0,0-.85-1.37,1.14,1.14,0,0,1,.74.32c.31.32,1.26,1.58,1,1a1.15,1.15,0,0,1,.21-1s1.26,1.79,1.26,1.37.42,0,.42,0-.1-.84.11-.74.63.53.73.21.74,1,.74.74,1,.73,1,.21,1.26,1.15,1.26.52,1.26,1.16,1.15.53c-.52-1.37,0-1.37-.42-1.79-.94-.95,0-.52-.21-.95a4.88,4.88,0,0,0-2-1.68,24.43,24.43,0,0,0-5.15-2.73,13.91,13.91,0,0,1,3.36,1.15c.63.43,1.26.85,1.16.21s.73.64.63.11,1.15.63,1,0,2,1,1.78.53C847,637.13,849.33,638.5,848.28,637.55Z"/><path class="cls-1" d="M765.41,676.32c-5.36-5.26-11-4.53-11-4.53a3,3,0,0,1,1.47-.2c1,.1,0-.53.84-.32s1.15.1.94-.11,1.37.53,1,0,1.68,1,1.16.32.1-.74.1-.74,1,.74.84.32.53-.42.74-.32.94.21,1.26.32.31-.11.52-.32,2.11,1.16,1.58.63c-1-1.15.32-.63.32-.63s.31-.1-.32-.52.1-.63-1.47-1.16-.11-.42-1.37-.53-.63-.31-1.57-.42c-2.31,0-.84-.42-1.58-.42s-1.57.32-2.41.32a31.23,31.23,0,0,0-3.47.52,6.83,6.83,0,0,1,2.52-.84c1.68-.31-.21-.42,1.16-.52s.84-.32,1.89-.53-.42-.73.31-.84,2,.42,1.89,0,1.68-.1,2.21-.21-.32-.53-.11-.74.64-.1.42-.52,1.58-.21,1.58-.21-.21-.53-2.31-.53-.53-.31-1.47-.21-2.42.53-2.94.53a9.6,9.6,0,0,0-2.73.73c-1,.42-.95,0-.95,0,.21-.31.21-.42.21-.52a2.93,2.93,0,0,1,1.26-.74c.63-.21-1.36-.1.63-.73s0-.53,1.26-.95.63-.84.63-.84a12.68,12.68,0,0,0,2.31-.74c.53-.31-1-.21-.73-.52s1.68-.53,1.36-.63-1.26.1-2.73,0-1.78.52-2.52.42-1.26.84-1.68.84-.73,0-2.2,1.15-1.06,0-1.06,0a29.34,29.34,0,0,1-2.41,2.32c-.74.42.63-1.68,0-1.05a19.74,19.74,0,0,0-1.79,2.73l.53-1.26s.63-1.47.84-1.79-.74-.31-.21-1.05-.11-1,0-1.58-.42-.31-.21-1,.52-1.15-.21-.63-.11-.84.1-2-.31-.63.11-1.58a5,5,0,0,0,.31-1.79c.11-.31-.63-.52-.52-.84s.31-1.47,0-1a4,4,0,0,1-1.16.84c-.31.1-.84,1.37-1.05,1.58s-.63.84-.84,1.05-.52,1.16-.94,1.79c-.42.42-.42,1.89-.42,2.62s-.42.74-.63,1.58A16.24,16.24,0,0,0,743,664c-.94-2.52-2.2-4.1-2.31-3.47s-.73-.31-1.47-.94-.94,0-2.21-1.06-1,.11-2.31-.73-.63.1-2.41-.74-.63.53-1.79.21-3.46-.21-2.31,0c2.52.74.74,1,1.68,1.26a12.57,12.57,0,0,1,1.79,1c.31.11.31.42.73.53a19.45,19.45,0,0,1,1.79.84c.84.42-.63,1,1.47,1.89s1.26,1.16,3.36,2.31a5.4,5.4,0,0,1,2.52,2.21c-.84-.63-1.68-1-2.31-1.47-1.15-.84-1.68-.63-3.67-1.58s-1.79-.1-3.16-.42-.84.42-1.26.42-2,.63-2.83.74-3,.84-2.73,1,.31.21.1.73.32.42.32.42l1.15-.31c1.16-.32.21.42,1.37.1s.21.42,1,.32c1.36-.21-.53.73,0,.52,2.2-.63,2.31-.31,2.62-.21a8.06,8.06,0,0,1,1,.32c.21.11,1.26.53,1.26.53-1.16-.11-2-.22-2.31-.22a10.31,10.31,0,0,0-1.89.42c-.63,0-1.89,1.06-3.15,1.37s-1,.84-1.37,1c-1.26.74-3.67,2.63-2.52,2.21s.53.74,1,.53c1.78-1.16,1.89-.32,1.89-.32a4.06,4.06,0,0,0,1.57-.63c1.16-.63.74.21,1,.21s.53-.42,1.47-1,.74.1,1,0a11.13,11.13,0,0,1,2,0,25.43,25.43,0,0,0-7,3.47c-.84.74-2.94,3.16-2.1,2.84s1-1,1.47-1.26,1,0,1.58-.42.42.1.73,0,.42.1,1-.42.74.21,1.16,0c1.26-.84,1.47-.32,2.1-.84s.84.52,1,.21a1.72,1.72,0,0,1,1-.32c.42,0,.84-.42,1.26-.63a2,2,0,0,1,1.15,0A16.74,16.74,0,0,0,729.6,681c-.84,1.79-1.78,4-1.15,3.68s1-1.78,1.78-2.31.95.53,2-1.68,1.36-.74,2.31-1.89,1-.74,1.68-1.27a3.33,3.33,0,0,1,1.47-.63c-.21.11-.31.32-.52.42l-.42.74-1.06.84-.42.74a6.8,6.8,0,0,0-1.89,2c-.21.42.11.31-.42,1.36a3.08,3.08,0,0,1-.73,1.68c-.21.32-1.05,2.21-.74,3,0,.84-.1,2-.1,2.52s.73-1.15,1.15-1.47.63,0,1-1,.74-.32,1.27-1.26,1-.53,1.46-1.16.74-2,1.16-.84c.11.42,1-1,1.26-1.79,0,0,.11-1.89,1-1.68-.52.21-.52.94-.52.94s-.32.64,0,.85a1.24,1.24,0,0,0,0,1.36s-1.16,1.26-1.16,2c0,.32.53-.31.32.21s.31.21,0,.95c-.11.31.63-.53.31.42s.32.1.21,1.26a1.12,1.12,0,0,0,.21.95s.53-1.69.63-1.26.32-1.06.42-.22.32-1.15.32-1.15.21-.53.31.1.32-1.26.42-.84.63-.73.63-1.16a1.43,1.43,0,0,0,.42-.31,1.91,1.91,0,0,0,.74-.21,9.46,9.46,0,0,0-.63,2.21c0,.31.21.1,0,1,0,.31.31-.32.31.53s.32.94.32.94l.21-.42s.21-1,.31-.63.53-1,.53-1l.21.42c.11.21-.32.31.1,1.05.11.32-.42.21-.1,1.16.1.31-.42.31.1,1.57.21.43-.73-.21.11,1.48.1.21-.63,0,.1,1.47.11.32-.63.42-.21,1.26.11.21.21.32,0,.53s-.31.52,0,1.15c.21.42-.42.11,0,1.27.21.52-.31.52,0,1.15s-.1.84,0,1.47-.42.43.21,1.69c.21.52-.52-.11-.1,1.15,0,.21-.53.21-.11,1.27.11.21-.21.31,0,.94.11.32-.21.53,0,1.16.11.42-.21.53-.1,1.16a4.81,4.81,0,0,1,.1.84s-.31.1-.1.73-.21.32,0,1.06c0,.31-.21.1-.21.73-.11.21-.53.11,0,.95a8.57,8.57,0,0,0,3.67-.11c.21-.52,0-.63-.1-.52s-.11-1,0-1.27-.42.11-.11-1.26c.11-.42-.31-.42-.1-1s-.32-1-.11-1.89-.42-.11-.21-.74-.1-.94,0-1.15-.1-.43.11-.95-.42-.63-.11-1.37-.31-.94-.1-1.47c.42-1-.21-.42.1-1s-.1-1,0-1.26a1.29,1.29,0,0,0,.11-.84c.21-.53-.32-.43-.11-1.06s-.42-.63-.1-1.15.1-.63.1-.85-.31.11,0-.73-.1-.32,0-1a5.88,5.88,0,0,0,.11-.94s-.32-.11-.11-.53-.52-.21-.21-.84.21-.53.21-.74-.21-.31,0-.84-.42,0-.21-.73.11-.53.11-.53-.32,0-.11-.63.11-.53.11-.53a.5.5,0,0,1-.33-.61v-.33s.32,0,.32.42a.62.62,0,0,0,.42.63,1.92,1.92,0,0,1,.42.94c.1.32.31-.63.63.21s.21-.73.21-.73a.87.87,0,0,0,0-1c-.32-.52.42.11.1-.73l-.31-.85a.45.45,0,0,0,.31-.1,1.1,1.1,0,0,0,1-.32c.11,0,.21-.1.31-.1-.1.63.11.52.22.63a3.73,3.73,0,0,1,.31.42s.1,1.58.21,1,.42.63.42.63a3.87,3.87,0,0,1,.21-1.26c.21-.52.32,2.53.32,1.79s.1-.74.21-.32.31.84.42.63.31.21.31.21a3.84,3.84,0,0,0-.1-1.47c-.21-.84.31-.1.31-.42s.21-.1.21-.21a3.67,3.67,0,0,0-.42-1.16c-.1-.1-.1-.31-.21-1.15v-.63c.53,0,.11.52.32,1.26s.42.42.42.42,0,1.47.42.84.1,1.16.42,1,.31.63.42.32.42.1.42.1.21-.63.31.11a4.29,4.29,0,0,0,.74,1.79,2.73,2.73,0,0,0,0-1.27c-.11-.63.31-.21.21-.73s.42,0,.21-1,.73.53.31-.63.42,0,.21-.42a12.69,12.69,0,0,0-.52-1.58c-.42-.84.52,0,.52,0a13.13,13.13,0,0,0-.52-1.36c-.21-.43-.53-1.27-.53-1.27a2.38,2.38,0,0,0-.84-1.36,1.13,1.13,0,0,1,.74.31c.31.32,1.26,1.58,1,1a1.2,1.2,0,0,1,.21-1s1.26,1.79,1.26,1.37.42,0,.42,0-.11-.84.1-.74.63.53.74.21.73,1,.73.74,1,.74,1,.21,1.26,1.16,1.26.53,1.26,1.15,1.16.52c-.53-1.37,0-1.37-.42-1.79-.95-.94,0-.52-.21-.94a4.9,4.9,0,0,0-2-1.69,24.35,24.35,0,0,0-5.14-2.73,13.93,13.93,0,0,1,3.36,1.16c.63.42,1.26.84,1.15.21s.74.63.63.1,1.16.63,1,0,2,1,1.79.53C764.15,675.9,766.46,677.26,765.41,676.32Z"/><path class="cls-1" d="M720.24,719.64c-5.36-5.26-11-4.52-11-4.52a2.84,2.84,0,0,1,1.47-.21c1,.1,0-.53.84-.32s1.16.11,1-.1,1.36.52,1,0,1.68.94,1.15.31.11-.73.11-.73.94.73.84.31.52-.42.73-.31,1,.21,1.26.31.32-.1.53-.31,2.1,1.15,1.57.63c-.94-1.16.32-.63.32-.63s.31-.11-.32-.53.11-.63-1.47-1.15-.1-.42-1.36-.53-.63-.32-1.58-.42c-2.31,0-.84-.42-1.57-.42s-1.58.31-2.42.31a31.25,31.25,0,0,0-3.47.53,6.7,6.7,0,0,1,2.53-.84c1.68-.32-.21-.42,1.15-.53s.84-.31,1.89-.52-.42-.74.32-.84,2,.42,1.89,0,1.68-.11,2.2-.22-.31-.52-.1-.73.63-.11.42-.53,1.57-.21,1.57-.21-.21-.52-2.31-.52-.52-.32-1.47-.21-2.41.52-2.94.52a9.61,9.61,0,0,0-2.73.74c-1,.42-.94,0-.94,0,.21-.32.21-.42.21-.53a2.84,2.84,0,0,1,1.26-.73c.63-.21-1.37-.11.63-.74s0-.52,1.26-1,.63-.84.63-.84a14.41,14.41,0,0,0,2.31-.73c.52-.32-1-.21-.74-.53s1.68-.52,1.37-.63-1.26.11-2.73,0-1.79.53-2.52.42-1.26.84-1.68.84-.74,0-2.21,1.16-1,0-1,0a27.77,27.77,0,0,1-2.42,2.31c-.73.42.63-1.68,0-1a18.9,18.9,0,0,0-1.78,2.74l.52-1.27s.63-1.47.84-1.78-.73-.32-.21-1.06-.1-1.05,0-1.57-.42-.32-.21-.95.53-1.16-.21-.63-.1-.84.11-2-.32-.63.1-1.58a5.14,5.14,0,0,0,.32-1.78c.1-.32-.63-.53-.53-.85s.32-1.47,0-1a4,4,0,0,1-1.15.84c-.32.11-.84,1.37-1.05,1.58s-.63.84-.84,1-.53,1.16-1,1.79c-.42.42-.42,1.89-.42,2.63s-.42.74-.63,1.58a16.85,16.85,0,0,0,.32,3.68c-1-2.53-2.21-4.1-2.31-3.47s-.74-.32-1.47-1-1,0-2.21-1-1,.1-2.31-.74-.63.11-2.42-.73-.63.52-1.78.21-3.47-.21-2.31,0c2.52.73.73.94,1.68,1.26a11.11,11.11,0,0,1,1.78,1c.32.1.32.42.74.52a11.29,11.29,0,0,1,1.78.84c.84.42-.63,1,1.47,1.9s1.26,1.15,3.37,2.31a5.47,5.47,0,0,1,2.52,2.21c-.84-.63-1.68-1-2.31-1.47-1.16-.85-1.68-.64-3.68-1.58s-1.79-.11-3.15-.42-.84.42-1.26.42-2,.63-2.84.73-3,.85-2.73,1,.31.21.1.74.32.42.32.42l1.16-.32c1.15-.31.21.42,1.36.11s.21.42,1,.31c1.37-.21-.52.74,0,.53,2.21-.63,2.31-.32,2.63-.21s.73.21.94.31,1.26.53,1.26.53c-1.15-.11-2-.21-2.31-.21A10.13,10.13,0,0,0,685,712c-.63,0-1.89,1-3.15,1.37s-1,.84-1.37,1c-1.25.73-3.67,2.63-2.52,2.21s.53.73,1,.52c1.78-1.15,1.89-.31,1.89-.31a4.17,4.17,0,0,0,1.58-.63c1.15-.64.73.21,1,.21s.52-.42,1.47-1.06.73.11,1,0a13.35,13.35,0,0,1,2,0,24.78,24.78,0,0,0-7,3.48c-.85.73-3,3.15-2.11,2.83s1-.94,1.48-1.26,1,0,1.57-.42.42.11.74,0,.42.11,1.05-.42.73.21,1.15,0c1.26-.84,1.47-.31,2.1-.84s.84.53,1,.21a1.77,1.77,0,0,1,1-.32c.42,0,.84-.42,1.26-.63a2,2,0,0,1,1.16,0,16.57,16.57,0,0,0-6.93,6.42c-.84,1.79-1.79,4-1.16,3.68s1-1.79,1.79-2.31.94.52,2-1.69,1.37-.73,2.31-1.89,1-.74,1.68-1.26a3.17,3.17,0,0,1,1.47-.63c-.2.1-.31.31-.52.42l-.42.73-1,.84-.42.74a6.8,6.8,0,0,0-1.89,2c-.21.42.1.32-.42,1.37a3.09,3.09,0,0,1-.74,1.68c-.21.31-1,2.21-.73,2.94,0,.84-.11,2-.11,2.53s.74-1.16,1.16-1.47.63,0,1-1.06.73-.31,1.26-1.26,1-.52,1.47-1.16.73-2,1.16-.84c.1.42,1-1,1.25-1.78,0,0,.11-1.9,1.06-1.69-.53.21-.53,1-.53,1s-.31.63,0,.84a1.3,1.3,0,0,0,0,1.37s-1.16,1.26-1.16,2c0,.31.53-.32.32.21s.31.21,0,.94c-.11.32.63-.52.31.42s.32.11.22,1.27a1.06,1.06,0,0,0,.21.94s.52-1.68.63-1.26.31-1.05.42-.21.31-1.16.31-1.16.21-.52.32.11.31-1.26.42-.84.63-.74.63-1.16a1.46,1.46,0,0,0,.42-.32,1.86,1.86,0,0,0,.73-.21,10.54,10.54,0,0,0-.63,2.21c0,.32.21.11,0,1,0,.32.32-.31.32.53s.31,1,.31,1l.21-.42s.21-1,.32-.64.52-1,.52-1l.21.42c.1.21-.31.32.11,1.06.1.31-.42.21-.11,1.15.11.32-.42.32.11,1.58.21.42-.74-.21.1,1.47.11.21-.63,0,.11,1.47.1.32-.63.42-.21,1.27.1.21.21.31,0,.52s-.32.53,0,1.16c.21.42-.42.1,0,1.26.21.53-.32.53,0,1.16s-.11.84,0,1.47-.42.42.21,1.68c.21.53-.53-.1-.11,1.16,0,.21-.52.21-.1,1.26.1.21-.21.32,0,1,.1.31-.21.52,0,1.15.1.42-.21.53-.11,1.16a4.83,4.83,0,0,1,.11.84s-.32.11-.11.74-.21.31,0,1c0,.31-.21.11-.21.74-.1.21-.52.1,0,.94a8.46,8.46,0,0,0,3.68-.1c.21-.53,0-.63-.11-.53s-.1-1,0-1.26-.42.1-.1-1.26c.1-.42-.32-.42-.11-1s-.31-1.06-.1-1.9c.31-1-.42-.1-.21-.73s-.11-1,0-1.16-.11-.42.1-1-.42-.63-.1-1.36-.32-.95-.11-1.48c.42-1-.21-.42.11-1s-.11-.94,0-1.26a1.18,1.18,0,0,0,.1-.84c.21-.53-.31-.42-.1-1s-.42-.63-.11-1.16.11-.63.11-.84-.32.11,0-.74-.11-.31,0-.94a6,6,0,0,0,.1-.95s-.31-.1-.1-.52-.53-.22-.21-.85.21-.52.21-.73-.21-.32,0-.84-.42,0-.21-.74.1-.53.1-.53-.31,0-.1-.63.1-.52.1-.52a.48.48,0,0,1-.31-.62h0v-.32s.31,0,.31.42a.6.6,0,0,0,.42.63,2,2,0,0,1,.42.95c.11.31.32-.63.63.21s.21-.74.21-.74a.85.85,0,0,0,0-.94c-.31-.53.42.1.11-.74l-.32-.84a.52.52,0,0,0,.32-.11,1,1,0,0,0,.94-.31c.11,0,.21-.11.32-.11-.11.63.1.53.21.63a2.92,2.92,0,0,1,.31.43s.11,1.57.21,1,.42.63.42.63a3.87,3.87,0,0,1,.21-1.26c.11-.53.32,2.52.32,1.78s.1-.73.21-.31.32.84.42.63.32.21.32.21a4.05,4.05,0,0,0-.11-1.47c-.21-.84.31-.11.31-.42s.21-.11.21-.21a5.34,5.34,0,0,0-.41-1.16c-.11-.11-.11-.32-.22-1.16v-.63c.53,0,.11.53.32,1.26s.42.42.42.42,0,1.48.42.85.1,1.15.42,1,.32.63.42.31.42.11.42.11.21-.63.32.1a4.15,4.15,0,0,0,.73,1.79,2.45,2.45,0,0,0,0-1.26c-.1-.63.32-.21.21-.74s.42,0,.21-.94.74.52.32-.63.42,0,.21-.43a12.6,12.6,0,0,0-.53-1.57c-.42-.84.53,0,.53,0s-.32-1-.53-1.37-.52-1.26-.52-1.26a2.49,2.49,0,0,0-.84-1.37,1.13,1.13,0,0,1,.73.32c.32.31,1.26,1.57,1,1a1.15,1.15,0,0,1,.21-1s1.26,1.78,1.26,1.36.42,0,.42,0-.1-.84.11-.73.63.52.73.21.74,1,.74.73,1,.74,1,.21,1.26,1.16,1.26.53,1.26,1.16,1.15.53c-.52-1.37,0-1.37-.42-1.79-.94-1,0-.53-.21-1a4.88,4.88,0,0,0-2-1.68,24.43,24.43,0,0,0-5.15-2.73,13.91,13.91,0,0,1,3.36,1.15c.63.42,1.26.84,1.16.21s.73.63.63.11,1.15.63,1.05,0,2,.94,1.78.52C719,719.12,721.29,720.48,720.24,719.64Z"/><path class="cls-1" d="M848.28,719.64c-5.36-5.26-11-4.52-11-4.52a2.84,2.84,0,0,1,1.47-.21c1,.1,0-.53.84-.32s1.16.11,1-.1,1.36.52,1,0,1.68.94,1.15.31.11-.73.11-.73.94.73.84.31.52-.42.73-.31,1,.21,1.26.31.32-.1.53-.31,2.1,1.15,1.57.63c-.94-1.16.32-.63.32-.63s.31-.11-.32-.53.11-.63-1.47-1.15-.1-.42-1.36-.53-.63-.32-1.58-.42c-2.31,0-.84-.42-1.57-.42s-1.58.31-2.42.31a31.25,31.25,0,0,0-3.47.53,6.7,6.7,0,0,1,2.53-.84c1.68-.32-.21-.42,1.15-.53s.84-.31,1.89-.52-.42-.74.32-.84,2,.42,1.89,0,1.68-.11,2.2-.22-.31-.52-.1-.73.63-.11.42-.53,1.57-.21,1.57-.21-.21-.52-2.31-.52-.52-.32-1.47-.21-2.41.52-2.94.52a9.61,9.61,0,0,0-2.73.74c-1,.42-1,0-1,0,.22-.32.22-.42.22-.53a2.84,2.84,0,0,1,1.26-.73c.63-.21-1.37-.11.63-.74s0-.52,1.26-1,.63-.84.63-.84a14.41,14.41,0,0,0,2.31-.73c.52-.32-1-.21-.74-.53s1.68-.52,1.37-.63-1.26.11-2.73,0-1.79.53-2.53.42-1.25.84-1.68.84-.73,0-2.2,1.16-1,0-1,0a27.77,27.77,0,0,1-2.42,2.31c-.73.42.63-1.68,0-1a18.9,18.9,0,0,0-1.78,2.74l.52-1.27s.63-1.47.84-1.78-.73-.32-.21-1.06-.1-1.05,0-1.57-.42-.32-.21-.95.53-1.16-.21-.63-.1-.84.11-2-.32-.63.1-1.58a5.14,5.14,0,0,0,.32-1.78c.1-.32-.63-.53-.53-.85s.32-1.47,0-1a4,4,0,0,1-1.15.84c-.32.11-.84,1.37-1,1.58s-.63.84-.84,1-.53,1.16-1,1.79c-.42.42-.42,1.89-.42,2.63s-.42.74-.63,1.58a16.85,16.85,0,0,0,.32,3.68c-1-2.53-2.21-4.1-2.32-3.47s-.73-.32-1.47-1-.94,0-2.2-1-1,.1-2.31-.74-.63.11-2.42-.73-.63.52-1.78.21-3.47-.21-2.32,0c2.53.73.74.94,1.69,1.26a11.11,11.11,0,0,1,1.78,1c.32.1.32.42.74.52a11.29,11.29,0,0,1,1.78.84c.84.42-.63,1,1.47,1.9s1.26,1.15,3.36,2.31a5.46,5.46,0,0,1,2.52,2.21c-.84-.63-1.68-1-2.31-1.47-1.15-.85-1.68-.64-3.67-1.58s-1.79-.11-3.15-.42-.84.42-1.26.42-2,.63-2.84.73-3.05.85-2.73,1,.31.21.1.74.32.42.32.42l1.15-.32c1.16-.31.22.42,1.37.11s.21.42,1,.31c1.37-.21-.52.74,0,.53,2.21-.63,2.31-.32,2.63-.21s.73.21.94.31,1.26.53,1.26.53c-1.15-.11-2-.21-2.31-.21a10.13,10.13,0,0,0-1.89.42c-.63,0-1.89,1-3.15,1.37s-1.05.84-1.37,1c-1.26.73-3.67,2.63-2.52,2.21s.53.73,1,.52c1.78-1.15,1.89-.31,1.89-.31a4.17,4.17,0,0,0,1.58-.63c1.15-.64.73.21,1,.21s.52-.42,1.47-1.06.73.11,1,0a13.35,13.35,0,0,1,2,0,24.91,24.91,0,0,0-7,3.48c-.84.73-2.94,3.15-2.1,2.83s1-.94,1.47-1.26,1,0,1.58-.42.42.11.73,0,.42.11,1.06-.42.73.21,1.15,0c1.26-.84,1.47-.31,2.1-.84s.84.53,1,.21a1.8,1.8,0,0,1,1-.32c.42,0,.84-.42,1.26-.63a2,2,0,0,1,1.16,0,16.57,16.57,0,0,0-6.93,6.42c-.84,1.79-1.79,4-1.16,3.68s1.05-1.79,1.79-2.31.94.52,2-1.69,1.37-.73,2.31-1.89,1-.74,1.68-1.26a3.17,3.17,0,0,1,1.47-.63c-.21.1-.31.31-.52.42l-.42.73-1.05.84-.42.74a6.8,6.8,0,0,0-1.89,2c-.21.42.1.32-.42,1.37a3.09,3.09,0,0,1-.74,1.68c-.21.31-1,2.21-.73,2.94,0,.84-.11,2-.11,2.53s.74-1.16,1.16-1.47.63,0,1-1.06.73-.31,1.26-1.26,1-.52,1.47-1.16.73-2,1.15-.84c.11.42,1-1,1.26-1.78,0,0,.11-1.9,1-1.69-.52.21-.52,1-.52,1s-.32.63,0,.84a1.26,1.26,0,0,0,0,1.37s-1.16,1.26-1.16,2c0,.31.53-.32.32.21s.31.21,0,.94c-.11.32.63-.52.31.42s.32.11.21,1.27a1.09,1.09,0,0,0,.21.94s.53-1.68.63-1.26.32-1.05.42-.21.32-1.16.32-1.16.21-.52.31.11.32-1.26.42-.84.63-.74.63-1.16a1.51,1.51,0,0,0,.43-.32,1.86,1.86,0,0,0,.73-.21,10,10,0,0,0-.63,2.21c0,.32.21.11,0,1,0,.32.32-.31.32.53s.31,1,.31,1l.21-.42s.21-1,.32-.64.52-1,.52-1l.21.42c.1.21-.31.32.11,1.06.1.31-.42.21-.11,1.15.11.32-.42.32.11,1.58.21.42-.74-.21.1,1.47.11.21-.63,0,.11,1.47.1.32-.63.42-.21,1.27.1.21.21.31,0,.52s-.32.53,0,1.16c.21.42-.42.1,0,1.26.21.53-.32.53,0,1.16s-.11.84,0,1.47-.42.42.21,1.68c.21.53-.53-.1-.11,1.16,0,.21-.52.21-.1,1.26.1.21-.21.32,0,1,.1.31-.21.52,0,1.15.1.42-.21.53-.11,1.16a4.83,4.83,0,0,1,.11.84s-.32.11-.11.74-.21.31,0,1c0,.31-.21.11-.21.74-.1.21-.52.1,0,.94a8.46,8.46,0,0,0,3.68-.1c.21-.53,0-.63-.11-.53a2.68,2.68,0,0,1,0-1.26c.11-.21-.42.1-.1-1.26.1-.42-.32-.42-.11-1s-.31-1.06-.1-1.9c.31-1-.42-.1-.21-.73s-.11-1,0-1.16-.11-.42.1-1-.42-.63-.1-1.36-.32-.95-.11-1.48c.42-1-.21-.42.11-1s-.11-.94,0-1.26a1.18,1.18,0,0,0,.1-.84c.21-.53-.31-.42-.1-1s-.42-.63-.11-1.16.11-.63.11-.84-.32.11,0-.74-.11-.31,0-.94a6,6,0,0,0,.1-.95s-.31-.1-.1-.52-.53-.22-.21-.85.21-.52.21-.73-.21-.32,0-.84-.42,0-.21-.74.1-.53.1-.53-.31,0-.1-.63.1-.52.1-.52a.48.48,0,0,1-.31-.62h0v-.32s.31,0,.31.42a.6.6,0,0,0,.42.63,2,2,0,0,1,.42.95c.11.31.32-.63.63.21s.21-.74.21-.74a.85.85,0,0,0,0-.94c-.31-.53.42.1.11-.74l-.32-.84a.52.52,0,0,0,.32-.11,1,1,0,0,0,.94-.31c.11,0,.21-.11.32-.11-.11.63.1.53.21.63a2.92,2.92,0,0,1,.31.43s.11,1.57.21,1,.42.63.42.63a3.87,3.87,0,0,1,.21-1.26c.11-.53.32,2.52.32,1.78s.1-.73.21-.31.31.84.42.63.31.21.31.21a3.84,3.84,0,0,0-.1-1.47c-.21-.84.31-.11.31-.42s.21-.11.21-.21a4.89,4.89,0,0,0-.42-1.16c-.1-.11-.1-.32-.21-1.16v-.63c.53,0,.11.53.32,1.26s.42.42.42.42,0,1.48.42.85.1,1.15.42,1,.31.63.42.31.42.11.42.11.21-.63.32.1a4.15,4.15,0,0,0,.73,1.79,2.68,2.68,0,0,0,0-1.26c-.1-.63.31-.21.21-.74s.42,0,.21-.94.74.52.31-.63.43,0,.22-.43-.33-1.06-.53-1.57c-.42-.84.53,0,.53,0s-.32-1-.53-1.37-.52-1.26-.52-1.26a2.45,2.45,0,0,0-.85-1.37,1.14,1.14,0,0,1,.74.32c.31.31,1.26,1.57,1,1a1.15,1.15,0,0,1,.21-1s1.26,1.78,1.26,1.36.42,0,.42,0-.1-.84.11-.73.63.52.73.21.74,1,.74.73,1,.74,1,.21,1.26,1.16,1.26.53,1.26,1.16,1.15.53c-.52-1.37,0-1.37-.42-1.79-.94-1,0-.53-.21-1a4.88,4.88,0,0,0-2-1.68,24.43,24.43,0,0,0-5.15-2.73,13.91,13.91,0,0,1,3.36,1.15c.63.42,1.26.84,1.16.21s.73.63.63.11,1.15.63,1,0,2,.94,1.78.52C847,719.12,849.33,720.48,848.28,719.64Z"/><path class="cls-1" d="M854.4,544c-5.36-5.25-11-4.52-11-4.52a3.07,3.07,0,0,1,1.47-.21c1,.11,0-.52.84-.31s1.16.1,1-.11,1.36.53,1,0,1.68,1,1.15.32.11-.74.11-.74.94.74.84.32.52-.42.73-.32,1,.21,1.27.32.31-.11.52-.32,2.1,1.16,1.58.63c-1-1.16.31-.63.31-.63s.32-.1-.31-.53.1-.63-1.47-1.15-.11-.42-1.37-.53-.63-.31-1.58-.42c-2.31,0-.84-.42-1.57-.42s-1.58.32-2.42.32a31,31,0,0,0-3.46.52,6.83,6.83,0,0,1,2.52-.84c1.68-.31-.21-.42,1.15-.53s.84-.31,1.89-.52-.42-.74.32-.84,2,.42,1.89,0,1.68-.11,2.2-.21-.31-.53-.1-.74.63-.1.42-.52,1.58-.22,1.58-.22-.22-.52-2.31-.52-.53-.32-1.48-.21-2.41.52-2.94.52a9.61,9.61,0,0,0-2.73.74c-1,.42-.94,0-.94,0,.21-.31.21-.42.21-.53a2.84,2.84,0,0,1,1.26-.73c.63-.21-1.37-.11.63-.74s0-.52,1.26-.94.63-.85.63-.85a13.47,13.47,0,0,0,2.31-.73c.52-.32-1-.21-.74-.53s1.68-.52,1.37-.63-1.26.11-2.73,0-1.79.53-2.52.42-1.26.84-1.68.84-.74,0-2.21,1.16-1,0-1,0a27.88,27.88,0,0,1-2.42,2.32c-.73.41.63-1.69,0-1.06A19.15,19.15,0,0,0,836,533l.52-1.27a19.35,19.35,0,0,1,.85-1.78c.2-.32-.74-.32-.22-1.05s-.1-1.06,0-1.58-.42-.32-.21-1,.53-1.15-.21-.63-.1-.84.11-2-.32-.63.1-1.57a5.2,5.2,0,0,0,.32-1.79c.11-.32-.63-.53-.53-.84s.32-1.47,0-1.06a4,4,0,0,1-1.15.85c-.32.1-.84,1.36-1.05,1.57s-.63.85-.84,1.06-.53,1.15-1,1.78c-.42.42-.42,1.9-.42,2.63s-.42.74-.63,1.58a16.26,16.26,0,0,0,.32,3.68c-1-2.52-2.21-4.1-2.31-3.47s-.74-.32-1.47-1-1,0-2.21-1-1,.11-2.31-.73-.63.1-2.42-.74-.63.53-1.78.21-3.47-.21-2.31,0c2.52.74.73,1,1.68,1.26a11.11,11.11,0,0,1,1.78,1c.32.1.32.42.74.52a12.31,12.31,0,0,1,1.78.84c.84.41-.63,1.06,1.47,1.9s1.26,1.15,3.37,2.31,2.52,2.21,2.52,2.21c-.84-.63-1.68-1-2.31-1.47-1.16-.84-1.68-.63-3.68-1.58s-1.79-.11-3.15-.42-.84.42-1.26.42-2,.63-2.84.74-3,.84-2.73.94.32.21.11.74.31.42.31.42l1.16-.32c1.15-.31.21.42,1.36.11s.21.42,1,.31c1.37-.21-.52.74,0,.53,2.21-.63,2.31-.31,2.63-.21a7.28,7.28,0,0,1,.94.32c.21.11,1.26.52,1.26.52-1.15-.1-2-.21-2.31-.21a10.31,10.31,0,0,0-1.89.42c-.63,0-1.89,1.05-3.15,1.37s-1,.84-1.36,1.05c-1.26.74-3.68,2.63-2.52,2.21s.52.73.94.53c1.79-1.16,1.89-.32,1.89-.32a4.17,4.17,0,0,0,1.58-.63c1.15-.63.73.21,1,.21s.52-.42,1.47-1.05.73.1,1,0a11.13,11.13,0,0,1,2,0,24.75,24.75,0,0,0-7,3.47c-.84.73-2.94,3.15-2.1,2.84s.94-1,1.47-1.26,1,0,1.57-.43.42.11.74,0,.42.11,1.05-.42.73.21,1.15,0c1.26-.84,1.47-.31,2.1-.84s.84.53,1,.21a1.8,1.8,0,0,1,1-.31c.42,0,.84-.42,1.27-.63a2,2,0,0,1,1.15,0,16.61,16.61,0,0,0-6.93,6.41c-.84,1.79-1.79,4-1.16,3.68s1-1.79,1.79-2.31.94.52,2-1.68,1.37-.74,2.31-1.9,1-.73,1.68-1.26a3.21,3.21,0,0,1,1.48-.63c-.21.11-.32.31-.53.42l-.42.74-1,.84-.42.73a6.8,6.8,0,0,0-1.89,2c-.21.42.1.32-.42,1.37a3.09,3.09,0,0,1-.74,1.68c-.21.32-1,2.21-.73,3,0,.84-.11,2-.11,2.52s.74-1.16,1.16-1.47.63,0,1-1,.73-.32,1.26-1.27,1-.52,1.47-1.15.74-2,1.16-.84c.1.42,1-1.06,1.26-1.79,0,0,.1-1.89,1-1.68-.53.21-.53.94-.53.94s-.31.63,0,.84a1.3,1.3,0,0,0,0,1.37s-1.15,1.26-1.15,2c0,.31.52-.32.31.21s.32.21,0,.94c-.1.32.63-.52.32.43s.31.1.21,1.26a1.06,1.06,0,0,0,.21.94s.52-1.68.63-1.26.31-1,.42-.21.31-1.16.31-1.16.21-.52.32.11.31-1.26.42-.84.63-.74.63-1.16a1.43,1.43,0,0,0,.42-.31,1.91,1.91,0,0,0,.73-.21,10.54,10.54,0,0,0-.63,2.21c0,.31.21.1,0,1,0,.31.32-.32.32.52s.31,1,.31,1l.21-.42s.21-1,.32-.63.52-1,.52-1l.21.42c.1.21-.31.31.11,1.05.1.31-.42.21-.11,1.15.11.32-.42.32.11,1.58.21.42-.74-.21.1,1.47.11.21-.63,0,.11,1.48.1.31-.63.42-.21,1.26.1.21.21.31,0,.52s-.32.53,0,1.16c.21.42-.42.11,0,1.26.21.53-.32.53,0,1.16s-.11.84,0,1.47-.42.42.21,1.68c.21.53-.53-.1-.11,1.16,0,.21-.52.21-.1,1.26.1.21-.21.32,0,.95.1.31-.21.52,0,1.16.1.42-.21.52-.11,1.15a4.83,4.83,0,0,1,.11.84s-.32.11-.11.74-.21.32,0,1.05c0,.32-.21.11-.21.74-.1.21-.52.1,0,.94a8.46,8.46,0,0,0,3.68-.1c.21-.53,0-.63-.11-.53s-.1-1,0-1.26-.42.11-.1-1.26c.1-.42-.32-.42-.11-1s-.31-1-.1-1.9-.42-.1-.21-.73-.11-1,0-1.16-.11-.42.1-.94-.42-.63-.1-1.37-.32-1-.11-1.47c.42-1-.21-.42.11-1s-.11-1,0-1.27a1.16,1.16,0,0,0,.1-.84c.21-.52-.31-.42-.1-1.05s-.42-.63-.11-1.16.11-.63.11-.84-.32.11,0-.73-.11-.32,0-1a6.64,6.64,0,0,0,.1-1s-.31-.1-.1-.52-.53-.21-.21-.84.21-.53.21-.74-.21-.32,0-.84-.42,0-.21-.74.1-.52.1-.52-.31,0-.1-.63.1-.53.1-.53a.48.48,0,0,1-.32-.6v-.35s.31,0,.31.42a.6.6,0,0,0,.42.63,2,2,0,0,1,.42,1c0,.42.32-.63.63.21s.21-.73.21-.73a.87.87,0,0,0,0-1c-.31-.53.42.1.11-.74l-.32-.84a.53.53,0,0,0,.32-.1,1,1,0,0,0,.94-.32c.11,0,.22-.1.32-.1-.1.63.11.52.21.63s.32.42.32.42.1,1.57.21,1,.42.63.42.63a3.87,3.87,0,0,1,.21-1.26c.1-.53.31,2.52.31,1.79s.11-.74.21-.32.32.84.42.63.32.21.32.21a4.05,4.05,0,0,0-.11-1.47c-.21-.84.32-.11.32-.42s.21-.11.21-.21a3.93,3.93,0,0,0-.42-1.16c-.11-.1-.11-.31-.21-1.15V551c.52,0,.1.53.31,1.27s.42.42.42.42,0,1.47.42.84.11,1.16.42,1,.32.63.42.31.42.11.42.11.21-.63.32.11a4.16,4.16,0,0,0,.73,1.78,2.45,2.45,0,0,0,0-1.26c-.1-.63.32-.21.21-.74s.42,0,.21-.94.74.52.32-.63.42,0,.21-.42a12.74,12.74,0,0,0-.53-1.58c-.42-.84.53,0,.53,0a11,11,0,0,0-.53-1.37,11.07,11.07,0,0,1-.52-1.26,2.49,2.49,0,0,0-.84-1.37,1.13,1.13,0,0,1,.73.32c.32.31,1.26,1.58,1,1a1.17,1.17,0,0,1,.21-1S847,549.4,847,549s.42,0,.42,0-.1-.85.11-.74.63.53.73.21.74,1,.74.74,1,.73,1,.21,1.26,1.15,1.26.52,1.26,1.16,1.16.53c-.53-1.37,0-1.37-.42-1.79-.95-1,0-.53-.21-1a5,5,0,0,0-2-1.68,24.43,24.43,0,0,0-5.15-2.73A14.35,14.35,0,0,1,848,544.4c.63.42,1.26.85,1.16.22s.73.63.63.1,1.15.63,1,0,2,.95,1.78.53C853.14,543.43,855.45,544.9,854.4,544Z"/><path class="cls-1" d="M760.44,601.51c-5.35-5.26-11-4.53-11-4.53a3.07,3.07,0,0,1,1.47-.21c1,.11,0-.52.84-.31s1.16.1,1-.11,1.36.53,1,0,1.68.95,1.16.32.1-.74.1-.74.94.74.84.32.52-.42.73-.32,1,.21,1.27.32.31-.11.52-.32,2.1,1.16,1.58.63c-1-1.15.31-.63.31-.63s.32-.1-.31-.52.1-.63-1.47-1.16-.11-.42-1.37-.53-.63-.31-1.57-.42c-2.32,0-.85-.42-1.58-.42s-1.58.32-2.42.32a31,31,0,0,0-3.46.52,6.83,6.83,0,0,1,2.52-.84c1.68-.31-.21-.42,1.15-.52s.84-.32,1.89-.53-.42-.74.32-.84,2,.42,1.89,0,1.68-.1,2.21-.21-.32-.53-.11-.74.63-.1.42-.52,1.58-.21,1.58-.21-.21-.53-2.31-.53-.53-.31-1.47-.21-2.42.53-2.95.53a9.6,9.6,0,0,0-2.73.73c-1,.42-.94,0-.94,0,.21-.31.21-.42.21-.52a2.93,2.93,0,0,1,1.26-.74c.63-.21-1.37-.1.63-.73s0-.53,1.26-1,.63-.84.63-.84a13.5,13.5,0,0,0,2.31-.74c.52-.31-1.05-.21-.73-.53s1.68-.52,1.36-.62-1.26.1-2.73,0-1.79.52-2.52.42-1.26.84-1.68.84-.74,0-2.21,1.15-1,0-1,0a29.34,29.34,0,0,1-2.41,2.32c-.74.42.63-1.69,0-1a19.74,19.74,0,0,0-1.79,2.73l.53-1.26s.63-1.47.84-1.79-.74-.32-.21-1-.11-1,0-1.58-.43-.31-.21-1,.52-1.15-.22-.63-.1-.84.11-2-.31-.63.11-1.57a5.19,5.19,0,0,0,.31-1.79c.1-.31-.63-.53-.53-.84s.32-1.47,0-1a4,4,0,0,1-1.15.84c-.31.1-.84,1.37-1,1.58a8.08,8.08,0,0,1-.84,1c-.21.16-.53,1.15-1,1.78-.42.43-.42,1.9-.42,2.63s-.42.74-.63,1.58a16.26,16.26,0,0,0,.32,3.68c-1-2.52-2.21-4.1-2.31-3.47s-.74-.31-1.47-1-1,0-2.21-1-1,.11-2.31-.73-.63.1-2.42-.74-.63.53-1.78.21-3.47-.21-2.31,0c2.52.74.73.95,1.68,1.26a13.2,13.2,0,0,1,1.78.95c.32.1.32.42.74.53a19.45,19.45,0,0,1,1.79.84c.84.42-.64,1.05,1.47,1.89s1.26,1.16,3.36,2.31a5.4,5.4,0,0,1,2.52,2.21c-.84-.63-1.68-1.05-2.31-1.47-1.16-.84-1.68-.63-3.68-1.58s-1.78-.1-3.15-.42-.84.42-1.26.42-2,.63-2.84.74-3,.84-2.73.94.32.21.11.74.31.42.31.42l1.16-.31c1.15-.32.21.42,1.36.1s.21.42,1,.32c1.37-.21-.52.73,0,.52,2.21-.63,2.31-.31,2.63-.21s.73.21,1,.32l1.26.52c-1.16-.1-2-.21-2.31-.21a10.41,10.41,0,0,0-1.9.42c-.63,0-1.89,1.06-3.15,1.37s-1,.84-1.36,1c-1.26.74-3.68,2.63-2.52,2.21s.52.74.94.53c1.79-1.16,1.89-.32,1.89-.32a4.17,4.17,0,0,0,1.58-.63c1.15-.63.73.21,1,.21s.52-.42,1.47-1,.73.1,1.05,0a11.13,11.13,0,0,1,2,0,24.75,24.75,0,0,0-7,3.47c-.84.73-2.94,3.15-2.1,2.84s.94-.95,1.47-1.26,1,0,1.57-.42.42.1.74,0,.42.1,1-.43.73.22,1.15,0c1.26-.84,1.48-.31,2.11-.84s.83.53,1.05.21a1.77,1.77,0,0,1,1-.31c.42,0,.84-.42,1.26-.63a2,2,0,0,1,1.15,0,16.61,16.61,0,0,0-6.93,6.41c-.84,1.79-1.79,4-1.16,3.68s1-1.78,1.79-2.31.94.53,2-1.68,1.37-.74,2.32-1.9,1.05-.73,1.68-1.26a3.33,3.33,0,0,1,1.47-.63c-.21.11-.32.32-.53.42l-.42.74-1,.84-.42.74a6.68,6.68,0,0,0-1.89,2c-.21.42.1.32-.42,1.37a3.09,3.09,0,0,1-.74,1.68c-.2.32-1,2.21-.73,3,0,.84-.1,2-.1,2.52s.73-1.16,1.15-1.47.63,0,1-1,.74-.32,1.26-1.26,1-.53,1.47-1.16.74-2,1.16-.84c.1.42,1-1,1.26-1.79,0,0,.1-1.89,1-1.68-.53.21-.53.94-.53.94s-.31.63,0,.84a1.3,1.3,0,0,0,0,1.37s-1.15,1.26-1.15,2c0,.32.52-.32.31.21s.32.21,0,1c-.1.31.63-.53.32.42s.31.1.21,1.26a1.09,1.09,0,0,0,.21,1s.52-1.69.63-1.27.31-1,.42-.21.31-1.15.31-1.15.21-.53.32.1.31-1.26.42-.84.63-.74.63-1.16a1.43,1.43,0,0,0,.42-.31,1.91,1.91,0,0,0,.73-.21,10.54,10.54,0,0,0-.63,2.21c0,.31.21.1,0,1,0,.31.32-.32.32.52s.31.95.31.95l.21-.42s.21-1,.32-.63.52-1,.52-1l.21.42c.1.21-.31.31.11,1,.1.32-.42.21-.11,1.16.11.31-.42.31.11,1.57.21.42-.74-.21.1,1.48.11.21-.63,0,.11,1.47.1.31-.63.42-.21,1.26.1.21.21.32,0,.53s-.32.52,0,1.15c.21.42-.42.11,0,1.27.21.52-.32.52,0,1.15s-.11.84,0,1.47-.42.42.21,1.69c.21.52-.53-.11-.11,1.15,0,.21-.52.21-.1,1.27.1.2-.21.31,0,.94.1.32-.21.53,0,1.16.1.42-.21.52-.11,1.16a4.83,4.83,0,0,1,.11.84s-.32.1-.11.73-.21.32,0,1c0,.32-.21.11-.21.74-.1.21-.52.1,0,1a8.62,8.62,0,0,0,3.68-.11c.21-.52,0-.63-.11-.52a2.73,2.73,0,0,1,0-1.27c.11-.21-.41.11-.1-1.26.1-.42-.31-.42-.1-1s-.32-1-.11-1.89c.31-1.06-.42-.11-.21-.74s-.11-1,0-1.16-.11-.42.11-.94-.42-.63-.11-1.37-.31-.95-.11-1.47c.43-1-.2-.42.11-1s-.11-1,0-1.27a1.22,1.22,0,0,0,.11-.84c.21-.52-.32-.42-.11-1s-.42-.63-.11-1.16.11-.63.11-.84-.31.11,0-.73-.11-.32,0-1a6,6,0,0,0,.11-1s-.32-.1-.11-.52-.53-.21-.21-.84.21-.53.21-.74-.21-.31,0-.84-.42,0-.21-.74.1-.52.1-.52-.31,0-.1-.63.1-.53.1-.53a.48.48,0,0,1-.32-.6v-.35s.31,0,.31.43a.62.62,0,0,0,.43.63,1.92,1.92,0,0,1,.42.94c.1.32.31-.63.63.21s.21-.73.21-.73a.87.87,0,0,0,0-1c-.32-.53.42.11.1-.73l-.31-.85a.45.45,0,0,0,.31-.1,1.05,1.05,0,0,0,1-.32c.1,0,.21-.1.31-.1-.1.63.11.52.21.63s.32.42.32.42.1,1.58.21,1,.42.63.42.63a3.87,3.87,0,0,1,.21-1.26c.21-.52.31,2.52.31,1.79s.11-.74.21-.32.32.84.42.63.32.21.32.21a4.05,4.05,0,0,0-.11-1.47c-.21-.84.32-.1.32-.42s.21-.1.21-.21a6,6,0,0,0-.42-1.16c-.11-.1-.11-.31-.21-1.15v-.63c.52,0,.1.52.31,1.26s.42.42.42.42,0,1.47.42.84.11,1.16.42,1,.32.63.42.32.42.1.42.1.21-.63.32.11a4.2,4.2,0,0,0,.73,1.79,2.49,2.49,0,0,0,0-1.27c-.1-.63.32-.21.21-.73s.42,0,.21-1,.74.53.32-.63.42,0,.21-.42a12.74,12.74,0,0,0-.53-1.58c-.42-.84.53,0,.53,0a13.2,13.2,0,0,0-.53-1.36c-.21-.43-.52-1.27-.52-1.27a2.5,2.5,0,0,0-.84-1.36,1.12,1.12,0,0,1,.73.31c.32.32,1.26,1.58,1,1a1.15,1.15,0,0,1,.21-1s1.26,1.79,1.26,1.37.42,0,.42,0-.1-.84.11-.74.63.53.73.21.74,1.05.74.74,1,.74,1,.21,1.26,1.16,1.26.53,1.26,1.15,1.16.52c-.53-1.37,0-1.37-.42-1.79-1-.94,0-.52-.21-.94a4.9,4.9,0,0,0-2-1.69,24.43,24.43,0,0,0-5.15-2.73,13.93,13.93,0,0,1,3.36,1.16c.64.42,1.27.84,1.16.21s.73.63.63.1,1.16.63,1,0,2,1,1.79.53C759.29,601.09,761.6,602.45,760.44,601.51Z"/><path class="cls-1" d="M720.23,531.12c-5.36-5.25-11-4.52-11-4.52a3.07,3.07,0,0,1,1.47-.21c1,.11,0-.52.84-.31s1.16.1,1-.11,1.36.53,1,0,1.68.95,1.15.32.11-.74.11-.74.94.74.84.32.52-.42.73-.32,1,.21,1.26.32.32-.11.53-.32,2.1,1.16,1.58.63c-1-1.15.31-.63.31-.63s.32-.1-.31-.52.1-.64-1.48-1.16-.1-.42-1.36-.53-.63-.31-1.58-.42c-2.31,0-.84-.42-1.57-.42s-1.58.32-2.42.32a31,31,0,0,0-3.46.52,6.83,6.83,0,0,1,2.52-.84c1.68-.31-.21-.42,1.15-.52s.84-.32,1.89-.53-.42-.74.32-.84,2,.42,1.89,0,1.68-.11,2.21-.21-.32-.53-.11-.74.63-.1.42-.52,1.58-.21,1.58-.21-.22-.53-2.31-.53-.53-.31-1.48-.21-2.41.53-2.94.53a9.6,9.6,0,0,0-2.73.73c-1,.42-.94,0-.94,0,.21-.31.21-.42.21-.52a2.93,2.93,0,0,1,1.26-.74c.63-.21-1.37-.1.63-.74s0-.52,1.26-.94.63-.84.63-.84a13.5,13.5,0,0,0,2.31-.74c.52-.32-1-.21-.74-.53s1.68-.52,1.37-.63-1.26.11-2.73,0-1.79.53-2.52.42-1.26.84-1.68.84-.74,0-2.21,1.16-1,0-1,0a27.65,27.65,0,0,1-2.41,2.31c-.74.43.63-1.68,0-1a19.84,19.84,0,0,0-1.79,2.74l.52-1.26s.64-1.48.85-1.79-.74-.32-.21-1-.11-1.06,0-1.58-.43-.32-.22-1,.53-1.15-.21-.63-.1-.84.11-2-.32-.63.1-1.57a4.76,4.76,0,0,0,.32-1.79c.11-.32-.63-.53-.53-.84s.32-1.48,0-1a4,4,0,0,1-1.15.84c-.32.1-.84,1.36-1,1.57s-.63.85-.84,1.06-.53,1.15-1,1.78c-.42.43-.42,1.9-.42,2.63s-.42.74-.63,1.58a16.26,16.26,0,0,0,.32,3.68c-1-2.52-2.21-4.1-2.31-3.47s-.74-.32-1.47-1-1,0-2.21-1-1,.11-2.31-.73-.63.1-2.42-.74-.63.53-1.78.21-3.47-.21-2.31,0c2.52.74.73,1,1.68,1.26a10.85,10.85,0,0,1,1.78,1c.32.1.32.42.74.53a19.27,19.27,0,0,1,1.78.84c.85.42-.63,1,1.48,1.89s1.26,1.16,3.36,2.31a5.4,5.4,0,0,1,2.52,2.21c-.84-.63-1.68-1-2.31-1.47-1.16-.84-1.68-.63-3.68-1.58s-1.79-.1-3.15-.42-.84.42-1.26.42-2,.63-2.84.74-3,.84-2.73.94.32.21.11.74.31.42.31.42l1.16-.32c1.15-.31.21.43,1.36.11s.21.42,1,.32c1.37-.21-.52.73,0,.52,2.21-.63,2.31-.31,2.63-.21a7.28,7.28,0,0,1,.94.32c.21.11,1.26.52,1.26.52-1.15-.1-2-.21-2.31-.21a10.31,10.31,0,0,0-1.89.42c-.63,0-1.89,1-3.15,1.37s-1,.84-1.36,1c-1.26.74-3.68,2.63-2.52,2.21s.52.74.94.53c1.79-1.16,1.89-.32,1.89-.32a4.17,4.17,0,0,0,1.58-.63c1.15-.63.73.21,1,.21s.52-.42,1.47-1,.73.1,1,0a11.13,11.13,0,0,1,2,0,24.75,24.75,0,0,0-7,3.47c-.84.73-2.94,3.15-2.1,2.84s.94-1,1.47-1.27,1,0,1.57-.41.42.1.74,0,.42.1,1-.43.73.21,1.15,0c1.26-.84,1.47-.31,2.1-.84s.84.53,1.05.21a1.77,1.77,0,0,1,1-.31c.43,0,.85-.42,1.26-.63a2,2,0,0,1,1.16,0,16.61,16.61,0,0,0-6.93,6.41c-.84,1.79-1.79,4-1.16,3.68s1-1.79,1.79-2.31.94.52,2-1.68,1.37-.74,2.32-1.9,1-.73,1.68-1.26a3.17,3.17,0,0,1,1.47-.63c-.21.1-.32.32-.53.42l-.42.74-1,.84-.42.73a6.8,6.8,0,0,0-1.89,2c-.21.42.1.32-.42,1.37a3.09,3.09,0,0,1-.74,1.68c-.21.32-1,2.21-.73,3,0,.84-.11,2-.11,2.52s.74-1.16,1.16-1.47.63,0,1-1,.73-.32,1.26-1.27,1-.52,1.47-1.15.74-2,1.16-.84c.1.42,1-1.06,1.26-1.79,0,0,.1-1.89,1-1.68-.53.21-.53.94-.53.94s-.31.63,0,.84a1.3,1.3,0,0,0,0,1.37s-1.15,1.26-1.15,2c0,.31.52-.32.31.21s.32.21,0,1c-.1.31.63-.53.32.42s.31.1.21,1.26a1.09,1.09,0,0,0,.21,1s.52-1.69.63-1.27.31-1.05.42-.21.31-1.15.31-1.15.21-.53.32.1.31-1.26.42-.84.63-.74.63-1.16a1.43,1.43,0,0,0,.42-.31,1.91,1.91,0,0,0,.73-.21,10.54,10.54,0,0,0-.63,2.21c0,.31.21.1,0,1,0,.31.32-.32.32.52s.31,1,.31,1l.21-.42s.21-1,.32-.63.52-1,.52-1l.21.42c.1.21-.31.31.11,1,.1.31-.42.21-.11,1.15.11.32-.42.32.11,1.58.21.42-.74-.21.1,1.47.11.21-.63,0,.11,1.48.1.31-.63.42-.21,1.26.1.21.21.31,0,.52s-.32.53,0,1.16c.21.42-.42.11,0,1.26.21.53-.32.53,0,1.16s-.11.84,0,1.47-.42.42.21,1.69c.21.52-.53-.11-.11,1.15,0,.21-.52.21-.1,1.26.1.21-.21.32,0,1,.1.32-.21.53,0,1.16.1.42-.21.52-.11,1.15a6,6,0,0,1,.11.84s-.32.11-.11.74-.21.32,0,1c0,.32-.21.11-.21.74-.1.21-.52.1,0,1a8.62,8.62,0,0,0,3.68-.11c.21-.53,0-.63-.11-.53s-.1-1,0-1.26-.42.11-.1-1.26c.1-.42-.32-.42-.11-1s-.31-1-.1-1.89c.31-1.06-.42-.11-.21-.74s-.11-1,0-1.16-.11-.42.1-.94-.42-.64-.1-1.37-.32-.95-.11-1.47c.42-1-.21-.42.11-1s-.11-1,0-1.27a1.16,1.16,0,0,0,.1-.84c.21-.52-.31-.42-.1-1s-.42-.63-.11-1.16.11-.63.11-.84-.32.11,0-.73-.11-.32,0-1a6,6,0,0,0,.1-1s-.31-.1-.1-.52-.53-.21-.21-.84.21-.53.21-.74-.21-.32,0-.84-.42,0-.21-.74.1-.52.1-.52-.31,0-.1-.63.1-.53.1-.53a.48.48,0,0,1-.32-.6v-.35s.31,0,.31.43a.62.62,0,0,0,.42.63,1.92,1.92,0,0,1,.42.94c.11.32.32-.63.63.21s.22-.73.22-.73a.87.87,0,0,0,0-1c-.32-.53.41.1.1-.74l-.32-.84a.46.46,0,0,0,.32-.1,1,1,0,0,0,.94-.32c.11,0,.22-.1.32-.1-.1.63.1.52.21.63a4.25,4.25,0,0,1,.32.42s.1,1.58.2,1,.43.63.43.63a3.87,3.87,0,0,1,.21-1.26c.21-.53.31,2.52.31,1.79s.11-.74.21-.32.32.84.42.63.32.21.32.21a4.05,4.05,0,0,0-.11-1.47c-.21-.84.32-.11.32-.42s.21-.11.21-.21a6,6,0,0,0-.42-1.16c-.11-.1-.11-.31-.21-1.15v-.64c.52,0,.1.53.31,1.27s.42.42.42.42,0,1.47.42.84.11,1.16.42,1,.32.63.42.32.42.1.42.1.21-.63.32.11a4.16,4.16,0,0,0,.73,1.78,2.45,2.45,0,0,0,0-1.26c-.1-.63.32-.21.21-.73s.42,0,.21-1,.74.52.32-.63.42,0,.21-.42a12.74,12.74,0,0,0-.53-1.58c-.42-.84.53,0,.53,0a11,11,0,0,0-.53-1.37,11.07,11.07,0,0,1-.52-1.26,2.49,2.49,0,0,0-.84-1.37,1.13,1.13,0,0,1,.73.32c.32.32,1.26,1.58,1,1a1.15,1.15,0,0,1,.21-1s1.26,1.79,1.26,1.37.42,0,.42,0-.1-.84.11-.74.63.53.73.21.74,1.05.74.74,1,.73,1,.21,1.26,1.15,1.26.52,1.26,1.16,1.16.53c-.53-1.37,0-1.37-.43-1.79-.94-1,0-.52-.2-1a4.88,4.88,0,0,0-2-1.68,24.43,24.43,0,0,0-5.15-2.73,13.91,13.91,0,0,1,3.36,1.15c.63.43,1.26.85,1.16.21s.73.64.63.11,1.15.63,1.05,0,2,1,1.78.53C719.08,530.7,721.28,532.07,720.23,531.12Z"/><path class="cls-1" d="M661,575.15c-5.36-5.25-11-4.52-11-4.52a3.07,3.07,0,0,1,1.47-.21c1,.11,0-.52.84-.31s1.15.1.94-.11,1.37.53,1.06,0,1.68,1,1.15.32.11-.74.11-.74.94.74.84.32.52-.43.73-.32,1,.21,1.26.32.32-.11.53-.32,2.1,1.16,1.57.63c-.94-1.16.32-.63.32-.63s.31-.11-.32-.53.11-.63-1.47-1.15-.1-.42-1.36-.53-.63-.31-1.58-.42c-2.31,0-.84-.42-1.57-.42s-1.58.32-2.42.32a31.23,31.23,0,0,0-3.47.52,6.83,6.83,0,0,1,2.52-.84c1.79-.31-.21-.42,1.16-.53s.84-.31,1.89-.52-.42-.74.32-.84,2,.42,1.89,0,1.68-.11,2.2-.21-.31-.53-.1-.74.63-.1.42-.52,1.57-.21,1.57-.21-.21-.53-2.31-.53-.52-.32-1.47-.21-2.41.52-2.94.52a9.61,9.61,0,0,0-2.73.74c-1,.42-.95,0-.95,0,.21-.31.21-.42.21-.52a2.93,2.93,0,0,1,1.26-.74c.63-.21-1.36-.11.63-.74s0-.52,1.27-.94.63-.84.63-.84a13.5,13.5,0,0,0,2.31-.74c.52-.32-1-.21-.74-.53s1.68-.52,1.37-.63-1.26.11-2.73,0-1.79.53-2.52.42-1.27.84-1.69.84-.73,0-2.2,1.16-1,0-1,0a27.77,27.77,0,0,1-2.42,2.31c-.73.43.63-1.68,0-1a18.9,18.9,0,0,0-1.78,2.74l.52-1.26s.63-1.48.84-1.79-.73-.32-.21-1-.1-1.06,0-1.58-.42-.32-.21-.95.53-1.15-.21-.63-.1-.84.11-2-.32-.63.1-1.57a5.2,5.2,0,0,0,.32-1.79c.1-.32-.63-.53-.53-.84s.32-1.48,0-1a4,4,0,0,1-1.15.84c-.32.1-.84,1.36-1,1.57s-.63.85-.84,1.06-.53,1.15-.95,1.78c-.42.42-.42,1.9-.42,2.63s-.42.74-.63,1.58a16.84,16.84,0,0,0,.31,3.68c-.94-2.52-2.2-4.1-2.31-3.47s-.73-.32-1.47-1-.94,0-2.2-1-1,.11-2.31-.73-.63.1-2.42-.74-.63.53-1.78.21-3.47-.21-2.31,0c2.52.74.73,1,1.68,1.26a11.11,11.11,0,0,1,1.78,1c.32.1.32.42.74.52a11.59,11.59,0,0,1,1.78.85c.84.42-.63,1,1.47,1.89s1.26,1.15,3.36,2.31a5.54,5.54,0,0,1,2.53,2.21c-.85-.63-1.69-1-2.32-1.47-1.15-.84-1.68-.63-3.67-1.58s-1.79-.1-3.15-.42-.84.42-1.26.42-2,.63-2.84.74-3,.84-2.73.94.31.21.1.74.32.42.32.42l1.16-.31c1.15-.32.2.41,1.36.1s.21.42,1,.31c1.37-.21-.52.74,0,.53,2.21-.63,2.31-.31,2.63-.21a7.28,7.28,0,0,1,.94.32c.21.11,1.26.52,1.26.52-1.15-.1-2-.21-2.31-.21a10.31,10.31,0,0,0-1.89.42c-.63,0-1.89,1-3.15,1.37s-1,.84-1.37,1c-1.26.74-3.67,2.63-2.52,2.21s.53.73,1,.53c1.78-1.16,1.89-.32,1.89-.32a4.06,4.06,0,0,0,1.57-.63c1.16-.63.74.21,1,.21s.53-.42,1.48-1,.73.1,1,0a11.13,11.13,0,0,1,2,0,24.88,24.88,0,0,0-7,3.47c-.84.73-2.94,3.15-2.1,2.84s.95-1,1.47-1.27,1,0,1.58-.42.42.11.74,0,.42.11,1-.42.73.21,1.15,0c1.26-.84,1.47-.31,2.1-.84s.84.53,1,.21a1.77,1.77,0,0,1,1-.31c.42,0,.84-.42,1.26-.63a2,2,0,0,1,1.16,0,16.61,16.61,0,0,0-6.93,6.41c-.84,1.79-1.79,4-1.16,3.68s1-1.79,1.79-2.31.94.52,2-1.68,1.37-.74,2.31-1.9,1-.73,1.68-1.26a3.17,3.17,0,0,1,1.47-.63c-.21.1-.31.31-.52.42l-.42.74-1,.84-.42.73a6.8,6.8,0,0,0-1.89,2c-.21.42.1.32-.42,1.37a3.09,3.09,0,0,1-.74,1.68c-.21.32-1,2.21-.73,3,0,.84-.11,2-.11,2.52s.74-1.16,1.16-1.47.63,0,1-1,.73-.32,1.26-1.27,1.05-.52,1.47-1.15.73-2,1.15-.84c.11.42,1.05-1.06,1.26-1.79,0,0,.11-1.89,1.05-1.68-.52.21-.52.94-.52.94s-.32.63,0,.84a1.26,1.26,0,0,0,0,1.37s-1.16,1.26-1.16,2c0,.31.53-.32.32.21s.31.21,0,.94c-.11.32.63-.52.31.43s.32.1.21,1.26a1.09,1.09,0,0,0,.21.94s.53-1.68.63-1.26.32-1,.42-.21.32-1.16.32-1.16.21-.52.31.11.32-1.26.43-.84.63-.74.63-1.16A1.53,1.53,0,0,0,638,584a1.91,1.91,0,0,0,.74-.21,10.54,10.54,0,0,0-.63,2.21c0,.31.21.1,0,1,0,.31.31-.32.31.52s.32,1,.32,1l.21-.42s.21-1,.32-.63.52-1,.52-1l.21.42c.1.21-.31.31.11,1,.1.31-.42.21-.11,1.16.11.31-.42.31.11,1.57.21.42-.74-.21.1,1.47.11.22-.63,0,.11,1.48.1.31-.63.42-.21,1.26.1.21.21.31,0,.52s-.32.53,0,1.16c.21.42-.42.11,0,1.26.21.53-.32.53,0,1.16s-.11.84,0,1.47-.42.42.21,1.68c.21.53-.53-.1-.11,1.16,0,.21-.52.21-.1,1.26.1.21-.21.32,0,1,.1.31-.21.52,0,1.16.1.42-.21.52-.11,1.15a6,6,0,0,1,.11.84s-.32.11-.11.74-.21.32,0,1c0,.32-.21.11-.21.74-.1.21-.52.1,0,.94a8.62,8.62,0,0,0,3.68-.1c.21-.53,0-.63-.11-.53a2.68,2.68,0,0,1,0-1.26c.11-.21-.42.11-.1-1.26.1-.42-.32-.42-.11-1s-.31-1-.1-1.9-.42-.1-.21-.73-.11-1,0-1.16-.11-.42.1-.94-.42-.64-.1-1.37-.32-1-.11-1.47c.42-1-.21-.42.11-1s-.11-1,0-1.27a1.18,1.18,0,0,0,.1-.84c.21-.52-.31-.42-.1-1s-.42-.63-.11-1.16.11-.63.11-.84-.32.11,0-.73-.11-.32,0-.95a6.64,6.64,0,0,0,.1-1s-.31-.1-.1-.52-.53-.21-.21-.84.21-.53.21-.74-.21-.31,0-.84-.42,0-.21-.74.1-.52.1-.52-.31,0-.1-.63.1-.53.1-.53a.48.48,0,0,1-.32-.6v-.35s.31,0,.31.42a.6.6,0,0,0,.42.63,2,2,0,0,1,.42,1c.11.32.32-.63.63.21s.21-.73.21-.73a.86.86,0,0,0,0-1c-.31-.53.42.1.11-.74l-.32-.84a.51.51,0,0,0,.32-.1,1,1,0,0,0,.94-.32c.11,0,.21-.1.32-.1-.11.63.1.52.21.63a3.73,3.73,0,0,1,.31.42s.11,1.57.21,1,.42.63.42.63a3.87,3.87,0,0,1,.21-1.26c.21-.53.32,2.52.32,1.79s.1-.74.21-.32.31.84.42.63.31.21.31.21a3.84,3.84,0,0,0-.1-1.47c-.21-.84.31-.11.31-.42s.21-.11.21-.21a3.67,3.67,0,0,0-.42-1.16c-.1-.1-.1-.31-.21-1.16v-.63c.53,0,.11.53.32,1.27s.42.42.42.42,0,1.47.42.84.1,1.16.42,1,.31.63.42.31.42.11.42.11.21-.63.31.11a4.3,4.3,0,0,0,.74,1.78,2.45,2.45,0,0,0,0-1.26c-.11-.63.32-.21.21-.74s.42,0,.21-.94.73.52.32-.63.41,0,.2-.42a10.82,10.82,0,0,0-.52-1.58c-.42-.84.52,0,.52,0a13.3,13.3,0,0,0-.52-1.37c-.21-.42-.53-1.26-.53-1.26a2.38,2.38,0,0,0-.84-1.37,1.14,1.14,0,0,1,.74.32c.32.31,1.26,1.58,1,1a1.15,1.15,0,0,1,.21-1s1.26,1.79,1.26,1.37.42,0,.42,0-.1-.85.11-.74.63.53.73.21.74,1,.74.74,1,.73,1,.21,1.26,1.15,1.26.52,1.26,1.16,1.15.53c-.52-1.37,0-1.37-.42-1.79-.94-.94,0-.53-.21-.94a4.83,4.83,0,0,0-2-1.69,24.9,24.9,0,0,0-5.15-2.73,13.64,13.64,0,0,1,3.36,1.16c.63.41,1.26.84,1.16.2s.73.64.63.11,1.15.63,1.05,0,2,1,1.78.53C659.84,574.63,662.05,576.1,661,575.15Z"/></svg>