<svg id="Layer_1" data-name="Layer 1" xmlns="http://www.w3.org/2000/svg" viewBox="0 0 864 864"><defs><style>.cls-1{fill:#f2d0ac;}</style></defs><path class="cls-1" d="M168.94-467.81v-14.46L165.28-484l-3.65,1.76L158-484l-3.66,1.76L150.66-484,147-482.27v14.46l3.66,1.76v14.46L147-449.84v14.46l3.66,1.76v14.46L147-417.27v14.33l3.66,1.89v14.33L147-384.83v14.32l3.66,1.9v14.32L147-352.4v14.33l3.66,1.89v14.33L147-320v14.32l3.66,1.89v14.33L147-287.53v14.33l3.66,1.89V-257L147-255.09v14.32l3.66,1.89v14.33L147-222.66v14.46l3.66,1.76V-192L147-190.22v14.46l3.66,1.75v14.46L147-157.79v14.46l3.66,1.76v14.46L147-125.35v14.46l3.66,1.75v14.47L147-92.92v14.46l3.66,1.89v14.33L147-60.35V-46l3.66,1.89V-29.8L147-27.91v14.32l3.66,1.89V2.63L147,4.52V18.85l3.66,1.89V35.07L147,37V51.28l3.66,1.89V67.5L147,69.39V83.72l3.66,1.89V99.93l-3.66,1.9v14.32l3.66,1.89v14.33L147,134.26v14.46l3.66,1.76v14.46L147,166.7v14.46l3.66,1.75v14.46L147,199.13v14.46l3.66,1.76v14.46L147,231.57V246l3.66,1.89v14.32l-3.66,1.9v14.32l3.66,1.89v14.33L147,296.57V310.9l3.66,1.89v14.32L147,329v14.32l3.66,1.89v14.33l-3.66,1.9v14.33l3.66,1.89V392L147,393.9v14.3l3.66,1.89v14.33L147,426.31v14.33l3.66,1.89v14.32l-3.66,1.9v14.32l3.66,1.89v14.33L147,491.18v14.46l3.66,1.76v14.46L147,523.62v14.46l3.66,1.75v14.46L147,556.05v14.46l3.66,1.76v14.46L147,588.49V603l3.66,1.89v14.32l-3.66,1.9v14.32l3.66,1.89V651.6L147,653.49v14.33l3.66,1.89V684L147,685.9v14.32l3.66,1.89v14.33L147,718.36v14.33l3.66,1.89V748.9L147,750.8v14.32l3.66,1.89v14.33L147,783.23v14.33l3.66,1.89v14.32l-3.66,1.9v14.46l3.66,1.75v14.46L147,848.1v14.46l3.66,1.76v14.46L147,880.54V895l3.66,1.75v14.46L147,913v14.46l3.66,1.76v14.46L147,945.54v14.33l3.66,1.89v14.32L147,978v14.3l3.66,1.89v14.33l-3.66,1.89v14.33l3.66,1.89V1041l-3.66,1.9v14.32l3.66,1.89v14.33l-3.66,1.89v14.33l3.66,1.89v14.32l-3.66,1.9V1122l3.66,1.89v14.33l-3.66,1.89v14.33l3.66,1.89v14.46l-3.66,1.76V1187l3.66,1.75v14.46L147,1205v14.46l3.66,1.76v14.46l-3.66,1.76v14.46l3.66,1.75v14.46l-3.66,1.76v14.46l3.66,1.76v14.46l-3.66,1.89v14.33l3.66,1.89V1333l-3.66,1.9v14.32l3.66,1.89v14.33l-3.66,1.89v14.33l3.66,1.89v14.32l-3.66,1.9v14.32l3.66,1.89v14.33L147,1432.2v14.33l3.66,1.89v14.32l-3.66,1.9V1479l3.66,1.89v14.33l-3.66,1.89v14.33l3.66,1.89v14.46l-3.66,1.76V1544l3.66,1.75v14.46L147,1562v14.46l3.66,1.76v14.46l-3.66,1.76v14.46l3.66,1.75v14.46L147,1627v14.32l3.66,1.89v14.33l-3.66,1.89v14.33l3.66,1.89V1690l-3.66,1.9v14.32l3.66,1.89v14.33L147,1724.3v14.33l3.66,1.89v14.32l-3.66,1.9V1771l3.66,1.89v14.33l-3.66,1.89v14.33l3.66,1.89v14.32l-3.66,1.89v14.33l3.66,1.89v14.33L147,1854v14.33l3.66,1.89v14.46l-3.66,1.75v14.47l3.66,1.75v14.46l-3.66,1.76v14.46l3.66,1.76v14.46L147,1951.3v14.47l3.66,1.75,3.65-1.75,3.66,1.75,3.66-1.75,3.65,1.75,3.66-1.75V1951.3l-3.66-1.75v-14.46l3.66-1.76v-14.46l-3.66-1.76v-14.46l3.66-1.75v-14.47l-3.66-1.75v-14.46l3.66-1.89V1854l-3.66-1.89v-14.33l3.66-1.89v-14.33l-3.66-1.89v-14.32l3.66-1.89v-14.33l-3.66-1.89V1772.9l3.66-1.89v-14.32l-3.66-1.9v-14.32l3.66-1.89v-14.33l-3.66-1.89V1708l3.66-1.89v-14.32l-3.66-1.9V1675.6l3.66-1.89v-14.33l-3.66-1.89v-14.33l3.66-1.89V1627l-3.66-1.9v-14.46l3.66-1.75v-14.46l-3.66-1.76v-14.46l3.66-1.76V1562l-3.66-1.76v-14.46l3.66-1.75v-14.46l-3.66-1.76v-14.46l3.66-1.89v-14.33l-3.66-1.89V1480.9l3.66-1.89v-14.32l-3.66-1.9v-14.32l3.66-1.89V1432.2l-3.66-1.89V1416l3.66-1.89v-14.32l-3.66-1.9v-14.32l3.66-1.89v-14.33l-3.66-1.89v-14.33l3.66-1.89V1334.9l-3.66-1.9v-14.32l3.66-1.89v-14.33l-3.66-1.89v-14.46l3.66-1.76v-14.46l-3.66-1.76v-14.46l3.66-1.75v-14.46l-3.66-1.76v-14.46l3.66-1.76V1205l-3.66-1.76V1188.8l3.66-1.75v-14.46l-3.66-1.76v-14.46l3.66-1.89v-14.33l-3.66-1.89v-14.33l3.66-1.89v-14.32l-3.66-1.9V1091.5l3.66-1.89v-14.33l-3.66-1.89v-14.33l3.66-1.89v-14.32l-3.66-1.9v-14.32l3.66-1.89v-14.33l-3.66-1.89V994.19l3.66-1.89V978l-3.66-1.9V961.76l3.66-1.89V945.54l-3.66-1.89V929.19l3.66-1.76V913l-3.66-1.76V896.75l3.66-1.75V880.54l-3.66-1.76V864.32l3.66-1.76V848.1l-3.66-1.76V831.88l3.66-1.89V815.67l-3.66-1.9V799.45l3.66-1.89V783.23l-3.66-1.89V767l3.66-1.89V750.8l-3.66-1.9V734.58l3.66-1.89V718.36l-3.66-1.89V702.14l3.66-1.89V685.93l-3.66-1.9V669.71l3.66-1.89V653.49l-3.66-1.89V637.27l3.66-1.89V621.06l-3.66-1.9V604.84l3.66-1.89V588.49l-3.66-1.76V572.27l3.66-1.76V556.05l-3.66-1.76V539.83l3.66-1.75V523.62l-3.66-1.76V507.4l3.66-1.76V491.18l-3.66-1.89V475l3.66-1.89V458.75l-3.66-1.9V442.53l3.66-1.89V426.31l-3.66-1.89V410.09l3.66-1.89V393.88l-3.66-1.9V377.66l3.66-1.89V361.44l-3.66-1.89V345.22l3.66-1.89V329l-3.66-1.9V312.79l3.66-1.89V296.57l-3.66-1.89V280.35l3.66-1.89V264.14l-3.66-1.9V247.92l3.66-1.89V231.57l-3.66-1.76V215.35l3.66-1.76V199.13l-3.66-1.76V182.91l3.66-1.75V166.7l-3.66-1.76V150.48l3.66-1.76V134.26l-3.66-1.89V118l3.66-1.89V101.83l-3.66-1.9V85.61l3.66-1.89V69.39l-3.66-1.89V53.17l3.66-1.89V37l-3.66-1.89V20.74l3.66-1.89V4.52l-3.66-1.89V-11.7l3.66-1.89V-27.91l-3.66-1.89V-44.13L168.94-46V-60.35l-3.66-1.89V-76.57l3.66-1.89V-92.92l-3.66-1.75v-14.47l3.66-1.75v-14.46l-3.66-1.76v-14.46l3.66-1.76v-14.46l-3.66-1.76V-174l3.66-1.75v-14.46L165.28-192v-14.46l3.66-1.76v-14.46l-3.66-1.89V-238.9l3.66-1.89v-14.32L165.28-257v-14.33l3.66-1.89v-14.33l-3.66-1.89v-14.33l3.66-1.89V-320l-3.66-1.89v-14.33l3.66-1.89V-352.4l-3.66-1.89v-14.32l3.66-1.9v-14.32l-3.66-1.89V-401l3.66-1.89v-14.33l-3.66-1.89v-14.46l3.66-1.76v-14.46l-3.66-1.75V-466Z"/><path class="cls-1" d="M387-467.81v-14.46L383.34-484l-3.52,1.76L376.17-484l-3.66,1.76L368.85-484l-3.66,1.76v14.46l3.66,1.76v14.46l-3.66,1.75v14.46l3.66,1.76v14.46l-3.66,1.89v14.33l3.66,1.89v14.33l-3.66,1.89v14.32l3.66,1.9v14.32l-3.66,1.89V-338l3.66,1.89v14.33L365.19-320v14.32l3.66,1.89v14.33l-3.66,1.89v14.33l3.66,1.89V-257l-3.66,1.89v14.32l3.66,1.89v14.33l-3.66,1.89v14.46l3.66,1.76V-192l-3.66,1.76v14.46l3.66,1.75v14.46l-3.66,1.76v14.46l3.66,1.76v14.46l-3.66,1.76v14.46l3.66,1.75v14.47l-3.66,1.75v14.46l3.66,1.89v14.33l-3.66,1.89V-46l3.66,1.89V-29.8l-3.66,1.89v14.32l3.66,1.89V2.63l-3.66,1.89V18.85l3.66,1.89V35.07L365.19,37V51.28l3.66,1.89V67.5l-3.66,1.89V83.72l3.66,1.89V99.93l-3.66,1.9v14.32l3.66,1.89v14.33l-3.66,1.89v14.46l3.66,1.76v14.46l-3.66,1.76v14.46l3.66,1.75v14.46l-3.66,1.76v14.46l3.66,1.76v14.46l-3.66,1.76V246l3.66,1.89v14.32l-3.66,1.9v14.32l3.66,1.89v14.33l-3.66,1.89V310.9l3.66,1.89v14.32l-3.66,1.9v14.32l3.66,1.89v14.33l-3.66,1.89v14.33l3.66,1.89V392l-3.66,1.9v14.3l3.66,1.89v14.33l-3.66,1.89v14.33l3.66,1.89v14.32l-3.66,1.9v14.32l3.66,1.89v14.33l-3.66,1.89v14.46l3.66,1.76v14.46l-3.66,1.76v14.46l3.66,1.75v14.46l-3.66,1.76v14.46l3.66,1.76v14.46l-3.66,1.76V603l3.66,1.89v14.32l-3.66,1.9v14.32l3.66,1.89V651.6l-3.66,1.89v14.33l3.66,1.89V684l-3.66,1.9v14.32l3.66,1.89v14.33l-3.66,1.89v14.33l3.66,1.89V748.9l-3.66,1.9v14.32l3.66,1.89v14.33l-3.66,1.89v14.33l3.66,1.89v14.32l-3.66,1.9V830l3.66,1.89v14.46l-3.66,1.76v14.46l3.66,1.76v14.46l-3.66,1.76V895l3.66,1.75v14.46L365.19,913v14.46l3.66,1.76v14.46l-3.66,1.89V959.9l3.66,1.89v14.32l-3.66,1.9V992.3l3.66,1.89v14.33l-3.66,1.89v14.33l3.66,1.89V1041l-3.66,1.9v14.32l3.66,1.89v14.33l-3.66,1.89v14.33l3.66,1.89v14.32l-3.66,1.9V1122l3.66,1.89v14.33l-3.66,1.89v14.33l3.66,1.89v14.46l-3.66,1.76V1187l3.66,1.75v14.46l-3.66,1.76v14.46l3.66,1.76v14.46l-3.66,1.76v14.46l3.66,1.75v14.46l-3.66,1.76v14.46l3.66,1.76v14.46l-3.66,1.89v14.33l3.66,1.89V1333l-3.66,1.9v14.32l3.66,1.89v14.33l-3.66,1.89v14.33l3.66,1.89v14.32l-3.66,1.9v14.32l3.66,1.89v14.33l-3.66,1.89v14.33l3.66,1.89v14.32l-3.66,1.9V1479l3.66,1.89v14.33l-3.66,1.89v14.33l3.66,1.89v14.46l-3.66,1.76V1544l3.66,1.75v14.46l-3.66,1.76v14.46l3.66,1.76v14.46l-3.66,1.76v14.46l3.66,1.75v14.46l-3.66,1.9v14.32l3.66,1.89v14.33l-3.66,1.89v14.33l3.66,1.89V1690l-3.66,1.9v14.32l3.66,1.89v14.33l-3.66,1.89v14.33l3.66,1.89v14.32l-3.66,1.9V1771l3.66,1.89v14.33l-3.66,1.89v14.33l3.66,1.89v14.32l-3.66,1.89v14.33l3.66,1.89v14.33l-3.66,1.89v14.33l3.66,1.89v14.46l-3.66,1.75v14.47l3.66,1.75v14.46l-3.66,1.76v14.46l3.66,1.76v14.46l-3.66,1.75v14.47l3.66,1.75,3.66-1.75,3.66,1.75,3.65-1.75,3.52,1.75,3.66-1.75v-14.47l-3.66-1.75v-14.46l3.66-1.76v-14.46l-3.66-1.76v-14.46l3.66-1.75v-14.47l-3.66-1.75V1870.2l3.66-1.89V1854l-3.66-1.89v-14.33l3.66-1.89v-14.33l-3.66-1.89v-14.32l3.66-1.89v-14.33l-3.66-1.89V1772.9L387,1771v-14.32l-3.66-1.9v-14.32l3.66-1.89v-14.33l-3.66-1.89V1708l3.66-1.89v-14.32l-3.66-1.9V1675.6l3.66-1.89v-14.33l-3.66-1.89v-14.33l3.66-1.89V1627l-3.66-1.9v-14.46l3.66-1.75v-14.46l-3.66-1.76v-14.46l3.66-1.76V1562l-3.66-1.76v-14.46L387,1544v-14.46l-3.66-1.76v-14.46l3.66-1.89V1497.1l-3.66-1.89v-14.33L387,1479v-14.32l-3.66-1.9v-14.32l3.66-1.89V1432.2l-3.66-1.89V1416l3.66-1.89v-14.32l-3.66-1.9v-14.32l3.66-1.89v-14.33l-3.66-1.89v-14.33l3.66-1.89V1334.9l-3.66-1.9v-14.32l3.66-1.89v-14.33l-3.66-1.89v-14.46l3.66-1.76v-14.46l-3.66-1.76v-14.46l3.66-1.75v-14.46l-3.66-1.76v-14.46l3.66-1.76V1205l-3.66-1.76V1188.8l3.66-1.75v-14.46l-3.66-1.76v-14.46l3.66-1.89v-14.33l-3.66-1.89v-14.33L387,1122v-14.32l-3.66-1.9V1091.5l3.66-1.89v-14.33l-3.66-1.89v-14.33l3.66-1.89v-14.32l-3.66-1.9v-14.32l3.66-1.89v-14.33l-3.66-1.89V994.19L387,992.3V978l-3.66-1.9V961.76l3.66-1.89V945.54l-3.66-1.89V929.19l3.66-1.76V913l-3.66-1.76V896.75L387,895V880.54l-3.66-1.76V864.32l3.66-1.76V848.1l-3.66-1.76V831.88l3.66-1.75V815.67l-3.66-1.9V799.45l3.66-1.89V783.23l-3.66-1.89V767l3.66-1.89V750.8l-3.66-1.9V734.58l3.66-1.89V718.36l-3.66-1.89V702.14l3.66-1.89V685.93l-3.66-1.9V669.71l3.66-1.89V653.49l-3.66-1.89V637.27l3.66-1.89V621.06l-3.66-1.9V604.84L387,603V588.49l-3.66-1.76V572.27l3.66-1.76V556.05l-3.66-1.76V539.83l3.66-1.75V523.62l-3.66-1.76V507.4l3.66-1.76V491.18l-3.66-1.89V475l3.66-1.89V458.75l-3.66-1.9V442.53l3.66-1.89V426.31l-3.66-1.89V410.09L387,408.2V393.88l-3.66-1.9V377.66l3.66-1.89V361.44l-3.66-1.89V345.22l3.66-1.89V329l-3.66-1.9V312.79L387,310.9V296.57l-3.66-1.89V280.35l3.66-1.89V264.14l-3.66-1.9V247.92L387,246V231.57l-3.66-1.76V215.35l3.66-1.76V199.13l-3.66-1.76V182.91l3.66-1.75V166.7l-3.66-1.76V150.48l3.66-1.76V134.26l-3.66-1.89V118l3.66-1.89V101.83l-3.66-1.9V85.61L387,83.72V69.39l-3.66-1.89V53.17L387,51.28V37l-3.66-1.89V20.74L387,18.85V4.52l-3.66-1.89V-11.7L387-13.59V-27.91l-3.66-1.89V-44.13L387-46V-60.35l-3.66-1.89V-76.57L387-78.46V-92.92l-3.66-1.75v-14.47l3.66-1.75v-14.46l-3.66-1.76v-14.46l3.66-1.76v-14.46l-3.66-1.76V-174l3.66-1.75v-14.46L383.34-192v-14.46L387-208.2v-14.46l-3.66-1.89v-14.33l3.66-1.89v-14.32L383.34-257v-14.33L387-273.2v-14.33l-3.66-1.89v-14.33l3.66-1.89V-320l-3.66-1.89v-14.33l3.66-1.89V-352.4l-3.66-1.89v-14.32l3.66-1.9v-14.32l-3.66-1.89V-401l3.66-1.89v-14.33l-3.66-1.89v-14.46l3.66-1.76v-14.46l-3.66-1.75V-466Z"/><path class="cls-1" d="M190.75,69.39V83.72l-3.66,1.89-3.66-1.89V69.39l-3.65-1.89-3.66,1.89V83.72l3.66,1.89V99.94l3.65,1.89v14.32l3.66,1.9,3.66-1.9V101.83l3.52-1.89V85.61l3.65-1.89V69.39l-3.65-1.89Z"/><path class="cls-1" d="M194.27,20.74l-3.52-1.89V4.52l-3.66-1.89-3.66,1.89V18.85l-3.65,1.89V35.07L176.12,37V51.28l3.66,1.9,3.65-1.9V37l3.66-1.89L190.75,37V51.28l3.52,1.9,3.65-1.9V37l-3.65-1.89Z"/><path class="cls-1" d="M190.74,685.93v14.32l-3.65,1.9-3.66-1.9V685.93L179.77,684l-3.65,1.89v14.32l3.65,1.9v14.32l3.66,1.89v14.33l3.66,1.89,3.65-1.89V718.36l3.53-1.89V702.15l3.65-1.9V685.93L194.27,684Z"/><path class="cls-1" d="M190.74,556.05v14.46l-3.65,1.76-3.66-1.76V556.05l-3.66-1.75-3.65,1.75v14.46l3.65,1.76v14.46l3.66,1.76V603l3.66,1.89,3.65-1.89V588.49l3.53-1.76V572.27l3.65-1.76V556.05l-3.65-1.75Z"/><path class="cls-1" d="M190.74,329v14.32l-3.65,1.9-3.66-1.9V329l-3.66-1.89L176.12,329v14.32l3.65,1.9v14.32l3.66,1.89v14.33l3.66,1.89,3.65-1.89V361.44l3.53-1.89V345.23l3.65-1.9V329l-3.65-1.89Z"/><path class="cls-1" d="M194.27,637.28l-3.53-1.9V621.06l-3.65-1.89-3.66,1.89v14.32l-3.66,1.9V651.6l-3.65,1.89v14.33l3.65,1.89,3.66-1.89V653.49l3.66-1.89,3.65,1.89v14.33l3.53,1.89,3.65-1.89V653.49l-3.65-1.89Z"/><path class="cls-1" d="M194.27,507.4l-3.53-1.76V491.18l-3.65-1.89-3.66,1.89v14.46l-3.66,1.76v14.46l-3.65,1.76v14.46l3.65,1.76,3.66-1.76V523.62l3.66-1.76,3.65,1.76v14.46l3.53,1.76,3.65-1.76V523.62l-3.65-1.76Z"/><path class="cls-1" d="M194.27,410.1l-3.66-1.9V393.88L187,392l-3.65,1.89V408.2l-3.66,1.9v14.32L176,426.31v14.33l3.66,1.89v14.33l3.66,1.89v14.32L187,475l3.66-1.9V458.75l3.66-1.89V442.53l3.65-1.89V426.31l-3.65-1.89Zm-3.52,30.54-3.66,1.89-3.66-1.89V426.31l3.66-1.89,3.66,1.89Z"/><path class="cls-1" d="M194.27,280.36l-3.53-1.9V264.14l-3.65-1.89-3.66,1.89v14.32l-3.66,1.9v14.32l-3.65,1.89V310.9l3.65,1.89,3.66-1.89V296.57l3.66-1.89,3.65,1.89V310.9l3.53,1.89,3.65-1.89V296.57l-3.65-1.89Z"/><path class="cls-1" d="M179.77,182.92l3.66-1.76V166.7l3.66-1.76,3.65,1.76v14.46l3.53,1.76,3.65-1.76V166.7l-3.65-1.76V150.48l-3.53-1.89V134.26l-3.65-1.89-3.66,1.89v14.33l-3.66,1.89v14.46l-3.65,1.76v14.46Z"/><path class="cls-1" d="M190.74,199.13v14.46l-3.65,1.76-3.66-1.76V199.13l-3.66-1.75-3.65,1.75v14.46l3.65,1.76v14.46l3.66,1.76V246l3.66,1.76,3.65-1.76V231.57l3.66-1.76V215.35l3.52-1.76V199.13l-3.52-1.75Z"/><path class="cls-1" d="M179.78,799.45l3.65-1.89V783.23l3.66-1.89,3.66,1.89v14.33l3.52,1.89,3.65-1.89V783.23l-3.65-1.89V767l-3.52-1.89V750.8l-3.66-1.9-3.66,1.9v14.32L179.78,767v14.33l-3.66,1.89v14.33Z"/><path class="cls-1" d="M190.75,815.67V830l-3.66,1.89L183.43,830V815.67l-3.65-1.89-3.66,1.89V830l3.66,1.89v14.33l3.65,1.89v14.46l3.66,1.76,3.66-1.76V848.1l3.65-1.89V831.88l3.52-1.89V815.67l-3.52-1.89Z"/><path class="cls-1" d="M350.7,69.39V83.72l-3.65,1.89-3.66-1.89V69.39l-3.66-1.89-3.65,1.89V83.72l3.65,1.89V99.94l3.66,1.89v14.32l3.66,1.9,3.65-1.9V101.83l3.66-1.89V85.61l3.52-1.89V69.39l-3.52-1.89Z"/><path class="cls-1" d="M354.36,20.74l-3.66-1.89V4.52l-3.65-1.89-3.66,1.89V18.85l-3.66,1.89V35.07L336.08,37V51.28l3.65,1.9,3.66-1.9V37l3.66-1.89L350.7,37V51.28l3.66,1.9,3.52-1.9V37l-3.52-1.89Z"/><path class="cls-1" d="M350.7,685.93v14.32l-3.65,1.9-3.66-1.9V685.93L339.73,684l-3.65,1.89v14.32l3.65,1.9v14.32l3.66,1.89v14.33l3.66,1.89,3.65-1.89V718.36l3.66-1.89V702.15l3.52-1.9V685.93L354.36,684Z"/><path class="cls-1" d="M350.7,556.05v14.46l-3.65,1.76-3.66-1.76V556.05l-3.66-1.75-3.65,1.75v14.46l3.65,1.76v14.46l3.66,1.76V603l3.66,1.89L350.7,603V588.49l3.66-1.76V572.27l3.52-1.76V556.05l-3.52-1.75Z"/><path class="cls-1" d="M350.7,329v14.32l-3.65,1.9-3.66-1.9V329l-3.66-1.89L336.08,329v14.32l3.65,1.9v14.32l3.66,1.89v14.33l3.66,1.89,3.65-1.89V361.44l3.66-1.89V345.23l3.52-1.9V329l-3.52-1.89Z"/><path class="cls-1" d="M354.36,637.28l-3.66-1.9V621.06l-3.65-1.9-3.66,1.9v14.32l-3.66,1.9V651.6l-3.65,1.89v14.33l3.65,1.89,3.66-1.89V653.49l3.66-1.89,3.65,1.89v14.33l3.66,1.89,3.52-1.89V653.49l-3.52-1.89Z"/><path class="cls-1" d="M354.36,507.4l-3.66-1.76V491.18l-3.65-1.89-3.66,1.89v14.46l-3.66,1.76v14.46l-3.65,1.76v14.46l3.65,1.76,3.66-1.76V523.62l3.66-1.76,3.65,1.76v14.46l3.66,1.76,3.52-1.76V523.62l-3.52-1.76Z"/><path class="cls-1" d="M354.36,410.1l-3.66-1.9V393.88L347.05,392l-3.66,1.89V408.2l-3.66,1.9v14.32l-3.65,1.89v14.33l3.65,1.89v14.33l3.66,1.89v14.32l3.66,1.89,3.65-1.89V458.75l3.66-1.89V442.53l3.66-1.89V426.31l-3.66-1.89Zm-3.66,30.54-3.65,1.89-3.66-1.89V426.31l3.66-1.89,3.65,1.89Z"/><path class="cls-1" d="M354.36,280.36l-3.66-1.9V264.14l-3.65-1.9-3.66,1.9v14.32l-3.66,1.9v14.32l-3.65,1.89V310.9l3.65,1.89,3.66-1.89V296.57l3.66-1.89,3.65,1.89V310.9l3.66,1.89,3.52-1.89V296.57l-3.52-1.89Z"/><path class="cls-1" d="M339.73,182.92l3.66-1.76V166.7l3.66-1.76,3.65,1.76v14.46l3.66,1.76,3.52-1.76V166.7l-3.52-1.76V150.48l-3.66-1.89V134.26l-3.65-1.89-3.66,1.89v14.33l-3.66,1.89v14.46l-3.65,1.76v14.46Z"/><path class="cls-1" d="M350.7,199.13v14.46l-3.65,1.76-3.66-1.76V199.13l-3.66-1.75-3.65,1.75v14.46l3.65,1.76v14.46l3.66,1.76V246l3.66,1.76L350.7,246V231.57l3.66-1.76V215.35l3.52-1.76V199.13l-3.52-1.75Z"/><path class="cls-1" d="M339.73,799.45l3.66-1.89V783.23l3.66-1.89,3.65,1.89v14.33l3.66,1.89,3.52-1.89V783.23l-3.52-1.89V767l-3.66-1.89V750.8l-3.65-1.9-3.66,1.9v14.32L339.73,767v14.33l-3.65,1.89v14.33Z"/><path class="cls-1" d="M350.7,815.67V830l-3.65,1.89L343.39,830V815.67l-3.66-1.89-3.65,1.89V830l3.65,1.89v14.33l3.66,1.89v14.46l3.66,1.76,3.65-1.76V848.1l3.66-1.89V831.88l3.52-1.89V815.67l-3.52-1.89Z"/><path class="cls-1" d="M296.12,556.05l-3.66-1.89V539.83l-3.65-1.89-3.66,1.89-3.66-1.89-3.65,1.89-3.66-1.89-3.66,1.89-3.66-1.89-3.65,1.89-3.66-1.89-3.66,1.89-3.65-1.89-3.66,1.89-3.66-1.89-3.65,1.89v14.33l-3.66,1.89v14.33L234,572.27v14.32l3.66,1.9v14.32L234,604.7V619l3.66,1.89v14.33l3.66,1.89,3.65-1.89,3.66,1.89v14.33l3.66,1.89,3.65-1.89,3.66,1.89,3.66-1.89,3.65,1.89,3.66-1.89,3.66,1.89,3.66-1.89,3.65,1.89,3.66-1.89v-14.3l3.66-1.89,3.65,1.89,3.66-1.89V620.92l3.66-1.89V604.7l-3.66-1.89V588.49l3.66-1.9V572.27l-3.66-1.89Zm-25.46,81L267,635.11,263.34,637l-3.65-1.89V620.79L256,618.9V604.7l-3.66-1.89V588.49l3.66-1.9V572.27l-3.66-1.89V556.05l3.66-1.89,3.66,1.89,3.65-1.89,3.66,1.89,3.66-1.89,3.65,1.89,3.66-1.89,3.66,1.89v14.33l-3.6,1.89v14.32l3.66,1.9v14.32L278,604.7V619l-3.66,1.89v14.33Z"/><path class="cls-1" d="M292.46,702.15l-3.65-1.9-3.66,1.9-3.66-1.9-3.65,1.9v14.32l3.65,1.89v14.33l-3.65,1.89v14.33l3.65,1.89v14.32l-3.65,1.9-3.66-1.9V750.66l-3.66-1.89V734.44l-3.66-1.89V718.23l-3.65-1.89-3.66,1.89-3.66-1.89V702l-3.65-1.89L248.58,702l-3.66-1.89L241.27,702l-3.66-1.89L234,702v14.33l3.66,1.89v14.32l-3.66,1.9v14.33l3.66,1.89V765L234,766.88v14.33l3.66,1.89v14.32L234,799.31v14.33l3.66,1.89,3.66-1.89,3.65,1.89,3.66-1.89,3.66,1.89,3.65-1.89V799.31l-3.65-1.89V783.1l3.65-1.89V766.88l-3.7-1.88V750.66l-3.66-1.89V734.44l3.66-1.89,3.65,1.89v14.33l3.66,1.89V765l3.66,1.89v14.33l3.65,1.89,3.66-1.89,3.66,1.89v14.32l3.66,1.89v14.33l3.65,1.89,3.66-1.89,3.66,1.89,3.65-1.89,3.66,1.89,3.66-1.89V799.31l-3.66-1.89V783.1l3.66-1.89V766.88L296.12,765V750.66l3.66-1.89V734.44l-3.66-1.89V718.23l3.66-1.89V702l-3.66-1.89Z"/><path class="cls-1" d="M270.66,377.66,267,375.9l-3.52,1.76-3.66-1.76-3.66,1.76v14.46l3.66,1.76V408.2l-3.66,1.89v14.33l3.66,1.89v14.33l-3.66,1.75v14.47l3.66,1.75v14.33l-3.66,1.89v14.33l3.66,1.89,3.66-1.89,3.52,1.89,3.66-1.89,3.65,1.89,3.66-1.89V474.83l-3.66-1.89V458.61l3.66-1.75V442.39l-3.66-1.75V426.31l3.66-1.89V410.09l-3.66-1.89V393.88l3.66-1.76V377.66l-3.66-1.76Z"/><path class="cls-1" d="M292.46,215.35l-3.65-1.89-3.66,1.89-3.66-1.89-3.65,1.89v14.32l3.65,1.9v14.32l-3.65,1.89v14.33l3.65,1.89v14.33l-3.65,1.89-3.66-1.89V264l-3.66-1.89V247.78l-3.66-1.89V231.57l-3.65-1.9-3.66,1.9-3.66-1.9V215.35l-3.65-1.89-3.66,1.89-3.66-1.89-3.65,1.89-3.66-1.89L234,215.35v14.32l3.66,1.9v14.32L234,247.78v14.33l3.66,1.89v14.33L234,280.22v14.33l3.66,1.89v14.32L234,312.65V327l3.66,1.89,3.66-1.89,3.65,1.89,3.66-1.89,3.66,1.89,3.65-1.89V312.65l-3.65-1.89V296.44l3.65-1.89V280.22l-3.65-1.89V264l-3.66-1.89V247.78l3.66-1.89,3.65,1.89v14.33L259.6,264v14.33l3.66,1.89v14.33l3.65,1.89,3.66-1.89,3.66,1.89v14.32l3.66,1.89V327l3.65,1.89L285.2,327l3.66,1.89,3.65-1.89,3.66,1.89,3.66-1.89V312.65l-3.66-1.89V296.44l3.66-1.89V280.22l-3.66-1.89V264l3.66-1.89V247.78l-3.66-1.89V231.57l3.66-1.9V215.35l-3.66-1.89Z"/><path class="cls-1" d="M292.46,53.18l-1.22-.55-2.43-1.21-3.66,1.76-3.66-1.76L278,53.18V67.5l3.52,1.89V83.72L278,85.61V99.94l3.52,1.75v14.46L278,117.91v14.33l-3.66,1.89v14.32l-3.65,1.89L267,148.45l-3.52,1.89-3.66-1.89V134.13l-3.65-1.89V117.91l-3.66-1.76V101.69l3.66-1.75V85.61l-3.66-1.89V69.39l3.66-1.89V53.18l-3.66-1.76-3.66,1.76-3.52-1.76-3.66,1.76L238,51.42l-3.66,1.76V67.5L238,69.39V83.72l-3.66,1.89V99.94l3.66,1.75v14.46l3.65,1.76v14.33L238,134.13v14.32l3.65,1.89,3.66-1.89,3.52,1.89v14.33l3.66,1.76,3.66-1.76,3.65,1.76,3.66-1.76,3.52,1.76,3.66-1.76,3.65,1.76,3.66-1.76,3.52,1.76,3.66-1.76V150.34l3.66-1.89,3.65,1.89,3.66-1.89V134.13l-3.66-1.89V117.91l3.66-1.76V101.69l3.52-1.75V85.61l-3.52-1.89V69.39l3.52-1.89V53.18l-3.52-1.76Z"/></svg>