<svg id="Layer_1" data-name="Layer 1" xmlns="http://www.w3.org/2000/svg" viewBox="0 0 864 864"><defs><style>.cls-1{fill:none;}.cls-2{fill:#f2e9e4;}.cls-3{fill:#f2d0ac;}</style></defs><path class="cls-1" d="M752.5,368.65c4.42,3,9.4,18.27,8.85,31.56s-1.66,12.46-2.77,19.93c-.83,7.48,7.47,15.51,7.47,15.51l-8.3,7.19L771,453.09l11.06-4.71-12.72,41.53-44,.83L707.7,596,649.07,763.72,190.3,702.81,10,461.39V440.63c8-1.39,6.08-10,6.08-10-1.38-6.36-2.21-12.46,2.22-13.84,4.14-1.38,7.74,7.2,6.63,10.8s-.83,20.76,4.43,19.93c5.25-1.11,8.57-2.21,8.29-6.64s7.19-9.69,10-5.26,0,20.21,0,20.21,3,32.67,13.55,37.65,16,3.6,16,3.6-1.66-9.41,7.74-3.88c8.3-1.11,18.53,3.88,18.53,3.88s8-1.94,12.17,0,32.63-7.48,32.63-7.48-.28-5.81,13.83-10c9.4-3.6,3-3.05,7.19-7.76s17.14-2.76,18-10c1.11-7.2,5.25-8.31,10-9.42,5-1.1,6.36,11.36,14.94,9.69s12.17,3,12.17,3,11.06-4.43,18,1.11c5.81-4.16,12.44-1.39,12.44-1.39s8.58-7.19,15.77.83c8.57-.83,17.14-2.21,17.14-2.21s-1.1-6.37,5.53-5,8.57,11.08,11.34,12.46,14.66,3.6,20.74-.27A24.29,24.29,0,0,1,343.78,468c4.42,1.38,17.14,8.3,20.46,9.13a46.2,46.2,0,0,1,5.26,7.2s24.61-5.81,29.31-5.81c4.42,0,9.68,1.38,13.55.83,3.87-.83,10,3,22.95-4.43,13-7.75,31-17.72,33.74-17.72s5.25-5.26,2.49-5.81c-2.77-.28-15.21,8-15.21,8s-8.3,8.3-9.68-5.82c6.64-4.15,8.57-8.58,11.89-8s4.15,0,1.66-5.53-.28-6.93,5.81-10.8c6.36-3.88,6.91,2.77,6.91,2.77s10,14.95,18.53,12.18,11.34-4.15,13.83-2.22c8,1.11,13-4.43,16.31-9.69s3.6-9.69,0-9.41-2.21,8-9.12,5.26-2.77-11.07,0-11.35,10.5-1.11,5.8-5c-4.42-3.88-13.55-2.77-17.42-9.42s4.15-8.3,6.92-9.69,5.52-2.49,5.52-2.49l3.6-3.6s-.28-5.53,3-6.92c3.6-1.38,8.3-2.21,10,0s5.81-1.11,9.4-1.38c3.6,0,9.68,1.38,8.3,0s-10-5-12.45-4.71,2.21-7.75,3.6-8,8.57-9.41,12.16-9.41c2.77,4.43,5.26,11.35,7.19,10.8,2.22-.84,6.64-7.76,3.6-9.42s0-12.46-2.77-12.46,9.68-14.39,9.68-14.39,8.57,3,10.51,2.49c1.66-.83,6.64-3.6,3-7.75,4.15-4.43,24.06-18.55,25.17-18.83s9.4-8.3,9.4-8.3h4.42s27.93-21.88,43.7-51.22c8-10.52,35.12-37.66,47.28-63.13,10.51-11.9,11.34-10,11.34-10s-6.91,10.52-4.14,10.79,12.16,2.22,13-5.53c5-9.42,16-13.29,26.55-29.9,13.83-3,17.14-3,21.29-9.69s7.75-6.93,7.75-6.93l14.93-24.64S815,119.75,822.46,127.5c2.77,2.77-2.76,29.07,0,31.84,2.21,2.22,10.79,7.75,12.72,9.69,6.92,6.65,9.13-.83,9.68-.83,1.66.83,8.57,3.6,8.57,3.6L860.9,189v28s3.32,1.38,2.21,7.75c-.83,6.37-4.7,56.48.28,64.79s-22.12,27.4-22.12,27.4S815.55,302.2,818,296.66a50.12,50.12,0,0,0,3.32-9.69s-5.53-14.11-6.64-14.11c-1.38,0-15.49.27-15.49.27l-12.16,19.38-9.13,29.9-10.23,13.84-5,38.21Z"/><path class="cls-2" d="M605.53,285.84c-5.36-5.26-11-4.52-11-4.52a2.81,2.81,0,0,1,1.47-.21c1,.1,0-.53.84-.32s1.16.11,1-.1,1.36.52,1,0,1.68.94,1.15.31.11-.73.11-.73.94.73.84.31.52-.42.73-.31,1,.21,1.26.31.32-.1.53-.31,2.1,1.15,1.57.63c-.94-1.16.32-.63.32-.63s.31-.11-.32-.53.11-.63-1.47-1.16-.1-.42-1.36-.52-.63-.32-1.58-.42c-2.31,0-.84-.42-1.57-.42s-1.58.31-2.42.31a31.12,31.12,0,0,0-3.46.53,6.51,6.51,0,0,1,2.52-.84c1.68-.32-.21-.42,1.15-.53s.84-.31,1.89-.52-.42-.74.32-.84,2,.41,1.89,0,1.68-.11,2.2-.22-.31-.52-.1-.73.63-.11.42-.53,1.57-.21,1.57-.21-.21-.52-2.31-.52-.52-.32-1.47-.21-2.41.52-2.94.52a9.78,9.78,0,0,0-2.73.74c-1,.42-.95,0-.95,0,.22-.32.22-.42.22-.53s.63-.52,1.26-.73-1.37-.11.63-.74,0-.53,1.26-.95.63-.84.63-.84a13.93,13.93,0,0,0,2.31-.73c.52-.32-1-.21-.74-.53s1.68-.53,1.37-.63-1.26.1-2.73,0-1.79.53-2.52.42-1.26.84-1.69.84-.73,0-2.2,1.16-1,0-1,0a26.59,26.59,0,0,1-2.42,2.31c-.73.42.63-1.68,0-1.05a18.54,18.54,0,0,0-1.78,2.73l.52-1.26s.63-1.47.84-1.78-.73-.32-.21-1.06-.1-1.05,0-1.57-.42-.32-.21-1,.53-1.16-.21-.63-.1-.84.11-2-.32-.63.1-1.58a5.24,5.24,0,0,0,.32-1.79c.1-.31-.63-.52-.53-.84s.32-1.47,0-1.05a4,4,0,0,1-1.15.84c-.32.11-.84,1.37-1.05,1.58s-.63.84-.84,1.05-.53,1.16-1,1.79c-.42.42-.42,1.89-.42,2.63s-.42.74-.63,1.58a16.4,16.4,0,0,0,.32,3.68c-.95-2.53-2.21-4.1-2.31-3.47s-.74-.32-1.47-.95-1,0-2.21-1.05-1,.1-2.31-.74-.63.11-2.42-.73-.63.52-1.78.21-3.47-.21-2.31,0c2.52.73.73.94,1.68,1.26a10.66,10.66,0,0,1,1.78.95c.32.1.32.42.74.52s.94.42,1.78.84-.63,1.05,1.47,1.89,1.26,1.16,3.36,2.32,2.53,2.21,2.53,2.21c-.84-.63-1.68-1.06-2.31-1.47-1.16-.85-1.68-.64-3.68-1.58s-1.79-.11-3.15-.42-.84.42-1.26.42-2,.63-2.84.73-3,.85-2.73.95.31.21.11.74.31.42.31.42l1.16-.32c1.15-.31.21.42,1.36.11s.21.42,1.05.31c1.37-.21-.52.74,0,.53,2.21-.63,2.31-.32,2.63-.21s.73.21.94.31,1.26.53,1.26.53c-1.15-.11-2-.21-2.31-.21a9.7,9.7,0,0,0-1.89.42c-.63,0-1.89,1.05-3.15,1.37s-1.05.84-1.36,1.05c-1.26.73-3.68,2.63-2.53,2.21s.53.73,1,.52c1.78-1.16,1.89-.31,1.89-.31a4.19,4.19,0,0,0,1.58-.63c1.15-.64.73.21,1,.21s.52-.43,1.47-1.06.73.11,1,0a13,13,0,0,1,2,0,25.26,25.26,0,0,0-7,3.47c-.83.74-2.94,3.16-2.09,2.84s.94-.94,1.46-1.26,1.06,0,1.58-.42.42.11.74,0,.42.11,1.05-.42.73.21,1.15,0c1.26-.84,1.47-.32,2.1-.84s.84.52,1,.21a1.79,1.79,0,0,1,1.05-.32c.42,0,.84-.42,1.26-.63s1.16,0,1.16,0a16.55,16.55,0,0,0-6.93,6.42c-.84,1.78-1.79,4-1.16,3.68s1.05-1.79,1.79-2.32.94.53,2-1.68,1.37-.73,2.31-1.89,1-.74,1.68-1.26a3.16,3.16,0,0,1,1.48-.63c-.21.1-.32.31-.53.42l-.42.73-1.05.84-.42.74a6.75,6.75,0,0,0-1.89,2c-.21.42.1.31-.42,1.37a3.09,3.09,0,0,1-.74,1.68c-.21.31-1.05,2.21-.73,2.94,0,.84-.11,2-.11,2.53s.74-1.16,1.16-1.48.63,0,1-1.05.73-.31,1.26-1.26,1-.53,1.47-1.16.73-2,1.16-.84c.1.42,1-1.05,1.26-1.78,0,0,.1-1.9,1-1.69-.53.21-.53.95-.53.95s-.32.63,0,.84a1.27,1.27,0,0,0,0,1.37s-1.15,1.26-1.15,2c0,.31.52-.32.31.21s.32.21,0,.94c-.11.32.63-.52.32.42s.31.11.2,1.27a1.09,1.09,0,0,0,.22.94s.52-1.68.63-1.26.31-1.05.41-.21.32-1.16.32-1.16.21-.52.32.11.31-1.26.42-.84.63-.74.63-1.16a1.53,1.53,0,0,0,.42-.32,1.84,1.84,0,0,0,.73-.21,10.55,10.55,0,0,0-.63,2.21c0,.32.21.11,0,1.05,0,.32.32-.31.32.53s.31.95.31.95l.21-.43s.21-.94.32-.63.52-1.05.52-1.05.11.21.21.42-.31.32.11,1.06c.1.31-.42.2-.11,1.15.11.32-.42.32.11,1.58.21.42-.74-.21.1,1.47.11.21-.63,0,.11,1.47.1.32-.63.42-.21,1.27.1.2.21.31,0,.52s-.32.53,0,1.16c.21.42-.42.1,0,1.26.21.53-.32.53,0,1.16s-.11.84,0,1.47-.42.42.21,1.68c.21.53-.53-.1-.11,1.16,0,.21-.52.21-.1,1.26.1.21-.21.31,0,.95.1.31-.21.52,0,1.15.1.42-.21.53-.11,1.16a4.5,4.5,0,0,1,.11.84s-.32.11-.11.74-.21.31,0,1.05c0,.31-.21.1-.21.73-.1.21-.52.11,0,1a8.52,8.52,0,0,0,3.68-.1c.21-.53,0-.64-.11-.53s-.1-1.05,0-1.26-.42.1-.1-1.26c.1-.42-.32-.42-.11-1.06s-.31-1.05-.1-1.89c.31-1.05-.42-.1-.21-.73s-.11-.95,0-1.16-.11-.42.1-.95-.42-.63-.1-1.36-.32-.95-.11-1.48c.42-1.05-.21-.42.11-1.05s-.11-.94,0-1.26.21-.63.1-.84c.21-.53-.31-.42-.1-1.05s-.42-.63-.11-1.16.11-.63.11-.84-.32.1,0-.74-.11-.31,0-.94a7,7,0,0,0,.1-.95s-.31-.1-.1-.53-.53-.21-.21-.84.21-.52.21-.73-.21-.32,0-.84-.42,0-.21-.74.1-.53.1-.53-.31,0-.1-.63.1-.52.1-.52a.49.49,0,0,1-.31-.63v-.32s.31,0,.31.42a.6.6,0,0,0,.42.63,2,2,0,0,1,.42.95c0,.42.32-.63.63.21s.21-.74.21-.74a.84.84,0,0,0,0-.94c-.31-.53.42.1.11-.74l-.32-.84a.47.47,0,0,0,.32-.11,1,1,0,0,0,.94-.31c.11,0,.21-.11.32-.11-.11.63.1.53.21.63s.31.42.31.42.11,1.58.21,1.06.42.63.42.63a4,4,0,0,1,.21-1.26c.11-.53.32,2.52.32,1.78s.11-.73.21-.31.32.84.42.63.31.21.31.21a3.89,3.89,0,0,0-.1-1.47c-.21-.84.32-.11.32-.42s.2-.11.2-.21a3.62,3.62,0,0,0-.42-1.16c-.1-.11-.1-.32-.2-1.16v-.63c.52,0,.1.53.31,1.26s.42.42.42.42,0,1.48.42.84.1,1.16.42,1.06.32.63.42.31.42.11.42.11.21-.63.32.1a4.15,4.15,0,0,0,.73,1.79,2.36,2.36,0,0,0,0-1.26c-.1-.63.32-.21.21-.74s.42,0,.21-.94.74.52.32-.64.42,0,.21-.42a13.55,13.55,0,0,0-.53-1.57c-.42-.85.53,0,.53,0s-.32-1-.53-1.37-.52-1.26-.52-1.26a2.48,2.48,0,0,0-.84-1.37,1.11,1.11,0,0,1,.73.32c.32.31,1.26,1.57,1,1.05a1.17,1.17,0,0,1,.21-1.05s1.26,1.78,1.26,1.36.42,0,.42,0-.1-.84.11-.73.63.52.73.21.74,1.05.74.73,1,.74,1,.21,1.26,1.16,1.26.53,1.26,1.16,1.15.52c-.52-1.36,0-1.36-.42-1.78-.94-1,0-.53-.21-1a4.88,4.88,0,0,0-2-1.68,24.7,24.7,0,0,0-5.15-2.73,13.51,13.51,0,0,1,3.36,1.15c.63.42,1.26.84,1.16.21s.73.63.63.11,1.15.63,1,0,2,.94,1.78.52C604.27,285.31,606.58,286.79,605.53,285.84Z"/><path class="cls-2" d="M537.53,328.89c-5.36-5.26-11-4.52-11-4.52a2.81,2.81,0,0,1,1.47-.21c1,.1,0-.53.84-.32s1.16.11,1-.1,1.36.52,1,0,1.68.94,1.15.31.11-.73.11-.73.94.73.84.31.52-.42.73-.31,1,.21,1.26.31.32-.1.53-.31,2.1,1.15,1.57.63c-.94-1.16.32-.63.32-.63s.31-.11-.32-.53.11-.63-1.47-1.15-.1-.43-1.36-.53-.63-.32-1.58-.42c-2.31,0-.84-.42-1.57-.42s-1.58.31-2.42.31a31.12,31.12,0,0,0-3.46.53,6.51,6.51,0,0,1,2.52-.84c1.68-.32-.21-.42,1.15-.53s.84-.31,1.89-.52-.42-.74.32-.85,2,.43,1.89,0,1.68-.1,2.2-.21-.31-.52-.1-.73.63-.11.42-.53,1.57-.21,1.57-.21-.21-.52-2.31-.52-.52-.32-1.47-.21-2.41.52-2.94.52a9.78,9.78,0,0,0-2.73.74c-1,.42-.95,0-.95,0,.22-.32.22-.42.22-.53s.63-.52,1.26-.73-1.37-.11.63-.74,0-.53,1.26-1,.63-.84.63-.84a13.93,13.93,0,0,0,2.31-.73c.52-.32-1-.21-.74-.53s1.68-.53,1.37-.63-1.26.1-2.73,0-1.79.52-2.52.42-1.26.84-1.69.84-.73,0-2.2,1.16-1,0-1,0a26.59,26.59,0,0,1-2.42,2.31c-.73.42.63-1.68,0-1a18.54,18.54,0,0,0-1.78,2.73l.52-1.26s.63-1.47.84-1.79-.73-.31-.21-1-.1-1.05,0-1.58-.42-.31-.21-.94.53-1.16-.21-.63-.1-.84.11-2-.32-.63.1-1.58a5.24,5.24,0,0,0,.32-1.79c.1-.31-.63-.52-.53-.84s.32-1.47,0-1.05a4,4,0,0,1-1.15.84c-.32.11-.84,1.37-1.05,1.58s-.63.84-.84,1.05-.53,1.16-1,1.79c-.42.42-.42,1.89-.42,2.63s-.42.73-.63,1.58a16.4,16.4,0,0,0,.32,3.68c-.95-2.53-2.21-4.1-2.31-3.47s-.74-.32-1.47-.95-.95,0-2.21-1.05-1.05.1-2.31-.74-.63.11-2.42-.73-.63.52-1.78.21-3.47-.21-2.31,0c2.52.73.73.94,1.68,1.26a11.73,11.73,0,0,1,1.78.94c.32.11.32.43.74.53s.94.42,1.78.84-.63,1.05,1.47,1.9,1.26,1.15,3.37,2.31,2.52,2.21,2.52,2.21c-.84-.63-1.68-1.05-2.31-1.48-1.16-.84-1.68-.63-3.68-1.57s-1.79-.11-3.15-.42-.84.42-1.26.42-2,.63-2.84.73-3.05.84-2.73,1,.32.21.11.74.31.42.31.42l1.16-.32c1.15-.31.21.42,1.36.11s.21.42,1,.31c1.37-.21-.52.74,0,.53,2.21-.63,2.31-.32,2.63-.21s.73.21.94.31,1.26.53,1.26.53c-1.15-.11-2-.21-2.31-.21a9.7,9.7,0,0,0-1.89.42c-.63,0-1.89,1.05-3.15,1.37s-1.05.84-1.36,1c-1.26.73-3.68,2.63-2.53,2.21s.53.73.95.52c1.79-1.15,1.89-.31,1.89-.31a4.14,4.14,0,0,0,1.58-.64c1.15-.63.73.21,1,.21s.52-.41,1.47-1,.73.11,1.05,0a13,13,0,0,1,2,0,25.26,25.26,0,0,0-7,3.47c-.84.74-2.94,3.16-2.1,2.84s.95-.94,1.47-1.26,1.06,0,1.58-.42.42.11.74,0,.42.11,1.05-.42.73.21,1.15,0c1.26-.84,1.47-.32,2.1-.84s.84.52,1,.21a1.79,1.79,0,0,1,1.05-.32c.42,0,.84-.42,1.26-.63s1.16,0,1.16,0a16.61,16.61,0,0,0-6.93,6.42c-.84,1.78-1.79,4-1.16,3.68s1-1.79,1.79-2.31.94.52,2-1.69,1.37-.73,2.31-1.89,1.05-.74,1.68-1.26a3.14,3.14,0,0,1,1.47-.63c-.2.1-.31.31-.52.42l-.42.73-1,.84-.42.74a6.75,6.75,0,0,0-1.89,2c-.21.42.1.31-.42,1.37a3.09,3.09,0,0,1-.74,1.68c-.21.31-1.05,2.21-.73,2.94,0,.84-.11,2-.11,2.53s.74-1.16,1.16-1.48.63,0,1.05-1.05.73-.31,1.26-1.26,1.05-.52,1.47-1.16.73-2,1.16-.84c.1.42,1-1.05,1.25-1.79,0,0,.11-1.89,1.06-1.68-.53.21-.53.95-.53.95s-.31.63,0,.84a1.29,1.29,0,0,0,0,1.37s-1.15,1.26-1.15,2c0,.32.52-.31.31.21s.31.22,0,1c-.1.32.63-.52.31.42s.32.11.22,1.26a1.1,1.1,0,0,0,.21,1s.52-1.68.63-1.26.31-1,.41-.21.32-1.16.32-1.16.21-.52.32.11.31-1.27.42-.84.63-.74.63-1.16a1.53,1.53,0,0,0,.42-.32,1.84,1.84,0,0,0,.73-.21,10.34,10.34,0,0,0-.63,2.21c0,.32.21.11,0,1.05,0,.32.32-.31.32.53s.31.94.31.94l.21-.42s.21-.94.32-.63.52-1.05.52-1.05.11.21.21.42-.31.32.11,1c.1.32-.42.21-.11,1.16.11.32-.42.32.11,1.58.21.42-.74-.21.1,1.47.11.21-.63,0,.11,1.47.1.32-.63.42-.21,1.26.1.21.21.32,0,.53s-.32.53,0,1.16c.21.42-.42.1,0,1.26.21.52-.32.52,0,1.16s-.11.84,0,1.47-.42.42.21,1.68c.21.53-.53-.1-.11,1.16,0,.21-.52.21-.1,1.26.1.21-.21.31,0,1,.1.31-.21.52,0,1.15.1.42-.21.53-.11,1.16a4.5,4.5,0,0,1,.11.84s-.32.11-.11.74-.21.31,0,1.05c0,.31-.21.1-.21.73-.1.22-.52.11,0,.95a8.52,8.52,0,0,0,3.68-.1c.21-.53,0-.63-.11-.53s-.1-1,0-1.26-.42.1-.1-1.26c.1-.42-.32-.42-.11-1.05s-.31-1.06-.1-1.9c.31-1.05-.42-.1-.21-.73s-.11-.95,0-1.16-.11-.42.1-1-.42-.63-.1-1.37-.32-.94-.11-1.47c.42-1.05-.21-.42.11-1.05s-.11-.95,0-1.26.21-.63.1-.84c.21-.53-.31-.42-.1-1.05s-.42-.63-.11-1.16.11-.63.11-.84-.32.1,0-.74-.11-.31,0-.94a6.82,6.82,0,0,0,.1-.95s-.31-.11-.1-.53-.53-.21-.21-.84.21-.52.21-.73-.21-.32,0-.85-.42,0-.21-.73.1-.53.1-.53-.31,0-.1-.63.1-.52.1-.52a.49.49,0,0,1-.31-.63v-.32s.31,0,.31.42a.6.6,0,0,0,.42.63,2,2,0,0,1,.42.95c0,.42.32-.63.63.21s.21-.74.21-.74a.84.84,0,0,0,0-.94c-.31-.53.42.1.11-.74l-.32-.84a.47.47,0,0,0,.32-.11,1,1,0,0,0,.94-.31c.11,0,.21-.11.32-.11-.11.63.1.53.21.63s.31.42.31.42.11,1.58.21,1.06.42.63.42.63a4.12,4.12,0,0,1,.21-1.27c.11-.52.32,2.53.32,1.79s.11-.73.21-.31.32.84.42.63.31.21.31.21a3.89,3.89,0,0,0-.1-1.47c-.21-.85.32-.11.32-.42s.2-.11.2-.22a3.56,3.56,0,0,0-.42-1.15c-.1-.11-.1-.32-.2-1.16v-.63c.52,0,.1.53.31,1.26s.42.42.42.42,0,1.48.42.85.1,1.15.42,1.05.32.63.42.31.42.11.42.11.21-.63.32.1a4.15,4.15,0,0,0,.73,1.79,2.37,2.37,0,0,0,0-1.26c-.1-.63.32-.21.21-.74s.42,0,.21-1,.74.53.32-.63.42,0,.21-.42a13.55,13.55,0,0,0-.53-1.57c-.42-.85.53,0,.53,0s-.32-.95-.53-1.37-.52-1.26-.52-1.26a2.48,2.48,0,0,0-.84-1.37,1.11,1.11,0,0,1,.73.32c.32.31,1.26,1.57,1,1a1.17,1.17,0,0,1,.21-1s1.26,1.78,1.26,1.36.42,0,.42,0-.1-.84.11-.73.63.52.73.21.74,1.05.74.73,1,.74,1,.21,1.26,1.16,1.26.53,1.26,1.16,1.15.52c-.52-1.36,0-1.36-.42-1.78-.94-.95,0-.53-.21-.95a4.8,4.8,0,0,0-2-1.68,24.78,24.78,0,0,0-5.15-2.74,13.93,13.93,0,0,1,3.36,1.16c.63.42,1.26.84,1.16.21s.73.63.63.11,1.15.63,1,0,2,.94,1.78.52C536.27,328.36,538.58,329.84,537.53,328.89Z"/><path class="cls-2" d="M558.53,254.8c-5.36-5.25-11-4.52-11-4.52a3,3,0,0,1,1.47-.21c1,.11,0-.52.84-.31s1.16.1,1-.11,1.36.53,1,0,1.68.95,1.15.32.11-.74.11-.74.94.74.84.32.52-.42.73-.32,1,.21,1.26.32.32-.11.53-.32,2.1,1.16,1.57.63c-.94-1.15.32-.63.32-.63s.31-.1-.32-.52.11-.64-1.47-1.16-.1-.42-1.36-.53-.63-.31-1.58-.42c-2.31,0-.84-.42-1.57-.42s-1.58.32-2.42.32a31.68,31.68,0,0,0-3.46.52,6.73,6.73,0,0,1,2.52-.84c1.68-.31-.21-.42,1.15-.52s.84-.32,1.89-.53-.42-.74.32-.84,2,.42,1.89,0,1.68-.11,2.2-.21-.31-.53-.1-.74.63-.1.42-.52,1.57-.21,1.57-.21-.21-.53-2.31-.53-.52-.32-1.47-.21-2.41.53-2.94.53a9.69,9.69,0,0,0-2.73.73c-1,.42-.95,0-.95,0,.22-.31.22-.42.22-.52s.63-.53,1.26-.74-1.37-.11.63-.74,0-.52,1.26-.94.63-.84.63-.84a13.26,13.26,0,0,0,2.31-.74c.52-.32-1-.21-.74-.53s1.68-.52,1.37-.63-1.26.11-2.73,0-1.79.53-2.52.42-1.26.84-1.69.84-.73,0-2.2,1.16-1,0-1,0a27.78,27.78,0,0,1-2.42,2.32c-.73.42.63-1.69,0-1.06a18.49,18.49,0,0,0-1.78,2.74l.52-1.26s.63-1.48.84-1.79-.73-.32-.21-1-.1-1.06,0-1.58-.42-.32-.21-.95.53-1.15-.21-.63-.1-.84.11-2-.32-.63.1-1.57a5.31,5.31,0,0,0,.32-1.79c.1-.32-.63-.53-.53-.84s.32-1.47,0-1a4,4,0,0,1-1.15.84c-.32.1-.84,1.36-1.05,1.57s-.63.85-.84,1.06-.53,1.15-1,1.78c-.42.42-.42,1.9-.42,2.63s-.42.74-.63,1.58a16.34,16.34,0,0,0,.32,3.68c-.95-2.52-2.21-4.1-2.31-3.47s-.74-.32-1.47-.95-1,0-2.21-1.05-1,.11-2.31-.73-.63.1-2.42-.74-.63.53-1.78.21-3.47-.21-2.31,0c2.52.74.73.95,1.68,1.26a11.49,11.49,0,0,1,1.78.95c.32.1.32.42.74.52s.94.43,1.78.85-.63,1.05,1.47,1.89,1.26,1.16,3.36,2.31,2.53,2.21,2.53,2.21c-.84-.63-1.68-1-2.31-1.47-1.16-.84-1.68-.63-3.68-1.58s-1.79-.1-3.15-.42-.84.42-1.26.42-2,.63-2.84.74-3,.84-2.73.94.31.21.11.74.31.42.31.42l1.16-.32c1.15-.31.21.43,1.36.11s.21.42,1.05.32c1.37-.21-.52.73,0,.52,2.21-.63,2.31-.31,2.63-.21s.73.21.94.32,1.26.52,1.26.52c-1.15-.1-2-.21-2.31-.21a10.49,10.49,0,0,0-1.89.42c-.63,0-1.89,1-3.15,1.37s-1.05.84-1.36,1.05c-1.26.74-3.68,2.63-2.53,2.21s.53.74,1,.53c1.78-1.16,1.89-.32,1.89-.32a4.19,4.19,0,0,0,1.58-.63c1.15-.63.73.21,1,.21s.52-.42,1.47-1.05.73.1,1,0a11.86,11.86,0,0,1,2,0,25,25,0,0,0-7,3.47c-.83.73-2.94,3.15-2.09,2.84s.94-.95,1.46-1.26,1.06,0,1.58-.43.42.11.74,0,.42.11,1.05-.42.73.21,1.15,0c1.26-.84,1.47-.31,2.1-.84s.84.53,1,.21a1.78,1.78,0,0,1,1.05-.31c.42,0,.84-.42,1.26-.63s1.16,0,1.16,0a16.53,16.53,0,0,0-6.93,6.41c-.84,1.79-1.79,4-1.16,3.68s1.05-1.78,1.79-2.31.94.53,2-1.68,1.37-.74,2.31-1.9,1-.73,1.68-1.26a3.28,3.28,0,0,1,1.48-.63c-.21.11-.32.32-.53.42l-.42.74-1.05.84-.42.73a6.75,6.75,0,0,0-1.89,2c-.21.42.1.32-.42,1.37a3.06,3.06,0,0,1-.74,1.68c-.21.32-1.05,2.21-.73,2.95,0,.84-.11,2-.11,2.52s.74-1.16,1.16-1.47.63,0,1-1.05.73-.32,1.26-1.26,1-.53,1.47-1.16.73-2,1.16-.84c.1.42,1-1.06,1.26-1.79,0,0,.1-1.89,1-1.68-.53.21-.53.94-.53.94s-.32.63,0,.84a1.27,1.27,0,0,0,0,1.37s-1.15,1.26-1.15,2c0,.32.52-.32.31.21s.32.21,0,.95c-.11.31.63-.53.32.42s.31.1.2,1.26a1.12,1.12,0,0,0,.22.95s.52-1.69.63-1.27.31-1.05.41-.21.32-1.15.32-1.15.21-.53.32.1.31-1.26.42-.84.63-.74.63-1.16a1.52,1.52,0,0,0,.42-.31,2,2,0,0,0,.73-.21,10.34,10.34,0,0,0-.63,2.21c0,.31.21.1,0,1.05,0,.31.32-.32.32.52s.31.95.31.95l.21-.42s.21-.95.32-.63.52-1,.52-1,.11.21.21.42-.31.31.11,1.05c.1.31-.42.21-.11,1.15.11.32-.42.32.11,1.58.21.42-.74-.21.1,1.47.11.21-.63,0,.11,1.48.1.31-.63.42-.21,1.26.1.21.21.32,0,.52s-.32.53,0,1.16c.21.42-.42.11,0,1.26.21.53-.32.53,0,1.16s-.11.84,0,1.47-.42.42.21,1.69c.21.52-.53-.11-.11,1.15,0,.21-.52.21-.1,1.26.1.21-.21.32,0,.95.1.32-.21.53,0,1.16.1.42-.21.52-.11,1.15a4.6,4.6,0,0,1,.11.84s-.32.11-.11.74-.21.32,0,1.05c0,.32-.21.11-.21.74-.1.21-.52.1,0,.94a8.52,8.52,0,0,0,3.68-.1c.21-.53,0-.63-.11-.53s-.1-1.05,0-1.26-.42.11-.1-1.26c.1-.42-.32-.42-.11-1.05s-.31-1.05-.1-1.89c.31-1.06-.42-.11-.21-.74s-.11-.95,0-1.16-.11-.42.1-.94-.42-.63-.1-1.37-.32-.95-.11-1.47c.42-1.05-.21-.42.11-1.05s-.11-.95,0-1.27.21-.63.1-.84c.21-.52-.31-.42-.1-1.05s-.42-.63-.11-1.16.11-.63.11-.84-.32.11,0-.73-.11-.32,0-1a6.82,6.82,0,0,0,.1-.95s-.31-.1-.1-.52-.53-.21-.21-.84.21-.53.21-.74-.21-.32,0-.84-.42,0-.21-.74.1-.52.1-.52-.31,0-.1-.63.1-.53.1-.53a.48.48,0,0,1-.31-.63v-.32s.31,0,.31.42a.62.62,0,0,0,.42.64,1.94,1.94,0,0,1,.42.94c0,.42.32-.63.63.21s.21-.73.21-.73a.86.86,0,0,0,0-.95c-.31-.53.42.11.11-.74l-.32-.84a.5.5,0,0,0,.32-.1,1.06,1.06,0,0,0,.94-.32c.11,0,.21-.1.32-.1-.11.63.1.52.21.63s.31.42.31.42.11,1.58.21,1.05.42.63.42.63a4,4,0,0,1,.21-1.26c.11-.53.32,2.52.32,1.79s.11-.74.21-.32.32.84.42.63.31.21.31.21a3.89,3.89,0,0,0-.1-1.47c-.21-.84.32-.1.32-.42s.2-.1.2-.21a3.71,3.71,0,0,0-.42-1.16c-.1-.1-.1-.31-.2-1.15v-.64c.52,0,.1.53.31,1.27s.42.42.42.42,0,1.47.42.84.1,1.16.42,1.05.32.63.42.32.42.1.42.1.21-.63.32.11a4.15,4.15,0,0,0,.73,1.78,2.36,2.36,0,0,0,0-1.26c-.1-.63.32-.21.21-.73s.42,0,.21-.95.74.53.32-.63.42,0,.21-.42a13.52,13.52,0,0,0-.53-1.58c-.42-.84.53,0,.53,0s-.32-.95-.53-1.37-.52-1.26-.52-1.26a2.51,2.51,0,0,0-.84-1.37,1.11,1.11,0,0,1,.73.32c.32.32,1.26,1.58,1,1.05a1.18,1.18,0,0,1,.21-1.05s1.26,1.79,1.26,1.37.42,0,.42,0-.1-.84.11-.74.63.53.73.21.74,1,.74.74,1,.73,1,.21,1.26,1.16,1.26.52,1.26,1.16,1.15.53c-.52-1.37,0-1.37-.42-1.79-.94-.95,0-.52-.21-.95a4.88,4.88,0,0,0-2-1.68,24.7,24.7,0,0,0-5.15-2.73,13.93,13.93,0,0,1,3.36,1.15c.63.43,1.26.85,1.16.22s.73.63.63.1,1.15.63,1,0,2,1,1.78.53C557.27,254.28,559.58,255.75,558.53,254.8Z"/><path class="cls-2" d="M701.44,633.31c-5.36-5.26-11-4.53-11-4.53a2.91,2.91,0,0,1,1.47-.2c1,.1,0-.53.84-.32s1.15.1.94-.11,1.37.53,1.05,0,1.69,1,1.16.32.1-.74.1-.74.95.74.85.32.52-.42.73-.32,1,.21,1.26.32.32-.11.53-.32,2.1,1.16,1.57.63c-.94-1.15.32-.63.32-.63s.31-.1-.32-.52.11-.63-1.47-1.16-.1-.42-1.36-.52-.63-.32-1.58-.43c-2.31,0-.84-.42-1.58-.42s-1.57.32-2.41.32a31.39,31.39,0,0,0-3.47.53,6.7,6.7,0,0,1,2.52-.85c1.68-.31-.21-.42,1.16-.52s.84-.32,1.89-.53-.42-.73.31-.84,2,.42,1.9,0,1.68-.1,2.2-.21-.31-.53-.1-.74.63-.1.42-.52,1.57-.21,1.57-.21-.21-.53-2.31-.53-.52-.31-1.47-.21-2.42.53-2.94.53a9.36,9.36,0,0,0-2.73.74c-1.05.41-1,0-1,0,.21-.32.21-.43.21-.53s.63-.53,1.26-.74-1.36-.1.63-.73,0-.53,1.26-.95.63-.84.63-.84a13.3,13.3,0,0,0,2.32-.74c.52-.31-1.05-.21-.74-.52s1.68-.53,1.37-.63-1.27.1-2.74,0-1.78.52-2.52.42-1.26.84-1.68.84-.73,0-2.2,1.15-1,0-1,0a27.78,27.78,0,0,1-2.42,2.32c-.74.42.63-1.68,0-1.05a18.83,18.83,0,0,0-1.79,2.73l.53-1.26s.63-1.47.84-1.79-.74-.31-.21-1.05-.1-1,0-1.58-.42-.31-.21-.94.53-1.16-.21-.64-.11-.84.11-2-.32-.63.1-1.58a5.28,5.28,0,0,0,.32-1.79c.1-.31-.64-.52-.53-.84s.31-1.47,0-1a4.14,4.14,0,0,1-1.15.84c-.32.1-.85,1.37-1,1.58s-.64.84-.85,1.05-.52,1.16-.94,1.79c-.42.42-.42,1.89-.42,2.63s-.42.73-.63,1.57a16.45,16.45,0,0,0,.31,3.68c-.94-2.52-2.2-4.1-2.31-3.47s-.73-.31-1.47-.94-.94,0-2.2-1.06-1.05.11-2.31-.73-.63.1-2.42-.74-.63.53-1.79.21-3.46-.21-2.31,0c2.52.74.74,1,1.68,1.26a12.18,12.18,0,0,1,1.79,1c.31.11.31.42.74.53a19.32,19.32,0,0,1,1.78.84c.84.42-.63,1,1.47,1.89s1.26,1.16,3.36,2.31,2.52,2.21,2.52,2.21c-.84-.63-1.68-1-2.31-1.47-1.15-.84-1.68-.63-3.67-1.58s-1.79-.1-3.15-.42-.85.42-1.26.42-2,.63-2.84.74-3.05.84-2.73.95.31.21.1.73.32.42.32.42l1.15-.31c1.16-.32.21.42,1.37.1s.21.42,1,.32c1.36-.21-.53.74,0,.52,2.21-.63,2.31-.31,2.62-.21a9.49,9.49,0,0,1,1,.32c.21.11,1.26.52,1.26.52-1.16-.1-2-.21-2.31-.21a9.69,9.69,0,0,0-1.89.43c-.63,0-1.89,1.05-3.15,1.36s-1.05.84-1.37,1.05c-1.26.74-3.67,2.63-2.52,2.21s.53.74.95.53c1.78-1.16,1.89-.32,1.89-.32a4.13,4.13,0,0,0,1.57-.63c1.16-.63.74.21,1,.21s.53-.42,1.47-1.05.74.11,1.06,0a11.86,11.86,0,0,1,2,0,25.26,25.26,0,0,0-7,3.47c-.84.74-2.94,3.16-2.1,2.84s1-1,1.47-1.26,1.05,0,1.58-.42.42.1.73,0,.42.1,1-.42.74.21,1.16,0c1.26-.84,1.47-.32,2.1-.84s.84.52,1.05.21a1.79,1.79,0,0,1,1-.32c.42,0,.84-.42,1.26-.63s1.16,0,1.16,0a16.7,16.7,0,0,0-6.94,6.41c-.84,1.79-1.78,4-1.15,3.68s1-1.78,1.78-2.31.95.53,2-1.68,1.37-.74,2.31-1.89,1.05-.74,1.68-1.27a3.27,3.27,0,0,1,1.47-.63c-.21.11-.31.32-.52.42l-.42.74-1,.84-.42.74a6.65,6.65,0,0,0-1.89,2c-.22.43.1.32-.42,1.37a3.06,3.06,0,0,1-.74,1.68c-.21.32-1.05,2.21-.74,2.95,0,.84-.1,2-.1,2.52s.73-1.15,1.15-1.47.63,0,1.06-1.05.73-.32,1.26-1.26,1-.53,1.47-1.16.73-2,1.15-.84c.11.42,1-1,1.26-1.79,0,0,.11-1.89,1-1.68-.52.21-.52.95-.52.95s-.32.63,0,.84a1.25,1.25,0,0,0,0,1.36s-1.16,1.27-1.16,2c0,.32.53-.31.32.21s.31.21,0,.95c-.11.31.63-.53.31.42s.32.1.21,1.26a1.13,1.13,0,0,0,.21.95s.53-1.68.63-1.26.32-1.06.42-.22.32-1.15.32-1.15.21-.53.31.1.32-1.26.42-.84.63-.73.63-1.15a1.57,1.57,0,0,0,.42-.32,1.88,1.88,0,0,0,.74-.21,9.74,9.74,0,0,0-.63,2.21c0,.31.21.1,0,1.05,0,.31.31-.32.31.53s.32.94.32.94l.21-.42s.21-.94.31-.63.53-1,.53-1,.1.21.21.42-.32.32.1,1.05c.11.32-.42.21-.1,1.16.1.31-.42.31.1,1.57.21.43-.73-.21.11,1.48.1.21-.63,0,.1,1.47.11.31-.63.42-.21,1.26.11.21.21.32,0,.53s-.31.52,0,1.15c.21.42-.42.11,0,1.27.21.52-.31.52,0,1.15s-.1.84,0,1.48-.42.42.21,1.68c.21.52-.52-.11-.1,1.15,0,.22-.53.22-.11,1.27.11.21-.21.31,0,.94.11.32-.21.53,0,1.16.11.42-.21.52-.1,1.16a4.93,4.93,0,0,1,.1.84s-.31.1-.1.73-.21.32,0,1.06c0,.31-.21.1-.21.73-.11.21-.53.11,0,1a8.68,8.68,0,0,0,3.68-.11c.21-.52,0-.63-.11-.52a2.45,2.45,0,0,1,0-1.27c.11-.21-.42.11-.11-1.26.11-.42-.31-.42-.1-1.05s-.31-1-.11-1.89c.32-1-.42-.11-.2-.74s-.11-.94,0-1.15-.11-.43.1-.95-.42-.63-.1-1.37-.32-.94-.11-1.47c.42-1.05-.21-.42.11-1.05s-.11-.95,0-1.26.2-.64.1-.84c.21-.53-.32-.43-.1-1.06s-.43-.63-.11-1.15.11-.63.11-.84-.32.1,0-.74-.11-.32,0-.95a6.77,6.77,0,0,0,.1-.94s-.32-.11-.1-.53-.53-.21-.22-.84.22-.53.22-.74-.22-.31,0-.84-.43,0-.22-.73.11-.53.11-.53-.32,0-.11-.63.11-.53.11-.53a.49.49,0,0,1-.32-.63v-.31s.32,0,.32.42a.62.62,0,0,0,.42.63,1.94,1.94,0,0,1,.42,1c.11.31.32-.64.63.2s.21-.73.21-.73a.86.86,0,0,0,0-.95c-.31-.52.42.11.11-.73l-.32-.85a.5.5,0,0,0,.32-.1,1.06,1.06,0,0,0,.94-.32c.11,0,.21-.1.32-.1-.11.63.1.52.21.63s.31.42.31.42.11,1.58.21,1.05.42.63.42.63a4.07,4.07,0,0,1,.21-1.26c.11-.52.32,2.53.32,1.79s.1-.74.21-.32.31.84.42.64.31.2.31.2a3.89,3.89,0,0,0-.1-1.47c-.21-.84.31-.1.31-.42s.21-.1.21-.21a3.71,3.71,0,0,0-.42-1.16c-.1-.1-.1-.31-.21-1.15v-.63c.53,0,.11.52.32,1.26s.42.42.42.42,0,1.47.42.84.1,1.16.42,1.05.31.63.42.32.42.1.42.1.21-.63.31.11a4.24,4.24,0,0,0,.74,1.79,2.63,2.63,0,0,0,0-1.27c-.11-.63.31-.21.21-.73s.42,0,.21-.95.73.53.31-.63.42,0,.21-.42a13,13,0,0,0-.52-1.58c-.42-.84.52,0,.52,0a14.43,14.43,0,0,0-.52-1.36c-.21-.42-.53-1.27-.53-1.27a2.4,2.4,0,0,0-.84-1.36,1.16,1.16,0,0,1,.74.31c.31.32,1.26,1.58,1,1a1.18,1.18,0,0,1,.21-1s1.26,1.79,1.26,1.37.42,0,.42,0-.11-.84.1-.74.63.53.74.21.74,1.06.74.74,1.05.74,1.05.21,1.26,1.16,1.26.53,1.26,1.15,1.15.52c-.52-1.37,0-1.37-.42-1.79-.94-.94,0-.52-.21-.94a4.85,4.85,0,0,0-2-1.69,24.65,24.65,0,0,0-5.14-2.73,14.08,14.08,0,0,1,3.36,1.16c.63.42,1.26.84,1.15.21s.74.63.63.1,1.16.63,1,0,2,1,1.79.53C700.18,632.89,702.49,634.25,701.44,633.31Z"/><path class="cls-2" d="M661,672.85c-5.36-5.26-11-4.52-11-4.52a2.9,2.9,0,0,1,1.47-.22c1,.11,0-.52.84-.31s1.15.11.94-.11,1.37.53,1.06,0,1.68.95,1.15.32.11-.74.11-.74.94.74.84.32.52-.42.73-.32.95.21,1.26.32.32-.11.53-.32,2.1,1.16,1.57.64c-.94-1.16.32-.64.32-.64s.31-.1-.32-.52.11-.63-1.47-1.16-.1-.42-1.36-.52-.63-.32-1.58-.42c-2.31,0-.84-.43-1.57-.43s-1.58.32-2.42.32a31.39,31.39,0,0,0-3.47.53,6.7,6.7,0,0,1,2.52-.85c1.68-.31-.21-.42,1.16-.52s.84-.32,1.89-.53-.42-.73.32-.84,2,.42,1.89,0,1.68-.1,2.2-.21-.31-.53-.1-.73.63-.11.42-.53,1.57-.21,1.57-.21-.21-.53-2.31-.53-.52-.31-1.47-.21-2.41.53-2.94.53a9.6,9.6,0,0,0-2.73.73c-1,.42-.95,0-.95,0,.21-.31.21-.42.21-.52s.63-.53,1.26-.74-1.36-.1.63-.73,0-.53,1.27-.95.63-.84.63-.84a13.26,13.26,0,0,0,2.31-.74c.52-.31-1-.21-.74-.52s1.68-.53,1.37-.63-1.26.1-2.73,0-1.79.52-2.52.42-1.27.84-1.69.84-.73,0-2.2,1.15-1,0-1,0a27.78,27.78,0,0,1-2.42,2.32c-.73.52.63-1.68,0-1.05a18.54,18.54,0,0,0-1.78,2.73l.52-1.26s.63-1.47.84-1.79-.73-.31-.21-1.05-.1-1,0-1.58-.42-.31-.21-.94.53-1.16-.21-.63-.1-.85.11-2-.32-.63.1-1.58a5.28,5.28,0,0,0,.32-1.79c.1-.31-.63-.52-.53-.84s.32-1.47,0-1.05a4,4,0,0,1-1.15.84c-.32.1-.84,1.37-1.05,1.58s-.63.84-.84,1-.53,1.16-.95,1.79c-.42.42-.42,1.89-.42,2.63s-.42.73-.63,1.57a16.45,16.45,0,0,0,.31,3.68c-.94-2.52-2.2-4.1-2.31-3.47s-.73-.31-1.47-.94-.94,0-2.2-1-1,.1-2.31-.74-.63.1-2.42-.74-.63.53-1.78.21-3.47-.21-2.31,0c2.52.74.73,1,1.68,1.27a11.73,11.73,0,0,1,1.78.94c.32.11.32.42.74.53a19.32,19.32,0,0,1,1.78.84c.84.42-.63,1.05,1.47,1.89s1.26,1.16,3.36,2.31,2.53,2.21,2.53,2.21c-.85-.63-1.69-1-2.32-1.47-1.15-.84-1.68-.63-3.67-1.58s-1.79-.1-3.15-.42-.84.42-1.26.42-2,.64-2.84.74-3,.84-2.73,1,.31.21.1.73.32.42.32.42l1.16-.31c1.15-.32.2.42,1.36.1s.21.42,1,.32c1.37-.21-.52.73,0,.52,2.21-.63,2.31-.31,2.63-.21s.73.21.94.32,1.26.52,1.26.52c-1.15-.1-2-.2-2.31-.2a9.7,9.7,0,0,0-1.89.42c-.63.1-1.89,1-3.15,1.36s-1,.84-1.37,1.05c-1.26.74-3.67,2.63-2.52,2.21s.53.74,1,.53c1.78-1.16,1.89-.32,1.89-.32a4.13,4.13,0,0,0,1.57-.63c1.16-.63.74.21,1.05.21s.53-.42,1.48-1.05.73.11,1,0a13,13,0,0,1,2,0,25.26,25.26,0,0,0-7,3.47c-.84.74-2.94,3.16-2.1,2.84s.95-1,1.47-1.26,1,0,1.58-.42.42.1.74,0,.42.1,1.05-.42.73.21,1.15,0c1.26-.84,1.47-.32,2.1-.84s.84.52,1,.21a1.79,1.79,0,0,1,1-.32c.42,0,.84-.42,1.26-.63s1.16,0,1.16,0a16.6,16.6,0,0,0-6.93,6.41c-.84,1.79-1.79,4-1.16,3.69s1-1.79,1.79-2.32.94.53,2-1.68,1.37-.74,2.31-1.89,1-.74,1.68-1.27a3.27,3.27,0,0,1,1.47-.63c-.21.11-.31.32-.52.42l-.42.74-1,.84-.42.74a6.65,6.65,0,0,0-1.89,2c-.21.43.1.32-.42,1.37a3.12,3.12,0,0,1-.74,1.69c-.21.31-1,2.2-.73,2.94,0,.84-.11,2-.11,2.52s.74-1.15,1.16-1.47.63,0,1-1,.73-.32,1.26-1.26,1.05-.53,1.47-1.16.73-2,1.15-.84c.11.42,1.05-1.05,1.26-1.79,0,0,.11-1.89,1.05-1.68-.52.21-.52,1-.52,1s-.32.63,0,.84a1.25,1.25,0,0,0,0,1.36s-1.16,1.27-1.16,2c0,.32.53-.31.32.21s.31.21,0,.95c-.11.31.63-.53.31.42s.32.1.21,1.26a1.13,1.13,0,0,0,.21.95s.53-1.69.63-1.26.32-1.06.42-.21.32-1.16.32-1.16.21-.53.31.1.32-1.26.43-.84.63-.73.63-1.15a1.46,1.46,0,0,0,.41-.32,2,2,0,0,0,.74-.21,10.34,10.34,0,0,0-.63,2.21c0,.31.21.1,0,1,0,.32.31-.32.31.53s.32.94.32.94l.21-.42s.21-1,.32-.63.52-1.05.52-1.05.11.21.21.42-.31.31.11,1.05c.1.32-.42.21-.11,1.16.11.31-.42.31.11,1.57.21.43-.74-.2.1,1.48.11.21-.63,0,.11,1.47.1.31-.63.42-.21,1.26.1.21.21.32,0,.53s-.32.52,0,1.15c.21.43-.42.11,0,1.27.21.52-.32.52,0,1.15s-.11.84,0,1.47-.42.43.21,1.69c.21.52-.53-.11-.11,1.15,0,.21-.52.21-.1,1.27.1.21-.21.31,0,.94.1.32-.21.53,0,1.16.1.42-.21.52-.11,1.16a4.5,4.5,0,0,1,.11.84s-.32.1-.11.73-.21.32,0,1.05c0,.32-.21.11-.21.74-.1.21-.52.11,0,.95a8.67,8.67,0,0,0,3.68-.11c.21-.52,0-.63-.11-.52a2.65,2.65,0,0,1,0-1.26c.11-.21-.42.1-.1-1.27.1-.42-.32-.42-.11-1s-.31-1.05-.1-1.89c.31-1.05-.42-.11-.21-.74s-.11-.94,0-1.15-.11-.42.1-.95-.42-.63-.1-1.37-.32-.94-.11-1.47c.42-1-.21-.42.11-1s-.11-1,0-1.26.21-.63.1-.85c.21-.52-.31-.41-.1-1.05s-.42-.63-.11-1.15.11-.63.11-.84-.32.1,0-.74-.11-.32,0-1a6.77,6.77,0,0,0,.1-.94s-.31-.11-.1-.53-.53-.21-.21-.84.21-.53.21-.74-.21-.31,0-.84-.42,0-.21-.73.1-.53.1-.53-.31,0-.1-.63.1-.53.1-.53a.48.48,0,0,1-.31-.63v-.31s.31,0,.31.42a.62.62,0,0,0,.42.63,1.94,1.94,0,0,1,.42.94c.11.32.32-.63.63.22s.21-.74.21-.74a.86.86,0,0,0,0-1c-.31-.52.42.11.11-.73l-.32-.84a.47.47,0,0,0,.32-.11,1,1,0,0,0,.94-.31c.11,0,.21-.11.32-.11-.11.63.1.53.21.63s.31.42.31.42.11,1.58.21,1,.42.63.42.63a4.07,4.07,0,0,1,.21-1.26c.11-.52.32,2.53.32,1.79s.1-.74.21-.32.31.85.42.63.31.22.31.22a4,4,0,0,0-.1-1.48c-.21-.84.31-.1.31-.42s.21-.1.21-.21a3.56,3.56,0,0,0-.42-1.15c-.1-.11-.1-.32-.21-1.16v-.63c.53,0,.11.52.32,1.26s.42.42.42.42,0,1.47.42.84.1,1.16.42,1.05.31.63.42.32.42.1.42.1.21-.63.31.11a4.31,4.31,0,0,0,.74,1.79,2.4,2.4,0,0,0,0-1.27c-.11-.63.32-.21.21-.73s.42,0,.21-.95.73.53.32-.63.41,0,.2-.42a11.81,11.81,0,0,0-.52-1.58c-.42-.84.52,0,.52,0a14.43,14.43,0,0,0-.52-1.36c-.21-.42-.53-1.27-.53-1.27a2.4,2.4,0,0,0-.84-1.36,1.16,1.16,0,0,1,.74.31c.32.32,1.26,1.58,1,1.05a1.18,1.18,0,0,1,.21-1.05s1.26,1.79,1.26,1.37.42,0,.42,0-.1-.84.11-.74.63.53.73.21.74,1.06.74.74,1,.74,1,.21,1.26,1.16,1.26.53,1.26,1.15,1.15.52c-.52-1.36,0-1.36-.42-1.79-.94-.94,0-.52-.21-.94a4.87,4.87,0,0,0-2-1.69,25,25,0,0,0-5.15-2.73,13.93,13.93,0,0,1,3.36,1.16c.63.42,1.26.84,1.16.21s.73.63.63.1,1.15.63,1.05,0,2,.95,1.78.53C659.84,672.43,662.05,673.79,661,672.85Z"/><path class="cls-2" d="M781.53,522.11c-5.36-5.25-11-4.52-11-4.52a3,3,0,0,1,1.47-.21c1,.11,0-.52.84-.31s1.16.1,1-.11,1.36.53,1,0,1.68.95,1.15.32.11-.74.11-.74.94.74.84.32.52-.42.73-.32,1,.21,1.26.32.32-.11.53-.32,2.1,1.16,1.57.63c-.94-1.15.32-.63.32-.63s.31-.1-.32-.52.11-.64-1.47-1.16-.1-.42-1.36-.53-.63-.31-1.58-.42c-2.31,0-.84-.42-1.57-.42s-1.58.32-2.42.32a31.68,31.68,0,0,0-3.46.52,6.73,6.73,0,0,1,2.52-.84c1.68-.31-.21-.42,1.15-.52s.84-.32,1.89-.53-.42-.74.32-.84,2,.42,1.89,0,1.68-.11,2.2-.21-.31-.53-.1-.74.63-.1.42-.52,1.57-.21,1.57-.21-.21-.53-2.31-.53-.52-.32-1.47-.21-2.41.52-2.94.52a9.78,9.78,0,0,0-2.73.74c-1,.42-.94,0-.94,0,.21-.31.21-.42.21-.52s.63-.53,1.26-.74-1.37-.11.63-.74,0-.52,1.26-.94.63-.84.63-.84a14.21,14.21,0,0,0,2.31-.74c.52-.32-1-.21-.74-.53s1.68-.52,1.37-.63-1.26.11-2.73,0-1.79.53-2.52.42-1.26.84-1.68.84-.74,0-2.21,1.16-1,0-1,0a26.59,26.59,0,0,1-2.42,2.31c-.73.43.63-1.68,0-1.05a18.49,18.49,0,0,0-1.78,2.74l.52-1.26s.63-1.48.84-1.79-.73-.32-.21-1.05-.1-1.06,0-1.58-.42-.32-.21-.95.53-1.15-.21-.63-.1-.84.11-2-.32-.63.1-1.57a5.31,5.31,0,0,0,.32-1.79c.1-.32-.63-.53-.53-.84s.32-1.48,0-1.05a4,4,0,0,1-1.15.84c-.32.1-.84,1.36-1.05,1.57s-.63.85-.84,1.06-.53,1.15-1,1.78c-.42.42-.42,1.9-.42,2.63s-.42.74-.63,1.58a16.34,16.34,0,0,0,.32,3.68c-.95-2.52-2.21-4.1-2.31-3.47s-.74-.32-1.47-.95-1,0-2.21-1.05-1,.11-2.31-.73-.63.1-2.42-.74-.63.53-1.78.21-3.47-.21-2.31,0c2.52.74.73.95,1.68,1.26a11.49,11.49,0,0,1,1.78,1c.32.1.32.42.74.52s.94.42,1.78.85-.63,1,1.47,1.89,1.26,1.15,3.36,2.31,2.53,2.21,2.53,2.21c-.84-.63-1.68-1.05-2.31-1.47-1.16-.84-1.68-.63-3.68-1.58s-1.79-.1-3.15-.42-.84.42-1.26.42-2,.63-2.84.74-3,.84-2.73.94.31.21.11.74.31.42.31.42l1.16-.32c1.15-.31.21.43,1.36.11s.21.42,1.05.32c1.37-.22-.52.73,0,.52,2.21-.63,2.31-.31,2.63-.21s.73.21.94.32,1.26.52,1.26.52c-1.15-.1-2-.21-2.31-.21a10.49,10.49,0,0,0-1.89.42c-.63,0-1.89,1-3.15,1.37s-1.05.84-1.36,1c-1.26.74-3.68,2.63-2.53,2.21s.53.74,1,.52c1.78-1.15,1.89-.31,1.89-.31a4.19,4.19,0,0,0,1.58-.63c1.15-.63.73.21,1,.21s.52-.42,1.47-1,.73.1,1,0a11.86,11.86,0,0,1,2,0,24.74,24.74,0,0,0-7,3.47c-.84.73-3,3.15-2.1,2.84s.94-1,1.46-1.27,1.06,0,1.58-.42.42.11.74,0,.42.11,1.05-.42.73.21,1.15,0c1.26-.84,1.47-.31,2.1-.84s.84.53,1,.21a1.78,1.78,0,0,1,1.05-.31c.42,0,.84-.42,1.26-.63s1.16,0,1.16,0a16.53,16.53,0,0,0-6.93,6.41c-.84,1.79-1.79,4-1.16,3.68s1.05-1.79,1.79-2.31.94.52,2-1.68,1.37-.74,2.31-1.9,1-.73,1.68-1.26a3.16,3.16,0,0,1,1.48-.63c-.21.1-.32.32-.53.42l-.42.74-1.05.84-.42.73a6.75,6.75,0,0,0-1.89,2c-.21.42.1.32-.42,1.37a3.09,3.09,0,0,1-.74,1.68c-.21.32-1.05,2.21-.73,3,0,.84-.11,2-.11,2.52s.74-1.16,1.16-1.47.63,0,1-1,.73-.32,1.26-1.27,1-.52,1.47-1.15.73-2,1.16-.84c.1.42,1-1.06,1.26-1.79,0,0,.1-1.89,1-1.68-.53.21-.53.94-.53.94s-.32.63,0,.84a1.27,1.27,0,0,0,0,1.37s-1.15,1.26-1.15,2c0,.31.52-.32.31.21s.32.21,0,1c-.11.31.63-.53.32.42s.31.1.2,1.26a1.09,1.09,0,0,0,.22.94s.52-1.68.63-1.26.31-1,.42-.21.31-1.15.31-1.15.21-.53.32.1.31-1.26.42-.84.63-.74.63-1.16a1.52,1.52,0,0,0,.42-.31,2,2,0,0,0,.73-.21,10.37,10.37,0,0,0-.63,2.2c0,.32.21.11,0,1.06,0,.31.32-.32.32.52s.31,1,.31,1l.21-.42s.21-1,.32-.63.52-1.05.52-1.05.11.21.21.42-.31.31.11,1c.1.31-.42.21-.11,1.15.11.32-.42.32.11,1.58.21.42-.74-.21.1,1.47.11.21-.63,0,.11,1.48.1.31-.63.42-.21,1.26.1.21.21.31,0,.52s-.32.53,0,1.16c.21.42-.42.11,0,1.26.21.53-.32.53,0,1.16s-.11.84,0,1.47-.42.42.21,1.68c.21.53-.53-.1-.11,1.16,0,.21-.52.21-.1,1.26.1.21-.21.32,0,1,.1.31-.21.53,0,1.16.1.42-.21.52-.11,1.15a4.6,4.6,0,0,1,.11.84s-.32.11-.11.74-.21.32,0,1c0,.32-.21.11-.21.74-.1.21-.52.1,0,.94a8.52,8.52,0,0,0,3.68-.1c.21-.53,0-.63-.11-.53a2.64,2.64,0,0,1,0-1.26c.11-.21-.42.11-.1-1.26.1-.42-.32-.42-.11-1s-.31-1.05-.1-1.89c.31-1.06-.42-.11-.21-.74s-.11-1,0-1.16-.11-.42.1-.94-.42-.64-.1-1.37-.32-1-.11-1.47c.42-1.06-.21-.42.11-1.06s-.11-.94,0-1.26.21-.63.1-.84c.21-.52-.31-.42-.1-1s-.42-.63-.11-1.16.11-.63.11-.84-.32.11,0-.73-.11-.32,0-1a6.82,6.82,0,0,0,.1-.95s-.31-.1-.1-.52-.53-.21-.21-.84.21-.53.21-.74-.21-.32,0-.84-.42,0-.21-.74.1-.52.1-.52-.31,0-.1-.63.1-.53.1-.53a.49.49,0,0,1-.31-.63v-.32s.31,0,.31.42a.62.62,0,0,0,.42.64,1.94,1.94,0,0,1,.42.94c.11.32.32-.63.63.21s.21-.73.21-.73a.86.86,0,0,0,0-1c-.31-.53.42.11.11-.74l-.32-.84a.5.5,0,0,0,.32-.1,1.06,1.06,0,0,0,.94-.32c.11,0,.21-.1.32-.1-.11.63.1.52.21.63s.31.42.31.42.11,1.58.21,1,.42.63.42.63a4,4,0,0,1,.21-1.26c.11-.53.32,2.52.32,1.79s.11-.74.21-.32.32.84.42.63.31.21.31.21a3.89,3.89,0,0,0-.1-1.47c-.21-.84.32-.1.32-.42s.2-.11.2-.21a3.71,3.71,0,0,0-.42-1.16c-.1-.1-.1-.31-.2-1.15v-.64c.52,0,.1.53.31,1.27s.42.42.42.42,0,1.47.42.84.1,1.15.42,1,.32.63.42.32.42.1.42.1.21-.63.32.11a4.15,4.15,0,0,0,.73,1.78,2.36,2.36,0,0,0,0-1.26c-.1-.63.32-.21.21-.73s.42,0,.21-1,.74.53.32-.63.42,0,.21-.42a13.52,13.52,0,0,0-.53-1.58c-.42-.84.53,0,.53,0s-.32-1-.53-1.37-.52-1.26-.52-1.26a2.48,2.48,0,0,0-.84-1.37,1.11,1.11,0,0,1,.73.32c.32.31,1.26,1.58,1,1a1.18,1.18,0,0,1,.21-1s1.26,1.79,1.26,1.37.42,0,.42,0-.1-.84.11-.74.63.53.73.21.74,1.05.74.74,1,.73,1,.21,1.26,1.15,1.26.52,1.26,1.16,1.15.53c-.52-1.37,0-1.37-.42-1.79-.94-1,0-.52-.21-1a4.88,4.88,0,0,0-2-1.68,24.7,24.7,0,0,0-5.15-2.73,13.93,13.93,0,0,1,3.36,1.15c.63.43,1.26.85,1.16.21s.73.64.63.11,1.15.63,1,0,2,.95,1.78.53C780.27,521.59,782.58,523.06,781.53,522.11Z"/><path class="cls-2" d="M811.55,588.66c-5.36-5.26-11-4.53-11-4.53a3,3,0,0,1,1.47-.21c1,.11,0-.52.84-.31s1.16.1.95-.11,1.36.53,1.05,0,1.68,1,1.15.32.11-.74.11-.74.94.74.84.32.52-.42.73-.32,1,.21,1.26.32.32-.11.53-.32,2.1,1.16,1.57.63c-.94-1.15.32-.63.32-.63s.31-.1-.32-.52.11-.64-1.47-1.16-.1-.42-1.36-.53-.63-.31-1.58-.42c-2.31,0-.84-.42-1.57-.42s-1.58.32-2.42.32a31.68,31.68,0,0,0-3.46.52,6.72,6.72,0,0,1,2.51-.84c1.69-.31-.2-.42,1.16-.52s.84-.32,1.89-.53-.42-.74.32-.84,2,.42,1.89,0,1.68-.11,2.2-.21-.31-.53-.1-.74.63-.1.42-.52,1.57-.21,1.57-.21-.21-.53-2.31-.53-.52-.32-1.47-.21-2.41.53-2.94.53a9.69,9.69,0,0,0-2.73.73c-1.05.42-1,0-1,0,.22-.31.22-.42.22-.52s.63-.53,1.26-.74-1.37-.11.63-.74,0-.52,1.26-.94.63-.84.63-.84a13.26,13.26,0,0,0,2.31-.74c.52-.31-1-.21-.74-.53s1.68-.52,1.37-.63-1.26.11-2.73,0-1.79.53-2.52.42-1.27.85-1.69.85-.73,0-2.2,1.15-1,0-1,0A27.78,27.78,0,0,1,795,576c-.73.42.63-1.69,0-1.06a18.49,18.49,0,0,0-1.78,2.74l.52-1.26s.63-1.48.84-1.79-.73-.32-.21-1-.1-1,0-1.58-.42-.32-.21-.95.53-1.15-.21-.63-.1-.84.11-2-.32-.63.1-1.57a5.31,5.31,0,0,0,.32-1.79c.1-.32-.63-.53-.53-.84s.32-1.47,0-1a4,4,0,0,1-1.15.84c-.32.1-.84,1.36-1,1.57s-.63.85-.84,1.06-.53,1.15-1,1.78c-.42.43-.42,1.9-.42,2.63s-.42.74-.63,1.58a16.34,16.34,0,0,0,.32,3.68c-.95-2.52-2.21-4.1-2.32-3.47s-.73-.31-1.46-1-.95,0-2.21-1-1.05.11-2.31-.73-.63.1-2.42-.74-.63.53-1.78.21-3.47-.21-2.31,0c2.52.74.73,1,1.68,1.26a11.49,11.49,0,0,1,1.78,1c.32.1.32.42.74.52s.94.43,1.78.85-.63,1,1.47,1.89,1.26,1.16,3.36,2.31,2.53,2.21,2.53,2.21c-.85-.63-1.68-1.05-2.31-1.47-1.16-.84-1.69-.63-3.68-1.58s-1.79-.1-3.15-.42-.84.42-1.26.42-2,.63-2.84.74-3.05.84-2.73.94.31.21.1.74.32.42.32.42l1.16-.31c1.15-.32.21.42,1.36.1s.21.42,1.05.32c1.37-.21-.52.73,0,.52,2.21-.63,2.31-.31,2.63-.21s.73.21.94.32,1.26.52,1.26.52c-1.15-.1-2-.21-2.31-.21a10.49,10.49,0,0,0-1.89.42c-.63,0-1.89,1-3.15,1.37s-1.05.84-1.37,1c-1.26.74-3.67,2.63-2.52,2.21s.53.74.95.53c1.78-1.16,1.89-.32,1.89-.32a4.19,4.19,0,0,0,1.58-.63c1.15-.63.73.21,1,.21s.52-.42,1.47-1,.73.1,1,0a11.86,11.86,0,0,1,2,0,24.74,24.74,0,0,0-7,3.47c-.85.74-2.95,3.15-2.11,2.84s1-.95,1.48-1.26,1,0,1.57-.43.42.11.74,0,.42.11,1-.41.73.21,1.15,0c1.26-.85,1.47-.32,2.1-.85s.84.53,1,.21a1.78,1.78,0,0,1,1.05-.31c.42,0,.84-.42,1.26-.63s1.16,0,1.16,0a16.53,16.53,0,0,0-6.93,6.41c-.84,1.79-1.79,4-1.16,3.68s1.05-1.79,1.79-2.31.94.52,2-1.68,1.37-.74,2.31-1.9,1.05-.73,1.68-1.26a3.27,3.27,0,0,1,1.47-.63c-.21.11-.31.32-.52.42l-.42.74-1.05.84-.42.73a6.75,6.75,0,0,0-1.89,2c-.21.42.1.32-.42,1.37a3.06,3.06,0,0,1-.74,1.68c-.21.32-1.05,2.21-.73,2.95,0,.84-.11,2-.11,2.52s.74-1.16,1.16-1.47.63,0,1.05-1.05.73-.32,1.26-1.26,1-.53,1.47-1.16.73-2,1.15-.84c.11.42,1-1.06,1.26-1.79,0,0,.11-1.89,1.06-1.68-.53.21-.53.94-.53.94s-.32.63,0,.84a1.27,1.27,0,0,0,0,1.37s-1.16,1.26-1.16,2c0,.32.53-.32.32.21s.31.21,0,1c-.11.31.63-.53.31.42s.32.1.21,1.26a1.09,1.09,0,0,0,.22.94s.52-1.68.63-1.26.31-1.05.42-.21.31-1.15.31-1.15.21-.53.32.1.31-1.26.41-.84.64-.74.64-1.16a1.52,1.52,0,0,0,.42-.31,2,2,0,0,0,.73-.21,10.34,10.34,0,0,0-.63,2.21c0,.31.21.1,0,1.05,0,.31.32-.32.32.52s.31.95.31.95l.21-.42s.21-1,.32-.63.52-1,.52-1,.11.21.21.42-.31.31.11,1c.1.31-.42.21-.11,1.16.11.31-.42.31.11,1.57.21.42-.74-.21.1,1.47.11.22-.63,0,.11,1.48.1.31-.63.42-.21,1.26.1.21.21.31,0,.53s-.32.52,0,1.15c.21.42-.42.11,0,1.26.21.53-.32.53,0,1.16s-.11.84,0,1.47-.42.42.21,1.68c.21.53-.53-.1-.11,1.16,0,.21-.52.21-.1,1.26.1.21-.21.32,0,1,.1.32-.21.53,0,1.16.1.42-.21.52-.11,1.15a4.64,4.64,0,0,1,.11.85s-.32.1-.11.73-.21.32,0,1c0,.32-.21.11-.21.74-.1.21-.52.1,0,.94a8.52,8.52,0,0,0,3.68-.1c.21-.53,0-.63-.11-.53a2.64,2.64,0,0,1,0-1.26c.11-.21-.42.11-.1-1.26.1-.42-.32-.42-.11-1.05s-.31-1-.1-1.89c.31-1-.42-.11-.21-.74s-.11-.95,0-1.16-.11-.42.1-.94-.42-.63-.1-1.37-.32-.95-.11-1.47c.42-1.05-.21-.42.11-1.05s-.11-.95,0-1.27.21-.63.1-.84c.21-.52-.31-.42-.1-1s-.42-.63-.11-1.16.11-.63.11-.84-.32.11,0-.73-.11-.32,0-.95a6.82,6.82,0,0,0,.1-1s-.31-.1-.1-.52-.53-.21-.21-.84.21-.53.21-.74-.21-.31,0-.84-.42,0-.21-.74.1-.52.1-.52-.31,0-.1-.63.1-.53.1-.53a.48.48,0,0,1-.31-.63v-.32s.31,0,.31.42a.62.62,0,0,0,.42.64,1.94,1.94,0,0,1,.42.94c.11.32.32-.63.63.21s.21-.73.21-.73a.86.86,0,0,0,0-.95c-.31-.53.42.11.11-.74l-.32-.84a.5.5,0,0,0,.32-.1A1.06,1.06,0,0,0,796,597c.11,0,.21-.1.32-.1-.11.63.1.52.21.63s.31.42.31.42.11,1.58.21,1.05.42.63.42.63a4,4,0,0,1,.21-1.26c.21-.53.32,2.52.32,1.79s.1-.74.21-.32.31.84.42.63.32.21.32.21a4,4,0,0,0-.11-1.47c-.21-.84.32-.1.32-.42s.2-.1.2-.21a4,4,0,0,0-.41-1.16c-.11-.1-.11-.31-.22-1.15v-.64c.53,0,.11.53.32,1.27s.42.42.42.42,0,1.47.42.84.1,1.16.42,1,.31.63.42.32.42.1.42.1.21-.63.32.11.73,2,.73,1.78a2.36,2.36,0,0,0,0-1.26c-.1-.63.32-.21.21-.73s.42,0,.21-1,.74.53.32-.63.42,0,.21-.42a13.52,13.52,0,0,0-.53-1.58c-.42-.84.53,0,.53,0s-.32-.95-.53-1.37-.52-1.26-.52-1.26a2.51,2.51,0,0,0-.84-1.37,1.11,1.11,0,0,1,.73.32c.32.32,1.26,1.58,1,1a1.18,1.18,0,0,1,.21-1s1.26,1.79,1.26,1.37.42,0,.42,0-.1-.84.11-.74.63.53.73.21.74,1,.74.74,1,.73,1,.21,1.26,1.15,1.26.52,1.26,1.16,1.15.53c-.52-1.37,0-1.37-.42-1.79-.94-.94,0-.52-.21-.94a4.8,4.8,0,0,0-2-1.69,24.7,24.7,0,0,0-5.15-2.73,13.93,13.93,0,0,1,3.36,1.16c.63.42,1.26.84,1.16.21s.73.63.63.1,1.15.63,1,0,2,1,1.78.53C810.39,588.23,812.7,589.6,811.55,588.66Z"/><path class="cls-2" d="M848.28,637.55c-5.36-5.25-11-4.52-11-4.52a3,3,0,0,1,1.47-.21c1,.11,0-.52.84-.31s1.16.1,1-.11,1.36.53,1,0,1.68,1,1.15.32.11-.74.11-.74.94.74.84.32.52-.42.73-.32,1,.21,1.26.32.32-.11.53-.32,2.1,1.16,1.57.63c-.94-1.15.32-.63.32-.63s.31-.1-.32-.52.11-.64-1.47-1.16-.1-.42-1.36-.53-.63-.31-1.58-.42c-2.31,0-.84-.42-1.57-.42s-1.58.32-2.42.32a32,32,0,0,0-3.47.52,6.85,6.85,0,0,1,2.53-.84c1.68-.31-.21-.42,1.15-.52s.84-.32,1.89-.53-.42-.74.32-.84,2,.42,1.89,0,1.68-.11,2.2-.21-.31-.53-.1-.74.63-.1.42-.52,1.57-.21,1.57-.21-.21-.53-2.31-.53-.52-.31-1.47-.21-2.41.53-2.94.53a9.69,9.69,0,0,0-2.73.73c-1,.42-.95,0-.95,0,.22-.31.22-.42.22-.52s.63-.53,1.26-.74-1.37-.1.63-.74,0-.52,1.26-.94.63-.84.63-.84a14.21,14.21,0,0,0,2.31-.74c.52-.32-1-.21-.74-.53s1.68-.52,1.37-.63-1.26.11-2.73,0-1.79.53-2.53.42-1.25.85-1.68.85-.73,0-2.2,1.15-1,0-1,0a26.59,26.59,0,0,1-2.42,2.31c-.73.43.63-1.68,0-1a19,19,0,0,0-1.78,2.74l.52-1.26s.63-1.48.84-1.79-.73-.32-.21-1.05-.1-1,0-1.58-.42-.32-.21-1,.53-1.15-.21-.63-.1-.84.11-2-.32-.63.1-1.57a5.31,5.31,0,0,0,.32-1.79c.1-.32-.63-.53-.53-.84s.32-1.48,0-1a4,4,0,0,1-1.15.84c-.32.1-.84,1.36-1.05,1.58s-.63.84-.84,1.05-.53,1.15-1,1.78c-.42.42-.42,1.9-.42,2.63s-.42.74-.63,1.58a16.34,16.34,0,0,0,.32,3.68c-.95-2.52-2.21-4.1-2.32-3.47s-.73-.31-1.47-.95-.94,0-2.2-1.05-1,.11-2.31-.73-.63.1-2.42-.74-.63.53-1.78.21-3.47-.21-2.32,0c2.53.74.74,1,1.69,1.26a11.49,11.49,0,0,1,1.78,1c.32.1.32.42.74.52s.94.42,1.78.85-.63,1,1.47,1.89,1.26,1.16,3.36,2.31,2.52,2.21,2.52,2.21c-.84-.63-1.68-1-2.31-1.47-1.15-.84-1.68-.63-3.67-1.58s-1.79-.1-3.15-.42-.84.42-1.26.42-2,.63-2.84.74-3.05.84-2.73.94.31.21.1.74.32.42.32.42L810,628c1.16-.31.22.43,1.37.11s.21.42,1.05.32c1.37-.21-.52.73,0,.52,2.21-.63,2.31-.31,2.63-.21s.73.21.94.32,1.26.52,1.26.52c-1.15-.1-2-.21-2.31-.21a10.49,10.49,0,0,0-1.89.42c-.63,0-1.89,1.05-3.15,1.37s-1.05.84-1.37,1.05c-1.26.74-3.67,2.63-2.52,2.21s.53.74,1,.52c1.78-1.15,1.89-.31,1.89-.31a4.19,4.19,0,0,0,1.58-.63c1.15-.63.73.21,1,.21s.52-.42,1.47-1.05.73.1,1,0a11.86,11.86,0,0,1,2,0,25,25,0,0,0-7,3.47c-.84.73-2.94,3.15-2.1,2.84s1-1,1.47-1.27,1,0,1.58-.41.42.1.73,0,.42.1,1.06-.43.73.21,1.15,0c1.26-.84,1.47-.31,2.1-.84s.84.53,1,.21a1.78,1.78,0,0,1,1.05-.31c.42,0,.84-.42,1.26-.63s1.16,0,1.16,0a16.53,16.53,0,0,0-6.93,6.41c-.85,1.79-1.79,4-1.16,3.68s1.05-1.79,1.79-2.31.94.52,2-1.68,1.37-.74,2.31-1.9,1-.73,1.68-1.26a3.14,3.14,0,0,1,1.47-.63c-.21.1-.31.32-.52.42l-.42.74-1.05.84-.42.73a6.75,6.75,0,0,0-1.89,2c-.21.42.1.32-.42,1.37a3.09,3.09,0,0,1-.74,1.68c-.21.32-1.05,2.21-.73,2.95,0,.84-.11,2-.11,2.52s.74-1.16,1.16-1.47.63,0,1-1.05.73-.32,1.26-1.27,1-.52,1.47-1.15.73-2,1.15-.84c.11.42,1-1.06,1.26-1.79,0,0,.11-1.89,1-1.68-.52.21-.52.94-.52.94s-.32.63,0,.84a1.27,1.27,0,0,0,0,1.37s-1.16,1.26-1.16,2c0,.31.53-.32.32.21s.31.21,0,.95c-.11.31.63-.53.31.42s.32.1.21,1.26a1.13,1.13,0,0,0,.21.95s.53-1.69.63-1.27.32-1,.42-.21.32-1.15.32-1.15.21-.53.31.1.32-1.26.42-.84.63-.74.63-1.16a1.45,1.45,0,0,0,.43-.31A2.08,2.08,0,0,0,826,646a9.77,9.77,0,0,0-.63,2.2c0,.32.21.11,0,1.06,0,.31.32-.32.32.52s.31,1,.31,1l.21-.42s.21-.95.32-.63.52-1,.52-1,.11.21.21.42-.31.31.11,1.05c.1.31-.42.21-.11,1.15.11.32-.42.32.11,1.58.21.42-.74-.21.1,1.48.11.2-.63,0,.11,1.47.1.31-.63.42-.21,1.26.1.21.21.31,0,.52s-.32.53,0,1.16c.21.42-.42.11,0,1.26.21.53-.32.53,0,1.16s-.11.84,0,1.47-.42.42.21,1.69c.21.52-.53-.11-.11,1.15,0,.21-.52.21-.1,1.26.1.21-.21.32,0,1,.1.32-.21.53,0,1.16.1.42-.21.52-.11,1.15a4.6,4.6,0,0,1,.11.84s-.32.11-.11.74-.21.32,0,1.05c0,.32-.21.11-.21.74-.1.21-.52.1,0,.94a8.52,8.52,0,0,0,3.68-.1c.21-.53,0-.63-.11-.53a2.64,2.64,0,0,1,0-1.26c.11-.21-.42.11-.1-1.26.1-.42-.32-.42-.11-1.05s-.31-1-.1-1.89c.31-1.06-.42-.11-.21-.74s-.11-.95,0-1.16-.11-.42.1-.94-.42-.64-.1-1.37-.32-1-.11-1.47c.42-1.06-.21-.42.11-1.06s-.11-.94,0-1.26.21-.63.1-.84c.21-.52-.31-.42-.1-1.05s-.42-.63-.11-1.16.11-.63.11-.84-.32.11,0-.73-.11-.32,0-.95a6.82,6.82,0,0,0,.1-1s-.31-.1-.1-.52-.53-.21-.21-.84.21-.53.21-.74-.21-.32,0-.84-.42,0-.21-.74.1-.52.1-.52-.31,0-.1-.63.1-.53.1-.53a.49.49,0,0,1-.31-.63v-.32s.31,0,.31.42a.62.62,0,0,0,.42.64,1.94,1.94,0,0,1,.42.94c.11.32.32-.63.63.21s.21-.73.21-.73a.86.86,0,0,0,0-.95c-.31-.53.42.11.11-.74l-.32-.84a.5.5,0,0,0,.32-.1,1.06,1.06,0,0,0,.94-.32c.11,0,.21-.1.32-.1-.11.63.1.52.21.63s.31.42.31.42.11,1.58.21,1.05.42.63.42.63a4,4,0,0,1,.21-1.26c.21-.53.32,2.52.32,1.79s.1-.74.21-.32.31.84.42.63.31.21.31.21a3.89,3.89,0,0,0-.1-1.47c-.21-.84.31-.1.31-.42s.21-.11.21-.21a3.71,3.71,0,0,0-.42-1.16c-.1-.1-.1-.31-.21-1.15v-.64c.53,0,.11.53.32,1.27s.42.42.42.42,0,1.47.42.84.1,1.15.42,1.05.31.63.42.32.42.1.42.1.21-.63.32.11a4.15,4.15,0,0,0,.73,1.78,2.59,2.59,0,0,0,0-1.26c-.1-.63.31-.21.21-.73s.42,0,.21-.95.74.53.31-.63.43,0,.22-.42a15.82,15.82,0,0,0-.53-1.58c-.42-.84.53,0,.53,0s-.32-.95-.53-1.37-.52-1.26-.52-1.26a2.49,2.49,0,0,0-.85-1.37,1.13,1.13,0,0,1,.74.32c.31.32,1.26,1.58,1,1a1.18,1.18,0,0,1,.21-1s1.26,1.79,1.26,1.37.42,0,.42,0-.1-.84.11-.74.63.53.73.21.74,1,.74.74,1,.73,1,.21,1.26,1.15,1.26.52,1.26,1.16,1.15.53c-.52-1.37,0-1.37-.42-1.79-.94-.95,0-.52-.21-.95a4.88,4.88,0,0,0-2-1.68,24.7,24.7,0,0,0-5.15-2.73,13.93,13.93,0,0,1,3.36,1.15c.63.43,1.26.85,1.16.21s.73.64.63.11,1.15.63,1,0,2,1,1.78.53C847,637.13,849.33,638.5,848.28,637.55Z"/><path class="cls-2" d="M765.41,676.32c-5.36-5.26-11-4.53-11-4.53a2.91,2.91,0,0,1,1.47-.2c1,.1,0-.53.84-.32s1.15.1.94-.11,1.37.53,1,0,1.68,1,1.16.32.1-.74.1-.74.95.74.84.32.53-.42.74-.32.94.21,1.26.32.31-.11.52-.32,2.11,1.16,1.58.63c-1-1.15.32-.63.32-.63s.31-.1-.32-.52.1-.63-1.47-1.16-.11-.42-1.37-.53-.63-.31-1.57-.42c-2.31,0-.84-.42-1.58-.42s-1.57.32-2.41.32a32,32,0,0,0-3.47.52,6.84,6.84,0,0,1,2.52-.84c1.68-.31-.21-.42,1.16-.52s.84-.32,1.89-.53-.42-.73.31-.84,2,.42,1.89,0,1.68-.1,2.21-.21-.32-.53-.11-.74.64-.1.42-.52,1.58-.21,1.58-.21-.21-.53-2.31-.53-.53-.31-1.47-.21-2.42.53-2.94.53a9.6,9.6,0,0,0-2.73.73c-1,.42-.95,0-.95,0,.21-.31.21-.42.21-.52s.63-.53,1.26-.74-1.36-.1.63-.73,0-.53,1.26-.95.63-.84.63-.84a13,13,0,0,0,2.31-.74c.53-.31-1-.21-.73-.52s1.68-.53,1.36-.63-1.26.1-2.73,0-1.78.52-2.52.42-1.26.84-1.68.84-.73,0-2.2,1.15-1.06,0-1.06,0a28.8,28.8,0,0,1-2.41,2.32c-.74.42.63-1.68,0-1.05a18.83,18.83,0,0,0-1.79,2.73l.53-1.26s.63-1.47.84-1.79-.74-.31-.21-1.05-.11-1,0-1.58-.42-.31-.21-1,.52-1.15-.21-.63-.11-.84.1-2-.31-.63.11-1.58a4.93,4.93,0,0,0,.31-1.79c.11-.31-.63-.52-.52-.84s.31-1.47,0-1a4,4,0,0,1-1.16.84c-.31.1-.84,1.37-1.05,1.58s-.63.84-.84,1.05-.52,1.16-.94,1.79c-.42.42-.42,1.89-.42,2.62s-.42.74-.63,1.58A16.45,16.45,0,0,0,743,664c-.94-2.52-2.2-4.1-2.31-3.47s-.73-.31-1.47-.94-.94,0-2.21-1.06-1,.11-2.31-.73-.63.1-2.41-.74-.63.53-1.79.21-3.46-.21-2.31,0c2.52.74.74,1,1.68,1.26a12.77,12.77,0,0,1,1.79,1c.31.11.31.42.73.53a18,18,0,0,1,1.79.84c.84.42-.63,1,1.47,1.89s1.26,1.16,3.36,2.31,2.52,2.21,2.52,2.21c-.84-.63-1.68-1-2.31-1.47-1.15-.84-1.68-.63-3.67-1.58s-1.79-.1-3.16-.42-.84.42-1.26.42-2,.63-2.83.74-3.05.84-2.73.95.31.21.1.73.32.42.32.42l1.15-.31c1.16-.32.21.42,1.37.1s.21.42,1.05.32c1.36-.21-.53.73,0,.52,2.2-.63,2.31-.31,2.62-.21s.74.21.95.32,1.26.53,1.26.53c-1.16-.11-2-.22-2.31-.22a10.3,10.3,0,0,0-1.89.42c-.63,0-1.89,1.06-3.15,1.37s-1.05.84-1.37,1.05c-1.26.74-3.67,2.63-2.52,2.21s.53.74,1,.53c1.78-1.16,1.89-.32,1.89-.32a4.13,4.13,0,0,0,1.57-.63c1.16-.63.74.21,1,.21s.53-.42,1.47-1.05.74.1,1,0a12,12,0,0,1,2,0,25.26,25.26,0,0,0-7,3.47c-.84.74-2.94,3.16-2.1,2.84s1-1,1.47-1.26,1,0,1.58-.42.42.1.73,0,.42.1,1.05-.42.74.21,1.16,0c1.26-.84,1.47-.32,2.1-.84s.84.52,1,.21a1.77,1.77,0,0,1,1.05-.32c.42,0,.84-.42,1.26-.63s1.15,0,1.15,0a16.72,16.72,0,0,0-6.93,6.41c-.84,1.79-1.78,4-1.15,3.68s1.05-1.78,1.78-2.31.95.53,2-1.68,1.36-.74,2.31-1.89,1-.74,1.68-1.27a3.27,3.27,0,0,1,1.47-.63c-.21.11-.31.32-.52.42l-.42.74-1.06.84-.42.74a6.74,6.74,0,0,0-1.89,2c-.21.42.11.31-.42,1.36a3.11,3.11,0,0,1-.73,1.68c-.21.32-1.05,2.21-.74,3,0,.84-.1,2-.1,2.52s.73-1.15,1.15-1.47.63,0,1-1,.74-.32,1.27-1.26,1-.53,1.46-1.16.74-2,1.16-.84c.11.42,1-1,1.26-1.79,0,0,.11-1.89,1-1.68-.52.21-.52.94-.52.94s-.32.64,0,.85a1.25,1.25,0,0,0,0,1.36s-1.16,1.26-1.16,2c0,.32.53-.31.32.21s.31.21,0,.95c-.11.31.63-.53.31.42s.32.1.21,1.26a1.13,1.13,0,0,0,.21.95s.53-1.69.63-1.26.32-1.06.42-.22.32-1.15.32-1.15.21-.53.31.1.32-1.26.42-.84.63-.73.63-1.16a1.38,1.38,0,0,0,.42-.31,1.88,1.88,0,0,0,.74-.21,9.74,9.74,0,0,0-.63,2.21c0,.31.21.1,0,1,0,.31.31-.32.31.53s.32.94.32.94l.21-.42s.21-.95.31-.63.53-1,.53-1,.1.21.21.42-.32.31.1,1.05c.11.32-.42.21-.1,1.16.1.31-.42.31.1,1.57.21.43-.73-.21.11,1.48.1.21-.63,0,.1,1.47.11.32-.63.42-.21,1.26.11.21.21.32,0,.53s-.31.52,0,1.15c.21.42-.42.11,0,1.27.21.52-.31.52,0,1.15s-.1.84,0,1.47-.42.43.21,1.69c.21.52-.52-.11-.1,1.15,0,.21-.53.21-.11,1.27.11.21-.21.31,0,.94.11.32-.21.53,0,1.16.11.42-.21.53-.1,1.16a4.93,4.93,0,0,1,.1.84s-.31.1-.1.73-.21.32,0,1.06c0,.31-.21.1-.21.73-.11.21-.53.11,0,.95a8.63,8.63,0,0,0,3.67-.11c.21-.52,0-.63-.1-.52s-.11-1,0-1.27-.42.11-.11-1.26c.11-.42-.31-.42-.1-1.05s-.32-1-.11-1.89c.32-1-.42-.11-.21-.74s-.1-.94,0-1.15-.1-.43.11-.95-.42-.63-.11-1.37-.31-.94-.1-1.47c.42-1-.21-.42.1-1s-.1-1,0-1.26a1.26,1.26,0,0,0,.11-.84c.21-.53-.32-.43-.11-1.06s-.42-.63-.1-1.15.1-.63.1-.85-.31.11,0-.73-.1-.32,0-.95a6.18,6.18,0,0,0,.11-.94s-.32-.11-.11-.53-.52-.21-.21-.84.21-.53.21-.74-.21-.31,0-.84-.42,0-.21-.73.11-.53.11-.53-.32,0-.11-.63.11-.53.11-.53a.49.49,0,0,1-.32-.63v-.31s.32,0,.32.42a.62.62,0,0,0,.42.63,1.94,1.94,0,0,1,.42.94c.1.32.31-.63.63.21s.21-.73.21-.73a.88.88,0,0,0,0-1c-.32-.52.42.11.1-.73l-.31-.85a.45.45,0,0,0,.31-.1,1.08,1.08,0,0,0,1-.32c.11,0,.21-.1.31-.1-.1.63.11.52.22.63s.31.42.31.42.1,1.58.21,1,.42.63.42.63a4.07,4.07,0,0,1,.21-1.26c.21-.52.32,2.53.32,1.79s.1-.74.21-.32.31.84.42.63.31.21.31.21a3.89,3.89,0,0,0-.1-1.47c-.21-.84.31-.1.31-.42s.21-.1.21-.21a3.71,3.71,0,0,0-.42-1.16c-.1-.1-.1-.31-.21-1.15v-.63c.53,0,.11.52.32,1.26s.42.42.42.42,0,1.47.42.84.1,1.16.42,1.05.31.63.42.32.42.1.42.1.21-.63.31.11a4.31,4.31,0,0,0,.74,1.79,2.63,2.63,0,0,0,0-1.27c-.11-.63.31-.21.21-.73s.42,0,.21-.95.73.53.31-.63.42,0,.21-.42a13,13,0,0,0-.52-1.58c-.42-.84.52,0,.52,0a14.43,14.43,0,0,0-.52-1.36c-.21-.43-.53-1.27-.53-1.27a2.4,2.4,0,0,0-.84-1.36,1.16,1.16,0,0,1,.74.31c.31.32,1.26,1.58,1,1.05a1.18,1.18,0,0,1,.21-1.05s1.26,1.79,1.26,1.37.42,0,.42,0-.11-.84.1-.74.63.53.74.21.73,1,.73.74,1,.74,1,.21,1.26,1.16,1.26.53,1.26,1.15,1.16.52c-.53-1.37,0-1.37-.42-1.79-.95-.94,0-.52-.21-.94a4.93,4.93,0,0,0-2-1.69,24.65,24.65,0,0,0-5.14-2.73,14.08,14.08,0,0,1,3.36,1.16c.63.42,1.26.84,1.15.21s.74.63.63.1,1.16.63,1,0,2,1,1.79.53C764.15,675.9,766.46,677.26,765.41,676.32Z"/><path class="cls-2" d="M720.24,719.64c-5.36-5.26-11-4.52-11-4.52a2.81,2.81,0,0,1,1.47-.21c1.05.1,0-.53.84-.32s1.16.11,1-.1,1.36.52,1,0,1.68.94,1.15.31.11-.73.11-.73.94.73.84.31.52-.42.73-.31.95.21,1.26.31.32-.1.53-.31,2.1,1.15,1.57.63c-.94-1.16.32-.63.32-.63s.31-.11-.32-.53.11-.63-1.47-1.15-.1-.42-1.36-.53-.63-.32-1.58-.42c-2.31,0-.84-.42-1.57-.42s-1.58.31-2.42.31a31.39,31.39,0,0,0-3.47.53,6.62,6.62,0,0,1,2.53-.84c1.68-.32-.21-.42,1.15-.53s.84-.31,1.89-.52-.42-.74.32-.84,2,.42,1.89,0,1.68-.11,2.2-.22-.31-.52-.1-.73.63-.11.42-.53,1.57-.21,1.57-.21-.21-.52-2.31-.52-.52-.32-1.47-.21-2.41.52-2.94.52a9.78,9.78,0,0,0-2.73.74c-1,.42-.94,0-.94,0,.21-.32.21-.42.21-.53s.63-.52,1.26-.73-1.37-.11.63-.74,0-.52,1.26-1,.63-.84.63-.84a13.93,13.93,0,0,0,2.31-.73c.52-.32-1-.21-.74-.53s1.68-.52,1.37-.63-1.26.11-2.73,0-1.79.53-2.52.42-1.26.84-1.68.84-.74,0-2.21,1.16-1.05,0-1.05,0a26.59,26.59,0,0,1-2.42,2.31c-.73.42.63-1.68,0-1a18.49,18.49,0,0,0-1.78,2.74l.52-1.27s.63-1.47.84-1.78-.73-.32-.21-1.06-.1-1.05,0-1.57-.42-.32-.21-.95.53-1.16-.21-.63-.1-.84.11-2-.32-.63.1-1.58a5.23,5.23,0,0,0,.32-1.78c.1-.32-.63-.53-.53-.85s.32-1.47,0-1a4,4,0,0,1-1.15.84c-.32.11-.84,1.37-1.05,1.58s-.63.84-.84,1-.53,1.16-.95,1.79c-.42.42-.42,1.89-.42,2.63s-.42.74-.63,1.58a16.4,16.4,0,0,0,.32,3.68c-1-2.53-2.21-4.1-2.31-3.47s-.74-.32-1.47-1-1,0-2.21-1-1,.1-2.31-.74-.63.11-2.42-.73-.63.52-1.78.21-3.47-.21-2.31,0c2.52.73.73.94,1.68,1.26a10.66,10.66,0,0,1,1.78,1c.32.1.32.42.74.52s.94.42,1.78.84-.63,1.05,1.47,1.9,1.26,1.15,3.37,2.31a5.46,5.46,0,0,1,2.52,2.21c-.84-.63-1.68-1.05-2.31-1.47-1.16-.85-1.68-.64-3.68-1.58s-1.79-.11-3.15-.42-.84.42-1.26.42-2,.63-2.84.73-3,.85-2.73,1,.31.21.1.74.32.42.32.42l1.16-.32c1.15-.31.21.42,1.36.11s.21.42,1,.31c1.37-.21-.52.74,0,.53,2.21-.63,2.31-.32,2.63-.21s.73.21.94.31,1.26.53,1.26.53c-1.15-.11-2-.21-2.31-.21a9.7,9.7,0,0,0-1.89.42c-.63,0-1.89,1-3.15,1.37s-1,.84-1.37,1c-1.25.73-3.67,2.63-2.52,2.21s.53.73,1,.52c1.78-1.15,1.89-.31,1.89-.31a4.19,4.19,0,0,0,1.58-.63c1.15-.64.73.21,1.05.21s.52-.42,1.47-1.06.73.11,1,0a13,13,0,0,1,2,0,24.68,24.68,0,0,0-7,3.48c-.85.73-3,3.15-2.11,2.83s.95-.94,1.48-1.26,1,0,1.57-.42.42.11.74,0,.42.11,1.05-.42.73.21,1.15,0c1.26-.84,1.47-.31,2.1-.84s.84.53,1,.21a1.79,1.79,0,0,1,1-.32c.42,0,.84-.42,1.26-.63s1.16,0,1.16,0a16.61,16.61,0,0,0-6.93,6.42c-.84,1.79-1.79,4-1.16,3.68s1-1.79,1.79-2.31.94.52,2-1.69,1.37-.73,2.31-1.89,1-.74,1.68-1.26a3.14,3.14,0,0,1,1.47-.63c-.2.1-.31.31-.52.42l-.42.73-1,.84-.42.74a6.75,6.75,0,0,0-1.89,2c-.21.42.1.32-.42,1.37a3.09,3.09,0,0,1-.74,1.68c-.21.31-1,2.21-.73,2.94,0,.84-.11,2-.11,2.53s.74-1.16,1.16-1.47.63,0,1-1.06.73-.31,1.26-1.26,1.05-.52,1.47-1.16.73-2,1.16-.84c.1.42,1.05-1,1.25-1.78,0,0,.11-1.9,1.06-1.69-.53.21-.53,1-.53,1s-.31.63,0,.84a1.29,1.29,0,0,0,0,1.37s-1.16,1.26-1.16,2c0,.31.53-.32.32.21s.31.21,0,.94c-.11.32.63-.52.31.42s.32.11.22,1.27a1.07,1.07,0,0,0,.21.94s.52-1.68.63-1.26.31-1.05.42-.21.31-1.16.31-1.16.21-.52.32.11.31-1.26.42-.84.63-.74.63-1.16a1.53,1.53,0,0,0,.42-.32,1.84,1.84,0,0,0,.73-.21,10.55,10.55,0,0,0-.63,2.21c0,.32.21.11,0,1,0,.32.32-.31.32.53s.31.95.31.95l.21-.42s.21-1,.32-.64.52-1.05.52-1.05.11.21.21.42-.31.32.11,1.06c.1.31-.42.21-.11,1.15.11.32-.42.32.11,1.58.21.42-.74-.21.1,1.47.11.21-.63,0,.11,1.47.1.32-.63.42-.21,1.27.1.21.21.31,0,.52s-.32.53,0,1.16c.21.42-.42.1,0,1.26.21.53-.32.53,0,1.16s-.11.84,0,1.47-.42.42.21,1.68c.21.53-.53-.1-.11,1.16,0,.21-.52.21-.1,1.26.1.21-.21.32,0,1,.1.31-.21.52,0,1.15.1.42-.21.53-.11,1.16a4.6,4.6,0,0,1,.11.84s-.32.11-.11.74-.21.31,0,1c0,.31-.21.11-.21.74-.1.21-.52.1,0,.94a8.52,8.52,0,0,0,3.68-.1c.21-.53,0-.63-.11-.53s-.1-1.05,0-1.26-.42.1-.1-1.26c.1-.42-.32-.42-.11-1.05s-.31-1.06-.1-1.9c.31-1-.42-.1-.21-.73s-.11-1,0-1.16-.11-.42.1-1-.42-.63-.1-1.36-.32-.95-.11-1.48c.42-1-.21-.42.11-1s-.11-.94,0-1.26.21-.63.1-.84c.21-.53-.31-.42-.1-1s-.42-.63-.11-1.16.11-.63.11-.84-.32.11,0-.74-.11-.31,0-.94a6.82,6.82,0,0,0,.1-.95s-.31-.1-.1-.52-.53-.22-.21-.85.21-.52.21-.73-.21-.32,0-.84-.42,0-.21-.74.1-.53.1-.53-.31,0-.1-.63.1-.52.1-.52a.49.49,0,0,1-.31-.63v-.32s.31,0,.31.42a.6.6,0,0,0,.42.63,2,2,0,0,1,.42.95c.11.31.32-.63.63.21s.21-.74.21-.74a.84.84,0,0,0,0-.94c-.31-.53.42.1.11-.74l-.32-.84a.47.47,0,0,0,.32-.11,1,1,0,0,0,.94-.31c.11,0,.21-.11.32-.11-.11.63.1.53.21.63s.31.43.31.43.11,1.57.21,1.05.42.63.42.63a4,4,0,0,1,.21-1.26c.11-.53.32,2.52.32,1.78s.1-.73.21-.31.32.84.42.63.32.21.32.21a4,4,0,0,0-.11-1.47c-.21-.84.31-.11.31-.42s.21-.11.21-.21a5.19,5.19,0,0,0-.41-1.16c-.11-.11-.11-.32-.22-1.16v-.63c.53,0,.11.53.32,1.26s.42.42.42.42,0,1.48.42.85.1,1.15.42,1,.32.63.42.31.42.11.42.11.21-.63.32.1a4.15,4.15,0,0,0,.73,1.79,2.36,2.36,0,0,0,0-1.26c-.1-.63.32-.21.21-.74s.42,0,.21-.94.74.52.32-.63.42,0,.21-.43a13.55,13.55,0,0,0-.53-1.57c-.42-.84.53,0,.53,0s-.32-.95-.53-1.37-.52-1.26-.52-1.26a2.48,2.48,0,0,0-.84-1.37,1.11,1.11,0,0,1,.73.32c.32.31,1.26,1.57,1.05,1a1.17,1.17,0,0,1,.21-1s1.26,1.78,1.26,1.36.42,0,.42,0-.1-.84.11-.73.63.52.73.21.74,1.05.74.73,1,.74,1,.21,1.26,1.16,1.26.53,1.26,1.16,1.15.53c-.52-1.37,0-1.37-.42-1.79-.94-.95,0-.53-.21-.95a4.88,4.88,0,0,0-2-1.68,24.7,24.7,0,0,0-5.15-2.73,13.93,13.93,0,0,1,3.36,1.15c.63.42,1.26.84,1.16.21s.73.63.63.11,1.15.63,1.05,0,2,.94,1.78.52C719,719.12,721.29,720.48,720.24,719.64Z"/><path class="cls-2" d="M848.28,719.64c-5.36-5.26-11-4.52-11-4.52a2.79,2.79,0,0,1,1.47-.21c1,.1,0-.53.84-.32s1.16.11,1-.1,1.36.52,1,0,1.68.94,1.15.31.11-.73.11-.73.94.73.84.31.52-.42.73-.31,1,.21,1.26.31.32-.1.53-.31,2.1,1.15,1.57.63c-.94-1.16.32-.63.32-.63s.31-.11-.32-.53.11-.63-1.47-1.15-.1-.42-1.36-.53-.63-.32-1.58-.42c-2.31,0-.84-.42-1.57-.42s-1.58.31-2.42.31a31.39,31.39,0,0,0-3.47.53,6.62,6.62,0,0,1,2.53-.84c1.68-.32-.21-.42,1.15-.53s.84-.31,1.89-.52-.42-.74.32-.84,2,.42,1.89,0,1.68-.11,2.2-.22-.31-.52-.1-.73.63-.11.42-.53,1.57-.21,1.57-.21-.21-.52-2.31-.52-.52-.32-1.47-.21-2.41.52-2.94.52a9.78,9.78,0,0,0-2.73.74c-1,.42-.95,0-.95,0,.22-.32.22-.42.22-.53s.63-.52,1.26-.73-1.37-.11.63-.74,0-.52,1.26-1,.63-.84.63-.84a13.93,13.93,0,0,0,2.31-.73c.52-.32-1-.21-.74-.53s1.68-.52,1.37-.63-1.26.11-2.73,0-1.79.53-2.53.42-1.25.84-1.68.84-.73,0-2.2,1.16-1,0-1,0a26.59,26.59,0,0,1-2.42,2.31c-.73.42.63-1.68,0-1a18.49,18.49,0,0,0-1.78,2.74l.52-1.27s.63-1.47.84-1.78-.73-.32-.21-1.06-.1-1.05,0-1.57-.42-.32-.21-.95.53-1.16-.21-.63-.1-.84.11-2-.32-.63.1-1.58a5.23,5.23,0,0,0,.32-1.78c.1-.32-.63-.53-.53-.85s.32-1.47,0-1a4,4,0,0,1-1.15.84c-.32.11-.84,1.37-1.05,1.58s-.63.84-.84,1-.53,1.16-1,1.79c-.42.42-.42,1.89-.42,2.63s-.42.74-.63,1.58a16.4,16.4,0,0,0,.32,3.68c-.95-2.53-2.21-4.1-2.32-3.47s-.73-.32-1.47-1-.94,0-2.2-1-1,.1-2.31-.74-.63.11-2.42-.73-.63.52-1.78.21-3.47-.21-2.32,0c2.53.73.74.94,1.69,1.26a10.66,10.66,0,0,1,1.78,1c.32.1.32.42.74.52s.94.42,1.78.84-.63,1.05,1.47,1.9,1.26,1.15,3.36,2.31,2.52,2.21,2.52,2.21c-.84-.63-1.68-1.05-2.31-1.47-1.15-.85-1.68-.64-3.67-1.58s-1.79-.11-3.15-.42-.84.42-1.26.42-2,.63-2.84.73-3.05.85-2.73,1,.31.21.1.74.32.42.32.42l1.15-.32c1.16-.31.22.42,1.37.11s.21.42,1.05.31c1.37-.21-.52.74,0,.53,2.21-.63,2.31-.32,2.63-.21s.73.21.94.31,1.26.53,1.26.53c-1.15-.11-2-.21-2.31-.21a9.7,9.7,0,0,0-1.89.42c-.63,0-1.89,1-3.15,1.37s-1.05.84-1.37,1c-1.26.73-3.67,2.63-2.52,2.21s.53.73,1,.52c1.78-1.15,1.89-.31,1.89-.31a4.19,4.19,0,0,0,1.58-.63c1.15-.64.73.21,1,.21s.52-.42,1.47-1.06.73.11,1,0a13,13,0,0,1,2,0,24.93,24.93,0,0,0-7,3.48c-.84.73-2.94,3.15-2.1,2.83s1-.94,1.47-1.26,1,0,1.58-.42.42.11.73,0,.42.11,1.06-.42.73.21,1.15,0c1.26-.84,1.47-.31,2.1-.84s.84.53,1,.21a1.79,1.79,0,0,1,1.05-.32c.42,0,.84-.42,1.26-.63s1.16,0,1.16,0a16.61,16.61,0,0,0-6.93,6.42c-.84,1.79-1.79,4-1.16,3.68s1.05-1.79,1.79-2.31.94.52,2-1.69,1.37-.73,2.31-1.89,1-.74,1.68-1.26a3.14,3.14,0,0,1,1.47-.63c-.21.1-.31.31-.52.42l-.42.73-1.05.84-.42.74a6.75,6.75,0,0,0-1.89,2c-.21.42.1.32-.42,1.37a3.09,3.09,0,0,1-.74,1.68c-.21.31-1.05,2.21-.73,2.94,0,.84-.11,2-.11,2.53s.74-1.16,1.16-1.47.63,0,1-1.06.73-.31,1.26-1.26,1-.52,1.47-1.16.73-2,1.15-.84c.11.42,1-1,1.26-1.78,0,0,.11-1.9,1-1.69-.52.21-.52,1-.52,1s-.32.63,0,.84a1.27,1.27,0,0,0,0,1.37s-1.16,1.26-1.16,2c0,.31.53-.32.32.21s.31.21,0,.94c-.11.32.63-.52.31.42s.32.11.21,1.27a1.1,1.1,0,0,0,.21.94s.53-1.68.63-1.26.32-1.05.42-.21.32-1.16.32-1.16.21-.52.31.11.32-1.26.42-.84.63-.74.63-1.16a1.45,1.45,0,0,0,.43-.32,1.88,1.88,0,0,0,.73-.21,9.93,9.93,0,0,0-.63,2.21c0,.32.21.11,0,1,0,.32.32-.31.32.53s.31.95.31.95l.21-.42s.21-1,.32-.64.52-1.05.52-1.05.11.21.21.42-.31.32.11,1.06c.1.31-.42.21-.11,1.15.11.32-.42.32.11,1.58.21.42-.74-.21.1,1.47.11.21-.63,0,.11,1.47.1.32-.63.42-.21,1.27.1.21.21.31,0,.52s-.32.53,0,1.16c.21.42-.42.1,0,1.26.21.53-.32.53,0,1.16s-.11.84,0,1.47-.42.42.21,1.68c.21.53-.53-.1-.11,1.16,0,.21-.52.21-.1,1.26.1.21-.21.32,0,1,.1.31-.21.52,0,1.15.1.42-.21.53-.11,1.16a4.6,4.6,0,0,1,.11.84s-.32.11-.11.74-.21.31,0,1c0,.31-.21.11-.21.74-.1.21-.52.1,0,.94a8.52,8.52,0,0,0,3.68-.1c.21-.53,0-.63-.11-.53a2.64,2.64,0,0,1,0-1.26c.11-.21-.42.1-.1-1.26.1-.42-.32-.42-.11-1.05s-.31-1.06-.1-1.9c.31-1-.42-.1-.21-.73s-.11-1,0-1.16-.11-.42.1-1-.42-.63-.1-1.36-.32-.95-.11-1.48c.42-1-.21-.42.11-1s-.11-.94,0-1.26.21-.63.1-.84c.21-.53-.31-.42-.1-1s-.42-.63-.11-1.16.11-.63.11-.84-.32.11,0-.74-.11-.31,0-.94a6.82,6.82,0,0,0,.1-.95s-.31-.1-.1-.52-.53-.22-.21-.85.21-.52.21-.73-.21-.32,0-.84-.42,0-.21-.74.1-.53.1-.53-.31,0-.1-.63.1-.52.1-.52a.49.49,0,0,1-.31-.63v-.32s.31,0,.31.42a.6.6,0,0,0,.42.63,2,2,0,0,1,.42.95c.11.31.32-.63.63.21s.21-.74.21-.74a.84.84,0,0,0,0-.94c-.31-.53.42.1.11-.74l-.32-.84a.47.47,0,0,0,.32-.11,1,1,0,0,0,.94-.31c.11,0,.21-.11.32-.11-.11.63.1.53.21.63s.31.43.31.43.11,1.57.21,1.05.42.63.42.63a4,4,0,0,1,.21-1.26c.11-.53.32,2.52.32,1.78s.1-.73.21-.31.31.84.42.63.31.21.31.21a3.89,3.89,0,0,0-.1-1.47c-.21-.84.31-.11.31-.42s.21-.11.21-.21a4.77,4.77,0,0,0-.42-1.16c-.1-.11-.1-.32-.21-1.16v-.63c.53,0,.11.53.32,1.26s.42.42.42.42,0,1.48.42.85.1,1.15.42,1,.31.63.42.31.42.11.42.11.21-.63.32.1a4.15,4.15,0,0,0,.73,1.79,2.59,2.59,0,0,0,0-1.26c-.1-.63.31-.21.21-.74s.42,0,.21-.94.74.52.31-.63.43,0,.22-.43a15.88,15.88,0,0,0-.53-1.57c-.42-.84.53,0,.53,0s-.32-.95-.53-1.37-.52-1.26-.52-1.26a2.46,2.46,0,0,0-.85-1.37,1.13,1.13,0,0,1,.74.32c.31.31,1.26,1.57,1,1a1.17,1.17,0,0,1,.21-1s1.26,1.78,1.26,1.36.42,0,.42,0-.1-.84.11-.73.63.52.73.21.74,1.05.74.73,1,.74,1,.21,1.26,1.16,1.26.53,1.26,1.16,1.15.53c-.52-1.37,0-1.37-.42-1.79-.94-.95,0-.53-.21-.95a4.88,4.88,0,0,0-2-1.68,24.7,24.7,0,0,0-5.15-2.73,13.93,13.93,0,0,1,3.36,1.15c.63.42,1.26.84,1.16.21s.73.63.63.11,1.15.63,1,0,2,.94,1.78.52C847,719.12,849.33,720.48,848.28,719.64Z"/><path class="cls-2" d="M854.4,544c-5.36-5.25-11-4.52-11-4.52a3,3,0,0,1,1.47-.21c1,.11,0-.52.84-.31s1.16.1,1-.11,1.36.53,1,0,1.68,1,1.15.32.11-.74.11-.74.94.74.84.32.52-.42.73-.32,1,.21,1.27.32.31-.11.52-.32,2.1,1.16,1.58.63c-1-1.16.31-.63.31-.63s.32-.1-.31-.53.1-.63-1.47-1.15-.11-.42-1.37-.53-.63-.31-1.58-.42c-2.31,0-.84-.42-1.57-.42s-1.58.32-2.42.32a31.68,31.68,0,0,0-3.46.52,6.73,6.73,0,0,1,2.52-.84c1.68-.31-.21-.42,1.15-.53s.84-.31,1.89-.52-.42-.74.32-.84,2,.42,1.89,0,1.68-.11,2.2-.21-.31-.53-.1-.74.63-.1.42-.52,1.58-.22,1.58-.22-.22-.52-2.31-.52-.53-.32-1.48-.21-2.41.52-2.94.52a9.78,9.78,0,0,0-2.73.74c-1,.42-.94,0-.94,0,.21-.31.21-.42.21-.53s.63-.52,1.26-.73-1.37-.11.63-.74,0-.52,1.26-.94.63-.85.63-.85a13,13,0,0,0,2.31-.73c.52-.32-1-.21-.74-.53s1.68-.52,1.37-.63-1.26.11-2.73,0-1.79.53-2.52.42-1.26.84-1.68.84-.74,0-2.21,1.16-1,0-1,0a27.78,27.78,0,0,1-2.42,2.32c-.73.41.63-1.69,0-1.06A18.49,18.49,0,0,0,836,533l.52-1.27a19.58,19.58,0,0,1,.85-1.78c.2-.32-.74-.32-.22-1.05s-.1-1.06,0-1.58-.42-.32-.21-1,.53-1.15-.21-.63-.1-.84.11-2-.32-.63.1-1.57a5.31,5.31,0,0,0,.32-1.79c.11-.32-.63-.53-.53-.84s.32-1.47,0-1.06a3.87,3.87,0,0,1-1.15.85c-.32.1-.84,1.36-1.05,1.57s-.63.85-.84,1.06-.53,1.15-1,1.78c-.42.42-.42,1.9-.42,2.63s-.42.74-.63,1.58a16.34,16.34,0,0,0,.32,3.68c-.95-2.52-2.21-4.1-2.31-3.47s-.74-.32-1.47-.95-1,0-2.21-1.05-1,.11-2.31-.73-.63.1-2.42-.74-.63.53-1.78.21-3.47-.21-2.31,0c2.52.74.73,1,1.68,1.26a11.49,11.49,0,0,1,1.78,1c.32.1.32.42.74.52s.94.43,1.78.84-.63,1.06,1.47,1.9,1.26,1.15,3.37,2.31,2.52,2.21,2.52,2.21c-.84-.63-1.68-1-2.31-1.47-1.16-.84-1.68-.63-3.68-1.58s-1.79-.11-3.15-.42-.84.42-1.26.42-2,.63-2.84.74-3,.84-2.73.94.32.21.11.74.31.42.31.42l1.16-.32c1.15-.31.21.42,1.36.11s.21.42,1.05.31c1.37-.21-.52.74,0,.53,2.21-.63,2.31-.31,2.63-.21s.73.21.94.32,1.26.52,1.26.52c-1.15-.1-2-.21-2.31-.21a10.49,10.49,0,0,0-1.89.42c-.63,0-1.89,1.05-3.15,1.37s-1,.84-1.36,1.05c-1.26.74-3.68,2.63-2.52,2.21s.52.73.94.53c1.79-1.16,1.89-.32,1.89-.32a4.19,4.19,0,0,0,1.58-.63c1.15-.63.73.21,1,.21s.52-.42,1.47-1.05.73.1,1,0a11.86,11.86,0,0,1,2,0,24.74,24.74,0,0,0-7,3.47c-.84.73-2.94,3.15-2.1,2.84s.94-1,1.47-1.26,1,0,1.57-.43.42.11.74,0,.42.11,1.05-.42.73.21,1.15,0c1.26-.84,1.47-.31,2.1-.84s.84.53,1,.21a1.78,1.78,0,0,1,1.05-.31c.42,0,.84-.42,1.27-.63s1.15,0,1.15,0a16.53,16.53,0,0,0-6.93,6.41c-.84,1.79-1.79,4-1.16,3.68s1.05-1.79,1.79-2.31.94.52,2-1.68,1.37-.74,2.31-1.9,1-.73,1.68-1.26a3.28,3.28,0,0,1,1.48-.63c-.21.11-.32.31-.53.42l-.42.74-1.05.84-.42.73a6.75,6.75,0,0,0-1.89,2c-.21.42.1.32-.42,1.37a3.09,3.09,0,0,1-.74,1.68c-.21.32-1,2.21-.73,3,0,.84-.11,2-.11,2.52s.74-1.16,1.16-1.47.63,0,1-1,.73-.32,1.26-1.27,1-.52,1.47-1.15.74-2,1.16-.84c.1.42,1-1.06,1.26-1.79,0,0,.1-1.89,1-1.68-.53.21-.53.94-.53.94s-.31.63,0,.84a1.29,1.29,0,0,0,0,1.37s-1.15,1.26-1.15,2c0,.31.52-.32.31.21s.32.21,0,.94c-.1.32.63-.52.32.43s.31.1.21,1.26a1.07,1.07,0,0,0,.21.94s.52-1.68.63-1.26.31-1,.42-.21.31-1.16.31-1.16.21-.52.32.11.31-1.26.42-.84.63-.74.63-1.16a1.52,1.52,0,0,0,.42-.31,2,2,0,0,0,.73-.21,10.34,10.34,0,0,0-.63,2.21c0,.31.21.1,0,1,0,.31.32-.32.32.52s.31,1,.31,1l.21-.42s.21-.95.32-.63.52-1,.52-1,.11.21.21.42-.31.31.11,1.05c.1.31-.42.21-.11,1.15.11.32-.42.32.11,1.58.21.42-.74-.21.1,1.47.11.21-.63,0,.11,1.48.1.31-.63.42-.21,1.26.1.21.21.31,0,.52s-.32.53,0,1.16c.21.42-.42.11,0,1.26.21.53-.32.53,0,1.16s-.11.84,0,1.47-.42.42.21,1.68c.21.53-.53-.1-.11,1.16,0,.21-.52.21-.1,1.26.1.21-.21.32,0,.95.1.31-.21.52,0,1.16.1.42-.21.52-.11,1.15a4.6,4.6,0,0,1,.11.84s-.32.11-.11.74-.21.32,0,1.05c0,.32-.21.11-.21.74-.1.21-.52.1,0,.94a8.52,8.52,0,0,0,3.68-.1c.21-.53,0-.63-.11-.53s-.1-1,0-1.26-.42.11-.1-1.26c.1-.42-.32-.42-.11-1s-.31-1.05-.1-1.9c.31-1-.42-.1-.21-.73s-.11-1,0-1.16-.11-.42.1-.94-.42-.63-.1-1.37-.32-1-.11-1.47c.42-1-.21-.42.11-1s-.11-1,0-1.27.21-.63.1-.84c.21-.52-.31-.42-.1-1.05s-.42-.63-.11-1.16.11-.63.11-.84-.32.11,0-.73-.11-.32,0-1a6.82,6.82,0,0,0,.1-1s-.31-.1-.1-.52-.53-.21-.21-.84.21-.53.21-.74-.21-.32,0-.84-.42,0-.21-.74.1-.52.1-.52-.31,0-.1-.63.1-.53.1-.53a.48.48,0,0,1-.31-.63v-.32s.31,0,.31.42a.6.6,0,0,0,.42.63,2,2,0,0,1,.42,1c0,.42.32-.63.63.21s.21-.73.21-.73a.86.86,0,0,0,0-1c-.31-.53.42.1.11-.74l-.32-.84a.5.5,0,0,0,.32-.1,1.06,1.06,0,0,0,.94-.32c.11,0,.22-.1.32-.1-.1.63.11.52.21.63s.32.42.32.42.1,1.57.21,1,.42.63.42.63a4,4,0,0,1,.21-1.26c.1-.53.31,2.52.31,1.79s.11-.74.21-.32.32.84.42.63.32.21.32.21a4,4,0,0,0-.11-1.47c-.21-.84.32-.11.32-.42s.21-.11.21-.21a4,4,0,0,0-.42-1.16c-.11-.1-.11-.31-.21-1.15v-.64c.52,0,.1.53.31,1.27s.42.42.42.42,0,1.47.42.84.11,1.16.42,1.05.32.63.42.31.42.11.42.11.21-.63.32.11a4.15,4.15,0,0,0,.73,1.78,2.36,2.36,0,0,0,0-1.26c-.1-.63.32-.21.21-.74s.42,0,.21-.94.74.52.32-.63.42,0,.21-.42a13.52,13.52,0,0,0-.53-1.58c-.42-.84.53,0,.53,0s-.32-1-.53-1.37-.52-1.26-.52-1.26a2.48,2.48,0,0,0-.84-1.37,1.11,1.11,0,0,1,.73.32c.32.31,1.26,1.58,1,1.05a1.17,1.17,0,0,1,.21-1.05s1.26,1.79,1.26,1.37.42,0,.42,0-.1-.85.11-.74.63.53.73.21.74,1,.74.74,1,.73,1,.21,1.26,1.15,1.26.52,1.26,1.16,1.16.53c-.53-1.37,0-1.37-.42-1.79-.95-1,0-.53-.21-1a5,5,0,0,0-2-1.68,24.7,24.7,0,0,0-5.15-2.73,13.93,13.93,0,0,1,3.36,1.15c.63.42,1.26.85,1.16.22s.73.63.63.1,1.15.63,1,0,2,.95,1.78.53C853.14,543.43,855.45,544.9,854.4,544Z"/><path class="cls-2" d="M760.44,601.51c-5.35-5.26-11-4.53-11-4.53a3,3,0,0,1,1.47-.21c1,.11,0-.52.84-.31s1.16.1.95-.11,1.36.53,1.05,0,1.68.95,1.16.32.1-.74.1-.74.94.74.84.32.52-.42.73-.32,1,.21,1.27.32.31-.11.52-.32,2.1,1.16,1.58.63c-.95-1.15.31-.63.31-.63s.32-.1-.31-.52.1-.63-1.47-1.16-.11-.42-1.37-.53-.63-.31-1.57-.42c-2.32,0-.85-.42-1.58-.42s-1.58.32-2.42.32a31.68,31.68,0,0,0-3.46.52,6.73,6.73,0,0,1,2.52-.84c1.68-.31-.21-.42,1.15-.52s.84-.32,1.89-.53-.42-.74.32-.84,2,.42,1.89,0,1.68-.1,2.21-.21-.32-.53-.11-.74.63-.1.42-.52,1.58-.21,1.58-.21-.21-.53-2.31-.53-.53-.31-1.47-.21-2.42.53-2.95.53a9.69,9.69,0,0,0-2.73.73c-1.05.42-.94,0-.94,0,.21-.31.21-.42.21-.52s.63-.53,1.26-.74-1.37-.1.63-.73,0-.53,1.26-1,.63-.84.63-.84a13.26,13.26,0,0,0,2.31-.74c.52-.31-1.05-.21-.73-.53s1.68-.52,1.36-.62-1.26.1-2.73,0-1.79.52-2.52.42-1.26.84-1.68.84-.74,0-2.21,1.15-1,0-1,0a28.8,28.8,0,0,1-2.41,2.32c-.74.42.63-1.69,0-1a18.83,18.83,0,0,0-1.79,2.73l.53-1.26s.63-1.47.84-1.79-.74-.32-.21-1-.11-1.05,0-1.58-.43-.31-.21-.95.52-1.15-.22-.63-.1-.84.11-2-.31-.63.11-1.57a5.17,5.17,0,0,0,.31-1.79c.1-.31-.63-.53-.53-.84s.32-1.47,0-1.05a3.87,3.87,0,0,1-1.15.84c-.31.1-.84,1.37-1,1.58s-.63.84-.84,1-.53,1.15-1,1.78c-.42.43-.42,1.9-.42,2.63s-.42.74-.63,1.58a16.34,16.34,0,0,0,.32,3.68c-1-2.52-2.21-4.1-2.31-3.47s-.74-.31-1.47-1-.95,0-2.21-1-1.05.11-2.31-.73-.63.1-2.42-.74-.63.53-1.78.21-3.47-.21-2.31,0c2.52.74.73.95,1.68,1.26a12.46,12.46,0,0,1,1.78.95c.32.1.32.42.74.53a18,18,0,0,1,1.79.84c.84.42-.64,1.05,1.47,1.89s1.26,1.16,3.36,2.31,2.52,2.21,2.52,2.21c-.84-.63-1.68-1.05-2.31-1.47-1.16-.84-1.68-.63-3.68-1.58s-1.78-.1-3.15-.42-.84.42-1.26.42-2,.63-2.84.74-3,.84-2.73.94.32.21.11.74.31.42.31.42l1.16-.31c1.15-.32.21.42,1.36.1s.21.42,1,.32c1.37-.21-.52.73,0,.52,2.21-.63,2.31-.31,2.63-.21s.73.21,1,.32,1.26.52,1.26.52c-1.16-.1-2-.21-2.31-.21a10.41,10.41,0,0,0-1.9.42c-.63,0-1.89,1.06-3.15,1.37s-1.05.84-1.36,1c-1.26.74-3.68,2.63-2.52,2.21s.52.74.94.53c1.79-1.16,1.89-.32,1.89-.32a4.19,4.19,0,0,0,1.58-.63c1.15-.63.73.21,1,.21s.52-.42,1.47-1,.73.1,1.05,0a12,12,0,0,1,2,0,24.69,24.69,0,0,0-7,3.47c-.84.73-2.94,3.15-2.1,2.84s.94-.95,1.47-1.26,1.05,0,1.57-.42.42.1.74,0,.42.1,1-.43.73.22,1.15,0c1.26-.84,1.48-.31,2.11-.84s.83.53,1.05.21a1.76,1.76,0,0,1,1-.31c.42,0,.84-.42,1.26-.63s1.15,0,1.15,0a16.6,16.6,0,0,0-6.93,6.41c-.84,1.79-1.79,4-1.16,3.68s1-1.78,1.79-2.31.94.53,2-1.68,1.37-.74,2.32-1.9,1.05-.73,1.68-1.26a3.27,3.27,0,0,1,1.47-.63c-.21.11-.32.32-.53.42l-.42.74-1,.84-.42.74a6.65,6.65,0,0,0-1.89,2c-.21.42.1.32-.42,1.37a3.06,3.06,0,0,1-.74,1.68c-.2.32-1.05,2.21-.73,3,0,.84-.1,2-.1,2.52s.73-1.16,1.15-1.47.63,0,1.05-1,.74-.32,1.26-1.26,1-.53,1.47-1.16.74-2,1.16-.84c.1.42,1-1,1.26-1.79,0,0,.1-1.89,1-1.68-.53.21-.53.94-.53.94s-.31.63,0,.84a1.29,1.29,0,0,0,0,1.37s-1.15,1.26-1.15,2c0,.32.52-.32.31.21s.32.21,0,1c-.1.31.63-.53.32.42s.31.1.21,1.26a1.1,1.1,0,0,0,.21,1s.52-1.69.63-1.27.31-1.05.42-.21.31-1.15.31-1.15.21-.53.32.1.31-1.26.42-.84.63-.74.63-1.16a1.52,1.52,0,0,0,.42-.31,2,2,0,0,0,.73-.21,10.34,10.34,0,0,0-.63,2.21c0,.31.21.1,0,1,0,.31.32-.32.32.52s.31.95.31.95l.21-.42s.21-1,.32-.63.52-1.05.52-1.05.11.21.21.42-.31.31.11,1c.1.32-.42.21-.11,1.16.11.31-.42.31.11,1.57.21.42-.74-.21.1,1.48.11.21-.63,0,.11,1.47.1.31-.63.42-.21,1.26.1.21.21.32,0,.53s-.32.52,0,1.15c.21.42-.42.11,0,1.27.21.52-.32.52,0,1.15s-.11.84,0,1.47-.42.42.21,1.69c.21.52-.53-.11-.11,1.15,0,.21-.52.21-.1,1.27.1.2-.21.31,0,.94.1.32-.21.53,0,1.16.1.42-.21.52-.11,1.16a4.5,4.5,0,0,1,.11.84s-.32.1-.11.73-.21.32,0,1c0,.32-.21.11-.21.74-.1.21-.52.1,0,1a8.67,8.67,0,0,0,3.68-.11c.21-.52,0-.63-.11-.52a2.69,2.69,0,0,1,0-1.27c.11-.21-.41.11-.1-1.26.1-.42-.31-.42-.1-1s-.32-1-.11-1.89c.31-1.06-.42-.11-.21-.74s-.11-1,0-1.16-.11-.42.11-.94-.42-.63-.11-1.37-.31-.95-.11-1.47c.43-1-.2-.42.11-1s-.11-1,0-1.27.21-.63.11-.84c.21-.52-.32-.42-.11-1s-.42-.63-.11-1.16.11-.63.11-.84-.31.11,0-.73-.11-.32,0-1a6.22,6.22,0,0,0,.11-.95s-.32-.1-.11-.52-.53-.21-.21-.84.21-.53.21-.74-.21-.31,0-.84-.42,0-.21-.74.1-.52.1-.52-.31,0-.1-.63.1-.53.1-.53a.48.48,0,0,1-.31-.63v-.32s.31,0,.31.43a.62.62,0,0,0,.43.63,1.94,1.94,0,0,1,.42.94c.1.32.31-.63.63.21s.21-.73.21-.73a.88.88,0,0,0,0-1c-.32-.53.42.11.1-.73l-.31-.85a.45.45,0,0,0,.31-.1,1.08,1.08,0,0,0,.95-.32c.1,0,.21-.1.31-.1-.1.63.11.52.21.63s.32.42.32.42.1,1.58.21,1,.42.63.42.63a4.07,4.07,0,0,1,.21-1.26c.21-.52.31,2.52.31,1.79s.11-.74.21-.32.32.84.42.63.32.21.32.21a4,4,0,0,0-.11-1.47c-.21-.84.32-.1.32-.42s.21-.1.21-.21a5.41,5.41,0,0,0-.42-1.16c-.11-.1-.11-.31-.21-1.15v-.63c.52,0,.1.52.31,1.26s.42.42.42.42,0,1.47.42.84.11,1.16.42,1,.32.63.42.32.42.1.42.1.21-.63.32.11a4.29,4.29,0,0,0,.73,1.79,2.41,2.41,0,0,0,0-1.27c-.1-.63.32-.21.21-.73s.42,0,.21-1,.74.53.32-.63.42,0,.21-.42a13.52,13.52,0,0,0-.53-1.58c-.42-.84.53,0,.53,0a14.35,14.35,0,0,0-.53-1.36c-.21-.43-.52-1.27-.52-1.27a2.47,2.47,0,0,0-.84-1.36,1.13,1.13,0,0,1,.73.31c.32.32,1.26,1.58,1,1a1.18,1.18,0,0,1,.21-1s1.26,1.79,1.26,1.37.42,0,.42,0-.1-.84.11-.74.63.53.73.21.74,1.05.74.74,1.05.74,1.05.21,1.26,1.16,1.26.53,1.26,1.15,1.16.52c-.53-1.37,0-1.37-.42-1.79-1-.94,0-.52-.21-.94a4.93,4.93,0,0,0-2-1.69,24.7,24.7,0,0,0-5.15-2.73,13.93,13.93,0,0,1,3.36,1.16c.64.42,1.27.84,1.16.21s.73.63.63.1,1.16.63,1,0,2,1,1.79.53C759.29,601.09,761.6,602.45,760.44,601.51Z"/><path class="cls-2" d="M720.23,531.12c-5.36-5.25-11-4.52-11-4.52a3,3,0,0,1,1.47-.21c1.05.11,0-.52.84-.31s1.16.1,1-.11,1.36.53,1,0,1.68.95,1.15.32.11-.74.11-.74.94.74.84.32.52-.42.73-.32.95.21,1.26.32.32-.11.53-.32,2.1,1.16,1.58.63c-1-1.15.31-.63.31-.63s.32-.1-.31-.52.1-.64-1.48-1.16-.1-.42-1.36-.53-.63-.31-1.58-.42c-2.31,0-.84-.42-1.57-.42s-1.58.32-2.42.32a31.68,31.68,0,0,0-3.46.52,6.73,6.73,0,0,1,2.52-.84c1.68-.31-.21-.42,1.15-.52s.84-.32,1.89-.53-.42-.74.32-.84,2,.42,1.89,0,1.68-.11,2.21-.21-.32-.53-.11-.74.63-.1.42-.52,1.58-.21,1.58-.21-.22-.53-2.31-.53-.53-.31-1.48-.21-2.41.53-2.94.53a9.69,9.69,0,0,0-2.73.73c-1,.42-.94,0-.94,0,.21-.31.21-.42.21-.52s.63-.53,1.26-.74-1.37-.1.63-.74,0-.52,1.26-.94.63-.84.63-.84a13.26,13.26,0,0,0,2.31-.74c.52-.32-1.05-.21-.74-.53s1.68-.52,1.37-.63-1.26.11-2.73,0-1.79.53-2.52.42-1.26.84-1.68.84-.74,0-2.21,1.16-1.05,0-1.05,0a27.52,27.52,0,0,1-2.41,2.31c-.74.43.63-1.68,0-1a19.34,19.34,0,0,0-1.79,2.74l.52-1.26s.64-1.48.85-1.79-.74-.32-.21-1-.11-1.06,0-1.58-.43-.32-.22-1,.53-1.15-.21-.63-.1-.84.11-2-.32-.63.1-1.57a4.82,4.82,0,0,0,.32-1.79c.11-.32-.63-.53-.53-.84s.32-1.48,0-1.05a4,4,0,0,1-1.15.84c-.32.1-.84,1.36-1,1.57s-.63.85-.84,1.06-.53,1.15-.95,1.78c-.42.43-.42,1.9-.42,2.63s-.42.74-.63,1.58a16.34,16.34,0,0,0,.32,3.68c-1-2.52-2.21-4.1-2.31-3.47s-.74-.32-1.47-1-1,0-2.21-1-1,.11-2.31-.73-.63.1-2.42-.74-.63.53-1.78.21-3.47-.21-2.31,0c2.52.74.73.95,1.68,1.26a11.49,11.49,0,0,1,1.78.95c.32.1.32.42.74.53a19.32,19.32,0,0,1,1.78.84c.85.42-.63,1.05,1.48,1.89s1.26,1.16,3.36,2.31,2.52,2.21,2.52,2.21c-.84-.63-1.68-1.05-2.31-1.47-1.16-.84-1.68-.63-3.68-1.58s-1.79-.1-3.15-.42-.84.42-1.26.42-2,.63-2.84.74-3,.84-2.73.94.32.21.11.74.31.42.31.42l1.16-.32c1.15-.31.21.43,1.36.11s.21.42,1,.32c1.37-.21-.52.73,0,.52,2.21-.63,2.31-.31,2.63-.21s.73.21.94.32,1.26.52,1.26.52c-1.15-.1-2-.21-2.31-.21a10.49,10.49,0,0,0-1.89.42c-.63,0-1.89,1-3.15,1.37s-1,.84-1.36,1c-1.26.74-3.68,2.63-2.52,2.21s.52.74.94.53c1.79-1.16,1.89-.32,1.89-.32a4.19,4.19,0,0,0,1.58-.63c1.15-.63.73.21,1.05.21s.52-.42,1.47-1,.73.1,1,0a11.86,11.86,0,0,1,2,0,24.74,24.74,0,0,0-7,3.47c-.84.73-2.94,3.15-2.1,2.84s.94-.95,1.47-1.27,1,0,1.57-.41.42.1.74,0,.42.1,1-.43.73.21,1.15,0c1.26-.84,1.47-.31,2.1-.84s.84.53,1.05.21a1.78,1.78,0,0,1,1-.31c.43,0,.85-.42,1.26-.63s1.16,0,1.16,0a16.53,16.53,0,0,0-6.93,6.41c-.84,1.79-1.79,4-1.16,3.68s1-1.79,1.79-2.31.94.52,2-1.68,1.37-.74,2.32-1.9,1-.73,1.68-1.26a3.14,3.14,0,0,1,1.47-.63c-.21.1-.32.32-.53.42l-.42.74-1,.84-.42.73a6.88,6.88,0,0,0-1.89,2c-.21.42.1.32-.42,1.37a3.06,3.06,0,0,1-.74,1.68c-.21.32-1,2.21-.73,3,0,.84-.11,2-.11,2.52s.74-1.16,1.16-1.47.63,0,1-1,.73-.32,1.26-1.27,1.05-.52,1.47-1.15.74-2,1.16-.84c.1.42,1.05-1.06,1.26-1.79,0,0,.1-1.89,1.05-1.68-.53.21-.53.94-.53.94s-.31.63,0,.84a1.29,1.29,0,0,0,0,1.37s-1.15,1.26-1.15,2c0,.31.52-.32.31.21s.32.21,0,1c-.1.31.63-.53.32.42s.31.1.21,1.26a1.1,1.1,0,0,0,.21,1s.52-1.69.63-1.27.31-1.05.42-.21.31-1.15.31-1.15.21-.53.32.1.31-1.26.42-.84.63-.74.63-1.16a1.52,1.52,0,0,0,.42-.31,2,2,0,0,0,.73-.21,10.34,10.34,0,0,0-.63,2.21c0,.31.21.1,0,1,0,.31.32-.32.32.52s.31.95.31.95l.21-.42s.21-1,.32-.63.52-1.05.52-1.05.11.21.21.42-.31.31.11,1c.1.31-.42.21-.11,1.15.11.32-.42.32.11,1.58.21.42-.74-.21.1,1.47.11.21-.63,0,.11,1.48.1.31-.63.42-.21,1.26.1.21.21.31,0,.52s-.32.53,0,1.16c.21.42-.42.11,0,1.26.21.53-.32.53,0,1.16s-.11.84,0,1.47-.42.42.21,1.69c.21.52-.53-.11-.11,1.15,0,.21-.52.21-.1,1.26.1.21-.21.32,0,1,.1.32-.21.53,0,1.16.1.42-.21.52-.11,1.15a6,6,0,0,1,.11.84s-.32.11-.11.74-.21.32,0,1c0,.32-.21.11-.21.74-.1.21-.52.1,0,1a8.67,8.67,0,0,0,3.68-.11c.21-.53,0-.63-.11-.53s-.1-1.05,0-1.26-.42.11-.1-1.26c.1-.42-.32-.42-.11-1s-.31-1-.1-1.89c.31-1.06-.42-.11-.21-.74s-.11-1,0-1.16-.11-.42.1-.94-.42-.64-.1-1.37-.32-.95-.11-1.47c.42-1-.21-.42.11-1s-.11-1,0-1.27.21-.63.1-.84c.21-.52-.31-.42-.1-1s-.42-.63-.11-1.16.11-.63.11-.84-.32.11,0-.73-.11-.32,0-1a6.82,6.82,0,0,0,.1-.95s-.31-.1-.1-.52-.53-.21-.21-.84.21-.53.21-.74-.21-.32,0-.84-.42,0-.21-.74.1-.52.1-.52-.31,0-.1-.63.1-.53.1-.53a.48.48,0,0,1-.31-.63v-.32s.31,0,.31.43a.62.62,0,0,0,.42.63,1.94,1.94,0,0,1,.42.94c.11.32.32-.63.63.21s.22-.73.22-.73a.88.88,0,0,0,0-1c-.32-.53.41.1.1-.74l-.32-.84a.46.46,0,0,0,.32-.1,1.06,1.06,0,0,0,.94-.32c.11,0,.22-.1.32-.1-.1.63.1.52.21.63s.32.42.32.42.1,1.58.2,1,.43.63.43.63a4.07,4.07,0,0,1,.21-1.26c.21-.53.31,2.52.31,1.79s.11-.74.21-.32.32.84.42.63.32.21.32.21a4,4,0,0,0-.11-1.47c-.21-.84.32-.11.32-.42s.21-.11.21-.21a5.41,5.41,0,0,0-.42-1.16c-.11-.1-.11-.31-.21-1.15v-.64c.52,0,.1.53.31,1.27s.42.42.42.42,0,1.47.42.84.11,1.16.42,1,.32.63.42.32.42.1.42.1.21-.63.32.11a4.15,4.15,0,0,0,.73,1.78,2.36,2.36,0,0,0,0-1.26c-.1-.63.32-.21.21-.73s.42,0,.21-1,.74.52.32-.63.42,0,.21-.42a13.52,13.52,0,0,0-.53-1.58c-.42-.84.53,0,.53,0s-.32-1-.53-1.37-.52-1.26-.52-1.26a2.51,2.51,0,0,0-.84-1.37,1.11,1.11,0,0,1,.73.32c.32.32,1.26,1.58,1.05,1a1.18,1.18,0,0,1,.21-1s1.26,1.79,1.26,1.37.42,0,.42,0-.1-.84.11-.74.63.53.73.21.74,1.05.74.74,1,.73,1,.21,1.26,1.15,1.26.52,1.26,1.16,1.16.53c-.53-1.37,0-1.37-.43-1.79-.94-1,0-.52-.2-1a4.94,4.94,0,0,0-2-1.68,24.7,24.7,0,0,0-5.15-2.73,13.93,13.93,0,0,1,3.36,1.15c.63.43,1.26.85,1.16.21s.73.64.63.11,1.15.63,1.05,0,2,.95,1.78.53C719.08,530.7,721.28,532.07,720.23,531.12Z"/><path class="cls-2" d="M661,575.15c-5.36-5.25-11-4.52-11-4.52a3,3,0,0,1,1.47-.21c1,.11,0-.52.84-.31s1.15.1.94-.11,1.37.53,1.06,0,1.68,1,1.15.32.11-.74.11-.74.94.74.84.32.52-.43.73-.32.95.21,1.26.32.32-.11.53-.32,2.1,1.16,1.57.63c-.94-1.16.32-.63.32-.63s.31-.11-.32-.53.11-.63-1.47-1.15-.1-.42-1.36-.53-.63-.31-1.58-.42c-2.31,0-.84-.42-1.57-.42s-1.58.32-2.42.32a32,32,0,0,0-3.47.52,6.84,6.84,0,0,1,2.52-.84c1.79-.31-.21-.42,1.16-.53s.84-.31,1.89-.52-.42-.74.32-.84,2,.42,1.89,0,1.68-.11,2.2-.21-.31-.53-.1-.74.63-.1.42-.52,1.57-.21,1.57-.21-.21-.53-2.31-.53-.52-.32-1.47-.21-2.41.52-2.94.52a9.69,9.69,0,0,0-2.73.74c-1,.42-.95,0-.95,0,.21-.31.21-.42.21-.52s.63-.53,1.26-.74-1.36-.11.63-.74,0-.52,1.27-.94.63-.84.63-.84a13.26,13.26,0,0,0,2.31-.74c.52-.32-1-.21-.74-.53s1.68-.52,1.37-.63-1.26.11-2.73,0-1.79.53-2.52.42-1.27.84-1.69.84-.73,0-2.2,1.16-1,0-1,0a26.59,26.59,0,0,1-2.42,2.31c-.73.43.63-1.68,0-1a18.49,18.49,0,0,0-1.78,2.74l.52-1.26s.63-1.48.84-1.79-.73-.32-.21-1-.1-1.06,0-1.58-.42-.32-.21-.95.53-1.15-.21-.63-.1-.84.11-2-.32-.63.1-1.57a5.31,5.31,0,0,0,.32-1.79c.1-.32-.63-.53-.53-.84s.32-1.48,0-1a4,4,0,0,1-1.15.84c-.32.1-.84,1.36-1.05,1.57s-.63.85-.84,1.06-.53,1.15-.95,1.78c-.42.42-.42,1.9-.42,2.63s-.42.74-.63,1.58a16.45,16.45,0,0,0,.31,3.68c-.94-2.52-2.2-4.1-2.31-3.47s-.73-.32-1.47-1-.94,0-2.2-1-1,.11-2.31-.73-.63.1-2.42-.74-.63.53-1.78.21-3.47-.21-2.31,0c2.52.74.73,1,1.68,1.26a11.49,11.49,0,0,1,1.78,1c.32.1.32.42.74.52s.94.43,1.78.85-.63,1,1.47,1.89,1.26,1.15,3.36,2.31,2.53,2.21,2.53,2.21c-.85-.63-1.69-1.05-2.32-1.47-1.15-.84-1.68-.63-3.67-1.58s-1.79-.1-3.15-.42-.84.42-1.26.42-2,.63-2.84.74-3,.84-2.73.94.31.21.1.74.32.42.32.42l1.16-.31c1.15-.32.2.41,1.36.1s.21.42,1,.31c1.37-.21-.52.74,0,.53,2.21-.63,2.31-.31,2.63-.21s.73.21.94.32,1.26.52,1.26.52c-1.15-.1-2-.21-2.31-.21a10.49,10.49,0,0,0-1.89.42c-.63,0-1.89,1-3.15,1.37s-1,.84-1.37,1c-1.26.74-3.67,2.63-2.52,2.21s.53.73,1,.53c1.78-1.16,1.89-.32,1.89-.32a4.13,4.13,0,0,0,1.57-.63c1.16-.63.74.21,1.05.21s.53-.42,1.48-1,.73.1,1,0a11.86,11.86,0,0,1,2,0,25,25,0,0,0-7,3.47c-.84.73-2.94,3.15-2.1,2.84s.95-.95,1.47-1.27,1,0,1.58-.42.42.11.74,0,.42.11,1.05-.42.73.21,1.15,0c1.26-.84,1.47-.31,2.1-.84s.84.53,1,.21a1.78,1.78,0,0,1,1-.31c.42,0,.84-.42,1.26-.63s1.16,0,1.16,0a16.53,16.53,0,0,0-6.93,6.41c-.84,1.79-1.79,4-1.16,3.68s1-1.79,1.79-2.31.94.52,2-1.68,1.37-.74,2.31-1.9,1-.73,1.68-1.26a3.14,3.14,0,0,1,1.47-.63c-.21.1-.31.31-.52.42l-.42.74-1,.84-.42.73a6.75,6.75,0,0,0-1.89,2c-.21.42.1.32-.42,1.37a3.06,3.06,0,0,1-.74,1.68c-.21.32-1,2.21-.73,2.95,0,.84-.11,2-.11,2.52s.74-1.16,1.16-1.47.63,0,1-1.05.73-.32,1.26-1.27,1.05-.52,1.47-1.15.73-2,1.15-.84c.11.42,1.05-1.06,1.26-1.79,0,0,.11-1.89,1.05-1.68-.52.21-.52.94-.52.94s-.32.63,0,.84a1.27,1.27,0,0,0,0,1.37s-1.16,1.26-1.16,2c0,.31.53-.32.32.21s.31.21,0,.94c-.11.32.63-.52.31.43s.32.1.21,1.26a1.1,1.1,0,0,0,.21.94s.53-1.68.63-1.26.32-1.05.42-.21.32-1.16.32-1.16.21-.52.31.11.32-1.26.43-.84.63-.74.63-1.16a1.45,1.45,0,0,0,.41-.31,2,2,0,0,0,.74-.21,10.34,10.34,0,0,0-.63,2.21c0,.31.21.1,0,1.05,0,.31.31-.32.31.52s.32.95.32.95l.21-.42s.21-1,.32-.63.52-1,.52-1,.11.21.21.42-.31.31.11,1c.1.31-.42.21-.11,1.16.11.31-.42.31.11,1.57.21.42-.74-.21.1,1.47.11.22-.63,0,.11,1.48.1.31-.63.42-.21,1.26.1.21.21.31,0,.52s-.32.53,0,1.16c.21.42-.42.11,0,1.26.21.53-.32.53,0,1.16s-.11.84,0,1.47-.42.42.21,1.68c.21.53-.53-.1-.11,1.16,0,.21-.52.21-.1,1.26.1.21-.21.32,0,1,.1.31-.21.52,0,1.16.1.42-.21.52-.11,1.15a6,6,0,0,1,.11.84s-.32.11-.11.74-.21.32,0,1c0,.32-.21.11-.21.74-.1.21-.52.1,0,.94a8.52,8.52,0,0,0,3.68-.1c.21-.53,0-.63-.11-.53a2.64,2.64,0,0,1,0-1.26c.11-.21-.42.11-.1-1.26.1-.42-.32-.42-.11-1.05s-.31-1-.1-1.9c.31-1-.42-.1-.21-.73s-.11-.95,0-1.16-.11-.42.1-.94-.42-.64-.1-1.37-.32-.95-.11-1.47c.42-1.05-.21-.42.11-1.05s-.11-.95,0-1.27.21-.63.1-.84c.21-.52-.31-.42-.1-1s-.42-.63-.11-1.16.11-.63.11-.84-.32.11,0-.73-.11-.32,0-.95a6.82,6.82,0,0,0,.1-1s-.31-.1-.1-.52-.53-.21-.21-.84.21-.53.21-.74-.21-.31,0-.84-.42,0-.21-.74.1-.52.1-.52-.31,0-.1-.63.1-.53.1-.53a.48.48,0,0,1-.31-.63v-.32s.31,0,.31.42a.6.6,0,0,0,.42.63,2,2,0,0,1,.42.95c.11.32.32-.63.63.21s.21-.73.21-.73a.86.86,0,0,0,0-.95c-.31-.53.42.1.11-.74l-.32-.84a.5.5,0,0,0,.32-.1,1.06,1.06,0,0,0,.94-.32c.11,0,.21-.1.32-.1-.11.63.1.52.21.63s.31.42.31.42.11,1.57.21,1.05.42.63.42.63a4,4,0,0,1,.21-1.26c.21-.53.32,2.52.32,1.79s.1-.74.21-.32.31.84.42.63.31.21.31.21a3.89,3.89,0,0,0-.1-1.47c-.21-.84.31-.11.31-.42s.21-.11.21-.21a3.71,3.71,0,0,0-.42-1.16c-.1-.1-.1-.31-.21-1.16v-.63c.53,0,.11.53.32,1.27s.42.42.42.42,0,1.47.42.84.1,1.16.42,1,.31.63.42.31.42.11.42.11.21-.63.31.11a4.24,4.24,0,0,0,.74,1.78,2.36,2.36,0,0,0,0-1.26c-.11-.63.32-.21.21-.74s.42,0,.21-.94.73.52.32-.63.41,0,.2-.42a11.36,11.36,0,0,0-.52-1.58c-.42-.84.52,0,.52,0a14.28,14.28,0,0,0-.52-1.37c-.21-.42-.53-1.26-.53-1.26a2.41,2.41,0,0,0-.84-1.37,1.14,1.14,0,0,1,.74.32c.32.31,1.26,1.58,1,1a1.17,1.17,0,0,1,.21-1s1.26,1.79,1.26,1.37.42,0,.42,0-.1-.85.11-.74.63.53.73.21.74,1,.74.74,1,.73,1,.21,1.26,1.15,1.26.52,1.26,1.16,1.15.53c-.52-1.37,0-1.37-.42-1.79-.94-.94,0-.53-.21-.94a4.8,4.8,0,0,0-2-1.69,25,25,0,0,0-5.15-2.73,13.51,13.51,0,0,1,3.36,1.16c.63.41,1.26.84,1.16.2s.73.64.63.11,1.15.63,1.05,0,2,1,1.78.53C659.84,574.63,662.05,576.1,661,575.15Z"/><path class="cls-3" d="M168.94-467.81v-14.46L165.28-484l-3.65,1.76L158-484l-3.66,1.76L150.66-484,147-482.27v14.46l3.66,1.76v14.46L147-449.84v14.46l3.66,1.76v14.46L147-417.27v14.33l3.66,1.89v14.33L147-384.83v14.32l3.66,1.9v14.32L147-352.4v14.33l3.66,1.89v14.33L147-320v14.32l3.66,1.89v14.33L147-287.53v14.33l3.66,1.89V-257L147-255.09v14.32l3.66,1.89v14.33L147-222.66v14.46l3.66,1.76V-192L147-190.22v14.46l3.66,1.75v14.46L147-157.79v14.46l3.66,1.76v14.46L147-125.35v14.46l3.66,1.75v14.47L147-92.92v14.46l3.66,1.89v14.33L147-60.35V-46l3.66,1.89V-29.8L147-27.91v14.32l3.66,1.89V2.63L147,4.52V18.85l3.66,1.89V35.07L147,37V51.28l3.66,1.89V67.5L147,69.39V83.72l3.66,1.89V99.93l-3.66,1.9v14.32l3.66,1.89v14.33L147,134.26v14.46l3.66,1.76v14.46L147,166.7v14.46l3.66,1.75v14.46L147,199.13v14.46l3.66,1.76v14.46L147,231.57V246l3.66,1.89v14.32l-3.66,1.9v14.32l3.66,1.89v14.33L147,296.57V310.9l3.66,1.89v14.32L147,329v14.32l3.66,1.89v14.33L147,361.44v14.33l3.66,1.89V392l-3.66,1.9V408.2l3.66,1.89v14.33L147,426.31v14.33l3.66,1.89v14.32l-3.66,1.9v14.32l3.66,1.89v14.33L147,491.18v14.46l3.66,1.76v14.46L147,523.62v14.46l3.66,1.75v14.46L147,556.05v14.46l3.66,1.76v14.46L147,588.49V603l3.66,1.89v14.32l-3.66,1.9v14.32l3.66,1.89V651.6L147,653.49v14.33l3.66,1.89V684l-3.66,1.9v14.32l3.66,1.89v14.33L147,718.36v14.33l3.66,1.89V748.9L147,750.8v14.32l3.66,1.89v14.33L147,783.23v14.33l3.66,1.89v14.32l-3.66,1.9v14.46l3.66,1.75v14.46L147,848.1v14.46l3.66,1.76v14.46L147,880.54V895l3.66,1.75v14.46L147,913v14.46l3.66,1.76v14.46L147,945.54v14.33l3.66,1.89v14.32L147,978V992.3l3.66,1.89v14.33l-3.66,1.89v14.33l3.66,1.89V1041l-3.66,1.9v14.32l3.66,1.89v14.33l-3.66,1.89v14.33l3.66,1.89v14.32l-3.66,1.9V1122l3.66,1.89v14.33l-3.66,1.89v14.33l3.66,1.89v14.46l-3.66,1.76v14.46l3.66,1.75v14.46L147,1205v14.46l3.66,1.76v14.46l-3.66,1.76v14.46l3.66,1.75v14.46l-3.66,1.76v14.46l3.66,1.76v14.46l-3.66,1.89v14.33l3.66,1.89V1333l-3.66,1.9v14.32l3.66,1.89v14.33l-3.66,1.89v14.33l3.66,1.89v14.32l-3.66,1.9v14.32l3.66,1.89v14.33L147,1432.2v14.33l3.66,1.89v14.32l-3.66,1.9V1479l3.66,1.89v14.33l-3.66,1.89v14.33l3.66,1.89v14.46l-3.66,1.76V1544l3.66,1.75v14.46l-3.66,1.76v14.46l3.66,1.76v14.46l-3.66,1.76v14.46l3.66,1.75v14.46L147,1627v14.32l3.66,1.89v14.33l-3.66,1.89v14.33l3.66,1.89v14.32l-3.66,1.9v14.32l3.66,1.89v14.33l-3.66,1.89v14.33l3.66,1.89v14.32l-3.66,1.9V1771l3.66,1.89v14.33l-3.66,1.89v14.33l3.66,1.89v14.32l-3.66,1.89v14.33l3.66,1.89v14.33L147,1854v14.33l3.66,1.89v14.46l-3.66,1.75v14.47l3.66,1.75v14.46l-3.66,1.76v14.46l3.66,1.76v14.46l-3.66,1.75v14.47l3.66,1.75,3.65-1.75,3.66,1.75,3.66-1.75,3.65,1.75,3.66-1.75v-14.47l-3.66-1.75v-14.46l3.66-1.76v-14.46l-3.66-1.76v-14.46l3.66-1.75v-14.47l-3.66-1.75v-14.46l3.66-1.89V1854l-3.66-1.89v-14.33l3.66-1.89v-14.33l-3.66-1.89v-14.32l3.66-1.89v-14.33l-3.66-1.89V1772.9l3.66-1.89v-14.32l-3.66-1.9v-14.32l3.66-1.89v-14.33l-3.66-1.89V1708l3.66-1.89v-14.32l-3.66-1.9V1675.6l3.66-1.89v-14.33l-3.66-1.89v-14.33l3.66-1.89V1627l-3.66-1.9v-14.46l3.66-1.75v-14.46l-3.66-1.76v-14.46l3.66-1.76v-14.46l-3.66-1.76v-14.46l3.66-1.75v-14.46l-3.66-1.76v-14.46l3.66-1.89v-14.33l-3.66-1.89v-14.33l3.66-1.89v-14.32l-3.66-1.9v-14.32l3.66-1.89V1432.2l-3.66-1.89V1416l3.66-1.89v-14.32l-3.66-1.9v-14.32l3.66-1.89v-14.33l-3.66-1.89v-14.33l3.66-1.89V1334.9l-3.66-1.9v-14.32l3.66-1.89v-14.33l-3.66-1.89v-14.46l3.66-1.76v-14.46l-3.66-1.76v-14.46l3.66-1.75v-14.46l-3.66-1.76v-14.46l3.66-1.76V1205l-3.66-1.76V1188.8l3.66-1.75v-14.46l-3.66-1.76v-14.46l3.66-1.89v-14.33l-3.66-1.89v-14.33l3.66-1.89v-14.32l-3.66-1.9V1091.5l3.66-1.89v-14.33l-3.66-1.89v-14.33l3.66-1.89v-14.32l-3.66-1.9v-14.32l3.66-1.89v-14.33l-3.66-1.89V994.19l3.66-1.89V978l-3.66-1.9V961.76l3.66-1.89V945.54l-3.66-1.89V929.19l3.66-1.76V913l-3.66-1.76V896.75l3.66-1.75V880.54l-3.66-1.76V864.32l3.66-1.76V848.1l-3.66-1.76V831.88l3.66-1.89V815.67l-3.66-1.9V799.45l3.66-1.89V783.23l-3.66-1.89V767l3.66-1.89V750.8l-3.66-1.9V734.58l3.66-1.89V718.36l-3.66-1.89V702.14l3.66-1.89V685.93l-3.66-1.9V669.71l3.66-1.89V653.49l-3.66-1.89V637.27l3.66-1.89V621.06l-3.66-1.9V604.84l3.66-1.89V588.49l-3.66-1.76V572.27l3.66-1.76V556.05l-3.66-1.76V539.83l3.66-1.75V523.62l-3.66-1.76V507.4l3.66-1.76V491.18l-3.66-1.89V475l3.66-1.89V458.75l-3.66-1.9V442.53l3.66-1.89V426.31l-3.66-1.89V410.09l3.66-1.89V393.88l-3.66-1.9V377.66l3.66-1.89V361.44l-3.66-1.89V345.22l3.66-1.89V329l-3.66-1.9V312.79l3.66-1.89V296.57l-3.66-1.89V280.35l3.66-1.89V264.14l-3.66-1.9V247.92l3.66-1.89V231.57l-3.66-1.76V215.35l3.66-1.76V199.13l-3.66-1.76V182.91l3.66-1.75V166.7l-3.66-1.76V150.48l3.66-1.76V134.26l-3.66-1.89V118l3.66-1.89V101.83l-3.66-1.9V85.61l3.66-1.89V69.39l-3.66-1.89V53.17l3.66-1.89V37l-3.66-1.89V20.74l3.66-1.89V4.52l-3.66-1.89V-11.7l3.66-1.89V-27.91l-3.66-1.89V-44.13L168.94-46V-60.35l-3.66-1.89V-76.57l3.66-1.89V-92.92l-3.66-1.75v-14.47l3.66-1.75v-14.46l-3.66-1.76v-14.46l3.66-1.76v-14.46l-3.66-1.76V-174l3.66-1.75v-14.46L165.28-192v-14.46l3.66-1.76v-14.46l-3.66-1.89v-14.33l3.66-1.89v-14.32L165.28-257v-14.33l3.66-1.89v-14.33l-3.66-1.89v-14.33l3.66-1.89V-320l-3.66-1.89v-14.33l3.66-1.89V-352.4l-3.66-1.89v-14.32l3.66-1.9v-14.32l-3.66-1.89V-401l3.66-1.89v-14.33l-3.66-1.89v-14.46l3.66-1.76v-14.46l-3.66-1.75V-466Z"/><path class="cls-3" d="M387-467.81v-14.46L383.34-484l-3.52,1.76L376.17-484l-3.66,1.76L368.85-484l-3.66,1.76v14.46l3.66,1.76v14.46l-3.66,1.75v14.46l3.66,1.76v14.46l-3.66,1.89v14.33l3.66,1.89v14.33l-3.66,1.89v14.32l3.66,1.9v14.32l-3.66,1.89v14.33l3.66,1.89v14.33L365.19-320v14.32l3.66,1.89v14.33l-3.66,1.89v14.33l3.66,1.89V-257l-3.66,1.89v14.32l3.66,1.89v14.33l-3.66,1.89v14.46l3.66,1.76V-192l-3.66,1.76v14.46l3.66,1.75v14.46l-3.66,1.76v14.46l3.66,1.76v14.46l-3.66,1.76v14.46l3.66,1.75v14.47l-3.66,1.75v14.46l3.66,1.89v14.33l-3.66,1.89V-46l3.66,1.89V-29.8l-3.66,1.89v14.32l3.66,1.89V2.63l-3.66,1.89V18.85l3.66,1.89V35.07L365.19,37V51.28l3.66,1.89V67.5l-3.66,1.89V83.72l3.66,1.89V99.93l-3.66,1.9v14.32l3.66,1.89v14.33l-3.66,1.89v14.46l3.66,1.76v14.46l-3.66,1.76v14.46l3.66,1.75v14.46l-3.66,1.76v14.46l3.66,1.76v14.46l-3.66,1.76V246l3.66,1.89v14.32l-3.66,1.9v14.32l3.66,1.89v14.33l-3.66,1.89V310.9l3.66,1.89v14.32l-3.66,1.9v14.32l3.66,1.89v14.33l-3.66,1.89v14.33l3.66,1.89V392l-3.66,1.9V408.2l3.66,1.89v14.33l-3.66,1.89v14.33l3.66,1.89v14.32l-3.66,1.9v14.32l3.66,1.89v14.33l-3.66,1.89v14.46l3.66,1.76v14.46l-3.66,1.76v14.46l3.66,1.75v14.46l-3.66,1.76v14.46l3.66,1.76v14.46l-3.66,1.76V603l3.66,1.89v14.32l-3.66,1.9v14.32l3.66,1.89V651.6l-3.66,1.89v14.33l3.66,1.89V684l-3.66,1.9v14.32l3.66,1.89v14.33l-3.66,1.89v14.33l3.66,1.89V748.9l-3.66,1.9v14.32l3.66,1.89v14.33l-3.66,1.89v14.33l3.66,1.89v14.32l-3.66,1.9V830l3.66,1.89v14.46l-3.66,1.76v14.46l3.66,1.76v14.46l-3.66,1.76V895l3.66,1.75v14.46L365.19,913v14.46l3.66,1.76v14.46l-3.66,1.89v14.33l3.66,1.89v14.32l-3.66,1.9V992.3l3.66,1.89v14.33l-3.66,1.89v14.33l3.66,1.89V1041l-3.66,1.9v14.32l3.66,1.89v14.33l-3.66,1.89v14.33l3.66,1.89v14.32l-3.66,1.9V1122l3.66,1.89v14.33l-3.66,1.89v14.33l3.66,1.89v14.46l-3.66,1.76v14.46l3.66,1.75v14.46l-3.66,1.76v14.46l3.66,1.76v14.46l-3.66,1.76v14.46l3.66,1.75v14.46l-3.66,1.76v14.46l3.66,1.76v14.46l-3.66,1.89v14.33l3.66,1.89V1333l-3.66,1.9v14.32l3.66,1.89v14.33l-3.66,1.89v14.33l3.66,1.89v14.32l-3.66,1.9v14.32l3.66,1.89v14.33l-3.66,1.89v14.33l3.66,1.89v14.32l-3.66,1.9V1479l3.66,1.89v14.33l-3.66,1.89v14.33l3.66,1.89v14.46l-3.66,1.76V1544l3.66,1.75v14.46l-3.66,1.76v14.46l3.66,1.76v14.46l-3.66,1.76v14.46l3.66,1.75v14.46l-3.66,1.9v14.32l3.66,1.89v14.33l-3.66,1.89v14.33l3.66,1.89v14.32l-3.66,1.9v14.32l3.66,1.89v14.33l-3.66,1.89v14.33l3.66,1.89v14.32l-3.66,1.9V1771l3.66,1.89v14.33l-3.66,1.89v14.33l3.66,1.89v14.32l-3.66,1.89v14.33l3.66,1.89v14.33l-3.66,1.89v14.33l3.66,1.89v14.46l-3.66,1.75v14.47l3.66,1.75v14.46l-3.66,1.76v14.46l3.66,1.76v14.46l-3.66,1.75v14.47l3.66,1.75,3.66-1.75,3.66,1.75,3.65-1.75,3.52,1.75,3.66-1.75v-14.47l-3.66-1.75v-14.46l3.66-1.76v-14.46l-3.66-1.76v-14.46l3.66-1.75v-14.47l-3.66-1.75v-14.46l3.66-1.89V1854l-3.66-1.89v-14.33l3.66-1.89v-14.33l-3.66-1.89v-14.32l3.66-1.89v-14.33l-3.66-1.89V1772.9L387,1771v-14.32l-3.66-1.9v-14.32l3.66-1.89v-14.33l-3.66-1.89V1708l3.66-1.89v-14.32l-3.66-1.9V1675.6l3.66-1.89v-14.33l-3.66-1.89v-14.33l3.66-1.89V1627l-3.66-1.9v-14.46l3.66-1.75v-14.46l-3.66-1.76v-14.46l3.66-1.76v-14.46l-3.66-1.76v-14.46L387,1544v-14.46l-3.66-1.76v-14.46l3.66-1.89v-14.33l-3.66-1.89v-14.33L387,1479v-14.32l-3.66-1.9v-14.32l3.66-1.89V1432.2l-3.66-1.89V1416l3.66-1.89v-14.32l-3.66-1.9v-14.32l3.66-1.89v-14.33l-3.66-1.89v-14.33l3.66-1.89V1334.9l-3.66-1.9v-14.32l3.66-1.89v-14.33l-3.66-1.89v-14.46l3.66-1.76v-14.46l-3.66-1.76v-14.46l3.66-1.75v-14.46l-3.66-1.76v-14.46l3.66-1.76V1205l-3.66-1.76V1188.8l3.66-1.75v-14.46l-3.66-1.76v-14.46l3.66-1.89v-14.33l-3.66-1.89v-14.33L387,1122v-14.32l-3.66-1.9V1091.5l3.66-1.89v-14.33l-3.66-1.89v-14.33l3.66-1.89v-14.32l-3.66-1.9v-14.32l3.66-1.89v-14.33l-3.66-1.89V994.19L387,992.3V978l-3.66-1.9V961.76l3.66-1.89V945.54l-3.66-1.89V929.19l3.66-1.76V913l-3.66-1.76V896.75L387,895V880.54l-3.66-1.76V864.32l3.66-1.76V848.1l-3.66-1.76V831.88l3.66-1.75V815.67l-3.66-1.9V799.45l3.66-1.89V783.23l-3.66-1.89V767l3.66-1.89V750.8l-3.66-1.9V734.58l3.66-1.89V718.36l-3.66-1.89V702.14l3.66-1.89V685.93l-3.66-1.9V669.71l3.66-1.89V653.49l-3.66-1.89V637.27l3.66-1.89V621.06l-3.66-1.9V604.84L387,603V588.49l-3.66-1.76V572.27l3.66-1.76V556.05l-3.66-1.76V539.83l3.66-1.75V523.62l-3.66-1.76V507.4l3.66-1.76V491.18l-3.66-1.89V475l3.66-1.89V458.75l-3.66-1.9V442.53l3.66-1.89V426.31l-3.66-1.89V410.09L387,408.2V393.88l-3.66-1.9V377.66l3.66-1.89V361.44l-3.66-1.89V345.22l3.66-1.89V329l-3.66-1.9V312.79L387,310.9V296.57l-3.66-1.89V280.35l3.66-1.89V264.14l-3.66-1.9V247.92L387,246V231.57l-3.66-1.76V215.35l3.66-1.76V199.13l-3.66-1.76V182.91l3.66-1.75V166.7l-3.66-1.76V150.48l3.66-1.76V134.26l-3.66-1.89V118l3.66-1.89V101.83l-3.66-1.9V85.61L387,83.72V69.39l-3.66-1.89V53.17L387,51.28V37l-3.66-1.89V20.74L387,18.85V4.52l-3.66-1.89V-11.7L387-13.59V-27.91l-3.66-1.89V-44.13L387-46V-60.35l-3.66-1.89V-76.57L387-78.46V-92.92l-3.66-1.75v-14.47l3.66-1.75v-14.46l-3.66-1.76v-14.46l3.66-1.76v-14.46l-3.66-1.76V-174l3.66-1.75v-14.46L383.34-192v-14.46L387-208.2v-14.46l-3.66-1.89v-14.33l3.66-1.89v-14.32L383.34-257v-14.33L387-273.2v-14.33l-3.66-1.89v-14.33l3.66-1.89V-320l-3.66-1.89v-14.33l3.66-1.89V-352.4l-3.66-1.89v-14.32l3.66-1.9v-14.32l-3.66-1.89V-401l3.66-1.89v-14.33l-3.66-1.89v-14.46l3.66-1.76v-14.46l-3.66-1.75V-466Z"/><path class="cls-3" d="M190.75,69.39V83.72l-3.66,1.89-3.66-1.89V69.39l-3.65-1.89-3.66,1.89V83.72l3.66,1.89V99.94l3.65,1.89v14.32l3.66,1.9,3.66-1.9V101.83l3.52-1.89V85.61l3.65-1.89V69.39l-3.65-1.89Z"/><path class="cls-3" d="M194.27,20.74l-3.52-1.89V4.52l-3.66-1.89-3.66,1.89V18.85l-3.65,1.89V35.07L176.12,37V51.28l3.66,1.9,3.65-1.9V37l3.66-1.89L190.75,37V51.28l3.52,1.9,3.65-1.9V37l-3.65-1.89Z"/><path class="cls-3" d="M190.74,685.93v14.32l-3.65,1.9-3.66-1.9V685.93L179.77,684l-3.65,1.89v14.32l3.65,1.9v14.32l3.66,1.89v14.33l3.66,1.89,3.65-1.89V718.36l3.53-1.89V702.15l3.65-1.9V685.93L194.27,684Z"/><path class="cls-3" d="M190.74,556.05v14.46l-3.65,1.76-3.66-1.76V556.05l-3.66-1.75-3.65,1.75v14.46l3.65,1.76v14.46l3.66,1.76V603l3.66,1.89,3.65-1.89V588.49l3.53-1.76V572.27l3.65-1.76V556.05l-3.65-1.75Z"/><path class="cls-3" d="M190.74,329v14.32l-3.65,1.9-3.66-1.9V329l-3.66-1.89L176.12,329v14.32l3.65,1.9v14.32l3.66,1.89v14.33l3.66,1.89,3.65-1.89V361.44l3.53-1.89V345.23l3.65-1.9V329l-3.65-1.89Z"/><path class="cls-3" d="M194.27,637.28l-3.53-1.9V621.06l-3.65-1.89-3.66,1.89v14.32l-3.66,1.9V651.6l-3.65,1.89v14.33l3.65,1.89,3.66-1.89V653.49l3.66-1.89,3.65,1.89v14.33l3.53,1.89,3.65-1.89V653.49l-3.65-1.89Z"/><path class="cls-3" d="M194.27,507.4l-3.53-1.76V491.18l-3.65-1.89-3.66,1.89v14.46l-3.66,1.76v14.46l-3.65,1.76v14.46l3.65,1.76,3.66-1.76V523.62l3.66-1.76,3.65,1.76v14.46l3.53,1.76,3.65-1.76V523.62l-3.65-1.76Z"/><path class="cls-3" d="M194.27,410.1l-3.66-1.9V393.88L187,392l-3.65,1.89V408.2l-3.66,1.9v14.32L176,426.31v14.33l3.66,1.89v14.33l3.66,1.89v14.32L187,475l3.66-1.9V458.75l3.66-1.89V442.53l3.65-1.89V426.31l-3.65-1.89Zm-3.52,30.54-3.66,1.89-3.66-1.89V426.31l3.66-1.89,3.66,1.89Z"/><path class="cls-3" d="M194.27,280.36l-3.53-1.9V264.14l-3.65-1.89-3.66,1.89v14.32l-3.66,1.9v14.32l-3.65,1.89V310.9l3.65,1.89,3.66-1.89V296.57l3.66-1.89,3.65,1.89V310.9l3.53,1.89,3.65-1.89V296.57l-3.65-1.89Z"/><path class="cls-3" d="M179.77,182.92l3.66-1.76V166.7l3.66-1.76,3.65,1.76v14.46l3.53,1.76,3.65-1.76V166.7l-3.65-1.76V150.48l-3.53-1.89V134.26l-3.65-1.89-3.66,1.89v14.33l-3.66,1.89v14.46l-3.65,1.76v14.46Z"/><path class="cls-3" d="M190.74,199.13v14.46l-3.65,1.76-3.66-1.76V199.13l-3.66-1.75-3.65,1.75v14.46l3.65,1.76v14.46l3.66,1.76V246l3.66,1.76,3.65-1.76V231.57l3.66-1.76V215.35l3.52-1.76V199.13l-3.52-1.75Z"/><path class="cls-3" d="M179.78,799.45l3.65-1.89V783.23l3.66-1.89,3.66,1.89v14.33l3.52,1.89,3.65-1.89V783.23l-3.65-1.89V767l-3.52-1.89V750.8l-3.66-1.9-3.66,1.9v14.32L179.78,767v14.33l-3.66,1.89v14.33Z"/><path class="cls-3" d="M190.75,815.67V830l-3.66,1.89L183.43,830V815.67l-3.65-1.89-3.66,1.89V830l3.66,1.89v14.33l3.65,1.89v14.46l3.66,1.76,3.66-1.76V848.1l3.65-1.89V831.88l3.52-1.89V815.67l-3.52-1.89Z"/><path class="cls-3" d="M350.7,69.39V83.72l-3.65,1.89-3.66-1.89V69.39l-3.66-1.89-3.65,1.89V83.72l3.65,1.89V99.94l3.66,1.89v14.32l3.66,1.9,3.65-1.9V101.83l3.66-1.89V85.61l3.52-1.89V69.39l-3.52-1.89Z"/><path class="cls-3" d="M354.36,20.74l-3.66-1.89V4.52l-3.65-1.89-3.66,1.89V18.85l-3.66,1.89V35.07L336.08,37V51.28l3.65,1.9,3.66-1.9V37l3.66-1.89L350.7,37V51.28l3.66,1.9,3.52-1.9V37l-3.52-1.89Z"/><path class="cls-3" d="M350.7,685.93v14.32l-3.65,1.9-3.66-1.9V685.93L339.73,684l-3.65,1.89v14.32l3.65,1.9v14.32l3.66,1.89v14.33l3.66,1.89,3.65-1.89V718.36l3.66-1.89V702.15l3.52-1.9V685.93L354.36,684Z"/><path class="cls-3" d="M350.7,556.05v14.46l-3.65,1.76-3.66-1.76V556.05l-3.66-1.75-3.65,1.75v14.46l3.65,1.76v14.46l3.66,1.76V603l3.66,1.89L350.7,603V588.49l3.66-1.76V572.27l3.52-1.76V556.05l-3.52-1.75Z"/><path class="cls-3" d="M350.7,329v14.32l-3.65,1.9-3.66-1.9V329l-3.66-1.89L336.08,329v14.32l3.65,1.9v14.32l3.66,1.89v14.33l3.66,1.89,3.65-1.89V361.44l3.66-1.89V345.23l3.52-1.9V329l-3.52-1.89Z"/><path class="cls-3" d="M354.36,637.28l-3.66-1.9V621.06l-3.65-1.9-3.66,1.9v14.32l-3.66,1.9V651.6l-3.65,1.89v14.33l3.65,1.89,3.66-1.89V653.49l3.66-1.89,3.65,1.89v14.33l3.66,1.89,3.52-1.89V653.49l-3.52-1.89Z"/><path class="cls-3" d="M354.36,507.4l-3.66-1.76V491.18l-3.65-1.89-3.66,1.89v14.46l-3.66,1.76v14.46l-3.65,1.76v14.46l3.65,1.76,3.66-1.76V523.62l3.66-1.76,3.65,1.76v14.46l3.66,1.76,3.52-1.76V523.62l-3.52-1.76Z"/><path class="cls-3" d="M354.36,410.1l-3.66-1.9V393.88L347.05,392l-3.66,1.89V408.2l-3.66,1.9v14.32l-3.65,1.89v14.33l3.65,1.89v14.33l3.66,1.89v14.32l3.66,1.89,3.65-1.89V458.75l3.66-1.89V442.53l3.66-1.89V426.31l-3.66-1.89Zm-3.66,30.54-3.65,1.89-3.66-1.89V426.31l3.66-1.89,3.65,1.89Z"/><path class="cls-3" d="M354.36,280.36l-3.66-1.9V264.14l-3.65-1.9-3.66,1.9v14.32l-3.66,1.9v14.32l-3.65,1.89V310.9l3.65,1.89,3.66-1.89V296.57l3.66-1.89,3.65,1.89V310.9l3.66,1.89,3.52-1.89V296.57l-3.52-1.89Z"/><path class="cls-3" d="M339.73,182.92l3.66-1.76V166.7l3.66-1.76,3.65,1.76v14.46l3.66,1.76,3.52-1.76V166.7l-3.52-1.76V150.48l-3.66-1.89V134.26l-3.65-1.89-3.66,1.89v14.33l-3.66,1.89v14.46l-3.65,1.76v14.46Z"/><path class="cls-3" d="M350.7,199.13v14.46l-3.65,1.76-3.66-1.76V199.13l-3.66-1.75-3.65,1.75v14.46l3.65,1.76v14.46l3.66,1.76V246l3.66,1.76L350.7,246V231.57l3.66-1.76V215.35l3.52-1.76V199.13l-3.52-1.75Z"/><path class="cls-3" d="M339.73,799.45l3.66-1.89V783.23l3.66-1.89,3.65,1.89v14.33l3.66,1.89,3.52-1.89V783.23l-3.52-1.89V767l-3.66-1.89V750.8l-3.65-1.9-3.66,1.9v14.32L339.73,767v14.33l-3.65,1.89v14.33Z"/><path class="cls-3" d="M350.7,815.67V830l-3.65,1.89L343.39,830V815.67l-3.66-1.89-3.65,1.89V830l3.65,1.89v14.33l3.66,1.89v14.46l3.66,1.76,3.65-1.76V848.1l3.66-1.89V831.88l3.52-1.89V815.67l-3.52-1.89Z"/><path class="cls-3" d="M296.12,556.05l-3.66-1.89V539.83l-3.65-1.89-3.66,1.89-3.66-1.89-3.65,1.89-3.66-1.89-3.66,1.89-3.66-1.89-3.65,1.89-3.66-1.89-3.66,1.89-3.65-1.89-3.66,1.89-3.66-1.89-3.65,1.89v14.33l-3.66,1.89v14.33L234,572.27v14.32l3.66,1.9v14.32L234,604.7V619l3.66,1.89v14.33l3.66,1.89,3.65-1.89,3.66,1.89v14.33l3.66,1.89,3.65-1.89,3.66,1.89,3.66-1.89,3.65,1.89,3.66-1.89,3.66,1.89,3.66-1.89,3.65,1.89,3.66-1.89V637.14l3.66-1.89,3.65,1.89,3.66-1.89V620.92l3.66-1.89V604.7l-3.66-1.89V588.49l3.66-1.9V572.27l-3.66-1.89Zm-25.46,81L267,635.11,263.34,637l-3.65-1.89V620.79L256,618.9V604.7l-3.66-1.89V588.49l3.66-1.9V572.27l-3.66-1.89V556.05l3.66-1.89,3.66,1.89,3.65-1.89,3.66,1.89,3.66-1.89,3.65,1.89,3.66-1.89,3.66,1.89v14.33L278,572.27v14.32l3.66,1.9v14.32L278,604.7V619l-3.66,1.89v14.33Z"/><path class="cls-3" d="M292.46,702.15l-3.65-1.9-3.66,1.9-3.66-1.9-3.65,1.9v14.32l3.65,1.89v14.33l-3.65,1.89v14.33l3.65,1.89v14.32l-3.65,1.9-3.66-1.9V750.66l-3.66-1.89V734.44l-3.66-1.89V718.23l-3.65-1.89-3.66,1.89-3.66-1.89V702l-3.65-1.89L248.58,702l-3.66-1.89L241.27,702l-3.66-1.89L234,702v14.33l3.66,1.89v14.32L234,734.44v14.33l3.66,1.89V765L234,766.88v14.33l3.66,1.89v14.32L234,799.31v14.33l3.66,1.89,3.66-1.89,3.65,1.89,3.66-1.89,3.66,1.89,3.65-1.89V799.31l-3.65-1.89V783.1l3.65-1.89V766.88L252.24,765V750.66l-3.66-1.89V734.44l3.66-1.89,3.65,1.89v14.33l3.66,1.89V765l3.66,1.89v14.33l3.65,1.89,3.66-1.89,3.66,1.89v14.32l3.66,1.89v14.33l3.65,1.89,3.66-1.89,3.66,1.89,3.65-1.89,3.66,1.89,3.66-1.89V799.31l-3.66-1.89V783.1l3.66-1.89V766.88L296.12,765V750.66l3.66-1.89V734.44l-3.66-1.89V718.23l3.66-1.89V702l-3.66-1.89Z"/><path class="cls-3" d="M270.66,377.66,267,375.9l-3.52,1.76-3.66-1.76-3.66,1.76v14.46l3.66,1.76V408.2l-3.66,1.89v14.33l3.66,1.89v14.33l-3.66,1.75v14.47l3.66,1.75v14.33l-3.66,1.89v14.33l3.66,1.89,3.66-1.89,3.52,1.89,3.66-1.89,3.65,1.89,3.66-1.89V474.83l-3.66-1.89V458.61l3.66-1.75V442.39l-3.66-1.75V426.31l3.66-1.89V410.09l-3.66-1.89V393.88l3.66-1.76V377.66l-3.66-1.76Z"/><path class="cls-3" d="M292.46,215.35l-3.65-1.89-3.66,1.89-3.66-1.89-3.65,1.89v14.32l3.65,1.9v14.32l-3.65,1.89v14.33l3.65,1.89v14.33l-3.65,1.89-3.66-1.89V264l-3.66-1.89V247.78l-3.66-1.89V231.57l-3.65-1.9-3.66,1.9-3.66-1.9V215.35l-3.65-1.89-3.66,1.89-3.66-1.89-3.65,1.89-3.66-1.89L234,215.35v14.32l3.66,1.9v14.32L234,247.78v14.33l3.66,1.89v14.33L234,280.22v14.33l3.66,1.89v14.32L234,312.65V327l3.66,1.89,3.66-1.89,3.65,1.89,3.66-1.89,3.66,1.89,3.65-1.89V312.65l-3.65-1.89V296.44l3.65-1.89V280.22l-3.65-1.89V264l-3.66-1.89V247.78l3.66-1.89,3.65,1.89v14.33l3.66,1.89v14.33l3.66,1.89v14.33l3.65,1.89,3.66-1.89,3.66,1.89v14.32l3.66,1.89V327l3.65,1.89,3.66-1.89,3.66,1.89,3.65-1.89,3.66,1.89,3.66-1.89V312.65l-3.66-1.89V296.44l3.66-1.89V280.22l-3.66-1.89V264l3.66-1.89V247.78l-3.66-1.89V231.57l3.66-1.9V215.35l-3.66-1.89Z"/><path class="cls-3" d="M292.46,53.18l-1.22-.55-2.43-1.21-3.66,1.76-3.66-1.76L278,53.18V67.5l3.52,1.89V83.72L278,85.61V99.94l3.52,1.75v14.46L278,117.91v14.33l-3.66,1.89v14.32l-3.65,1.89L267,148.45l-3.52,1.89-3.66-1.89V134.13l-3.65-1.89V117.91l-3.66-1.76V101.69l3.66-1.75V85.61l-3.66-1.89V69.39l3.66-1.89V53.18l-3.66-1.76-3.66,1.76-3.52-1.76-3.66,1.76L238,51.42l-3.66,1.76V67.5L238,69.39V83.72l-3.66,1.89V99.94l3.66,1.75v14.46l3.65,1.76v14.33L238,134.13v14.32l3.65,1.89,3.66-1.89,3.52,1.89v14.33l3.66,1.76,3.66-1.76,3.65,1.76,3.66-1.76,3.52,1.76,3.66-1.76,3.65,1.76,3.66-1.76,3.52,1.76,3.66-1.76V150.34l3.66-1.89,3.65,1.89,3.66-1.89V134.13l-3.66-1.89V117.91l3.66-1.76V101.69l3.52-1.75V85.61l-3.52-1.89V69.39l3.52-1.89V53.18l-3.52-1.76Z"/></svg>