<svg width="22" height="23" viewBox="0 0 22 23" fill="none" xmlns="http://www.w3.org/2000/svg">
<g id="XMLID_167_">
<path id="XMLID_791_" d="M21.4 11.5C21.4 17.2438 16.7438 21.9 11 21.9C5.25624 21.9 0.6 17.2438 0.6 11.5C0.6 5.75624 5.25624 1.1 11 1.1C16.7438 1.1 21.4 5.75624 21.4 11.5Z" stroke="#B44406" stroke-width="1.2"/>
<path id="XMLID_791__2" d="M17.7337 11.4998C17.7337 15.2186 14.719 18.2332 11.0003 18.2332C7.28161 18.2332 4.26699 15.2186 4.26699 11.4998C4.26699 7.78112 7.28161 4.7665 11.0003 4.7665C14.719 4.7665 17.7337 7.78112 17.7337 11.4998Z" stroke="#B44406" stroke-width="1.2"/>
<path id="XMLID_274_" d="M9.5 9.48112L12.8905 11.3937L9.5 13.4802V9.48112Z" stroke="#B44406"/>
</g>
</svg>
